<?xml version="1.0" encoding="UTF-8"?>
<svg width="48px" height="48px" viewBox="0 0 48 48" version="1.1" xmlns="http://www.w3.org/2000/svg" xmlns:xlink="http://www.w3.org/1999/xlink">
    <title>Icon-Resource/Networking-and-Content-Delivery/Res_AWS-App-Mesh-Virtual-Router_48_Light</title>
    <g id="Icon-Resource/Networking-and-Content-Delivery/Res_AWS-App-Mesh-Virtual-Router_48" stroke="none" stroke-width="1" fill="none" fill-rule="evenodd">
        <path d="M36,32.043 C35.543,32.498 34.801,32.498 34.344,32.043 C33.888,31.586 33.888,30.844 34.344,30.387 C34.801,29.93 35.543,29.93 36,30.387 C36.456,30.843 36.456,31.587 36,32.043 M25.187,37.982 C24.557,38.613 23.527,38.613 22.895,37.982 C22.263,37.35 22.263,36.321 22.895,35.689 C23.527,35.057 24.555,35.059 25.187,35.689 C25.493,35.995 25.662,36.402 25.662,36.836 C25.662,37.269 25.493,37.676 25.187,37.982 M22.895,23.209 C23.211,22.893 23.626,22.735 24.041,22.735 C24.456,22.735 24.871,22.893 25.187,23.209 C25.819,23.841 25.819,24.87 25.187,25.502 C24.555,26.135 23.527,26.135 22.895,25.502 C22.263,24.87 22.263,23.841 22.895,23.209 M22.895,9.931 C23.211,9.614 23.626,9.457 24.041,9.457 C24.456,9.457 24.871,9.614 25.187,9.931 C25.819,10.563 25.819,11.592 25.187,12.224 C24.555,12.856 23.527,12.856 22.895,12.224 C22.263,11.592 22.263,10.563 22.895,9.931 M34.344,16.34 C34.565,16.118 34.857,16.007 35.148,16.007 C35.439,16.007 35.731,16.118 35.953,16.34 C36.396,16.783 36.396,17.506 35.953,17.948 C35.509,18.394 34.786,18.393 34.344,17.949 C34.129,17.734 34.011,17.448 34.011,17.145 C34.011,16.84 34.129,16.555 34.344,16.34 M13.606,32.918 C13.177,33.35 12.424,33.35 11.992,32.918 C11.547,32.473 11.547,31.748 11.992,31.303 C12.215,31.08 12.507,30.969 12.8,30.969 C13.092,30.969 13.385,31.08 13.607,31.303 C13.823,31.519 13.942,31.806 13.942,32.11 C13.942,32.415 13.823,32.702 13.606,32.918 M12.168,18.56 C12.375,18.353 12.647,18.249 12.92,18.249 C13.192,18.249 13.465,18.353 13.672,18.56 C14.087,18.975 14.087,19.649 13.672,20.064 C13.258,20.479 12.582,20.479 12.168,20.064 C11.753,19.649 11.753,18.975 12.168,18.56 M37.414,28.973 C36.178,27.736 34.166,27.736 32.93,28.973 C32.124,29.778 31.854,30.911 32.098,31.947 L27.084,34.881 C26.945,34.665 26.787,34.461 26.602,34.275 C26.143,33.816 25.586,33.522 25,33.361 L25,27.829 C25.586,27.669 26.143,27.376 26.602,26.916 C27.512,26.006 27.826,24.73 27.562,23.558 L33.259,19.633 C33.817,20.056 34.479,20.28 35.148,20.28 C35.952,20.28 36.756,19.975 37.368,19.363 C38.59,18.139 38.59,16.148 37.367,14.926 C36.182,13.74 34.115,13.74 32.93,14.926 C32.337,15.518 32.011,16.306 32.011,17.145 C32.011,17.432 32.062,17.708 32.137,17.978 L26.6,21.793 C26.141,21.335 25.584,21.041 25,20.881 L25,14.552 C25.586,14.391 26.143,14.097 26.602,13.638 C28.014,12.226 28.014,9.929 26.602,8.517 C25.189,7.105 22.893,7.105 21.48,8.517 C20.068,9.929 20.068,12.226 21.48,13.638 C21.918,14.075 22.445,14.36 23,14.527 L23,20.905 C22.445,21.071 21.918,21.357 21.48,21.795 C20.068,23.207 20.068,25.504 21.48,26.916 C21.918,27.354 22.445,27.64 23,27.806 L23,33.386 C22.445,33.552 21.918,33.838 21.48,34.275 C21.282,34.474 21.119,34.692 20.977,34.921 L15.922,32.315 C15.927,32.247 15.942,32.18 15.942,32.11 C15.942,31.271 15.615,30.481 15.021,29.889 C14.721,29.587 14.371,29.362 14,29.209 L14,22.172 C14.396,22.023 14.769,21.797 15.086,21.479 C16.28,20.284 16.28,18.34 15.086,17.146 C13.893,15.95 11.947,15.95 10.754,17.146 C9.56,18.34 9.56,20.284 10.754,21.479 C11.113,21.839 11.545,22.076 12,22.22 L12,29.087 C11.479,29.224 10.984,29.481 10.578,29.889 C9.985,30.481 9.658,31.271 9.658,32.11 C9.658,32.95 9.985,33.739 10.578,34.332 C11.171,34.926 11.96,35.253 12.8,35.253 C13.64,35.253 14.429,34.926 15.021,34.333 C15.072,34.282 15.109,34.223 15.156,34.17 L20.426,36.888 C20.439,37.798 20.787,38.704 21.48,39.397 C22.187,40.103 23.113,40.455 24.041,40.455 C24.968,40.455 25.896,40.102 26.602,39.397 C27.279,38.72 27.652,37.819 27.66,36.862 L33.158,33.644 C33.742,34.128 34.453,34.384 35.172,34.384 C35.983,34.384 36.796,34.074 37.414,33.457 C38.649,32.221 38.649,30.209 37.414,28.973 M24,44 C12.972,44 4,35.028 4,24 C4,12.972 12.972,4 24,4 C35.028,4 44,12.972 44,24 C44,35.028 35.028,44 24,44 M24,2 C11.869,2 2,11.869 2,24 C2,36.131 11.869,46 24,46 C36.131,46 46,36.131 46,24 C46,11.869 36.131,2 24,2" id="AWS-App-Mesh-Virtual-Router_Resource-Icon_light-bg" fill="#4D27AA"></path>
    </g>
</svg>