<?xml version="1.0" encoding="UTF-8"?>
<svg width="48px" height="48px" viewBox="0 0 48 48" version="1.1" xmlns="http://www.w3.org/2000/svg" xmlns:xlink="http://www.w3.org/1999/xlink">
    <title>Icon-Resource/Networking-and-Content-Delivery/Res_AWS-App-Mesh-Virtual-Node_48_Light</title>
    <g id="Icon-Resource/Networking-and-Content-Delivery/Res_AWS-App-Mesh-Virtual-Node_48" stroke="none" stroke-width="1" fill="none" fill-rule="evenodd">
        <path d="M4,44 L44,44 L44,4 L4,4 L4,44 Z M45,2 L3,2 C2.447,2 2,2.447 2,3 L2,45 C2,45.553 2.447,46 3,46 L45,46 C45.553,46 46,45.553 46,45 L46,3 C46,2.447 45.553,2 45,2 L45,2 Z M8.494,16.742 C8.876,16.36 9.378,16.169 9.88,16.169 C10.382,16.169 10.884,16.36 11.266,16.742 C12.029,17.506 12.029,18.749 11.266,19.513 C10.502,20.276 9.258,20.276 8.494,19.513 C7.73,18.749 7.73,17.506 8.494,16.742 L8.494,16.742 Z M11.266,34.592 C10.502,35.355 9.258,35.355 8.494,34.592 C7.73,33.828 7.73,32.585 8.494,31.821 C8.876,31.439 9.378,31.248 9.88,31.248 C10.382,31.248 10.884,31.439 11.266,31.821 C12.029,32.585 12.029,33.828 11.266,34.592 L11.266,34.592 Z M22.68,37.156 C23.062,36.774 23.563,36.583 24.065,36.583 C24.567,36.583 25.069,36.774 25.451,37.156 C26.215,37.92 26.215,39.163 25.451,39.927 C24.687,40.69 23.443,40.69 22.68,39.927 C21.916,39.163 21.916,37.92 22.68,37.156 L22.68,37.156 Z M22.68,23.065 C23.062,22.684 23.563,22.492 24.065,22.492 C24.567,22.492 25.069,22.684 25.451,23.065 C26.215,23.829 26.215,25.072 25.451,25.836 C24.687,26.6 23.443,26.6 22.68,25.836 C21.916,25.072 21.916,23.829 22.68,23.065 L22.68,23.065 Z M22.68,8.074 C23.062,7.692 23.563,7.501 24.065,7.501 C24.567,7.501 25.069,7.692 25.451,8.074 C26.215,8.838 26.215,10.081 25.451,10.845 C24.687,11.608 23.443,11.608 22.68,10.845 C21.916,10.081 21.916,8.838 22.68,8.074 L22.68,8.074 Z M36.735,13.408 C37.117,13.026 37.618,12.836 38.12,12.836 C38.622,12.836 39.124,13.026 39.506,13.408 C40.27,14.173 40.27,15.416 39.506,16.18 C38.741,16.943 37.498,16.943 36.735,16.18 C35.972,15.416 35.972,14.172 36.735,13.408 L36.735,13.408 Z M36.735,29.321 C37.117,28.939 37.619,28.748 38.121,28.748 C38.622,28.748 39.124,28.939 39.506,29.321 C40.27,30.085 40.27,31.328 39.506,32.092 C38.741,32.856 37.498,32.854 36.735,32.092 C35.972,31.328 35.972,30.085 36.735,29.321 L36.735,29.321 Z M7.08,30.407 C5.536,31.951 5.536,34.462 7.08,36.006 C7.852,36.778 8.866,37.164 9.88,37.164 C10.894,37.164 11.908,36.778 12.68,36.006 C12.86,35.824 13.017,35.628 13.155,35.424 L20.112,38.586 C20.123,39.585 20.505,40.58 21.266,41.341 C22.037,42.113 23.052,42.499 24.065,42.499 C25.079,42.499 26.094,42.113 26.865,41.341 C27.659,40.547 28.038,39.498 28.015,38.456 L35.528,33.675 C36.271,34.323 37.19,34.664 38.121,34.664 C39.135,34.664 40.148,34.277 40.92,33.506 C42.464,31.962 42.464,29.451 40.92,27.907 C39.376,26.363 36.863,26.365 35.321,27.907 C34.21,29.02 33.911,30.629 34.401,32.021 L27.424,36.461 C27.267,36.207 27.086,35.963 26.865,35.742 C26.333,35.21 25.683,34.874 25,34.709 L25,28.283 C25.683,28.118 26.333,27.782 26.865,27.25 C27.888,26.227 28.218,24.782 27.886,23.473 L35.626,17.843 C36.352,18.437 37.231,18.752 38.121,18.752 C39.135,18.752 40.148,18.365 40.92,17.594 C42.463,16.051 42.463,13.539 40.92,11.994 C39.375,10.451 36.864,10.451 35.321,11.994 C34.177,13.139 33.886,14.814 34.438,16.234 L26.912,21.709 C26.895,21.69 26.883,21.669 26.865,21.651 C26.333,21.119 25.683,20.783 25,20.617 L25,13.292 C25.683,13.127 26.333,12.791 26.865,12.259 C28.409,10.715 28.409,8.204 26.865,6.66 C25.322,5.115 22.809,5.115 21.266,6.66 C19.722,8.204 19.722,10.715 21.266,12.259 C21.763,12.757 22.366,13.076 23,13.254 L23,20.656 C22.366,20.833 21.763,21.153 21.266,21.651 C19.722,23.195 19.722,25.706 21.266,27.25 C21.763,27.748 22.366,28.067 23,28.244 L23,34.747 C22.366,34.924 21.763,35.244 21.266,35.742 C21,36.008 20.798,36.309 20.623,36.621 L13.808,33.523 C13.896,32.406 13.532,31.26 12.68,30.407 C12.196,29.924 11.614,29.609 11,29.429 L11,21.905 C11.614,21.725 12.196,21.41 12.68,20.927 C14.224,19.383 14.224,16.872 12.68,15.328 C11.137,13.783 8.623,13.783 7.08,15.328 C5.536,16.872 5.536,19.383 7.08,20.927 C7.626,21.474 8.297,21.816 9,21.977 L9,29.357 C8.296,29.518 7.626,29.86 7.08,30.407 L7.08,30.407 Z" id="AWS-App-Mesh-Virtual-Node_Resource-Icon_light-bg" fill="#4D27AA"></path>
    </g>
</svg>