<?xml version="1.0" encoding="UTF-8"?>
<svg width="48px" height="48px" viewBox="0 0 48 48" version="1.1" xmlns="http://www.w3.org/2000/svg" xmlns:xlink="http://www.w3.org/1999/xlink">
    <title>Icon-Resource/Networking-and-Content-Delivery/Res_AWS-App-Mesh-Virtual-Service_48_Light</title>
    <g id="Icon-Resource/Networking-and-Content-Delivery/Res_AWS-App-Mesh-Virtual-Service_48" stroke="none" stroke-width="1" fill="none" fill-rule="evenodd">
        <path d="M43.2422,35.9375 C42.6522,36.5275 41.6952,36.5275 41.1052,35.9375 C40.8202,35.6525 40.6632,35.2735 40.6632,34.8705 C40.6632,34.4655 40.8202,34.0865 41.1052,33.8015 C41.4002,33.5065 41.7872,33.3605 42.1742,33.3605 C42.5602,33.3605 42.9472,33.5065 43.2422,33.8015 C43.8312,34.3905 43.8312,35.3485 43.2422,35.9375 L43.2422,35.9375 Z M30.9582,42.5835 C30.3882,43.1545 29.3942,43.1565 28.8222,42.5835 C28.2332,41.9955 28.2332,41.0365 28.8222,40.4475 C29.1162,40.1535 29.5042,40.0055 29.8902,40.0055 C30.2772,40.0055 30.6642,40.1535 30.9582,40.4475 C31.5472,41.0365 31.5472,41.9955 30.9582,42.5835 L30.9582,42.5835 Z M21.3322,36.9955 C21.2522,36.1925 20.9162,35.4455 20.3392,34.8685 C19.9602,34.4885 19.4962,34.2305 19.0002,34.0685 L19.0002,27.8635 C19.4882,27.6955 19.9492,27.4295 20.3392,27.0415 C21.7082,25.6715 21.7082,23.4455 20.3392,22.0765 C18.9692,20.7065 16.7432,20.7085 15.3752,22.0765 C14.0062,23.4455 14.0062,25.6715 15.3752,27.0415 C15.8402,27.5055 16.4052,27.7985 17.0002,27.9485 L17.0002,33.9865 C16.3962,34.1295 15.8262,34.4165 15.3752,34.8685 C14.7962,35.4475 14.4612,36.1965 14.3812,36.9995 L9.0002,36.9995 L9.0002,9.0005 L29.0002,9.0005 L29.0002,13.4915 C28.4092,13.6375 27.8512,13.9185 27.4082,14.3635 C26.7452,15.0255 26.3802,15.9075 26.3802,16.8445 C26.3802,17.7835 26.7452,18.6655 27.4082,19.3275 C27.8542,19.7735 28.4042,20.0715 29.0002,20.2275 L29.0002,26.1835 C28.4182,26.3355 27.8642,26.6245 27.4082,27.0805 C26.0392,28.4495 26.0392,30.6755 27.4082,32.0445 C27.8542,32.4925 28.4042,32.7905 29.0002,32.9455 L29.0002,38.1365 C28.4182,38.2895 27.8642,38.5785 27.4082,39.0335 C27.2442,39.1975 27.1022,39.3755 26.9772,39.5605 L21.3322,36.9955 Z M18.9252,25.6265 C18.3352,26.2135 17.3792,26.2155 16.7892,25.6265 C16.2002,25.0385 16.2002,24.0795 16.7892,23.4905 C17.0842,23.1965 17.4712,23.0485 17.8562,23.0485 C18.2432,23.0485 18.6302,23.1965 18.9252,23.4905 C19.5132,24.0795 19.5132,25.0385 18.9252,25.6265 L18.9252,25.6265 Z M18.9252,38.4175 C18.3562,38.9885 17.3612,38.9905 16.7892,38.4175 C16.5042,38.1325 16.3462,37.7535 16.3462,37.3505 C16.3462,36.9475 16.5042,36.5675 16.7892,36.2825 C17.0742,35.9975 17.4532,35.8395 17.8562,35.8395 C18.2612,35.8395 18.6392,35.9975 18.9252,36.2825 C19.2102,36.5675 19.3672,36.9465 19.3672,37.3505 C19.3672,37.7535 19.2102,38.1325 18.9252,38.4175 L18.9252,38.4175 Z M4.0002,32.9995 L4.0002,5.0005 L24.0002,5.0005 L24.0002,7.0005 L7.0002,7.0005 L7.0002,32.9995 L4.0002,32.9995 Z M30.9582,17.9135 C30.3882,18.4835 29.3922,18.4835 28.8222,17.9135 C28.5372,17.6275 28.3802,17.2495 28.3802,16.8445 C28.3802,16.4415 28.5372,16.0625 28.8222,15.7775 C29.1072,15.4925 29.4862,15.3345 29.8892,15.3345 C30.2942,15.3345 30.6732,15.4925 30.9582,15.7775 C31.2432,16.0625 31.4002,16.4415 31.4002,16.8445 C31.4002,17.2495 31.2432,17.6275 30.9582,17.9135 L30.9582,17.9135 Z M30.9582,30.6305 C30.3882,31.2015 29.3942,31.2025 28.8222,30.6305 C28.2332,30.0415 28.2332,29.0835 28.8222,28.4945 C29.1162,28.2005 29.5042,28.0525 29.8902,28.0525 C30.2772,28.0525 30.6642,28.2005 30.9582,28.4945 C31.5472,29.0835 31.5472,30.0415 30.9582,30.6305 L30.9582,30.6305 Z M41.1052,20.3025 C41.3992,20.0085 41.7862,19.8615 42.1742,19.8615 C42.5602,19.8615 42.9472,20.0085 43.2422,20.3025 C43.8302,20.8915 43.8302,21.8505 43.2422,22.4395 C42.6522,23.0275 41.6952,23.0275 41.1052,22.4395 C40.5162,21.8505 40.5162,20.8915 41.1052,20.3025 L41.1052,20.3025 Z M44.6562,32.3875 C43.2872,31.0185 41.0602,31.0185 39.6912,32.3875 C39.0282,33.0495 38.6632,33.9315 38.6632,34.8705 C38.6632,35.2335 38.7332,35.5825 38.8392,35.9185 L32.8872,39.7075 C32.7422,39.4685 32.5782,39.2395 32.3722,39.0335 C31.9742,38.6345 31.5012,38.3675 31.0002,38.2015 L31.0002,32.8785 C31.5102,32.7085 31.9812,32.4355 32.3722,32.0445 C33.1932,31.2235 33.5122,30.0935 33.3472,29.0255 L40.0532,24.1485 C40.6792,24.6255 41.4222,24.8785 42.1742,24.8785 C43.0722,24.8785 43.9712,24.5375 44.6562,23.8535 C46.0242,22.4845 46.0242,20.2575 44.6562,18.8885 C43.2872,17.5195 41.0582,17.5195 39.6912,18.8885 C38.7072,19.8735 38.4432,21.2985 38.8752,22.5335 L32.4652,27.1945 C32.4312,27.1585 32.4082,27.1155 32.3722,27.0805 C31.9742,26.6815 31.5012,26.4145 31.0002,26.2475 L31.0002,20.1615 C31.5102,19.9915 31.9812,19.7185 32.3722,19.3275 C33.0352,18.6655 33.4002,17.7835 33.4002,16.8445 C33.4002,15.9075 33.0352,15.0255 32.3722,14.3635 C31.9842,13.9755 31.5082,13.7145 31.0002,13.5535 L31.0002,7.0005 L26.0002,7.0005 L26.0002,2.9995 L2.0002,2.9995 L2.0002,35.0005 L7.0002,35.0005 L7.0002,39.0005 L14.7752,39.0005 C14.9372,39.2995 15.1272,39.5845 15.3752,39.8325 C16.0382,40.4955 16.9192,40.8605 17.8562,40.8605 C18.7952,40.8605 19.6772,40.4955 20.3392,39.8325 C20.5842,39.5875 20.7722,39.3055 20.9322,39.0095 L26.3842,41.4875 C26.3772,42.3955 26.7172,43.3065 27.4082,43.9985 C28.0702,44.6615 28.9522,45.0265 29.8892,45.0265 C30.8282,45.0265 31.7102,44.6615 32.3722,43.9985 C32.9922,43.3775 33.3162,42.5805 33.3752,41.7675 L39.9642,37.5745 C40.6072,38.0995 41.3862,38.3775 42.1742,38.3775 C43.0732,38.3775 43.9712,38.0365 44.6562,37.3515 C46.0252,35.9835 46.0252,33.7555 44.6562,32.3875 L44.6562,32.3875 Z" id="AWS-App-Mesh-Virtual-Service_Resource-Icon_light-bg" fill="#4D27AA"></path>
    </g>
</svg>