<?xml version="1.0" encoding="UTF-8"?>
<svg width="48px" height="48px" viewBox="0 0 48 48" version="1.1" xmlns="http://www.w3.org/2000/svg" xmlns:xlink="http://www.w3.org/1999/xlink">
    <title>Icon-Resource/Networking-and-Content-Delivery/Res_AWS-Cloud-WAN_Core-Network-Edge_48_Light</title>
    <g id="Icon-Resource/Networking-and-Content-Delivery/Res_AWS-Cloud-WAN_Core-Network-Edge_48" stroke="none" stroke-width="1" fill="none" fill-rule="evenodd">
        <path d="M42,26 C40.897,26 40,25.103 40,24 C40,22.897 40.897,22 42,22 C43.103,22 44,22.897 44,24 C44,25.103 43.103,26 42,26 M25,36.949 L25,30.92 C28.059,30.479 30.479,28.059 30.92,25 L36.949,25 C36.461,31.37 31.37,36.461 25,36.949 M24,44 C22.897,44 22,43.103 22,42 C22,40.897 22.897,40 24,40 C25.103,40 26,40.897 26,42 C26,43.103 25.103,44 24,44 M11.051,25 L17.08,25 C17.521,28.059 19.941,30.479 23,30.92 L23,36.949 C16.63,36.461 11.539,31.37 11.051,25 M23,11.051 L23,17.08 C19.941,17.521 17.521,19.941 17.08,23 L11.051,23 C11.539,16.63 16.63,11.539 23,11.051 M24,4 C25.103,4 26,4.897 26,6 C26,7.103 25.103,8 24,8 C22.897,8 22,7.103 22,6 C22,4.897 22.897,4 24,4 M24,29 C21.243,29 19,26.757 19,24 C19,21.243 21.243,19 24,19 C26.757,19 29,21.243 29,24 C29,26.757 26.757,29 24,29 M36.949,23 L30.92,23 C30.479,19.941 28.059,17.521 25,17.08 L25,11.051 C31.37,11.539 36.461,16.63 36.949,23 M6,26 C4.897,26 4,25.103 4,24 C4,22.897 4.897,22 6,22 C7.103,22 8,22.897 8,24 C8,25.103 7.103,26 6,26 M42,20 C40.683,20 39.524,20.647 38.794,21.631 C37.777,15.258 32.742,10.223 26.369,9.206 C27.353,8.476 28,7.316 28,6 C28,3.794 26.206,2 24,2 C21.794,2 20,3.794 20,6 C20,7.316 20.647,8.476 21.631,9.206 C15.258,10.223 10.223,15.258 9.206,21.631 C8.476,20.647 7.317,20 6,20 C3.794,20 2,21.794 2,24 C2,26.206 3.794,28 6,28 C7.317,28 8.476,27.353 9.206,26.369 C10.223,32.742 15.258,37.777 21.631,38.794 C20.647,39.524 20,40.684 20,42 C20,44.206 21.794,46 24,46 C26.206,46 28,44.206 28,42 C28,40.684 27.353,39.524 26.369,38.794 C32.742,37.777 37.777,32.742 38.794,26.369 C39.524,27.353 40.683,28 42,28 C44.206,28 46,26.206 46,24 C46,21.794 44.206,20 42,20" id="Fill-1" fill="#4D27AA"></path>
    </g>
</svg>