<?xml version="1.0" encoding="UTF-8"?>
<svg width="48px" height="48px" viewBox="0 0 48 48" version="1.1" xmlns="http://www.w3.org/2000/svg" xmlns:xlink="http://www.w3.org/1999/xlink">
    <title>Icon-Resource/Networking-and-Content-Delivery/Res_AWS-Cloud-Map-Resource_48_Light</title>
    <g id="Icon-Resource/Networking-and-Content-Delivery/Res_AWS-Cloud-Map-Resource_48" stroke="none" stroke-width="1" fill="none" fill-rule="evenodd">
        <path d="M36.3555,34.8279 C36.0285,34.5009 35.5985,34.3379 35.1685,34.3379 C34.7395,34.3379 34.3095,34.5009 33.9825,34.8279 C33.3285,35.4819 33.3285,36.5479 33.9825,37.2019 C34.6365,37.8559 35.7015,37.8559 36.3555,37.2019 C37.0095,36.5479 37.0095,35.4819 36.3555,34.8279 M26.6535,41.2119 L26.5975,41.1239 C26.5295,41.0229 26.4535,40.9259 26.3645,40.8369 C25.9705,40.4429 25.4535,40.2459 24.9355,40.2459 C24.4175,40.2459 23.9005,40.4429 23.5065,40.8369 C22.7195,41.6239 22.7195,42.9059 23.5065,43.6929 C24.2935,44.4799 25.5775,44.4799 26.3645,43.6929 C27.0375,43.0209 27.1285,41.9899 26.6535,41.2119 M23.5065,32.0179 C24.2025,32.7139 25.3315,32.7139 26.0265,32.0179 C26.7205,31.3239 26.7205,30.1929 26.0265,29.4989 C25.6785,29.1509 25.2225,28.9779 24.7665,28.9779 C24.3105,28.9779 23.8545,29.1509 23.5065,29.4989 C22.8125,30.1929 22.8125,31.3239 23.5065,32.0179 M23.5065,20.3379 C24.2785,21.1069 25.5305,21.1069 26.3015,20.3379 C27.0715,19.5669 27.0715,18.3129 26.3015,17.5439 C25.9165,17.1589 25.4105,16.9659 24.9045,16.9659 C24.3985,16.9659 23.8925,17.1589 23.5065,17.5439 C22.7365,18.3139 22.7365,19.5669 23.5065,20.3379 M33.5095,22.8769 C33.5095,23.3069 33.6775,23.7129 33.9825,24.0169 C34.6115,24.6459 35.6345,24.6459 36.2635,24.0169 C36.8915,23.3889 36.8925,22.3649 36.2635,21.7359 C35.9595,21.4319 35.5535,21.2639 35.1235,21.2639 C34.6915,21.2639 34.2875,21.4319 33.9825,21.7359 C33.6775,22.0409 33.5095,22.4449 33.5095,22.8769 M14.1915,39.2729 C14.5405,38.9249 14.7325,38.4619 14.7325,37.9689 C14.7325,37.4759 14.5405,37.0129 14.1915,36.6639 C13.8325,36.3049 13.3595,36.1249 12.8865,36.1249 C12.4155,36.1249 11.9425,36.3049 11.5835,36.6639 C10.8645,37.3839 10.8645,38.5549 11.5835,39.2729 C12.3025,39.9929 13.4735,39.9909 14.1915,39.2729 M11.5835,26.7789 C12.2335,27.4299 13.2935,27.4299 13.9445,26.7789 C14.2595,26.4639 14.4335,26.0449 14.4335,25.5989 C14.4335,25.1519 14.2595,24.7329 13.9445,24.4179 C13.6285,24.1019 13.2095,23.9289 12.7635,23.9289 C12.3175,23.9289 11.8985,24.1019 11.5835,24.4179 C10.9315,25.0689 10.9315,26.1279 11.5835,26.7789 M37.7695,33.4139 C39.2045,34.8489 39.2045,37.1819 37.7695,38.6159 C37.0525,39.3329 36.1105,39.6909 35.1685,39.6909 C34.3395,39.6909 33.5175,39.3959 32.8415,38.8389 L28.8335,41.3369 C29.1435,42.6489 28.8005,44.0859 27.7785,45.1069 C26.9945,45.8909 25.9645,46.2829 24.9355,46.2829 C23.9065,46.2829 22.8765,45.8909 22.0925,45.1069 C21.4555,44.4699 21.0915,43.6689 20.9725,42.8389 L15.7775,40.4779 C15.7175,40.5469 15.6695,40.6229 15.6055,40.6869 C14.8565,41.4369 13.8725,41.8109 12.8875,41.8109 C11.9025,41.8109 10.9185,41.4369 10.1685,40.6869 C8.6695,39.1889 8.6695,36.7499 10.1685,35.2499 C10.6895,34.7289 11.3285,34.4009 11.9975,34.2419 L11.9975,29.1829 C11.3095,29.0379 10.6765,28.7019 10.1685,28.1929 C9.4755,27.5009 9.0945,26.5789 9.0945,25.5989 C9.0945,24.6179 9.4755,23.6959 10.1685,23.0039 C11.5535,21.6169 13.9715,21.6169 15.3585,23.0039 C16.0515,23.6969 16.4335,24.6179 16.4335,25.5989 C16.4335,26.5789 16.0515,27.5009 15.3585,28.1929 C14.9685,28.5829 14.5015,28.8619 13.9975,29.0419 L13.9975,34.3069 C14.5845,34.4829 15.1425,34.7859 15.6055,35.2499 C16.3325,35.9759 16.7325,36.9419 16.7325,37.9689 C16.7325,38.2119 16.7065,38.4499 16.6625,38.6839 L21.2105,40.7509 C21.4075,40.2669 21.7015,39.8139 22.0925,39.4229 C22.6365,38.8799 23.2995,38.5369 23.9975,38.3699 L23.9975,34.4549 C23.2985,34.3109 22.6325,33.9739 22.0925,33.4319 C20.6185,31.9579 20.6185,29.5589 22.0925,28.0849 C22.6325,27.5439 23.2985,27.2059 23.9975,27.0609 L23.9975,22.7989 C23.2995,22.6359 22.6355,22.2949 22.0925,21.7519 C20.5425,20.2019 20.5425,17.6799 22.0925,16.1299 C23.6435,14.5789 26.1655,14.5789 27.7155,16.1299 C29.2655,17.6799 29.2655,20.2009 27.7155,21.7519 C27.2215,22.2459 26.6255,22.5639 25.9975,22.7439 L25.9975,27.1979 C26.3685,27.3259 26.7185,27.5149 27.0425,27.7609 L31.7505,24.1509 C31.5975,23.7479 31.5095,23.3199 31.5095,22.8769 C31.5095,21.9109 31.8855,21.0039 32.5685,20.3219 C33.9315,18.9579 36.3125,18.9559 37.6775,20.3219 C39.0855,21.7299 39.0855,24.0219 37.6775,25.4319 C36.9735,26.1359 36.0475,26.4869 35.1225,26.4869 C34.3555,26.4869 33.5955,26.2309 32.9555,25.7469 L28.2715,29.3389 C28.8225,30.7039 28.5445,32.3269 27.4405,33.4319 C27.0215,33.8519 26.5235,34.1379 25.9975,34.3189 L25.9975,38.4069 C26.6485,38.5849 27.2675,38.9119 27.7785,39.4229 C27.8225,39.4679 27.8535,39.5189 27.8945,39.5649 L31.7015,37.1939 C31.2665,35.9099 31.5465,34.4359 32.5685,33.4139 C34.0015,31.9799 36.3355,31.9799 37.7695,33.4139 M45.9955,22.5379 C45.9955,28.8599 40.7485,30.9129 37.9745,31.1149 L37.9015,30.1179 L37.8255,29.1209 C38.0775,29.1009 43.9955,28.5639 43.9955,22.5379 C43.9955,17.4839 39.7395,16.2069 37.9095,15.8909 C37.3745,15.7999 37.0095,15.2959 37.0895,14.7589 C37.0915,12.5619 36.1675,10.9629 34.5535,10.4319 C33.1295,9.9659 31.5685,10.4819 30.6605,11.7169 C30.4405,12.0159 30.0785,12.1619 29.7075,12.1129 C29.3405,12.0579 29.0345,11.8059 28.9115,11.4569 C28.2825,9.6729 27.3745,8.1759 26.2105,7.0059 C24.7855,5.5719 20.8705,2.4889 15.3575,4.8339 C12.1715,6.1869 9.6755,10.0889 9.6755,13.7149 L9.7515,14.9819 C9.7805,15.4599 9.4655,15.8909 9.0015,16.0099 C7.1335,16.4889 4.0005,17.9659 4.0005,22.4739 C4.0005,25.8629 5.8335,27.7299 7.3705,28.7009 L6.3035,30.3919 C4.6965,29.3779 2.0005,27.0009 2.0005,22.4739 C2.0005,17.1199 5.5315,15.0679 7.7095,14.3119 L7.6775,13.7729 C7.6755,9.2729 10.6425,4.6639 14.5765,2.9929 C19.1795,1.0349 24.0625,2.0089 27.6285,5.5959 C28.6725,6.6449 29.5395,7.9059 30.2135,9.3569 C31.6215,8.3059 33.4625,7.9699 35.1775,8.5319 C37.4345,9.2739 38.8535,11.3259 39.0645,14.0919 C42.5515,14.9559 45.9955,17.5559 45.9955,22.5379" id="AWS-Cloud-Map-Resource_Resource-Icon_light-bg" fill="#4D27AA"></path>
    </g>
</svg>