<?xml version="1.0" encoding="UTF-8"?>
<svg width="48px" height="48px" viewBox="0 0 48 48" version="1.1" xmlns="http://www.w3.org/2000/svg" xmlns:xlink="http://www.w3.org/1999/xlink">
    <title>Icon-Resource/Networking-and-Content-Delivery/Res_Icon-Amazon-VPC-Global-WAN_Network-Segment_48_Light</title>
    <g id="Icon-Resource/Networking-and-Content-Delivery/Res_Icon-Amazon-VPC-Global-WAN_Network-Segment_48" stroke="none" stroke-width="1" fill="none" fill-rule="evenodd">
        <path d="M27.999799,38.81 L27.999799,43.839 C35.980799,42.405 42.405799,35.98 43.839799,27.999 L38.810799,27.999 C37.526799,33.319 33.318799,37.527 27.999799,38.81 L27.999799,38.81 Z M26.999799,45.999 C26.756799,45.999 26.519799,45.91 26.335799,45.747 C26.121799,45.557 25.999799,45.285 25.999799,44.999 L25.999799,37.999 C25.999799,37.515 26.346799,37.101 26.821799,37.015 C31.985799,36.082 36.082799,31.986 37.015799,26.821 C37.101799,26.345 37.516799,25.999 37.999799,25.999 L44.999799,25.999 C45.285799,25.999 45.557799,26.121 45.747799,26.335 C45.936799,26.549 46.025799,26.833 45.992799,27.117 C44.831799,36.892 36.893799,44.83 27.117799,45.992 C27.078799,45.997 27.038799,45.999 26.999799,45.999 L26.999799,45.999 Z M4.15979897,27.999 C5.59379897,35.98 12.018799,42.405 19.999799,43.839 L19.999799,38.81 C14.680799,37.527 10.472799,33.319 9.18879897,27.999 L4.15979897,27.999 Z M20.999799,45.999 C20.960799,45.999 20.921799,45.997 20.881799,45.992 C11.105799,44.83 3.16779897,36.892 2.00679897,27.117 C1.97379897,26.833 2.06179897,26.549 2.25179897,26.335 C2.44179897,26.121 2.71379897,25.999 2.99979897,25.999 L9.99979897,25.999 C10.482799,25.999 10.897799,26.345 10.983799,26.821 C11.916799,31.986 16.013799,36.082 21.177799,37.015 C21.652799,37.101 21.999799,37.515 21.999799,37.999 L21.999799,44.999 C21.999799,45.285 21.877799,45.557 21.663799,45.747 C21.479799,45.91 21.242799,45.999 20.999799,45.999 L20.999799,45.999 Z M38.810799,19.999 L43.839799,19.999 C42.405799,12.018 35.980799,5.593 27.999799,4.159 L27.999799,9.188 C33.318799,10.471 37.526799,14.679 38.810799,19.999 L38.810799,19.999 Z M44.999799,21.999 L37.999799,21.999 C37.516799,21.999 37.101799,21.653 37.015799,21.177 C36.082799,16.012 31.985799,11.915 26.821799,10.983 C26.346799,10.897 25.999799,10.483 25.999799,9.999 L25.999799,2.999 C25.999799,2.713 26.121799,2.441 26.335799,2.251 C26.548799,2.062 26.829799,1.976 27.117799,2.006 C36.893799,3.168 44.831799,11.106 45.992799,20.881 C46.025799,21.165 45.936799,21.449 45.747799,21.663 C45.557799,21.877 45.285799,21.999 44.999799,21.999 L44.999799,21.999 Z M4.15979897,19.999 L9.18879897,19.999 C10.472799,14.679 14.680799,10.471 19.999799,9.188 L19.999799,4.159 C12.018799,5.593 5.59379897,12.018 4.15979897,19.999 L4.15979897,19.999 Z M9.99979897,21.999 L2.99979897,21.999 C2.71379897,21.999 2.44179897,21.877 2.25179897,21.663 C2.06179897,21.449 1.97379897,21.165 2.00679897,20.881 C3.16779897,11.106 11.105799,3.168 20.881799,2.006 C21.162799,1.975 21.450799,2.061 21.663799,2.251 C21.877799,2.441 21.999799,2.713 21.999799,2.999 L21.999799,9.999 C21.999799,10.483 21.652799,10.897 21.177799,10.983 C16.013799,11.915 11.916799,16.012 10.983799,21.177 C10.897799,21.653 10.482799,21.999 9.99979897,21.999 L9.99979897,21.999 Z" id="Fill-1" fill="#4D27AA"></path>
    </g>
</svg>