<?xml version="1.0" encoding="UTF-8"?>
<svg width="48px" height="48px" viewBox="0 0 48 48" version="1.1" xmlns="http://www.w3.org/2000/svg" xmlns:xlink="http://www.w3.org/1999/xlink">
    <title>Icon-Resource/Networking-and-Content-Delivery/Res_AWS-Amazon-CloudFront_Streaming-Distribution_48_Light</title>
    <g id="Icon-Resource/Networking-and-Content-Delivery/Res_AWS-Amazon-CloudFront_Streaming-Distribution_48" stroke="none" stroke-width="1" fill="none" fill-rule="evenodd">
        <path d="M31.1309,28.5088 L32.5449,29.9228 L24.6799,37.7868 C24.4849,37.9828 24.2289,38.0798 23.9729,38.0798 C23.7169,38.0798 23.4609,37.9828 23.2659,37.7868 L15.4019,29.9228 L16.8159,28.5088 L22.9729,34.6658 L22.9729,9.1168 L24.9729,9.1168 L24.9729,34.6658 L31.1309,28.5088 Z M23.9729,43.9448 C12.9599,43.9448 3.9999,34.9858 3.9999,23.9728 C3.9999,12.9598 12.9599,3.9998 23.9729,3.9998 C34.9849,3.9998 43.9449,12.9598 43.9449,23.9728 C43.9449,34.9858 34.9849,43.9448 23.9729,43.9448 L23.9729,43.9448 Z M23.9729,1.9998 C11.8569,1.9998 1.9999,11.8568 1.9999,23.9728 C1.9999,36.0878 11.8569,45.9448 23.9729,45.9448 C36.0889,45.9448 45.9449,36.0878 45.9449,23.9728 C45.9449,11.8568 36.0889,1.9998 23.9729,1.9998 L23.9729,1.9998 Z" id="AWS-Amazon-CloudFront_streaming-distribution_Resource-Icon_light-bg" fill="#4D27AA"></path>
    </g>
</svg>