<?xml version="1.0" encoding="UTF-8"?>
<svg width="48px" height="48px" viewBox="0 0 48 48" version="1.1" xmlns="http://www.w3.org/2000/svg" xmlns:xlink="http://www.w3.org/1999/xlink">
    <title>Icon-Resource/Networking-and-Content-Delivery/Res_AWS-Direct-Connect-Gateway_48_Light</title>
    <g id="Icon-Resource/Networking-and-Content-Delivery/Res_AWS-Direct-Connect-Gateway_48" stroke="none" stroke-width="1" fill="none" fill-rule="evenodd">
        <polygon id="AWS-Direct-Connect-Gateway_Resource-Icon_light-bg" fill="#4D27AA" points="24.279 2 5.779 12.68 6.778 14.413 23.278 4.886 23.278 22.938 7.328 22.938 11.485 18.781 10.072 17.367 3 24.437 10.072 31.507 11.485 30.094 6.328 24.937 23.278 24.937 23.278 42.992 6.778 33.466 5.779 35.198 24.279 45.879 42.778 35.198 41.779 33.466 25.279 42.992 25.279 24.937 41.999 24.937 37.402 29.536 38.816 30.949 45.886 23.879 38.816 16.808 37.402 18.222 42.116 22.938 25.279 22.938 25.279 4.886 41.779 14.413 42.778 12.68"></polygon>
    </g>
</svg>