<?xml version="1.0" encoding="UTF-8"?>
<svg width="74px" height="74px" viewBox="0 0 74 74" version="1.1" xmlns="http://www.w3.org/2000/svg" xmlns:xlink="http://www.w3.org/1999/xlink">
    <title>Icon-Architecture-Category/48/Networking-Content-Delivery_48</title>
    <defs>
        <linearGradient x1="0%" y1="100%" x2="100%" y2="0%" id="linearGradient-1">
            <stop stop-color="#4D27A8" offset="0%"></stop>
            <stop stop-color="#A166FF" offset="100%"></stop>
        </linearGradient>
    </defs>
    <g id="Icon-Architecture-Category/48/Networking-Content-Delivery_48" stroke="none" stroke-width="1" fill="none" fill-rule="evenodd">
        <rect id="Rectangle" fill="url(#linearGradient-1)" x="5" y="5" width="64" height="64"></rect>
        <rect id="#879196-Border-Copy-19" stroke="#879196" stroke-width="2" x="1" y="1" width="72" height="72"></rect>
        <g id="Icon-Category/48/Networking-Content-Delivery_48" transform="translate(13.000000, 13.000000)" fill="#FFFFFF">
            <path d="M37.821,27 L11.791,27 C8.489,27 6,24.41 6,21.113 C6.002,20.876 6.13,15.318 12.922,15.318 C13.474,15.318 13.922,14.87 13.922,14.318 C13.922,4.177 21.651,4.002 21.976,4 C25.995,4 28.301,5.707 29.235,9.371 C29.31,9.667 29.516,9.912 29.794,10.037 C30.073,10.162 30.393,10.153 30.663,10.013 C31.662,9.498 32.56,9.981 33.14,10.478 C34.296,11.466 35.161,13.478 34.609,15.133 C34.507,15.438 34.558,15.773 34.746,16.034 C34.934,16.295 35.236,16.449 35.557,16.449 C40.391,16.449 43,19.2 43,21.789 C43,25.084 41.161,27 37.821,27 M38.25,37.5 C38.25,38.878 37.129,40 35.75,40 C34.371,40 33.25,38.878 33.25,37.5 C33.25,36.122 34.371,35 35.75,35 C37.129,35 38.25,36.122 38.25,37.5 M26.75,41.5 C26.75,42.878 25.629,44 24.25,44 C22.871,44 21.75,42.878 21.75,41.5 C21.75,40.122 22.871,39 24.25,39 C25.629,39 26.75,40.122 26.75,41.5 M12.75,40 C11.371,40 10.25,38.878 10.25,37.5 C10.25,36.122 11.371,35 12.75,35 C14.129,35 15.25,36.122 15.25,37.5 C15.25,38.878 14.129,40 12.75,40 M36.764,14.5 C36.948,12.318 35.844,10.159 34.44,8.958 C33.35,8.025 32.076,7.644 30.867,7.855 C29.519,3.969 26.533,2 21.976,2 C21.879,2 12.455,2.132 11.943,13.351 C4.093,13.899 4,21.034 4,21.108 C4,25.477 7.422,29 11.791,29 L20.145,29 L14.842,33.54 C14.214,33.207 13.509,33 12.75,33 C10.268,33 8.25,35.019 8.25,37.5 C8.25,39.981 10.268,42 12.75,42 C15.231,42 17.25,39.981 17.25,37.5 C17.25,36.509 16.918,35.601 16.374,34.856 L23.25,28.899 L23.25,37.121 C21.25,37.578 19.75,39.363 19.75,41.5 C19.75,43.981 21.768,46 24.25,46 C26.731,46 28.75,43.981 28.75,41.5 C28.75,39.363 27.25,37.578 25.25,37.121 L25.25,28.899 L32.126,34.856 C31.582,35.601 31.25,36.509 31.25,37.5 C31.25,39.981 33.268,42 35.75,42 C38.231,42 40.25,39.981 40.25,37.5 C40.25,35.019 38.231,33 35.75,33 C34.991,33 34.286,33.207 33.658,33.54 L28.354,29 L37.821,29 C42.316,29 45,26.241 45,21.789 C45,18.472 42.124,14.96 36.764,14.5" id="Networking-Content-Delivery_Category-Icon_48_Squid"></path>
        </g>
    </g>
</svg>