<?xml version="1.0" encoding="UTF-8"?>
<svg width="64px" height="64px" viewBox="0 0 64 64" version="1.1" xmlns="http://www.w3.org/2000/svg" xmlns:xlink="http://www.w3.org/1999/xlink">
    <title>Icon-Architecture/48/Arch_AWS-Private-5G_48</title>
    <defs>
        <linearGradient x1="0%" y1="100%" x2="100%" y2="0%" id="linearGradient-1">
            <stop stop-color="#4D27A8" offset="0%"></stop>
            <stop stop-color="#A166FF" offset="100%"></stop>
        </linearGradient>
    </defs>
    <g id="Icon-Architecture/48/Arch_AWS-Private-5G_48" stroke="none" stroke-width="1" fill="none" fill-rule="evenodd">
        <g id="Rectangle" fill="url(#linearGradient-1)">
            <rect x="0" y="0" width="64" height="64"></rect>
        </g>
        <g id="Icon-Service/48/AWS-Private-5G_48" transform="translate(8.000000, 8.000000)" fill="#FFFFFF">
            <path d="M18.437,7.23 L11.451,1.92 L10.24,3.512 L17.226,8.822 L18.437,7.23 Z M36.875,3.492 L35.665,1.9 L28.678,7.21 L29.889,8.802 L36.875,3.492 Z M25,40.019 L28,40.019 L28,37.019 L25,37.019 L25,40.019 Z M20,40.019 L23,40.019 L23,37.019 L20,37.019 L20,40.019 Z M25,35.019 L28,35.019 L28,32.019 L25,32.019 L25,35.019 Z M20,35.019 L23,35.019 L23,32.019 L20,32.019 L20,35.019 Z M43.978,41.071 C43.65,40.438 40.361,38.951 32,38.138 L32,43.721 C39.272,43.151 43.454,41.889 43.978,41.071 L43.978,41.071 Z M30,29.019 L18,29.019 L18,43.855 C19.838,43.957 21.834,44.019 24,44.019 C26.167,44.019 28.163,43.957 30,43.854 L30,29.019 Z M16,27.019 L23,27.019 L23,22.539 C13.401,22.985 5.669,29.707 4.247,38.6 C6.941,37.292 11.639,36.564 16,36.159 L16,27.019 Z M16,38.17 C7.608,38.973 4.32,40.467 4.012,41.12 C4.439,41.876 8.641,43.149 16,43.722 L16,38.17 Z M23.891,13.519 C25.27,13.519 26.391,12.397 26.391,11.019 C26.391,9.641 25.27,8.519 23.891,8.519 C22.512,8.519 21.391,9.641 21.391,11.019 C21.391,12.397 22.512,13.519 23.891,13.519 L23.891,13.519 Z M25,22.541 L25,27.019 L32,27.019 L32,36.126 C36.336,36.536 40.962,37.263 43.663,38.546 C41.969,29.804 34.178,23.005 25,22.541 L25,22.541 Z M45.992,41.058 C45.993,41.074 46,41.09 46,41.107 C46,45.881 26.252,46.019 24,46.019 C21.749,46.019 2,45.881 2,41.107 C2,41.067 2.017,41.032 2.019,40.993 L2,40.992 C2.3,29.823 11.444,21.03 23,20.539 L23,15.429 C20.944,15.014 19.391,13.196 19.391,11.019 C19.391,8.538 21.41,6.519 23.891,6.519 C26.373,6.519 28.391,8.538 28.391,11.019 C28.391,13.116 26.944,14.867 25,15.364 L25,20.541 C36.126,21.053 45.45,30.045 45.999,41.057 L45.992,41.058 Z M36.875,19.181 L29.889,13.871 L28.678,15.464 L35.665,20.773 L36.875,19.181 Z M31,13.019 L42,13.019 L42,11.019 L31,11.019 L31,13.019 Z M10.24,19.2 L11.451,20.793 L18.437,15.483 L17.226,13.891 L10.24,19.2 Z M6,13.019 L17,13.019 L17,11.019 L6,11.019 L6,13.019 Z" id="Fill-3"></path>
        </g>
    </g>
</svg>