<?xml version="1.0" encoding="UTF-8"?>
<svg width="48px" height="48px" viewBox="0 0 48 48" version="1.1" xmlns="http://www.w3.org/2000/svg" xmlns:xlink="http://www.w3.org/1999/xlink">
    <title>Icon-Resource/Networking-and-Content-Delivery/Res_AWS-Transit-Gateway_Attachment_48_Light</title>
    <g id="Icon-Resource/Networking-and-Content-Delivery/Res_AWS-Transit-Gateway_Attachment_48" stroke="none" stroke-width="1" fill="none" fill-rule="evenodd">
        <path d="M24,44 C12.972,44 4,35.028 4,24 C4,12.972 12.972,4 24,4 C35.028,4 44,12.972 44,24 C44,35.028 35.028,44 24,44 M24,2 C11.869,2 2,11.869 2,24 C2,36.131 11.869,46 24,46 C36.131,46 46,36.131 46,24 C46,11.869 36.131,2 24,2 M36,27 C34.346,27 33,25.654 33,24 C33,22.346 34.346,21 36,21 C37.654,21 39,22.346 39,24 C39,25.654 37.654,27 36,27 M12,27 C10.346,27 9,25.654 9,24 C9,22.346 10.346,21 12,21 C13.654,21 15,22.346 15,24 C15,25.654 13.654,27 12,27 M36,19 C33.586,19 31.566,20.721 31.101,23 L16.899,23 C16.434,20.721 14.414,19 12,19 C9.243,19 7,21.243 7,24 C7,26.757 9.243,29 12,29 C14.414,29 16.434,27.279 16.899,25 L31.101,25 C31.566,27.279 33.586,29 36,29 C38.757,29 41,26.757 41,24 C41,21.243 38.757,19 36,19" id="Fill-1" fill="#4D27AA"></path>
    </g>
</svg>