<?xml version="1.0" encoding="UTF-8"?>
<svg width="48px" height="48px" viewBox="0 0 48 48" version="1.1" xmlns="http://www.w3.org/2000/svg" xmlns:xlink="http://www.w3.org/1999/xlink">
    <title>Icon-Resource/Networking-Content-Delivery/Res_Amazon-VPC_Reachability-Analyzer_48_Light</title>
    <g id="Icon-Resource/Networking-Content-Delivery/Res_Amazon-VPC_Reachability-Analyzer_48" stroke="none" stroke-width="1" fill="none" fill-rule="evenodd">
        <path d="M42,40 C42,41.103 41.103,42 40,42 C38.897,42 38,41.103 38,40 C38,38.897 38.897,38 40,38 C41.103,38 42,38.897 42,40 M10,8 C10,9.103 9.103,10 8,10 C6.897,10 6,9.103 6,8 C6,6.897 6.897,6 8,6 C9.103,6 10,6.897 10,8 M40,44 C37.794,44 36,42.206 36,40 C36,37.794 37.794,36 40,36 C42.206,36 44,37.794 44,40 C44,42.206 42.206,44 40,44 M24,20 C26.206,20 28,21.794 28,24 C28,26.206 26.206,28 24,28 C21.794,28 20,26.206 20,24 C20,21.794 21.794,20 24,20 M8,12 C5.794,12 4,10.206 4,8 C4,5.794 5.794,4 8,4 C10.206,4 12,5.794 12,8 C12,10.206 10.206,12 8,12 M40,34 C37.033,34 34.568,36.167 34.09,39 L14,39 C10.141,39 7,35.86 7,32 C7,28.14 10.141,25 14,25 L18.09,25 C18.568,27.833 21.033,30 24,30 C26.967,30 29.432,27.833 29.91,25 L34,25 C38.963,25 43,20.962 43,16 C43,11.038 38.963,7 34,7 L13.91,7 C13.432,4.167 10.967,2 8,2 C4.691,2 2,4.691 2,8 C2,11.309 4.691,14 8,14 C10.967,14 13.432,11.833 13.91,9 L34,9 C37.859,9 41,12.14 41,16 C41,19.86 37.859,23 34,23 L29.91,23 C29.432,20.167 26.967,18 24,18 C21.033,18 18.568,20.167 18.09,23 L14,23 C9.037,23 5,27.038 5,32 C5,36.962 9.037,41 14,41 L34.09,41 C34.568,43.833 37.033,46 40,46 C43.309,46 46,43.309 46,40 C46,36.691 43.309,34 40,34" id="Fill-1" fill="#4D27AA"></path>
    </g>
</svg>