<?xml version="1.0" encoding="UTF-8"?>
<svg width="48px" height="48px" viewBox="0 0 48 48" version="1.1" xmlns="http://www.w3.org/2000/svg" xmlns:xlink="http://www.w3.org/1999/xlink">
    <title>Icon-Resource/Database/Res_Amazon-Aurora-PIOPS_48_Light</title>
    <g id="Icon-Resource/Database/Res_Amazon-Aurora-PIOPS_48" stroke="none" stroke-width="1" fill="none" fill-rule="evenodd">
        <path d="M41.4631,37.9053 C41.5721,38.1663 41.6271,38.4813 41.6271,38.8523 C41.6271,39.5713 41.3951,40.1403 40.9291,40.5613 C40.4641,40.9803 39.8221,41.1903 39.0061,41.1903 C38.6501,41.1903 38.2941,41.1493 37.9391,41.0653 C37.5821,40.9823 37.2831,40.8733 37.0411,40.7363 L37.0411,39.5453 C37.3211,39.6513 37.6381,39.7403 37.9891,39.8113 C38.3411,39.8843 38.6431,39.9193 38.8921,39.9193 C39.2551,39.9193 39.5301,39.8353 39.7201,39.6643 C39.9091,39.4933 40.0041,39.2503 40.0041,38.9313 C40.0041,38.6973 39.9391,38.4993 39.8061,38.3363 C39.6731,38.1743 39.4511,38.0093 39.1421,37.8423 L38.5281,37.5123 C37.9691,37.2103 37.5681,36.8853 37.3261,36.5373 C37.0841,36.1883 36.9631,35.7643 36.9631,35.2663 C36.9631,34.8033 37.0681,34.4013 37.2791,34.0573 C37.4911,33.7133 37.7811,33.4483 38.1481,33.2623 C38.5161,33.0773 38.9381,32.9843 39.4141,32.9843 C40.0121,32.9843 40.6061,33.1213 41.1961,33.3923 L41.1961,34.5953 C40.5831,34.3693 40.0421,34.2563 39.5721,34.2563 C39.2551,34.2563 39.0061,34.3353 38.8231,34.4933 C38.6431,34.6533 38.5511,34.8723 38.5511,35.1513 C38.5511,35.3873 38.6101,35.5803 38.7281,35.7313 C38.8451,35.8833 39.0691,36.0493 39.4021,36.2303 L40.0151,36.5593 C40.4091,36.7723 40.7211,36.9833 40.9511,37.1953 C41.1841,37.4073 41.3531,37.6433 41.4631,37.9053 L41.4631,37.9053 Z M34.2331,36.5933 C34.0771,36.8133 33.8531,36.9233 33.5581,36.9233 L32.8181,36.9233 L32.8181,34.3353 L33.5581,34.3353 C33.8531,34.3353 34.0771,34.4453 34.2331,34.6643 C34.3881,34.8843 34.4651,35.2063 34.4651,35.6303 C34.4651,36.0533 34.3881,36.3753 34.2331,36.5933 L34.2331,36.5933 Z M33.7501,33.1553 L31.2641,33.1553 L31.2641,41.0203 L32.8181,41.0203 L32.8181,38.1033 L33.7501,38.1033 C34.4451,38.1033 35.0001,37.8823 35.4121,37.4393 C35.8251,36.9973 36.0311,36.3933 36.0311,35.6303 C36.0311,34.8643 35.8251,34.2603 35.4121,33.8183 C35.0001,33.3763 34.4451,33.1553 33.7501,33.1553 L33.7501,33.1553 Z M27.9041,39.1933 C27.6471,39.6703 27.2691,39.9083 26.7711,39.9083 C26.2711,39.9083 25.8921,39.6703 25.6351,39.1933 C25.3771,38.7163 25.2491,38.0123 25.2491,37.0813 C25.2491,36.1283 25.3741,35.4213 25.6231,34.9593 C25.8731,34.4983 26.2551,34.2663 26.7711,34.2663 C27.2831,34.2663 27.6661,34.4983 27.9161,34.9593 C28.1651,35.4213 28.2901,36.1283 28.2901,37.0813 C28.2901,38.0123 28.1621,38.7163 27.9041,39.1933 L27.9041,39.1933 Z M26.7711,32.9843 C25.7711,32.9843 24.9951,33.3423 24.4421,34.0573 C23.8901,34.7713 23.6131,35.7803 23.6131,37.0813 C23.6131,38.3843 23.8901,39.3933 24.4421,40.1123 C24.9951,40.8313 25.7711,41.1903 26.7711,41.1903 C27.7691,41.1903 28.5441,40.8313 29.0961,40.1123 C29.6491,39.3933 29.9251,38.3843 29.9251,37.0813 C29.9251,35.7803 29.6491,34.7713 29.0961,34.0573 C28.5441,33.3423 27.7691,32.9843 26.7711,32.9843 L26.7711,32.9843 Z M20.6411,41.0203 L22.2301,41.0203 L22.2301,33.1553 L20.6411,33.1553 L20.6411,41.0203 Z M17.5481,36.5933 C17.3931,36.8133 17.1681,36.9233 16.8721,36.9233 L16.1351,36.9233 L16.1351,34.3353 L16.8721,34.3353 C17.1681,34.3353 17.3931,34.4453 17.5481,34.6643 C17.7021,34.8843 17.7801,35.2063 17.7801,35.6303 C17.7801,36.0533 17.7021,36.3753 17.5481,36.5933 L17.5481,36.5933 Z M17.0661,33.1553 L14.5791,33.1553 L14.5791,41.0203 L16.1351,41.0203 L16.1351,38.1033 L17.0661,38.1033 C17.7611,38.1033 18.3161,37.8823 18.7291,37.4393 C19.1411,36.9973 19.3471,36.3933 19.3471,35.6303 C19.3471,34.8643 19.1411,34.2603 18.7291,33.8183 C18.3161,33.3763 17.7611,33.1553 17.0661,33.1553 L17.0661,33.1553 Z M43.9081,40.1203 C43.9081,42.2093 42.2091,43.9083 40.1201,43.9083 L7.7881,43.9083 C5.6991,43.9083 4.0001,42.2093 4.0001,40.1203 L4.0001,7.7883 C4.0001,5.6993 5.6991,4.0003 7.7881,4.0003 L40.1201,4.0003 C42.2091,4.0003 43.9081,5.6993 43.9081,7.7883 L43.9081,40.1203 Z M40.1201,2.0003 L7.7881,2.0003 C4.5971,2.0003 2.0001,4.5963 2.0001,7.7883 L2.0001,40.1203 C2.0001,43.3113 4.5971,45.9083 7.7881,45.9083 L40.1201,45.9083 C43.3121,45.9083 45.9081,43.3113 45.9081,40.1203 L45.9081,7.7883 C45.9081,4.5963 43.3121,2.0003 40.1201,2.0003 L40.1201,2.0003 Z" id="Amazon-DATABASEAmazon-Aurora-PIOPS_Resource-Icon_light-bg" fill="#2E27AD"></path>
    </g>
</svg>