<?xml version="1.0" encoding="UTF-8"?>
<svg width="48px" height="48px" viewBox="0 0 48 48" version="1.1" xmlns="http://www.w3.org/2000/svg" xmlns:xlink="http://www.w3.org/1999/xlink">
    <title>Icon-Resource/Database/Res_Amazon-Aurora-MySQL-Instance_48_Light</title>
    <g id="Icon-Resource/Database/Res_Amazon-Aurora-MySQL-Instance_48" stroke="none" stroke-width="1" fill="none" fill-rule="evenodd">
        <path d="M43.9636,29.9804 L43.9636,26.4504 C42.2346,27.3924 39.6146,27.8794 37.0056,27.8794 C34.3966,27.8794 31.7756,27.3924 30.0466,26.4504 L30.0466,29.9804 C30.0466,30.6084 32.4136,32.0814 37.0056,32.0814 C41.5966,32.0814 43.9636,30.6084 43.9636,29.9804 L43.9636,29.9804 Z M43.9636,36.0724 L43.9636,32.6514 C42.2346,33.5934 39.6146,34.0814 37.0056,34.0814 C34.3966,34.0814 31.7756,33.5934 30.0466,32.6514 L30.0466,36.0724 C30.0466,36.7004 32.4136,38.1724 37.0056,38.1724 C41.5966,38.1724 43.9636,36.7004 43.9636,36.0724 L43.9636,36.0724 Z M43.9636,41.5114 L43.9636,38.7434 C42.2346,39.6854 39.6146,40.1724 37.0056,40.1724 C34.3966,40.1724 31.7756,39.6854 30.0466,38.7434 L30.0466,41.5114 C30.0466,42.1394 32.4136,43.6124 37.0056,43.6124 C41.5966,43.6124 43.9636,42.1394 43.9636,41.5114 L43.9636,41.5114 Z M30.0466,23.7794 C30.0466,24.4074 32.4136,25.8794 37.0056,25.8794 C41.5966,25.8794 43.9636,24.4074 43.9636,23.7794 C43.9636,23.1514 41.5966,21.6784 37.0056,21.6784 C32.4136,21.6784 30.0466,23.1514 30.0466,23.7794 L30.0466,23.7794 Z M45.9636,23.7794 L45.9636,41.5114 C45.9636,44.2044 41.4566,45.6124 37.0056,45.6124 C32.5536,45.6124 28.0466,44.2044 28.0466,41.5114 L28.0466,23.7794 C28.0466,21.0864 32.5536,19.6784 37.0056,19.6784 C41.4566,19.6784 45.9636,21.0864 45.9636,23.7794 L45.9636,23.7794 Z M3.9996,40.1024 L3.9996,7.7504 C3.9996,5.6824 5.6826,4.0004 7.7496,4.0004 L40.1026,4.0004 C42.1696,4.0004 43.8526,5.6824 43.8526,7.7504 L43.8526,20.4384 L45.8526,20.4384 L45.8526,7.7504 C45.8526,4.5794 43.2736,2.0004 40.1026,2.0004 L7.7496,2.0004 C4.5786,2.0004 1.9996,4.5794 1.9996,7.7504 L1.9996,40.1024 C1.9996,43.2734 4.5786,45.8524 7.7496,45.8524 L27.4136,45.8524 L27.4136,43.8524 L7.7496,43.8524 C5.6826,43.8524 3.9996,42.1694 3.9996,40.1024 L3.9996,40.1024 Z M34.9776,8.3844 L34.9776,16.2404 L39.2396,16.2404 L39.2396,14.9814 L36.5656,14.9814 L36.5656,8.3844 L34.9776,8.3844 Z M32.0086,12.3064 C32.0086,11.3544 31.8836,10.6484 31.6346,10.1874 C31.3856,9.7264 31.0026,9.4964 30.4896,9.4964 C29.9766,9.4964 29.5946,9.7264 29.3446,10.1874 C29.0956,10.6484 28.9716,11.3544 28.9716,12.3064 C28.9716,13.2364 29.0986,13.9394 29.3566,14.4154 C29.6126,14.8914 29.9906,15.1294 30.4896,15.1294 C30.9876,15.1294 31.3656,14.8914 31.6226,14.4154 C31.8796,13.9394 32.0086,13.2364 32.0086,12.3064 L32.0086,12.3064 Z M31.6346,16.2174 C31.8686,16.4064 32.1296,16.5534 32.4166,16.6594 C32.7036,16.7644 33.0556,16.8414 33.4706,16.8864 L33.4706,18.1784 C32.8736,18.0874 32.2986,17.8864 31.7476,17.5784 C31.1956,17.2674 30.7236,16.8784 30.3306,16.4104 C29.3786,16.3724 28.6426,15.9974 28.1206,15.2824 C27.5996,14.5674 27.3376,13.5774 27.3376,12.3064 C27.3376,11.0064 27.6136,10.0004 28.1656,9.2864 C28.7176,8.5724 29.4916,8.2144 30.4896,8.2144 C31.4866,8.2144 32.2616,8.5724 32.8136,9.2864 C33.3646,10.0004 33.6406,11.0064 33.6406,12.3064 C33.6406,13.3194 33.4686,14.1624 33.1246,14.8344 C32.7806,15.5074 32.2836,15.9674 31.6346,16.2174 L31.6346,16.2174 Z M23.6436,15.1394 C23.3936,15.1394 23.0946,15.1044 22.7416,15.0324 C22.3906,14.9604 22.0756,14.8734 21.7956,14.7664 L21.7956,15.9574 C22.0366,16.0924 22.3356,16.2034 22.6916,16.2854 C23.0466,16.3694 23.4016,16.4104 23.7566,16.4104 C24.5716,16.4104 25.2126,16.2014 25.6776,15.7814 C26.1426,15.3614 26.3746,14.7924 26.3746,14.0754 C26.3746,13.7044 26.3186,13.3894 26.2106,13.1284 C26.1016,12.8684 25.9316,12.6314 25.7006,12.4194 C25.4696,12.2094 25.1576,11.9974 24.7656,11.7854 L24.1526,11.4564 C23.8206,11.2764 23.5966,11.1094 23.4796,10.9584 C23.3606,10.8064 23.3036,10.6144 23.3036,10.3794 C23.3036,10.1004 23.3936,9.8804 23.5746,9.7224 C23.7566,9.5634 24.0056,9.4844 24.3236,9.4844 C24.7916,9.4844 25.3316,9.5974 25.9446,9.8244 L25.9446,8.6234 C25.3556,8.3504 24.7616,8.2144 24.1646,8.2144 C23.6886,8.2144 23.2676,8.3074 22.9016,8.4924 C22.5336,8.6774 22.2446,8.9424 22.0326,9.2864 C21.8216,9.6294 21.7166,10.0324 21.7166,10.4934 C21.7166,10.9924 21.8376,11.4154 22.0786,11.7624 C22.3206,12.1104 22.7216,12.4354 23.2796,12.7374 L23.8926,13.0654 C24.2026,13.2324 24.4246,13.3974 24.5556,13.5594 C24.6886,13.7214 24.7546,13.9204 24.7546,14.1544 C24.7546,14.4724 24.6586,14.7154 24.4706,14.8854 C24.2816,15.0554 24.0056,15.1394 23.6436,15.1394 L23.6436,15.1394 Z M17.8166,17.3164 C17.6736,17.4674 17.4566,17.5434 17.1706,17.5434 C17.0116,17.5434 16.8306,17.5284 16.6256,17.4994 L16.6256,18.5414 C16.9666,18.6554 17.2986,18.7104 17.6236,18.7104 C18.0546,18.7104 18.4016,18.5864 18.6656,18.3364 C18.9316,18.0874 19.1436,17.6834 19.3016,17.1244 L21.2176,10.4484 L19.6186,10.4484 L18.7686,14.7094 L17.8966,10.4484 L16.2516,10.4484 L18.1226,16.3534 L18.1006,16.5564 C18.0546,16.9134 17.9606,17.1664 17.8166,17.3164 L17.8166,17.3164 Z M14.0196,16.2404 L14.0196,10.7314 L12.6936,14.3014 L11.3446,14.3014 L10.0286,10.7654 L10.0286,16.2404 L8.6116,16.2404 L8.6116,8.3844 L10.4266,8.3844 L12.0476,12.7834 L13.6676,8.3844 L15.4366,8.3844 L15.4366,16.2404 L14.0196,16.2404 Z" id="Amazon-DATABASEAmazon-Aurora-MySQL-instance_Resource-Icon_light-bg" fill="#2E27AD"></path>
    </g>
</svg>