<?xml version="1.0" encoding="UTF-8"?>
<svg width="48px" height="48px" viewBox="0 0 48 48" version="1.1" xmlns="http://www.w3.org/2000/svg" xmlns:xlink="http://www.w3.org/1999/xlink">
    <title>Icon-Resource/Database/Res_Amazon-Aurora-SQL-Server-Instance-Alternate_48_Light</title>
    <g id="Icon-Resource/Database/Res_Amazon-Aurora-SQL-Server-Instance-Alternate_48" stroke="none" stroke-width="1" fill="none" fill-rule="evenodd">
        <path d="M42.4685,9.5693 C42.5615,9.5693 42.6555,9.5793 42.7475,9.5953 L42.7475,10.6523 C42.5855,10.6233 42.4305,10.6083 42.2845,10.6083 C42.0055,10.6083 41.7405,10.6783 41.4905,10.8183 L41.4905,14.0753 L40.2945,14.0753 L40.2945,9.6143 L41.2725,9.6143 L41.4045,10.1893 C41.5775,9.9743 41.7515,9.8173 41.9225,9.7173 C42.0945,9.6193 42.2775,9.5693 42.4685,9.5693 L42.4685,9.5693 Z M38.4605,11.3943 L37.2905,11.3943 C37.3145,10.6733 37.5345,10.3123 37.9535,10.3123 C38.1295,10.3123 38.2575,10.3803 38.3385,10.5163 C38.4195,10.6543 38.4605,10.8793 38.4605,11.1933 L38.4605,11.3943 Z M39.4735,11.3153 C39.4735,10.1053 38.9795,9.5003 37.9895,9.5003 C37.4135,9.5003 36.9715,9.7013 36.6665,10.1023 C36.3615,10.5043 36.2075,11.0863 36.2075,11.8483 C36.2075,13.4093 36.8305,14.1883 38.0765,14.1883 C38.3155,14.1883 38.5545,14.1593 38.7925,14.1013 C39.0315,14.0433 39.2325,13.9623 39.3955,13.8563 L39.3955,13.0613 C39.2025,13.1323 39.0095,13.1883 38.8155,13.2323 C38.6185,13.2763 38.4545,13.2983 38.3215,13.2983 C37.9655,13.2983 37.7095,13.2103 37.5535,13.0363 C37.3965,12.8613 37.3085,12.5643 37.2905,12.1453 L39.3865,12.1453 C39.4445,11.8953 39.4735,11.6183 39.4735,11.3153 L39.4735,11.3153 Z M34.6285,9.6143 L35.8595,9.6143 L34.5235,14.0753 L33.3975,14.0753 L32.0525,9.6143 L33.3195,9.6143 L33.9645,12.7923 L34.6285,9.6143 Z M31.3635,9.5693 C31.4555,9.5693 31.5485,9.5793 31.6425,9.5953 L31.6425,10.6523 C31.4795,10.6233 31.3255,10.6083 31.1795,10.6083 C30.9005,10.6083 30.6345,10.6783 30.3855,10.8183 L30.3855,14.0753 L29.1895,14.0753 L29.1895,9.6143 L30.1665,9.6143 L30.2975,10.1893 C30.4735,9.9743 30.6455,9.8173 30.8175,9.7173 C30.9895,9.6193 31.1705,9.5693 31.3635,9.5693 L31.3635,9.5693 Z M27.3555,11.3943 L26.1865,11.3943 C26.2085,10.6733 26.4295,10.3123 26.8495,10.3123 C27.0245,10.3123 27.1525,10.3803 27.2335,10.5163 C27.3155,10.6543 27.3555,10.8793 27.3555,11.1933 L27.3555,11.3943 Z M28.3685,11.3153 C28.3685,10.1053 27.8735,9.5003 26.8845,9.5003 C26.3085,9.5003 25.8665,9.7013 25.5615,10.1023 C25.2565,10.5043 25.1035,11.0863 25.1035,11.8483 C25.1035,13.4093 25.7255,14.1883 26.9725,14.1883 C27.2105,14.1883 27.4485,14.1593 27.6875,14.1013 C27.9265,14.0433 28.1265,13.9623 28.2895,13.8563 L28.2895,13.0613 C28.0975,13.1323 27.9055,13.1883 27.7095,13.2323 C27.5145,13.2763 27.3495,13.2983 27.2155,13.2983 C26.8615,13.2983 26.6055,13.2103 26.4475,13.0363 C26.2905,12.8613 26.2025,12.5643 26.1865,12.1453 L28.2815,12.1453 C28.3395,11.8953 28.3685,11.6183 28.3685,11.3153 L28.3685,11.3153 Z M24.3565,11.6773 C24.4405,11.8793 24.4825,12.1223 24.4825,12.4073 C24.4825,12.9603 24.3045,13.3983 23.9465,13.7213 C23.5875,14.0443 23.0945,14.2063 22.4665,14.2063 C22.1925,14.2063 21.9195,14.1733 21.6445,14.1093 C21.3715,14.0463 21.1415,13.9623 20.9555,13.8563 L20.9555,12.9403 C21.1705,13.0213 21.4145,13.0903 21.6855,13.1453 C21.9545,13.2013 22.1875,13.2283 22.3785,13.2283 C22.6575,13.2283 22.8705,13.1623 23.0155,13.0323 C23.1615,12.9003 23.2345,12.7133 23.2345,12.4683 C23.2345,12.2883 23.1835,12.1343 23.0815,12.0093 C22.9805,11.8853 22.8095,11.7573 22.5715,11.6303 L22.0995,11.3773 C21.6685,11.1443 21.3605,10.8943 21.1745,10.6263 C20.9875,10.3593 20.8945,10.0323 20.8945,9.6483 C20.8945,9.2933 20.9765,8.9833 21.1395,8.7183 C21.3015,8.4533 21.5245,8.2513 21.8065,8.1073 C22.0885,7.9653 22.4135,7.8933 22.7805,7.8933 C23.2395,7.8933 23.6975,7.9983 24.1515,8.2083 L24.1515,9.1323 C23.6795,8.9593 23.2635,8.8713 22.9035,8.8713 C22.6575,8.8713 22.4665,8.9323 22.3265,9.0543 C22.1875,9.1773 22.1165,9.3453 22.1165,9.5603 C22.1165,9.7413 22.1615,9.8893 22.2515,10.0063 C22.3425,10.1233 22.5155,10.2513 22.7725,10.3903 L23.2425,10.6433 C23.5455,10.8063 23.7855,10.9693 23.9635,11.1323 C24.1415,11.2963 24.2715,11.4773 24.3565,11.6773 L24.3565,11.6773 Z M16.5985,13.1063 L18.6595,13.1063 L18.6595,14.0753 L15.3765,14.0753 L15.3765,8.0243 L16.5985,8.0243 L16.5985,13.1063 Z M12.7925,12.6703 C12.5945,13.0363 12.3035,13.2193 11.9195,13.2193 C11.5345,13.2193 11.2435,13.0363 11.0465,12.6703 C10.8485,12.3023 10.7495,11.7613 10.7495,11.0463 C10.7495,10.3123 10.8455,9.7683 11.0375,9.4133 C11.2305,9.0573 11.5245,8.8803 11.9195,8.8803 C12.3155,8.8803 12.6085,9.0573 12.8015,9.4133 C12.9925,9.7683 13.0895,10.3123 13.0895,11.0463 C13.0895,11.7613 12.9905,12.3023 12.7925,12.6703 L12.7925,12.6703 Z M13.9485,12.9923 C14.2135,12.4743 14.3465,11.8253 14.3465,11.0463 C14.3465,10.0443 14.1335,9.2683 13.7095,8.7183 C13.2835,8.1693 12.6885,7.8933 11.9195,7.8933 C11.1505,7.8933 10.5545,8.1693 10.1285,8.7183 C9.7045,9.2683 9.4915,10.0443 9.4915,11.0463 C9.4915,12.0233 9.6925,12.7873 10.0945,13.3373 C10.4955,13.8873 11.0635,14.1763 11.7965,14.2063 C12.0995,14.5663 12.4635,14.8673 12.8885,15.1053 C13.3135,15.3433 13.7565,15.4983 14.2155,15.5673 L14.2155,14.5733 C13.8965,14.5383 13.6245,14.4793 13.4035,14.3973 C13.1825,14.3163 12.9825,14.2033 12.8015,14.0573 C13.3015,13.8653 13.6845,13.5103 13.9485,12.9923 L13.9485,12.9923 Z M8.6235,11.6773 C8.7075,11.8793 8.7495,12.1223 8.7495,12.4073 C8.7495,12.9603 8.5715,13.3983 8.2135,13.7213 C7.8555,14.0443 7.3615,14.2063 6.7345,14.2063 C6.4595,14.2063 6.1865,14.1733 5.9115,14.1093 C5.6395,14.0463 5.4085,13.9623 5.2235,13.8563 L5.2235,12.9403 C5.4385,13.0213 5.6815,13.0903 5.9515,13.1453 C6.2225,13.2013 6.4535,13.2283 6.6465,13.2283 C6.9245,13.2283 7.1385,13.1623 7.2825,13.0323 C7.4285,12.9003 7.5015,12.7133 7.5015,12.4683 C7.5015,12.2883 7.4495,12.1343 7.3485,12.0093 C7.2465,11.8853 7.0765,11.7573 6.8375,11.6303 L6.3655,11.3773 C5.9355,11.1443 5.6265,10.8943 5.4415,10.6263 C5.2545,10.3593 5.1615,10.0323 5.1615,9.6483 C5.1615,9.2933 5.2435,8.9833 5.4055,8.7183 C5.5695,8.4533 5.7915,8.2513 6.0735,8.1073 C6.3565,7.9653 6.6815,7.8933 7.0475,7.8933 C7.5075,7.8933 7.9645,7.9983 8.4185,8.2083 L8.4185,9.1323 C7.9465,8.9593 7.5305,8.8713 7.1705,8.8713 C6.9245,8.8713 6.7345,8.9323 6.5945,9.0543 C6.4535,9.1773 6.3845,9.3453 6.3845,9.5603 C6.3845,9.7413 6.4285,9.8893 6.5195,10.0063 C6.6095,10.1233 6.7815,10.2513 7.0385,10.3903 L7.5095,10.6433 C7.8135,10.8063 8.0525,10.9693 8.2315,11.1323 C8.4075,11.2963 8.5385,11.4773 8.6235,11.6773 L8.6235,11.6773 Z M43.9085,40.1173 C43.9085,42.2083 42.2075,43.9083 40.1165,43.9083 L7.7905,43.9083 C5.6995,43.9083 3.9995,42.2083 3.9995,40.1173 L3.9995,7.7913 C3.9995,5.7003 5.6995,4.0003 7.7905,4.0003 L40.1165,4.0003 C42.2075,4.0003 43.9085,5.7003 43.9085,7.7913 L43.9085,40.1173 Z M40.1165,2.0003 L7.7905,2.0003 C4.5975,2.0003 1.9995,4.5973 1.9995,7.7913 L1.9995,40.1173 C1.9995,43.3103 4.5975,45.9083 7.7905,45.9083 L40.1165,45.9083 C43.3105,45.9083 45.9085,43.3103 45.9085,40.1173 L45.9085,7.7913 C45.9085,4.5973 43.3105,2.0003 40.1165,2.0003 L40.1165,2.0003 Z" id="Amazon-DATABASEAmazon-Aurora-SQL-Server-instance-alternate_Resource-Icon_light-bg" fill="#2E27AD"></path>
    </g>
</svg>