<?xml version="1.0" encoding="UTF-8"?>
<svg width="48px" height="48px" viewBox="0 0 48 48" version="1.1" xmlns="http://www.w3.org/2000/svg" xmlns:xlink="http://www.w3.org/1999/xlink">
    <title>Icon-Resource/Database/Res_Amazon-Aurora-MySQL-Instance-Alternate_48_Light</title>
    <g id="Icon-Resource/Database/Res_Amazon-Aurora-MySQL-Instance-Alternate_48" stroke="none" stroke-width="1" fill="none" fill-rule="evenodd">
        <path d="M36.6101,15.8721 L39.2891,15.8721 L39.2891,17.1311 L35.0211,17.1311 L35.0211,9.2661 L36.6101,9.2661 L36.6101,15.8721 Z M31.6621,15.3041 C31.4041,15.7801 31.0261,16.0191 30.5271,16.0191 C30.0281,16.0191 29.6491,15.7801 29.3911,15.3041 C29.1341,14.8271 29.0061,14.1241 29.0061,13.1921 C29.0061,12.2391 29.1311,11.5321 29.3811,11.0701 C29.6311,10.6081 30.0121,10.3781 30.5271,10.3781 C31.0411,10.3781 31.4231,10.6081 31.6731,11.0701 C31.9231,11.5321 32.0481,12.2391 32.0481,13.1921 C32.0481,14.1241 31.9191,14.8271 31.6621,15.3041 L31.6621,15.3041 Z M33.1661,15.7251 C33.5091,15.0511 33.6821,14.2061 33.6821,13.1921 C33.6821,11.8921 33.4061,10.8831 32.8531,10.1681 C32.3001,9.4531 31.5261,9.0961 30.5271,9.0961 C29.5281,9.0961 28.7531,9.4531 28.2001,10.1681 C27.6471,10.8831 27.3711,11.8921 27.3711,13.1921 C27.3711,14.4641 27.6321,15.4571 28.1551,16.1721 C28.6771,16.8881 29.4151,17.2631 30.3681,17.3021 C30.7611,17.7701 31.2341,18.1601 31.7871,18.4711 C32.3391,18.7811 32.9141,18.9811 33.5111,19.0721 L33.5111,17.7781 C33.0951,17.7331 32.7441,17.6571 32.4561,17.5521 C32.1691,17.4441 31.9081,17.2981 31.6731,17.1081 C32.3241,16.8591 32.8211,16.3971 33.1661,15.7251 L33.1661,15.7251 Z M26.2421,14.0161 C26.3511,14.2761 26.4071,14.5931 26.4071,14.9641 C26.4071,15.6831 26.1731,16.2521 25.7091,16.6721 C25.2431,17.0921 24.6011,17.3021 23.7851,17.3021 C23.4291,17.3021 23.0741,17.2601 22.7181,17.1771 C22.3631,17.0941 22.0631,16.9831 21.8211,16.8471 L21.8211,15.6561 C22.1011,15.7621 22.4171,15.8511 22.7681,15.9231 C23.1221,15.9941 23.4221,16.0301 23.6721,16.0301 C24.0351,16.0301 24.3111,15.9451 24.5001,15.7741 C24.6881,15.6041 24.7841,15.3611 24.7841,15.0431 C24.7841,14.8091 24.7171,14.6101 24.5851,14.4471 C24.4531,14.2841 24.2311,14.1201 23.9221,13.9531 L23.3081,13.6241 C22.7481,13.3211 22.3471,12.9961 22.1051,12.6471 C21.8631,12.3001 21.7421,11.8761 21.7421,11.3771 C21.7421,10.9151 21.8471,10.5131 22.0591,10.1681 C22.2711,9.8241 22.5601,9.5601 22.9271,9.3731 C23.2961,9.1881 23.7161,9.0961 24.1941,9.0961 C24.7911,9.0961 25.3851,9.2311 25.9761,9.5041 L25.9761,10.7071 C25.3621,10.4801 24.8221,10.3661 24.3521,10.3661 C24.0351,10.3661 23.7851,10.4461 23.6031,10.6041 C23.4221,10.7641 23.3311,10.9831 23.3311,11.2631 C23.3311,11.4981 23.3891,11.6901 23.5061,11.8421 C23.6251,11.9931 23.8491,12.1601 24.1821,12.3421 L24.7961,12.6711 C25.1881,12.8821 25.5011,13.0951 25.7311,13.3061 C25.9631,13.5181 26.1321,13.7551 26.2421,14.0161 L26.2421,14.0161 Z M19.6421,11.3311 L21.2421,11.3311 L19.3241,18.0171 C19.1651,18.5761 18.9531,18.9811 18.6881,19.2311 C18.4231,19.4811 18.0761,19.6051 17.6441,19.6051 C17.3181,19.6051 16.9861,19.5491 16.6451,19.4351 L16.6451,18.3921 C16.8491,18.4211 17.0311,18.4361 17.1901,18.4361 C17.4771,18.4361 17.6931,18.3601 17.8371,18.2101 C17.9811,18.0581 18.0761,17.8051 18.1211,17.4491 L18.1431,17.2441 L16.2701,11.3311 L17.9171,11.3311 L18.7901,15.5991 L19.6421,11.3311 Z M13.6821,9.2661 L15.4541,9.2661 L15.4541,17.1311 L14.0351,17.1311 L14.0351,11.6151 L12.7081,15.1901 L11.3571,15.1901 L10.0401,11.6491 L10.0401,17.1311 L8.6211,17.1311 L8.6211,9.2661 L10.4371,9.2661 L12.0601,13.6691 L13.6821,9.2661 Z M43.9091,40.1211 C43.9091,42.2101 42.2101,43.9091 40.1211,43.9091 L7.7881,43.9091 C5.6991,43.9091 4.0001,42.2101 4.0001,40.1211 L4.0001,7.7881 C4.0001,5.6991 5.6991,4.0001 7.7881,4.0001 L40.1211,4.0001 C42.2101,4.0001 43.9091,5.6991 43.9091,7.7881 L43.9091,40.1211 Z M40.1211,2.0001 L7.7881,2.0001 C4.5961,2.0001 2.0001,4.5971 2.0001,7.7881 L2.0001,40.1211 C2.0001,43.3121 4.5961,45.9091 7.7881,45.9091 L40.1211,45.9091 C43.3121,45.9091 45.9091,43.3121 45.9091,40.1211 L45.9091,7.7881 C45.9091,4.5971 43.3121,2.0001 40.1211,2.0001 L40.1211,2.0001 Z" id="Amazon-DATABASEAmazon-Aurora-MySQL-instance-alternate_Resource-Icon_light-bg" fill="#2E27AD"></path>
    </g>
</svg>