<?xml version="1.0" encoding="UTF-8"?>
<svg width="48px" height="48px" viewBox="0 0 48 48" version="1.1" xmlns="http://www.w3.org/2000/svg" xmlns:xlink="http://www.w3.org/1999/xlink">
    <title>Icon-Resource/Database/Res_Amazon-Aurora-SQL-Server-Instance_48_Light</title>
    <g id="Icon-Resource/Database/Res_Amazon-Aurora-SQL-Server-Instance_48" stroke="none" stroke-width="1" fill="none" fill-rule="evenodd">
        <path d="M43.9636,29.9805 L43.9636,26.4505 C42.2346,27.3925 39.6146,27.8795 37.0056,27.8795 C34.3976,27.8795 31.7756,27.3925 30.0476,26.4505 L30.0476,29.9805 C30.0476,30.6085 32.4146,32.0815 37.0056,32.0815 C41.5966,32.0815 43.9636,30.6085 43.9636,29.9805 L43.9636,29.9805 Z M43.9636,36.0735 L43.9636,32.6515 C42.2346,33.5935 39.6146,34.0815 37.0056,34.0815 C34.3976,34.0815 31.7756,33.5935 30.0476,32.6515 L30.0476,36.0735 C30.0476,36.7015 32.4146,38.1735 37.0056,38.1735 C41.5966,38.1735 43.9636,36.7015 43.9636,36.0735 L43.9636,36.0735 Z M43.9636,41.5125 L43.9636,38.7445 C42.2346,39.6865 39.6146,40.1735 37.0056,40.1735 C34.3976,40.1735 31.7756,39.6865 30.0476,38.7445 L30.0476,41.5125 C30.0476,42.1405 32.4146,43.6135 37.0056,43.6135 C41.5966,43.6135 43.9636,42.1405 43.9636,41.5125 L43.9636,41.5125 Z M30.0476,23.7795 C30.0476,24.4075 32.4146,25.8795 37.0056,25.8795 C41.5966,25.8795 43.9636,24.4075 43.9636,23.7795 C43.9636,23.1515 41.5966,21.6785 37.0056,21.6785 C32.4146,21.6785 30.0476,23.1515 30.0476,23.7795 L30.0476,23.7795 Z M45.9636,23.7795 L45.9636,41.5125 C45.9636,44.2055 41.4566,45.6135 37.0056,45.6135 C32.5546,45.6135 28.0476,44.2055 28.0476,41.5125 L28.0476,23.7795 C28.0476,21.0865 32.5546,19.6785 37.0056,19.6785 C41.4566,19.6785 45.9636,21.0865 45.9636,23.7795 L45.9636,23.7795 Z M3.9996,40.1035 L3.9996,7.7505 C3.9996,5.6825 5.6826,4.0005 7.7496,4.0005 L40.1036,4.0005 C42.1706,4.0005 43.8536,5.6825 43.8536,7.7505 L43.8536,20.4385 L45.8536,20.4385 L45.8536,7.7505 C45.8536,4.5795 43.2746,2.0005 40.1036,2.0005 L7.7496,2.0005 C4.5786,2.0005 1.9996,4.5795 1.9996,7.7505 L1.9996,40.1035 C1.9996,43.2745 4.5786,45.8535 7.7496,45.8535 L27.4136,45.8535 L27.4136,43.8535 L7.7496,43.8535 C5.6826,43.8535 3.9996,42.1705 3.9996,40.1035 L3.9996,40.1035 Z M41.3526,10.1805 L41.2216,9.6055 L40.2456,9.6055 L40.2456,14.0605 L41.4396,14.0605 L41.4396,10.8085 C41.6896,10.6685 41.9536,10.5985 42.2336,10.5985 C42.3786,10.5985 42.5326,10.6145 42.6946,10.6425 L42.6946,9.5875 C42.6026,9.5705 42.5086,9.5615 42.4166,9.5615 C42.2246,9.5615 42.0416,9.6115 41.8716,9.7095 C41.6996,9.8085 41.5266,9.9655 41.3526,10.1805 L41.3526,10.1805 Z M38.4136,11.1835 C38.4136,10.8695 38.3726,10.6445 38.2916,10.5075 C38.2106,10.3715 38.0826,10.3025 37.9076,10.3025 C37.4896,10.3025 37.2686,10.6635 37.2456,11.3835 L38.4136,11.3835 L38.4136,11.1835 Z M39.3376,12.1335 L37.2456,12.1335 C37.2636,12.5525 37.3506,12.8485 37.5066,13.0235 C37.6636,13.1975 37.9186,13.2855 38.2746,13.2855 C38.4076,13.2855 38.5716,13.2625 38.7676,13.2185 C38.9616,13.1755 39.1556,13.1195 39.3466,13.0485 L39.3466,13.8425 C39.1846,13.9475 38.9836,14.0295 38.7446,14.0865 C38.5066,14.1445 38.2686,14.1735 38.0296,14.1735 C36.7866,14.1735 36.1636,13.3955 36.1636,11.8375 C36.1636,11.0765 36.3166,10.4955 36.6216,10.0935 C36.9276,9.6925 37.3666,9.4915 37.9426,9.4915 C38.9306,9.4915 39.4256,10.0965 39.4256,11.3055 C39.4256,11.6075 39.3956,11.8835 39.3376,12.1335 L39.3376,12.1335 Z M33.2776,9.6055 L32.0146,9.6055 L33.3576,14.0605 L34.4816,14.0605 L35.8166,9.6055 L34.5866,9.6055 L33.9236,12.7795 L33.2776,9.6055 Z M30.2616,10.1805 L30.1316,9.6055 L29.1536,9.6055 L29.1536,14.0605 L30.3496,14.0605 L30.3496,10.8085 C30.5986,10.6685 30.8636,10.5985 31.1436,10.5985 C31.2876,10.5985 31.4426,10.6145 31.6046,10.6425 L31.6046,9.5875 C31.5116,9.5705 31.4186,9.5615 31.3246,9.5615 C31.1336,9.5615 30.9516,9.6115 30.7796,9.7095 C30.6096,9.8085 30.4366,9.9655 30.2616,10.1805 L30.2616,10.1805 Z M26.1546,11.3835 L27.3226,11.3835 L27.3226,11.1835 C27.3226,10.8695 27.2816,10.6445 27.2006,10.5075 C27.1196,10.3715 26.9926,10.3025 26.8176,10.3025 C26.3996,10.3025 26.1786,10.6635 26.1546,11.3835 L26.1546,11.3835 Z M28.2566,13.8425 C28.0936,13.9475 27.8936,14.0295 27.6546,14.0865 C27.4166,14.1445 27.1786,14.1735 26.9406,14.1735 C25.6956,14.1735 25.0726,13.3955 25.0726,11.8375 C25.0726,11.0765 25.2266,10.4955 25.5306,10.0935 C25.8366,9.6925 26.2766,9.4915 26.8536,9.4915 C27.8406,9.4915 28.3346,10.0965 28.3346,11.3055 C28.3346,11.6075 28.3056,11.8835 28.2476,12.1335 L26.1546,12.1335 C26.1726,12.5525 26.2606,12.8485 26.4166,13.0235 C26.5736,13.1975 26.8286,13.2855 27.1836,13.2855 C27.3176,13.2855 27.4816,13.2625 27.6776,13.2185 C27.8716,13.1755 28.0646,13.1195 28.2566,13.0485 L28.2566,13.8425 Z M22.3536,13.2145 C22.1606,13.2145 21.9306,13.1875 21.6606,13.1315 C21.3896,13.0775 21.1476,13.0085 20.9316,12.9265 L20.9316,13.8425 C21.1166,13.9475 21.3476,14.0315 21.6206,14.0955 C21.8946,14.1595 22.1666,14.1915 22.4406,14.1915 C23.0676,14.1915 23.5616,14.0295 23.9186,13.7085 C24.2766,13.3845 24.4536,12.9475 24.4536,12.3945 C24.4536,12.1115 24.4126,11.8685 24.3276,11.6675 C24.2436,11.4665 24.1126,11.2855 23.9356,11.1225 C23.7586,10.9595 23.5186,10.7965 23.2166,10.6335 L22.7446,10.3805 C22.4896,10.2425 22.3166,10.1145 22.2266,9.9975 C22.1366,9.8805 22.0916,9.7335 22.0916,9.5525 C22.0916,9.3375 22.1606,9.1685 22.3006,9.0465 C22.4406,8.9245 22.6316,8.8645 22.8766,8.8645 C23.2366,8.8645 23.6516,8.9515 24.1226,9.1255 L24.1226,8.2015 C23.6696,7.9925 23.2136,7.8875 22.7536,7.8875 C22.3876,7.8875 22.0646,7.9595 21.7806,8.1015 C21.5006,8.2445 21.2766,8.4475 21.1156,8.7115 C20.9516,8.9765 20.8696,9.2855 20.8696,9.6405 C20.8696,10.0235 20.9636,10.3495 21.1496,10.6165 C21.3356,10.8845 21.6436,11.1335 22.0736,11.3665 L22.5446,11.6195 C22.7826,11.7475 22.9526,11.8745 23.0556,11.9985 C23.1566,12.1245 23.2076,12.2765 23.2076,12.4565 C23.2076,12.7005 23.1356,12.8875 22.9896,13.0185 C22.8446,13.1495 22.6316,13.2145 22.3536,13.2145 L22.3536,13.2145 Z M15.3606,8.0185 L15.3606,14.0605 L18.6396,14.0605 L18.6396,13.0925 L16.5806,13.0925 L16.5806,8.0185 L15.3606,8.0185 Z M13.0756,11.0355 C13.0756,10.3025 12.9806,9.7595 12.7876,9.4045 C12.5966,9.0495 12.3026,8.8735 11.9066,8.8735 C11.5126,8.8735 11.2196,9.0495 11.0266,9.4045 C10.8346,9.7595 10.7386,10.3025 10.7386,11.0355 C10.7386,11.7505 10.8376,12.2915 11.0346,12.6575 C11.2336,13.0235 11.5246,13.2065 11.9066,13.2065 C12.2916,13.2065 12.5816,13.0235 12.7786,12.6575 C12.9766,12.2915 13.0756,11.7505 13.0756,11.0355 L13.0756,11.0355 Z M12.7876,14.0425 C12.9686,14.1885 13.1696,14.3015 13.3896,14.3825 C13.6096,14.4645 13.8816,14.5225 14.2006,14.5575 L14.2006,15.5515 C13.7416,15.4815 13.2996,15.3275 12.8756,15.0895 C12.4506,14.8515 12.0876,14.5515 11.7856,14.1915 C11.0526,14.1625 10.4856,13.8735 10.0846,13.3245 C9.6846,12.7745 9.4846,12.0115 9.4846,11.0355 C9.4846,10.0355 9.6946,9.2605 10.1196,8.7115 C10.5446,8.1625 11.1406,7.8875 11.9066,7.8875 C12.6756,7.8875 13.2706,8.1625 13.6946,8.7115 C14.1196,9.2605 14.3316,10.0355 14.3316,11.0355 C14.3316,11.8145 14.1996,12.4615 13.9346,12.9785 C13.6696,13.4975 13.2886,13.8505 12.7876,14.0425 L12.7876,14.0425 Z M7.2776,13.0185 C7.4236,12.8875 7.4956,12.7005 7.4956,12.4565 C7.4956,12.2765 7.4436,12.1245 7.3436,11.9985 C7.2406,11.8745 7.0706,11.7475 6.8326,11.6195 L6.3616,11.3665 C5.9316,11.1335 5.6226,10.8845 5.4376,10.6165 C5.2516,10.3495 5.1576,10.0235 5.1576,9.6405 C5.1576,9.2855 5.2396,8.9765 5.4026,8.7115 C5.5656,8.4475 5.7886,8.2445 6.0686,8.1015 C6.3526,7.9595 6.6756,7.8875 7.0416,7.8875 C7.5016,7.8875 7.9576,7.9925 8.4106,8.2015 L8.4106,9.1255 C7.9406,8.9515 7.5246,8.8645 7.1646,8.8645 C6.9196,8.8645 6.7286,8.9245 6.5886,9.0465 C6.4486,9.1685 6.3796,9.3375 6.3796,9.5525 C6.3796,9.7335 6.4246,9.8805 6.5146,9.9975 C6.6046,10.1145 6.7776,10.2425 7.0326,10.3805 L7.5046,10.6335 C7.8066,10.7965 8.0466,10.9595 8.2236,11.1225 C8.4006,11.2855 8.5316,11.4665 8.6156,11.6675 C8.7006,11.8685 8.7416,12.1115 8.7416,12.3945 C8.7416,12.9475 8.5646,13.3845 8.2066,13.7085 C7.8496,14.0295 7.3566,14.1915 6.7286,14.1915 C6.4546,14.1915 6.1816,14.1595 5.9076,14.0955 C5.6356,14.0315 5.4046,13.9475 5.2196,13.8425 L5.2196,12.9265 C5.4356,13.0085 5.6776,13.0775 5.9476,13.1315 C6.2186,13.1875 6.4486,13.2145 6.6416,13.2145 C6.9196,13.2145 7.1316,13.1495 7.2776,13.0185 L7.2776,13.0185 Z" id="Amazon-DATABASEAmazon-Aurora-SQL-Server-instance_Resource-Icon_light-bg" fill="#2E27AD"></path>
    </g>
</svg>