<?xml version="1.0" encoding="UTF-8"?>
<svg width="48px" height="48px" viewBox="0 0 48 48" version="1.1" xmlns="http://www.w3.org/2000/svg" xmlns:xlink="http://www.w3.org/1999/xlink">
    <title>Icon-Resource/Database/Res_Amazon-Aurora-PostgreSQL-Instance_48_Light</title>
    <g id="Icon-Resource/Database/Res_Amazon-Aurora-PostgreSQL-Instance_48" stroke="none" stroke-width="1" fill="none" fill-rule="evenodd">
        <path d="M37.0056,32.082 C32.4146,32.082 30.0476,30.609 30.0476,29.981 L30.0476,26.451 C31.7766,27.394 34.3976,27.881 37.0056,27.881 C39.6146,27.881 42.2346,27.394 43.9636,26.451 L43.9636,29.981 C43.9636,30.609 41.5966,32.082 37.0056,32.082 L37.0056,32.082 Z M37.0056,38.174 C32.4146,38.174 30.0476,36.701 30.0476,36.073 L30.0476,32.652 C31.7766,33.595 34.3976,34.082 37.0056,34.082 C39.6146,34.082 42.2346,33.595 43.9636,32.652 L43.9636,36.073 C43.9636,36.701 41.5966,38.174 37.0056,38.174 L37.0056,38.174 Z M37.0056,43.613 C32.4146,43.613 30.0476,42.141 30.0476,41.513 L30.0476,38.744 C31.7766,39.686 34.3976,40.174 37.0056,40.174 C39.6146,40.174 42.2346,39.686 43.9636,38.744 L43.9636,41.513 C43.9636,42.141 41.5966,43.613 37.0056,43.613 L37.0056,43.613 Z M37.0056,21.68 C41.5966,21.68 43.9636,23.152 43.9636,23.78 C43.9636,24.408 41.5966,25.881 37.0056,25.881 C32.4146,25.881 30.0476,24.408 30.0476,23.78 C30.0476,23.152 32.4146,21.68 37.0056,21.68 L37.0056,21.68 Z M37.0056,19.68 C32.5546,19.68 28.0476,21.088 28.0476,23.78 L28.0476,41.513 C28.0476,44.205 32.5546,45.613 37.0056,45.613 C41.4566,45.613 45.9636,44.205 45.9636,41.513 L45.9636,23.78 C45.9636,21.088 41.4566,19.68 37.0056,19.68 L37.0056,19.68 Z M7.7496,43.853 L27.4136,43.853 L27.4136,45.853 L7.7496,45.853 C4.5786,45.853 1.9996,43.274 1.9996,40.103 L1.9996,7.751 C1.9996,4.58 4.5786,2 7.7496,2 L40.1036,2 C43.2746,2 45.8536,4.58 45.8536,7.751 L45.8536,20.439 L43.8536,20.439 L43.8536,7.751 C43.8536,5.683 42.1706,4 40.1036,4 L7.7496,4 C5.6826,4 3.9996,5.683 3.9996,7.751 L3.9996,40.103 C3.9996,42.171 5.6826,43.853 7.7496,43.853 L7.7496,43.853 Z M40.6286,7.805 L40.6286,13.141 L42.8256,13.141 L42.8256,13.848 L39.7826,13.848 L39.7826,7.805 L40.6286,7.805 Z M36.3296,13.263 C35.8596,13.263 35.5046,13.059 35.2666,12.648 C35.0276,12.238 34.9086,11.633 34.9086,10.83 C34.9086,10.028 35.0276,9.424 35.2666,9.017 C35.5046,8.61 35.8596,8.406 36.3296,8.406 C36.8006,8.406 37.1546,8.61 37.3946,9.017 C37.6316,9.424 37.7506,10.028 37.7506,10.83 C37.7506,11.633 37.6316,12.238 37.3946,12.648 C37.1546,13.059 36.8006,13.263 36.3296,13.263 L36.3296,13.263 Z M38.1956,12.857 C38.4746,12.331 38.6136,11.656 38.6136,10.83 C38.6136,9.836 38.4136,9.064 38.0126,8.515 C37.6116,7.966 37.0506,7.691 36.3296,7.691 C35.6096,7.691 35.0486,7.966 34.6476,8.515 C34.2456,9.064 34.0456,9.836 34.0456,10.83 C34.0456,11.464 34.1286,12.013 34.2936,12.478 C34.4596,12.943 34.7046,13.304 35.0306,13.56 C35.3566,13.815 35.7486,13.954 36.2076,13.978 C36.5396,14.339 36.9016,14.626 37.2976,14.842 C37.6926,15.057 38.1116,15.193 38.5536,15.251 L38.5536,14.51 C38.2506,14.476 37.9756,14.408 37.7256,14.31 C37.4756,14.21 37.2346,14.068 37.0016,13.882 C37.5186,13.725 37.9166,13.384 38.1956,12.857 L38.1956,12.857 Z M32.0966,12.993 C32.2746,12.818 32.3626,12.577 32.3626,12.269 C32.3626,11.851 32.1306,11.522 31.6656,11.284 L31.0456,10.97 C30.6566,10.772 30.3746,10.546 30.1996,10.29 C30.0266,10.034 29.9386,9.72 29.9386,9.348 C29.9386,8.854 30.0926,8.454 30.4016,8.149 C30.7086,7.844 31.1126,7.691 31.6126,7.691 C32.0016,7.691 32.4386,7.796 32.9206,8.005 L32.9206,8.686 C32.5256,8.505 32.1096,8.415 31.6736,8.415 C31.4006,8.415 31.1846,8.495 31.0246,8.654 C30.8636,8.814 30.7846,9.031 30.7846,9.305 C30.7846,9.52 30.8396,9.702 30.9496,9.853 C31.0606,10.005 31.2436,10.147 31.4996,10.281 L32.1176,10.595 C32.4966,10.787 32.7746,11.014 32.9506,11.274 C33.1286,11.537 33.2176,11.851 33.2176,12.217 C33.2176,12.746 33.0516,13.172 32.7206,13.494 C32.3886,13.816 31.9466,13.978 31.3956,13.978 C31.1266,13.978 30.8696,13.947 30.6226,13.887 C30.3756,13.825 30.1626,13.737 29.9826,13.621 L29.9826,12.949 C30.4586,13.153 30.9206,13.254 31.3686,13.254 C31.6766,13.254 31.9196,13.167 32.0966,12.993 L32.0966,12.993 Z M27.0736,10.268 C27.2226,10.044 27.4306,9.932 27.6976,9.932 C27.9366,9.932 28.1126,10.02 28.2296,10.198 C28.3456,10.376 28.4036,10.65 28.4036,11.021 C28.4036,11.062 28.4016,11.103 28.3996,11.145 C28.3966,11.185 28.3956,11.223 28.3956,11.258 L26.8256,11.258 C26.8436,10.821 26.9256,10.492 27.0736,10.268 L27.0736,10.268 Z M29.0496,13.027 C28.6486,13.208 28.2816,13.298 27.9506,13.298 C27.5616,13.298 27.2766,13.182 27.1006,12.949 C26.9226,12.717 26.8316,12.339 26.8256,11.815 L29.0586,11.815 C29.1046,11.595 29.1276,11.353 29.1276,11.092 C29.1276,10.505 29.0096,10.061 28.7746,9.758 C28.5386,9.456 28.1916,9.305 27.7326,9.305 C27.1926,9.305 26.7766,9.505 26.4856,9.906 C26.1946,10.307 26.0496,10.883 26.0496,11.633 C26.0496,12.417 26.1946,13.001 26.4856,13.386 C26.7766,13.769 27.2176,13.961 27.8116,13.961 C28.2816,13.961 28.6936,13.851 29.0496,13.629 L29.0496,13.027 Z M24.7986,9.526 C24.9696,9.436 25.1656,9.392 25.3866,9.392 C25.4806,9.392 25.5726,9.4 25.6656,9.418 L25.6656,10.177 C25.5026,10.153 25.3716,10.142 25.2736,10.142 C24.9426,10.142 24.6406,10.249 24.3666,10.464 L24.3666,13.848 L23.5466,13.848 L23.5466,9.427 L24.2276,9.427 L24.3056,9.958 C24.4626,9.761 24.6266,9.617 24.7986,9.526 L24.7986,9.526 Z M20.8096,13.089 C20.5186,13.089 20.3036,12.962 20.1646,12.709 C20.0256,12.456 19.9546,12.068 19.9546,11.545 C19.9546,11.011 20.0206,10.616 20.1516,10.363 C20.2816,10.11 20.4866,9.984 20.7666,9.984 C21.0266,9.984 21.2946,10.089 21.5676,10.299 L21.5676,12.757 C21.3006,12.978 21.0476,13.089 20.8096,13.089 L20.8096,13.089 Z M21.3416,14.736 C21.1906,14.958 20.9346,15.067 20.5736,15.067 C20.2426,15.067 19.8596,14.978 19.4236,14.798 L19.4236,15.426 C19.7956,15.641 20.2016,15.748 20.6446,15.748 C21.8006,15.748 22.3796,15.03 22.3796,13.595 L22.3796,9.427 L21.6986,9.427 L21.6386,9.784 C21.3006,9.47 20.9486,9.313 20.5826,9.313 C20.1416,9.313 19.7896,9.517 19.5276,9.924 C19.2666,10.33 19.1356,10.88 19.1356,11.571 C19.1356,12.008 19.1926,12.39 19.3056,12.718 C19.4186,13.046 19.5826,13.303 19.7986,13.485 C20.0136,13.668 20.2696,13.76 20.5656,13.76 C20.9136,13.76 21.2486,13.612 21.5676,13.315 L21.5676,13.638 C21.5676,14.149 21.4916,14.516 21.3416,14.736 L21.3416,14.736 Z M16.6936,12.687 L16.6936,10.089 L16.0746,10.089 L16.0746,9.549 L16.7296,9.444 L16.8506,8.188 L17.5136,8.188 L17.5136,9.427 L18.5256,9.427 L18.5256,10.089 L17.5136,10.089 L17.5136,12.627 C17.5136,12.848 17.5496,13.003 17.6226,13.093 C17.6946,13.183 17.8246,13.228 18.0106,13.228 C18.1906,13.228 18.3676,13.199 18.5426,13.141 L18.5426,13.742 C18.2926,13.848 18.0276,13.899 17.7486,13.899 C17.3886,13.899 17.1226,13.801 16.9506,13.603 C16.7796,13.405 16.6936,13.101 16.6936,12.687 L16.6936,12.687 Z M14.8596,13.145 C14.9776,13.032 15.0376,12.87 15.0376,12.661 C15.0376,12.411 14.8776,12.208 14.5576,12.051 L13.9906,11.772 C13.4676,11.517 13.2066,11.115 13.2066,10.569 C13.2066,10.197 13.3286,9.895 13.5716,9.662 C13.8166,9.43 14.1336,9.313 14.5236,9.313 C14.8896,9.313 15.2406,9.406 15.5776,9.593 L15.5776,10.185 C15.2576,10.034 14.9296,9.958 14.5926,9.958 C14.3956,9.958 14.2376,10.011 14.1216,10.115 C14.0056,10.22 13.9476,10.362 13.9476,10.543 C13.9476,10.688 13.9866,10.81 14.0656,10.909 C14.1436,11.008 14.2766,11.103 14.4616,11.196 L14.9936,11.458 C15.2676,11.592 15.4656,11.752 15.5906,11.937 C15.7166,12.124 15.7776,12.353 15.7776,12.627 C15.7776,13.027 15.6536,13.351 15.4036,13.595 C15.1536,13.839 14.8186,13.961 14.4016,13.961 C13.9526,13.961 13.5466,13.853 13.1806,13.638 L13.1806,13.045 C13.6336,13.226 14.0266,13.315 14.3576,13.315 C14.5716,13.315 14.7386,13.259 14.8596,13.145 L14.8596,13.145 Z M11.4806,12.893 C11.3346,13.163 11.1106,13.298 10.8086,13.298 C10.5066,13.298 10.2816,13.163 10.1376,12.893 C9.9916,12.622 9.9186,12.202 9.9186,11.633 C9.9186,11.062 9.9916,10.645 10.1376,10.377 C10.2816,10.109 10.5066,9.976 10.8086,9.976 C11.1106,9.976 11.3346,10.109 11.4806,10.377 C11.6246,10.645 11.6976,11.062 11.6976,11.633 C11.6976,12.202 11.6246,12.622 11.4806,12.893 L11.4806,12.893 Z M10.8086,9.313 C10.2566,9.313 9.8336,9.514 9.5396,9.915 C9.2466,10.316 9.0996,10.889 9.0996,11.633 C9.0996,12.382 9.2466,12.958 9.5396,13.358 C9.8336,13.76 10.2566,13.961 10.8086,13.961 C11.3606,13.961 11.7836,13.76 12.0766,13.358 C12.3706,12.958 12.5176,12.382 12.5176,11.633 C12.5176,10.889 12.3706,10.316 12.0766,9.915 C11.7836,9.514 11.3606,9.313 10.8086,9.313 L10.8086,9.313 Z M7.3516,10.517 C7.1966,10.726 6.9836,10.83 6.7106,10.83 L5.8476,10.83 L5.8476,8.476 L6.7106,8.476 C6.9836,8.476 7.1966,8.579 7.3516,8.785 C7.5056,8.992 7.5826,9.281 7.5826,9.653 C7.5826,10.02 7.5056,10.307 7.3516,10.517 L7.3516,10.517 Z M7.6566,8.04 C7.4086,7.884 7.1226,7.805 6.7976,7.805 L5.0276,7.805 L5.0276,13.848 L5.8476,13.848 L5.8476,11.502 L6.7976,11.502 C7.2796,11.502 7.6706,11.333 7.9706,10.996 C8.2696,10.659 8.4196,10.211 8.4196,9.653 C8.4196,9.293 8.3546,8.974 8.2236,8.694 C8.0926,8.415 7.9036,8.197 7.6566,8.04 L7.6566,8.04 Z" id="Amazon-DATABASEAmazon-Aurora-PostgreSQL-instance_Resource-Icon_light-bg" fill="#2E27AD"></path>
    </g>
</svg>