<?xml version="1.0" encoding="UTF-8"?>
<svg width="48px" height="48px" viewBox="0 0 48 48" version="1.1" xmlns="http://www.w3.org/2000/svg" xmlns:xlink="http://www.w3.org/1999/xlink">
    <title>Icon-Resource/Database/Res_Amazon-Aurora-MariaDB-Instance-Alternate_48_Light</title>
    <g id="Icon-Resource/Database/Res_Amazon-Aurora-MariaDB-Instance-Alternate_48" stroke="none" stroke-width="1" fill="none" fill-rule="evenodd">
        <path d="M40.187,14.362 C40.037,14.551 39.824,14.646 39.547,14.646 L38.673,14.646 L38.673,12.396 L39.46,12.396 C39.766,12.396 40.001,12.495 40.165,12.692 C40.329,12.888 40.411,13.169 40.411,13.532 C40.411,13.896 40.335,14.173 40.187,14.362 L40.187,14.362 Z M38.673,9.262 L39.383,9.262 C39.61,9.262 39.787,9.355 39.915,9.542 C40.041,9.726 40.105,9.987 40.105,10.322 C40.105,10.649 40.032,10.905 39.887,11.087 C39.74,11.268 39.541,11.359 39.287,11.359 L38.673,11.359 L38.673,9.262 Z M40.684,11.763 C40.974,11.626 41.197,11.422 41.349,11.152 C41.502,10.883 41.58,10.558 41.58,10.18 C41.58,9.583 41.385,9.098 41,8.727 C40.614,8.356 40.119,8.171 39.515,8.171 L37.233,8.171 L37.233,15.738 L39.581,15.738 C40.286,15.738 40.851,15.546 41.273,15.159 C41.696,14.773 41.907,14.257 41.907,13.609 C41.907,13.143 41.803,12.754 41.595,12.44 C41.388,12.127 41.083,11.902 40.684,11.763 L40.684,11.763 Z M34.373,12.058 C34.373,12.91 34.254,13.542 34.023,13.953 C33.789,14.364 33.436,14.569 32.963,14.569 L32.319,14.569 L32.319,9.339 L32.953,9.339 C33.44,9.339 33.799,9.542 34.028,9.945 C34.257,10.349 34.373,10.98 34.373,11.84 L34.373,12.058 Z M33.072,8.171 L30.791,8.171 L30.791,15.738 L33.126,15.738 C34.044,15.738 34.743,15.418 35.224,14.777 C35.704,14.137 35.944,13.193 35.944,11.949 C35.944,10.712 35.7,9.772 35.212,9.132 C34.725,8.491 34.011,8.171 33.072,8.171 L33.072,8.171 Z M28.049,14.482 C27.808,14.716 27.569,14.832 27.329,14.832 C27.175,14.832 27.053,14.768 26.962,14.64 C26.872,14.513 26.826,14.34 26.826,14.122 C26.826,13.867 26.882,13.673 26.996,13.538 C27.108,13.403 27.27,13.336 27.481,13.336 C27.7,13.336 27.889,13.361 28.049,13.412 L28.049,14.482 Z M27.624,10.016 C27.266,10.016 26.917,10.056 26.575,10.135 C26.233,10.216 25.956,10.325 25.745,10.464 L25.745,11.458 C26.378,11.224 26.914,11.108 27.35,11.108 C27.62,11.108 27.803,11.175 27.902,11.309 C27.999,11.444 28.049,11.701 28.049,12.08 L28.049,12.583 C27.714,12.495 27.434,12.451 27.208,12.451 C26.662,12.451 26.229,12.61 25.909,12.926 C25.588,13.243 25.428,13.675 25.428,14.22 C25.428,14.737 25.56,15.142 25.822,15.438 C26.083,15.732 26.44,15.88 26.891,15.88 C27.132,15.88 27.369,15.82 27.601,15.7 C27.834,15.58 28.012,15.425 28.136,15.236 L28.267,15.738 L29.425,15.738 L29.425,11.829 C29.425,11.195 29.283,10.735 28.999,10.447 C28.715,10.16 28.256,10.016 27.624,10.016 L27.624,10.016 Z M22.819,15.738 L24.314,15.738 L24.314,10.158 L22.819,10.158 L22.819,15.738 Z M24.205,7.815 C24.366,7.965 24.446,8.167 24.446,8.422 C24.446,8.677 24.366,8.879 24.205,9.028 C24.045,9.176 23.834,9.252 23.572,9.252 C23.302,9.252 23.087,9.176 22.928,9.028 C22.768,8.879 22.688,8.677 22.688,8.422 C22.688,8.167 22.768,7.965 22.928,7.815 C23.087,7.667 23.302,7.591 23.572,7.591 C23.834,7.591 24.045,7.667 24.205,7.815 L24.205,7.815 Z M21.76,10.103 C21.876,10.103 21.992,10.115 22.109,10.135 L22.109,11.458 C21.905,11.422 21.712,11.403 21.53,11.403 C21.181,11.403 20.849,11.491 20.537,11.665 L20.537,15.738 L19.041,15.738 L19.041,10.158 L20.264,10.158 L20.427,10.879 C20.646,10.609 20.863,10.413 21.078,10.29 C21.291,10.166 21.519,10.103 21.76,10.103 L21.76,10.103 Z M16.398,14.482 C16.159,14.716 15.918,14.832 15.677,14.832 C15.525,14.832 15.403,14.768 15.312,14.64 C15.22,14.513 15.176,14.34 15.176,14.122 C15.176,13.867 15.232,13.673 15.345,13.538 C15.458,13.403 15.62,13.336 15.831,13.336 C16.049,13.336 16.238,13.361 16.398,13.412 L16.398,14.482 Z M15.972,10.016 C15.616,10.016 15.266,10.056 14.924,10.135 C14.583,10.216 14.305,10.325 14.094,10.464 L14.094,11.458 C14.727,11.224 15.263,11.108 15.7,11.108 C15.969,11.108 16.153,11.175 16.25,11.309 C16.35,11.444 16.398,11.701 16.398,12.08 L16.398,12.583 C16.063,12.495 15.784,12.451 15.558,12.451 C15.012,12.451 14.579,12.61 14.258,12.926 C13.937,13.243 13.778,13.675 13.778,14.22 C13.778,14.737 13.908,15.142 14.17,15.438 C14.433,15.732 14.79,15.88 15.241,15.88 C15.481,15.88 15.717,15.82 15.951,15.7 C16.183,15.58 16.362,15.425 16.486,15.236 L16.617,15.738 L17.774,15.738 L17.774,11.829 C17.774,11.195 17.632,10.735 17.348,10.447 C17.065,10.16 16.606,10.016 15.972,10.016 L15.972,10.016 Z M10.895,8.171 L12.598,8.171 L12.598,15.738 L11.233,15.738 L11.233,10.431 L9.956,13.871 L8.657,13.871 L7.389,10.464 L7.389,15.738 L6.025,15.738 L6.025,8.171 L7.772,8.171 L9.333,12.408 L10.895,8.171 Z M43.932,39.484 C43.932,41.937 41.937,43.932 39.484,43.932 L8.448,43.932 C5.996,43.932 4,41.937 4,39.484 L4,8.448 C4,5.995 5.996,4 8.448,4 L39.484,4 C41.937,4 43.932,5.995 43.932,8.448 L43.932,39.484 Z M39.484,2 L8.448,2 C4.893,2 2,4.892 2,8.448 L2,39.484 C2,43.04 4.893,45.932 8.448,45.932 L39.484,45.932 C43.04,45.932 45.932,43.04 45.932,39.484 L45.932,8.448 C45.932,4.892 43.04,2 39.484,2 L39.484,2 Z" id="Amazon-DATABASEAmazon-Aurora-MariaDB-instance-alternate_Resource-Icon_light-bg" fill="#2E27AD"></path>
    </g>
</svg>