<?xml version="1.0" encoding="UTF-8"?>
<svg width="48px" height="48px" viewBox="0 0 48 48" version="1.1" xmlns="http://www.w3.org/2000/svg" xmlns:xlink="http://www.w3.org/1999/xlink">
    <title>Icon-Resource/Database/Res_Icon-Amazon-DynamoDB_Standard-Infrequent-Access-Table-Class_48_Light</title>
    <g id="Icon-Resource/Database/Res_Icon-Amazon-DynamoDB_Standard-Infrequent-Access-Table-Class_48" stroke="none" stroke-width="1" fill="none" fill-rule="evenodd">
        <path d="M12.714,35.707 L9.714,38.707 C9.519,38.902 9.263,39 9.007,39 C8.751,39 8.495,38.902 8.3,38.707 L5.3,35.707 L6.714,34.293 L8.007,35.586 L8.007,26.414 L6.714,27.707 L5.3,26.293 L8.3,23.293 C8.691,22.902 9.323,22.902 9.714,23.293 L12.714,26.293 L11.3,27.707 L10.007,26.414 L10.007,35.586 L11.3,34.293 L12.714,35.707 Z M23.602,4 C32.091,4 38.007,6.442 38.007,8.635 C38.007,10.827 32.091,13.27 23.602,13.27 C15.204,13.27 10.007,10.864 10.007,8.635 C10.007,6.406 15.204,4 23.602,4 L23.602,4 Z M10.007,20.143 L10.007,12.126 C12.559,14.085 17.396,15.27 23.602,15.27 C29.318,15.27 35.071,14.145 38.007,11.974 L38.007,17.5 L40.007,17.5 L40.007,8.635 C40.007,4.279 31.754,2 23.602,2 C14.274,2 8.007,4.666 8.007,8.635 L8.007,20.143 C8.664,19.974 9.35,19.974 10.007,20.143 L10.007,20.143 Z M23.602,40 C26.739,40 29.521,39.665 31.787,39.134 L31.396,41.033 C31.38,41.11 31.379,41.187 31.369,41.264 C28.964,41.749 26.281,42 23.602,42 C19.425,42 15.741,41.448 12.948,40.404 C12.777,40.34 12.626,40.268 12.463,40.2 L14.01,38.653 C16.516,39.52 19.895,40 23.602,40 L23.602,40 Z M35.253,40.265 L37.324,30.202 C37.385,29.907 37.31,29.601 37.12,29.368 C36.93,29.135 36.646,29 36.345,29 L32.875,29 L36.875,21 L42.49,21 L38.6,27.485 C38.414,27.794 38.409,28.179 38.587,28.493 C38.765,28.806 39.097,29 39.457,29 L42.873,29 L35.253,40.265 Z M45.64,27.531 C45.467,27.204 45.127,27 44.757,27 L41.224,27 L45.114,20.515 C45.3,20.206 45.305,19.821 45.127,19.507 C44.949,19.194 44.617,19 44.257,19 L36.257,19 C35.878,19 35.532,19.214 35.362,19.553 L30.362,29.553 C30.207,29.863 30.224,30.231 30.406,30.526 C30.589,30.821 30.91,31 31.257,31 L35.118,31 L32.277,44.798 C32.181,45.266 32.429,45.736 32.868,45.921 C32.994,45.975 33.126,46 33.257,46 C33.58,46 33.895,45.842 34.085,45.561 L45.585,28.561 C45.792,28.254 45.814,27.858 45.64,27.531 L45.64,27.531 Z" id="Fill-1" fill="#2E27AD"></path>
    </g>
</svg>