<?xml version="1.0" encoding="UTF-8"?>
<svg width="48px" height="48px" viewBox="0 0 48 48" version="1.1" xmlns="http://www.w3.org/2000/svg" xmlns:xlink="http://www.w3.org/1999/xlink">
    <title>Icon-Resource/Database/Res_Amazon-DynamoDB_Attribute_48_Light</title>
    <g id="Icon-Resource/Database/Res_Amazon-DynamoDB_Attribute_48" stroke="none" stroke-width="1" fill="none" fill-rule="evenodd">
        <path d="M12.5996,17.7089 C9.7836,17.7089 7.4916,15.4169 7.4916,12.5999 C7.4916,9.7829 9.7836,7.4909 12.5996,7.4909 C15.4166,7.4909 17.7086,9.7829 17.7086,12.5999 C17.7086,15.4169 15.4166,17.7089 12.5996,17.7089 L12.5996,17.7089 Z M12.5996,5.4909 C8.6796,5.4909 5.4916,8.6799 5.4916,12.5999 C5.4916,16.5199 8.6796,19.7089 12.5996,19.7089 C16.5196,19.7089 19.7086,16.5199 19.7086,12.5999 C19.7086,8.6799 16.5196,5.4909 12.5996,5.4909 L12.5996,5.4909 Z M26.6906,43.8889 L43.8896,43.8889 L43.8896,26.6899 L26.6906,26.6899 L26.6906,43.8889 Z M24.6906,45.8899 L45.8896,45.8899 L45.8896,24.6909 L24.6906,24.6909 L24.6906,45.8899 Z M3.9996,43.8889 L21.1986,43.8889 L21.1986,26.6899 L3.9996,26.6899 L3.9996,43.8889 Z M1.9996,45.8899 L23.1986,45.8899 L23.1986,24.6909 L1.9996,24.6909 L1.9996,45.8899 Z M26.6906,21.1989 L43.8896,21.1989 L43.8896,3.9999 L26.6906,3.9999 L26.6906,21.1989 Z M24.6906,23.1989 L45.8896,23.1989 L45.8896,1.9999 L24.6906,1.9999 L24.6906,23.1989 Z M3.9996,21.1989 L21.1986,21.1989 L21.1986,3.9999 L3.9996,3.9999 L3.9996,21.1989 Z M1.9996,23.1989 L23.1986,23.1989 L23.1986,1.9999 L1.9996,1.9999 L1.9996,23.1989 Z" id="Amazon-DATABASE_Amazon-DynamoDB_Attribute_Resource-Icon_light-bg" fill="#2E27AD"></path>
    </g>
</svg>