<?xml version="1.0" encoding="UTF-8"?>
<svg width="48px" height="48px" viewBox="0 0 48 48" version="1.1" xmlns="http://www.w3.org/2000/svg" xmlns:xlink="http://www.w3.org/1999/xlink">
    <title>Icon-Resource/Database/Res_Amazon-ElastiCache_ElastiCache-for-Memcached_48_Light</title>
    <g id="Icon-Resource/Database/Res_Amazon-ElastiCache_ElastiCache-for-Memcached_48" stroke="none" stroke-width="1" fill="none" fill-rule="evenodd">
        <path d="M43.4482,11.4629 C43.4482,12.2819 44.1192,12.9479 44.9442,12.9479 C45.4972,12.9479 45.9442,13.3959 45.9442,13.9479 L45.9442,29.8569 C45.9442,30.4089 45.4972,30.8569 44.9442,30.8569 L37.1772,30.8569 L37.1772,28.8569 L40.8382,28.8569 L40.8382,26.9729 L37.1772,26.9729 L37.1772,24.9729 L41.8382,24.9729 C42.3902,24.9729 42.8382,25.4199 42.8382,25.9729 L42.8382,28.8569 L43.9442,28.8569 L43.9442,14.8029 C42.5022,14.3729 41.4482,13.0379 41.4482,11.4629 C41.4482,9.8879 42.5022,8.5529 43.9442,8.1229 L43.9442,5.9999 L4.0002,5.9999 L4.0002,8.1229 C5.4422,8.5529 6.4962,9.8879 6.4962,11.4629 C6.4962,13.0379 5.4422,14.3729 4.0002,14.8029 L4.0002,28.8569 L5.1062,28.8569 L5.1062,25.9729 C5.1062,25.4199 5.5532,24.9729 6.1062,24.9729 L10.7672,24.9729 L10.7672,26.9729 L7.1062,26.9729 L7.1062,28.8569 L10.7672,28.8569 L10.7672,30.8569 L3.0002,30.8569 C2.4472,30.8569 2.0002,30.4089 2.0002,29.8569 L2.0002,13.9479 C2.0002,13.3959 2.4472,12.9479 3.0002,12.9479 C3.8252,12.9479 4.4962,12.2819 4.4962,11.4629 C4.4962,10.6439 3.8252,9.9779 3.0002,9.9779 C2.4472,9.9779 2.0002,9.5299 2.0002,8.9779 L2.0002,4.9999 C2.0002,4.4469 2.4472,3.9999 3.0002,3.9999 L44.9442,3.9999 C45.4972,3.9999 45.9442,4.4469 45.9442,4.9999 L45.9442,8.9779 C45.9442,9.5299 45.4972,9.9779 44.9442,9.9779 C44.1192,9.9779 43.4482,10.6439 43.4482,11.4629 L43.4482,11.4629 Z M27.5932,27.3089 L29.8482,27.3089 L29.8482,39.1509 L27.9342,39.1509 L27.9342,30.2819 L24.8582,36.1779 L22.9792,36.1779 L20.0052,30.3169 L20.0052,39.1509 L18.0912,39.1509 L18.0912,27.3089 L20.4152,27.3089 L23.9692,34.3659 L27.5932,27.3089 Z M10.2142,21.0889 L11.5442,21.0889 L11.5442,23.0889 L9.2142,23.0889 C8.6612,23.0889 8.2142,22.6419 8.2142,22.0889 L8.2142,8.8839 C8.2142,8.3309 8.6612,7.8839 9.2142,7.8839 L13.8742,7.8839 C14.4272,7.8839 14.8742,8.3309 14.8742,8.8839 L14.8742,15.0989 L12.8742,15.0989 L12.8742,9.8839 L10.2142,9.8839 L10.2142,21.0889 Z M37.7302,21.0889 L37.7302,9.8839 L35.0702,9.8839 L35.0702,15.0989 L33.0702,15.0989 L33.0702,8.8839 C33.0702,8.3309 33.5172,7.8839 34.0702,7.8839 L38.7302,7.8839 C39.2832,7.8839 39.7302,8.3309 39.7302,8.8839 L39.7302,22.0889 C39.7302,22.6419 39.2832,23.0889 38.7302,23.0889 L37.1772,23.0889 L37.1772,21.0889 L37.7302,21.0889 Z M29.9632,14.3209 L29.9632,9.8839 L26.5252,9.8839 L26.5252,13.5449 L24.5252,13.5449 L24.5252,8.8839 C24.5252,8.3309 24.9722,7.8839 25.5252,7.8839 L30.9632,7.8839 C31.5152,7.8839 31.9632,8.3309 31.9632,8.8839 L31.9632,14.3209 L29.9632,14.3209 Z M21.4192,13.5449 L21.4192,9.8839 L17.9812,9.8839 L17.9812,14.3209 L15.9812,14.3209 L15.9812,8.8839 C15.9812,8.3309 16.4282,7.8839 16.9812,7.8839 L22.4192,7.8839 C22.9712,7.8839 23.4192,8.3309 23.4192,8.8839 L23.4192,13.5449 L21.4192,13.5449 Z M31.6892,30.1549 C32.5812,29.8739 33.2862,29.5659 33.8462,29.2439 L33.8462,33.5099 C33.8462,33.8559 33.1122,34.6009 31.0882,35.2399 L31.6892,37.1469 C32.5812,36.8649 33.2862,36.5569 33.8462,36.2349 L33.8462,40.0409 C33.8462,40.8269 30.4872,42.6709 23.9732,42.6709 C17.4582,42.6709 14.0972,40.8269 14.0972,40.0409 L14.0972,36.2359 C14.6652,36.5609 15.3782,36.8729 16.2832,37.1559 L16.8812,35.2479 C14.8392,34.6089 14.0972,33.8589 14.0972,33.5099 L14.0972,29.2449 C14.6652,29.5699 15.3782,29.8819 16.2832,30.1649 L16.8812,28.2569 C14.8392,27.6169 14.0972,26.8669 14.0972,26.5189 L14.0972,22.2079 C16.3502,23.5009 20.1822,24.1699 23.9952,24.1699 C27.7812,24.1699 31.5892,23.5099 33.8462,22.2339 L33.8462,26.5189 C33.8462,26.8639 33.1122,27.6089 31.0882,28.2489 L31.6892,30.1549 Z M23.9952,16.8239 C30.1422,16.8239 33.9042,18.5549 33.9042,19.4969 C33.9042,20.4399 30.1422,22.1699 23.9952,22.1699 C17.8442,22.1699 14.0812,20.4399 14.0812,19.4969 C14.0812,18.5549 17.8442,16.8239 23.9952,16.8239 L23.9952,16.8239 Z M23.9952,14.8239 C18.0742,14.8239 12.0972,16.4299 12.0972,19.4969 C12.0972,19.5869 12.0962,19.6939 12.0972,19.7589 L12.0972,40.0409 C12.0972,43.0799 18.0722,44.6709 23.9732,44.6709 C29.8742,44.6709 35.8662,43.0799 35.8662,40.0409 L35.8662,20.2899 C35.8712,20.1209 35.8662,19.6579 35.8662,19.4969 C35.8662,16.4299 29.9132,14.8239 23.9952,14.8239 L23.9952,14.8239 Z" id="Amazon-DATABASE_Amazon-ElastiCache_ElastiCache-for-Memcached_Resource-Icon_light-bg" fill="#2E27AD"></path>
    </g>
</svg>