<?xml version="1.0" encoding="UTF-8"?>
<svg width="48px" height="48px" viewBox="0 0 48 48" version="1.1" xmlns="http://www.w3.org/2000/svg" xmlns:xlink="http://www.w3.org/1999/xlink">
    <title>Icon-Resource/Database/Res_Amazon-ElastiCache_ElastiCache-for-Redis_48_Light</title>
    <g id="Icon-Resource/Database/Res_Amazon-ElastiCache_ElastiCache-for-Redis_48" stroke="none" stroke-width="1" fill="none" fill-rule="evenodd">
        <path d="M43.5078,11.4717 C43.5078,12.2927 44.1808,12.9607 45.0078,12.9607 C45.5608,12.9607 46.0078,13.4087 46.0078,13.9607 L46.0078,29.8937 C46.0078,30.4467 45.5608,30.8937 45.0078,30.8937 L37.2288,30.8937 L37.2288,28.8937 L40.8968,28.8937 L40.8968,27.0037 L37.2288,27.0037 L37.2288,25.0037 L41.8968,25.0037 C42.4488,25.0037 42.8968,25.4507 42.8968,26.0037 L42.8968,28.8937 L44.0078,28.8937 L44.0078,14.8157 C42.5638,14.3857 41.5078,13.0497 41.5078,11.4717 C41.5078,9.8937 42.5638,8.5577 44.0078,8.1277 L44.0078,5.9997 L3.9998,5.9997 L3.9998,8.1267 C5.4448,8.5577 6.5008,9.8937 6.5008,11.4717 C6.5008,13.0497 5.4448,14.3857 3.9998,14.8167 L3.9998,28.8937 L5.1118,28.8937 L5.1118,26.0037 C5.1118,25.4507 5.5598,25.0037 6.1118,25.0037 L10.7788,25.0037 L10.7788,27.0037 L7.1118,27.0037 L7.1118,28.8937 L10.7788,28.8937 L10.7788,30.8937 L2.9998,30.8937 C2.4468,30.8937 1.9998,30.4467 1.9998,29.8937 L1.9998,13.9607 C1.9998,13.4087 2.4468,12.9607 2.9998,12.9607 C3.8278,12.9607 4.5008,12.2927 4.5008,11.4717 C4.5008,10.6507 3.8278,9.9827 2.9998,9.9827 C2.4468,9.9827 1.9998,9.5347 1.9998,8.9827 L1.9998,4.9997 C1.9998,4.4477 2.4468,3.9997 2.9998,3.9997 L45.0078,3.9997 C45.5608,3.9997 46.0078,4.4477 46.0078,4.9997 L46.0078,8.9827 C46.0078,9.5347 45.5608,9.9827 45.0078,9.9827 C44.1808,9.9827 43.5078,10.6507 43.5078,11.4717 L43.5078,11.4717 Z M24.1958,33.0557 L22.1168,33.0557 L22.1168,29.1187 L24.2448,29.1187 C25.5418,29.1187 26.1908,29.7757 26.1908,31.0877 C26.1908,32.4007 25.5258,33.0557 24.1958,33.0557 L24.1958,33.0557 Z M27.7228,33.0217 C28.1158,32.4627 28.3128,31.7947 28.3128,31.0197 C28.3128,29.9477 27.9618,29.0937 27.2598,28.4607 C26.5588,27.8267 25.6258,27.5107 24.4618,27.5107 L20.0288,27.5107 L20.0288,39.3707 L22.1168,39.3707 L22.1168,34.6647 L24.2048,34.6647 L26.9778,39.3707 L29.0658,39.3707 L26.0018,34.3057 C26.7548,34.0087 27.3288,33.5807 27.7228,33.0217 L27.7228,33.0217 Z M10.2238,21.1147 L11.5578,21.1147 L11.5578,23.1147 L9.2238,23.1147 C8.6708,23.1147 8.2238,22.6667 8.2238,22.1147 L8.2238,8.8897 C8.2238,8.3367 8.6708,7.8897 9.2238,7.8897 L13.8918,7.8897 C14.4448,7.8897 14.8918,8.3367 14.8918,8.8897 L14.8918,15.1127 L12.8918,15.1127 L12.8918,9.8897 L10.2238,9.8897 L10.2238,21.1147 Z M37.7848,21.1147 L37.7848,9.8897 L35.1168,9.8897 L35.1168,15.1127 L33.1168,15.1127 L33.1168,8.8897 C33.1168,8.3367 33.5648,7.8897 34.1168,7.8897 L38.7848,7.8897 C39.3378,7.8897 39.7848,8.3367 39.7848,8.8897 L39.7848,22.1147 C39.7848,22.6667 39.3378,23.1147 38.7848,23.1147 L37.2288,23.1147 L37.2288,21.1147 L37.7848,21.1147 Z M30.0058,14.3347 L30.0058,9.8897 L26.5608,9.8897 L26.5608,13.5567 L24.5608,13.5567 L24.5608,8.8897 C24.5608,8.3367 25.0078,7.8897 25.5608,7.8897 L31.0058,7.8897 C31.5588,7.8897 32.0058,8.3367 32.0058,8.8897 L32.0058,14.3347 L30.0058,14.3347 Z M21.4478,13.5567 L21.4478,9.8897 L18.0028,9.8897 L18.0028,14.3347 L16.0028,14.3347 L16.0028,8.8897 C16.0028,8.3367 16.4498,7.8897 17.0028,7.8897 L22.4478,7.8897 C23.0008,7.8897 23.4478,8.3367 23.4478,8.8897 L23.4478,13.5567 L21.4478,13.5567 Z M31.7328,30.3597 C32.6258,30.0767 33.3328,29.7677 33.8958,29.4447 L33.8958,33.7187 C33.8958,34.0657 33.1588,34.8127 31.1308,35.4517 L31.7328,37.3607 C32.6258,37.0777 33.3328,36.7687 33.8958,36.4457 L33.8958,40.2597 C33.8958,41.1897 30.1408,42.8957 24.0058,42.8957 C17.8688,42.8957 14.1128,41.1897 14.1128,40.2597 L14.1128,36.4477 C14.6808,36.7727 15.3968,37.0847 16.3038,37.3687 L16.9018,35.4607 C14.8558,34.8207 14.1128,34.0687 14.1128,33.7187 L14.1128,29.4457 C14.6808,29.7717 15.3968,30.0837 16.3038,30.3677 L16.9018,28.4597 C14.8558,27.8197 14.1128,27.0677 14.1128,26.7177 L14.1128,22.4287 C16.3698,23.7387 20.2178,24.3587 23.8948,24.3587 C27.7568,24.3587 31.6388,23.6777 33.8958,22.3657 L33.8958,26.7177 C33.8958,27.0647 33.1588,27.8117 31.1308,28.4507 L31.7328,30.3597 Z M23.8948,17.0127 C30.0818,17.0127 33.8688,18.7427 33.8688,19.6857 C33.8688,20.6277 30.0818,22.3587 23.8948,22.3587 C17.5758,22.3587 14.1298,20.5927 14.1298,19.6857 C14.1298,18.7787 17.5758,17.0127 23.8948,17.0127 L23.8948,17.0127 Z M35.8818,19.6857 C35.8818,16.6177 29.8448,15.0127 23.8948,15.0127 C18.2288,15.0127 12.1218,16.4747 12.1218,19.6857 L12.1218,19.7907 L12.1128,40.2597 C12.1128,43.3027 18.0958,44.8957 24.0058,44.8957 C29.9138,44.8957 35.8958,43.3027 35.8958,40.2597 L35.8818,19.7907 L35.8818,19.6857 Z" id="Amazon-DATABASE_Amazon-ElastiCache_Elasticache-for-Redis_Resource-Icon_light-bg" fill="#2E27AD"></path>
    </g>
</svg>