<?xml version="1.0" encoding="UTF-8"?>
<svg width="48px" height="48px" viewBox="0 0 48 48" version="1.1" xmlns="http://www.w3.org/2000/svg" xmlns:xlink="http://www.w3.org/1999/xlink">
    <title>Icon-Resource/Database/Res_Amazon-RDS-Proxy_48_Light</title>
    <g id="Icon-Resource/Database/Res_Amazon-RDS-Proxy_48" stroke="none" stroke-width="1" fill="none" fill-rule="evenodd">
        <path d="M44.1751,29.9927 L44.1751,26.2347 C42.4711,27.2357 39.7541,27.7537 37.0531,27.7537 C34.3521,27.7537 31.6351,27.2357 29.9311,26.2347 L29.9311,29.9927 C29.9311,30.7527 32.4451,32.2317 37.0531,32.2317 C41.6611,32.2317 44.1751,30.7527 44.1751,29.9927 L44.1751,29.9927 Z M44.1751,36.1157 L44.1751,32.4677 C42.4711,33.4687 39.7541,33.9847 37.0531,33.9847 C34.3521,33.9847 31.6351,33.4687 29.9311,32.4677 L29.9311,36.1157 C29.9311,36.8757 32.4451,38.3547 37.0531,38.3547 C41.6611,38.3547 44.1751,36.8757 44.1751,36.1157 L44.1751,36.1157 Z M44.1751,41.5827 L44.1751,38.5907 C42.4711,39.5917 39.7541,40.1077 37.0531,40.1077 C34.3521,40.1077 31.6351,39.5917 29.9311,38.5907 L29.9311,41.5827 C29.9311,42.3427 32.4451,43.8217 37.0531,43.8217 C41.6611,43.8217 44.1751,42.3427 44.1751,41.5827 L44.1751,41.5827 Z M29.9311,23.7607 C29.9311,24.5207 32.4451,26.0007 37.0531,26.0007 C41.6611,26.0007 44.1751,24.5207 44.1751,23.7607 C44.1751,22.9997 41.6611,21.5197 37.0531,21.5197 C32.4451,21.5197 29.9311,22.9997 29.9311,23.7607 L29.9311,23.7607 Z M45.9271,23.7607 L45.9271,41.5827 C45.9271,44.2037 41.4621,45.5747 37.0531,45.5747 C32.6431,45.5747 28.1781,44.2037 28.1781,41.5827 L28.1781,23.7607 C28.1781,21.1387 32.6431,19.7677 37.0531,19.7677 C41.4621,19.7677 45.9271,21.1387 45.9271,23.7607 L45.9271,23.7607 Z M37.9171,11.7937 C37.8841,12.0537 37.8161,12.2397 37.7101,12.3507 C37.6051,12.4617 37.4461,12.5167 37.2371,12.5167 C37.1201,12.5167 36.9881,12.5057 36.8381,12.4827 L36.8381,13.2487 C37.0871,13.3327 37.3311,13.3737 37.5691,13.3737 C37.8841,13.3737 38.1391,13.2827 38.3321,13.0987 C38.5271,12.9167 38.6811,12.6197 38.7981,12.2097 L40.2001,7.3117 L39.0291,7.3117 L38.4071,10.4377 L37.7681,7.3117 L36.5641,7.3117 L37.9341,11.6437 L37.9171,11.7937 Z M36.2491,11.5607 L35.0121,9.4247 L36.1831,7.3117 L35.0621,7.3117 L34.4881,8.6177 L33.8651,7.3117 L32.6461,7.3117 L33.8171,9.4247 L32.6291,11.5607 L33.7501,11.5607 L34.3391,10.2137 L35.0291,11.5607 L36.2491,11.5607 Z M30.2091,10.4757 C30.1161,10.2567 30.0711,9.9117 30.0711,9.4407 C30.0711,8.9697 30.1161,8.6227 30.2091,8.4007 C30.3001,8.1797 30.4471,8.0677 30.6531,8.0677 C30.8581,8.0677 31.0061,8.1797 31.0971,8.4007 C31.1881,8.6227 31.2351,8.9697 31.2351,9.4407 C31.2351,9.9117 31.1881,10.2567 31.0971,10.4757 C31.0061,10.6947 30.8581,10.8047 30.6531,10.8047 C30.4471,10.8047 30.3001,10.6947 30.2091,10.4757 L30.2091,10.4757 Z M31.9231,11.0867 C32.2221,10.6987 32.3711,10.1497 32.3711,9.4407 C32.3711,8.7247 32.2221,8.1747 31.9231,7.7857 C31.6241,7.3977 31.2001,7.2037 30.6531,7.2037 C30.1051,7.2037 29.6811,7.3977 29.3821,7.7857 C29.0831,8.1747 28.9341,8.7247 28.9341,9.4407 C28.9341,10.1497 29.0831,10.6987 29.3821,11.0867 C29.6811,11.4747 30.1051,11.6687 30.6531,11.6687 C31.2001,11.6687 31.6241,11.4747 31.9231,11.0867 L31.9231,11.0867 Z M27.4051,11.5607 L27.4051,8.4597 C27.6441,8.3267 27.8961,8.2597 28.1611,8.2597 C28.3001,8.2597 28.4461,8.2737 28.6021,8.3017 L28.6021,7.2957 C28.5131,7.2787 28.4241,7.2697 28.3361,7.2697 C28.1541,7.2697 27.9801,7.3167 27.8181,7.4117 C27.6541,7.5067 27.4881,7.6557 27.3221,7.8607 L27.1981,7.3117 L26.2691,7.3117 L26.2691,11.5607 L27.4051,11.5607 Z M23.0801,6.6637 L23.6191,6.6637 C23.8351,6.6637 24.0001,6.7437 24.1131,6.9047 C24.2271,7.0647 24.2841,7.3007 24.2841,7.6107 C24.2841,7.9217 24.2271,8.1577 24.1131,8.3177 C24.0001,8.4787 23.8351,8.5587 23.6191,8.5587 L23.0801,8.5587 L23.0801,6.6637 Z M23.7611,9.4247 C24.2701,9.4247 24.6761,9.2617 24.9771,8.9367 C25.2791,8.6127 25.4301,8.1717 25.4301,7.6107 C25.4301,7.0517 25.2791,6.6087 24.9771,6.2847 C24.6761,5.9607 24.2701,5.7987 23.7611,5.7987 L21.9431,5.7987 L21.9431,11.5607 L23.0801,11.5607 L23.0801,9.4247 L23.7611,9.4247 Z M17.5171,9.2327 C17.7431,9.3547 17.9051,9.4747 18.0021,9.5947 C18.0991,9.7137 18.1481,9.8587 18.1481,10.0307 C18.1481,10.2637 18.0781,10.4417 17.9411,10.5667 C17.8021,10.6917 17.6001,10.7547 17.3341,10.7547 C17.1521,10.7547 16.9321,10.7277 16.6741,10.6757 C16.4171,10.6227 16.1861,10.5567 15.9811,10.4797 L15.9811,11.3527 C16.1581,11.4527 16.3761,11.5327 16.6371,11.5947 C16.8971,11.6547 17.1571,11.6857 17.4171,11.6857 C18.0151,11.6857 18.4851,11.5317 18.8241,11.2237 C19.1651,10.9167 19.3351,10.4997 19.3351,9.9717 C19.3351,9.7007 19.2951,9.4697 19.2151,9.2787 C19.1341,9.0877 19.0101,8.9137 18.8411,8.7587 C18.6721,8.6037 18.4451,8.4487 18.1561,8.2927 L17.7081,8.0517 C17.4641,7.9197 17.3001,7.7977 17.2141,7.6857 C17.1281,7.5747 17.0851,7.4337 17.0851,7.2617 C17.0851,7.0567 17.1521,6.8957 17.2841,6.7797 C17.4171,6.6637 17.6001,6.6047 17.8321,6.6047 C18.1751,6.6047 18.5711,6.6877 19.0201,6.8537 L19.0201,5.9727 C18.5881,5.7737 18.1541,5.6737 17.7161,5.6737 C17.3671,5.6737 17.0591,5.7417 16.7901,5.8777 C16.5221,6.0137 16.3101,6.2077 16.1551,6.4597 C16.0001,6.7117 15.9231,7.0077 15.9231,7.3457 C15.9231,7.7117 16.0111,8.0207 16.1891,8.2757 C16.3651,8.5317 16.6591,8.7697 17.0691,8.9917 L17.5171,9.2327 Z M12.9841,6.6877 C13.3541,6.6877 13.6271,6.8427 13.8011,7.1497 C13.9761,7.4577 14.0631,7.9377 14.0631,8.5927 L14.0631,8.7587 C14.0631,9.4067 13.9741,9.8887 13.7971,10.2017 C13.6191,10.5137 13.3521,10.6717 12.9911,10.6717 L12.5011,10.6717 L12.5011,6.6877 L12.9841,6.6877 Z M13.1161,11.5607 C13.8141,11.5607 14.3451,11.3167 14.7101,10.8287 C15.0751,10.3417 15.2581,9.6237 15.2581,8.6757 C15.2581,7.7327 15.0721,7.0177 14.7011,6.5297 C14.3311,6.0427 13.7881,5.7987 13.0741,5.7987 L11.3391,5.7987 L11.3391,11.5607 L13.1161,11.5607 Z M8.0521,6.6637 L8.5911,6.6637 C8.8071,6.6637 8.9721,6.7437 9.0851,6.9047 C9.1981,7.0647 9.2561,7.3007 9.2561,7.6107 C9.2561,7.9217 9.1981,8.1577 9.0851,8.3177 C8.9721,8.4787 8.8071,8.5587 8.5911,8.5587 L8.0521,8.5587 L8.0521,6.6637 Z M10.7001,11.5607 L9.5371,9.2497 C9.8151,9.1107 10.0281,8.8997 10.1771,8.6177 C10.3261,8.3347 10.4021,7.9997 10.4021,7.6107 C10.4021,7.0517 10.2501,6.6087 9.9481,6.2847 C9.6471,5.9607 9.2411,5.7987 8.7331,5.7987 L6.9141,5.7987 L6.9141,11.5607 L8.0521,11.5607 L8.0521,9.4247 L8.5001,9.4247 L9.5051,11.5607 L10.7001,11.5607 Z M27.4131,45.8157 L7.6511,45.8157 C4.5341,45.8157 2.0001,43.2807 2.0001,40.1657 L2.0001,7.6497 C2.0001,4.5347 4.5341,1.9997 7.6511,1.9997 L40.1651,1.9997 C43.2811,1.9997 45.8161,4.5347 45.8161,7.6497 L45.8161,20.4027 L44.0641,20.4027 L44.0641,7.6497 C44.0641,5.5007 42.3151,3.7527 40.1651,3.7527 L7.6511,3.7527 C5.5011,3.7527 3.7521,5.5007 3.7521,7.6497 L3.7521,40.1657 C3.7521,42.3147 5.5011,44.0627 7.6511,44.0627 L27.4131,44.0627 L27.4131,45.8157 Z" id="Amazon-DATABASE_Amazon-RDS-Proxy_Resource-Icon_light-bg" fill="#2E27AD"></path>
    </g>
</svg>