<?xml version="1.0" encoding="UTF-8"?>
<svg width="48px" height="48px" viewBox="0 0 48 48" version="1.1" xmlns="http://www.w3.org/2000/svg" xmlns:xlink="http://www.w3.org/1999/xlink">
    <title>Icon-Resource/Database/Res_Amazon-RDS-Proxy-Alternate_48_Light</title>
    <g id="Icon-Resource/Database/Res_Amazon-RDS-Proxy-Alternate_48" stroke="none" stroke-width="1" fill="none" fill-rule="evenodd">
        <path d="M28.33,26.61 L26.525,20.911 L28.111,20.911 L28.954,25.024 L29.774,20.911 L31.316,20.911 L29.468,27.354 C29.315,27.894 29.11,28.284 28.855,28.525 C28.601,28.764 28.265,28.885 27.849,28.885 C27.536,28.885 27.215,28.831 26.887,28.721 L26.887,27.715 C27.083,27.745 27.259,27.758 27.411,27.758 C27.687,27.758 27.896,27.685 28.035,27.54 C28.173,27.394 28.265,27.149 28.309,26.807 L28.33,26.61 Z M24.502,26.501 L23.595,24.728 L22.816,26.501 L21.34,26.501 L22.904,23.689 L21.362,20.911 L22.971,20.911 L23.791,22.629 L24.546,20.911 L26.022,20.911 L24.479,23.689 L26.11,26.501 L24.502,26.501 Z M18.736,25.506 C19.007,25.506 19.201,25.362 19.322,25.073 C19.442,24.785 19.502,24.331 19.502,23.712 C19.502,23.091 19.442,22.635 19.322,22.344 C19.201,22.052 19.007,21.907 18.736,21.907 C18.467,21.907 18.271,22.052 18.152,22.344 C18.03,22.635 17.971,23.091 17.971,23.712 C17.971,24.331 18.03,24.785 18.152,25.073 C18.271,25.362 18.467,25.506 18.736,25.506 L18.736,25.506 Z M18.736,26.643 C18.016,26.643 17.456,26.388 17.063,25.877 C16.669,25.367 16.472,24.644 16.472,23.712 C16.472,22.77 16.669,22.045 17.063,21.535 C17.456,21.023 18.016,20.769 18.736,20.769 C19.459,20.769 20.017,21.023 20.41,21.535 C20.805,22.045 21.001,22.77 21.001,23.712 C21.001,24.644 20.805,25.367 20.41,25.877 C20.017,26.388 19.459,26.643 18.736,26.643 L18.736,26.643 Z M12.961,26.501 L12.961,20.911 L14.186,20.911 L14.351,21.632 C14.569,21.363 14.786,21.167 15.002,21.043 C15.217,20.919 15.444,20.856 15.685,20.856 C15.802,20.856 15.918,20.867 16.035,20.888 L16.035,22.213 C15.831,22.176 15.638,22.158 15.455,22.158 C15.105,22.158 14.772,22.246 14.46,22.42 L14.46,26.501 L12.961,26.501 Z M8.761,22.551 L9.472,22.551 C9.756,22.551 9.974,22.446 10.122,22.235 C10.272,22.023 10.347,21.714 10.347,21.304 C10.347,20.896 10.272,20.586 10.122,20.375 C9.974,20.163 9.756,20.058 9.472,20.058 L8.761,20.058 L8.761,22.551 Z M8.761,23.689 L8.761,26.501 L7.263,26.501 L7.263,18.92 L9.657,18.92 C10.329,18.92 10.862,19.133 11.261,19.559 C11.657,19.986 11.856,20.568 11.856,21.304 C11.856,22.042 11.657,22.623 11.261,23.049 C10.862,23.476 10.329,23.689 9.657,23.689 L8.761,23.689 Z M20.641,11.744 C20.101,11.452 19.714,11.138 19.48,10.802 C19.248,10.467 19.132,10.059 19.132,9.578 C19.132,9.132 19.233,8.745 19.437,8.413 C19.641,8.081 19.92,7.826 20.274,7.646 C20.628,7.468 21.034,7.379 21.493,7.379 C22.069,7.379 22.643,7.509 23.211,7.773 L23.211,8.932 C22.62,8.714 22.099,8.604 21.647,8.604 C21.341,8.604 21.101,8.68 20.925,8.834 C20.75,8.987 20.663,9.199 20.663,9.468 C20.663,9.694 20.72,9.881 20.832,10.026 C20.945,10.172 21.162,10.333 21.483,10.507 L22.073,10.825 C22.452,11.029 22.753,11.233 22.976,11.437 C23.198,11.641 23.362,11.87 23.468,12.121 C23.573,12.373 23.627,12.677 23.627,13.035 C23.627,13.727 23.402,14.276 22.954,14.68 C22.506,15.086 21.888,15.288 21.101,15.288 C20.757,15.288 20.415,15.248 20.071,15.168 C19.728,15.088 19.44,14.981 19.207,14.85 L19.207,13.702 C19.476,13.803 19.782,13.89 20.121,13.96 C20.46,14.029 20.75,14.063 20.991,14.063 C21.341,14.063 21.606,13.981 21.789,13.816 C21.972,13.652 22.062,13.418 22.062,13.112 C22.062,12.885 21.999,12.694 21.871,12.537 C21.743,12.38 21.53,12.221 21.231,12.061 L20.641,11.744 Z M14.624,8.714 L14.624,13.954 L15.269,13.954 C15.744,13.954 16.098,13.748 16.33,13.336 C16.564,12.923 16.681,12.291 16.681,11.437 L16.681,11.218 C16.681,10.358 16.565,9.725 16.336,9.32 C16.106,8.916 15.747,8.714 15.258,8.714 L14.624,8.714 Z M13.093,15.124 L13.093,7.543 L15.379,7.543 C16.319,7.543 17.034,7.864 17.523,8.506 C18.012,9.147 18.256,10.089 18.256,11.328 C18.256,12.575 18.016,13.52 17.533,14.161 C17.053,14.802 16.352,15.124 15.434,15.124 L13.093,15.124 Z M8.761,11.174 L9.472,11.174 C9.756,11.174 9.974,11.069 10.122,10.857 C10.272,10.646 10.347,10.336 10.347,9.927 C10.347,9.519 10.272,9.21 10.122,8.998 C9.974,8.786 9.756,8.68 9.472,8.68 L8.761,8.68 L8.761,11.174 Z M10.675,15.124 L9.351,12.312 L8.761,12.312 L8.761,15.124 L7.263,15.124 L7.263,7.543 L9.657,7.543 C10.329,7.543 10.862,7.756 11.261,8.183 C11.657,8.609 11.856,9.191 11.856,9.927 C11.856,10.438 11.758,10.88 11.561,11.252 C11.364,11.623 11.083,11.9 10.719,12.083 L12.25,15.124 L10.675,15.124 Z M7.643,3.75 C5.496,3.75 3.75,5.496 3.75,7.642 L3.75,40.113 C3.75,42.26 5.496,44.006 7.643,44.006 L40.113,44.006 C42.26,44.006 44.006,42.26 44.006,40.113 L44.006,7.642 C44.006,5.496 42.26,3.75 40.113,3.75 L7.643,3.75 Z M40.113,45.756 L7.643,45.756 C4.531,45.756 2,43.225 2,40.113 L2,7.642 C2,4.531 4.531,2 7.643,2 L40.113,2 C43.225,2 45.756,4.531 45.756,7.642 L45.756,40.113 C45.756,43.225 43.225,45.756 40.113,45.756 L40.113,45.756 Z" id="Amazon-DATABASE_Amazon-RDS-Proxy-Alternate_Resource-Icon_light-bg" fill="#2E27AD"></path>
    </g>
</svg>