<?xml version="1.0" encoding="UTF-8"?>
<svg width="74px" height="74px" viewBox="0 0 74 74" version="1.1" xmlns="http://www.w3.org/2000/svg" xmlns:xlink="http://www.w3.org/1999/xlink">
    <title>Icon-Architecture-Category/48/Cloud-Financial-Management_48</title>
    <defs>
        <linearGradient x1="0%" y1="100%" x2="100%" y2="0%" id="linearGradient-1">
            <stop stop-color="#1B660F" offset="0%"></stop>
            <stop stop-color="#6CAE3E" offset="100%"></stop>
        </linearGradient>
    </defs>
    <g id="Icon-Architecture-Category/48/Cloud-Financial-Management_48" stroke="none" stroke-width="1" fill="none" fill-rule="evenodd">
        <rect id="Rectangle" fill="url(#linearGradient-1)" x="5" y="5" width="64" height="64"></rect>
        <rect id="#879196-Border-Copy-3" stroke="#879196" stroke-width="2" x="1" y="1" width="72" height="72"></rect>
        <g id="Icon-Category/48/Cloud-Financial-Management_48" transform="translate(13.000000, 13.000000)" fill="#FFFFFF">
            <path d="M21,42 L26,42 L26,40 L21,40 L21,42 Z M12,42 L17,42 L17,40 L12,40 L12,42 Z M21,37 L26,37 L26,35 L21,35 L21,37 Z M12,37 L17,37 L17,35 L12,35 L12,37 Z M21,31 L26,31 L26,29 L21,29 L21,31 Z M12,31 L17,31 L17,29 L12,29 L12,31 Z M32,40 L35,40 L35,31 L32,31 L32,40 Z M36,29 L31,29 C30.447,29 30,29.448 30,30 L30,41 C30,41.552 30.447,42 31,42 L36,42 C36.553,42 37,41.552 37,41 L37,30 C37,29.448 36.553,29 36,29 L36,29 Z M13,25 L35,25 L35,20 L13,20 L13,25 Z M12,18 C11.447,18 11,18.448 11,19 L11,26 C11,26.552 11.447,27 12,27 L36,27 C36.553,27 37,26.552 37,26 L37,19 C37,18.448 36.553,18 36,18 L12,18 Z M40,44 L8,44 L8,14 L16,14 L16,15 C16,15.552 16.447,16 17,16 L31,16 C31.553,16 32,15.552 32,15 L32,14 L40,14 L40,44 Z M17.382,4 L26,4 C27.85,4 30,5.311 30,7 L30,12 L30,14 L18,14 L18,12 L18,7 C18,5.687 17.755,4.716 17.382,4 L17.382,4 Z M12.25,8.094 L12.25,6.969 C12.25,5.729 12.916,4 14,4 C14.495,4 16,4 16,7 L16,8.094 L12.25,8.094 Z M41,12 L32,12 L32,7 C32,4.053 28.838,2 26,2 L14,2 C11.684,2 10.25,4.579 10.25,6.969 L10.25,9.094 C10.25,9.646 10.697,10.094 11.25,10.094 L16,10.094 L16,12 L7,12 C6.447,12 6,12.448 6,13 L6,45 C6,45.552 6.447,46 7,46 L41,46 C41.553,46 42,45.552 42,45 L42,13 C42,12.448 41.553,12 41,12 L41,12 Z" id="Fill-1"></path>
        </g>
    </g>
</svg>