<?xml version="1.0" encoding="UTF-8"?>
<svg width="48px" height="48px" viewBox="0 0 48 48" version="1.1" xmlns="http://www.w3.org/2000/svg" xmlns:xlink="http://www.w3.org/1999/xlink">
    <title>Icon-Resource/Compute/Res_Amazon-EC2_C5n-Instance_48_Light</title>
    <g id="Icon-Resource/Compute/Res_Amazon-EC2_C5n-Instance_48" stroke="none" stroke-width="1" fill="none" fill-rule="evenodd">
        <path d="M30.5591,28.8008 L28.9071,28.8008 L28.9071,21.6738 L30.2791,21.6738 L30.4471,22.4588 C31.3241,21.7948 32.2391,21.4648 33.1911,21.4648 C33.8721,21.4648 34.3901,21.6448 34.7451,22.0038 C35.0991,22.3638 35.2771,22.8828 35.2771,23.5648 L35.2771,28.8008 L33.6241,28.8008 L33.6241,24.0818 C33.6241,23.6248 33.5321,23.2908 33.3451,23.0798 C33.1581,22.8708 32.8601,22.7658 32.4491,22.7658 C31.8321,22.7658 31.2031,22.9708 30.5591,23.3828 L30.5591,28.8008 Z M23.9791,29.0098 C23.0451,29.0098 22.1501,28.8218 21.2911,28.4488 L21.2911,27.1348 C22.3111,27.4788 23.1931,27.6528 23.9351,27.6528 C25.3181,27.6528 26.0091,27.0548 26.0091,25.8598 C26.0091,25.2808 25.8351,24.8598 25.4871,24.5938 C25.1391,24.3258 24.5851,24.1938 23.8261,24.1938 C23.2591,24.1938 22.5501,24.2398 21.6971,24.3338 L21.6971,23.2698 L21.9631,19.0978 L27.2271,19.0978 L27.2271,20.4278 L23.5221,20.4278 L23.3631,23.0178 C23.7461,22.9438 24.1511,22.9058 24.5791,22.9058 C25.5481,22.9058 26.3121,23.1678 26.8691,23.6898 C27.4241,24.2128 27.7031,24.9278 27.7031,25.8318 C27.7031,26.8028 27.3671,27.5738 26.6951,28.1488 C26.0231,28.7228 25.1181,29.0098 23.9791,29.0098 L23.9791,29.0098 Z M13.9071,27.7368 C13.1181,26.9138 12.7231,25.7008 12.7231,24.0958 C12.7231,22.4438 13.1311,21.1718 13.9491,20.2808 C14.7651,19.3908 15.9391,18.9438 17.4691,18.9438 C18.3101,18.9438 19.0841,19.0708 19.7931,19.3218 L19.7931,20.7228 C18.8621,20.5258 18.1331,20.4278 17.6061,20.4278 C16.5431,20.4278 15.7531,20.7028 15.2361,21.2538 C14.7181,21.8048 14.4591,22.6548 14.4591,23.8028 L14.4591,24.1388 C14.4591,25.2778 14.7151,26.1188 15.2281,26.6658 C15.7411,27.2108 16.5241,27.4848 17.5781,27.4848 C18.1701,27.4848 18.9551,27.3668 19.9341,27.1348 L19.9341,28.5328 C19.1961,28.8218 18.3561,28.9688 17.4131,28.9688 C15.8641,28.9688 14.6951,28.5568 13.9071,27.7368 L13.9071,27.7368 Z M8.9991,38.9998 L38.9991,38.9998 L38.9991,8.9998 L8.9991,8.9998 L8.9991,38.9998 Z M45.9991,12.9998 L45.9991,10.9998 L40.9991,10.9998 L40.9991,7.9998 C40.9991,7.4468 40.5521,6.9998 39.9991,6.9998 L36.9991,6.9998 L36.9991,1.9998 L34.9991,1.9998 L34.9991,6.9998 L30.9991,6.9998 L30.9991,1.9998 L28.9991,1.9998 L28.9991,6.9998 L24.9991,6.9998 L24.9991,1.9998 L22.9991,1.9998 L22.9991,6.9998 L18.9991,6.9998 L18.9991,1.9998 L16.9991,1.9998 L16.9991,6.9998 L12.9991,6.9998 L12.9991,1.9998 L10.9991,1.9998 L10.9991,6.9998 L7.9991,6.9998 C7.4471,6.9998 6.9991,7.4468 6.9991,7.9998 L6.9991,10.9998 L1.9991,10.9998 L1.9991,12.9998 L6.9991,12.9998 L6.9991,16.9998 L1.9991,16.9998 L1.9991,18.9998 L6.9991,18.9998 L6.9991,22.9998 L1.9991,22.9998 L1.9991,24.9998 L6.9991,24.9998 L6.9991,28.9998 L1.9991,28.9998 L1.9991,30.9998 L6.9991,30.9998 L6.9991,34.9998 L1.9991,34.9998 L1.9991,36.9998 L6.9991,36.9998 L6.9991,39.9998 C6.9991,40.5528 7.4471,40.9998 7.9991,40.9998 L10.9991,40.9998 L10.9991,45.9998 L12.9991,45.9998 L12.9991,40.9998 L16.9991,40.9998 L16.9991,45.9998 L18.9991,45.9998 L18.9991,40.9998 L22.9991,40.9998 L22.9991,45.9998 L24.9991,45.9998 L24.9991,40.9998 L28.9991,40.9998 L28.9991,45.9998 L30.9991,45.9998 L30.9991,40.9998 L34.9991,40.9998 L34.9991,45.9998 L36.9991,45.9998 L36.9991,40.9998 L39.9991,40.9998 C40.5521,40.9998 40.9991,40.5528 40.9991,39.9998 L40.9991,36.9998 L45.9991,36.9998 L45.9991,34.9998 L40.9991,34.9998 L40.9991,30.9998 L45.9991,30.9998 L45.9991,28.9998 L40.9991,28.9998 L40.9991,24.9998 L45.9991,24.9998 L45.9991,22.9998 L40.9991,22.9998 L40.9991,18.9998 L45.9991,18.9998 L45.9991,16.9998 L40.9991,16.9998 L40.9991,12.9998 L45.9991,12.9998 Z" id="Amazon-EC2-C5n-Instance_Resource-Icon_light-bg" fill="#D45B07"></path>
    </g>
</svg>