<?xml version="1.0" encoding="UTF-8"?>
<svg width="48px" height="48px" viewBox="0 0 48 48" version="1.1" xmlns="http://www.w3.org/2000/svg" xmlns:xlink="http://www.w3.org/1999/xlink">
    <title>Icon-Resource/Compute/Res_Amazon-EC2_C6g-Instance_48_Light</title>
    <g id="Icon-Resource/Compute/Res_Amazon-EC2_C6g-Instance_48" stroke="none" stroke-width="1" fill="none" fill-rule="evenodd">
        <path d="M31.0703,22.3096 C31.3453,21.9366 31.7673,21.7486 32.3373,21.7486 C32.8873,21.7486 33.4063,21.9166 33.8913,22.2526 L33.8913,25.8366 C33.3963,26.2006 32.8743,26.3836 32.3233,26.3836 C31.2133,26.3836 30.6573,25.5986 30.6573,24.0306 C30.6573,23.2566 30.7953,22.6826 31.0703,22.3096 L31.0703,22.3096 Z M31.8333,27.6576 C32.5983,27.6576 33.2843,27.3956 33.8913,26.8736 L33.8913,27.4756 C33.8913,28.2026 33.7323,28.7276 33.4153,29.0496 C33.0973,29.3716 32.5893,29.5326 31.8893,29.5326 C31.1983,29.5326 30.4193,29.3876 29.5503,29.0986 L29.5503,30.2746 C30.3203,30.6576 31.1353,30.8486 31.9993,30.8486 C33.1333,30.8486 34.0083,30.5416 34.6223,29.9246 C35.2363,29.3096 35.5433,28.4366 35.5433,27.3076 L35.5433,20.6706 L34.1433,20.6706 L34.0033,21.3156 C33.4063,20.7456 32.7013,20.4616 31.8893,20.4616 C31.2923,20.4616 30.7733,20.6146 30.3353,20.9226 C29.8963,21.2316 29.5603,21.6576 29.3273,22.2046 C29.0933,22.7506 28.9773,23.3776 28.9773,24.0866 C28.9773,25.1706 29.2363,26.0366 29.7543,26.6846 C30.2723,27.3326 30.9653,27.6576 31.8333,27.6576 L31.8333,27.6576 Z M24.3273,23.2056 C24.8833,23.2056 25.3073,23.3526 25.5993,23.6456 C25.8913,23.9406 26.0373,24.3666 26.0373,24.9266 C26.0373,25.4776 25.8953,25.9076 25.6133,26.2156 C25.3313,26.5226 24.9383,26.6766 24.4363,26.6766 C23.2063,26.6766 22.5583,25.6826 22.4953,23.6946 C23.1153,23.3686 23.7253,23.2056 24.3273,23.2056 L24.3273,23.2056 Z M24.3153,28.0066 C25.0063,28.0066 25.6103,27.8706 26.1283,27.5946 C26.6463,27.3196 27.0433,26.9406 27.3183,26.4596 C27.5933,25.9796 27.7313,25.4306 27.7313,24.8156 C27.7313,23.9386 27.4673,23.2356 26.9413,22.7076 C26.4153,22.1806 25.7173,21.9166 24.8493,21.9166 C24.0183,21.9166 23.2333,22.1556 22.4953,22.6316 C22.5413,21.4636 22.7713,20.6006 23.1863,20.0416 C23.6013,19.4816 24.2283,19.2006 25.0673,19.2006 C25.3813,19.2006 25.7243,19.2356 26.0983,19.3056 C26.4713,19.3756 26.8003,19.4676 27.0873,19.5796 L27.0873,18.3606 C26.7983,18.2116 26.4503,18.0926 26.0443,18.0046 C25.6373,17.9146 25.2343,17.8726 24.8333,17.8726 C23.5543,17.8726 22.5623,18.3466 21.8583,19.2996 C21.1533,20.2506 20.8003,21.5846 20.8003,23.3036 C20.8003,24.8526 21.0973,26.0246 21.6903,26.8176 C22.2833,27.6106 23.1583,28.0066 24.3153,28.0066 L24.3153,28.0066 Z M13.6403,26.7336 C12.8513,25.9116 12.4573,24.6986 12.4573,23.0926 C12.4573,21.4406 12.8653,20.1686 13.6823,19.2786 C14.4993,18.3876 15.6733,17.9406 17.2033,17.9406 C18.0433,17.9406 18.8173,18.0676 19.5273,18.3196 L19.5273,19.7196 C18.5953,19.5226 17.8673,19.4246 17.3403,19.4246 C16.2763,19.4246 15.4863,19.7006 14.9693,20.2506 C14.4523,20.8016 14.1933,21.6516 14.1933,22.7996 L14.1933,23.1356 C14.1933,24.2746 14.4493,25.1166 14.9623,25.6636 C15.4743,26.2076 16.2573,26.4816 17.3113,26.4816 C17.9033,26.4816 18.6893,26.3646 19.6673,26.1316 L19.6673,27.5306 C18.9293,27.8196 18.0903,27.9656 17.1473,27.9656 C15.5973,27.9656 14.4283,27.5536 13.6403,26.7336 L13.6403,26.7336 Z M9.0003,38.9996 L39.0003,38.9996 L39.0003,8.9996 L9.0003,8.9996 L9.0003,38.9996 Z M46.0003,12.9996 L46.0003,10.9996 L41.0003,10.9996 L41.0003,7.9996 C41.0003,7.4476 40.5523,6.9996 40.0003,6.9996 L37.0003,6.9996 L37.0003,1.9996 L35.0003,1.9996 L35.0003,6.9996 L31.0003,6.9996 L31.0003,1.9996 L29.0003,1.9996 L29.0003,6.9996 L25.0003,6.9996 L25.0003,1.9996 L23.0003,1.9996 L23.0003,6.9996 L19.0003,6.9996 L19.0003,1.9996 L17.0003,1.9996 L17.0003,6.9996 L13.0003,6.9996 L13.0003,1.9996 L11.0003,1.9996 L11.0003,6.9996 L8.0003,6.9996 C7.4473,6.9996 7.0003,7.4476 7.0003,7.9996 L7.0003,10.9996 L2.0003,10.9996 L2.0003,12.9996 L7.0003,12.9996 L7.0003,16.9996 L2.0003,16.9996 L2.0003,18.9996 L7.0003,18.9996 L7.0003,22.9996 L2.0003,22.9996 L2.0003,24.9996 L7.0003,24.9996 L7.0003,28.9996 L2.0003,28.9996 L2.0003,30.9996 L7.0003,30.9996 L7.0003,34.9996 L2.0003,34.9996 L2.0003,36.9996 L7.0003,36.9996 L7.0003,39.9996 C7.0003,40.5526 7.4473,40.9996 8.0003,40.9996 L11.0003,40.9996 L11.0003,45.9996 L13.0003,45.9996 L13.0003,40.9996 L17.0003,40.9996 L17.0003,45.9996 L19.0003,45.9996 L19.0003,40.9996 L23.0003,40.9996 L23.0003,45.9996 L25.0003,45.9996 L25.0003,40.9996 L29.0003,40.9996 L29.0003,45.9996 L31.0003,45.9996 L31.0003,40.9996 L35.0003,40.9996 L35.0003,45.9996 L37.0003,45.9996 L37.0003,40.9996 L40.0003,40.9996 C40.5523,40.9996 41.0003,40.5526 41.0003,39.9996 L41.0003,36.9996 L46.0003,36.9996 L46.0003,34.9996 L41.0003,34.9996 L41.0003,30.9996 L46.0003,30.9996 L46.0003,28.9996 L41.0003,28.9996 L41.0003,24.9996 L46.0003,24.9996 L46.0003,22.9996 L41.0003,22.9996 L41.0003,18.9996 L46.0003,18.9996 L46.0003,16.9996 L41.0003,16.9996 L41.0003,12.9996 L46.0003,12.9996 Z" id="Amazon-EC2-C6g-Instance_Resource-Icon_light-bg" fill="#D45B07"></path>
    </g>
</svg>