<?xml version="1.0" encoding="UTF-8"?>
<svg width="48px" height="48px" viewBox="0 0 48 48" version="1.1" xmlns="http://www.w3.org/2000/svg" xmlns:xlink="http://www.w3.org/1999/xlink">
    <title>Icon-Resource/Compute/Res_Amazon-EC2_C6a-Instance_48_Light</title>
    <g id="Icon-Resource/Compute/Res_Amazon-EC2_C6a-Instance_48" stroke="none" stroke-width="1" fill="none" fill-rule="evenodd">
        <path d="M9,39 L39,39 L39,9 L9,9 L9,39 Z M41,13 L41,17 L46,17 L46,19 L41,19 L41,23 L46,23 L46,25 L41,25 L41,29 L46,29 L46,31 L41,31 L41,35 L46,35 L46,37 L41,37 L41,40 C41,40.552 40.552,41 40,41 L37,41 L37,46 L35,46 L35,41 L31,41 L31,46 L29,46 L29,41 L25,41 L25,46 L23,46 L23,41 L19,41 L19,46 L17,46 L17,41 L13,41 L13,46 L11,46 L11,41 L8,41 C7.448,41 7,40.552 7,40 L7,37 L2,37 L2,35 L7,35 L7,31 L2,31 L2,29 L7,29 L7,25 L2,25 L2,23 L7,23 L7,19 L2,19 L2,17 L7,17 L7,13 L2,13 L2,11 L7,11 L7,8 C7,7.448 7.448,7 8,7 L11,7 L11,2 L13,2 L13,7 L17,7 L17,2 L19,2 L19,7 L23,7 L23,2 L25,2 L25,7 L29,7 L29,2 L31,2 L31,7 L35,7 L35,2 L37,2 L37,7 L40,7 C40.552,7 41,7.448 41,8 L41,11 L46,11 L46,13 L41,13 Z M33.161,25.747 C32.679,25.645 32.251,25.593 31.878,25.593 C30.932,25.593 30.459,25.971 30.459,26.727 C30.459,27.054 30.55,27.308 30.732,27.49 C30.914,27.672 31.164,27.763 31.483,27.763 C31.747,27.763 32.024,27.705 32.315,27.588 C32.606,27.471 32.888,27.306 33.161,27.091 L33.161,25.747 Z M33.161,24.767 L33.161,23.941 C33.161,23.465 33.059,23.134 32.853,22.947 C32.648,22.76 32.289,22.667 31.775,22.667 C31.047,22.667 30.212,22.821 29.269,23.129 L29.269,21.967 C29.621,21.79 30.051,21.65 30.559,21.547 C31.067,21.444 31.578,21.393 32.091,21.393 C33.022,21.393 33.708,21.58 34.15,21.953 C34.592,22.326 34.813,22.91 34.813,23.703 L34.813,28.729 L33.371,28.729 L33.245,28.043 C32.918,28.323 32.557,28.542 32.16,28.701 C31.763,28.859 31.369,28.939 30.977,28.939 C30.324,28.939 29.794,28.743 29.388,28.351 C28.982,27.959 28.779,27.45 28.779,26.825 C28.779,26.134 29.029,25.584 29.528,25.173 C30.027,24.762 30.697,24.557 31.537,24.557 C32.032,24.557 32.573,24.627 33.161,24.767 L33.161,24.767 Z M22.661,24.627 C22.725,26.615 23.372,27.609 24.603,27.609 C25.104,27.609 25.497,27.455 25.779,27.147 C26.062,26.839 26.203,26.41 26.203,25.859 C26.203,25.299 26.057,24.872 25.765,24.578 C25.474,24.284 25.049,24.137 24.493,24.137 C23.892,24.137 23.281,24.3 22.661,24.627 L22.661,24.627 Z M21.856,27.749 C21.263,26.956 20.967,25.784 20.967,24.235 C20.967,22.518 21.319,21.183 22.024,20.231 C22.729,19.279 23.72,18.803 24.999,18.803 C25.4,18.803 25.804,18.847 26.21,18.936 C26.616,19.025 26.963,19.144 27.253,19.293 L27.253,20.511 C26.967,20.399 26.637,20.308 26.264,20.238 C25.89,20.168 25.547,20.133 25.233,20.133 C24.395,20.133 23.768,20.413 23.353,20.973 C22.937,21.533 22.707,22.396 22.661,23.563 C23.399,23.087 24.185,22.849 25.016,22.849 C25.884,22.849 26.581,23.113 27.107,23.64 C27.634,24.167 27.897,24.87 27.897,25.747 C27.897,26.363 27.759,26.912 27.484,27.392 C27.208,27.873 26.812,28.251 26.294,28.526 C25.776,28.801 25.171,28.939 24.481,28.939 C23.324,28.939 22.449,28.542 21.856,27.749 L21.856,27.749 Z M14.086,27.665 C13.297,26.844 12.903,25.63 12.903,24.025 C12.903,22.373 13.312,21.102 14.128,20.21 C14.945,19.319 16.119,18.873 17.649,18.873 C18.489,18.873 19.264,18.999 19.973,19.251 L19.973,20.651 C19.042,20.455 18.313,20.357 17.786,20.357 C16.723,20.357 15.933,20.632 15.416,21.183 C14.898,21.734 14.639,22.583 14.639,23.731 L14.639,24.067 C14.639,25.206 14.896,26.048 15.408,26.594 C15.921,27.14 16.704,27.413 17.757,27.413 C18.35,27.413 19.135,27.296 20.113,27.063 L20.113,28.463 C19.376,28.752 18.536,28.897 17.593,28.897 C16.044,28.897 14.875,28.486 14.086,27.665 L14.086,27.665 Z" id="Fill-1" fill="#D45B07"></path>
    </g>
</svg>