<?xml version="1.0" encoding="UTF-8"?>
<svg width="48px" height="48px" viewBox="0 0 48 48" version="1.1" xmlns="http://www.w3.org/2000/svg" xmlns:xlink="http://www.w3.org/1999/xlink">
    <title>Icon-Resource/Compute/Res_Amazon-EC2_C4-Instance_48_Light</title>
    <g id="Icon-Resource/Compute/Res_Amazon-EC2_C4-Instance_48" stroke="none" stroke-width="1" fill="none" fill-rule="evenodd">
        <path d="M25.91,25.531 L28.836,21.26 L28.836,25.531 L25.91,25.531 Z M28.836,28.863 L30.502,28.863 L30.502,26.846 L31.805,26.846 L31.805,25.531 L30.502,25.531 L30.502,19.161 L28.767,19.161 L24.244,25.6 L24.244,26.846 L28.836,26.846 L28.836,28.863 Z M17.379,27.799 C16.59,26.977 16.195,25.764 16.195,24.159 C16.195,22.507 16.603,21.235 17.42,20.344 C18.236,19.453 19.41,19.007 20.941,19.007 C21.781,19.007 22.556,19.133 23.265,19.385 L23.265,20.785 C22.334,20.589 21.605,20.491 21.078,20.491 C20.015,20.491 19.224,20.766 18.707,21.317 C18.189,21.868 17.931,22.717 17.931,23.865 L17.931,24.201 C17.931,25.34 18.187,26.181 18.699,26.728 C19.213,27.274 19.996,27.547 21.049,27.547 C21.642,27.547 22.428,27.43 23.406,27.197 L23.406,28.596 C22.668,28.885 21.828,29.031 20.885,29.031 C19.336,29.031 18.166,28.62 17.379,27.799 L17.379,27.799 Z M9,39 L39,39 L39,9 L9,9 L9,39 Z M46,13 L46,11 L41,11 L41,8 C41,7.447 40.553,7 40,7 L37,7 L37,2 L35,2 L35,7 L31,7 L31,2 L29,2 L29,7 L25,7 L25,2 L23,2 L23,7 L19,7 L19,2 L17,2 L17,7 L13,7 L13,2 L11,2 L11,7 L8,7 C7.447,7 7,7.447 7,8 L7,11 L2,11 L2,13 L7,13 L7,17 L2,17 L2,19 L7,19 L7,23 L2,23 L2,25 L7,25 L7,29 L2,29 L2,31 L7,31 L7,35 L2,35 L2,37 L7,37 L7,40 C7,40.552 7.447,41 8,41 L11,41 L11,46 L13,46 L13,41 L17,41 L17,46 L19,46 L19,41 L23,41 L23,46 L25,46 L25,41 L29,41 L29,46 L31,46 L31,41 L35,41 L35,46 L37,46 L37,41 L40,41 C40.553,41 41,40.552 41,40 L41,37 L46,37 L46,35 L41,35 L41,31 L46,31 L46,29 L41,29 L41,25 L46,25 L46,23 L41,23 L41,19 L46,19 L46,17 L41,17 L41,13 L46,13 Z" id="Amazon-EC2-C4-Instance_Resource-Icon_light-bg" fill="#D45B07"></path>
    </g>
</svg>