<?xml version="1.0" encoding="UTF-8"?>
<svg width="48px" height="48px" viewBox="0 0 48 48" version="1.1" xmlns="http://www.w3.org/2000/svg" xmlns:xlink="http://www.w3.org/1999/xlink">
    <title>Icon-Resource/Compute/Res_Amazon-EC2_C7g-Instance_48_Light</title>
    <g id="Icon-Resource/Compute/Res_Amazon-EC2_C7g-Instance_48" stroke="none" stroke-width="1" fill="none" fill-rule="evenodd">
        <path d="M9,39 L39,39 L39,9 L9,9 L9,39 Z M41,13 L41,17 L46,17 L46,19 L41,19 L41,23 L46,23 L46,25 L41,25 L41,29 L46,29 L46,31 L41,31 L41,35 L46,35 L46,37 L41,37 L41,40 C41,40.552 40.552,41 40,41 L37,41 L37,46 L35,46 L35,41 L31,41 L31,46 L29,46 L29,41 L25,41 L25,46 L23,46 L23,41 L19,41 L19,46 L17,46 L17,41 L13,41 L13,46 L11,46 L11,41 L8,41 C7.448,41 7,40.552 7,40 L7,37 L2,37 L2,35 L7,35 L7,31 L2,31 L2,29 L7,29 L7,25 L2,25 L2,23 L7,23 L7,19 L2,19 L2,17 L7,17 L7,13 L2,13 L2,11 L7,11 L7,8 C7,7.448 7.448,7 8,7 L11,7 L11,2 L13,2 L13,7 L17,7 L17,2 L19,2 L19,7 L23,7 L23,2 L25,2 L25,7 L29,7 L29,2 L31,2 L31,7 L35,7 L35,2 L37,2 L37,7 L40,7 C40.552,7 41,7.448 41,8 L41,11 L46,11 L46,13 L41,13 Z M30.18,24.964 C30.18,26.532 30.735,27.316 31.846,27.316 C32.396,27.316 32.918,27.134 33.414,26.77 L33.414,23.186 C32.928,22.85 32.41,22.682 31.859,22.682 C31.29,22.682 30.868,22.869 30.592,23.242 C30.317,23.615 30.18,24.189 30.18,24.964 L30.18,24.964 Z M29.276,27.617 C28.758,26.968 28.5,26.103 28.5,25.02 C28.5,24.311 28.616,23.683 28.85,23.137 C29.083,22.591 29.418,22.164 29.857,21.856 C30.296,21.548 30.814,21.394 31.412,21.394 C32.224,21.394 32.928,21.679 33.525,22.248 L33.666,21.604 L35.065,21.604 L35.065,28.24 C35.065,29.369 34.758,30.242 34.144,30.858 C33.53,31.474 32.655,31.782 31.521,31.782 C30.658,31.782 29.842,31.59 29.073,31.208 L29.073,30.032 C29.941,30.321 30.721,30.466 31.412,30.466 C32.111,30.466 32.62,30.305 32.937,29.983 C33.255,29.661 33.414,29.136 33.414,28.408 L33.414,27.806 C32.807,28.329 32.121,28.59 31.355,28.59 C30.487,28.59 29.794,28.266 29.276,27.617 L29.276,27.617 Z M21.891,28.73 L23.627,28.73 L27.309,20.302 L27.309,19.028 L20.589,19.028 L20.589,20.358 L25.643,20.358 L21.891,28.73 Z M13.723,27.666 C12.934,26.845 12.54,25.631 12.54,24.026 C12.54,22.374 12.948,21.103 13.765,20.211 C14.581,19.32 15.755,18.874 17.286,18.874 C18.125,18.874 18.9,19 19.609,19.252 L19.609,20.652 C18.678,20.456 17.949,20.358 17.422,20.358 C16.359,20.358 15.569,20.633 15.052,21.184 C14.534,21.735 14.275,22.584 14.275,23.732 L14.275,24.068 C14.275,25.207 14.532,26.049 15.044,26.595 C15.557,27.141 16.34,27.414 17.394,27.414 C17.986,27.414 18.771,27.297 19.75,27.064 L19.75,28.464 C19.012,28.753 18.172,28.898 17.229,28.898 C15.68,28.898 14.511,28.487 13.723,27.666 L13.723,27.666 Z" id="Fill-1" fill="#D45B07"></path>
    </g>
</svg>