<?xml version="1.0" encoding="UTF-8"?>
<svg width="48px" height="48px" viewBox="0 0 48 48" version="1.1" xmlns="http://www.w3.org/2000/svg" xmlns:xlink="http://www.w3.org/1999/xlink">
    <title>Icon-Resource/Compute/Res_Amazon-EC2_C5ad_48_Light</title>
    <g id="Icon-Resource/Compute/Res_Amazon-EC2_C5ad_48" stroke="none" stroke-width="1" fill="none" fill-rule="evenodd">
        <path d="M9,39 L39,39 L39,9 L9,9 L9,39 Z M41,13 L41,17 L46,17 L46,19 L41,19 L41,23 L46,23 L46,25 L41,25 L41,29 L46,29 L46,31 L41,31 L41,35 L46,35 L46,37 L41,37 L41,40 C41,40.552 40.552,41 40,41 L37,41 L37,46 L35,46 L35,41 L31,41 L31,46 L29,46 L29,41 L25,41 L25,46 L23,46 L23,41 L19,41 L19,46 L17,46 L17,41 L13,41 L13,46 L11,46 L11,41 L8,41 C7.448,41 7,40.552 7,40 L7,37 L2,37 L2,35 L7,35 L7,31 L2,31 L2,29 L7,29 L7,25 L2,25 L2,23 L7,23 L7,19 L2,19 L2,17 L7,17 L7,13 L2,13 L2,11 L7,11 L7,8 C7,7.448 7.448,7 8,7 L11,7 L11,2 L13,2 L13,7 L17,7 L17,2 L19,2 L19,7 L23,7 L23,2 L25,2 L25,7 L29,7 L29,2 L31,2 L31,7 L35,7 L35,2 L37,2 L37,7 L40,7 C40.552,7 41,7.448 41,8 L41,11 L46,11 L46,13 L41,13 Z M32.28,24.633 C32.28,26.041 32.792,26.745 33.816,26.745 C34.288,26.745 34.748,26.593 35.196,26.289 L35.196,22.989 C34.788,22.701 34.336,22.557 33.84,22.557 C33.304,22.557 32.91,22.727 32.658,23.067 C32.406,23.407 32.28,23.929 32.28,24.633 L32.28,24.633 Z M31.53,27.003 C31.07,26.431 30.84,25.661 30.84,24.693 C30.84,24.053 30.944,23.489 31.152,23.001 C31.36,22.513 31.66,22.131 32.052,21.855 C32.444,21.579 32.908,21.441 33.444,21.441 C34.084,21.441 34.668,21.649 35.196,22.065 L35.196,18.849 L36.612,18.849 L36.612,27.729 L35.4,27.729 L35.256,27.141 C34.712,27.621 34.084,27.861 33.372,27.861 C32.604,27.861 31.99,27.575 31.53,27.003 L31.53,27.003 Z M28.368,25.173 C27.955,25.085 27.588,25.041 27.269,25.041 C26.458,25.041 26.052,25.365 26.052,26.013 C26.052,26.293 26.13,26.511 26.286,26.667 C26.442,26.823 26.657,26.901 26.93,26.901 C27.156,26.901 27.394,26.851 27.643,26.751 C27.893,26.651 28.134,26.509 28.368,26.325 L28.368,25.173 Z M28.368,24.333 L28.368,23.625 C28.368,23.217 28.28,22.933 28.104,22.773 C27.928,22.613 27.62,22.533 27.18,22.533 C26.556,22.533 25.84,22.665 25.032,22.929 L25.032,21.933 C25.333,21.781 25.702,21.661 26.138,21.573 C26.574,21.485 27.011,21.441 27.451,21.441 C28.249,21.441 28.837,21.601 29.216,21.921 C29.595,22.241 29.784,22.741 29.784,23.421 L29.784,27.729 L28.548,27.729 L28.44,27.141 C28.16,27.381 27.85,27.569 27.51,27.705 C27.17,27.841 26.833,27.909 26.496,27.909 C25.936,27.909 25.482,27.741 25.134,27.405 C24.786,27.069 24.612,26.633 24.612,26.097 C24.612,25.505 24.826,25.033 25.254,24.681 C25.682,24.329 26.256,24.153 26.977,24.153 C27.4,24.153 27.864,24.213 28.368,24.333 L28.368,24.333 Z M22.74,27.171 C23.316,26.679 23.604,26.017 23.604,25.185 C23.604,24.409 23.366,23.797 22.889,23.349 C22.412,22.901 21.758,22.677 20.926,22.677 C20.56,22.677 20.212,22.709 19.884,22.773 L20.021,20.553 L23.196,20.553 L23.196,19.413 L18.685,19.413 L18.457,22.989 L18.457,23.901 C19.187,23.821 19.795,23.781 20.281,23.781 C20.932,23.781 21.407,23.895 21.705,24.123 C22.003,24.351 22.152,24.713 22.152,25.209 C22.152,26.233 21.56,26.745 20.375,26.745 C19.738,26.745 18.983,26.597 18.108,26.301 L18.108,27.429 C18.844,27.749 19.612,27.909 20.412,27.909 C21.388,27.909 22.165,27.663 22.74,27.171 L22.74,27.171 Z M12.019,26.817 C11.342,26.113 11.004,25.073 11.004,23.697 C11.004,22.281 11.354,21.191 12.054,20.427 C12.754,19.663 13.76,19.281 15.072,19.281 C15.792,19.281 16.457,19.389 17.064,19.605 L17.064,20.805 C16.266,20.637 15.641,20.553 15.189,20.553 C14.278,20.553 13.601,20.789 13.158,21.261 C12.714,21.733 12.492,22.461 12.492,23.445 L12.492,23.733 C12.492,24.709 12.712,25.431 13.151,25.899 C13.591,26.367 14.262,26.601 15.165,26.601 C15.673,26.601 16.346,26.501 17.185,26.301 L17.185,27.501 C16.552,27.749 15.833,27.873 15.024,27.873 C13.696,27.873 12.694,27.521 12.019,26.817 L12.019,26.817 Z" id="Fill-1" fill="#D45B07"></path>
    </g>
</svg>