<?xml version="1.0" encoding="UTF-8"?>
<svg width="48px" height="48px" viewBox="0 0 48 48" version="1.1" xmlns="http://www.w3.org/2000/svg" xmlns:xlink="http://www.w3.org/1999/xlink">
    <title>Icon-Resource/Compute/Res_Amazon-EC2_C5a_48_Light</title>
    <g id="Icon-Resource/Compute/Res_Amazon-EC2_C5a_48" stroke="none" stroke-width="1" fill="none" fill-rule="evenodd">
        <path d="M9,39 L39,39 L39,9 L9,9 L9,39 Z M41,13 L41,17 L46,17 L46,19 L41,19 L41,23 L46,23 L46,25 L41,25 L41,29 L46,29 L46,31 L41,31 L41,35 L46,35 L46,37 L41,37 L41,40 C41,40.552 40.552,41 40,41 L37,41 L37,46 L35,46 L35,41 L31,41 L31,46 L29,46 L29,41 L25,41 L25,46 L23,46 L23,41 L19,41 L19,46 L17,46 L17,41 L13,41 L13,46 L11,46 L11,41 L8,41 C7.448,41 7,40.552 7,40 L7,37 L2,37 L2,35 L7,35 L7,31 L2,31 L2,29 L7,29 L7,25 L2,25 L2,23 L7,23 L7,19 L2,19 L2,17 L7,17 L7,13 L2,13 L2,11 L7,11 L7,8 C7,7.448 7.448,7 8,7 L11,7 L11,2 L13,2 L13,7 L17,7 L17,2 L19,2 L19,7 L23,7 L23,2 L25,2 L25,7 L29,7 L29,2 L31,2 L31,7 L35,7 L35,2 L37,2 L37,7 L40,7 C40.552,7 41,7.448 41,8 L41,11 L46,11 L46,13 L41,13 Z M33.161,24.747 C32.679,24.645 32.251,24.593 31.878,24.593 C30.932,24.593 30.459,24.971 30.459,25.727 C30.459,26.054 30.55,26.308 30.732,26.49 C30.914,26.672 31.164,26.763 31.483,26.763 C31.747,26.763 32.024,26.705 32.315,26.588 C32.606,26.471 32.888,26.306 33.161,26.091 L33.161,24.747 Z M33.161,23.767 L33.161,22.941 C33.161,22.465 33.059,22.134 32.853,21.947 C32.648,21.76 32.289,21.667 31.775,21.667 C31.047,21.667 30.212,21.821 29.269,22.129 L29.269,20.967 C29.621,20.79 30.051,20.65 30.559,20.547 C31.067,20.444 31.578,20.393 32.091,20.393 C33.022,20.393 33.708,20.58 34.15,20.953 C34.592,21.326 34.813,21.91 34.813,22.703 L34.813,27.729 L33.371,27.729 L33.245,27.043 C32.918,27.323 32.557,27.542 32.16,27.701 C31.763,27.859 31.369,27.939 30.977,27.939 C30.324,27.939 29.794,27.743 29.388,27.351 C28.982,26.959 28.779,26.45 28.779,25.825 C28.779,25.134 29.029,24.584 29.528,24.173 C30.027,23.762 30.697,23.557 31.537,23.557 C32.032,23.557 32.573,23.627 33.161,23.767 L33.161,23.767 Z M26.595,27.078 C27.267,26.504 27.603,25.732 27.603,24.761 C27.603,23.856 27.325,23.142 26.768,22.619 C26.212,22.096 25.448,21.835 24.478,21.835 C24.051,21.835 23.646,21.873 23.263,21.947 L23.422,19.357 L27.127,19.357 L27.127,18.027 L21.863,18.027 L21.597,22.199 L21.597,23.263 C22.45,23.17 23.16,23.123 23.725,23.123 C24.485,23.123 25.04,23.256 25.387,23.522 C25.735,23.788 25.909,24.21 25.909,24.789 C25.909,25.984 25.218,26.581 23.835,26.581 C23.093,26.581 22.211,26.408 21.191,26.063 L21.191,27.379 C22.049,27.752 22.945,27.939 23.879,27.939 C25.018,27.939 25.923,27.652 26.595,27.078 L26.595,27.078 Z M14.086,26.665 C13.297,25.844 12.903,24.63 12.903,23.025 C12.903,21.373 13.312,20.102 14.128,19.21 C14.945,18.319 16.119,17.873 17.649,17.873 C18.489,17.873 19.264,17.999 19.973,18.251 L19.973,19.651 C19.042,19.455 18.313,19.357 17.786,19.357 C16.723,19.357 15.933,19.632 15.416,20.183 C14.898,20.734 14.639,21.583 14.639,22.731 L14.639,23.067 C14.639,24.206 14.896,25.048 15.408,25.594 C15.921,26.14 16.704,26.413 17.757,26.413 C18.35,26.413 19.135,26.296 20.113,26.063 L20.113,27.463 C19.376,27.752 18.536,27.897 17.593,27.897 C16.044,27.897 14.875,27.486 14.086,26.665 L14.086,26.665 Z" id="Fill-1" fill="#D45B07"></path>
    </g>
</svg>