<?xml version="1.0" encoding="UTF-8"?>
<svg width="48px" height="48px" viewBox="0 0 48 48" version="1.1" xmlns="http://www.w3.org/2000/svg" xmlns:xlink="http://www.w3.org/1999/xlink">
    <title>Icon-Resource/Compute/Res_Amazon-EC2_C6gd_48_Light</title>
    <g id="Icon-Resource/Compute/Res_Amazon-EC2_C6gd_48" stroke="none" stroke-width="1" fill="none" fill-rule="evenodd">
        <path d="M9,39 L39,39 L39,9 L9,9 L9,39 Z M41,13 L41,17 L46,17 L46,19 L41,19 L41,23 L46,23 L46,25 L41,25 L41,29 L46,29 L46,31 L41,31 L41,35 L46,35 L46,37 L41,37 L41,40 C41,40.552 40.552,41 40,41 L37,41 L37,46 L35,46 L35,41 L31,41 L31,46 L29,46 L29,41 L25,41 L25,46 L23,46 L23,41 L19,41 L19,46 L17,46 L17,41 L13,41 L13,46 L11,46 L11,41 L8,41 C7.448,41 7,40.552 7,40 L7,37 L2,37 L2,35 L7,35 L7,31 L2,31 L2,29 L7,29 L7,25 L2,25 L2,23 L7,23 L7,19 L2,19 L2,17 L7,17 L7,13 L2,13 L2,11 L7,11 L7,8 C7,7.448 7.448,7 8,7 L11,7 L11,2 L13,2 L13,7 L17,7 L17,2 L19,2 L19,7 L23,7 L23,2 L25,2 L25,7 L29,7 L29,2 L31,2 L31,7 L35,7 L35,2 L37,2 L37,7 L40,7 C40.552,7 41,7.448 41,8 L41,11 L46,11 L46,13 L41,13 Z M32.502,24.633 C32.502,26.041 33.014,26.745 34.038,26.745 C34.51,26.745 34.97,26.593 35.418,26.289 L35.418,22.989 C35.01,22.701 34.558,22.557 34.062,22.557 C33.526,22.557 33.132,22.727 32.88,23.067 C32.628,23.407 32.502,23.929 32.502,24.633 L32.502,24.633 Z M31.752,27.003 C31.292,26.431 31.062,25.661 31.062,24.693 C31.062,24.053 31.166,23.489 31.374,23.001 C31.582,22.513 31.882,22.131 32.274,21.855 C32.666,21.579 33.13,21.441 33.666,21.441 C34.306,21.441 34.89,21.649 35.418,22.065 L35.418,18.849 L36.834,18.849 L36.834,27.729 L35.622,27.729 L35.478,27.141 C34.934,27.621 34.306,27.861 33.594,27.861 C32.826,27.861 32.212,27.575 31.752,27.003 L31.752,27.003 Z M25.782,24.501 C25.782,25.845 26.258,26.517 27.21,26.517 C27.682,26.517 28.13,26.361 28.554,26.049 L28.554,22.977 C28.138,22.689 27.694,22.545 27.222,22.545 C26.734,22.545 26.372,22.705 26.136,23.025 C25.9,23.345 25.782,23.837 25.782,24.501 L25.782,24.501 Z M25.008,26.775 C24.564,26.219 24.342,25.477 24.342,24.549 C24.342,23.941 24.442,23.403 24.642,22.935 C24.842,22.467 25.13,22.101 25.506,21.837 C25.882,21.573 26.326,21.441 26.838,21.441 C27.534,21.441 28.138,21.685 28.65,22.173 L28.77,21.621 L29.97,21.621 L29.97,27.309 C29.97,28.277 29.707,29.025 29.18,29.553 C28.654,30.081 27.904,30.345 26.932,30.345 C26.192,30.345 25.493,30.181 24.834,29.853 L24.834,28.845 C25.578,29.093 26.246,29.217 26.838,29.217 C27.438,29.217 27.874,29.079 28.146,28.803 C28.418,28.527 28.554,28.077 28.554,27.453 L28.554,26.937 C28.034,27.385 27.446,27.609 26.79,27.609 C26.046,27.609 25.452,27.331 25.008,26.775 L25.008,26.775 Z M19.086,24.213 C19.141,25.917 19.696,26.769 20.75,26.769 C21.18,26.769 21.517,26.637 21.759,26.373 C22.001,26.109 22.122,25.741 22.122,25.269 C22.122,24.789 21.997,24.423 21.747,24.171 C21.497,23.919 21.133,23.793 20.657,23.793 C20.141,23.793 19.618,23.933 19.086,24.213 L19.086,24.213 Z M18.396,26.889 C17.888,26.209 17.634,25.205 17.634,23.877 C17.634,22.405 17.936,21.261 18.54,20.445 C19.144,19.629 19.994,19.221 21.09,19.221 C21.434,19.221 21.78,19.259 22.128,19.335 C22.476,19.411 22.774,19.513 23.022,19.641 L23.022,20.685 C22.777,20.589 22.495,20.511 22.174,20.451 C21.854,20.391 21.56,20.361 21.292,20.361 C20.572,20.361 20.035,20.601 19.679,21.081 C19.323,21.561 19.125,22.301 19.086,23.301 C19.719,22.893 20.392,22.689 21.104,22.689 C21.849,22.689 22.446,22.915 22.897,23.367 C23.348,23.819 23.574,24.421 23.574,25.173 C23.574,25.701 23.456,26.171 23.22,26.583 C22.984,26.995 22.644,27.319 22.2,27.555 C21.756,27.791 21.238,27.909 20.646,27.909 C19.654,27.909 18.904,27.569 18.396,26.889 L18.396,26.889 Z M11.796,26.817 C11.12,26.113 10.782,25.073 10.782,23.697 C10.782,22.281 11.132,21.191 11.832,20.427 C12.532,19.663 13.538,19.281 14.85,19.281 C15.57,19.281 16.234,19.389 16.842,19.605 L16.842,20.805 C16.044,20.637 15.419,20.553 14.967,20.553 C14.056,20.553 13.379,20.789 12.936,21.261 C12.492,21.733 12.27,22.461 12.27,23.445 L12.27,23.733 C12.27,24.709 12.49,25.431 12.929,25.899 C13.369,26.367 14.04,26.601 14.943,26.601 C15.451,26.601 16.124,26.501 16.962,26.301 L16.962,27.501 C16.33,27.749 15.61,27.873 14.802,27.873 C13.474,27.873 12.472,27.521 11.796,26.817 L11.796,26.817 Z" id="Fill-1" fill="#D45B07"></path>
    </g>
</svg>