<?xml version="1.0" encoding="UTF-8"?>
<svg width="48px" height="48px" viewBox="0 0 48 48" version="1.1" xmlns="http://www.w3.org/2000/svg" xmlns:xlink="http://www.w3.org/1999/xlink">
    <title>Icon-Resource/Compute/Res_Amazon-EC2_C6gn-Instance_48_Light</title>
    <g id="Icon-Resource/Compute/Res_Amazon-EC2_C6gn-Instance_48" stroke="none" stroke-width="1" fill="none" fill-rule="evenodd">
        <path d="M9,39 L39,39 L39,9 L9,9 L9,39 Z M41,13 L41,17 L46,17 L46,19 L41,19 L41,23 L46,23 L46,25 L41,25 L41,29 L46,29 L46,31 L41,31 L41,35 L46,35 L46,37 L41,37 L41,40 C41,40.552 40.552,41 40,41 L37,41 L37,46 L35,46 L35,41 L31,41 L31,46 L29,46 L29,41 L25,41 L25,46 L23,46 L23,41 L19,41 L19,46 L17,46 L17,41 L13,41 L13,46 L11,46 L11,41 L8,41 C7.448,41 7,40.552 7,40 L7,37 L2,37 L2,35 L7,35 L7,31 L2,31 L2,29 L7,29 L7,25 L2,25 L2,23 L7,23 L7,19 L2,19 L2,17 L7,17 L7,13 L2,13 L2,11 L7,11 L7,8 C7,7.448 7.448,7 8,7 L11,7 L11,2 L13,2 L13,7 L17,7 L17,2 L19,2 L19,7 L23,7 L23,2 L25,2 L25,7 L29,7 L29,2 L31,2 L31,7 L35,7 L35,2 L37,2 L37,7 L40,7 C40.552,7 41,7.448 41,8 L41,11 L46,11 L46,13 L41,13 Z M32.898,23.084 C33.45,22.732 33.99,22.556 34.518,22.556 C34.87,22.556 35.126,22.646 35.286,22.826 C35.446,23.006 35.526,23.292 35.526,23.684 L35.526,27.728 L36.942,27.728 L36.942,23.24 C36.942,22.656 36.79,22.21 36.486,21.902 C36.182,21.594 35.738,21.44 35.154,21.44 C34.338,21.44 33.554,21.724 32.802,22.292 L32.658,21.62 L31.482,21.62 L31.482,27.728 L32.898,27.728 L32.898,23.084 Z M25.831,24.5 C25.831,25.844 26.306,26.516 27.258,26.516 C27.73,26.516 28.178,26.36 28.603,26.048 L28.603,22.976 C28.187,22.688 27.742,22.544 27.271,22.544 C26.782,22.544 26.42,22.704 26.185,23.024 C25.948,23.344 25.831,23.836 25.831,24.5 L25.831,24.5 Z M25.056,26.774 C24.612,26.218 24.39,25.476 24.39,24.548 C24.39,23.94 24.49,23.402 24.69,22.934 C24.89,22.466 25.178,22.1 25.554,21.836 C25.93,21.572 26.375,21.44 26.886,21.44 C27.583,21.44 28.187,21.684 28.698,22.172 L28.818,21.62 L30.019,21.62 L30.019,27.308 C30.019,28.276 29.755,29.024 29.229,29.552 C28.702,30.08 27.953,30.344 26.98,30.344 C26.241,30.344 25.542,30.18 24.882,29.852 L24.882,28.844 C25.626,29.092 26.294,29.216 26.886,29.216 C27.486,29.216 27.922,29.078 28.194,28.802 C28.466,28.526 28.603,28.076 28.603,27.452 L28.603,26.936 C28.082,27.384 27.494,27.608 26.838,27.608 C26.094,27.608 25.5,27.33 25.056,26.774 L25.056,26.774 Z M19.074,24.212 C19.129,25.916 19.684,26.768 20.739,26.768 C21.168,26.768 21.505,26.636 21.747,26.372 C21.989,26.108 22.11,25.74 22.11,25.268 C22.11,24.788 21.985,24.422 21.735,24.17 C21.485,23.918 21.122,23.792 20.645,23.792 C20.129,23.792 19.606,23.932 19.074,24.212 L19.074,24.212 Z M18.384,26.888 C17.876,26.208 17.623,25.204 17.623,23.876 C17.623,22.404 17.924,21.26 18.528,20.444 C19.132,19.628 19.982,19.22 21.079,19.22 C21.422,19.22 21.769,19.258 22.116,19.334 C22.464,19.41 22.762,19.512 23.01,19.64 L23.01,20.684 C22.765,20.588 22.483,20.51 22.163,20.45 C21.842,20.39 21.548,20.36 21.28,20.36 C20.561,20.36 20.023,20.6 19.667,21.08 C19.312,21.56 19.114,22.3 19.074,23.3 C19.708,22.892 20.38,22.688 21.093,22.688 C21.837,22.688 22.435,22.914 22.886,23.366 C23.336,23.818 23.562,24.42 23.562,25.172 C23.562,25.7 23.444,26.17 23.208,26.582 C22.972,26.994 22.632,27.319 22.188,27.554 C21.745,27.79 21.227,27.908 20.634,27.908 C19.642,27.908 18.892,27.568 18.384,26.888 L18.384,26.888 Z M11.725,26.816 C11.048,26.112 10.71,25.072 10.71,23.696 C10.71,22.28 11.06,21.19 11.76,20.426 C12.46,19.662 13.466,19.28 14.778,19.28 C15.499,19.28 16.163,19.388 16.771,19.604 L16.771,20.804 C15.972,20.636 15.347,20.552 14.896,20.552 C13.984,20.552 13.307,20.788 12.864,21.26 C12.42,21.732 12.198,22.46 12.198,23.444 L12.198,23.732 C12.198,24.708 12.418,25.43 12.857,25.898 C13.297,26.366 13.968,26.6 14.871,26.6 C15.379,26.6 16.052,26.5 16.891,26.3 L16.891,27.5 C16.258,27.748 15.539,27.872 14.73,27.872 C13.402,27.872 12.4,27.52 11.725,26.816 L11.725,26.816 Z" id="Fill-1" fill="#D45B07"></path>
    </g>
</svg>