<?xml version="1.0" encoding="UTF-8"?>
<svg width="48px" height="48px" viewBox="0 0 48 48" version="1.1" xmlns="http://www.w3.org/2000/svg" xmlns:xlink="http://www.w3.org/1999/xlink">
    <title>Icon-Resource/Compute/Res_Amazon-EC2_C6i-Instance_48_Light</title>
    <g id="Icon-Resource/Compute/Res_Amazon-EC2_C6i-Instance_48" stroke="none" stroke-width="1" fill="none" fill-rule="evenodd">
        <path d="M9,39 L39,39 L39,9 L9,9 L9,39 Z M41,13 L41,17 L46,17 L46,19 L41,19 L41,23 L46,23 L46,25 L41,25 L41,29 L46,29 L46,31 L41,31 L41,35 L46,35 L46,37 L41,37 L41,40 C41,40.552 40.552,41 40,41 L37,41 L37,46 L35,46 L35,41 L31,41 L31,46 L29,46 L29,41 L25,41 L25,46 L23,46 L23,41 L19,41 L19,46 L17,46 L17,41 L13,41 L13,46 L11,46 L11,41 L8,41 C7.448,41 7,40.552 7,40 L7,37 L2,37 L2,35 L7,35 L7,31 L2,31 L2,29 L7,29 L7,25 L2,25 L2,23 L7,23 L7,19 L2,19 L2,17 L7,17 L7,13 L2,13 L2,11 L7,11 L7,8 C7,7.448 7.448,7 8,7 L11,7 L11,2 L13,2 L13,7 L17,7 L17,2 L19,2 L19,7 L23,7 L23,2 L25,2 L25,7 L29,7 L29,2 L31,2 L31,7 L35,7 L35,2 L37,2 L37,7 L40,7 C40.552,7 41,7.448 41,8 L41,11 L46,11 L46,13 L41,13 Z M31.125,28.729 L32.777,28.729 L32.777,21.603 L31.125,21.603 L31.125,28.729 Z M31.951,20.427 C32.259,20.427 32.501,20.343 32.679,20.175 C32.856,20.007 32.944,19.774 32.944,19.475 C32.944,19.176 32.856,18.943 32.679,18.775 C32.501,18.607 32.259,18.523 31.951,18.523 C31.643,18.523 31.4,18.607 31.223,18.775 C31.045,18.943 30.957,19.176 30.957,19.475 C30.957,19.774 31.045,20.007 31.223,20.175 C31.4,20.343 31.643,20.427 31.951,20.427 L31.951,20.427 Z M24.502,24.627 C24.566,26.615 25.213,27.609 26.444,27.609 C26.945,27.609 27.338,27.455 27.62,27.147 C27.903,26.839 28.044,26.41 28.044,25.859 C28.044,25.299 27.898,24.872 27.606,24.578 C27.315,24.284 26.891,24.137 26.334,24.137 C25.733,24.137 25.122,24.3 24.502,24.627 L24.502,24.627 Z M23.697,27.749 C23.104,26.956 22.808,25.784 22.808,24.235 C22.808,22.518 23.161,21.183 23.865,20.231 C24.57,19.279 25.562,18.803 26.84,18.803 C27.241,18.803 27.645,18.847 28.051,18.936 C28.457,19.025 28.805,19.144 29.094,19.293 L29.094,20.511 C28.808,20.399 28.479,20.308 28.105,20.238 C27.731,20.168 27.388,20.133 27.075,20.133 C26.236,20.133 25.609,20.413 25.194,20.973 C24.779,21.533 24.548,22.396 24.502,23.563 C25.241,23.087 26.026,22.849 26.857,22.849 C27.725,22.849 28.422,23.113 28.949,23.64 C29.475,24.167 29.738,24.87 29.738,25.747 C29.738,26.363 29.601,26.912 29.325,27.392 C29.05,27.873 28.653,28.251 28.135,28.526 C27.617,28.801 27.013,28.939 26.322,28.939 C25.165,28.939 24.29,28.542 23.697,27.749 L23.697,27.749 Z M15.928,27.665 C15.139,26.844 14.745,25.63 14.745,24.025 C14.745,22.373 15.153,21.102 15.97,20.21 C16.786,19.319 17.96,18.873 19.491,18.873 C20.331,18.873 21.105,18.999 21.814,19.251 L21.814,20.651 C20.883,20.455 20.154,20.357 19.627,20.357 C18.564,20.357 17.774,20.632 17.257,21.183 C16.739,21.734 16.48,22.583 16.48,23.731 L16.48,24.067 C16.48,25.206 16.737,26.048 17.25,26.594 C17.762,27.14 18.545,27.413 19.599,27.413 C20.191,27.413 20.977,27.296 21.955,27.063 L21.955,28.463 C21.217,28.752 20.377,28.897 19.435,28.897 C17.885,28.897 16.716,28.486 15.928,27.665 L15.928,27.665 Z" id="Fill-1" fill="#D45B07"></path>
    </g>
</svg>