<?xml version="1.0" encoding="UTF-8"?>
<svg width="48px" height="48px" viewBox="0 0 48 48" version="1.1" xmlns="http://www.w3.org/2000/svg" xmlns:xlink="http://www.w3.org/1999/xlink">
    <title>Icon-Resource/Compute/Res_Amazon-EC2_D3-Instance_48_Light</title>
    <g id="Icon-Resource/Compute/Res_Amazon-EC2_D3-Instance_48" stroke="none" stroke-width="1" fill="none" fill-rule="evenodd">
        <path d="M9,39 L39,39 L39,9 L9,9 L9,39 Z M46,13 L46,11 L41,11 L41,8 C41,7.448 40.552,7 40,7 L37,7 L37,2 L35,2 L35,7 L31,7 L31,2 L29,2 L29,7 L25,7 L25,2 L23,2 L23,7 L19,7 L19,2 L17,2 L17,7 L13,7 L13,2 L11,2 L11,7 L8,7 C7.448,7 7,7.448 7,8 L7,11 L2,11 L2,13 L7,13 L7,17 L2,17 L2,19 L7,19 L7,23 L2,23 L2,25 L7,25 L7,29 L2,29 L2,31 L7,31 L7,35 L2,35 L2,37 L7,37 L7,40 C7,40.552 7.448,41 8,41 L11,41 L11,46 L13,46 L13,41 L17,41 L17,46 L19,46 L19,41 L23,41 L23,46 L25,46 L25,41 L29,41 L29,46 L31,46 L31,41 L35,41 L35,46 L37,46 L37,41 L40,41 C40.552,41 41,40.552 41,40 L41,37 L46,37 L46,35 L41,35 L41,31 L46,31 L46,29 L41,29 L41,25 L46,25 L46,23 L41,23 L41,19 L46,19 L46,17 L41,17 L41,13 L46,13 Z M28.002,29.21 C27.106,29.21 26.229,29.023 25.371,28.65 L25.371,27.334 C26.391,27.679 27.249,27.852 27.945,27.852 C28.604,27.852 29.111,27.705 29.469,27.411 C29.826,27.117 30.004,26.699 30.004,26.158 C30.004,25.131 29.356,24.618 28.061,24.618 C27.645,24.618 27.196,24.646 26.714,24.702 L26.714,23.624 L29.473,20.628 L25.51,20.628 L25.51,19.298 L31.292,19.298 L31.292,20.572 L28.38,23.428 C28.509,23.419 28.638,23.414 28.767,23.414 C29.313,23.414 29.806,23.528 30.248,23.757 C30.689,23.986 31.041,24.31 31.304,24.73 C31.567,25.15 31.698,25.631 31.698,26.172 C31.698,26.76 31.549,27.283 31.25,27.74 C30.952,28.197 30.522,28.557 29.962,28.818 C29.402,29.079 28.749,29.21 28.002,29.21 L28.002,29.21 Z M18.006,27.656 L18.006,20.642 L19.42,20.642 C21.353,20.642 22.318,21.757 22.318,23.988 L22.318,24.296 C22.318,26.536 21.353,27.656 19.42,27.656 L18.006,27.656 Z M22.899,27.74 C23.669,26.9 24.054,25.696 24.054,24.128 C24.054,22.569 23.674,21.375 22.914,20.544 C22.152,19.713 21.054,19.298 19.616,19.298 L16.298,19.298 L16.298,29 L19.603,29 C21.03,29 22.129,28.58 22.899,27.74 L22.899,27.74 Z" id="Fill-1" fill="#D45B07"></path>
    </g>
</svg>