<?xml version="1.0" encoding="UTF-8"?>
<svg width="48px" height="48px" viewBox="0 0 48 48" version="1.1" xmlns="http://www.w3.org/2000/svg" xmlns:xlink="http://www.w3.org/1999/xlink">
    <title>Icon-Resource/Compute/Res_Amazon-EC2_DB-Instance_48_Light</title>
    <g id="Icon-Resource/Compute/Res_Amazon-EC2_DB-Instance_48" stroke="none" stroke-width="1" fill="none" fill-rule="evenodd">
        <path d="M43.284,42.092 L43.284,29.848 C41.817,30.552 39.744,30.888 37.751,30.888 C35.393,30.888 33.511,30.558 32.217,29.951 L32.217,42.092 C32.217,42.638 34.24,44.356 37.751,44.356 C41.261,44.356 43.284,42.638 43.284,42.092 M32.217,27.355 C32.217,27.996 34.139,28.888 37.751,28.888 C41.559,28.888 43.284,27.71 43.284,27.353 C43.284,27.027 41.619,26 37.751,26 C34.055,26 32.294,26.97 32.217,27.355 M45.284,27.353 L45.284,42.092 C45.284,44.363 41.763,46.356 37.751,46.356 C33.737,46.356 30.217,44.363 30.217,42.092 L30.217,27.353 C30.217,24.878 34.275,24 37.751,24 C41.392,24 45.284,24.881 45.284,27.353 M27,35 L27,40 L25,40 L25,36 L22,36 L22,40 L20,40 L20,36 L17,36 L17,40 L15,40 L15,36 L12,36 L12,40 L10,40 L10,36 L7,36 C6.447,36 6,35.553 6,35 L6,32 L2,32 L2,30 L6,30 L6,27 L2,27 L2,25 L6,25 L6,22 L2,22 L2,20 L6,20 L6,17 L2,17 L2,15 L6,15 L6,12 L2,12 L2,10 L6,10 L6,7 C6,6.447 6.447,6 7,6 L10,6 L10,2 L12,2 L12,6 L15,6 L15,2 L17,2 L17,6 L20,6 L20,2 L22,2 L22,6 L25,6 L25,2 L27,2 L27,6 L30,6 L30,2 L32,2 L32,6 L35,6 C35.553,6 36,6.447 36,7 L36,10 L40,10 L40,12 L36,12 L36,15 L40,15 L40,17 L36,17 L36,20 L40,20 L40,22 L35,22 C34.447,22 34,21.553 34,21 L34,8 L8,8 L8,34 L26,34 C26.553,34 27,34.447 27,35" id="Amazon-EC2-DB-instance_Resource-Icon_light-bg" fill="#D45B07"></path>
    </g>
</svg>