<?xml version="1.0" encoding="UTF-8"?>
<svg width="48px" height="48px" viewBox="0 0 48 48" version="1.1" xmlns="http://www.w3.org/2000/svg" xmlns:xlink="http://www.w3.org/1999/xlink">
    <title>Icon-Resource/Compute/Res_Icon-Amazon-EC2-Instance_DL1_48_Light</title>
    <g id="Icon-Resource/Compute/Res_Icon-Amazon-EC2-Instance_DL1_48" stroke="none" stroke-width="1" fill="none" fill-rule="evenodd">
        <path d="M9,39 L39,39 L39,9 L9,9 L9,39 Z M46,13 L46,11 L41,11 L41,8 C41,7.448 40.552,7 40,7 L37,7 L37,2 L35,2 L35,7 L31,7 L31,2 L29,2 L29,7 L25,7 L25,2 L23,2 L23,7 L19,7 L19,2 L17,2 L17,7 L13,7 L13,2 L11,2 L11,7 L8,7 C7.448,7 7,7.448 7,8 L7,11 L2,11 L2,13 L7,13 L7,17 L2,17 L2,19 L7,19 L7,23 L2,23 L2,25 L7,25 L7,29 L2,29 L2,31 L7,31 L7,35 L2,35 L2,37 L7,37 L7,40 C7,40.552 7.448,41 8,41 L11,41 L11,46 L13,46 L13,41 L17,41 L17,46 L19,46 L19,41 L23,41 L23,46 L25,46 L25,41 L29,41 L29,46 L31,46 L31,41 L35,41 L35,46 L37,46 L37,41 L40,41 C40.552,41 41,40.552 41,40 L41,37 L46,37 L46,35 L41,35 L41,31 L46,31 L46,29 L41,29 L41,25 L46,25 L46,23 L41,23 L41,19 L46,19 L46,17 L41,17 L41,13 L46,13 Z M31.88,20.95 L29.262,21.93 L29.262,20.586 L32.034,19.298 L33.546,19.298 L33.546,29 L31.88,29 L31.88,20.95 Z M28.45,29 L22.276,29 L22.276,19.298 L23.984,19.298 L23.984,27.6 L28.45,27.6 L28.45,29 Z M14.632,27.656 L14.632,20.642 L16.046,20.642 C17.979,20.642 18.944,21.757 18.944,23.988 L18.944,24.296 C18.944,26.536 17.979,27.656 16.046,27.656 L14.632,27.656 Z M19.525,27.74 C20.295,26.9 20.68,25.696 20.68,24.128 C20.68,22.569 20.3,21.375 19.54,20.544 C18.778,19.713 17.68,19.298 16.242,19.298 L12.924,19.298 L12.924,29 L16.229,29 C17.656,29 18.755,28.58 19.525,27.74 L19.525,27.74 Z" id="Fill-1" fill="#D45B07"></path>
    </g>
</svg>