<?xml version="1.0" encoding="UTF-8"?>
<svg width="48px" height="48px" viewBox="0 0 48 48" version="1.1" xmlns="http://www.w3.org/2000/svg" xmlns:xlink="http://www.w3.org/1999/xlink">
    <title>Icon-Resource/Compute/Res_Amazon-EC2_D2-Instance_48_Light</title>
    <g id="Icon-Resource/Compute/Res_Amazon-EC2_D2-Instance_48" stroke="none" stroke-width="1" fill="none" fill-rule="evenodd">
        <path d="M31.966,28.829 L25.386,28.829 L25.386,27.569 C26.674,26.263 27.621,25.259 28.228,24.559 C28.834,23.858 29.254,23.294 29.487,22.864 C29.721,22.436 29.838,22.038 29.838,21.675 C29.838,21.245 29.712,20.911 29.46,20.675 C29.208,20.436 28.853,20.317 28.396,20.317 C27.994,20.317 27.558,20.407 27.087,20.591 C26.615,20.772 26.137,21.03 25.652,21.366 L25.652,19.995 C26.543,19.266 27.529,18.903 28.606,18.903 C29.191,18.903 29.701,19.009 30.138,19.218 C30.575,19.429 30.916,19.729 31.162,20.12 C31.408,20.513 31.531,20.979 31.531,21.52 C31.531,22.044 31.388,22.573 31.101,23.11 C30.814,23.647 30.352,24.259 29.714,24.944 C29.077,25.63 28.198,26.481 27.079,27.499 L31.966,27.499 L31.966,28.829 Z M17.742,27.485 L17.742,20.472 L19.155,20.472 C21.088,20.472 22.054,21.587 22.054,23.817 L22.054,24.124 C22.054,26.364 21.088,27.485 19.155,27.485 L17.742,27.485 Z M22.635,27.569 C23.404,26.729 23.79,25.524 23.79,23.956 C23.79,22.397 23.409,21.204 22.649,20.372 C21.888,19.542 20.789,19.126 19.352,19.126 L16.034,19.126 L16.034,28.829 L19.338,28.829 C20.766,28.829 21.864,28.409 22.635,27.569 L22.635,27.569 Z M9,39 L39,39 L39,9 L9,9 L9,39 Z M46,13 L46,11 L41,11 L41,8 C41,7.447 40.553,7 40,7 L37,7 L37,2 L35,2 L35,7 L31,7 L31,2 L29,2 L29,7 L25,7 L25,2 L23,2 L23,7 L19,7 L19,2 L17,2 L17,7 L13,7 L13,2 L11,2 L11,7 L8,7 C7.447,7 7,7.447 7,8 L7,11 L2,11 L2,13 L7,13 L7,17 L2,17 L2,19 L7,19 L7,23 L2,23 L2,25 L7,25 L7,29 L2,29 L2,31 L7,31 L7,35 L2,35 L2,37 L7,37 L7,40 C7,40.553 7.447,41 8,41 L11,41 L11,46 L13,46 L13,41 L17,41 L17,46 L19,46 L19,41 L23,41 L23,46 L25,46 L25,41 L29,41 L29,46 L31,46 L31,41 L35,41 L35,46 L37,46 L37,41 L40,41 C40.553,41 41,40.553 41,40 L41,37 L46,37 L46,35 L41,35 L41,31 L46,31 L46,29 L41,29 L41,25 L46,25 L46,23 L41,23 L41,19 L46,19 L46,17 L41,17 L41,13 L46,13 Z" id="Amazon-EC2-D2-Instance_Resource-Icon_light-bg" fill="#D45B07"></path>
    </g>
</svg>