<?xml version="1.0" encoding="UTF-8"?>
<svg width="48px" height="48px" viewBox="0 0 48 48" version="1.1" xmlns="http://www.w3.org/2000/svg" xmlns:xlink="http://www.w3.org/1999/xlink">
    <title>Icon-Resource/Compute/Res_Icon-Amazon-EC2-Instance_G5_48_Light</title>
    <g id="Icon-Resource/Compute/Res_Icon-Amazon-EC2-Instance_G5_48" stroke="none" stroke-width="1" fill="none" fill-rule="evenodd">
        <path d="M28.2158,29.21 C27.2818,29.21 26.3858,29.023 25.5278,28.65 L25.5278,27.334 C26.5488,27.679 27.4298,27.852 28.1718,27.852 C29.5548,27.852 30.2458,27.255 30.2458,26.06 C30.2458,25.481 30.0718,25.059 29.7238,24.793 C29.3768,24.527 28.8218,24.394 28.0618,24.394 C27.4968,24.394 26.7868,24.441 25.9338,24.534 L25.9338,23.47 L26.1998,19.298 L31.4638,19.298 L31.4638,20.628 L27.7588,20.628 L27.5998,23.218 C27.9828,23.144 28.3878,23.106 28.8148,23.106 C29.7848,23.106 30.5488,23.367 31.1048,23.89 C31.6618,24.413 31.9398,25.127 31.9398,26.032 C31.9398,27.003 31.6038,27.775 30.9318,28.349 C30.2598,28.923 29.3548,29.21 28.2158,29.21 L28.2158,29.21 Z M16.9488,27.894 C16.1348,27.045 15.7278,25.817 15.7278,24.212 C15.7278,22.579 16.1468,21.326 16.9858,20.453 C17.8228,19.581 19.0278,19.144 20.6008,19.144 C21.6618,19.144 22.6038,19.335 23.4278,19.718 L23.4278,21.076 C22.4478,20.75 21.5448,20.586 20.7168,20.586 C19.6138,20.586 18.7958,20.866 18.2628,21.426 C17.7298,21.986 17.4638,22.859 17.4638,24.044 L17.4638,24.338 C17.4638,25.505 17.7278,26.361 18.2548,26.907 C18.7818,27.453 19.6108,27.726 20.7398,27.726 C21.1878,27.726 21.6268,27.684 22.0558,27.6 L22.0558,25.038 L20.0538,25.038 L20.0538,23.694 L23.7638,23.694 L23.7638,28.454 C23.3378,28.678 22.8388,28.853 22.2658,28.979 C21.6938,29.105 21.1038,29.168 20.4988,29.168 C18.9458,29.168 17.7628,28.743 16.9488,27.894 L16.9488,27.894 Z M8.9998,39 L38.9998,39 L38.9998,9 L8.9998,9 L8.9998,39 Z M45.9998,13 L45.9998,11 L40.9998,11 L40.9998,8 C40.9998,7.448 40.5518,7 39.9998,7 L36.9998,7 L36.9998,2 L34.9998,2 L34.9998,7 L30.9998,7 L30.9998,2 L28.9998,2 L28.9998,7 L24.9998,7 L24.9998,2 L22.9998,2 L22.9998,7 L18.9998,7 L18.9998,2 L16.9998,2 L16.9998,7 L12.9998,7 L12.9998,2 L10.9998,2 L10.9998,7 L7.9998,7 C7.4478,7 6.9998,7.448 6.9998,8 L6.9998,11 L1.9998,11 L1.9998,13 L6.9998,13 L6.9998,17 L1.9998,17 L1.9998,19 L6.9998,19 L6.9998,23 L1.9998,23 L1.9998,25 L6.9998,25 L6.9998,29 L1.9998,29 L1.9998,31 L6.9998,31 L6.9998,35 L1.9998,35 L1.9998,37 L6.9998,37 L6.9998,40 C6.9998,40.552 7.4478,41 7.9998,41 L10.9998,41 L10.9998,46 L12.9998,46 L12.9998,41 L16.9998,41 L16.9998,46 L18.9998,46 L18.9998,41 L22.9998,41 L22.9998,46 L24.9998,46 L24.9998,41 L28.9998,41 L28.9998,46 L30.9998,46 L30.9998,41 L34.9998,41 L34.9998,46 L36.9998,46 L36.9998,41 L39.9998,41 C40.5518,41 40.9998,40.552 40.9998,40 L40.9998,37 L45.9998,37 L45.9998,35 L40.9998,35 L40.9998,31 L45.9998,31 L45.9998,29 L40.9998,29 L40.9998,25 L45.9998,25 L45.9998,23 L40.9998,23 L40.9998,19 L45.9998,19 L45.9998,17 L40.9998,17 L40.9998,13 L45.9998,13 Z" id="Fill-1" fill="#D45B07"></path>
    </g>
</svg>