<?xml version="1.0" encoding="UTF-8"?>
<svg width="48px" height="48px" viewBox="0 0 48 48" version="1.1" xmlns="http://www.w3.org/2000/svg" xmlns:xlink="http://www.w3.org/1999/xlink">
    <title>Icon-Resource/Compute/Res_Amazon-EC2-Instance-G4ad_48_Light</title>
    <g id="Icon-Resource/Compute/Res_Amazon-EC2-Instance-G4ad_48" stroke="none" stroke-width="1" fill="none" fill-rule="evenodd">
        <path d="M9,39 L39,39 L39,9 L9,9 L9,39 Z M46,13 L46,11 L41,11 L41,8 C41,7.448 40.552,7 40,7 L37,7 L37,2 L35,2 L35,7 L31,7 L31,2 L29,2 L29,7 L25,7 L25,2 L23,2 L23,7 L19,7 L19,2 L17,2 L17,7 L13,7 L13,2 L11,2 L11,7 L8,7 C7.448,7 7,7.448 7,8 L7,11 L2,11 L2,13 L7,13 L7,17 L2,17 L2,19 L7,19 L7,23 L2,23 L2,25 L7,25 L7,29 L2,29 L2,31 L7,31 L7,35 L2,35 L2,37 L7,37 L7,40 C7,40.552 7.448,41 8,41 L11,41 L11,46 L13,46 L13,41 L17,41 L17,46 L19,46 L19,41 L23,41 L23,46 L25,46 L25,41 L29,41 L29,46 L31,46 L31,41 L35,41 L35,46 L37,46 L37,41 L40,41 C40.552,41 41,40.552 41,40 L41,37 L46,37 L46,35 L41,35 L41,31 L46,31 L46,29 L41,29 L41,25 L46,25 L46,23 L41,23 L41,19 L46,19 L46,17 L41,17 L41,13 L46,13 Z M33.476,26.827 C33.909,26.827 34.331,26.688 34.741,26.409 L34.741,23.384 C34.367,23.12 33.953,22.988 33.498,22.988 C33.007,22.988 32.646,23.144 32.415,23.456 C32.184,23.767 32.068,24.246 32.068,24.891 C32.068,26.182 32.538,26.827 33.476,26.827 L33.476,26.827 Z M34.928,27.729 L34.796,27.19 C34.297,27.63 33.722,27.85 33.069,27.85 C32.365,27.85 31.802,27.588 31.381,27.063 C30.959,26.539 30.748,25.833 30.748,24.946 C30.748,24.359 30.843,23.842 31.034,23.395 C31.225,22.948 31.5,22.598 31.859,22.345 C32.218,22.091 32.644,21.965 33.135,21.965 C33.722,21.965 34.257,22.156 34.741,22.537 L34.741,19.589 L36.039,19.589 L36.039,27.729 L34.928,27.729 Z M27.163,26.97 C27.371,26.97 27.588,26.924 27.817,26.833 C28.046,26.741 28.268,26.611 28.482,26.442 L28.482,25.386 C28.104,25.305 27.767,25.265 27.474,25.265 C26.731,25.265 26.359,25.562 26.359,26.156 C26.359,26.413 26.431,26.612 26.573,26.755 C26.716,26.898 26.913,26.97 27.163,26.97 L27.163,26.97 Z M28.647,27.729 L28.548,27.19 C28.292,27.41 28.007,27.583 27.696,27.707 C27.384,27.832 27.074,27.894 26.766,27.894 C26.253,27.894 25.836,27.74 25.518,27.432 C25.199,27.124 25.039,26.725 25.039,26.233 C25.039,25.69 25.235,25.258 25.627,24.935 C26.02,24.612 26.546,24.451 27.206,24.451 C27.595,24.451 28.02,24.506 28.482,24.616 L28.482,23.967 C28.482,23.593 28.401,23.333 28.24,23.186 C28.079,23.04 27.796,22.966 27.393,22.966 C26.821,22.966 26.165,23.087 25.424,23.329 L25.424,22.416 C25.7,22.277 26.038,22.167 26.437,22.086 C26.837,22.005 27.238,21.965 27.641,21.965 C28.373,21.965 28.912,22.112 29.259,22.405 C29.606,22.698 29.78,23.157 29.78,23.78 L29.78,27.729 L28.647,27.729 Z M22.278,25.111 L22.278,21.756 L19.979,25.111 L22.278,25.111 Z M22.278,27.729 L22.278,26.145 L18.67,26.145 L18.67,25.166 L22.223,20.106 L23.587,20.106 L23.587,25.111 L24.61,25.111 L24.61,26.145 L23.587,26.145 L23.587,27.729 L22.278,27.729 Z M15.535,26.728 C15.887,26.728 16.232,26.695 16.569,26.629 L16.569,24.616 L14.997,24.616 L14.997,23.56 L17.912,23.56 L17.912,27.3 C17.577,27.476 17.185,27.613 16.734,27.712 C16.284,27.812 15.822,27.861 15.346,27.861 C14.126,27.861 13.196,27.527 12.557,26.86 C11.917,26.193 11.597,25.229 11.597,23.967 C11.597,22.684 11.927,21.699 12.585,21.014 C13.244,20.328 14.19,19.985 15.426,19.985 C16.259,19.985 17,20.135 17.647,20.436 L17.647,21.503 C16.877,21.247 16.167,21.118 15.518,21.118 C14.65,21.118 14.008,21.338 13.589,21.778 C13.17,22.218 12.961,22.904 12.961,23.835 L12.961,24.066 C12.961,24.983 13.168,25.655 13.583,26.084 C13.997,26.514 14.648,26.728 15.535,26.728 L15.535,26.728 Z" id="Fill-1" fill="#D45B07"></path>
    </g>
</svg>