<?xml version="1.0" encoding="UTF-8"?>
<svg width="48px" height="48px" viewBox="0 0 48 48" version="1.1" xmlns="http://www.w3.org/2000/svg" xmlns:xlink="http://www.w3.org/1999/xlink">
    <title>Icon-Resource/Compute/Res_Amazon-EC2_G4dn_48_Light</title>
    <g id="Icon-Resource/Compute/Res_Amazon-EC2_G4dn_48" stroke="none" stroke-width="1" fill="none" fill-rule="evenodd">
        <path d="M9,39 L39,39 L39,9 L9,9 L9,39 Z M46,13 L46,11 L41,11 L41,8 C41,7.448 40.552,7 40,7 L37,7 L37,2 L35,2 L35,7 L31,7 L31,2 L29,2 L29,7 L25,7 L25,2 L23,2 L23,7 L19,7 L19,2 L17,2 L17,7 L13,7 L13,2 L11,2 L11,7 L8,7 C7.448,7 7,7.448 7,8 L7,11 L2,11 L2,13 L7,13 L7,17 L2,17 L2,19 L7,19 L7,23 L2,23 L2,25 L7,25 L7,29 L2,29 L2,31 L7,31 L7,35 L2,35 L2,37 L7,37 L7,40 C7,40.552 7.448,41 8,41 L11,41 L11,46 L13,46 L13,41 L17,41 L17,46 L19,46 L19,41 L23,41 L23,46 L25,46 L25,41 L29,41 L29,46 L31,46 L31,41 L35,41 L35,46 L37,46 L37,41 L40,41 C40.552,41 41,40.552 41,40 L41,37 L46,37 L46,35 L41,35 L41,31 L46,31 L46,29 L41,29 L41,25 L46,25 L46,23 L41,23 L41,19 L46,19 L46,17 L41,17 L41,13 L46,13 Z M35.958,27.729 L35.958,23.685 C35.958,23.293 35.878,23.007 35.718,22.827 C35.558,22.647 35.302,22.557 34.95,22.557 C34.422,22.557 33.882,22.733 33.33,23.085 L33.33,27.729 L31.914,27.729 L31.914,21.621 L33.09,21.621 L33.234,22.293 C33.986,21.725 34.771,21.441 35.586,21.441 C36.17,21.441 36.614,21.595 36.918,21.903 C37.222,22.211 37.375,22.657 37.375,23.241 L37.375,27.729 L35.958,27.729 Z M27.75,26.745 C28.222,26.745 28.682,26.593 29.13,26.289 L29.13,22.989 C28.722,22.701 28.27,22.557 27.774,22.557 C27.238,22.557 26.844,22.727 26.592,23.067 C26.34,23.407 26.214,23.929 26.214,24.633 C26.214,26.041 26.726,26.745 27.75,26.745 L27.75,26.745 Z M29.334,27.729 L29.19,27.141 C28.646,27.621 28.018,27.861 27.306,27.861 C26.538,27.861 25.924,27.575 25.464,27.003 C25.004,26.431 24.774,25.661 24.774,24.693 C24.774,24.053 24.878,23.489 25.086,23.001 C25.294,22.513 25.594,22.131 25.986,21.855 C26.378,21.579 26.842,21.441 27.378,21.441 C28.018,21.441 28.602,21.649 29.13,22.065 L29.13,18.849 L30.546,18.849 L30.546,27.729 L29.334,27.729 Z M21.81,24.873 L21.81,21.213 L19.302,24.873 L21.81,24.873 Z M21.81,27.729 L21.81,26.001 L17.875,26.001 L17.875,24.933 L21.75,19.413 L23.238,19.413 L23.238,24.873 L24.354,24.873 L24.354,26.001 L23.238,26.001 L23.238,27.729 L21.81,27.729 Z M14.574,26.637 C14.958,26.637 15.334,26.601 15.702,26.529 L15.702,24.333 L13.986,24.333 L13.986,23.181 L17.167,23.181 L17.167,27.261 C16.801,27.453 16.373,27.603 15.882,27.711 C15.392,27.819 14.887,27.873 14.367,27.873 C13.037,27.873 12.022,27.509 11.325,26.781 C10.627,26.053 10.278,25.001 10.278,23.625 C10.278,22.225 10.637,21.151 11.356,20.403 C12.074,19.655 13.107,19.281 14.455,19.281 C15.364,19.281 16.172,19.445 16.878,19.773 L16.878,20.937 C16.039,20.657 15.264,20.517 14.555,20.517 C13.609,20.517 12.908,20.757 12.451,21.237 C11.995,21.717 11.766,22.465 11.766,23.481 L11.766,23.733 C11.766,24.733 11.992,25.467 12.444,25.935 C12.896,26.403 13.606,26.637 14.574,26.637 L14.574,26.637 Z" id="Fill-1" fill="#D45B07"></path>
    </g>
</svg>