<?xml version="1.0" encoding="UTF-8"?>
<svg width="48px" height="48px" viewBox="0 0 48 48" version="1.1" xmlns="http://www.w3.org/2000/svg" xmlns:xlink="http://www.w3.org/1999/xlink">
    <title>Icon-Resource/Compute/Res_Amazon-EC2_G3-Instance_48_Light</title>
    <g id="Icon-Resource/Compute/Res_Amazon-EC2_G3-Instance_48" stroke="none" stroke-width="1" fill="none" fill-rule="evenodd">
        <path d="M28.354,29.083 C27.458,29.083 26.581,28.896 25.722,28.522 L25.722,27.206 C26.743,27.552 27.601,27.724 28.296,27.724 C28.956,27.724 29.463,27.577 29.82,27.284 C30.177,26.989 30.356,26.571 30.356,26.03 C30.356,25.003 29.708,24.491 28.413,24.491 C27.997,24.491 27.547,24.519 27.066,24.575 L27.066,23.497 L29.824,20.501 L25.862,20.501 L25.862,19.171 L31.644,19.171 L31.644,20.444 L28.732,23.3 C28.861,23.292 28.99,23.286 29.119,23.286 C29.665,23.286 30.158,23.401 30.599,23.63 C31.041,23.858 31.393,24.183 31.656,24.603 C31.918,25.022 32.05,25.503 32.05,26.044 C32.05,26.632 31.901,27.155 31.602,27.612 C31.303,28.069 30.874,28.429 30.314,28.69 C29.754,28.952 29.101,29.083 28.354,29.083 L28.354,29.083 Z M17.171,27.767 C16.357,26.917 15.95,25.69 15.95,24.085 C15.95,22.45 16.369,21.198 17.208,20.325 C18.045,19.452 19.25,19.017 20.823,19.017 C21.883,19.017 22.826,19.208 23.65,19.591 L23.65,20.948 C22.67,20.622 21.767,20.458 20.939,20.458 C19.835,20.458 19.018,20.739 18.485,21.298 C17.953,21.858 17.686,22.731 17.686,23.917 L17.686,24.21 C17.686,25.378 17.95,26.233 18.477,26.78 C19.004,27.325 19.833,27.599 20.962,27.599 C21.411,27.599 21.849,27.556 22.278,27.472 L22.278,24.911 L20.276,24.911 L20.276,23.565 L23.986,23.565 L23.986,28.327 C23.56,28.55 23.061,28.726 22.488,28.851 C21.916,28.978 21.327,29.04 20.72,29.04 C19.168,29.04 17.985,28.616 17.171,27.767 L17.171,27.767 Z M9,39 L39,39 L39,9 L9,9 L9,39 Z M46,13 L46,11 L41,11 L41,8 C41,7.447 40.552,7 40,7 L37,7 L37,2 L35,2 L35,7 L31,7 L31,2 L29,2 L29,7 L25,7 L25,2 L23,2 L23,7 L19,7 L19,2 L17,2 L17,7 L13,7 L13,2 L11,2 L11,7 L8,7 C7.447,7 7,7.447 7,8 L7,11 L2,11 L2,13 L7,13 L7,17 L2,17 L2,19 L7,19 L7,23 L2,23 L2,25 L7,25 L7,29 L2,29 L2,31 L7,31 L7,35 L2,35 L2,37 L7,37 L7,40 C7,40.553 7.447,41 8,41 L11,41 L11,46 L13,46 L13,41 L17,41 L17,46 L19,46 L19,41 L23,41 L23,46 L25,46 L25,41 L29,41 L29,46 L31,46 L31,41 L35,41 L35,46 L37,46 L37,41 L40,41 C40.552,41 41,40.553 41,40 L41,37 L46,37 L46,35 L41,35 L41,31 L46,31 L46,29 L41,29 L41,25 L46,25 L46,23 L41,23 L41,19 L46,19 L46,17 L41,17 L41,13 L46,13 Z" id="Amazon-EC2-G3-Instance_Resource-Icon_light-bg" fill="#D45B07"></path>
    </g>
</svg>