<?xml version="1.0" encoding="UTF-8"?>
<svg width="48px" height="48px" viewBox="0 0 48 48" version="1.1" xmlns="http://www.w3.org/2000/svg" xmlns:xlink="http://www.w3.org/1999/xlink">
    <title>Icon-Resource/Compute/Res_Amazon-EC2_Hpc6a-Instance_48_Light</title>
    <g id="Icon-Resource/Compute/Res_Amazon-EC2_Hpc6a-Instance_48" stroke="none" stroke-width="1" fill="none" fill-rule="evenodd">
        <path d="M9,39 L39,39 L39,9 L9,9 L9,39 Z M41,13 L41,17 L46,17 L46,19 L41,19 L41,23 L46,23 L46,25 L41,25 L41,29 L46,29 L46,31 L41,31 L41,35 L46,35 L46,37 L41,37 L41,40 C41,40.552 40.552,41 40,41 L37,41 L37,46 L35,46 L35,41 L31,41 L31,46 L29,46 L29,41 L25,41 L25,46 L23,46 L23,41 L19,41 L19,46 L17,46 L17,41 L13,41 L13,46 L11,46 L11,41 L8,41 C7.448,41 7,40.552 7,40 L7,37 L2,37 L2,35 L7,35 L7,31 L2,31 L2,29 L7,29 L7,25 L2,25 L2,23 L7,23 L7,19 L2,19 L2,17 L7,17 L7,13 L2,13 L2,11 L7,11 L7,8 C7,7.448 7.448,7 8,7 L11,7 L11,2 L13,2 L13,7 L17,7 L17,2 L19,2 L19,7 L23,7 L23,2 L25,2 L25,7 L29,7 L29,2 L31,2 L31,7 L35,7 L35,2 L37,2 L37,7 L40,7 C40.552,7 41,7.448 41,8 L41,11 L46,11 L46,13 L41,13 Z M36.278,25.599 C35.934,25.526 35.628,25.489 35.362,25.489 C34.686,25.489 34.348,25.759 34.348,26.299 C34.348,26.532 34.413,26.714 34.543,26.844 C34.673,26.974 34.852,27.039 35.079,27.039 C35.268,27.039 35.466,26.998 35.674,26.914 C35.881,26.831 36.083,26.712 36.278,26.559 L36.278,25.599 Z M36.278,24.899 L36.278,24.309 C36.278,23.969 36.205,23.732 36.058,23.599 C35.911,23.466 35.655,23.399 35.288,23.399 C34.768,23.399 34.171,23.509 33.498,23.729 L33.498,22.899 C33.749,22.772 34.056,22.672 34.419,22.599 C34.782,22.526 35.147,22.489 35.514,22.489 C36.179,22.489 36.669,22.623 36.984,22.889 C37.3,23.156 37.458,23.572 37.458,24.139 L37.458,27.729 L36.428,27.729 L36.338,27.239 C36.104,27.439 35.846,27.596 35.563,27.709 C35.28,27.822 34.998,27.879 34.718,27.879 C34.251,27.879 33.873,27.739 33.583,27.459 C33.293,27.179 33.148,26.816 33.148,26.369 C33.148,25.875 33.326,25.482 33.683,25.189 C34.04,24.896 34.518,24.749 35.118,24.749 C35.471,24.749 35.858,24.799 36.278,24.899 L36.278,24.899 Z M28.778,24.799 C28.824,26.219 29.286,26.929 30.166,26.929 C30.523,26.929 30.804,26.819 31.005,26.599 C31.208,26.379 31.309,26.072 31.309,25.679 C31.309,25.279 31.204,24.974 30.996,24.764 C30.787,24.554 30.484,24.449 30.087,24.449 C29.657,24.449 29.221,24.566 28.778,24.799 L28.778,24.799 Z M28.204,27.029 C27.78,26.462 27.568,25.625 27.568,24.519 C27.568,23.292 27.82,22.339 28.323,21.659 C28.827,20.979 29.535,20.639 30.448,20.639 C30.735,20.639 31.023,20.671 31.313,20.734 C31.604,20.797 31.852,20.882 32.059,20.989 L32.059,21.859 C31.854,21.779 31.619,21.714 31.352,21.664 C31.085,21.614 30.84,21.589 30.616,21.589 C30.017,21.589 29.569,21.789 29.272,22.189 C28.976,22.589 28.811,23.206 28.778,24.039 C29.306,23.699 29.867,23.529 30.46,23.529 C31.081,23.529 31.579,23.717 31.954,24.094 C32.33,24.471 32.519,24.973 32.519,25.599 C32.519,26.039 32.42,26.431 32.223,26.774 C32.027,27.118 31.743,27.387 31.374,27.584 C31.003,27.781 30.572,27.879 30.079,27.879 C29.251,27.879 28.626,27.596 28.204,27.029 L28.204,27.029 Z M25.539,27.839 C26.085,27.839 26.555,27.735 26.948,27.529 L26.948,26.699 C26.521,26.833 26.128,26.899 25.769,26.899 C25.269,26.899 24.9,26.766 24.664,26.499 C24.427,26.232 24.309,25.819 24.309,25.259 L24.309,25.129 C24.309,24.563 24.427,24.144 24.664,23.874 C24.9,23.604 25.269,23.469 25.769,23.469 C26.082,23.469 26.462,23.532 26.908,23.659 L26.908,22.829 C26.508,22.629 26.065,22.529 25.579,22.529 C24.798,22.529 24.192,22.766 23.758,23.239 C23.325,23.712 23.108,24.375 23.108,25.229 C23.108,26.063 23.318,26.706 23.738,27.159 C24.158,27.612 24.758,27.839 25.539,27.839 L25.539,27.839 Z M18.738,26.519 C19.112,26.779 19.508,26.909 19.928,26.909 C20.355,26.909 20.672,26.764 20.878,26.474 C21.085,26.184 21.188,25.743 21.188,25.149 C21.188,24.563 21.086,24.127 20.883,23.844 C20.68,23.561 20.365,23.419 19.938,23.419 C19.505,23.419 19.105,23.546 18.738,23.799 L18.738,26.519 Z M18.738,29.789 L17.559,29.789 L17.559,22.639 L18.539,22.639 L18.648,23.149 C18.882,22.936 19.14,22.772 19.423,22.659 C19.707,22.546 20.001,22.489 20.309,22.489 C20.942,22.489 21.447,22.726 21.823,23.199 C22.2,23.672 22.388,24.309 22.388,25.109 C22.388,25.643 22.302,26.114 22.128,26.524 C21.955,26.934 21.705,27.256 21.378,27.489 C21.052,27.723 20.668,27.839 20.229,27.839 C19.948,27.839 19.678,27.791 19.418,27.694 C19.158,27.598 18.932,27.462 18.738,27.289 L18.738,29.789 Z M11.818,27.729 L10.598,27.729 L10.598,20.799 L11.818,20.799 L11.818,23.709 L14.999,23.709 L14.999,20.799 L16.218,20.799 L16.218,27.729 L14.999,27.729 L14.999,24.689 L11.818,24.689 L11.818,27.729 Z" id="Fill-1" fill="#D45B07"></path>
    </g>
</svg>