<?xml version="1.0" encoding="UTF-8"?>
<svg width="48px" height="48px" viewBox="0 0 48 48" version="1.1" xmlns="http://www.w3.org/2000/svg" xmlns:xlink="http://www.w3.org/1999/xlink">
    <title>Icon-Resource/Compute/Res_Amazon-EC2_I2_48_Light</title>
    <g id="Icon-Resource/Compute/Res_Amazon-EC2_I2_48" stroke="none" stroke-width="1" fill="none" fill-rule="evenodd">
        <path d="M9,39 L39,39 L39,9 L9,9 L9,39 Z M41,13 L41,17 L46,17 L46,19 L41,19 L41,23 L46,23 L46,25 L41,25 L41,29 L46,29 L46,31 L41,31 L41,35 L46,35 L46,37 L41,37 L41,40 C41,40.552 40.552,41 40,41 L37,41 L37,46 L35,46 L35,41 L31,41 L31,46 L29,46 L29,41 L25,41 L25,46 L23,46 L23,41 L19,41 L19,46 L17,46 L17,41 L13,41 L13,46 L11,46 L11,41 L8,41 C7.448,41 7,40.552 7,40 L7,37 L2,37 L2,35 L7,35 L7,31 L2,31 L2,29 L7,29 L7,25 L2,25 L2,23 L7,23 L7,19 L2,19 L2,17 L7,17 L7,13 L2,13 L2,11 L7,11 L7,8 C7,7.448 7.448,7 8,7 L11,7 L11,2 L13,2 L13,7 L17,7 L17,2 L19,2 L19,7 L23,7 L23,2 L25,2 L25,7 L29,7 L29,2 L31,2 L31,7 L35,7 L35,2 L37,2 L37,7 L40,7 C40.552,7 41,7.448 41,8 L41,11 L46,11 L46,13 L41,13 Z M29.192,27.399 L24.306,27.399 C25.425,26.382 26.303,25.53 26.941,24.844 C27.578,24.158 28.041,23.547 28.328,23.01 C28.614,22.474 28.758,21.944 28.758,21.421 C28.758,20.88 28.635,20.413 28.389,20.021 C28.143,19.629 27.801,19.328 27.365,19.118 C26.928,18.908 26.417,18.803 25.832,18.803 C24.754,18.803 23.77,19.167 22.878,19.895 L22.878,21.267 C23.363,20.931 23.842,20.672 24.313,20.49 C24.784,20.308 25.221,20.217 25.622,20.217 C26.079,20.217 26.434,20.336 26.686,20.574 C26.938,20.812 27.064,21.146 27.064,21.575 C27.064,21.939 26.947,22.336 26.714,22.765 C26.481,23.194 26.061,23.759 25.454,24.459 C24.847,25.159 23.9,26.163 22.612,27.469 L22.612,28.729 L29.192,28.729 L29.192,27.399 Z M19.112,28.729 L20.82,28.729 L20.82,19.027 L19.112,19.027 L19.112,28.729 Z" id="Fill-1" fill="#D45B07"></path>
    </g>
</svg>