<?xml version="1.0" encoding="UTF-8"?>
<svg width="48px" height="48px" viewBox="0 0 48 48" version="1.1" xmlns="http://www.w3.org/2000/svg" xmlns:xlink="http://www.w3.org/1999/xlink">
    <title>Icon-Resource/Compute/Res_Amazon-EC2_AWS-Inferentia_48_Light</title>
    <g id="Icon-Resource/Compute/Res_Amazon-EC2_AWS-Inferentia_48" stroke="none" stroke-width="1" fill="none" fill-rule="evenodd">
        <path d="M39,17 L39,19 L39,23 L39,25 L39,29 L39,31 L39,35 L39,37 L39,39 L37,39 L35,39 L31,39 L29,39 L25,39 L23,39 L19,39 L17,39 L13,39 L11,39 L9,39 L9,37 L9,35 L9,31 L9,29 L9,25 L9,23 L9,19 L9,17 L9,13 L9,11 L9,9 L11,9 L13,9 L17,9 L19,9 L23,9 L25,9 L29,9 L31,9 L35,9 L37,9 L39,9 L39,11 L39,13 L39,17 Z M46,13 L46,11 L41,11 L41,8 C41,7.447 40.553,7 40,7 L37,7 L37,2 L35,2 L35,7 L31,7 L31,2 L29,2 L29,7 L25,7 L25,2 L23,2 L23,7 L19,7 L19,2 L17,2 L17,7 L13,7 L13,2 L11,2 L11,7 L8,7 C7.447,7 7,7.447 7,8 L7,11 L2,11 L2,13 L7,13 L7,17 L2,17 L2,19 L7,19 L7,23 L2,23 L2,25 L7,25 L7,29 L2,29 L2,31 L7,31 L7,35 L2,35 L2,37 L7,37 L7,40 C7,40.553 7.447,41 8,41 L11,41 L11,46 L13,46 L13,41 L17,41 L17,46 L19,46 L19,41 L23,41 L23,46 L25,46 L25,41 L29,41 L29,46 L31,46 L31,41 L35,41 L35,46 L37,46 L37,41 L40,41 C40.553,41 41,40.553 41,40 L41,37 L46,37 L46,35 L41,35 L41,31 L46,31 L46,29 L41,29 L41,25 L46,25 L46,23 L41,23 L41,19 L46,19 L46,17 L41,17 L41,13 L46,13 Z M15,33 L33,33 L33,15 L15,15 L15,33 Z M34,13 L14,13 C13.447,13 13,13.447 13,14 L13,34 C13,34.553 13.447,35 14,35 L34,35 C34.553,35 35,34.553 35,34 L35,14 C35,13.447 34.553,13 34,13 L34,13 Z M21.5,20.792 L21.752,21.94 L21.256,21.94 L21.5,20.792 Z M21.172,22.34 L21.836,22.34 L21.979,23 L22.596,23 L21.832,20.228 L21.212,20.228 L20.444,23 L21.032,23 L21.172,22.34 Z M23.144,23 L22.552,20.228 L23.116,20.228 L23.468,22.432 L23.772,20.34 L24.38,20.34 L24.692,22.396 L25.032,20.228 L25.584,20.228 L24.992,23 L24.372,23 L24.06,20.956 L23.764,23 L23.144,23 Z M25.924,21.42 C25.838,21.298 25.796,21.148 25.796,20.972 C25.796,20.81 25.833,20.667 25.908,20.546 C25.982,20.425 26.084,20.331 26.214,20.266 C26.343,20.201 26.492,20.168 26.66,20.168 C26.87,20.168 27.08,20.216 27.288,20.312 L27.288,20.736 C27.071,20.656 26.881,20.616 26.716,20.616 C26.604,20.616 26.516,20.644 26.452,20.7 C26.388,20.756 26.355,20.833 26.355,20.932 C26.355,21.015 26.376,21.083 26.418,21.136 C26.459,21.189 26.538,21.248 26.655,21.312 L26.872,21.428 C27.011,21.503 27.12,21.577 27.202,21.652 C27.283,21.727 27.343,21.81 27.382,21.902 C27.42,21.994 27.439,22.105 27.439,22.236 C27.439,22.489 27.357,22.69 27.193,22.838 C27.029,22.986 26.804,23.06 26.516,23.06 C26.391,23.06 26.265,23.045 26.14,23.016 C26.015,22.986 25.909,22.948 25.824,22.9 L25.824,22.48 C25.923,22.518 26.034,22.549 26.158,22.574 C26.282,22.6 26.388,22.612 26.476,22.612 C26.604,22.612 26.701,22.582 26.768,22.522 C26.834,22.462 26.868,22.376 26.868,22.264 C26.868,22.182 26.845,22.111 26.798,22.054 C26.751,21.997 26.673,21.938 26.563,21.88 L26.348,21.764 C26.15,21.657 26.009,21.543 25.924,21.42 L25.924,21.42 Z M27.896,26.156 L27.651,26.156 L27.651,25.819 L27.912,25.764 L27.992,25.204 L28.443,25.204 L28.443,25.756 L28.868,25.756 L28.868,26.156 L28.443,26.156 L28.443,27.16 C28.443,27.251 28.46,27.314 28.492,27.352 C28.523,27.39 28.582,27.408 28.668,27.408 C28.731,27.408 28.801,27.398 28.876,27.38 L28.876,27.748 C28.742,27.801 28.606,27.828 28.468,27.828 C28.268,27.828 28.122,27.778 28.032,27.68 C27.941,27.581 27.896,27.424 27.896,27.208 L27.896,26.156 Z M16.46,27.8 L17.02,27.8 L17.02,25.028 L16.46,25.028 L16.46,27.8 Z M19.655,26.156 L19.396,26.156 L19.396,25.819 L19.655,25.764 L19.655,25.523 C19.655,25.273 19.709,25.087 19.815,24.966 C19.922,24.845 20.086,24.784 20.308,24.784 C20.433,24.784 20.553,24.81 20.668,24.859 L20.668,25.228 C20.59,25.209 20.521,25.2 20.46,25.2 C20.361,25.2 20.294,25.22 20.258,25.26 C20.222,25.3 20.203,25.374 20.203,25.483 L20.203,25.756 L20.647,25.756 L20.647,26.156 L20.203,26.156 L20.203,27.8 L19.655,27.8 L19.655,26.156 Z M18.092,27.8 L17.544,27.8 L17.544,25.756 L17.991,25.756 L18.035,25.939 C18.249,25.782 18.453,25.704 18.647,25.704 C18.802,25.704 18.92,25.755 19.002,25.855 C19.083,25.957 19.124,26.105 19.124,26.3 L19.124,27.8 L18.575,27.8 L18.575,26.456 C18.575,26.339 18.56,26.253 18.527,26.2 C18.496,26.146 18.441,26.12 18.363,26.12 C18.281,26.12 18.19,26.151 18.092,26.216 L18.092,27.8 Z M29.22,25.342 C29.161,25.287 29.132,25.213 29.132,25.12 C29.132,25.026 29.161,24.952 29.22,24.897 C29.278,24.843 29.357,24.815 29.456,24.815 C29.552,24.815 29.629,24.843 29.687,24.897 C29.746,24.952 29.775,25.026 29.775,25.12 C29.775,25.213 29.746,25.287 29.687,25.342 C29.629,25.396 29.552,25.424 29.456,25.424 C29.357,25.424 29.278,25.396 29.22,25.342 L29.22,25.342 Z M27.282,25.855 C27.363,25.957 27.404,26.105 27.404,26.3 L27.404,27.8 L26.855,27.8 L26.855,26.456 C26.855,26.339 26.84,26.253 26.808,26.2 C26.776,26.146 26.722,26.12 26.644,26.12 C26.562,26.12 26.471,26.151 26.372,26.216 L26.372,27.8 L25.824,27.8 L25.824,25.756 L26.271,25.756 L26.315,25.939 C26.529,25.782 26.733,25.704 26.928,25.704 C27.082,25.704 27.2,25.755 27.282,25.855 L27.282,25.855 Z M24.983,26.572 L24.447,26.572 C24.458,26.241 24.56,26.076 24.752,26.076 C24.832,26.076 24.891,26.107 24.928,26.17 C24.965,26.232 24.983,26.336 24.983,26.479 L24.983,26.572 Z M25.447,26.536 C25.447,25.981 25.221,25.704 24.768,25.704 C24.504,25.704 24.302,25.796 24.161,25.979 C24.021,26.164 23.951,26.431 23.951,26.78 C23.951,27.494 24.237,27.852 24.808,27.852 C24.917,27.852 25.026,27.839 25.136,27.812 C25.245,27.785 25.337,27.748 25.411,27.7 L25.411,27.336 C25.323,27.368 25.235,27.394 25.146,27.414 C25.057,27.434 24.98,27.443 24.92,27.443 C24.757,27.443 24.64,27.403 24.567,27.324 C24.496,27.244 24.456,27.107 24.447,26.916 L25.407,26.916 C25.435,26.801 25.447,26.675 25.447,26.536 L25.447,26.536 Z M23.668,25.735 C23.71,25.735 23.753,25.74 23.796,25.748 L23.796,26.231 C23.721,26.219 23.65,26.212 23.584,26.212 C23.455,26.212 23.334,26.244 23.22,26.308 L23.22,27.8 L22.672,27.8 L22.672,25.756 L23.119,25.756 L23.18,26.02 C23.26,25.921 23.339,25.85 23.418,25.804 C23.496,25.759 23.579,25.735 23.668,25.735 L23.668,25.735 Z M29.18,27.8 L29.728,27.8 L29.728,25.756 L29.18,25.756 L29.18,27.8 Z M31.096,27.34 C31.008,27.425 30.92,27.468 30.832,27.468 C30.775,27.468 30.73,27.444 30.697,27.397 C30.664,27.352 30.647,27.288 30.647,27.208 C30.647,27.114 30.668,27.043 30.71,26.994 C30.751,26.944 30.811,26.92 30.888,26.92 C30.968,26.92 31.037,26.929 31.096,26.948 L31.096,27.34 Z M30.787,26.596 C30.588,26.596 30.429,26.653 30.312,26.77 C30.194,26.886 30.136,27.044 30.136,27.244 C30.136,27.434 30.184,27.582 30.279,27.689 C30.376,27.798 30.506,27.852 30.672,27.852 C30.76,27.852 30.847,27.83 30.932,27.786 C31.017,27.742 31.082,27.686 31.128,27.616 L31.176,27.8 L31.6,27.8 L31.6,26.368 C31.6,26.136 31.548,25.967 31.443,25.861 C31.34,25.757 31.172,25.704 30.939,25.704 C30.809,25.704 30.681,25.719 30.556,25.748 C30.431,25.777 30.329,25.817 30.252,25.868 L30.252,26.231 C30.483,26.146 30.68,26.104 30.84,26.104 C30.938,26.104 31.006,26.129 31.042,26.178 C31.077,26.228 31.096,26.321 31.096,26.46 L31.096,26.644 C30.973,26.611 30.87,26.596 30.787,26.596 L30.787,26.596 Z M21.832,26.572 L21.296,26.572 C21.307,26.241 21.408,26.076 21.601,26.076 C21.681,26.076 21.739,26.107 21.776,26.17 C21.813,26.232 21.832,26.336 21.832,26.479 L21.832,26.572 Z M22.296,26.536 C22.296,25.981 22.069,25.704 21.616,25.704 C21.353,25.704 21.15,25.796 21.01,25.979 C20.87,26.164 20.8,26.431 20.8,26.78 C20.8,27.494 21.086,27.852 21.656,27.852 C21.766,27.852 21.875,27.839 21.984,27.812 C22.094,27.785 22.186,27.748 22.26,27.7 L22.26,27.336 C22.172,27.368 22.084,27.394 21.994,27.414 C21.905,27.434 21.829,27.443 21.769,27.443 C21.605,27.443 21.488,27.403 21.416,27.324 C21.345,27.244 21.305,27.107 21.296,26.916 L22.256,26.916 C22.283,26.801 22.296,26.675 22.296,26.536 L22.296,26.536 Z" id="Amazon-EC2-AWS-Inferentia_Resource-Icon_light-bg" fill="#D45B07"></path>
    </g>
</svg>