<?xml version="1.0" encoding="UTF-8"?>
<svg width="48px" height="48px" viewBox="0 0 48 48" version="1.1" xmlns="http://www.w3.org/2000/svg" xmlns:xlink="http://www.w3.org/1999/xlink">
    <title>Icon-Resource/Compute/Res_Amazon-EC2_Im4gn-Instance_48_Light</title>
    <g id="Icon-Resource/Compute/Res_Amazon-EC2_Im4gn-Instance_48" stroke="none" stroke-width="1" fill="none" fill-rule="evenodd">
        <path d="M9,39 L39,39 L39,9 L9,9 L9,39 Z M41,13 L41,17 L46,17 L46,19 L41,19 L41,23 L46,23 L46,25 L41,25 L41,29 L46,29 L46,31 L41,31 L41,35 L46,35 L46,37 L41,37 L41,40 C41,40.552 40.552,41 40,41 L37,41 L37,46 L35,46 L35,41 L31,41 L31,46 L29,46 L29,41 L25,41 L25,46 L23,46 L23,41 L19,41 L19,46 L17,46 L17,41 L13,41 L13,46 L11,46 L11,41 L8,41 C7.448,41 7,40.552 7,40 L7,37 L2,37 L2,35 L7,35 L7,31 L2,31 L2,29 L7,29 L7,25 L2,25 L2,23 L7,23 L7,19 L2,19 L2,17 L7,17 L7,13 L2,13 L2,11 L7,11 L7,8 C7,7.448 7.448,7 8,7 L11,7 L11,2 L13,2 L13,7 L17,7 L17,2 L19,2 L19,7 L23,7 L23,2 L25,2 L25,7 L29,7 L29,2 L31,2 L31,7 L35,7 L35,2 L37,2 L37,7 L40,7 C40.552,7 41,7.448 41,8 L41,11 L46,11 L46,13 L41,13 Z M33.581,23.053 C34.018,22.774 34.445,22.634 34.863,22.634 C35.142,22.634 35.344,22.706 35.471,22.848 C35.598,22.991 35.661,23.217 35.661,23.527 L35.661,26.729 L36.782,26.729 L36.782,23.176 C36.782,22.714 36.662,22.361 36.421,22.117 C36.18,21.873 35.829,21.751 35.366,21.751 C34.72,21.751 34.1,21.976 33.504,22.425 L33.391,21.894 L32.459,21.894 L32.459,26.729 L33.581,26.729 L33.581,23.053 Z M28.08,24.173 C28.08,25.237 28.457,25.77 29.21,25.77 C29.584,25.77 29.938,25.646 30.274,25.399 L30.274,22.967 C29.945,22.739 29.594,22.625 29.22,22.625 C28.833,22.625 28.547,22.752 28.36,23.005 C28.173,23.258 28.08,23.648 28.08,24.173 L28.08,24.173 Z M27.467,25.974 C27.116,25.534 26.94,24.946 26.94,24.211 C26.94,23.73 27.019,23.304 27.177,22.934 C27.335,22.563 27.563,22.273 27.861,22.064 C28.159,21.855 28.511,21.751 28.916,21.751 C29.467,21.751 29.945,21.944 30.351,22.331 L30.445,21.894 L31.396,21.894 L31.396,26.396 C31.396,27.163 31.187,27.755 30.77,28.173 C30.354,28.591 29.76,28.8 28.99,28.8 C28.405,28.8 27.851,28.67 27.33,28.411 L27.33,27.612 C27.918,27.809 28.447,27.907 28.916,27.907 C29.391,27.907 29.736,27.798 29.952,27.579 C30.167,27.361 30.274,27.004 30.274,26.511 L30.274,26.102 C29.863,26.457 29.397,26.634 28.878,26.634 C28.289,26.634 27.819,26.414 27.467,25.974 L27.467,25.974 Z M24.593,24.468 L24.593,21.57 L22.608,24.468 L24.593,24.468 Z M24.593,25.361 L21.477,25.361 L21.477,24.516 L24.546,20.146 L25.724,20.146 L25.724,24.468 L26.607,24.468 L26.607,25.361 L25.724,25.361 L25.724,26.729 L24.593,26.729 L24.593,25.361 Z M14.732,22.986 C14.929,22.872 15.133,22.785 15.345,22.725 C15.557,22.665 15.755,22.634 15.939,22.634 C16.198,22.634 16.385,22.698 16.499,22.825 C16.613,22.951 16.67,23.16 16.67,23.452 L16.67,26.729 L17.791,26.729 L17.791,22.986 C17.956,22.885 18.149,22.801 18.371,22.734 C18.592,22.668 18.801,22.634 18.998,22.634 C19.257,22.634 19.444,22.698 19.558,22.825 C19.672,22.951 19.729,23.16 19.729,23.452 L19.729,26.729 L20.85,26.729 L20.85,23.176 C20.85,22.714 20.727,22.361 20.48,22.117 C20.233,21.873 19.884,21.751 19.435,21.751 C18.852,21.751 18.244,21.97 17.611,22.407 C17.389,21.97 16.984,21.751 16.395,21.751 C16.11,21.751 15.826,21.802 15.544,21.903 C15.263,22.004 14.963,22.163 14.647,22.378 L14.542,21.894 L13.611,21.894 L13.611,26.729 L14.732,26.729 L14.732,22.986 Z M11.237,26.729 L12.396,26.729 L12.396,20.146 L11.237,20.146 L11.237,26.729 Z" id="Fill-1" fill="#D45B07"></path>
    </g>
</svg>