<?xml version="1.0" encoding="UTF-8"?>
<svg width="48px" height="48px" viewBox="0 0 48 48" version="1.1" xmlns="http://www.w3.org/2000/svg" xmlns:xlink="http://www.w3.org/1999/xlink">
    <title>Icon-Resource/Compute/Res_Amazon-EC2_Is4gen-Instance_48_Light</title>
    <g id="Icon-Resource/Compute/Res_Amazon-EC2_Is4gen-Instance_48" stroke="none" stroke-width="1" fill="none" fill-rule="evenodd">
        <path d="M9,39 L39,39 L39,9 L9,9 L9,39 Z M41,13 L41,17 L46,17 L46,19 L41,19 L41,23 L46,23 L46,25 L41,25 L41,29 L46,29 L46,31 L41,31 L41,35 L46,35 L46,37 L41,37 L41,40 C41,40.552 40.552,41 40,41 L37,41 L37,46 L35,46 L35,41 L31,41 L31,46 L29,46 L29,41 L25,41 L25,46 L23,46 L23,41 L19,41 L19,46 L17,46 L17,41 L13,41 L13,46 L11,46 L11,41 L8,41 C7.448,41 7,40.552 7,40 L7,37 L2,37 L2,35 L7,35 L7,31 L2,31 L2,29 L7,29 L7,25 L2,25 L2,23 L7,23 L7,19 L2,19 L2,17 L7,17 L7,13 L2,13 L2,11 L7,11 L7,8 C7,7.448 7.448,7 8,7 L11,7 L11,2 L13,2 L13,7 L17,7 L17,2 L19,2 L19,7 L23,7 L23,2 L25,2 L25,7 L29,7 L29,2 L31,2 L31,7 L35,7 L35,2 L37,2 L37,7 L40,7 C40.552,7 41,7.448 41,8 L41,11 L46,11 L46,13 L41,13 Z M33.756,23.053 C34.193,22.774 34.62,22.634 35.038,22.634 C35.317,22.634 35.52,22.706 35.646,22.848 C35.773,22.991 35.836,23.217 35.836,23.527 L35.836,26.729 L36.957,26.729 L36.957,23.176 C36.957,22.714 36.837,22.361 36.596,22.117 C36.355,21.873 36.004,21.751 35.542,21.751 C34.896,21.751 34.275,21.976 33.68,22.425 L33.566,21.894 L32.635,21.894 L32.635,26.729 L33.756,26.729 L33.756,23.053 Z M28.75,23.832 L30.83,23.832 L30.83,23.755 C30.83,23.369 30.75,23.075 30.591,22.872 C30.432,22.669 30.199,22.568 29.893,22.568 C29.569,22.568 29.305,22.682 29.101,22.91 C28.896,23.138 28.779,23.445 28.75,23.832 L28.75,23.832 Z M28.227,26.226 C27.815,25.795 27.609,25.168 27.609,24.345 C27.609,23.527 27.811,22.891 28.212,22.435 C28.615,21.979 29.177,21.751 29.899,21.751 C30.52,21.751 30.996,21.92 31.329,22.259 C31.661,22.598 31.827,23.078 31.827,23.699 C31.827,24.028 31.8,24.322 31.745,24.582 L28.75,24.582 C28.768,25.063 28.897,25.417 29.139,25.641 C29.381,25.866 29.753,25.979 30.254,25.979 C30.707,25.979 31.197,25.89 31.723,25.712 L31.723,26.501 C31.507,26.615 31.252,26.705 30.958,26.772 C30.664,26.838 30.358,26.872 30.042,26.872 C29.243,26.872 28.639,26.656 28.227,26.226 L28.227,26.226 Z M23.477,24.173 C23.477,25.237 23.854,25.77 24.607,25.77 C24.981,25.77 25.335,25.646 25.671,25.399 L25.671,22.967 C25.342,22.739 24.991,22.625 24.617,22.625 C24.23,22.625 23.944,22.752 23.757,23.005 C23.57,23.258 23.477,23.648 23.477,24.173 L23.477,24.173 Z M22.864,25.974 C22.513,25.534 22.337,24.946 22.337,24.211 C22.337,23.73 22.416,23.304 22.574,22.934 C22.732,22.563 22.96,22.273 23.258,22.064 C23.556,21.855 23.908,21.751 24.313,21.751 C24.864,21.751 25.342,21.944 25.748,22.331 L25.842,21.894 L26.792,21.894 L26.792,26.396 C26.792,27.163 26.584,27.755 26.167,28.173 C25.75,28.591 25.157,28.8 24.387,28.8 C23.802,28.8 23.248,28.67 22.727,28.411 L22.727,27.612 C23.315,27.809 23.844,27.907 24.313,27.907 C24.788,27.907 25.133,27.798 25.349,27.579 C25.563,27.361 25.671,27.004 25.671,26.511 L25.671,26.102 C25.26,26.457 24.794,26.634 24.275,26.634 C23.686,26.634 23.216,26.414 22.864,25.974 L22.864,25.974 Z M19.991,24.468 L19.991,21.57 L18.005,24.468 L19.991,24.468 Z M19.991,25.361 L16.875,25.361 L16.875,24.516 L19.943,20.146 L21.121,20.146 L21.121,24.468 L22.005,24.468 L22.005,25.361 L21.121,25.361 L21.121,26.729 L19.991,26.729 L19.991,25.361 Z M14.718,26.872 C15.326,26.872 15.801,26.734 16.143,26.458 C16.485,26.183 16.656,25.808 16.656,25.333 C16.656,25.022 16.572,24.766 16.403,24.563 C16.235,24.36 15.96,24.186 15.578,24.041 L14.844,23.755 C14.59,23.654 14.414,23.561 14.315,23.475 C14.216,23.39 14.167,23.277 14.167,23.138 C14.167,22.955 14.235,22.82 14.372,22.734 C14.509,22.649 14.724,22.606 15.016,22.606 C15.429,22.606 15.884,22.685 16.38,22.843 L16.38,22.055 C15.956,21.853 15.481,21.751 14.956,21.751 C14.404,21.751 13.964,21.879 13.635,22.136 C13.306,22.392 13.141,22.742 13.141,23.186 C13.141,23.8 13.497,24.243 14.209,24.516 L15,24.819 C15.242,24.908 15.407,24.995 15.497,25.081 C15.585,25.166 15.63,25.279 15.63,25.418 C15.63,25.621 15.557,25.771 15.411,25.869 C15.264,25.967 15.032,26.017 14.714,26.017 C14.244,26.017 13.704,25.918 13.093,25.722 L13.093,26.511 C13.309,26.625 13.559,26.713 13.844,26.776 C14.129,26.84 14.42,26.872 14.718,26.872 L14.718,26.872 Z M11.061,26.729 L12.22,26.729 L12.22,20.146 L11.061,20.146 L11.061,26.729 Z" id="Fill-1" fill="#D45B07"></path>
    </g>
</svg>