<?xml version="1.0" encoding="UTF-8"?>
<svg width="48px" height="48px" viewBox="0 0 48 48" version="1.1" xmlns="http://www.w3.org/2000/svg" xmlns:xlink="http://www.w3.org/1999/xlink">
    <title>Icon-Resource/Compute/Res_Amazon-EC2_I3-Instance_48_Light</title>
    <g id="Icon-Resource/Compute/Res_Amazon-EC2_I3-Instance_48" stroke="none" stroke-width="1" fill="none" fill-rule="evenodd">
        <path d="M25.357,29.011 C24.461,29.011 23.584,28.824 22.725,28.45 L22.725,27.135 C23.746,27.48 24.604,27.653 25.299,27.653 C25.959,27.653 26.466,27.506 26.823,27.212 C27.18,26.918 27.359,26.5 27.359,25.959 C27.359,24.932 26.711,24.419 25.416,24.419 C25,24.419 24.55,24.447 24.069,24.503 L24.069,23.425 L26.827,20.429 L22.865,20.429 L22.865,19.099 L28.647,19.099 L28.647,20.372 L25.735,23.229 C25.864,23.22 25.993,23.215 26.122,23.215 C26.668,23.215 27.161,23.329 27.602,23.558 C28.044,23.786 28.396,24.111 28.659,24.531 C28.921,24.95 29.053,25.432 29.053,25.973 C29.053,26.561 28.904,27.083 28.605,27.541 C28.306,27.998 27.877,28.358 27.317,28.618 C26.757,28.88 26.104,29.011 25.357,29.011 L25.357,29.011 Z M18.945,28.801 L20.653,28.801 L20.653,19.099 L18.945,19.099 L18.945,28.801 Z M9,39 L39,39 L39,9 L9,9 L9,39 Z M46,13 L46,11 L41,11 L41,8 C41,7.448 40.552,7 40,7 L37,7 L37,2 L35,2 L35,7 L31,7 L31,2 L29,2 L29,7 L25,7 L25,2 L23,2 L23,7 L19,7 L19,2 L17,2 L17,7 L13,7 L13,2 L11,2 L11,7 L8,7 C7.447,7 7,7.448 7,8 L7,11 L2,11 L2,13 L7,13 L7,17 L2,17 L2,19 L7,19 L7,23 L2,23 L2,25 L7,25 L7,29 L2,29 L2,31 L7,31 L7,35 L2,35 L2,37 L7,37 L7,40 C7,40.553 7.447,41 8,41 L11,41 L11,46 L13,46 L13,41 L17,41 L17,46 L19,46 L19,41 L23,41 L23,46 L25,46 L25,41 L29,41 L29,46 L31,46 L31,41 L35,41 L35,46 L37,46 L37,41 L40,41 C40.552,41 41,40.553 41,40 L41,37 L46,37 L46,35 L41,35 L41,31 L46,31 L46,29 L41,29 L41,25 L46,25 L46,23 L41,23 L41,19 L46,19 L46,17 L41,17 L41,13 L46,13 Z" id="Amazon-EC2-I3-Instance_Resource-Icon_light-bg" fill="#D45B07"></path>
    </g>
</svg>