<?xml version="1.0" encoding="UTF-8"?>
<svg width="48px" height="48px" viewBox="0 0 48 48" version="1.1" xmlns="http://www.w3.org/2000/svg" xmlns:xlink="http://www.w3.org/1999/xlink">
    <title>Icon-Resource/Compute/Res_Amazon-EC2_Instance-with-CloudWatch_48_Light</title>
    <g id="Icon-Resource/Compute/Res_Amazon-EC2_Instance-with-CloudWatch_48" stroke="none" stroke-width="1" fill="none" fill-rule="evenodd">
        <path d="M37.545,37.089 C37.325,37.308 36.971,37.308 36.753,37.089 L32.934,33.272 C33.216,33.019 33.48,32.746 33.718,32.451 L37.547,36.298 C37.764,36.516 37.763,36.87 37.545,37.089 L37.545,37.089 Z M23.418,28.123 C23.418,25.413 25.623,23.208 28.333,23.208 C31.043,23.208 33.248,25.413 33.248,28.123 C33.248,30.833 31.043,33.038 28.333,33.038 C25.623,33.038 23.418,30.833 23.418,28.123 L23.418,28.123 Z M34.759,30.662 C35.071,29.875 35.248,29.02 35.248,28.123 C35.248,24.311 32.146,21.208 28.333,21.208 C24.521,21.208 21.418,24.311 21.418,28.123 C21.418,31.936 24.521,35.038 28.333,35.038 C29.367,35.038 30.346,34.803 31.229,34.395 L35.339,38.503 C35.838,39.002 36.493,39.252 37.149,39.252 C37.805,39.252 38.46,39.002 38.959,38.503 C39.956,37.506 39.958,35.884 38.964,34.887 L34.759,30.662 Z M30.254,24.945 L29.065,26.553 C28.309,25.994 27.246,26.155 26.691,26.905 C26.42,27.27 26.309,27.717 26.375,28.165 C26.441,28.613 26.679,29.009 27.043,29.278 L25.852,30.886 C25.059,30.298 24.542,29.436 24.397,28.459 C24.252,27.483 24.495,26.507 25.083,25.714 C26.298,24.076 28.617,23.733 30.254,24.945 L30.254,24.945 Z M39.76,25.443 C39.76,28.56 38.066,30.161 36.647,30.956 L35.67,29.21 C37.057,28.435 37.76,27.167 37.76,25.443 C37.76,22.107 34.975,21.274 33.777,21.07 C33.511,21.025 33.273,20.872 33.12,20.649 C32.984,20.45 32.926,20.211 32.951,19.975 C32.778,18.01 31.664,17.128 30.619,17.128 C29.969,17.128 29.355,17.453 28.935,18.02 C28.714,18.316 28.351,18.463 27.983,18.413 C27.619,18.359 27.314,18.108 27.19,17.76 C26.757,16.55 26.136,15.535 25.344,14.742 C24.378,13.777 21.73,11.704 17.991,13.283 C15.838,14.191 14.151,16.81 14.151,19.245 C14.151,19.52 14.167,19.794 14.199,20.059 C14.233,20.342 14.144,20.627 13.954,20.841 C13.809,21.004 13.615,21.114 13.403,21.157 C12.161,21.484 10.133,22.467 10.133,25.399 C10.133,27.642 11.355,28.878 12.38,29.52 C12.694,29.72 13.066,29.826 13.458,29.83 L20.244,29.837 L20.242,31.837 L13.446,31.83 C12.671,31.822 11.936,31.609 11.312,31.211 C10.128,30.47 8.133,28.724 8.133,25.399 C8.133,22.576 9.619,20.408 12.154,19.458 C12.152,19.387 12.151,19.317 12.151,19.245 C12.151,16.012 14.327,12.656 17.213,11.441 C20.587,10.017 24.153,10.723 26.758,13.328 C27.444,14.015 28.025,14.822 28.494,15.741 C29.129,15.344 29.858,15.128 30.619,15.128 C32.41,15.128 34.417,16.429 34.877,19.266 C37.36,19.936 39.76,21.842 39.76,25.443 L39.76,25.443 Z M43.827,39.38 C43.827,41.832 41.832,43.827 39.379,43.827 L8.448,43.827 C5.995,43.827 4,41.832 4,39.38 L4,8.448 C4,5.995 5.995,4 8.448,4 L39.379,4 C41.832,4 43.827,5.995 43.827,8.448 L43.827,39.38 Z M39.379,2 L8.448,2 C4.893,2 2,4.893 2,8.448 L2,39.38 C2,42.935 4.893,45.827 8.448,45.827 L39.379,45.827 C42.935,45.827 45.827,42.935 45.827,39.38 L45.827,8.448 C45.827,4.893 42.935,2 39.379,2 L39.379,2 Z" id="Amazon-EC2-Instance-with-CloudWatch_Resource-Icon_light-bg" fill="#D45B07"></path>
    </g>
</svg>