<?xml version="1.0" encoding="UTF-8"?>
<svg width="48px" height="48px" viewBox="0 0 48 48" version="1.1" xmlns="http://www.w3.org/2000/svg" xmlns:xlink="http://www.w3.org/1999/xlink">
    <title>Icon-Resource/Compute/Res_Amazon-EC2_I3en_48_Light</title>
    <g id="Icon-Resource/Compute/Res_Amazon-EC2_I3en_48" stroke="none" stroke-width="1" fill="none" fill-rule="evenodd">
        <path d="M9,39 L39,39 L39,9 L9,9 L9,39 Z M41,13 L41,17 L46,17 L46,19 L41,19 L41,23 L46,23 L46,25 L41,25 L41,29 L46,29 L46,31 L41,31 L41,35 L46,35 L46,37 L41,37 L41,40 C41,40.552 40.552,41 40,41 L37,41 L37,46 L35,46 L35,41 L31,41 L31,46 L29,46 L29,41 L25,41 L25,46 L23,46 L23,41 L19,41 L19,46 L17,46 L17,41 L13,41 L13,46 L11,46 L11,41 L8,41 C7.448,41 7,40.552 7,40 L7,37 L2,37 L2,35 L7,35 L7,31 L2,31 L2,29 L7,29 L7,25 L2,25 L2,23 L7,23 L7,19 L2,19 L2,17 L7,17 L7,13 L2,13 L2,11 L7,11 L7,8 C7,7.448 7.448,7 8,7 L11,7 L11,2 L13,2 L13,7 L17,7 L17,2 L19,2 L19,7 L23,7 L23,2 L25,2 L25,7 L29,7 L29,2 L31,2 L31,7 L35,7 L35,2 L37,2 L37,7 L40,7 C40.552,7 41,7.448 41,8 L41,11 L46,11 L46,13 L41,13 Z M30.182,23.472 C30.688,23.149 31.183,22.988 31.667,22.988 C31.989,22.988 32.224,23.07 32.371,23.235 C32.518,23.4 32.591,23.663 32.591,24.022 L32.591,27.729 L33.889,27.729 L33.889,23.615 C33.889,23.08 33.75,22.671 33.471,22.389 C33.192,22.106 32.785,21.965 32.25,21.965 C31.502,21.965 30.783,22.226 30.094,22.746 L29.962,22.13 L28.884,22.13 L28.884,27.729 L30.182,27.729 L30.182,23.472 Z M24.275,24.374 L26.684,24.374 L26.684,24.286 C26.684,23.839 26.592,23.498 26.407,23.263 C26.223,23.028 25.954,22.911 25.599,22.911 C25.224,22.911 24.917,23.043 24.681,23.307 C24.445,23.571 24.31,23.927 24.275,24.374 L24.275,24.374 Z M23.67,27.146 C23.193,26.647 22.955,25.921 22.955,24.968 C22.955,24.022 23.187,23.285 23.653,22.757 C24.119,22.229 24.77,21.965 25.606,21.965 C26.324,21.965 26.876,22.161 27.261,22.554 C27.646,22.946 27.839,23.501 27.839,24.22 C27.839,24.602 27.807,24.942 27.743,25.243 L24.275,25.243 C24.296,25.8 24.446,26.209 24.726,26.47 C25.006,26.73 25.437,26.86 26.018,26.86 C26.542,26.86 27.108,26.757 27.718,26.552 L27.718,27.465 C27.468,27.597 27.173,27.702 26.832,27.778 C26.491,27.855 26.137,27.894 25.771,27.894 C24.847,27.894 24.146,27.645 23.67,27.146 L23.67,27.146 Z M20.513,27.586 C20.953,27.381 21.29,27.099 21.524,26.739 C21.759,26.38 21.876,25.969 21.876,25.507 C21.876,25.082 21.773,24.704 21.567,24.374 C21.36,24.044 21.083,23.789 20.737,23.609 C20.39,23.43 20.002,23.34 19.574,23.34 C19.472,23.34 19.371,23.344 19.27,23.351 L21.558,21.107 L21.558,20.106 L17.015,20.106 L17.015,21.151 L20.127,21.151 L17.96,23.505 L17.96,24.352 C18.339,24.308 18.691,24.286 19.019,24.286 C20.037,24.286 20.546,24.689 20.546,25.496 C20.546,25.921 20.405,26.25 20.125,26.48 C19.844,26.711 19.445,26.827 18.927,26.827 C18.381,26.827 17.707,26.691 16.905,26.42 L16.905,27.454 C17.579,27.747 18.269,27.894 18.973,27.894 C19.559,27.894 20.073,27.791 20.513,27.586 L20.513,27.586 Z M14.155,27.729 L15.497,27.729 L15.497,20.106 L14.155,20.106 L14.155,27.729 Z" id="Fill-1" fill="#D45B07"></path>
    </g>
</svg>