<?xml version="1.0" encoding="UTF-8"?>
<svg width="48px" height="48px" viewBox="0 0 48 48" version="1.1" xmlns="http://www.w3.org/2000/svg" xmlns:xlink="http://www.w3.org/1999/xlink">
    <title>Icon-Resource/Compute/Res_Amazon-EC2_Mac_48_Light</title>
    <g id="Icon-Resource/Compute/Res_Amazon-EC2_Mac_48" stroke="none" stroke-width="1" fill="none" fill-rule="evenodd">
        <path d="M9,39 L39,39 L39,9 L9,9 L9,39 Z M41,13 L41,17 L46,17 L46,19 L41,19 L41,23 L46,23 L46,25 L41,25 L41,29 L46,29 L46,31 L41,31 L41,35 L46,35 L46,37 L41,37 L41,40 C41,40.552 40.552,41 40,41 L37,41 L37,46 L35,46 L35,41 L31,41 L31,46 L29,46 L29,41 L25,41 L25,46 L23,46 L23,41 L19,41 L19,46 L17,46 L17,41 L13,41 L13,46 L11,46 L11,41 L8,41 C7.448,41 7,40.552 7,40 L7,37 L2,37 L2,35 L7,35 L7,31 L2,31 L2,29 L7,29 L7,25 L2,25 L2,23 L7,23 L7,19 L2,19 L2,17 L7,17 L7,13 L2,13 L2,11 L7,11 L7,8 C7,7.448 7.448,7 8,7 L11,7 L11,2 L13,2 L13,7 L17,7 L17,2 L19,2 L19,7 L23,7 L23,2 L25,2 L25,7 L29,7 L29,2 L31,2 L31,7 L35,7 L35,2 L37,2 L37,7 L40,7 C40.552,7 41,7.448 41,8 L41,11 L46,11 L46,13 L41,13 Z M34.127,27.883 C34.892,27.883 35.55,27.738 36.101,27.449 L36.101,26.287 C35.503,26.474 34.953,26.567 34.449,26.567 C33.749,26.567 33.233,26.38 32.902,26.007 C32.571,25.634 32.405,25.055 32.405,24.271 L32.405,24.089 C32.405,23.296 32.571,22.71 32.902,22.332 C33.233,21.954 33.749,21.765 34.449,21.765 C34.888,21.765 35.419,21.854 36.045,22.031 L36.045,20.869 C35.485,20.589 34.864,20.449 34.183,20.449 C33.091,20.449 32.242,20.78 31.635,21.443 C31.028,22.106 30.725,23.034 30.725,24.229 C30.725,25.396 31.019,26.296 31.607,26.931 C32.195,27.566 33.035,27.883 34.127,27.883 L34.127,27.883 Z M27.841,24.747 C27.359,24.645 26.931,24.593 26.558,24.593 C25.612,24.593 25.139,24.971 25.139,25.727 C25.139,26.054 25.229,26.308 25.412,26.49 C25.594,26.672 25.844,26.763 26.163,26.763 C26.426,26.763 26.704,26.705 26.995,26.588 C27.286,26.471 27.568,26.306 27.841,26.091 L27.841,24.747 Z M27.841,23.767 L27.841,22.941 C27.841,22.465 27.738,22.134 27.533,21.947 C27.328,21.76 26.968,21.667 26.455,21.667 C25.727,21.667 24.892,21.821 23.949,22.129 L23.949,20.967 C24.3,20.79 24.73,20.65 25.239,20.547 C25.747,20.444 26.258,20.393 26.771,20.393 C27.702,20.393 28.388,20.58 28.83,20.953 C29.272,21.326 29.493,21.91 29.493,22.703 L29.493,27.729 L28.051,27.729 L27.925,27.043 C27.598,27.323 27.236,27.542 26.84,27.701 C26.443,27.859 26.049,27.939 25.657,27.939 C25.003,27.939 24.474,27.743 24.068,27.351 C23.662,26.959 23.459,26.45 23.459,25.825 C23.459,25.134 23.708,24.584 24.208,24.173 C24.707,23.762 25.377,23.557 26.217,23.557 C26.711,23.557 27.253,23.627 27.841,23.767 L27.841,23.767 Z M13.995,27.729 L12.427,27.729 L12.427,18.027 L14.331,18.027 L17.243,23.809 L20.211,18.027 L22.059,18.027 L22.059,27.729 L20.491,27.729 L20.491,20.463 L17.971,25.293 L16.431,25.293 L13.995,20.491 L13.995,27.729 Z" id="Fill-1" fill="#D45B07"></path>
    </g>
</svg>