<?xml version="1.0" encoding="UTF-8"?>
<svg width="48px" height="48px" viewBox="0 0 48 48" version="1.1" xmlns="http://www.w3.org/2000/svg" xmlns:xlink="http://www.w3.org/1999/xlink">
    <title>Icon-Resource/Compute/Res_Amazon-EC2_M5d_48_Light</title>
    <g id="Icon-Resource/Compute/Res_Amazon-EC2_M5d_48" stroke="none" stroke-width="1" fill="none" fill-rule="evenodd">
        <path d="M9,39 L39,39 L39,9 L9,9 L9,39 Z M41,13 L41,17 L46,17 L46,19 L41,19 L41,23 L46,23 L46,25 L41,25 L41,29 L46,29 L46,31 L41,31 L41,35 L46,35 L46,37 L41,37 L41,40 C41,40.552 40.552,41 40,41 L37,41 L37,46 L35,46 L35,41 L31,41 L31,46 L29,46 L29,41 L25,41 L25,46 L23,46 L23,41 L19,41 L19,46 L17,46 L17,41 L13,41 L13,46 L11,46 L11,41 L8,41 C7.448,41 7,40.552 7,40 L7,37 L2,37 L2,35 L7,35 L7,31 L2,31 L2,29 L7,29 L7,25 L2,25 L2,23 L7,23 L7,19 L2,19 L2,17 L7,17 L7,13 L2,13 L2,11 L7,11 L7,8 C7,7.448 7.448,7 8,7 L11,7 L11,2 L13,2 L13,7 L17,7 L17,2 L19,2 L19,7 L23,7 L23,2 L25,2 L25,7 L29,7 L29,2 L31,2 L31,7 L35,7 L35,2 L37,2 L37,7 L40,7 C40.552,7 41,7.448 41,8 L41,11 L46,11 L46,13 L41,13 Z M31.832,24.117 C31.832,25.76 32.429,26.581 33.624,26.581 C34.174,26.581 34.71,26.404 35.233,26.049 L35.233,22.199 C34.757,21.863 34.23,21.695 33.651,21.695 C33.026,21.695 32.566,21.894 32.272,22.29 C31.979,22.687 31.832,23.296 31.832,24.117 L31.832,24.117 Z M30.957,26.882 C30.419,26.215 30.151,25.316 30.151,24.187 C30.151,23.44 30.272,22.782 30.515,22.213 C30.758,21.644 31.108,21.198 31.565,20.876 C32.022,20.554 32.564,20.393 33.189,20.393 C33.936,20.393 34.617,20.636 35.233,21.121 L35.233,17.369 L36.885,17.369 L36.885,27.729 L35.471,27.729 L35.303,27.043 C34.668,27.603 33.936,27.883 33.105,27.883 C32.209,27.883 31.493,27.549 30.957,26.882 L30.957,26.882 Z M27.883,27.078 C28.555,26.504 28.891,25.732 28.891,24.761 C28.891,23.856 28.613,23.142 28.056,22.619 C27.5,22.096 26.736,21.835 25.766,21.835 C25.339,21.835 24.934,21.873 24.551,21.947 L24.71,19.357 L28.415,19.357 L28.415,18.027 L23.151,18.027 L22.885,22.199 L22.885,23.263 C23.738,23.17 24.448,23.123 25.013,23.123 C25.773,23.123 26.328,23.256 26.675,23.522 C27.023,23.788 27.197,24.21 27.197,24.789 C27.197,25.984 26.506,26.581 25.123,26.581 C24.381,26.581 23.5,26.408 22.479,26.063 L22.479,27.379 C23.337,27.752 24.233,27.939 25.167,27.939 C26.306,27.939 27.211,27.652 27.883,27.078 L27.883,27.078 Z M12.679,27.729 L11.111,27.729 L11.111,18.027 L13.015,18.027 L15.927,23.809 L18.896,18.027 L20.743,18.027 L20.743,27.729 L19.175,27.729 L19.175,20.463 L16.655,25.293 L15.115,25.293 L12.679,20.491 L12.679,27.729 Z" id="Fill-1" fill="#D45B07"></path>
    </g>
</svg>