<?xml version="1.0" encoding="UTF-8"?>
<svg width="48px" height="48px" viewBox="0 0 48 48" version="1.1" xmlns="http://www.w3.org/2000/svg" xmlns:xlink="http://www.w3.org/1999/xlink">
    <title>Icon-Resource/Compute/Res_Amazon-EC2_M5-Instance_48_Light</title>
    <g id="Icon-Resource/Compute/Res_Amazon-EC2_M5-Instance_48" stroke="none" stroke-width="1" fill="none" fill-rule="evenodd">
        <path d="M29.306,29.066 C28.372,29.066 27.477,28.879 26.618,28.505 L26.618,27.19 C27.638,27.535 28.52,27.708 29.262,27.708 C30.645,27.708 31.336,27.111 31.336,25.916 C31.336,25.337 31.162,24.915 30.814,24.649 C30.466,24.382 29.912,24.25 29.153,24.25 C28.586,24.25 27.877,24.296 27.024,24.39 L27.024,23.326 L27.29,19.154 L32.554,19.154 L32.554,20.484 L28.849,20.484 L28.69,23.074 C29.073,23 29.478,22.962 29.906,22.962 C30.875,22.962 31.639,23.223 32.196,23.746 C32.751,24.268 33.03,24.983 33.03,25.888 C33.03,26.859 32.694,27.63 32.022,28.205 C31.35,28.779 30.445,29.066 29.306,29.066 L29.306,29.066 Z M16.538,28.856 L14.971,28.856 L14.971,19.154 L16.874,19.154 L19.786,24.936 L22.754,19.154 L24.603,19.154 L24.603,28.856 L23.035,28.856 L23.035,21.589 L20.515,26.42 L18.975,26.42 L16.538,21.618 L16.538,28.856 Z M9,39 L39,39 L39,9 L9,9 L9,39 Z M46,13 L46,11 L41,11 L41,8 C41,7.447 40.553,7 40,7 L37,7 L37,2 L35,2 L35,7 L31,7 L31,2 L29,2 L29,7 L25,7 L25,2 L23,2 L23,7 L19,7 L19,2 L17,2 L17,7 L13,7 L13,2 L11,2 L11,7 L8,7 C7.448,7 7,7.447 7,8 L7,11 L2,11 L2,13 L7,13 L7,17 L2,17 L2,19 L7,19 L7,23 L2,23 L2,25 L7,25 L7,29 L2,29 L2,31 L7,31 L7,35 L2,35 L2,37 L7,37 L7,40 C7,40.552 7.448,41 8,41 L11,41 L11,46 L13,46 L13,41 L17,41 L17,46 L19,46 L19,41 L23,41 L23,46 L25,46 L25,41 L29,41 L29,46 L31,46 L31,41 L35,41 L35,46 L37,46 L37,41 L40,41 C40.553,41 41,40.552 41,40 L41,37 L46,37 L46,35 L41,35 L41,31 L46,31 L46,29 L41,29 L41,25 L46,25 L46,23 L41,23 L41,19 L46,19 L46,17 L41,17 L41,13 L46,13 Z" id="Amazon-EC2-M5-Instance_Resource-Icon_light-bg" fill="#D45B07"></path>
    </g>
</svg>