<?xml version="1.0" encoding="UTF-8"?>
<svg width="48px" height="48px" viewBox="0 0 48 48" version="1.1" xmlns="http://www.w3.org/2000/svg" xmlns:xlink="http://www.w3.org/1999/xlink">
    <title>Icon-Resource/Compute/Res_Amazon-EC2_M5dn_48_Light</title>
    <g id="Icon-Resource/Compute/Res_Amazon-EC2_M5dn_48" stroke="none" stroke-width="1" fill="none" fill-rule="evenodd">
        <path d="M9,39 L39,39 L39,9 L9,9 L9,39 Z M41,13 L41,17 L46,17 L46,19 L41,19 L41,23 L46,23 L46,25 L41,25 L41,29 L46,29 L46,31 L41,31 L41,35 L46,35 L46,37 L41,37 L41,40 C41,40.552 40.552,41 40,41 L37,41 L37,46 L35,46 L35,41 L31,41 L31,46 L29,46 L29,41 L25,41 L25,46 L23,46 L23,41 L19,41 L19,46 L17,46 L17,41 L13,41 L13,46 L11,46 L11,41 L8,41 C7.448,41 7,40.552 7,40 L7,37 L2,37 L2,35 L7,35 L7,31 L2,31 L2,29 L7,29 L7,25 L2,25 L2,23 L7,23 L7,19 L2,19 L2,17 L7,17 L7,13 L2,13 L2,11 L7,11 L7,8 C7,7.448 7.448,7 8,7 L11,7 L11,2 L13,2 L13,7 L17,7 L17,2 L19,2 L19,7 L23,7 L23,2 L25,2 L25,7 L29,7 L29,2 L31,2 L31,7 L35,7 L35,2 L37,2 L37,7 L40,7 C40.552,7 41,7.448 41,8 L41,11 L46,11 L46,13 L41,13 Z M33.355,23.472 C33.861,23.149 34.356,22.988 34.84,22.988 C35.163,22.988 35.397,23.07 35.544,23.235 C35.691,23.4 35.764,23.663 35.764,24.022 L35.764,27.729 L37.062,27.729 L37.062,23.615 C37.062,23.08 36.923,22.671 36.644,22.389 C36.365,22.106 35.958,21.965 35.423,21.965 C34.675,21.965 33.957,22.226 33.267,22.746 L33.135,22.13 L32.057,22.13 L32.057,27.729 L33.355,27.729 L33.355,23.472 Z M26.887,24.891 C26.887,26.182 27.356,26.827 28.295,26.827 C28.728,26.827 29.149,26.688 29.56,26.409 L29.56,23.384 C29.186,23.12 28.771,22.988 28.317,22.988 C27.826,22.988 27.464,23.144 27.233,23.456 C27.002,23.767 26.887,24.246 26.887,24.891 L26.887,24.891 Z M26.2,27.063 C25.778,26.539 25.567,25.833 25.567,24.946 C25.567,24.359 25.662,23.842 25.853,23.395 C26.043,22.948 26.319,22.598 26.678,22.345 C27.037,22.091 27.462,21.965 27.954,21.965 C28.541,21.965 29.076,22.156 29.56,22.537 L29.56,19.589 L30.858,19.589 L30.858,27.729 L29.747,27.729 L29.615,27.19 C29.116,27.63 28.541,27.85 27.888,27.85 C27.184,27.85 26.621,27.588 26.2,27.063 L26.2,27.063 Z M23.95,27.217 C24.478,26.767 24.742,26.16 24.742,25.397 C24.742,24.686 24.523,24.125 24.086,23.714 C23.649,23.303 23.049,23.098 22.287,23.098 C21.951,23.098 21.633,23.127 21.332,23.186 L21.457,21.151 L24.368,21.151 L24.368,20.106 L20.232,20.106 L20.023,23.384 L20.023,24.22 C20.693,24.147 21.25,24.11 21.695,24.11 C22.292,24.11 22.728,24.214 23.001,24.423 C23.274,24.632 23.411,24.964 23.411,25.419 C23.411,26.358 22.868,26.827 21.782,26.827 C21.198,26.827 20.506,26.691 19.704,26.42 L19.704,27.454 C20.378,27.747 21.083,27.894 21.816,27.894 C22.71,27.894 23.422,27.668 23.95,27.217 L23.95,27.217 Z M12.169,27.729 L10.937,27.729 L10.937,20.106 L12.433,20.106 L14.721,24.649 L17.053,20.106 L18.505,20.106 L18.505,27.729 L17.273,27.729 L17.273,22.02 L15.293,25.815 L14.083,25.815 L12.169,22.042 L12.169,27.729 Z" id="Fill-1" fill="#D45B07"></path>
    </g>
</svg>