<?xml version="1.0" encoding="UTF-8"?>
<svg width="48px" height="48px" viewBox="0 0 48 48" version="1.1" xmlns="http://www.w3.org/2000/svg" xmlns:xlink="http://www.w3.org/1999/xlink">
    <title>Icon-Resource/Compute/Res_Amazon-EC2_M4-Instance_48_Light</title>
    <g id="Icon-Resource/Compute/Res_Amazon-EC2_M4-Instance_48" stroke="none" stroke-width="1" fill="none" fill-rule="evenodd">
        <path d="M27.891,25.562 L30.817,21.292 L30.817,25.562 L27.891,25.562 Z M30.817,28.894 L32.483,28.894 L32.483,26.878 L33.786,26.878 L33.786,25.562 L32.483,25.562 L32.483,19.193 L30.747,19.193 L26.225,25.632 L26.225,26.878 L30.817,26.878 L30.817,28.894 Z M16.663,28.894 L15.096,28.894 L15.096,19.193 L16.999,19.193 L19.912,24.974 L22.879,19.193 L24.728,19.193 L24.728,28.894 L23.16,28.894 L23.16,21.628 L20.64,26.458 L19.1,26.458 L16.663,21.657 L16.663,28.894 Z M9,39 L39,39 L39,9 L9,9 L9,39 Z M46,12.999 L46,10.999 L41,10.999 L41,8 C41,7.447 40.553,7 40,7 L37,7 L37,2 L35,2 L35,7 L31,7 L31,2 L29,2 L29,7 L25,7 L25,2 L23,2 L23,7 L19,7 L19,2 L17,2 L17,7 L13,7 L13,2 L11,2 L11,7 L8,7 C7.448,7 7,7.447 7,8 L7,10.999 L2,10.999 L2,12.999 L7,12.999 L7,16.999 L2,16.999 L2,19 L7,19 L7,22.999 L2,22.999 L2,25 L7,25 L7,29 L2,29 L2,30.999 L7,30.999 L7,35 L2,35 L2,37 L7,37 L7,40 C7,40.552 7.448,41 8,41 L11,41 L11,45.999 L13,45.999 L13,41 L17,41 L17,45.999 L19,45.999 L19,41 L23,41 L23,45.999 L25,45.999 L25,41 L29,41 L29,45.999 L31,45.999 L31,41 L35,41 L35,45.999 L37,45.999 L37,41 L40,41 C40.553,41 41,40.552 41,40 L41,37 L46,37 L46,35 L41,35 L41,30.999 L46,30.999 L46,29 L41,29 L41,25 L46,25 L46,22.999 L41,22.999 L41,19 L46,19 L46,16.999 L41,16.999 L41,12.999 L46,12.999 Z" id="Amazon-EC2-M4-Instance_Resource-Icon_light-bg" fill="#D45B07"></path>
    </g>
</svg>