<?xml version="1.0" encoding="UTF-8"?>
<svg width="48px" height="48px" viewBox="0 0 48 48" version="1.1" xmlns="http://www.w3.org/2000/svg" xmlns:xlink="http://www.w3.org/1999/xlink">
    <title>Icon-Resource/Compute/Res_Amazon-EC2_M5zn-Instance_48_Light</title>
    <g id="Icon-Resource/Compute/Res_Amazon-EC2_M5zn-Instance_48" stroke="none" stroke-width="1" fill="none" fill-rule="evenodd">
        <path d="M9,39 L39,39 L39,9 L9,9 L9,39 Z M46,13 L46,11 L41,11 L41,8 C41,7.448 40.553,7 40,7 L37,7 L37,2 L35,2 L35,7 L31,7 L31,2 L29,2 L29,7 L25,7 L25,2 L23,2 L23,7 L19,7 L19,2 L17,2 L17,7 L13,7 L13,2 L11,2 L11,7 L8,7 C7.447,7 7,7.448 7,8 L7,11 L2,11 L2,13 L7,13 L7,17 L2,17 L2,19 L7,19 L7,23 L2,23 L2,25 L7,25 L7,29 L2,29 L2,31 L7,31 L7,35 L2,35 L2,37 L7,37 L7,40 C7,40.552 7.447,41 8,41 L11,41 L11,46 L13,46 L13,41 L17,41 L17,46 L19,46 L19,41 L23,41 L23,46 L25,46 L25,41 L29,41 L29,46 L31,46 L31,41 L35,41 L35,46 L37,46 L37,41 L40,41 C40.553,41 41,40.552 41,40 L41,37 L46,37 L46,35 L41,35 L41,31 L46,31 L46,29 L41,29 L41,25 L46,25 L46,23 L41,23 L41,19 L46,19 L46,17 L41,17 L41,13 L46,13 Z M35.148,27.729 L35.148,24.022 C35.148,23.663 35.075,23.4 34.928,23.235 C34.781,23.07 34.547,22.988 34.225,22.988 C33.74,22.988 33.245,23.149 32.739,23.472 L32.739,27.729 L31.441,27.729 L31.441,22.13 L32.52,22.13 L32.651,22.746 C33.341,22.226 34.06,21.965 34.808,21.965 C35.343,21.965 35.749,22.106 36.028,22.389 C36.307,22.671 36.446,23.08 36.446,23.615 L36.446,27.729 L35.148,27.729 Z M25.941,27.729 L25.941,26.772 L29.065,23.12 L26.051,23.12 L26.051,22.13 L30.462,22.13 L30.462,23.087 L27.338,26.739 L30.495,26.739 L30.495,27.729 L25.941,27.729 Z M20.045,26.42 C20.847,26.691 21.539,26.827 22.123,26.827 C23.209,26.827 23.752,26.358 23.752,25.419 C23.752,24.964 23.615,24.632 23.342,24.423 C23.069,24.214 22.634,24.11 22.036,24.11 C21.592,24.11 21.034,24.147 20.364,24.22 L20.364,23.384 L20.573,20.106 L24.709,20.106 L24.709,21.151 L21.798,21.151 L21.673,23.186 C21.974,23.127 22.292,23.098 22.628,23.098 C23.391,23.098 23.99,23.303 24.427,23.714 C24.864,24.125 25.083,24.686 25.083,25.397 C25.083,26.16 24.819,26.767 24.291,27.217 C23.763,27.668 23.052,27.894 22.157,27.894 C21.424,27.894 20.72,27.747 20.045,27.454 L20.045,26.42 Z M17.889,27.729 L17.889,22.02 L15.909,25.815 L14.699,25.815 L12.785,22.042 L12.785,27.729 L11.553,27.729 L11.553,20.106 L13.049,20.106 L15.337,24.649 L17.669,20.106 L19.121,20.106 L19.121,27.729 L17.889,27.729 Z" id="Amazon-EC2-M5zn-Instance_Resource-Icon_Light-bg" fill="#D45B07"></path>
    </g>
</svg>