<?xml version="1.0" encoding="UTF-8"?>
<svg width="48px" height="48px" viewBox="0 0 48 48" version="1.1" xmlns="http://www.w3.org/2000/svg" xmlns:xlink="http://www.w3.org/1999/xlink">
    <title>Icon-Resource/Compute/Res_Amazon-EC2_M6i-Instance_48_Light</title>
    <g id="Icon-Resource/Compute/Res_Amazon-EC2_M6i-Instance_48" stroke="none" stroke-width="1" fill="none" fill-rule="evenodd">
        <path d="M9,39 L39,39 L39,9 L9,9 L9,39 Z M41,13 L41,17 L46,17 L46,19 L41,19 L41,23 L46,23 L46,25 L41,25 L41,29 L46,29 L46,31 L41,31 L41,35 L46,35 L46,37 L41,37 L41,40 C41,40.552 40.552,41 40,41 L37,41 L37,46 L35,46 L35,41 L31,41 L31,46 L29,46 L29,41 L25,41 L25,46 L23,46 L23,41 L19,41 L19,46 L17,46 L17,41 L13,41 L13,46 L11,46 L11,41 L8,41 C7.448,41 7,40.552 7,40 L7,37 L2,37 L2,35 L7,35 L7,31 L2,31 L2,29 L7,29 L7,25 L2,25 L2,23 L7,23 L7,19 L2,19 L2,17 L7,17 L7,13 L2,13 L2,11 L7,11 L7,8 C7,7.448 7.448,7 8,7 L11,7 L11,2 L13,2 L13,7 L17,7 L17,2 L19,2 L19,7 L23,7 L23,2 L25,2 L25,7 L29,7 L29,2 L31,2 L31,7 L35,7 L35,2 L37,2 L37,7 L40,7 C40.552,7 41,7.448 41,8 L41,11 L46,11 L46,13 L41,13 Z M33.701,20.427 C34.009,20.427 34.251,20.343 34.429,20.175 C34.606,20.007 34.694,19.774 34.694,19.475 C34.694,19.176 34.606,18.943 34.429,18.775 C34.251,18.607 34.009,18.523 33.701,18.523 C33.393,18.523 33.15,18.607 32.973,18.775 C32.795,18.943 32.707,19.176 32.707,19.475 C32.707,19.774 32.795,20.007 32.973,20.175 C33.15,20.343 33.393,20.427 33.701,20.427 L33.701,20.427 Z M32.875,28.729 L34.527,28.729 L34.527,21.603 L32.875,21.603 L32.875,28.729 Z M26.252,24.627 C26.316,26.615 26.963,27.609 28.194,27.609 C28.695,27.609 29.088,27.455 29.37,27.147 C29.653,26.839 29.794,26.41 29.794,25.859 C29.794,25.299 29.648,24.872 29.356,24.578 C29.065,24.284 28.641,24.137 28.084,24.137 C27.483,24.137 26.872,24.3 26.252,24.627 L26.252,24.627 Z M25.447,27.749 C24.854,26.956 24.558,25.784 24.558,24.235 C24.558,22.518 24.911,21.183 25.615,20.231 C26.32,19.279 27.312,18.803 28.59,18.803 C28.991,18.803 29.395,18.847 29.801,18.936 C30.207,19.025 30.555,19.144 30.844,19.293 L30.844,20.511 C30.558,20.399 30.229,20.308 29.855,20.238 C29.481,20.168 29.138,20.133 28.825,20.133 C27.986,20.133 27.359,20.413 26.944,20.973 C26.529,21.533 26.298,22.396 26.252,23.563 C26.991,23.087 27.776,22.849 28.607,22.849 C29.475,22.849 30.172,23.113 30.699,23.64 C31.225,24.167 31.488,24.87 31.488,25.747 C31.488,26.363 31.351,26.912 31.075,27.392 C30.8,27.873 30.403,28.251 29.885,28.526 C29.367,28.801 28.763,28.939 28.072,28.939 C26.915,28.939 26.04,28.542 25.447,27.749 L25.447,27.749 Z M14.982,28.729 L13.415,28.729 L13.415,19.027 L15.318,19.027 L18.23,24.809 L21.199,19.027 L23.046,19.027 L23.046,28.729 L21.479,28.729 L21.479,21.463 L18.958,26.293 L17.418,26.293 L14.982,21.491 L14.982,28.729 Z" id="Fill-1" fill="#D45B07"></path>
    </g>
</svg>