<?xml version="1.0" encoding="UTF-8"?>
<svg width="48px" height="48px" viewBox="0 0 48 48" version="1.1" xmlns="http://www.w3.org/2000/svg" xmlns:xlink="http://www.w3.org/1999/xlink">
    <title>Icon-Resource/Compute/Res_Amazon-EC2_M6a-Instance_48_Light</title>
    <g id="Icon-Resource/Compute/Res_Amazon-EC2_M6a-Instance_48" stroke="none" stroke-width="1" fill="none" fill-rule="evenodd">
        <path d="M33.3047,27.9658 C33.5687,27.9658 33.8457,27.9068 34.1367,27.7908 C34.4277,27.6738 34.7097,27.5078 34.9827,27.2938 L34.9827,25.9498 C34.5007,25.8468 34.0737,25.7958 33.7007,25.7958 C32.7537,25.7958 32.2817,26.1738 32.2817,26.9298 C32.2817,27.2568 32.3717,27.5108 32.5537,27.6928 C32.7357,27.8748 32.9857,27.9658 33.3047,27.9658 L33.3047,27.9658 Z M35.1927,28.9318 L35.0667,28.2458 C34.7407,28.5258 34.3787,28.7448 33.9817,28.9038 C33.5847,29.0618 33.1907,29.1418 32.7987,29.1418 C32.1457,29.1418 31.6167,28.9458 31.2097,28.5538 C30.8047,28.1618 30.6007,27.6528 30.6007,27.0278 C30.6007,26.3368 30.8507,25.7868 31.3497,25.3758 C31.8487,24.9648 32.5187,24.7598 33.3587,24.7598 C33.8537,24.7598 34.3947,24.8298 34.9827,24.9698 L34.9827,24.1438 C34.9827,23.6678 34.8807,23.3368 34.6747,23.1498 C34.4697,22.9628 34.1107,22.8698 33.5967,22.8698 C32.8687,22.8698 32.0337,23.0238 31.0907,23.3318 L31.0907,22.1698 C31.4427,21.9928 31.8727,21.8528 32.3807,21.7498 C32.8887,21.6468 33.3997,21.5958 33.9127,21.5958 C34.8437,21.5958 35.5307,21.7818 35.9717,22.1558 C36.4137,22.5288 36.6357,23.1118 36.6357,23.9058 L36.6357,28.9318 L35.1927,28.9318 Z M26.3147,24.3398 C25.7137,24.3398 25.1027,24.5028 24.4827,24.8298 C24.5467,26.8178 25.1937,27.8118 26.4247,27.8118 C26.9257,27.8118 27.3187,27.6578 27.6007,27.3498 C27.8837,27.0418 28.0247,26.6118 28.0247,26.0618 C28.0247,25.5018 27.8787,25.0748 27.5867,24.7808 C27.2957,24.4868 26.8707,24.3398 26.3147,24.3398 L26.3147,24.3398 Z M27.0547,20.3358 C26.2167,20.3358 25.5897,20.6158 25.1747,21.1758 C24.7597,21.7358 24.5287,22.5988 24.4827,23.7658 C25.2217,23.2898 26.0067,23.0518 26.8377,23.0518 C27.7057,23.0518 28.4027,23.3158 28.9297,23.8428 C29.4557,24.3698 29.7187,25.0718 29.7187,25.9498 C29.7187,26.5658 29.5807,27.1138 29.3057,27.5948 C29.0307,28.0758 28.6337,28.4538 28.1157,28.7288 C27.5977,29.0038 26.9927,29.1418 26.3027,29.1418 C25.1457,29.1418 24.2707,28.7448 23.6777,27.9518 C23.0847,27.1588 22.7887,25.9868 22.7887,24.4378 C22.7887,22.7198 23.1407,21.3858 23.8457,20.4338 C24.5507,19.4818 25.5417,19.0058 26.8207,19.0058 C27.2217,19.0058 27.6257,19.0498 28.0317,19.1388 C28.4377,19.2278 28.7847,19.3468 29.0747,19.4958 L29.0747,20.7138 C28.7887,20.6018 28.4587,20.5108 28.0857,20.4408 C27.7117,20.3708 27.3687,20.3358 27.0547,20.3358 L27.0547,20.3358 Z M19.7087,28.9318 L19.7087,21.6658 L17.1887,26.4958 L15.6487,26.4958 L13.2127,21.6938 L13.2127,28.9318 L11.6447,28.9318 L11.6447,19.2298 L13.5487,19.2298 L16.4607,25.0118 L19.4297,19.2298 L21.2767,19.2298 L21.2767,28.9318 L19.7087,28.9318 Z M8.9997,38.9998 L38.9997,38.9998 L38.9997,8.9998 L8.9997,8.9998 L8.9997,38.9998 Z M45.9997,12.9998 L45.9997,10.9998 L40.9997,10.9998 L40.9997,7.9998 C40.9997,7.4478 40.5527,6.9998 39.9997,6.9998 L36.9997,6.9998 L36.9997,1.9998 L34.9997,1.9998 L34.9997,6.9998 L30.9997,6.9998 L30.9997,1.9998 L28.9997,1.9998 L28.9997,6.9998 L24.9997,6.9998 L24.9997,1.9998 L22.9997,1.9998 L22.9997,6.9998 L18.9997,6.9998 L18.9997,1.9998 L16.9997,1.9998 L16.9997,6.9998 L12.9997,6.9998 L12.9997,1.9998 L10.9997,1.9998 L10.9997,6.9998 L7.9997,6.9998 C7.4477,6.9998 6.9997,7.4478 6.9997,7.9998 L6.9997,10.9998 L1.9997,10.9998 L1.9997,12.9998 L6.9997,12.9998 L6.9997,16.9998 L1.9997,16.9998 L1.9997,18.9998 L6.9997,18.9998 L6.9997,22.9998 L1.9997,22.9998 L1.9997,24.9998 L6.9997,24.9998 L6.9997,28.9998 L1.9997,28.9998 L1.9997,30.9998 L6.9997,30.9998 L6.9997,34.9998 L1.9997,34.9998 L1.9997,36.9998 L6.9997,36.9998 L6.9997,39.9998 C6.9997,40.5518 7.4477,40.9998 7.9997,40.9998 L10.9997,40.9998 L10.9997,45.9998 L12.9997,45.9998 L12.9997,40.9998 L16.9997,40.9998 L16.9997,45.9998 L18.9997,45.9998 L18.9997,40.9998 L22.9997,40.9998 L22.9997,45.9998 L24.9997,45.9998 L24.9997,40.9998 L28.9997,40.9998 L28.9997,45.9998 L30.9997,45.9998 L30.9997,40.9998 L34.9997,40.9998 L34.9997,45.9998 L36.9997,45.9998 L36.9997,40.9998 L39.9997,40.9998 C40.5527,40.9998 40.9997,40.5518 40.9997,39.9998 L40.9997,36.9998 L45.9997,36.9998 L45.9997,34.9998 L40.9997,34.9998 L40.9997,30.9998 L45.9997,30.9998 L45.9997,28.9998 L40.9997,28.9998 L40.9997,24.9998 L45.9997,24.9998 L45.9997,22.9998 L40.9997,22.9998 L40.9997,18.9998 L45.9997,18.9998 L45.9997,16.9998 L40.9997,16.9998 L40.9997,12.9998 L45.9997,12.9998 Z" id="Fill-1" fill="#D45B07"></path>
    </g>
</svg>