<?xml version="1.0" encoding="UTF-8"?>
<svg width="48px" height="48px" viewBox="0 0 48 48" version="1.1" xmlns="http://www.w3.org/2000/svg" xmlns:xlink="http://www.w3.org/1999/xlink">
    <title>Icon-Resource/Compute/Res_Icon-Amazon-EC2_M1-Mac-Instance_48_Light</title>
    <g id="Icon-Resource/Compute/Res_Icon-Amazon-EC2_M1-Mac-Instance_48" stroke="none" stroke-width="1" fill="none" fill-rule="evenodd">
        <path d="M9,39 L39,39 L39,9 L9,9 L9,39 Z M41,13 L41,17 L46,17 L46,19 L41,19 L41,23 L46,23 L46,25 L41,25 L41,29 L46,29 L46,31 L41,31 L41,35 L46,35 L46,37 L41,37 L41,40 C41,40.552 40.553,41 40,41 L37,41 L37,46 L35,46 L35,41 L31,41 L31,46 L29,46 L29,41 L25,41 L25,46 L23,46 L23,41 L19,41 L19,46 L17,46 L17,41 L13,41 L13,46 L11,46 L11,41 L8,41 C7.447,41 7,40.552 7,40 L7,37 L2,37 L2,35 L7,35 L7,31 L2,31 L2,29 L7,29 L7,25 L2,25 L2,23 L7,23 L7,19 L2,19 L2,17 L7,17 L7,13 L2,13 L2,11 L7,11 L7,8 C7,7.448 7.447,7 8,7 L11,7 L11,2 L13,2 L13,7 L17,7 L17,2 L19,2 L19,7 L23,7 L23,2 L25,2 L25,7 L29,7 L29,2 L31,2 L31,7 L35,7 L35,2 L37,2 L37,7 L40,7 C40.553,7 41,7.448 41,8 L41,11 L46,11 L46,13 L41,13 Z M30.582,32.316 C31.086,32.86 31.807,33.132 32.742,33.132 C33.398,33.132 33.962,33.008 34.435,32.76 L34.435,31.764 C33.922,31.924 33.45,32.004 33.019,32.004 C32.418,32.004 31.976,31.844 31.692,31.524 C31.408,31.204 31.267,30.708 31.267,30.036 L31.267,29.88 C31.267,29.2 31.408,28.698 31.692,28.374 C31.976,28.05 32.418,27.888 33.019,27.888 C33.395,27.888 33.851,27.964 34.386,28.116 L34.386,27.12 C33.906,26.88 33.374,26.76 32.79,26.76 C31.854,26.76 31.126,27.044 30.606,27.612 C30.086,28.18 29.826,28.976 29.826,30 C29.826,31 30.078,31.772 30.582,32.316 L30.582,32.316 Z M27.354,30.444 C26.941,30.356 26.574,30.312 26.255,30.312 C25.443,30.312 25.038,30.636 25.038,31.284 C25.038,31.564 25.116,31.782 25.272,31.938 C25.428,32.094 25.643,32.172 25.916,32.172 C26.142,32.172 26.38,32.122 26.629,32.022 C26.879,31.922 27.12,31.78 27.354,31.596 L27.354,30.444 Z M24.019,27.204 C24.319,27.052 24.688,26.932 25.124,26.844 C25.56,26.756 25.997,26.712 26.437,26.712 C27.235,26.712 27.823,26.872 28.202,27.192 C28.581,27.512 28.771,28.012 28.771,28.692 L28.771,33 L27.534,33 L27.427,32.412 C27.146,32.652 26.836,32.84 26.496,32.976 C26.156,33.112 25.818,33.18 25.482,33.18 C24.922,33.18 24.469,33.012 24.12,32.676 C23.772,32.34 23.599,31.904 23.599,31.368 C23.599,30.776 23.812,30.304 24.24,29.952 C24.668,29.6 25.242,29.424 25.963,29.424 C26.387,29.424 26.851,29.484 27.354,29.604 L27.354,28.896 C27.354,28.488 27.267,28.204 27.091,28.044 C26.914,27.884 26.606,27.804 26.166,27.804 C25.542,27.804 24.826,27.936 24.019,28.2 L24.019,27.204 Z M15.486,26.796 L17.574,30.912 L18.895,30.912 L21.055,26.772 L21.055,33 L22.398,33 L22.398,24.684 L20.814,24.684 L18.271,29.64 L15.774,24.684 L14.143,24.684 L14.143,33 L15.486,33 L15.486,26.796 Z M28.896,23 L30.324,23 L30.324,14.684 L29.028,14.684 L26.652,15.788 L26.652,16.94 L28.896,16.1 L28.896,23 Z M17.832,23 L16.488,23 L16.488,14.684 L18.12,14.684 L20.616,19.64 L23.16,14.684 L24.744,14.684 L24.744,23 L23.4,23 L23.4,16.772 L21.24,20.912 L19.92,20.912 L17.832,16.796 L17.832,23 Z" id="Fill-1" fill="#D45B07"></path>
    </g>
</svg>