<?xml version="1.0" encoding="UTF-8"?>
<svg width="48px" height="48px" viewBox="0 0 48 48" version="1.1" xmlns="http://www.w3.org/2000/svg" xmlns:xlink="http://www.w3.org/1999/xlink">
    <title>Icon-Resource/Compute/Res_Amazon-EC2_M6gd_48_Light</title>
    <g id="Icon-Resource/Compute/Res_Amazon-EC2_M6gd_48" stroke="none" stroke-width="1" fill="none" fill-rule="evenodd">
        <path d="M9,39 L39,39 L39,9 L9,9 L9,39 Z M41,13 L41,17 L46,17 L46,19 L41,19 L41,23 L46,23 L46,25 L41,25 L41,29 L46,29 L46,31 L41,31 L41,35 L46,35 L46,37 L41,37 L41,40 C41,40.552 40.552,41 40,41 L37,41 L37,46 L35,46 L35,41 L31,41 L31,46 L29,46 L29,41 L25,41 L25,46 L23,46 L23,41 L19,41 L19,46 L17,46 L17,41 L13,41 L13,46 L11,46 L11,41 L8,41 C7.448,41 7,40.552 7,40 L7,37 L2,37 L2,35 L7,35 L7,31 L2,31 L2,29 L7,29 L7,25 L2,25 L2,23 L7,23 L7,19 L2,19 L2,17 L7,17 L7,13 L2,13 L2,11 L7,11 L7,8 C7,7.448 7.448,7 8,7 L11,7 L11,2 L13,2 L13,7 L17,7 L17,2 L19,2 L19,7 L23,7 L23,2 L25,2 L25,7 L29,7 L29,2 L31,2 L31,7 L35,7 L35,2 L37,2 L37,7 L40,7 C40.552,7 41,7.448 41,8 L41,11 L46,11 L46,13 L41,13 Z M33.08,24.891 C33.08,26.182 33.549,26.827 34.488,26.827 C34.92,26.827 35.342,26.688 35.753,26.409 L35.753,23.384 C35.379,23.12 34.964,22.988 34.51,22.988 C34.019,22.988 33.657,23.144 33.426,23.456 C33.195,23.767 33.08,24.246 33.08,24.891 L33.08,24.891 Z M32.393,27.063 C31.971,26.539 31.76,25.833 31.76,24.946 C31.76,24.359 31.855,23.842 32.046,23.395 C32.236,22.948 32.512,22.598 32.871,22.345 C33.23,22.091 33.655,21.965 34.147,21.965 C34.733,21.965 35.269,22.156 35.753,22.537 L35.753,19.589 L37.051,19.589 L37.051,27.729 L35.94,27.729 L35.808,27.19 C35.309,27.63 34.733,27.85 34.081,27.85 C33.377,27.85 32.814,27.588 32.393,27.063 L32.393,27.063 Z M26.975,24.77 C26.975,26.002 27.411,26.618 28.284,26.618 C28.716,26.618 29.127,26.475 29.516,26.189 L29.516,23.373 C29.135,23.109 28.728,22.977 28.295,22.977 C27.848,22.977 27.516,23.124 27.299,23.417 C27.083,23.71 26.975,24.162 26.975,24.77 L26.975,24.77 Z M26.266,26.854 C25.858,26.345 25.655,25.665 25.655,24.814 C25.655,24.257 25.747,23.764 25.93,23.334 C26.113,22.905 26.377,22.57 26.722,22.328 C27.066,22.086 27.474,21.965 27.943,21.965 C28.581,21.965 29.135,22.189 29.604,22.636 L29.714,22.13 L30.814,22.13 L30.814,27.344 C30.814,28.231 30.573,28.917 30.09,29.401 C29.607,29.885 28.92,30.127 28.029,30.127 C27.351,30.127 26.71,29.977 26.106,29.676 L26.106,28.752 C26.788,28.979 27.4,29.093 27.943,29.093 C28.493,29.093 28.893,28.966 29.142,28.713 C29.391,28.46 29.516,28.048 29.516,27.476 L29.516,27.003 C29.039,27.414 28.5,27.619 27.899,27.619 C27.217,27.619 26.672,27.364 26.266,26.854 L26.266,26.854 Z M20.892,24.506 C20.942,26.068 21.451,26.849 22.418,26.849 C22.812,26.849 23.12,26.728 23.342,26.486 C23.564,26.244 23.675,25.907 23.675,25.474 C23.675,25.034 23.561,24.699 23.331,24.467 C23.102,24.236 22.769,24.121 22.332,24.121 C21.859,24.121 21.379,24.25 20.892,24.506 L20.892,24.506 Z M20.26,26.959 C19.794,26.336 19.561,25.416 19.561,24.198 C19.561,22.849 19.838,21.8 20.392,21.052 C20.945,20.304 21.725,19.93 22.729,19.93 C23.044,19.93 23.362,19.965 23.681,20.035 C24,20.104 24.273,20.198 24.5,20.315 L24.5,21.272 C24.275,21.184 24.017,21.112 23.723,21.058 C23.43,21.002 23.16,20.975 22.914,20.975 C22.254,20.975 21.762,21.195 21.436,21.635 C21.109,22.075 20.928,22.753 20.892,23.67 C21.473,23.296 22.089,23.109 22.743,23.109 C23.424,23.109 23.972,23.316 24.386,23.73 C24.799,24.145 25.006,24.697 25.006,25.386 C25.006,25.87 24.898,26.301 24.682,26.679 C24.465,27.056 24.154,27.354 23.747,27.569 C23.34,27.786 22.865,27.894 22.322,27.894 C21.413,27.894 20.725,27.583 20.26,26.959 L20.26,26.959 Z M12.147,27.729 L10.915,27.729 L10.915,20.106 L12.411,20.106 L14.699,24.649 L17.031,20.106 L18.483,20.106 L18.483,27.729 L17.251,27.729 L17.251,22.02 L15.271,25.815 L14.061,25.815 L12.147,22.042 L12.147,27.729 Z" id="Fill-1" fill="#D45B07"></path>
    </g>
</svg>