<?xml version="1.0" encoding="UTF-8"?>
<svg width="48px" height="48px" viewBox="0 0 48 48" version="1.1" xmlns="http://www.w3.org/2000/svg" xmlns:xlink="http://www.w3.org/1999/xlink">
    <title>Icon-Resource/Compute/Res_Amazon-EC2_Drift_48_Light</title>
    <g id="Icon-Resource/Compute/Res_Amazon-EC2_Drift_48" stroke="none" stroke-width="1" fill="none" fill-rule="evenodd">
        <path d="M24,4.1127 L37.621,10.7637 L24,16.7387 L10.379,10.7637 L24,4.1127 Z M8,25.4007 C8.283,25.4007 8.554,25.2797 8.743,25.0697 L13.243,20.0697 L11.757,18.7317 L9,21.7947 L9,12.3437 L23,18.4847 L23,28.8477 L20.243,25.7837 L18.757,27.1217 L23.257,32.1217 C23.446,32.3327 23.717,32.4527 24,32.4527 C24.283,32.4527 24.554,32.3327 24.743,32.1217 L29.243,27.1217 L27.757,25.7837 L25,28.8477 L25,18.4847 L39,12.3437 L39,21.7947 L36.243,18.7317 L34.757,20.0697 L39.257,25.0697 C39.446,25.2797 39.717,25.4007 40,25.4007 C40.283,25.4007 40.554,25.2797 40.743,25.0697 L45.243,20.0697 L43.757,18.7317 L41,21.7947 L41,10.8127 C41,10.4307 40.782,10.0817 40.438,9.9147 L24.438,2.1017 C24.163,1.9657 23.837,1.9657 23.562,2.1017 L7.562,9.9147 C7.218,10.0817 7,10.4307 7,10.8127 L7,21.7947 L4.243,18.7317 L2.757,20.0697 L7.257,25.0697 C7.446,25.2797 7.717,25.4007 8,25.4007 L8,25.4007 Z M40,36.9357 C37.794,36.9357 36,35.1417 36,32.9357 C36,30.7307 37.794,28.9357 40,28.9357 C42.206,28.9357 44,30.7307 44,32.9357 C44,35.1417 42.206,36.9357 40,36.9357 L40,36.9357 Z M24,43.9527 C21.794,43.9527 20,42.1587 20,39.9527 C20,37.7477 21.794,35.9527 24,35.9527 C26.206,35.9527 28,37.7477 28,39.9527 C28,42.1587 26.206,43.9527 24,43.9527 L24,43.9527 Z M8,36.9357 C5.794,36.9357 4,35.1417 4,32.9357 C4,30.7307 5.794,28.9357 8,28.9357 C10.206,28.9357 12,30.7307 12,32.9357 C12,35.1417 10.206,36.9357 8,36.9357 L8,36.9357 Z M40,26.9357 C36.691,26.9357 34,29.6277 34,32.9357 C34,33.4397 34.069,33.9267 34.187,34.3937 L29.012,36.6637 C27.939,35.0337 26.094,33.9527 24,33.9527 C21.906,33.9527 20.061,35.0327 18.988,36.6637 L13.813,34.3937 C13.931,33.9267 14,33.4397 14,32.9357 C14,29.6277 11.309,26.9357 8,26.9357 C4.691,26.9357 2,29.6277 2,32.9357 C2,36.2447 4.691,38.9357 8,38.9357 C10.094,38.9357 11.938,37.8567 13.012,36.2267 L18.186,38.4967 C18.069,38.9637 18,39.4497 18,39.9527 C18,43.2617 20.691,45.9527 24,45.9527 C27.309,45.9527 30,43.2617 30,39.9527 C30,39.4497 29.931,38.9637 29.814,38.4957 L34.988,36.2257 C36.062,37.8557 37.906,38.9357 40,38.9357 C43.309,38.9357 46,36.2447 46,32.9357 C46,29.6277 43.309,26.9357 40,26.9357 L40,26.9357 Z" id="Fill-1" fill="#D45B07"></path>
    </g>
</svg>