<?xml version="1.0" encoding="UTF-8"?>
<svg width="48px" height="48px" viewBox="0 0 48 48" version="1.1" xmlns="http://www.w3.org/2000/svg" xmlns:xlink="http://www.w3.org/1999/xlink">
    <title>Icon-Resource/Compute/Res_Amazon-EC2_P4_48_Light</title>
    <g id="Icon-Resource/Compute/Res_Amazon-EC2_P4_48" stroke="none" stroke-width="1" fill="none" fill-rule="evenodd">
        <path d="M9,39 L39,39 L39,9 L9,9 L9,39 Z M46,13 L46,11 L41,11 L41,8 C41,7.448 40.552,7 40,7 L37,7 L37,2 L35,2 L35,7 L31,7 L31,2 L29,2 L29,7 L25,7 L25,2 L23,2 L23,7 L19,7 L19,2 L17,2 L17,7 L13,7 L13,2 L11,2 L11,7 L8,7 C7.448,7 7,7.448 7,8 L7,11 L2,11 L2,13 L7,13 L7,17 L2,17 L2,19 L7,19 L7,23 L2,23 L2,25 L7,25 L7,29 L2,29 L2,31 L7,31 L7,35 L2,35 L2,37 L7,37 L7,40 C7,40.552 7.448,41 8,41 L11,41 L11,46 L13,46 L13,41 L17,41 L17,46 L19,46 L19,41 L23,41 L23,46 L25,46 L25,41 L29,41 L29,46 L31,46 L31,41 L35,41 L35,46 L37,46 L37,41 L40,41 C40.552,41 41,40.552 41,40 L41,37 L46,37 L46,35 L41,35 L41,31 L46,31 L46,29 L41,29 L41,25 L46,25 L46,23 L41,23 L41,19 L46,19 L46,17 L41,17 L41,13 L46,13 Z M25.972,25.397 L28.898,21.127 L28.898,25.397 L25.972,25.397 Z M28.898,28.729 L30.564,28.729 L30.564,26.713 L31.866,26.713 L31.866,25.397 L30.564,25.397 L30.564,19.027 L28.828,19.027 L24.306,25.467 L24.306,26.713 L28.898,26.713 L28.898,28.729 Z M18.58,20.343 L20.293,20.343 C20.819,20.343 21.216,20.488 21.483,20.777 C21.75,21.066 21.884,21.491 21.884,22.051 C21.884,22.611 21.75,23.036 21.483,23.325 C21.216,23.614 20.819,23.759 20.293,23.759 L18.58,23.759 L18.58,20.343 Z M18.58,25.075 L20.496,25.075 C21.458,25.075 22.22,24.804 22.78,24.263 C23.34,23.722 23.62,22.984 23.62,22.051 C23.62,21.118 23.338,20.38 22.773,19.839 C22.208,19.298 21.441,19.027 20.47,19.027 L16.872,19.027 L16.872,28.729 L18.58,28.729 L18.58,25.075 Z" id="Fill-1" fill="#D45B07"></path>
    </g>
</svg>