<?xml version="1.0" encoding="UTF-8"?>
<svg width="48px" height="48px" viewBox="0 0 48 48" version="1.1" xmlns="http://www.w3.org/2000/svg" xmlns:xlink="http://www.w3.org/1999/xlink">
    <title>Icon-Resource/Compute/Res_Amazon-EC2_P4de-Instance_48_Light</title>
    <g id="Icon-Resource/Compute/Res_Amazon-EC2_P4de-Instance_48" stroke="none" stroke-width="1" fill="none" fill-rule="evenodd">
        <path d="M9,39 L39,39 L39,9 L9,9 L9,39 Z M46,13 L46,11 L41,11 L41,8 C41,7.448 40.552,7 40,7 L37,7 L37,2 L35,2 L35,7 L31,7 L31,2 L29,2 L29,7 L25,7 L25,2 L23,2 L23,7 L19,7 L19,2 L17,2 L17,7 L13,7 L13,2 L11,2 L11,7 L8,7 C7.448,7 7,7.448 7,8 L7,11 L2,11 L2,13 L7,13 L7,17 L2,17 L2,19 L7,19 L7,23 L2,23 L2,25 L7,25 L7,29 L2,29 L2,31 L7,31 L7,35 L2,35 L2,37 L7,37 L7,40 C7,40.552 7.448,41 8,41 L11,41 L11,46 L13,46 L13,41 L17,41 L17,46 L19,46 L19,41 L23,41 L23,46 L25,46 L25,41 L29,41 L29,46 L31,46 L31,41 L35,41 L35,46 L37,46 L37,41 L40,41 C40.552,41 41,40.552 41,40 L41,37 L46,37 L46,35 L41,35 L41,31 L46,31 L46,29 L41,29 L41,25 L46,25 L46,23 L41,23 L41,19 L46,19 L46,17 L41,17 L41,13 L46,13 Z M32.75,23.307 C32.986,23.043 33.292,22.911 33.668,22.911 C34.022,22.911 34.292,23.028 34.476,23.263 C34.661,23.498 34.752,23.839 34.752,24.286 L34.752,24.374 L32.344,24.374 C32.378,23.927 32.514,23.571 32.75,23.307 L32.75,23.307 Z M33.839,27.894 C34.206,27.894 34.56,27.855 34.901,27.778 C35.242,27.702 35.537,27.597 35.787,27.465 L35.787,26.552 C35.177,26.757 34.611,26.86 34.086,26.86 C33.505,26.86 33.075,26.73 32.795,26.47 C32.515,26.209 32.365,25.8 32.344,25.243 L35.812,25.243 C35.875,24.942 35.908,24.602 35.908,24.22 C35.908,23.501 35.715,22.946 35.33,22.554 C34.945,22.161 34.393,21.965 33.675,21.965 C32.838,21.965 32.187,22.229 31.722,22.757 C31.256,23.285 31.023,24.022 31.023,24.968 C31.023,25.921 31.262,26.647 31.739,27.146 C32.215,27.645 32.916,27.894 33.839,27.894 L33.839,27.894 Z M26.321,23.456 C26.552,23.144 26.913,22.988 27.404,22.988 C27.859,22.988 28.273,23.12 28.647,23.384 L28.647,26.409 C28.237,26.688 27.815,26.827 27.382,26.827 C26.444,26.827 25.975,26.182 25.975,24.891 C25.975,24.246 26.09,23.767 26.321,23.456 L26.321,23.456 Z M26.976,27.85 C27.628,27.85 28.204,27.63 28.703,27.19 L28.834,27.729 L29.945,27.729 L29.945,19.589 L28.647,19.589 L28.647,22.537 C28.164,22.156 27.628,21.965 27.042,21.965 C26.55,21.965 26.125,22.091 25.766,22.345 C25.406,22.598 25.131,22.948 24.94,23.395 C24.75,23.842 24.654,24.359 24.654,24.946 C24.654,25.833 24.865,26.539 25.287,27.063 C25.708,27.588 26.271,27.85 26.976,27.85 L26.976,27.85 Z M19.528,25.111 L21.827,21.756 L21.827,25.111 L19.528,25.111 Z M21.827,27.729 L23.136,27.729 L23.136,26.145 L24.159,26.145 L24.159,25.111 L23.136,25.111 L23.136,20.106 L21.772,20.106 L18.219,25.166 L18.219,26.145 L21.827,26.145 L21.827,27.729 Z M13.721,21.14 L15.067,21.14 C15.479,21.14 15.792,21.254 16.001,21.481 C16.211,21.708 16.316,22.042 16.316,22.482 C16.316,22.922 16.211,23.256 16.001,23.483 C15.792,23.71 15.479,23.824 15.067,23.824 L13.721,23.824 L13.721,21.14 Z M13.721,24.858 L15.226,24.858 C15.982,24.858 16.581,24.646 17.021,24.22 C17.46,23.795 17.681,23.215 17.681,22.482 C17.681,21.749 17.458,21.169 17.015,20.744 C16.571,20.319 15.968,20.106 15.206,20.106 L12.378,20.106 L12.378,27.729 L13.721,27.729 L13.721,24.858 Z" id="Fill-1" fill="#D45B07"></path>
    </g>
</svg>