<?xml version="1.0" encoding="UTF-8"?>
<svg width="48px" height="48px" viewBox="0 0 48 48" version="1.1" xmlns="http://www.w3.org/2000/svg" xmlns:xlink="http://www.w3.org/1999/xlink">
    <title>Icon-Resource/Compute/Res_Amazon-EC2_Rescue_48_Light</title>
    <g id="Icon-Resource/Compute/Res_Amazon-EC2_Rescue_48" stroke="none" stroke-width="1" fill="none" fill-rule="evenodd">
        <path d="M31.073,26.453 L39.553,26.453 L39.553,21.467 L31.073,21.467 L31.073,26.453 Z M28.453,36.367 L28.453,32.09 C29.989,31.241 31.243,29.987 32.091,28.453 L36.367,28.453 C35.041,32.115 32.116,35.04 28.453,36.367 L28.453,36.367 Z M21.467,39.554 L26.453,39.554 L26.453,31.074 L21.467,31.074 L21.467,39.554 Z M11.553,28.453 L15.831,28.453 C16.678,29.987 17.933,31.242 19.466,32.09 L19.466,36.367 C15.805,35.04 12.881,32.115 11.553,28.453 L11.553,28.453 Z M8.367,26.453 L16.846,26.453 L16.846,21.467 L8.367,21.467 L8.367,26.453 Z M19.466,11.553 L19.466,15.83 C17.933,16.677 16.679,17.931 15.83,19.467 L11.553,19.467 C12.88,15.805 15.804,12.879 19.466,11.553 L19.466,11.553 Z M21.466,16.846 L26.452,16.846 L26.452,8.366 L21.466,8.366 L21.466,16.846 Z M28.388,29.75 C28.253,29.359 27.891,29.073 27.453,29.073 L20.466,29.073 C20.029,29.073 19.668,29.359 19.532,29.75 C19.019,29.359 18.562,28.902 18.17,28.388 C18.561,28.253 18.846,27.892 18.846,27.453 L18.846,20.467 C18.846,20.029 18.561,19.667 18.17,19.532 C18.562,19.019 19.019,18.562 19.532,18.17 C19.668,18.562 20.029,18.847 20.466,18.847 L27.453,18.847 C27.891,18.847 28.253,18.562 28.388,18.169 C28.901,18.562 29.359,19.019 29.751,19.531 C29.359,19.667 29.073,20.029 29.073,20.467 L29.073,27.453 C29.073,27.892 29.359,28.253 29.751,28.388 C29.359,28.901 28.901,29.359 28.388,29.75 L28.388,29.75 Z M36.367,19.467 L32.091,19.467 C31.243,17.931 29.987,16.677 28.453,15.83 L28.453,11.553 C32.116,12.879 35.041,15.804 36.367,19.467 L36.367,19.467 Z M40.553,19.467 L38.498,19.467 C37.031,14.7 33.22,10.889 28.453,9.423 L28.453,7.366 C28.453,6.814 28.006,6.366 27.453,6.366 L20.466,6.366 C19.914,6.366 19.466,6.814 19.466,7.366 L19.466,9.423 C14.701,10.89 10.89,14.699 9.423,19.467 L7.367,19.467 C6.814,19.467 6.367,19.914 6.367,20.467 L6.367,27.453 C6.367,28.006 6.814,28.453 7.367,28.453 L9.424,28.453 C10.89,33.22 14.701,37.029 19.466,38.497 L19.466,40.554 C19.466,41.107 19.914,41.554 20.466,41.554 L27.453,41.554 C28.006,41.554 28.453,41.107 28.453,40.554 L28.453,38.497 C33.22,37.03 37.03,33.22 38.497,28.453 L40.553,28.453 C41.106,28.453 41.553,28.006 41.553,27.453 L41.553,20.467 C41.553,19.914 41.106,19.467 40.553,19.467 L40.553,19.467 Z M43.92,39.472 C43.92,41.925 41.925,43.92 39.472,43.92 L8.448,43.92 C5.995,43.92 4,41.925 4,39.472 L4,8.447 C4,5.995 5.995,4 8.448,4 L39.472,4 C41.925,4 43.92,5.995 43.92,8.447 L43.92,39.472 Z M39.472,2 L8.448,2 C4.892,2 2,4.893 2,8.447 L2,39.472 C2,43.028 4.892,45.92 8.448,45.92 L39.472,45.92 C43.027,45.92 45.92,43.028 45.92,39.472 L45.92,8.447 C45.92,4.893 43.027,2 39.472,2 L39.472,2 Z" id="Amazon-EC2-Rescue_Resource-Icon_light-bg" fill="#D45B07"></path>
    </g>
</svg>