<?xml version="1.0" encoding="UTF-8"?>
<svg width="48px" height="48px" viewBox="0 0 48 48" version="1.1" xmlns="http://www.w3.org/2000/svg" xmlns:xlink="http://www.w3.org/1999/xlink">
    <title>Icon-Resource/Compute/Res_Amazon-EC2_R5a-Instance_48_Light</title>
    <g id="Icon-Resource/Compute/Res_Amazon-EC2_R5a-Instance_48" stroke="none" stroke-width="1" fill="none" fill-rule="evenodd">
        <path d="M33.562,27.2 C33.289,27.415 33.005,27.581 32.714,27.698 C32.423,27.815 32.146,27.874 31.882,27.874 C31.564,27.874 31.314,27.782 31.132,27.6 C30.951,27.419 30.859,27.163 30.859,26.837 C30.859,26.081 31.332,25.702 32.279,25.702 C32.652,25.702 33.08,25.755 33.562,25.856 L33.562,27.2 Z M31.937,24.667 C31.097,24.667 30.427,24.872 29.927,25.282 C29.429,25.694 29.179,26.245 29.179,26.934 C29.179,27.559 29.382,28.069 29.789,28.462 C30.195,28.852 30.724,29.05 31.376,29.05 C31.769,29.05 32.164,28.97 32.56,28.811 C32.957,28.653 33.318,28.432 33.646,28.153 L33.771,28.839 L35.212,28.839 L35.212,23.813 C35.212,23.02 34.992,22.436 34.55,22.063 C34.109,21.69 33.421,21.503 32.492,21.503 C31.978,21.503 31.466,21.554 30.958,21.657 C30.451,21.761 30.021,21.899 29.669,22.077 L29.669,23.239 C30.611,22.93 31.447,22.776 32.175,22.776 C32.689,22.776 33.048,22.87 33.253,23.057 C33.458,23.243 33.562,23.575 33.562,24.052 L33.562,24.878 C32.972,24.737 32.431,24.667 31.937,24.667 L31.937,24.667 Z M24.208,29.05 C23.275,29.05 22.38,28.862 21.521,28.489 L21.521,27.173 C22.541,27.518 23.423,27.69 24.166,27.69 C25.548,27.69 26.24,27.095 26.24,25.899 C26.24,25.321 26.066,24.897 25.716,24.632 C25.369,24.366 24.816,24.233 24.056,24.233 C23.49,24.233 22.781,24.28 21.927,24.374 L21.927,23.309 L22.193,19.137 L27.457,19.137 L27.457,20.468 L23.751,20.468 L23.593,23.057 C23.976,22.983 24.38,22.944 24.808,22.944 C25.779,22.944 26.542,23.206 27.099,23.729 C27.654,24.251 27.933,24.966 27.933,25.872 C27.933,26.843 27.597,27.614 26.925,28.188 C26.253,28.762 25.347,29.05 24.208,29.05 L24.208,29.05 Z M14.773,20.452 L16.513,20.452 C17.574,20.452 18.105,20.989 18.105,22.063 C18.105,23.136 17.56,23.673 16.472,23.673 L14.773,23.673 L14.773,20.452 Z M14.773,24.989 L16.482,24.989 L18.749,28.839 L20.457,28.839 L17.951,24.694 C18.568,24.452 19.037,24.102 19.359,23.645 C19.679,23.188 19.841,22.641 19.841,22.007 C19.841,21.13 19.554,20.432 18.98,19.915 C18.406,19.395 17.642,19.137 16.691,19.137 L13.066,19.137 L13.066,28.839 L14.773,28.839 L14.773,24.989 Z M8.999,39 L38.999,39 L38.999,9 L8.999,9 L8.999,39 Z M46,13 L46,11 L40.999,11 L40.999,8 C40.999,7.447 40.552,7 39.999,7 L37,7 L37,2 L34.999,2 L34.999,7 L30.999,7 L30.999,2 L29,2 L29,7 L24.999,7 L24.999,2 L22.999,2 L22.999,7 L18.999,7 L18.999,2 L17,2 L17,7 L13,7 L13,2 L11,2 L11,7 L8,7 C7.447,7 7,7.447 7,8 L7,11 L2,11 L2,13 L7,13 L7,17 L2,17 L2,19 L7,19 L7,23 L2,23 L2,25 L7,25 L7,29 L2,29 L2,31 L7,31 L7,35 L2,35 L2,37 L7,37 L7,40 C7,40.553 7.447,41 8,41 L11,41 L11,46 L13,46 L13,41 L17,41 L17,46 L18.999,46 L18.999,41 L22.999,41 L22.999,46 L24.999,46 L24.999,41 L29,41 L29,46 L30.999,46 L30.999,41 L34.999,41 L34.999,46 L37,46 L37,41 L39.999,41 C40.552,41 40.999,40.553 40.999,40 L40.999,37 L46,37 L46,35 L40.999,35 L40.999,31 L46,31 L46,29 L40.999,29 L40.999,25 L46,25 L46,23 L40.999,23 L40.999,19 L46,19 L46,17 L40.999,17 L40.999,13 L46,13 Z" id="Amazon-EC2-R5a-Instance_Resource-Icon_light-bg" fill="#D45B07"></path>
    </g>
</svg>