<?xml version="1.0" encoding="UTF-8"?>
<svg width="48px" height="48px" viewBox="0 0 48 48" version="1.1" xmlns="http://www.w3.org/2000/svg" xmlns:xlink="http://www.w3.org/1999/xlink">
    <title>Icon-Resource/Compute/Res_Amazon-EC2_R4-Instance_48_Light</title>
    <g id="Icon-Resource/Compute/Res_Amazon-EC2_R4-Instance_48" stroke="none" stroke-width="1" fill="none" fill-rule="evenodd">
        <path d="M26.296,25.469 L29.222,21.198 L29.222,25.469 L26.296,25.469 Z M29.222,28.801 L30.888,28.801 L30.888,26.784 L32.191,26.784 L32.191,25.469 L30.888,25.469 L30.888,19.099 L29.152,19.099 L24.63,25.538 L24.63,26.784 L29.222,26.784 L29.222,28.801 Z M18.4,20.414 L20.141,20.414 C21.201,20.414 21.733,20.951 21.733,22.025 C21.733,23.098 21.188,23.635 20.1,23.635 L18.4,23.635 L18.4,20.414 Z M18.4,24.95 L20.109,24.95 L22.376,28.801 L24.084,28.801 L21.578,24.657 C22.194,24.414 22.663,24.064 22.985,23.607 C23.307,23.15 23.468,22.604 23.468,21.969 C23.468,21.092 23.181,20.394 22.608,19.876 C22.033,19.358 21.27,19.099 20.318,19.099 L16.692,19.099 L16.692,28.801 L18.4,28.801 L18.4,24.95 Z M9,39 L39,39 L39,9 L9,9 L9,39 Z M46,13 L46,11 L41,11 L41,8 C41,7.448 40.553,7 40,7 L37,7 L37,2 L35,2 L35,7 L31,7 L31,2 L29,2 L29,7 L25,7 L25,2 L23,2 L23,7 L19,7 L19,2 L17,2 L17,7 L13,7 L13,2 L11,2 L11,7 L8,7 C7.447,7 7,7.448 7,8 L7,11 L2,11 L2,13 L7,13 L7,17 L2,17 L2,19 L7,19 L7,23 L2,23 L2,25 L7,25 L7,29 L2,29 L2,31 L7,31 L7,35 L2,35 L2,37 L7,37 L7,40 C7,40.553 7.447,41 8,41 L11,41 L11,46 L13,46 L13,41 L17,41 L17,46 L19,46 L19,41 L23,41 L23,46 L25,46 L25,41 L29,41 L29,46 L31,46 L31,41 L35,41 L35,46 L37,46 L37,41 L40,41 C40.553,41 41,40.553 41,40 L41,37 L46,37 L46,35 L41,35 L41,31 L46,31 L46,29 L41,29 L41,25 L46,25 L46,23 L41,23 L41,19 L46,19 L46,17 L41,17 L41,13 L46,13 Z" id="Amazon-EC2-R4-Instance_Resource-Icon_light-bg" fill="#D45B07"></path>
    </g>
</svg>