<?xml version="1.0" encoding="UTF-8"?>
<svg width="48px" height="48px" viewBox="0 0 48 48" version="1.1" xmlns="http://www.w3.org/2000/svg" xmlns:xlink="http://www.w3.org/1999/xlink">
    <title>Icon-Resource/Compute/Res_Amazon-EC2_R6g-Instance_48_Light</title>
    <g id="Icon-Resource/Compute/Res_Amazon-EC2_R6g-Instance_48" stroke="none" stroke-width="1" fill="none" fill-rule="evenodd">
        <path d="M31.0137,21.9492 C31.2887,21.5762 31.7117,21.3882 32.2817,21.3882 C32.8317,21.3882 33.3497,21.5562 33.8347,21.8922 L33.8347,25.4762 C33.3397,25.8422 32.8177,26.0232 32.2677,26.0232 C31.1567,26.0232 30.6017,25.2382 30.6017,23.6722 C30.6017,22.8962 30.7387,22.3222 31.0137,21.9492 L31.0137,21.9492 Z M31.7777,27.2972 C32.5417,27.2972 33.2287,27.0352 33.8347,26.5132 L33.8347,27.1152 C33.8347,27.8442 33.6767,28.3692 33.3597,28.6892 C33.0417,29.0112 32.5337,29.1742 31.8327,29.1742 C31.1427,29.1742 30.3637,29.0292 29.4947,28.7382 L29.4947,29.9162 C30.2637,30.2972 31.0797,30.4882 31.9427,30.4882 C33.0767,30.4882 33.9517,30.1812 34.5657,29.5642 C35.1797,28.9492 35.4877,28.0762 35.4877,26.9472 L35.4877,20.3102 L34.0867,20.3102 L33.9477,20.9552 C33.3497,20.3872 32.6457,20.1012 31.8327,20.1012 C31.2357,20.1012 30.7177,20.2562 30.2797,20.5622 C29.8397,20.8712 29.5037,21.2992 29.2717,21.8442 C29.0377,22.3902 28.9207,23.0172 28.9207,23.7262 C28.9207,24.8102 29.1797,25.6762 29.6987,26.3242 C30.2157,26.9722 30.9097,27.2972 31.7777,27.2972 L31.7777,27.2972 Z M24.2717,22.8452 C24.8267,22.8452 25.2517,22.9922 25.5427,23.2872 C25.8347,23.5802 25.9817,24.0082 25.9817,24.5662 C25.9817,25.1172 25.8397,25.5472 25.5567,25.8552 C25.2747,26.1642 24.8817,26.3162 24.3807,26.3162 C23.1507,26.3162 22.5027,25.3242 22.4397,23.3362 C23.0587,23.0082 23.6697,22.8452 24.2717,22.8452 L24.2717,22.8452 Z M24.2587,27.6462 C24.9497,27.6462 25.5537,27.5102 26.0727,27.2342 C26.5897,26.9592 26.9867,26.5822 27.2617,26.0992 C27.5367,25.6192 27.6747,25.0702 27.6747,24.4552 C27.6747,23.5782 27.4117,22.8752 26.8857,22.3472 C26.3597,21.8202 25.6617,21.5562 24.7937,21.5562 C23.9627,21.5562 23.1777,21.7952 22.4397,22.2712 C22.4857,21.1052 22.7157,20.2422 23.1307,19.6812 C23.5457,19.1212 24.1727,18.8422 25.0117,18.8422 C25.3257,18.8422 25.6677,18.8772 26.0417,18.9452 C26.4147,19.0152 26.7447,19.1072 27.0317,19.2192 L27.0317,18.0022 C26.7417,17.8512 26.3937,17.7322 25.9887,17.6442 C25.5817,17.5542 25.1777,17.5122 24.7777,17.5122 C23.4977,17.5122 22.5067,17.9862 21.8017,18.9392 C21.0977,19.8902 20.7447,21.2262 20.7447,22.9432 C20.7447,24.4922 21.0407,25.6642 21.6337,26.4572 C22.2267,27.2502 23.1017,27.6462 24.2587,27.6462 L24.2587,27.6462 Z M14.2207,19.0512 L15.9617,19.0512 C17.0227,19.0512 17.5527,19.5882 17.5527,20.6622 C17.5527,21.7342 17.0087,22.2712 15.9207,22.2712 L14.2207,22.2712 L14.2207,19.0512 Z M14.2207,23.5882 L15.9287,23.5882 L18.1977,27.4372 L19.9057,27.4372 L17.3997,23.2932 C18.0147,23.0512 18.4847,22.7012 18.8057,22.2442 C19.1277,21.7852 19.2887,21.2402 19.2887,20.6052 C19.2887,19.7282 19.0017,19.0292 18.4277,18.5112 C17.8537,17.9942 17.0907,17.7342 16.1387,17.7342 L12.5127,17.7342 L12.5127,27.4372 L14.2207,27.4372 L14.2207,23.5882 Z M8.9997,39.0002 L38.9997,39.0002 L38.9997,9.0002 L8.9997,9.0002 L8.9997,39.0002 Z M45.9997,13.0002 L45.9997,11.0002 L40.9997,11.0002 L40.9997,8.0002 C40.9997,7.4472 40.5527,7.0002 39.9997,7.0002 L36.9997,7.0002 L36.9997,2.0002 L34.9997,2.0002 L34.9997,7.0002 L30.9997,7.0002 L30.9997,2.0002 L28.9997,2.0002 L28.9997,7.0002 L24.9997,7.0002 L24.9997,2.0002 L22.9997,2.0002 L22.9997,7.0002 L18.9997,7.0002 L18.9997,2.0002 L16.9997,2.0002 L16.9997,7.0002 L12.9997,7.0002 L12.9997,2.0002 L10.9997,2.0002 L10.9997,7.0002 L7.9997,7.0002 C7.4477,7.0002 6.9997,7.4472 6.9997,8.0002 L6.9997,11.0002 L1.9997,11.0002 L1.9997,13.0002 L6.9997,13.0002 L6.9997,17.0002 L1.9997,17.0002 L1.9997,19.0002 L6.9997,19.0002 L6.9997,23.0002 L1.9997,23.0002 L1.9997,25.0002 L6.9997,25.0002 L6.9997,29.0002 L1.9997,29.0002 L1.9997,31.0002 L6.9997,31.0002 L6.9997,35.0002 L1.9997,35.0002 L1.9997,37.0002 L6.9997,37.0002 L6.9997,40.0002 C6.9997,40.5532 7.4477,41.0002 7.9997,41.0002 L10.9997,41.0002 L10.9997,46.0002 L12.9997,46.0002 L12.9997,41.0002 L16.9997,41.0002 L16.9997,46.0002 L18.9997,46.0002 L18.9997,41.0002 L22.9997,41.0002 L22.9997,46.0002 L24.9997,46.0002 L24.9997,41.0002 L28.9997,41.0002 L28.9997,46.0002 L30.9997,46.0002 L30.9997,41.0002 L34.9997,41.0002 L34.9997,46.0002 L36.9997,46.0002 L36.9997,41.0002 L39.9997,41.0002 C40.5527,41.0002 40.9997,40.5532 40.9997,40.0002 L40.9997,37.0002 L45.9997,37.0002 L45.9997,35.0002 L40.9997,35.0002 L40.9997,31.0002 L45.9997,31.0002 L45.9997,29.0002 L40.9997,29.0002 L40.9997,25.0002 L45.9997,25.0002 L45.9997,23.0002 L40.9997,23.0002 L40.9997,19.0002 L45.9997,19.0002 L45.9997,17.0002 L40.9997,17.0002 L40.9997,13.0002 L45.9997,13.0002 Z" id="Amazon-EC2-R6g-Instance_Resource-Icon_light-bg" fill="#D45B07"></path>
    </g>
</svg>