<?xml version="1.0" encoding="UTF-8"?>
<svg width="48px" height="48px" viewBox="0 0 48 48" version="1.1" xmlns="http://www.w3.org/2000/svg" xmlns:xlink="http://www.w3.org/1999/xlink">
    <title>Icon-Resource/Compute/Res_Amazon-EC2_R5b-Instance _48_Light</title>
    <g id="Icon-Resource/Compute/Res_Amazon-EC2_R5b-Instance-_48" stroke="none" stroke-width="1" fill="none" fill-rule="evenodd">
        <path d="M9,39 L39,39 L39,9 L9,9 L9,39 Z M46,13 L46,11 L41,11 L41,8 C41,7.448 40.553,7 40,7 L37,7 L37,2 L35,2 L35,7 L31,7 L31,2 L29,2 L29,7 L25,7 L25,2 L23,2 L23,7 L19,7 L19,2 L17,2 L17,7 L13,7 L13,2 L11,2 L11,7 L8,7 C7.447,7 7,7.448 7,8 L7,11 L2,11 L2,13 L7,13 L7,17 L2,17 L2,19 L7,19 L7,23 L2,23 L2,25 L7,25 L7,29 L2,29 L2,31 L7,31 L7,35 L2,35 L2,37 L7,37 L7,40 C7,40.552 7.447,41 8,41 L11,41 L11,46 L13,46 L13,41 L17,41 L17,46 L19,46 L19,41 L23,41 L23,46 L25,46 L25,41 L29,41 L29,46 L31,46 L31,41 L35,41 L35,46 L37,46 L37,41 L40,41 C40.553,41 41,40.552 41,40 L41,37 L46,37 L46,35 L41,35 L41,31 L46,31 L46,29 L41,29 L41,25 L46,25 L46,23 L41,23 L41,19 L46,19 L46,17 L41,17 L41,13 L46,13 Z M30.558,22.227 C31.07,21.873 31.631,21.695 32.237,21.695 C32.834,21.695 33.275,21.894 33.561,22.29 C33.845,22.687 33.987,23.296 33.987,24.117 C33.987,24.948 33.843,25.566 33.553,25.972 C33.264,26.378 32.82,26.581 32.224,26.581 C31.635,26.581 31.08,26.399 30.558,26.035 L30.558,22.227 Z M30.445,27.001 C30.726,27.281 31.057,27.498 31.439,27.652 C31.822,27.806 32.224,27.883 32.644,27.883 C33.259,27.883 33.796,27.72 34.253,27.393 C34.71,27.066 35.061,26.616 35.303,26.042 C35.546,25.468 35.667,24.808 35.667,24.061 C35.667,22.941 35.403,22.05 34.876,21.387 C34.349,20.725 33.642,20.393 32.755,20.393 C31.952,20.393 31.22,20.673 30.558,21.233 L30.558,17.369 L28.905,17.369 L28.905,27.729 L30.277,27.729 L30.445,27.001 Z M23.557,27.939 C22.623,27.939 21.728,27.752 20.869,27.379 L20.869,26.063 C21.89,26.408 22.771,26.581 23.513,26.581 C24.896,26.581 25.587,25.984 25.587,24.789 C25.587,24.21 25.413,23.788 25.065,23.522 C24.718,23.256 24.163,23.123 23.403,23.123 C22.838,23.123 22.128,23.17 21.274,23.263 L21.274,22.199 L21.541,18.027 L26.805,18.027 L26.805,19.357 L23.101,19.357 L22.94,21.947 C23.323,21.873 23.729,21.835 24.156,21.835 C25.126,21.835 25.89,22.096 26.446,22.619 C27.003,23.142 27.281,23.856 27.281,24.761 C27.281,25.732 26.945,26.504 26.272,27.078 C25.601,27.652 24.695,27.939 23.557,27.939 L23.557,27.939 Z M14.401,19.343 L16.142,19.343 C17.203,19.343 17.733,19.88 17.733,20.953 C17.733,22.026 17.189,22.563 16.101,22.563 L14.401,22.563 L14.401,19.343 Z M14.401,23.879 L16.109,23.879 L18.377,27.729 L20.085,27.729 L17.579,23.585 C18.195,23.342 18.664,22.992 18.986,22.535 C19.309,22.078 19.469,21.532 19.469,20.897 C19.469,20.02 19.183,19.322 18.608,18.804 C18.034,18.286 17.271,18.027 16.319,18.027 L12.693,18.027 L12.693,27.729 L14.401,27.729 L14.401,23.879 Z" id="Fill-1" fill="#D45B07"></path>
    </g>
</svg>