<?xml version="1.0" encoding="UTF-8"?>
<svg width="48px" height="48px" viewBox="0 0 48 48" version="1.1" xmlns="http://www.w3.org/2000/svg" xmlns:xlink="http://www.w3.org/1999/xlink">
    <title>Icon-Resource/Compute/Res_Amazon-EC2_Rdn_48_Light</title>
    <g id="Icon-Resource/Compute/Res_Amazon-EC2_Rdn_48" stroke="none" stroke-width="1" fill="none" fill-rule="evenodd">
        <path d="M9,39 L39,39 L39,9 L9,9 L9,39 Z M46,13 L46,11 L41,11 L41,8 C41,7.448 40.552,7 40,7 L37,7 L37,2 L35,2 L35,7 L31,7 L31,2 L29,2 L29,7 L25,7 L25,2 L23,2 L23,7 L19,7 L19,2 L17,2 L17,7 L13,7 L13,2 L11,2 L11,7 L8,7 C7.448,7 7,7.448 7,8 L7,11 L2,11 L2,13 L7,13 L7,17 L2,17 L2,19 L7,19 L7,23 L2,23 L2,25 L7,25 L7,29 L2,29 L2,31 L7,31 L7,35 L2,35 L2,37 L7,37 L7,40 C7,40.552 7.448,41 8,41 L11,41 L11,46 L13,46 L13,41 L17,41 L17,46 L19,46 L19,41 L23,41 L23,46 L25,46 L25,41 L29,41 L29,46 L31,46 L31,41 L35,41 L35,46 L37,46 L37,41 L40,41 C40.552,41 41,40.552 41,40 L41,37 L46,37 L46,35 L41,35 L41,31 L46,31 L46,29 L41,29 L41,25 L46,25 L46,23 L41,23 L41,19 L46,19 L46,17 L41,17 L41,13 L46,13 Z M30.613,28.729 L28.961,28.729 L28.961,21.603 L30.333,21.603 L30.501,22.387 C31.378,21.725 32.293,21.393 33.245,21.393 C33.926,21.393 34.444,21.573 34.799,21.932 C35.154,22.292 35.331,22.812 35.331,23.493 L35.331,28.729 L33.679,28.729 L33.679,24.011 C33.679,23.554 33.586,23.22 33.399,23.01 C33.212,22.8 32.914,22.695 32.503,22.695 C31.887,22.695 31.257,22.9 30.613,23.311 L30.613,28.729 Z M22.612,23.29 C22.906,22.894 23.366,22.695 23.991,22.695 C24.57,22.695 25.097,22.863 25.573,23.199 L25.573,27.049 C25.05,27.404 24.514,27.581 23.963,27.581 C22.769,27.581 22.171,26.76 22.171,25.117 C22.171,24.296 22.318,23.687 22.612,23.29 L22.612,23.29 Z M23.445,28.883 C24.276,28.883 25.008,28.603 25.643,28.043 L25.811,28.729 L27.225,28.729 L27.225,18.369 L25.573,18.369 L25.573,22.121 C24.957,21.636 24.276,21.393 23.529,21.393 C22.904,21.393 22.362,21.554 21.905,21.876 C21.448,22.198 21.098,22.644 20.855,23.213 C20.612,23.782 20.491,24.44 20.491,25.187 C20.491,26.316 20.759,27.215 21.296,27.882 C21.833,28.549 22.549,28.883 23.445,28.883 L23.445,28.883 Z M14.415,20.343 L16.156,20.343 C17.217,20.343 17.747,20.88 17.747,21.953 C17.747,23.026 17.203,23.563 16.115,23.563 L14.415,23.563 L14.415,20.343 Z M14.415,24.879 L16.123,24.879 L18.391,28.729 L20.099,28.729 L17.593,24.585 C18.209,24.342 18.678,23.992 19,23.535 C19.322,23.078 19.483,22.532 19.483,21.897 C19.483,21.02 19.196,20.322 18.622,19.804 C18.048,19.286 17.285,19.027 16.333,19.027 L12.707,19.027 L12.707,28.729 L14.415,28.729 L14.415,24.879 Z" id="Fill-1" fill="#D45B07"></path>
    </g>
</svg>