<?xml version="1.0" encoding="UTF-8"?>
<svg width="48px" height="48px" viewBox="0 0 48 48" version="1.1" xmlns="http://www.w3.org/2000/svg" xmlns:xlink="http://www.w3.org/1999/xlink">
    <title>Icon-Resource/Compute/Res_Amazon-EC2_R5-Instance_48_Light</title>
    <g id="Icon-Resource/Compute/Res_Amazon-EC2_R5-Instance_48" stroke="none" stroke-width="1" fill="none" fill-rule="evenodd">
        <path d="M27.711,29.094 C26.777,29.094 25.882,28.907 25.023,28.534 L25.023,27.218 C26.043,27.564 26.925,27.737 27.667,27.737 C29.05,27.737 29.741,27.139 29.741,25.945 C29.741,25.365 29.567,24.944 29.219,24.677 C28.871,24.411 28.317,24.279 27.558,24.279 C26.991,24.279 26.282,24.325 25.429,24.418 L25.429,23.355 L25.695,19.182 L30.959,19.182 L30.959,20.512 L27.254,20.512 L27.095,23.102 C27.478,23.028 27.883,22.99 28.311,22.99 C29.28,22.99 30.044,23.251 30.601,23.775 C31.156,24.297 31.435,25.011 31.435,25.916 C31.435,26.887 31.099,27.659 30.427,28.234 C29.755,28.807 28.85,29.094 27.711,29.094 L27.711,29.094 Z M18.275,20.498 L20.016,20.498 C21.076,20.498 21.607,21.035 21.607,22.109 C21.607,23.182 21.063,23.718 19.975,23.718 L18.275,23.718 L18.275,20.498 Z M18.275,25.034 L19.983,25.034 L22.251,28.884 L23.959,28.884 L21.453,24.74 C22.069,24.497 22.538,24.148 22.86,23.691 C23.182,23.233 23.343,22.687 23.343,22.052 C23.343,21.175 23.056,20.477 22.482,19.959 C21.908,19.442 21.145,19.182 20.193,19.182 L16.567,19.182 L16.567,28.884 L18.275,28.884 L18.275,25.034 Z M9,39 L39,39 L39,9 L9,9 L9,39 Z M46,13 L46,11 L41,11 L41,8 C41,7.448 40.553,7 40,7 L37,7 L37,2 L35,2 L35,7 L31,7 L31,2 L29,2 L29,7 L25,7 L25,2 L23,2 L23,7 L19,7 L19,2 L17,2 L17,7 L13,7 L13,2 L11,2 L11,7 L8,7 C7.447,7 7,7.448 7,8 L7,11 L2,11 L2,13 L7,13 L7,17 L2,17 L2,19 L7,19 L7,23 L2,23 L2,25 L7,25 L7,29 L2,29 L2,31 L7,31 L7,35 L2,35 L2,37 L7,37 L7,40 C7,40.553 7.447,41 8,41 L11,41 L11,46 L13,46 L13,41 L17,41 L17,46 L19,46 L19,41 L23,41 L23,46 L25,46 L25,41 L29,41 L29,46 L31,46 L31,41 L35,41 L35,46 L37,46 L37,41 L40,41 C40.553,41 41,40.553 41,40 L41,37 L46,37 L46,35 L41,35 L41,31 L46,31 L46,29 L41,29 L41,25 L46,25 L46,23 L41,23 L41,19 L46,19 L46,17 L41,17 L41,13 L46,13 Z" id="Amazon-EC2-R5-Instance_Resource-Icon_light-bg" fill="#D45B07"></path>
    </g>
</svg>