<?xml version="1.0" encoding="UTF-8"?>
<svg width="48px" height="48px" viewBox="0 0 48 48" version="1.1" xmlns="http://www.w3.org/2000/svg" xmlns:xlink="http://www.w3.org/1999/xlink">
    <title>Icon-Resource/Compute/Res_Amazon-EC2_R5d_48_Light</title>
    <g id="Icon-Resource/Compute/Res_Amazon-EC2_R5d_48" stroke="none" stroke-width="1" fill="none" fill-rule="evenodd">
        <path d="M9,39 L39,39 L39,9 L9,9 L9,39 Z M46,13 L46,11 L41,11 L41,8 C41,7.448 40.552,7 40,7 L37,7 L37,2 L35,2 L35,7 L31,7 L31,2 L29,2 L29,7 L25,7 L25,2 L23,2 L23,7 L19,7 L19,2 L17,2 L17,7 L13,7 L13,2 L11,2 L11,7 L8,7 C7.448,7 7,7.448 7,8 L7,11 L2,11 L2,13 L7,13 L7,17 L2,17 L2,19 L7,19 L7,23 L2,23 L2,25 L7,25 L7,29 L2,29 L2,31 L7,31 L7,35 L2,35 L2,37 L7,37 L7,40 C7,40.552 7.448,41 8,41 L11,41 L11,46 L13,46 L13,41 L17,41 L17,46 L19,46 L19,41 L23,41 L23,46 L25,46 L25,41 L29,41 L29,46 L31,46 L31,41 L35,41 L35,46 L37,46 L37,41 L40,41 C40.552,41 41,40.552 41,40 L41,37 L46,37 L46,35 L41,35 L41,31 L46,31 L46,29 L41,29 L41,25 L46,25 L46,23 L41,23 L41,19 L46,19 L46,17 L41,17 L41,13 L46,13 Z M30.676,23.29 C30.97,22.894 31.43,22.695 32.055,22.695 C32.634,22.695 33.161,22.863 33.637,23.199 L33.637,27.049 C33.114,27.404 32.578,27.581 32.027,27.581 C30.833,27.581 30.235,26.76 30.235,25.117 C30.235,24.296 30.382,23.687 30.676,23.29 L30.676,23.29 Z M31.509,28.883 C32.34,28.883 33.072,28.603 33.707,28.043 L33.875,28.729 L35.289,28.729 L35.289,18.369 L33.637,18.369 L33.637,22.121 C33.021,21.636 32.34,21.393 31.593,21.393 C30.968,21.393 30.426,21.554 29.969,21.876 C29.512,22.198 29.162,22.644 28.919,23.213 C28.676,23.782 28.555,24.44 28.555,25.187 C28.555,26.316 28.823,27.215 29.36,27.882 C29.896,28.549 30.613,28.883 31.509,28.883 L31.509,28.883 Z M23.571,28.939 C22.637,28.939 21.741,28.752 20.883,28.379 L20.883,27.063 C21.903,27.408 22.785,27.581 23.527,27.581 C24.91,27.581 25.601,26.984 25.601,25.789 C25.601,25.21 25.427,24.788 25.079,24.522 C24.731,24.256 24.177,24.123 23.417,24.123 C22.852,24.123 22.142,24.17 21.289,24.263 L21.289,23.199 L21.555,19.027 L26.819,19.027 L26.819,20.357 L23.114,20.357 L22.955,22.947 C23.337,22.873 23.743,22.835 24.17,22.835 C25.14,22.835 25.904,23.096 26.46,23.619 C27.017,24.142 27.295,24.856 27.295,25.761 C27.295,26.732 26.959,27.504 26.287,28.078 C25.615,28.652 24.709,28.939 23.571,28.939 L23.571,28.939 Z M14.415,20.343 L16.156,20.343 C17.217,20.343 17.747,20.88 17.747,21.953 C17.747,23.026 17.203,23.563 16.115,23.563 L14.415,23.563 L14.415,20.343 Z M14.415,24.879 L16.123,24.879 L18.391,28.729 L20.099,28.729 L17.593,24.585 C18.209,24.342 18.678,23.992 19,23.535 C19.322,23.078 19.483,22.532 19.483,21.897 C19.483,21.02 19.196,20.322 18.622,19.804 C18.048,19.286 17.285,19.027 16.333,19.027 L12.707,19.027 L12.707,28.729 L14.415,28.729 L14.415,24.879 Z" id="Fill-1" fill="#D45B07"></path>
    </g>
</svg>