<?xml version="1.0" encoding="UTF-8"?>
<svg width="48px" height="48px" viewBox="0 0 48 48" version="1.1" xmlns="http://www.w3.org/2000/svg" xmlns:xlink="http://www.w3.org/1999/xlink">
    <title>Icon-Resource/Compute/Res_Amazon-EC2_Spot-Instance_48_Light</title>
    <g id="Icon-Resource/Compute/Res_Amazon-EC2_Spot-Instance_48" stroke="none" stroke-width="1" fill="none" fill-rule="evenodd">
        <path d="M3.675,24.96 L2,24.96 L2,22.96 L3.675,22.96 C3.864,19.016 5.161,15.264 7.481,12.061 L9.1,13.232 C7.03,16.093 5.863,19.439 5.675,22.96 L7.271,22.96 L7.271,24.96 L5.675,24.96 C5.863,28.481 7.03,31.827 9.101,34.689 L7.48,35.86 C5.161,32.656 3.864,28.904 3.675,24.96 L3.675,24.96 Z M35.861,40.44 C32.657,42.761 28.906,44.057 24.96,44.246 L24.96,45.862 L22.96,45.862 L22.96,44.246 C19.016,44.057 15.265,42.761 12.061,40.44 L13.233,38.821 C16.094,40.892 19.44,42.059 22.96,42.246 L22.96,40.649 L24.96,40.649 L24.96,42.246 C28.482,42.059 31.828,40.892 34.689,38.821 L35.861,40.44 Z M12.061,7.481 C15.265,5.16 19.016,3.864 22.96,3.674 L22.96,2 L24.96,2 L24.96,3.674 C28.906,3.864 32.657,5.16 35.861,7.481 L34.689,9.1 C31.828,7.029 28.482,5.862 24.96,5.674 L24.96,7.271 L22.96,7.271 L22.96,5.674 C19.44,5.862 16.094,7.029 13.233,9.1 L12.061,7.481 Z M45.92,24.96 L44.247,24.96 C44.057,28.904 42.761,32.656 40.442,35.86 L38.821,34.689 C40.892,31.827 42.059,28.481 42.247,24.96 L40.65,24.96 L40.65,22.96 L42.247,22.96 C42.059,19.439 40.892,16.093 38.821,13.232 L40.441,12.061 C42.761,15.264 44.057,19.016 44.247,22.96 L45.92,22.96 L45.92,24.96 Z M35.551,10.956 L41.699,4.807 L43.113,6.221 L36.965,12.37 L35.551,10.956 Z M12.37,36.965 L6.221,43.113 L4.807,41.699 L10.956,35.551 L12.37,36.965 Z M31.695,30.28 L43.113,41.699 L41.699,43.113 L30.28,31.694 L31.695,30.28 Z M16.226,17.64 L4.807,6.221 L6.221,4.807 L17.64,16.226 L16.226,17.64 Z M33.501,22.96 L33.501,14.419 L24.96,14.419 L24.96,16.904 L22.96,16.904 L22.96,13.827 C22.96,13.051 23.592,12.419 24.368,12.419 L34.093,12.419 C34.869,12.419 35.501,13.051 35.501,13.827 L35.501,23.552 C35.501,24.328 34.869,24.96 34.093,24.96 L30.987,24.96 L30.987,22.96 L33.501,22.96 Z M14.42,24.96 L14.42,33.501 L22.96,33.501 L22.96,30.987 L24.96,30.987 L24.96,34.093 C24.96,34.869 24.328,35.501 23.552,35.501 L13.828,35.501 C13.052,35.501 12.42,34.869 12.42,34.093 L12.42,24.368 C12.42,23.592 13.052,22.96 13.828,22.96 L16.933,22.96 L16.933,24.96 L14.42,24.96 Z M19.69,28.231 L28.231,28.231 L28.231,19.69 L19.69,19.69 L19.69,28.231 Z M30.231,28.579 L30.231,19.341 C30.231,18.431 29.489,17.689 28.579,17.689 L19.341,17.689 C18.431,17.689 17.69,18.431 17.69,19.341 L17.69,28.579 C17.69,29.489 18.431,30.231 19.341,30.231 L28.579,30.231 C29.489,30.231 30.231,29.489 30.231,28.579 L30.231,28.579 Z" id="Amazon-EC2-Spot-Instance_Resource-Icon_light-bg" fill="#D45B07"></path>
    </g>
</svg>