<?xml version="1.0" encoding="UTF-8"?>
<svg width="48px" height="48px" viewBox="0 0 48 48" version="1.1" xmlns="http://www.w3.org/2000/svg" xmlns:xlink="http://www.w3.org/1999/xlink">
    <title>Icon-Resource/Compute/Res_Amazon-EC2_T3-Instance_48_Light</title>
    <g id="Icon-Resource/Compute/Res_Amazon-EC2_T3-Instance_48" stroke="none" stroke-width="1" fill="none" fill-rule="evenodd">
        <path d="M27.892,29.024 C26.996,29.024 26.119,28.837 25.26,28.463 L25.26,27.148 C26.281,27.493 27.139,27.666 27.834,27.666 C28.494,27.666 29.001,27.519 29.358,27.225 C29.715,26.931 29.894,26.513 29.894,25.972 C29.894,24.945 29.246,24.432 27.951,24.432 C27.535,24.432 27.085,24.46 26.604,24.516 L26.604,23.438 L29.362,20.442 L25.4,20.442 L25.4,19.112 L31.182,19.112 L31.182,20.385 L28.27,23.242 C28.399,23.233 28.528,23.228 28.657,23.228 C29.203,23.228 29.696,23.342 30.137,23.571 C30.579,23.799 30.931,24.124 31.194,24.544 C31.456,24.963 31.588,25.445 31.588,25.986 C31.588,26.574 31.439,27.096 31.14,27.554 C30.841,28.011 30.412,28.371 29.852,28.631 C29.292,28.893 28.639,29.024 27.892,29.024 L27.892,29.024 Z M19.451,20.512 L16.413,20.512 L16.413,19.112 L24.197,19.112 L24.197,20.512 L21.159,20.512 L21.159,28.814 L19.451,28.814 L19.451,20.512 Z M9,39 L39,39 L39,9 L9,9 L9,39 Z M46,13 L46,11 L41,11 L41,8 C41,7.447 40.553,7 40,7 L37,7 L37,2 L35,2 L35,7 L31,7 L31,2 L29,2 L29,7 L25,7 L25,2 L23,2 L23,7 L19,7 L19,2 L17,2 L17,7 L13,7 L13,2 L11,2 L11,7 L8,7 C7.448,7 7,7.447 7,8 L7,11 L2,11 L2,13 L7,13 L7,17 L2,17 L2,19 L7,19 L7,23 L2,23 L2,25 L7,25 L7,29 L2,29 L2,31 L7,31 L7,35 L2,35 L2,37 L7,37 L7,40 C7,40.552 7.448,41 8,41 L11,41 L11,46 L13,46 L13,41 L17,41 L17,46 L19,46 L19,41 L23,41 L23,46 L25,46 L25,41 L29,41 L29,46 L31,46 L31,41 L35,41 L35,46 L37,46 L37,41 L40,41 C40.553,41 41,40.552 41,40 L41,37 L46,37 L46,35 L41,35 L41,31 L46,31 L46,29 L41,29 L41,25 L46,25 L46,23 L41,23 L41,19 L46,19 L46,17 L41,17 L41,13 L46,13 Z" id="Amazon-EC2-T3-Instance_Resource-Icon_light-bg" fill="#D45B07"></path>
    </g>
</svg>