<?xml version="1.0" encoding="UTF-8"?>
<svg width="48px" height="48px" viewBox="0 0 48 48" version="1.1" xmlns="http://www.w3.org/2000/svg" xmlns:xlink="http://www.w3.org/1999/xlink">
    <title>Icon-Resource/Compute/Res_Amazon-EC2_T2-Instance_48_Light</title>
    <g id="Icon-Resource/Compute/Res_Amazon-EC2_T2-Instance_48" stroke="none" stroke-width="1" fill="none" fill-rule="evenodd">
        <path d="M31.435,28.793 L24.855,28.793 L24.855,27.533 C26.143,26.227 27.09,25.224 27.697,24.523 C28.303,23.823 28.723,23.259 28.956,22.83 C29.19,22.4 29.307,22.004 29.307,21.64 C29.307,21.211 29.181,20.877 28.929,20.639 C28.677,20.4 28.322,20.281 27.865,20.281 C27.463,20.281 27.027,20.373 26.556,20.555 C26.084,20.736 25.606,20.996 25.121,21.332 L25.121,19.959 C26.012,19.231 26.998,18.867 28.075,18.867 C28.66,18.867 29.17,18.973 29.607,19.183 C30.044,19.393 30.385,19.693 30.631,20.086 C30.877,20.478 31,20.944 31,21.485 C31,22.008 30.857,22.538 30.57,23.074 C30.283,23.611 29.821,24.223 29.183,24.908 C28.546,25.594 27.667,26.446 26.548,27.463 L31.435,27.463 L31.435,28.793 Z M19.045,20.492 L16.007,20.492 L16.007,19.092 L23.791,19.092 L23.791,20.492 L20.753,20.492 L20.753,28.793 L19.045,28.793 L19.045,20.492 Z M9,39 L39,39 L39,9 L9,9 L9,39 Z M46,13 L46,11 L41,11 L41,8 C41,7.447 40.553,7 40,7 L37,7 L37,2 L35,2 L35,7 L31,7 L31,2 L29,2 L29,7 L25,7 L25,2 L23,2 L23,7 L19,7 L19,2 L17,2 L17,7 L13,7 L13,2 L11,2 L11,7 L8,7 C7.448,7 7,7.447 7,8 L7,11 L2,11 L2,13 L7,13 L7,17 L2,17 L2,19 L7,19 L7,23 L2,23 L2,25 L7,25 L7,29 L2,29 L2,31 L7,31 L7,35 L2,35 L2,37 L7,37 L7,40 C7,40.553 7.448,41 8,41 L11,41 L11,46 L13,46 L13,41 L17,41 L17,46 L19,46 L19,41 L23,41 L23,46 L25,46 L25,41 L29,41 L29,46 L31,46 L31,41 L35,41 L35,46 L37,46 L37,41 L40,41 C40.553,41 41,40.553 41,40 L41,37 L46,37 L46,35 L41,35 L41,31 L46,31 L46,29 L41,29 L41,25 L46,25 L46,23 L41,23 L41,19 L46,19 L46,17 L41,17 L41,13 L46,13 Z" id="Amazon-EC2-T2-Instance_Resource-Icon_light-bg" fill="#D45B07"></path>
    </g>
</svg>