<?xml version="1.0" encoding="UTF-8"?>
<svg width="48px" height="48px" viewBox="0 0 48 48" version="1.1" xmlns="http://www.w3.org/2000/svg" xmlns:xlink="http://www.w3.org/1999/xlink">
    <title>Icon-Resource/Compute/Res_Amazon-EC2_EC2-Trainium_48_Light</title>
    <g id="Icon-Resource/Compute/Res_Amazon-EC2_EC2-Trainium_48" stroke="none" stroke-width="1" fill="none" fill-rule="evenodd">
        <path d="M9,39 L39,39 L39,9 L9,9 L9,39 Z M41,13 L41,17 L46,17 L46,19 L41,19 L41,23 L46,23 L46,25 L41,25 L41,29 L46,29 L46,31 L41,31 L41,35 L46,35 L46,37 L41,37 L41,40 C41,40.552 40.553,41 40,41 L37,41 L37,46 L35,46 L35,41 L31,41 L31,46 L29,46 L29,41 L25,41 L25,46 L23,46 L23,41 L19,41 L19,46 L17,46 L17,41 L13,41 L13,46 L11,46 L11,41 L8,41 C7.447,41 7,40.552 7,40 L7,37 L2,37 L2,35 L7,35 L7,31 L2,31 L2,29 L7,29 L7,25 L2,25 L2,23 L7,23 L7,19 L2,19 L2,17 L7,17 L7,13 L2,13 L2,11 L7,11 L7,8 C7,7.448 7.447,7 8,7 L11,7 L11,2 L13,2 L13,7 L17,7 L17,2 L19,2 L19,7 L23,7 L23,2 L25,2 L25,7 L29,7 L29,2 L31,2 L31,7 L35,7 L35,2 L37,2 L37,7 L40,7 C40.553,7 41,7.448 41,8 L41,11 L46,11 L46,13 L41,13 Z M32.699,23.971 C32.844,23.887 32.994,23.823 33.15,23.778 C33.307,23.734 33.452,23.712 33.588,23.712 C33.779,23.712 33.917,23.759 34.001,23.852 C34.085,23.945 34.127,24.1 34.127,24.314 L34.127,26.729 L34.953,26.729 L34.953,23.971 C35.074,23.896 35.217,23.834 35.38,23.786 C35.543,23.736 35.697,23.712 35.842,23.712 C36.033,23.712 36.171,23.759 36.255,23.852 C36.339,23.945 36.381,24.1 36.381,24.314 L36.381,26.729 L37.207,26.729 L37.207,24.111 C37.207,23.771 37.116,23.51 36.934,23.331 C36.752,23.151 36.495,23.061 36.164,23.061 C35.734,23.061 35.286,23.222 34.82,23.544 C34.656,23.222 34.357,23.061 33.924,23.061 C33.714,23.061 33.505,23.099 33.298,23.173 C33.09,23.248 32.869,23.364 32.636,23.523 L32.559,23.166 L31.873,23.166 L31.873,26.729 L32.699,26.729 L32.699,23.971 Z M28.926,26.834 C29.36,26.834 29.797,26.668 30.235,26.337 L30.319,26.729 L31.005,26.729 L31.005,23.166 L30.179,23.166 L30.179,25.896 C29.885,26.087 29.594,26.183 29.304,26.183 C29.099,26.183 28.949,26.129 28.856,26.022 C28.763,25.915 28.716,25.747 28.716,25.518 L28.716,23.166 L27.891,23.166 L27.891,25.763 C27.891,26.108 27.979,26.373 28.159,26.558 C28.339,26.742 28.595,26.834 28.926,26.834 L28.926,26.834 Z M26.203,26.729 L27.029,26.729 L27.029,23.166 L26.203,23.166 L26.203,26.729 Z M26.616,22.578 C26.771,22.578 26.892,22.536 26.98,22.452 C27.068,22.368 27.113,22.251 27.113,22.102 C27.113,21.953 27.068,21.836 26.98,21.752 C26.892,21.668 26.771,21.626 26.616,21.626 C26.462,21.626 26.341,21.668 26.252,21.752 C26.163,21.836 26.119,21.953 26.119,22.102 C26.119,22.251 26.163,22.368 26.252,22.452 C26.341,22.536 26.462,22.578 26.616,22.578 L26.616,22.578 Z M22.969,24.02 C23.291,23.815 23.605,23.712 23.914,23.712 C24.119,23.712 24.269,23.765 24.362,23.87 C24.455,23.975 24.502,24.142 24.502,24.37 L24.502,26.729 L25.328,26.729 L25.328,24.111 C25.328,23.771 25.239,23.51 25.062,23.331 C24.885,23.151 24.626,23.061 24.285,23.061 C23.809,23.061 23.352,23.227 22.913,23.558 L22.829,23.166 L22.143,23.166 L22.143,26.729 L22.969,26.729 L22.969,24.02 Z M20.422,26.729 L21.247,26.729 L21.247,23.166 L20.422,23.166 L20.422,26.729 Z M20.834,22.578 C20.988,22.578 21.109,22.536 21.198,22.452 C21.287,22.368 21.331,22.251 21.331,22.102 C21.331,21.953 21.287,21.836 21.198,21.752 C21.109,21.668 20.988,21.626 20.834,21.626 C20.681,21.626 20.559,21.668 20.471,21.752 C20.382,21.836 20.338,21.953 20.338,22.102 C20.338,22.251 20.382,22.368 20.471,22.452 C20.559,22.536 20.681,22.578 20.834,22.578 L20.834,22.578 Z M18.77,25.238 C18.528,25.187 18.314,25.161 18.128,25.161 C17.654,25.161 17.418,25.35 17.418,25.728 C17.418,25.892 17.464,26.019 17.555,26.109 C17.646,26.201 17.771,26.246 17.93,26.246 C18.062,26.246 18.2,26.217 18.346,26.159 C18.491,26.1 18.633,26.018 18.77,25.91 L18.77,25.238 Z M18.77,24.748 L18.77,24.335 C18.77,24.097 18.718,23.932 18.615,23.838 C18.513,23.745 18.333,23.698 18.076,23.698 C17.712,23.698 17.294,23.775 16.823,23.929 L16.823,23.348 C16.999,23.259 17.214,23.189 17.468,23.138 C17.722,23.087 17.978,23.061 18.234,23.061 C18.699,23.061 19.043,23.154 19.264,23.341 C19.484,23.528 19.595,23.819 19.595,24.216 L19.595,26.729 L18.874,26.729 L18.812,26.386 C18.647,26.526 18.467,26.636 18.269,26.715 C18.07,26.794 17.873,26.834 17.677,26.834 C17.351,26.834 17.086,26.736 16.883,26.54 C16.68,26.344 16.578,26.09 16.578,25.777 C16.578,25.432 16.703,25.156 16.952,24.951 C17.202,24.746 17.537,24.643 17.957,24.643 C18.204,24.643 18.475,24.678 18.77,24.748 L18.77,24.748 Z M15.066,24.146 C15.333,23.969 15.638,23.88 15.983,23.88 C16.119,23.88 16.252,23.892 16.383,23.915 L16.383,23.159 C16.28,23.145 16.185,23.138 16.096,23.138 C15.904,23.138 15.727,23.18 15.563,23.264 C15.4,23.348 15.226,23.493 15.038,23.698 L14.927,23.166 L14.24,23.166 L14.24,26.729 L15.066,26.729 L15.066,24.146 Z M11.783,22.578 L10.265,22.578 L10.265,21.878 L14.156,21.878 L14.156,22.578 L12.638,22.578 L12.638,26.729 L11.783,26.729 L11.783,22.578 Z" id="Fill-1" fill="#D45B07"></path>
    </g>
</svg>