<?xml version="1.0" encoding="UTF-8"?>
<svg width="48px" height="48px" viewBox="0 0 48 48" version="1.1" xmlns="http://www.w3.org/2000/svg" xmlns:xlink="http://www.w3.org/1999/xlink">
    <title>Icon-Resource/Compute/Res_Amazon-EC2_T3a_48_Light</title>
    <g id="Icon-Resource/Compute/Res_Amazon-EC2_T3a_48" stroke="none" stroke-width="1" fill="none" fill-rule="evenodd">
        <path d="M9,39 L39,39 L39,9 L9,9 L9,39 Z M41,13 L41,17 L46,17 L46,19 L41,19 L41,23 L46,23 L46,25 L41,25 L41,29 L46,29 L46,31 L41,31 L41,35 L46,35 L46,37 L41,37 L41,40 C41,40.552 40.552,41 40,41 L37,41 L37,46 L35,46 L35,41 L31,41 L31,46 L29,46 L29,41 L25,41 L25,46 L23,46 L23,41 L19,41 L19,46 L17,46 L17,41 L13,41 L13,46 L11,46 L11,41 L8,41 C7.448,41 7,40.552 7,40 L7,37 L2,37 L2,35 L7,35 L7,31 L2,31 L2,29 L7,29 L7,25 L2,25 L2,23 L7,23 L7,19 L2,19 L2,17 L7,17 L7,13 L2,13 L2,11 L7,11 L7,8 C7,7.448 7.448,7 8,7 L11,7 L11,2 L13,2 L13,7 L17,7 L17,2 L19,2 L19,7 L23,7 L23,2 L25,2 L25,7 L29,7 L29,2 L31,2 L31,7 L35,7 L35,2 L37,2 L37,7 L40,7 C40.552,7 41,7.448 41,8 L41,11 L46,11 L46,13 L41,13 Z M33.049,25.747 C32.567,25.645 32.139,25.593 31.766,25.593 C30.82,25.593 30.347,25.971 30.347,26.727 C30.347,27.054 30.437,27.308 30.62,27.49 C30.802,27.672 31.052,27.763 31.371,27.763 C31.634,27.763 31.912,27.705 32.203,27.588 C32.494,27.471 32.776,27.306 33.049,27.091 L33.049,25.747 Z M33.049,24.767 L33.049,23.941 C33.049,23.465 32.946,23.134 32.741,22.947 C32.536,22.76 32.176,22.667 31.663,22.667 C30.935,22.667 30.1,22.821 29.157,23.129 L29.157,21.967 C29.508,21.79 29.938,21.65 30.447,21.547 C30.955,21.444 31.466,21.393 31.979,21.393 C32.91,21.393 33.596,21.58 34.038,21.953 C34.48,22.326 34.701,22.91 34.701,23.703 L34.701,28.729 L33.259,28.729 L33.133,28.043 C32.806,28.323 32.444,28.542 32.048,28.701 C31.651,28.859 31.257,28.939 30.865,28.939 C30.211,28.939 29.682,28.743 29.276,28.351 C28.87,27.959 28.667,27.45 28.667,26.825 C28.667,26.134 28.917,25.584 29.416,25.173 C29.915,24.762 30.585,24.557 31.425,24.557 C31.919,24.557 32.461,24.627 33.049,24.767 L33.049,24.767 Z M25.643,28.547 C26.203,28.286 26.632,27.926 26.931,27.469 C27.229,27.012 27.379,26.489 27.379,25.901 C27.379,25.36 27.248,24.879 26.985,24.459 C26.722,24.039 26.37,23.715 25.928,23.486 C25.487,23.257 24.994,23.143 24.448,23.143 C24.319,23.143 24.19,23.148 24.061,23.157 L26.973,20.301 L26.973,19.027 L21.191,19.027 L21.191,20.357 L25.153,20.357 L22.395,23.353 L22.395,24.431 C22.876,24.375 23.325,24.347 23.742,24.347 C25.037,24.347 25.685,24.86 25.685,25.887 C25.685,26.428 25.506,26.846 25.149,27.14 C24.792,27.434 24.284,27.581 23.625,27.581 C22.93,27.581 22.072,27.408 21.051,27.063 L21.051,28.379 C21.91,28.752 22.787,28.939 23.683,28.939 C24.43,28.939 25.083,28.808 25.643,28.547 L25.643,28.547 Z M15.521,20.427 L12.483,20.427 L12.483,19.027 L20.267,19.027 L20.267,20.427 L17.229,20.427 L17.229,28.729 L15.521,28.729 L15.521,20.427 Z" id="Fill-1" fill="#D45B07"></path>
    </g>
</svg>