<?xml version="1.0" encoding="UTF-8"?>
<svg width="48px" height="48px" viewBox="0 0 48 48" version="1.1" xmlns="http://www.w3.org/2000/svg" xmlns:xlink="http://www.w3.org/1999/xlink">
    <title>Icon-Resource/Compute/Res_Amazon-EC2_VT1-Instance_48_Light</title>
    <g id="Icon-Resource/Compute/Res_Amazon-EC2_VT1-Instance_48" stroke="none" stroke-width="1" fill="none" fill-rule="evenodd">
        <path d="M9,39 L39,39 L39,9 L9,9 L9,39 Z M41,13 L41,17 L46,17 L46,19 L41,19 L41,23 L46,23 L46,25 L41,25 L41,29 L46,29 L46,31 L41,31 L41,35 L46,35 L46,37 L41,37 L41,40 C41,40.552 40.553,41 40,41 L37,41 L37,46 L35,46 L35,41 L31,41 L31,46 L29,46 L29,41 L25,41 L25,46 L23,46 L23,41 L19,41 L19,46 L17,46 L17,41 L13,41 L13,46 L11,46 L11,41 L8,41 C7.447,41 7,40.552 7,40 L7,37 L2,37 L2,35 L7,35 L7,31 L2,31 L2,29 L7,29 L7,25 L2,25 L2,23 L7,23 L7,19 L2,19 L2,17 L7,17 L7,13 L2,13 L2,11 L7,11 L7,8 C7,7.448 7.447,7 8,7 L11,7 L11,2 L13,2 L13,7 L17,7 L17,2 L19,2 L19,7 L23,7 L23,2 L25,2 L25,7 L29,7 L29,2 L31,2 L31,7 L35,7 L35,2 L37,2 L37,7 L40,7 C40.553,7 41,7.448 41,8 L41,11 L46,11 L46,13 L41,13 Z M32.622,28.761 L34.288,28.761 L34.288,19.059 L32.776,19.059 L30.005,20.347 L30.005,21.691 L32.622,20.711 L32.622,28.761 Z M24.167,28.761 L25.875,28.761 L25.875,20.459 L28.913,20.459 L28.913,19.059 L21.129,19.059 L21.129,20.459 L24.167,20.459 L24.167,28.761 Z M15.417,28.761 L11.917,19.059 L13.625,19.059 L16.355,27.081 L19.071,19.059 L20.779,19.059 L17.224,28.761 L15.417,28.761 Z" id="Fill-1" fill="#D45B07"></path>
    </g>
</svg>