<?xml version="1.0" encoding="UTF-8"?>
<svg width="48px" height="48px" viewBox="0 0 48 48" version="1.1" xmlns="http://www.w3.org/2000/svg" xmlns:xlink="http://www.w3.org/1999/xlink">
    <title>Icon-Resource/Compute/Res_Amazon-EC2_X1-Instance_48_Light</title>
    <g id="Icon-Resource/Compute/Res_Amazon-EC2_X1-Instance_48" stroke="none" stroke-width="1" fill="none" fill-rule="evenodd">
        <path d="M29.425,20.802 L26.807,21.781 L26.807,20.437 L29.579,19.15 L31.091,19.15 L31.091,28.851 L29.425,28.851 L29.425,20.802 Z M16.909,28.851 L20.157,23.825 L17.133,19.15 L18.841,19.15 L21.152,22.593 L23.405,19.15 L25.113,19.15 L22.075,23.797 L25.337,28.851 L23.629,28.851 L21.081,25.015 L18.617,28.851 L16.909,28.851 Z M9,39 L39,39 L39,9 L9,9 L9,39 Z M46,13 L46,11 L41,11 L41,8 C41,7.448 40.553,7 40,7 L37,7 L37,2 L35,2 L35,7 L31,7 L31,2 L29,2 L29,7 L25,7 L25,2 L23,2 L23,7 L19,7 L19,2 L17,2 L17,7 L13,7 L13,2 L11,2 L11,7 L8,7 C7.447,7 7,7.448 7,8 L7,11 L2,11 L2,13 L7,13 L7,17 L2,17 L2,19 L7,19 L7,23 L2,23 L2,25 L7,25 L7,29 L2,29 L2,31 L7,31 L7,35 L2,35 L2,37 L7,37 L7,40 C7,40.553 7.447,41 8,41 L11,41 L11,46 L13,46 L13,41 L17,41 L17,46 L19,46 L19,41 L23,41 L23,46 L25,46 L25,41 L29,41 L29,46 L31,46 L31,41 L35,41 L35,46 L37,46 L37,41 L40,41 C40.553,41 41,40.553 41,40 L41,37 L46,37 L46,35 L41,35 L41,31 L46,31 L46,29 L41,29 L41,25 L46,25 L46,23 L41,23 L41,19 L46,19 L46,17 L41,17 L41,13 L46,13 Z" id="Amazon-EC2-X1-Instance_Resource-Icon_light-bg" fill="#D45B07"></path>
    </g>
</svg>