<?xml version="1.0" encoding="UTF-8"?>
<svg width="48px" height="48px" viewBox="0 0 48 48" version="1.1" xmlns="http://www.w3.org/2000/svg" xmlns:xlink="http://www.w3.org/1999/xlink">
    <title>Icon-Resource/Compute/Res_Amazon-EC2_X2idn-Instance_48_Light</title>
    <g id="Icon-Resource/Compute/Res_Amazon-EC2_X2idn-Instance_48" stroke="none" stroke-width="1" fill="none" fill-rule="evenodd">
        <path d="M9,39 L39,39 L39,9 L9,9 L9,39 Z M41,13 L41,17 L46,17 L46,19 L41,19 L41,23 L46,23 L46,25 L41,25 L41,29 L46,29 L46,31 L41,31 L41,35 L46,35 L46,37 L41,37 L41,40 C41,40.552 40.552,41 40,41 L37,41 L37,46 L35,46 L35,41 L31,41 L31,46 L29,46 L29,41 L25,41 L25,46 L23,46 L23,41 L19,41 L19,46 L17,46 L17,41 L13,41 L13,46 L11,46 L11,41 L8,41 C7.448,41 7,40.552 7,40 L7,37 L2,37 L2,35 L7,35 L7,31 L2,31 L2,29 L7,29 L7,25 L2,25 L2,23 L7,23 L7,19 L2,19 L2,17 L7,17 L7,13 L2,13 L2,11 L7,11 L7,8 C7,7.448 7.448,7 8,7 L11,7 L11,2 L13,2 L13,7 L17,7 L17,2 L19,2 L19,7 L23,7 L23,2 L25,2 L25,7 L29,7 L29,2 L31,2 L31,7 L35,7 L35,2 L37,2 L37,7 L40,7 C40.552,7 41,7.448 41,8 L41,11 L46,11 L46,13 L41,13 Z M31.907,23.245 C32.321,22.98 32.726,22.849 33.122,22.849 C33.386,22.849 33.578,22.916 33.698,23.051 C33.818,23.186 33.878,23.4 33.878,23.694 L33.878,26.728 L34.94,26.728 L34.94,23.361 C34.94,22.924 34.826,22.589 34.598,22.358 C34.37,22.127 34.037,22.012 33.599,22.012 C32.987,22.012 32.399,22.225 31.835,22.65 L31.727,22.146 L30.845,22.146 L30.845,26.728 L31.907,26.728 L31.907,23.245 Z M26.48,24.406 C26.48,25.461 26.864,25.99 27.632,25.99 C27.986,25.99 28.331,25.875 28.667,25.647 L28.667,23.172 C28.361,22.957 28.022,22.849 27.65,22.849 C27.248,22.849 26.952,22.976 26.763,23.231 C26.574,23.486 26.48,23.877 26.48,24.406 L26.48,24.406 Z M25.917,26.183 C25.572,25.754 25.4,25.177 25.4,24.451 C25.4,23.971 25.478,23.547 25.634,23.182 C25.79,22.815 26.015,22.529 26.309,22.322 C26.603,22.115 26.951,22.012 27.353,22.012 C27.833,22.012 28.271,22.167 28.667,22.479 L28.667,20.067 L29.729,20.067 L29.729,26.728 L28.82,26.728 L28.712,26.287 C28.304,26.646 27.833,26.827 27.299,26.827 C26.723,26.827 26.262,26.612 25.917,26.183 L25.917,26.183 Z M23.951,21.391 C24.149,21.391 24.305,21.336 24.419,21.229 C24.533,21.121 24.59,20.971 24.59,20.778 C24.59,20.586 24.533,20.437 24.419,20.329 C24.305,20.221 24.149,20.167 23.951,20.167 C23.753,20.167 23.597,20.221 23.483,20.329 C23.369,20.437 23.312,20.586 23.312,20.778 C23.312,20.971 23.369,21.121 23.483,21.229 C23.597,21.336 23.753,21.391 23.951,21.391 L23.951,21.391 Z M23.42,26.728 L24.482,26.728 L24.482,22.147 L23.42,22.147 L23.42,26.728 Z M22.43,25.873 L19.289,25.873 C20.008,25.219 20.573,24.671 20.983,24.23 C21.393,23.789 21.69,23.396 21.874,23.051 C22.059,22.706 22.151,22.366 22.151,22.029 C22.151,21.682 22.072,21.381 21.914,21.129 C21.755,20.877 21.536,20.684 21.255,20.549 C20.975,20.414 20.646,20.347 20.27,20.347 C19.577,20.347 18.944,20.581 18.371,21.048 L18.371,21.931 C18.683,21.714 18.991,21.548 19.293,21.431 C19.597,21.314 19.877,21.255 20.135,21.255 C20.429,21.255 20.657,21.332 20.819,21.485 C20.981,21.638 21.062,21.853 21.062,22.128 C21.062,22.362 20.987,22.618 20.837,22.894 C20.687,23.169 20.417,23.533 20.027,23.982 C19.637,24.433 19.028,25.078 18.2,25.917 L18.2,26.728 L22.43,26.728 L22.43,25.873 Z M12.35,26.728 L14.438,23.497 L12.494,20.491 L13.592,20.491 L15.077,22.705 L16.526,20.491 L17.624,20.491 L15.671,23.479 L17.768,26.728 L16.67,26.728 L15.032,24.262 L13.448,26.728 L12.35,26.728 Z" id="Fill-1" fill="#D45B07"></path>
    </g>
</svg>