<?xml version="1.0" encoding="UTF-8"?>
<svg width="48px" height="48px" viewBox="0 0 48 48" version="1.1" xmlns="http://www.w3.org/2000/svg" xmlns:xlink="http://www.w3.org/1999/xlink">
    <title>Icon-Resource/Compute/Res_Amazon-EC2_X1e-Instance_48_Light</title>
    <g id="Icon-Resource/Compute/Res_Amazon-EC2_X1e-Instance_48" stroke="none" stroke-width="1" fill="none" fill-rule="evenodd">
        <path d="M30.286,23.187 C30.587,22.851 30.975,22.683 31.454,22.683 C31.905,22.683 32.247,22.833 32.481,23.131 C32.716,23.43 32.833,23.864 32.833,24.433 L32.833,24.545 L29.768,24.545 C29.811,23.976 29.985,23.523 30.286,23.187 L30.286,23.187 Z M31.671,29.025 C32.138,29.025 32.589,28.976 33.022,28.878 C33.456,28.78 33.833,28.647 34.149,28.479 L34.149,27.317 C33.374,27.579 32.653,27.709 31.985,27.709 C31.247,27.709 30.698,27.543 30.343,27.212 C29.987,26.881 29.794,26.361 29.768,25.651 L34.182,25.651 C34.263,25.269 34.304,24.834 34.304,24.349 C34.304,23.435 34.059,22.728 33.569,22.228 C33.079,21.729 32.376,21.479 31.462,21.479 C30.397,21.479 29.569,21.815 28.977,22.487 C28.384,23.16 28.087,24.097 28.087,25.301 C28.087,26.514 28.391,27.439 28.997,28.073 C29.604,28.708 30.495,29.025 31.671,29.025 L31.671,29.025 Z M24.643,20.765 L22.026,21.746 L22.026,20.401 L24.798,19.113 L26.309,19.113 L26.309,28.815 L24.643,28.815 L24.643,20.765 Z M13.179,28.815 L16.427,23.79 L13.401,19.113 L15.11,19.113 L17.421,22.557 L19.675,19.113 L21.382,19.113 L18.345,23.761 L21.606,28.815 L19.897,28.815 L17.35,24.979 L14.886,28.815 L13.179,28.815 Z M9,39 L39,39 L39,9 L9,9 L9,39 Z M46,13 L46,11 L41,11 L41,8 C41,7.448 40.553,7 40,7 L37,7 L37,2 L35,2 L35,7 L31,7 L31,2 L29,2 L29,7 L25,7 L25,2 L23,2 L23,7 L19,7 L19,2 L17,2 L17,7 L13,7 L13,2 L11,2 L11,7 L8,7 C7.447,7 7,7.448 7,8 L7,11 L2,11 L2,13 L7,13 L7,17 L2,17 L2,19 L7,19 L7,23 L2,23 L2,25 L7,25 L7,29 L2,29 L2,31 L7,31 L7,35 L2,35 L2,37 L7,37 L7,40 C7,40.553 7.447,41 8,41 L11,41 L11,46 L13,46 L13,41 L17,41 L17,46 L19,46 L19,41 L23,41 L23,46 L25,46 L25,41 L29,41 L29,46 L31,46 L31,41 L35,41 L35,46 L37,46 L37,41 L40,41 C40.553,41 41,40.553 41,40 L41,37 L46,37 L46,35 L41,35 L41,31 L46,31 L46,29 L41,29 L41,25 L46,25 L46,23 L41,23 L41,19 L46,19 L46,17 L41,17 L41,13 L46,13 Z" id="Amazon-EC2-X1e-Instance_Resource-Icon_light-bg" fill="#D45B07"></path>
    </g>
</svg>