<?xml version="1.0" encoding="UTF-8"?>
<svg width="48px" height="48px" viewBox="0 0 48 48" version="1.1" xmlns="http://www.w3.org/2000/svg" xmlns:xlink="http://www.w3.org/1999/xlink">
    <title>Icon-Resource/Compute/Res_Amazon-EC2_X2gd-Instance_48_Light</title>
    <g id="Icon-Resource/Compute/Res_Amazon-EC2_X2gd-Instance_48" stroke="none" stroke-width="1" fill="none" fill-rule="evenodd">
        <path d="M9,39 L39,39 L39,9 L9,9 L9,39 Z M41,13 L41,17 L46,17 L46,19 L41,19 L41,23 L46,23 L46,25 L41,25 L41,29 L46,29 L46,31 L41,31 L41,35 L46,35 L46,37 L41,37 L41,40 C41,40.552 40.552,41 40,41 L37,41 L37,46 L35,46 L35,41 L31,41 L31,46 L29,46 L29,41 L25,41 L25,46 L23,46 L23,41 L19,41 L19,46 L17,46 L17,41 L13,41 L13,46 L11,46 L11,41 L8,41 C7.448,41 7,40.552 7,40 L7,37 L2,37 L2,35 L7,35 L7,31 L2,31 L2,29 L7,29 L7,25 L2,25 L2,23 L7,23 L7,19 L2,19 L2,17 L7,17 L7,13 L2,13 L2,11 L7,11 L7,8 C7,7.448 7.448,7 8,7 L11,7 L11,2 L13,2 L13,7 L17,7 L17,2 L19,2 L19,7 L23,7 L23,2 L25,2 L25,7 L29,7 L29,2 L31,2 L31,7 L35,7 L35,2 L37,2 L37,7 L40,7 C40.552,7 41,7.448 41,8 L41,11 L46,11 L46,13 L41,13 Z M31.948,24.89 C31.948,26.181 32.417,26.826 33.355,26.826 C33.788,26.826 34.21,26.687 34.621,26.408 L34.621,23.383 C34.247,23.119 33.832,22.987 33.377,22.987 C32.886,22.987 32.525,23.143 32.294,23.455 C32.063,23.766 31.948,24.245 31.948,24.89 L31.948,24.89 Z M31.26,27.063 C30.838,26.538 30.627,25.833 30.627,24.945 C30.627,24.358 30.723,23.841 30.914,23.394 C31.104,22.947 31.379,22.597 31.739,22.344 C32.098,22.09 32.523,21.964 33.015,21.964 C33.601,21.964 34.137,22.155 34.621,22.536 L34.621,19.588 L35.918,19.588 L35.918,27.728 L34.808,27.728 L34.676,27.189 C34.177,27.629 33.601,27.849 32.949,27.849 C32.245,27.849 31.682,27.587 31.26,27.063 L31.26,27.063 Z M25.732,24.769 C25.732,26.001 26.168,26.617 27.041,26.617 C27.474,26.617 27.884,26.474 28.273,26.188 L28.273,23.372 C27.892,23.108 27.485,22.976 27.052,22.976 C26.605,22.976 26.273,23.123 26.057,23.416 C25.84,23.709 25.732,24.161 25.732,24.769 L25.732,24.769 Z M25.023,26.854 C24.616,26.344 24.412,25.664 24.412,24.813 C24.412,24.256 24.504,23.763 24.687,23.333 C24.871,22.904 25.134,22.569 25.479,22.327 C25.824,22.085 26.231,21.964 26.7,21.964 C27.338,21.964 27.892,22.188 28.361,22.635 L28.471,22.129 L29.571,22.129 L29.571,27.343 C29.571,28.23 29.33,28.916 28.847,29.4 C28.365,29.884 27.678,30.126 26.786,30.126 C26.108,30.126 25.467,29.976 24.863,29.675 L24.863,28.751 C25.545,28.978 26.157,29.092 26.7,29.092 C27.25,29.092 27.65,28.965 27.899,28.712 C28.148,28.459 28.273,28.047 28.273,27.475 L28.273,27.002 C27.796,27.413 27.257,27.618 26.656,27.618 C25.974,27.618 25.43,27.363 25.023,26.854 L25.023,26.854 Z M23.533,26.683 L19.694,26.683 C20.573,25.884 21.263,25.214 21.764,24.675 C22.265,24.137 22.628,23.656 22.853,23.234 C23.079,22.813 23.192,22.397 23.192,21.986 C23.192,21.561 23.095,21.194 22.901,20.886 C22.708,20.578 22.44,20.341 22.097,20.177 C21.754,20.012 21.353,19.929 20.893,19.929 C20.046,19.929 19.272,20.215 18.572,20.787 L18.572,21.865 C18.953,21.601 19.329,21.397 19.699,21.254 C20.069,21.111 20.412,21.04 20.728,21.04 C21.087,21.04 21.366,21.133 21.563,21.32 C21.762,21.507 21.861,21.77 21.861,22.107 C21.861,22.393 21.769,22.705 21.585,23.042 C21.402,23.379 21.072,23.823 20.596,24.373 C20.119,24.923 19.375,25.711 18.363,26.738 L18.363,27.728 L23.533,27.728 L23.533,26.683 Z M11.212,27.728 L13.765,23.779 L11.389,20.105 L12.73,20.105 L14.545,22.811 L16.316,20.105 L17.659,20.105 L15.271,23.757 L17.834,27.728 L16.493,27.728 L14.491,24.714 L12.555,27.728 L11.212,27.728 Z" id="Fill-1" fill="#D45B07"></path>
    </g>
</svg>