<?xml version="1.0" encoding="UTF-8"?>
<svg width="48px" height="48px" viewBox="0 0 48 48" version="1.1" xmlns="http://www.w3.org/2000/svg" xmlns:xlink="http://www.w3.org/1999/xlink">
    <title>Icon-Resource/Compute/Res_Amazon-EC2_X2iezn-Instance_48_Light</title>
    <g id="Icon-Resource/Compute/Res_Amazon-EC2_X2iezn-Instance_48" stroke="none" stroke-width="1" fill="none" fill-rule="evenodd">
        <path d="M9,39 L39,39 L39,9 L9,9 L9,39 Z M41,13 L41,17 L46,17 L46,19 L41,19 L41,23 L46,23 L46,25 L41,25 L41,29 L46,29 L46,31 L41,31 L41,35 L46,35 L46,37 L41,37 L41,40 C41,40.552 40.552,41 40,41 L37,41 L37,46 L35,46 L35,41 L31,41 L31,46 L29,46 L29,41 L25,41 L25,46 L23,46 L23,41 L19,41 L19,46 L17,46 L17,41 L13,41 L13,46 L11,46 L11,41 L8,41 C7.448,41 7,40.552 7,40 L7,37 L2,37 L2,35 L7,35 L7,31 L2,31 L2,29 L7,29 L7,25 L2,25 L2,23 L7,23 L7,19 L2,19 L2,17 L7,17 L7,13 L2,13 L2,11 L7,11 L7,8 C7,7.448 7.448,7 8,7 L11,7 L11,2 L13,2 L13,7 L17,7 L17,2 L19,2 L19,7 L23,7 L23,2 L25,2 L25,7 L29,7 L29,2 L31,2 L31,7 L35,7 L35,2 L37,2 L37,7 L40,7 C40.552,7 41,7.448 41,8 L41,11 L46,11 L46,13 L41,13 Z M33.463,23.246 C33.877,22.982 34.282,22.85 34.678,22.85 C34.942,22.85 35.134,22.917 35.254,23.053 C35.375,23.188 35.435,23.402 35.435,23.696 L35.435,26.729 L36.497,26.729 L36.497,23.363 C36.497,22.925 36.382,22.59 36.154,22.359 C35.926,22.128 35.593,22.013 35.155,22.013 C34.543,22.013 33.956,22.226 33.392,22.652 L33.283,22.148 L32.401,22.148 L32.401,26.729 L33.463,26.729 L33.463,23.246 Z M31.718,25.919 L29.135,25.919 L31.69,22.931 L31.69,22.148 L28.082,22.148 L28.082,22.958 L30.547,22.958 L27.992,25.946 L27.992,26.729 L31.718,26.729 L31.718,25.919 Z M24.653,23.984 L26.624,23.984 L26.624,23.912 C26.624,23.546 26.548,23.267 26.397,23.075 C26.247,22.883 26.026,22.787 25.736,22.787 C25.429,22.787 25.179,22.895 24.985,23.111 C24.792,23.327 24.681,23.618 24.653,23.984 L24.653,23.984 Z M24.158,26.252 C23.768,25.844 23.573,25.25 23.573,24.47 C23.573,23.696 23.763,23.093 24.144,22.661 C24.525,22.229 25.058,22.013 25.742,22.013 C26.33,22.013 26.781,22.174 27.096,22.495 C27.411,22.815 27.569,23.27 27.569,23.858 C27.569,24.17 27.542,24.449 27.49,24.695 L24.653,24.695 C24.67,25.151 24.793,25.486 25.022,25.699 C25.251,25.912 25.604,26.018 26.079,26.018 C26.507,26.018 26.971,25.934 27.47,25.766 L27.47,26.513 C27.266,26.621 27.024,26.707 26.745,26.77 C26.466,26.833 26.177,26.864 25.876,26.864 C25.121,26.864 24.548,26.66 24.158,26.252 L24.158,26.252 Z M22.213,21.392 C22.412,21.392 22.567,21.338 22.682,21.23 C22.795,21.122 22.853,20.972 22.853,20.78 C22.853,20.588 22.795,20.438 22.682,20.33 C22.567,20.222 22.412,20.168 22.213,20.168 C22.016,20.168 21.859,20.222 21.746,20.33 C21.631,20.438 21.575,20.588 21.575,20.78 C21.575,20.972 21.631,21.122 21.746,21.23 C21.859,21.338 22.016,21.392 22.213,21.392 L22.213,21.392 Z M21.683,26.729 L22.745,26.729 L22.745,22.148 L21.683,22.148 L21.683,26.729 Z M20.783,25.874 L17.642,25.874 C18.361,25.22 18.925,24.672 19.335,24.231 C19.745,23.791 20.042,23.397 20.227,23.053 C20.411,22.708 20.503,22.367 20.503,22.031 C20.503,21.683 20.424,21.383 20.266,21.131 C20.108,20.879 19.889,20.686 19.608,20.55 C19.327,20.416 18.999,20.348 18.623,20.348 C17.93,20.348 17.297,20.582 16.724,21.05 L16.724,21.932 C17.036,21.716 17.343,21.549 17.646,21.433 C17.949,21.315 18.229,21.257 18.488,21.257 C18.782,21.257 19.01,21.333 19.171,21.486 C19.333,21.64 19.415,21.854 19.415,22.13 C19.415,22.364 19.339,22.619 19.189,22.895 C19.04,23.171 18.77,23.534 18.379,23.984 C17.99,24.434 17.381,25.079 16.553,25.919 L16.553,26.729 L20.783,26.729 L20.783,25.874 Z M10.793,26.729 L12.881,23.498 L10.937,20.492 L12.035,20.492 L13.52,22.706 L14.969,20.492 L16.067,20.492 L14.114,23.48 L16.211,26.729 L15.113,26.729 L13.475,24.263 L11.891,26.729 L10.793,26.729 Z" id="Fill-1" fill="#D45B07"></path>
    </g>
</svg>