<?xml version="1.0" encoding="UTF-8"?>
<svg width="64px" height="64px" viewBox="0 0 64 64" version="1.1" xmlns="http://www.w3.org/2000/svg" xmlns:xlink="http://www.w3.org/1999/xlink">
    <title>Icon-Architecture/48/Arch_Amazon-Genomics-CLI_48</title>
    <defs>
        <linearGradient x1="0%" y1="100%" x2="100%" y2="0%" id="linearGradient-1">
            <stop stop-color="#C8511B" offset="0%"></stop>
            <stop stop-color="#FF9900" offset="100%"></stop>
        </linearGradient>
    </defs>
    <g id="Icon-Architecture/48/Arch_Amazon-Genomics-CLI_48" stroke="none" stroke-width="1" fill="none" fill-rule="evenodd">
        <g id="Rectangle" fill="url(#linearGradient-1)">
            <rect x="0" y="0" width="64" height="64"></rect>
        </g>
        <g id="Icon-Service/48/Amazon-Genomics-CLI_48" transform="translate(8.000000, 8.000000)" fill="#FFFFFF">
            <path d="M35,9 L41,9 L41,7 L35,7 L35,9 Z M34,5 L42,5 L42,3 L34,3 L34,5 Z M35,25 L41,25 L41,23 L35,23 L35,25 Z M34,29 L42,29 L42,27 L34,27 L34,29 Z M20.825,29.582 C21.051,29.397 21.185,29.125 21.192,28.833 C21.199,28.543 21.08,28.263 20.865,28.068 L9.865,18.068 L8.52,19.547 L18.662,28.768 L8.56,37.034 L9.825,38.582 L20.825,29.582 Z M19,38 L35,38 L35,36 L19,36 L19,38 Z M46,44 L46,36 L44,36 L44,44 L4,44 L4,4 L25,4 L25,2 L4,2 C2.916,2 2,2.916 2,4 L2,44 C2,45.075 2.912,45.991 4,46 L44,46 C45.084,46 46,45.084 46,44 L46,44 Z M32,27.942 C32,25.654 32.859,23.473 34.421,21.8 L43.042,12.564 C44.949,10.521 46,7.855 46,5.058 L46,2 L44,2 L44,5.058 C44,7.347 43.141,9.527 41.579,11.2 L32.958,20.436 C31.051,22.48 30,25.146 30,27.942 L30,30 L32,30 L32,27.942 Z M40.736,17.966 L39.368,19.431 L41.579,21.8 C43.141,23.473 44,25.654 44,27.942 L44,30 L46,30 L46,27.942 C46,25.146 44.949,22.48 43.042,20.436 L40.736,17.966 Z M32.958,12.564 C31.051,10.521 30,7.855 30,5.058 L30,2 L32,2 L32,5.058 C32,7.347 32.859,9.527 34.421,11.199 L36.632,13.569 L35.264,15.034 L32.958,12.564 Z" id="Fill-1"></path>
        </g>
    </g>
</svg>