<?xml version="1.0" encoding="UTF-8"?>
<svg width="64px" height="64px" viewBox="0 0 64 64" version="1.1" xmlns="http://www.w3.org/2000/svg" xmlns:xlink="http://www.w3.org/1999/xlink">
    <title>Icon-Architecture/48/Arch_AWS-Outposts_48</title>
    <defs>
        <linearGradient x1="0%" y1="100%" x2="100%" y2="0%" id="linearGradient-1">
            <stop stop-color="#C8511B" offset="0%"></stop>
            <stop stop-color="#FF9900" offset="100%"></stop>
        </linearGradient>
    </defs>
    <g id="Icon-Architecture/48/Arch_AWS-Outposts_48" stroke="none" stroke-width="1" fill="none" fill-rule="evenodd">
        <g id="Rectangle" fill="url(#linearGradient-1)">
            <rect x="0" y="0" width="64" height="64"></rect>
        </g>
        <g id="Icon-Service/48/AWS-Outposts_48" transform="translate(8.000000, 8.000000)" fill="#FFFFFF">
            <path d="M22,44.0167644 L25,44.0167644 L25,39.0167644 L22,39.0167644 L22,44.0167644 Z M15,44.0167644 L20,44.0167644 L20,38.0167644 C20,37.4647644 20.447,37.0167644 21,37.0167644 L26,37.0167644 C26.553,37.0167644 27,37.4647644 27,38.0167644 L27,44.0167644 L32,44.0167644 L32,20.0167644 L15,20.0167644 L15,28.0167644 L15,30.0167644 L15,44.0167644 Z M46,44.0167644 L46,46.0167644 L2,46.0167644 L2,44.0167644 L13,44.0167644 L13,30.0167644 L9.765,30.0167644 C6.162,30.0167644 3.021,27.5837644 2.294,24.2327644 C2.244,23.9987644 2.204,23.7627644 2.174,23.5207644 C2.124,23.1117644 2.099,22.6867644 2.099,22.2577644 C2.099,17.3837644 5.09,15.3047644 7.231,14.4397644 L3.509,13.0807644 L4.194,11.2017644 L10.139,13.3717644 C10.657,13.5607644 10.925,14.1357644 10.735,14.6537644 L8.565,20.5987644 L6.687,19.9127644 L8.013,16.2797644 C6.242,16.9787644 4.099,18.5817644 4.099,22.2577644 C4.099,22.6067644 4.119,22.9497644 4.158,23.2767644 C4.181,23.4557644 4.211,23.6347644 4.249,23.8097644 C4.777,26.2467644 7.097,28.0167644 9.765,28.0167644 L13,28.0167644 L13,19.0167644 C13,18.4647644 13.447,18.0167644 14,18.0167644 L33,18.0167644 C33.553,18.0167644 34,18.4647644 34,19.0167644 L34,44.0167644 L46,44.0167644 Z M26,27.0167644 L28,27.0167644 C28.553,27.0167644 29,26.5687644 29,26.0167644 L29,24.0167644 C29,23.4647644 28.553,23.0167644 28,23.0167644 L26,23.0167644 C25.447,23.0167644 25,23.4647644 25,24.0167644 L25,26.0167644 C25,26.5687644 25.447,27.0167644 26,27.0167644 L26,27.0167644 Z M19,27.0167644 L21,27.0167644 C21.553,27.0167644 22,26.5687644 22,26.0167644 L22,24.0167644 C22,23.4647644 21.553,23.0167644 21,23.0167644 L19,23.0167644 C18.447,23.0167644 18,23.4647644 18,24.0167644 L18,26.0167644 C18,26.5687644 18.447,27.0167644 19,27.0167644 L19,27.0167644 Z M26,34.0167644 L28,34.0167644 C28.553,34.0167644 29,33.5687644 29,33.0167644 L29,31.0167644 C29,30.4647644 28.553,30.0167644 28,30.0167644 L26,30.0167644 C25.447,30.0167644 25,30.4647644 25,31.0167644 L25,33.0167644 C25,33.5687644 25.447,34.0167644 26,34.0167644 L26,34.0167644 Z M21,34.0167644 C21.553,34.0167644 22,33.5687644 22,33.0167644 L22,31.0167644 C22,30.4647644 21.553,30.0167644 21,30.0167644 L19,30.0167644 C18.447,30.0167644 18,30.4647644 18,31.0167644 L18,33.0167644 C18,33.5687644 18.447,34.0167644 19,34.0167644 L21,34.0167644 Z M10.012,11.5177644 L8.088,10.9677644 C9.073,7.52576435 11.508,4.61476435 14.442,3.37176435 C18.966,1.45576435 23.757,2.40776435 27.26,5.92076435 C28.279,6.94376435 29.126,8.16976435 29.786,9.57776435 C31.084,8.61076435 32.732,8.28376435 34.304,8.74276435 C36.545,9.39776435 38.058,11.4207644 38.436,14.2167644 C41.818,15.0527644 45.163,17.5987644 45.163,22.5027644 C45.163,27.6897644 41.598,29.9627644 38.859,30.6947644 L42.213,32.2957644 L41.352,34.1007644 L35.641,31.3747644 C35.143,31.1367644 34.931,30.5397644 35.169,30.0417644 L37.895,24.3307644 L39.699,25.1917644 L37.955,28.8457644 C39.545,28.4977644 43.163,27.1907644 43.163,22.5027644 C43.163,17.5627644 39.079,16.3277644 37.324,16.0257644 C36.797,15.9357644 36.437,15.4477644 36.5,14.9197644 C36.322,12.7047644 35.296,11.1167644 33.742,10.6627644 C32.458,10.2887644 31.082,10.7877644 30.233,11.9367644 C30.013,12.2337644 29.643,12.3887644 29.281,12.3307644 C28.915,12.2767644 28.609,12.0237644 28.485,11.6757644 C27.872,9.93776435 26.983,8.47676435 25.844,7.33276435 C24.448,5.93376435 20.623,2.92676435 15.222,5.21376435 C12.866,6.21076435 10.821,8.68576435 10.012,11.5177644 L10.012,11.5177644 Z" id="Fill-3"></path>
        </g>
    </g>
</svg>