<?xml version="1.0" encoding="UTF-8"?>
<svg width="64px" height="64px" viewBox="0 0 64 64" version="1.1" xmlns="http://www.w3.org/2000/svg" xmlns:xlink="http://www.w3.org/1999/xlink">
    <title>Icon-Architecture/48/Arch_AWS-Billing-Conductor_48</title>
    <defs>
        <linearGradient x1="0%" y1="100%" x2="100%" y2="0%" id="linearGradient-1">
            <stop stop-color="#1B660F" offset="0%"></stop>
            <stop stop-color="#6CAE3E" offset="100%"></stop>
        </linearGradient>
    </defs>
    <g id="Icon-Architecture/48/Arch_AWS-Billing-Conductor_48" stroke="none" stroke-width="1" fill="none" fill-rule="evenodd">
        <g id="Rectangle" fill="url(#linearGradient-1)">
            <rect x="0" y="0" width="64" height="64"></rect>
        </g>
        <g id="Icon-Service/48/AWS-Billing-Conductor_48" transform="translate(8.000000, 8.000000)" fill="#FFFFFF">
            <path d="M4,33 L12,33 L12,31 L4,31 L4,33 Z M6,28 L12,28 L12,26 L6,26 L6,28 Z M3,23 L12,23 L12,21 L3,21 L3,23 Z M28,35 L32,35 L32,33 L28,33 L28,35 Z M23,35 L27,35 L27,33 L23,33 L23,35 Z M18,35 L22,35 L22,33 L18,33 L18,35 Z M28,31 L32,31 L32,29 L28,29 L28,31 Z M23,31 L27,31 L27,29 L23,29 L23,31 Z M18,31 L22,31 L22,29 L18,29 L18,31 Z M20,24 L30,24 L30,22 L20,22 L20,24 Z M31,20 L19,20 C18.447,20 18,20.448 18,21 L18,25 C18,25.552 18.447,26 19,26 L31,26 C31.553,26 32,25.552 32,25 L32,21 C32,20.448 31.553,20 31,20 L31,20 Z M16,37 L34,37 L34,18 L16,18 L16,37 Z M35,39 C35.553,39 36,38.552 36,38 L36,17 C36,16.448 35.553,16 35,16 L15,16 C14.447,16 14,16.448 14,17 L14,38 C14,38.552 14.447,39 15,39 L35,39 Z M33,5.227 L38.37,10 L33,10 L33,5.227 Z M41.664,10.252 L32.664,2.252 C32.481,2.09 32.245,2 32,2 L9,2 C8.447,2 8,2.448 8,3 L8,19 L10,19 L10,4 L31,4 L31,11 C31,11.552 31.447,12 32,12 L40,12 L40,44 L10,44 L10,35 L8,35 L8,45 C8,45.552 8.447,46 9,46 L41,46 C41.553,46 42,45.552 42,45 L42,11 C42,10.714 41.878,10.442 41.664,10.252 L41.664,10.252 Z" id="Fill-3"></path>
        </g>
    </g>
</svg>