<?xml version="1.0" encoding="UTF-8"?>
<svg width="48px" height="48px" viewBox="0 0 48 48" version="1.1" xmlns="http://www.w3.org/2000/svg" xmlns:xlink="http://www.w3.org/1999/xlink">
    <title>Icon-Resource/Application-Integration/Res_Amazon-EventBridge-Saas-Partner-Event_48_Light</title>
    <g id="Icon-Resource/Application-Integration/Res_Amazon-EventBridge-Saas-Partner-Event_48" stroke="none" stroke-width="1" fill="none" fill-rule="evenodd">
        <path d="M31.084,20.877 L25.023,24.333 L24.984,31.31 L31.046,27.855 L31.084,20.877 Z M16.858,27.821 L22.983,31.402 L23.023,24.241 L16.898,20.66 L16.858,27.821 Z M17.855,18.902 L24.103,22.555 L30.267,19.04 L24.021,15.388 L17.855,18.902 Z M24.47,33.905 C24.316,33.992 24.146,34.036 23.975,34.036 C23.839,34.036 23.707,34 23.58,33.945 L15.351,29.257 C15.042,29.076 14.854,28.745 14.8548202,28.388 L14.908,18.917 C14.91,18.592 15.075,18.296 15.338,18.111 L23.532,13.364 C23.842,13.189 24.223,13.19 24.532,13.37 L32.618,18.302 C32.914,18.485 33.096,18.807 33.0940324,19.156 L33.043,28.443 C33.041,28.8 32.849,29.129 32.538,29.307 L24.47,33.905 Z M33.454,4.026 L31.614,3.241 L28.811,9.816 L30.65,10.602 L33.454,4.026 Z M42.132,11.32 L40.931,9.721 L35.179,14.039 L36.38,15.639 L42.132,11.32 Z M38.792,22.837 L45.95,21.931 L45.698,19.946 L38.54,20.853 L38.792,22.837 Z M37.233,30.272 L43.88,33.022 L44.644,31.174 L37.997,28.424 L37.233,30.272 Z M32.117,35.948 L36.471,41.617 L38.057,40.398 L33.703,34.73 L32.117,35.948 Z M24.818,38.338 L25.713,45.407 L27.697,45.155 L26.803,38.086 L24.818,38.338 Z M14.495,43.38 L16.335,44.165 L19.14,37.591 L17.3,36.806 L14.495,43.38 Z M5.817,36.087 L7.019,37.687 L12.771,33.367 L11.569,31.768 L5.817,36.087 Z M9.158,24.57 L2,25.477 L2.252,27.461 L9.41,26.555 L9.158,24.57 Z M10.716,17.135 L4.069,14.385 L3.306,16.232 L9.952,18.982 L10.716,17.135 Z M11.479,5.789 L9.893,7.008 L14.246,12.678 L15.832,11.459 L11.479,5.789 Z M21.146,9.32 L20.252,2.252 L22.236,2 L23.131,9.068 L21.146,9.32 Z" id="Amazon-EventBridge-Saas-Partner-Event_48" fill="#B0084D"></path>
    </g>
</svg>