<?xml version="1.0" encoding="UTF-8"?>
<svg width="48px" height="48px" viewBox="0 0 48 48" version="1.1" xmlns="http://www.w3.org/2000/svg" xmlns:xlink="http://www.w3.org/1999/xlink">
    <title>Icon-Resource/Application-Integration/Res_Amazon-EventBridge_Schema-Registry_48_Light</title>
    <g id="Icon-Resource/Application-Integration/Res_Amazon-EventBridge_Schema-Registry_48" stroke="none" stroke-width="1" fill="none" fill-rule="evenodd">
        <path d="M38,35.943 L34.5,37.964 L31,35.943 L31,31.901 L34.5,29.881 L38,31.901 L38,35.943 Z M39.5,30.458 L35,27.86 C34.691,27.681 34.309,27.681 34,27.86 L29.5,30.458 C29.19,30.637 29,30.967 29,31.324 L29,36.52 C29,36.878 29.19,37.208 29.5,37.386 L34,39.985 C34.154,40.074 34.327,40.118 34.5,40.118 C34.673,40.118 34.846,40.074 35,39.985 L39.5,37.386 C39.81,37.208 40,36.878 40,36.52 L40,31.324 C40,30.967 39.81,30.637 39.5,30.458 L39.5,30.458 Z M17,35.943 L13.5,37.964 L10,35.943 L10,31.901 L13.5,29.881 L17,31.901 L17,35.943 Z M18.5,30.458 L14,27.86 C13.691,27.681 13.309,27.681 13,27.86 L8.5,30.458 C8.19,30.637 8,30.967 8,31.324 L8,36.52 C8,36.878 8.19,37.208 8.5,37.386 L13,39.985 C13.154,40.074 13.327,40.118 13.5,40.118 C13.673,40.118 13.846,40.074 14,39.985 L18.5,37.386 C18.81,37.208 19,36.878 19,36.52 L19,31.324 C19,30.967 18.81,30.637 18.5,30.458 L18.5,30.458 Z M31,10.901 L34.5,8.881 L38,10.901 L38,14.943 L34.5,16.964 L31,14.943 L31,10.901 Z M29.5,16.386 L34,18.985 C34.154,19.074 34.327,19.118 34.5,19.118 C34.673,19.118 34.846,19.074 35,18.985 L39.5,16.386 C39.81,16.208 40,15.878 40,15.52 L40,10.324 C40,9.967 39.81,9.637 39.5,9.458 L35,6.86 C34.691,6.681 34.309,6.681 34,6.86 L29.5,9.458 C29.19,9.637 29,9.967 29,10.324 L29,15.52 C29,15.878 29.19,16.208 29.5,16.386 L29.5,16.386 Z M10,10.901 L13.5,8.881 L17,10.901 L17,14.943 L13.5,16.964 L10,14.943 L10,10.901 Z M8.5,16.386 L13,18.985 C13.154,19.074 13.327,19.118 13.5,19.118 C13.673,19.118 13.846,19.074 14,18.985 L18.5,16.386 C18.81,16.208 19,15.878 19,15.52 L19,10.324 C19,9.967 18.81,9.637 18.5,9.458 L14,6.86 C13.691,6.681 13.309,6.681 13,6.86 L8.5,9.458 C8.19,9.637 8,9.967 8,10.324 L8,15.52 C8,15.878 8.19,16.208 8.5,16.386 L8.5,16.386 Z M25,44 L44,44 L44,25 L25,25 L25,44 Z M4,44 L23,44 L23,25 L4,25 L4,44 Z M4,23 L23,23 L23,4 L4,4 L4,23 Z M25,23 L44,23 L44,4 L25,4 L25,23 Z M45,2 L3,2 C2.447,2 2,2.447 2,3 L2,45 C2,45.552 2.447,46 3,46 L45,46 C45.553,46 46,45.552 46,45 L46,3 C46,2.447 45.553,2 45,2 L45,2 Z" id="Fill-1" fill="#B0084D"></path>
    </g>
</svg>