<?xml version="1.0" encoding="UTF-8"?>
<svg width="48px" height="48px" viewBox="0 0 48 48" version="1.1" xmlns="http://www.w3.org/2000/svg" xmlns:xlink="http://www.w3.org/1999/xlink">
    <title>Icon-Resource/Application-Integration/Res_Amazon-EventBridge_Schema_48_Light</title>
    <g id="Icon-Resource/Application-Integration/Res_Amazon-EventBridge_Schema_48" stroke="none" stroke-width="1" fill="none" fill-rule="evenodd">
        <path d="M19,27.25 L19,21.476 L24,18.589 L29,21.476 L29,27.25 L24,30.136 L19,27.25 Z M24,32.291 C24.173,32.291 24.346,32.247 24.5,32.157 L30.5,28.693 C30.81,28.515 31,28.185 31,27.827 L31,20.899 C31,20.542 30.81,20.211 30.5,20.033 L24.5,16.568 C24.191,16.39 23.809,16.39 23.5,16.568 L17.5,20.033 C17.19,20.211 17,20.542 17,20.899 L17,27.827 C17,28.185 17.19,28.515 17.5,28.693 L23.5,32.157 C23.654,32.247 23.827,32.291 24,32.291 L24,32.291 Z M32.707,17.707 L31.293,16.293 L37.293,10.293 L38.707,11.707 L32.707,17.707 Z M15.293,31.293 L16.707,32.707 L10.707,38.707 L9.293,37.293 L15.293,31.293 Z M16.293,17.707 L10.293,11.707 L11.707,10.293 L17.707,16.293 L16.293,17.707 Z M32.707,31.293 L38.707,37.293 L37.293,38.707 L31.293,32.707 L32.707,31.293 Z M34,26 L40,26 L40,24 L34,24 L34,26 Z M8,26 L14,26 L14,24 L8,24 L8,26 Z M23,13 L25,13 L25,7 L23,7 L23,13 Z M23,41 L25,41 L25,36 L23,36 L23,41 Z M4,44 L44,44 L44,4 L4,4 L4,44 Z M46,3 C46,2.448 45.553,2 45,2 L3,2 C2.447,2 2,2.448 2,3 L2,45 C2,45.552 2.447,46 3,46 L45,46 C45.553,46 46,45.552 46,45 L46,3 Z" id="Fill-4" fill="#B0084D"></path>
    </g>
</svg>