<?xml version="1.0" encoding="UTF-8"?>
<svg width="48px" height="48px" viewBox="0 0 48 48" version="1.1" xmlns="http://www.w3.org/2000/svg" xmlns:xlink="http://www.w3.org/1999/xlink">
    <title>Icon-Resource/Application-Integration/Res_Amazon-MQ_Broker_48_Light</title>
    <g id="Icon-Resource/Application-Integration/Res_Amazon-MQ_Broker_48" stroke="none" stroke-width="1" fill="none" fill-rule="evenodd">
        <path d="M7.078,33.754875 C6.463,32.704875 5.947,31.589875 5.544,30.441875 L7.431,29.778875 C7.792,30.806875 8.254,31.803875 8.805,32.743875 L7.078,33.754875 Z M7.114,19.441875 L5.19,18.896875 C5.62,17.379875 6.238,15.917875 7.029,14.550875 L8.76,15.551875 C8.053,16.775875 7.499,18.083875 7.114,19.441875 L7.114,19.441875 Z M16.586,8.48487502 L15.767,6.66087502 C20.696,4.44687502 26.476,4.44587502 31.409,6.66087502 L30.591,8.48487502 C26.175,6.50387502 20.996,6.50487502 16.586,8.48487502 L16.586,8.48487502 Z M38.417,15.551875 L40.147,14.550875 C40.939,15.918875 41.557,17.380875 41.985,18.896875 L40.061,19.440875 C39.678,18.084875 39.125,16.775875 38.417,15.551875 L38.417,15.551875 Z M39.745,29.778875 L41.632,30.441875 C41.241,31.555875 40.741,32.641875 40.148,33.669875 L38.416,32.668875 C38.948,31.748875 39.394,30.776875 39.745,29.778875 L39.745,29.778875 Z M30.591,39.734875 L31.409,41.559875 C28.943,42.666875 26.311,43.227875 23.588,43.227875 C20.863,43.227875 18.232,42.666875 15.767,41.559875 L16.586,39.734875 C20.997,41.715875 26.176,41.715875 30.591,39.734875 L30.591,39.734875 Z M11.5,40.109875 C10.121,40.109875 9,38.988875 9,37.609875 C9,36.231875 10.121,35.109875 11.5,35.109875 C12.879,35.109875 14,36.231875 14,37.609875 C14,38.988875 12.879,40.109875 11.5,40.109875 L11.5,40.109875 Z M11.5,33.109875 C9.018,33.109875 7,35.128875 7,37.609875 C7,40.091875 9.018,42.109875 11.5,42.109875 C13.981,42.109875 16,40.091875 16,37.609875 C16,35.128875 13.981,33.109875 11.5,33.109875 L11.5,33.109875 Z M35.5,40.109875 C34.121,40.109875 33,38.988875 33,37.609875 C33,36.231875 34.121,35.109875 35.5,35.109875 C36.879,35.109875 38,36.231875 38,37.609875 C38,38.988875 36.879,40.109875 35.5,40.109875 L35.5,40.109875 Z M35.5,33.109875 C33.018,33.109875 31,35.128875 31,37.609875 C31,40.091875 33.018,42.109875 35.5,42.109875 C37.981,42.109875 40,40.091875 40,37.609875 C40,35.128875 37.981,33.109875 35.5,33.109875 L35.5,33.109875 Z M4,24.609875 C4,23.231875 5.121,22.109875 6.5,22.109875 C7.879,22.109875 9,23.231875 9,24.609875 C9,25.988875 7.879,27.109875 6.5,27.109875 C5.121,27.109875 4,25.988875 4,24.609875 L4,24.609875 Z M10.949,25.109875 L14.136,25.109875 L13.169,26.553875 L14.831,27.666875 L16.831,24.680875 C17.056,24.344875 17.057,23.906875 16.833,23.570875 L14.833,20.557875 L13.167,21.662875 L14.127,23.109875 L10.724,23.109875 C10.102,21.367875 8.453,20.109875 6.5,20.109875 C4.018,20.109875 2,22.128875 2,24.609875 C2,27.091875 4.018,29.109875 6.5,29.109875 C8.81,29.109875 10.697,27.353875 10.949,25.109875 L10.949,25.109875 Z M41.5,27.109875 C40.121,27.109875 39,25.988875 39,24.609875 C39,23.231875 40.121,22.109875 41.5,22.109875 C42.879,22.109875 44,23.231875 44,24.609875 C44,25.988875 42.879,27.109875 41.5,27.109875 L41.5,27.109875 Z M41.5,20.109875 C39.018,20.109875 37,22.128875 37,24.609875 C37,27.091875 39.018,29.109875 41.5,29.109875 C43.981,29.109875 46,27.091875 46,24.609875 C46,22.128875 43.981,20.109875 41.5,20.109875 L41.5,20.109875 Z M11.5,8.10987502 C12.879,8.10987502 14,9.23187502 14,10.609875 C14,11.988875 12.879,13.109875 11.5,13.109875 C10.121,13.109875 9,11.988875 9,10.609875 C9,9.23187502 10.121,8.10987502 11.5,8.10987502 L11.5,8.10987502 Z M11.5,15.109875 C13.981,15.109875 16,13.091875 16,10.609875 C16,8.12887502 13.981,6.10987502 11.5,6.10987502 C9.018,6.10987502 7,8.12887502 7,10.609875 C7,13.091875 9.018,15.109875 11.5,15.109875 L11.5,15.109875 Z M35.5,8.10987502 C36.879,8.10987502 38,9.23187502 38,10.609875 C38,11.988875 36.879,13.109875 35.5,13.109875 C34.121,13.109875 33,11.988875 33,10.609875 C33,9.23187502 34.121,8.10987502 35.5,8.10987502 L35.5,8.10987502 Z M35.5,15.109875 C37.981,15.109875 40,13.091875 40,10.609875 C40,8.12887502 37.981,6.10987502 35.5,6.10987502 C33.018,6.10987502 31,8.12887502 31,10.609875 C31,13.091875 33.018,15.109875 35.5,15.109875 L35.5,15.109875 Z M32.168,26.555875 L33.131,25.110875 L31,25.110875 L31,23.110875 L33.132,23.110875 L32.168,21.664875 L33.832,20.555875 L35.832,23.554875 C36.056,23.890875 36.056,24.327875 35.832,24.663875 L33.832,27.664875 L32.168,26.555875 Z M28.191,28.314875 C26.881,27.873875 25.441,27.652875 24.002,27.652875 C22.562,27.652875 21.123,27.873875 19.812,28.314875 C20.248,27.040875 20.48,25.612875 20.48,24.109875 C20.48,22.608875 20.248,21.179875 19.812,19.905875 C22.433,20.788875 25.57,20.788875 28.191,19.905875 C27.756,21.179875 27.523,22.608875 27.523,24.109875 C27.523,25.612875 27.756,27.040875 28.191,28.314875 L28.191,28.314875 Z M31.716,17.810875 C31.911,17.615875 32.009,17.359875 32.009,17.103875 C32.009,16.847875 31.911,16.591875 31.716,16.396875 C31.325,16.005875 30.692,16.005875 30.302,16.396875 C27.358,19.339875 20.645,19.339875 17.702,16.396875 C17.311,16.005875 16.679,16.005875 16.288,16.396875 C16.093,16.591875 15.995,16.847875 15.995,17.103875 C15.995,17.359875 16.093,17.615875 16.288,17.810875 C17.661,19.183875 18.48,21.538875 18.48,24.109875 C18.48,26.681875 17.661,29.036875 16.288,30.409875 C16.093,30.605875 15.995,30.860875 15.995,31.116875 C15.995,31.372875 16.093,31.628875 16.288,31.823875 C16.679,32.214875 17.311,32.214875 17.702,31.823875 C20.645,28.880875 27.358,28.880875 30.302,31.823875 C30.497,32.019875 30.753,32.116875 31.009,32.116875 C31.265,32.116875 31.52,32.019875 31.716,31.823875 C31.911,31.628875 32.009,31.372875 32.009,31.116875 C32.009,30.860875 31.911,30.605875 31.716,30.409875 C30.343,29.036875 29.523,26.681875 29.523,24.109875 C29.523,21.538875 30.343,19.183875 31.716,17.810875 L31.716,17.810875 Z" id="Fill-1" fill="#B0084D"></path>
    </g>
</svg>