<?xml version="1.0" encoding="UTF-8"?>
<svg width="48px" height="48px" viewBox="0 0 48 48" version="1.1" xmlns="http://www.w3.org/2000/svg" xmlns:xlink="http://www.w3.org/1999/xlink">
    <title>Icon-Resource/Application-Integration/Res_Amazon-Simple-Notification-Service_HTTP-Notification_48_Light</title>
    <g id="Icon-Resource/Application-Integration/Res_Amazon-Simple-Notification-Service_HTTP-Notification_48" stroke="none" stroke-width="1" fill="none" fill-rule="evenodd">
        <path d="M17.715,11.11 L17.715,17.001 L18.582,17.001 L18.582,14.34 L21.524,14.34 L21.524,17.001 L22.39,17.001 L22.39,11.11 L21.524,11.11 L21.524,13.643 L18.582,13.643 L18.582,11.11 L17.715,11.11 Z M31.111,17.001 L31.111,11.823 L32.989,11.823 L32.989,11.11 L28.365,11.11 L28.365,11.823 L30.243,11.823 L30.243,17.001 L31.111,17.001 Z M34.672,14.034 L35.888,14.034 C36.244,14.034 36.514,13.938 36.694,13.749 C36.876,13.559 36.967,13.282 36.967,12.921 C36.967,12.172 36.607,11.797 35.888,11.797 L34.672,11.797 L34.672,14.034 Z M34.672,14.721 L34.672,17.001 L33.83,17.001 L33.83,11.11 L35.964,11.11 C36.536,11.11 36.992,11.272 37.332,11.598 C37.672,11.924 37.842,12.364 37.842,12.921 C37.842,13.469 37.672,13.907 37.332,14.233 C36.992,14.559 36.536,14.721 35.964,14.721 L34.672,14.721 Z M25.977,17.001 L25.977,11.823 L27.856,11.823 L27.856,11.11 L23.232,11.11 L23.232,11.823 L25.11,11.823 L25.11,17.001 L25.977,17.001 Z M4,8 C4,10.206 5.794,12 8,12 C10.206,12 12,10.206 12,8 C12,5.794 10.206,4 8,4 C5.794,4 4,5.794 4,8 L4,8 Z M2,8 C2,4.691 4.692,2 8,2 C11.309,2 14,4.691 14,8 C14,11.308 11.309,14 8,14 C4.692,14 2,11.308 2,8 L2,8 Z M44,41.5 L46,41.5 L46,39.5 L44,39.5 L44,41.5 Z M45,35 L43.5,35 L43.5,37 L44,37 L44,37.5 L46,37.5 L46,36 C46,35.447 45.553,35 45,35 L45,35 Z M19.5,37 L22.5,37 L22.5,35 L19.5,35 L19.5,37 Z M25.5,37 L28.5,37 L28.5,35 L25.5,35 L25.5,37 Z M13.5,37 L16.5,37 L16.5,35 L13.5,35 L13.5,37 Z M31.5,37 L34.5,37 L34.5,35 L31.5,35 L31.5,37 Z M37.5,37 L40.5,37 L40.5,35 L37.5,35 L37.5,37 Z M7.5,37 L10.5,37 L10.5,35 L7.5,35 L7.5,37 Z M2,36 L2,37.5 L4,37.5 L4,37 L4.5,37 L4.5,35 L3,35 C2.447,35 2,35.447 2,36 L2,36 Z M2,41.5 L4,41.5 L4,39.5 L2,39.5 L2,41.5 Z M4,43.5 L2,43.5 L2,45 C2,45.552 2.447,46 3,46 L4.5,46 L4.5,44 L4,44 L4,43.5 Z M25.5,46 L28.5,46 L28.5,44 L25.5,44 L25.5,46 Z M7.5,46 L10.5,46 L10.5,44 L7.5,44 L7.5,46 Z M31.5,46 L34.5,46 L34.5,44 L31.5,44 L31.5,46 Z M37.5,46 L40.5,46 L40.5,44 L37.5,44 L37.5,46 Z M13.5,46 L16.5,46 L16.5,44 L13.5,44 L13.5,46 Z M19.5,46 L22.5,46 L22.5,44 L19.5,44 L19.5,46 Z M44,44 L43.5,44 L43.5,46 L45,46 C45.553,46 46,45.552 46,45 L46,43.5 L44,43.5 L44,44 Z M44,28.5 L46,28.5 L46,26.5 L44,26.5 L44,28.5 Z M45,22 L43.5,22 L43.5,24 L44,24 L44,24.5 L46,24.5 L46,23 C46,22.447 45.553,22 45,22 L45,22 Z M37.5,24 L40.5,24 L40.5,22 L37.5,22 L37.5,24 Z M31.5,24 L34.5,24 L34.5,22 L31.5,22 L31.5,24 Z M25.5,24 L28.5,24 L28.5,22 L25.5,22 L25.5,24 Z M19.5,24 L22.5,24 L22.5,22 L19.5,22 L19.5,24 Z M13.5,24 L16.5,24 L16.5,22 L13.5,22 L13.5,24 Z M7.5,24 L10.5,24 L10.5,22 L7.5,22 L7.5,24 Z M2,23 L2,24.5 L4,24.5 L4,24 L4.5,24 L4.5,22 L3,22 C2.447,22 2,22.447 2,23 L2,23 Z M2,28.5 L4,28.5 L4,26.5 L2,26.5 L2,28.5 Z M4,30.5 L2,30.5 L2,32 C2,32.552 2.447,33 3,33 L4.5,33 L4.5,31 L4,31 L4,30.5 Z M7.5,33 L10.5,33 L10.5,31 L7.5,31 L7.5,33 Z M31.5,33 L34.5,33 L34.5,31 L31.5,31 L31.5,33 Z M37.5,33 L40.5,33 L40.5,31 L37.5,31 L37.5,33 Z M25.5,33 L28.5,33 L28.5,31 L25.5,31 L25.5,33 Z M13.5,33 L16.5,33 L16.5,31 L13.5,31 L13.5,33 Z M19.5,33 L22.5,33 L22.5,31 L19.5,31 L19.5,33 Z M44,31 L43.5,31 L43.5,33 L45,33 C45.553,33 46,32.552 46,32 L46,30.5 L44,30.5 L44,31 Z M46,9 L46,19 C46,19.552 45.553,20 45,20 L3,20 C2.447,20 2,19.552 2,19 L2,15 L4,15 L4,18 L44,18 L44,10 L16,10 L16,8 L45,8 C45.553,8 46,8.447 46,9 L46,9 Z" id="Amazon-Simple-Notification-Service_HTTP-notification_Resource-Icon_light-bg" fill="#B0084D"></path>
    </g>
</svg>