<?xml version="1.0" encoding="UTF-8"?>
<svg width="48px" height="48px" viewBox="0 0 48 48" version="1.1" xmlns="http://www.w3.org/2000/svg" xmlns:xlink="http://www.w3.org/1999/xlink">
    <title>Icon-Resource/Application-Integration/Res_Amazon-Simple-Notification-Service_Message_48_Light</title>
    <g id="Icon-Resource/Application-Integration/Res_Amazon-Simple-Notification-Service_Message_48" stroke="none" stroke-width="1" fill="none" fill-rule="evenodd">
        <path d="M36.5,4 L38.5,4 L38.5,2 L36.5,2 L36.5,4 Z M33,2 L34.5,2 L34.5,4 L34,4 L34,4.5 L32,4.5 L32,3 C32,2.448 32.447,2 33,2 L33,2 Z M32,34.5 L34,34.5 L34,31.5 L32,31.5 L32,34.5 Z M32,40.5 L34,40.5 L34,37.5 L32,37.5 L32,40.5 Z M32,28.5 L34,28.5 L34,25.5 L32,25.5 L32,28.5 Z M32,10.5 L34,10.5 L34,7.5 L32,7.5 L32,10.5 Z M32,16.5 L34,16.5 L34,13.5 L32,13.5 L32,16.5 Z M32,22.5 L34,22.5 L34,19.5 L32,19.5 L32,22.5 Z M34,44 L34.5,44 L34.5,46 L33,46 C32.447,46 32,45.553 32,45 L32,43.5 L34,43.5 L34,44 Z M36.5,46 L38.5,46 L38.5,44 L36.5,44 L36.5,46 Z M41,43.5 L43,43.5 L43,45 C43,45.553 42.553,46 42,46 L40.5,46 L40.5,44 L41,44 L41,43.5 Z M41,40.5 L43,40.5 L43,37.5 L41,37.5 L41,40.5 Z M41,34.5 L43,34.5 L43,31.5 L41,31.5 L41,34.5 Z M41,16.5 L43,16.5 L43,13.5 L41,13.5 L41,16.5 Z M41,10.5 L43,10.5 L43,7.5 L41,7.5 L41,10.5 Z M41,28.5 L43,28.5 L43,25.5 L41,25.5 L41,28.5 Z M41,22.5 L43,22.5 L43,19.5 L41,19.5 L41,22.5 Z M43,3 L43,4.5 L41,4.5 L41,4 L40.5,4 L40.5,2 L42,2 C42.553,2 43,2.448 43,3 L43,3 Z M23.5,4 L25.5,4 L25.5,2 L23.5,2 L23.5,4 Z M20,2 L21.5,2 L21.5,4 L21,4 L21,4.5 L19,4.5 L19,3 C19,2.448 19.447,2 20,2 L20,2 Z M19,10.5 L21,10.5 L21,7.5 L19,7.5 L19,10.5 Z M19,34.5 L21,34.5 L21,31.5 L19,31.5 L19,34.5 Z M19,28.5 L21,28.5 L21,25.5 L19,25.5 L19,28.5 Z M19,22.5 L21,22.5 L21,19.5 L19,19.5 L19,22.5 Z M19,40.5 L21,40.5 L21,37.5 L19,37.5 L19,40.5 Z M19,16.5 L21,16.5 L21,13.5 L19,13.5 L19,16.5 Z M21,44 L21.5,44 L21.5,46 L20,46 C19.447,46 19,45.553 19,45 L19,43.5 L21,43.5 L21,44 Z M23.5,46 L25.5,46 L25.5,44 L23.5,44 L23.5,46 Z M28,43.5 L30,43.5 L30,45 C30,45.553 29.553,46 29,46 L27.5,46 L27.5,44 L28,44 L28,43.5 Z M28,10.5 L30,10.5 L30,7.5 L28,7.5 L28,10.5 Z M28,16.5 L30,16.5 L30,13.5 L28,13.5 L28,16.5 Z M28,22.5 L30,22.5 L30,19.5 L28,19.5 L28,22.5 Z M28,40.5 L30,40.5 L30,37.5 L28,37.5 L28,40.5 Z M28,28.5 L30,28.5 L30,25.5 L28,25.5 L28,28.5 Z M28,34.5 L30,34.5 L30,31.5 L28,31.5 L28,34.5 Z M30,3 L30,4.5 L28,4.5 L28,4 L27.5,4 L27.5,2 L29,2 C29.553,2 30,2.448 30,3 L30,3 Z M7,44 L15,44 L15,4 L7,4 L7,44 Z M16,2 L6,2 C5.447,2 5,2.448 5,3 L5,45 C5,45.553 5.447,46 6,46 L16,46 C16.553,46 17,45.553 17,45 L17,3 C17,2.448 16.553,2 16,2 L16,2 Z" id="Amazon-Simple-Notification-Service_Message_48" fill="#B0084D"></path>
    </g>
</svg>