<?xml version="1.0" encoding="UTF-8"?>
<svg width="48px" height="48px" viewBox="0 0 48 48" version="1.1" xmlns="http://www.w3.org/2000/svg" xmlns:xlink="http://www.w3.org/1999/xlink">
    <title>Icon-Resource/General-Resource/Res_Alert_48_Light</title>
    <g id="Icon-Resource/General-Resource/Res_Alert_48" stroke="none" stroke-width="1" fill="none" fill-rule="evenodd">
        <path d="M24.4964,35 C23.6694,35 22.9964,35.673 22.9964,36.5 C22.9964,37.327 23.6694,38 24.4964,38 C25.3234,38 25.9964,37.327 25.9964,36.5 C25.9964,35.673 25.3234,35 24.4964,35 L24.4964,35 Z M24.4964,40 C22.5664,40 20.9964,38.43 20.9964,36.5 C20.9964,34.57 22.5664,33 24.4964,33 C26.4264,33 27.9964,34.57 27.9964,36.5 C27.9964,38.43 26.4264,40 24.4964,40 L24.4964,40 Z M23.9324,29 L25.0604,29 L25.9274,16 L23.0654,16 L23.9324,29 Z M25.9964,31 L22.9964,31 C22.4704,31 22.0334,30.592 21.9984,30.066 L20.9984,15.066 C20.9804,14.791 21.0774,14.519 21.2664,14.317 C21.4554,14.115 21.7194,14 21.9964,14 L26.9964,14 C27.2734,14 27.5374,14.115 27.7264,14.317 C27.9154,14.519 28.0124,14.791 27.9944,15.066 L26.9944,30.066 C26.9594,30.592 26.5224,31 25.9964,31 L25.9964,31 Z M14.0764,23.062 C14.0394,23.147 13.9934,23.236 13.9384,23.331 L5.2094,38.339 C4.9084,38.849 4.9274,39.496 5.2574,40.075 C5.5874,40.654 6.1404,41 6.7354,41 L42.2574,41 C42.8524,41 43.4054,40.654 43.7354,40.075 C44.0654,39.496 44.0844,38.849 43.7874,38.345 L35.0544,23.331 C34.9994,23.236 34.9534,23.147 34.9164,23.062 L34.9024,23.07 L26.0224,7.804 C25.7264,7.303 25.1544,7 24.4964,7 C23.8394,7 23.2684,7.301 22.9684,7.807 L14.0904,23.07 L14.0764,23.062 Z M42.2574,43 L6.7354,43 C5.4134,43 4.2114,42.277 3.5194,41.066 C2.8394,39.874 2.8264,38.441 3.4844,37.327 C12.0294,22.635 12.3484,22.086 12.3594,22.067 L12.3724,22.075 C12.4384,21.933 12.5134,21.803 12.5754,21.696 L21.2414,6.798 C21.2424,6.796 21.2434,6.795 21.2444,6.793 C21.9074,5.67 23.1224,5 24.4964,5 C25.8704,5 27.0854,5.67 27.7484,6.793 L36.4174,21.696 C36.4794,21.803 36.5544,21.933 36.6204,22.075 L36.6334,22.067 C36.6444,22.086 36.9634,22.635 45.5124,37.333 C46.1664,38.441 46.1534,39.874 45.4734,41.066 C44.7814,42.277 43.5794,43 42.2574,43 L42.2574,43 Z" id="Fill-1" fill="#232F3D"></path>
    </g>
</svg>