<?xml version="1.0" encoding="UTF-8"?>
<svg width="48px" height="48px" viewBox="0 0 48 48" version="1.1" xmlns="http://www.w3.org/2000/svg" xmlns:xlink="http://www.w3.org/1999/xlink">
    <title>Icon-Resource/General-Resource/Res_Document_48_Light</title>
    <g id="Icon-Resource/General-Resource/Res_Document_48" stroke="none" stroke-width="1" fill="none" fill-rule="evenodd">
        <path d="M15,20 L28,20 L28,18 L15,18 L15,20 Z M15,34 L28,34 L28,32 L15,32 L15,34 Z M15,27 L32,27 L32,25 L15,25 L15,27 Z M10,44 L10.007,4 L28,4 L28,13 C28,13.552 28.447,14 29,14 L38,14 L38.025,44 L10,44 Z M30,5.414 L36.586,12 L30,12 L30,5.414 Z M39.707,12.293 L29.707,2.293 C29.52,2.105 29.266,2 29,2 L10,2 C8.822,2 8,2.822 8,4 L8,44 C8,45.14 8.859,46 10,46 L38.025,46 C39.151,46 40,45.14 40,44 L40,13 C40,12.735 39.895,12.48 39.707,12.293 L39.707,12.293 Z" id="Fill-1" fill="#232F3D"></path>
    </g>
</svg>