<?xml version="1.0" encoding="UTF-8"?>
<svg width="48px" height="48px" viewBox="0 0 48 48" version="1.1" xmlns="http://www.w3.org/2000/svg" xmlns:xlink="http://www.w3.org/1999/xlink">
    <title>Icon-Resource/General-Resource/Res_Firewall_48_Light</title>
    <g id="Icon-Resource/General-Resource/Res_Firewall_48" stroke="none" stroke-width="1" fill="none" fill-rule="evenodd">
        <path d="M34.912,36.0124 L43.986,36.0124 L43.986,32.2824 L34.912,32.2824 L34.912,36.0124 Z M33.637,38.0134 L26.844,38.0134 L26.844,41.0884 L35.812,41.0884 L35.812,38.0134 L33.911,38.0134 L33.637,38.0134 Z M23.108,36.0134 L32.912,36.0134 L32.912,32.2834 L23.108,32.2834 L23.108,36.0134 Z M33.911,30.2824 L39.882,30.2824 L39.882,26.3294 L30.913,26.3294 L30.913,30.2824 L33.637,30.2824 L33.911,30.2824 Z M45.986,31.2824 L45.986,37.0134 C45.986,37.5654 45.538,38.0134 44.986,38.0134 L37.812,38.0134 L37.812,42.0884 C37.812,42.6404 37.364,43.0884 36.812,43.0884 L25.844,43.0884 C25.291,43.0884 24.844,42.6404 24.844,42.0884 L24.844,38.0134 L22.108,38.0134 C21.555,38.0134 21.108,37.5654 21.108,37.0134 L21.108,31.2824 C21.108,30.7294 21.555,30.2824 22.108,30.2824 L28.913,30.2824 L28.913,25.3294 C28.913,24.7764 29.361,24.3294 29.913,24.3294 L40.882,24.3294 C41.435,24.3294 41.882,24.7764 41.882,25.3294 L41.882,30.2824 L44.986,30.2824 C45.538,30.2824 45.986,30.7294 45.986,31.2824 L45.986,31.2824 Z M23.587,24.7044 C23.522,25.1124 23.713,25.5184 24.07,25.7274 C24.425,25.9364 24.875,25.9034 25.197,25.6464 C25.294,25.5694 27.281,23.9424 28.158,19.9594 C28.554,20.4704 28.978,21.1794 29.308,22.1344 L31.198,21.4814 C30.096,18.2904 28.031,17.1394 27.945,17.0914 C27.649,16.9314 27.297,16.9294 27.001,17.0854 C26.706,17.2404 26.507,17.5334 26.473,17.8654 C26.348,19.0544 26.111,20.0504 25.831,20.8714 C25.419,10.4424 16.37,6.8834 16.268,6.8444 C15.802,6.6684 15.279,6.8614 15.037,7.2974 C14.797,7.7324 14.914,8.2784 15.312,8.5784 C18.096,10.6774 19.366,14.2324 18.804,18.2914 L18.567,19.5854 C18.225,21.0784 17.655,22.5424 16.851,23.9734 L16.156,25.3504 C12.763,32.8974 15.634,40.4644 15.758,40.7824 C15.908,41.1694 16.279,41.4204 16.69,41.4204 C16.715,41.4204 16.74,41.4194 16.767,41.4174 C16.818,41.4134 18.028,41.3164 19.736,40.9134 L19.275,38.9674 C18.511,39.1474 17.854,39.2614 17.384,39.3294 C16.798,37.3514 15.506,31.6734 17.961,26.2124 L18.615,24.9154 C19.492,23.3544 20.132,21.7114 20.525,19.9894 L20.778,18.6104 C21.112,16.1984 20.896,13.9364 20.175,11.9584 C22.488,14.4104 24.601,18.4454 23.587,24.7044 L23.587,24.7044 Z M12.408,7.5114 C11.928,7.2614 11.197,7.0354 10.497,6.9994 C12.099,9.0514 14.384,13.3844 12.09,19.6854 C11.956,20.0544 11.62,20.3094 11.23,20.3404 C10.847,20.3824 10.468,20.1724 10.277,19.8304 C9.657,18.7194 7.914,16.1994 5.989,15.2134 C6.658,17.6494 7.412,22.0714 5.316,25.2544 C5.212,25.4124 5.113,25.5704 5.021,25.7284 C3.187,28.8524 3.816,32.6804 6.623,35.4774 C6.63,35.4844 7.322,36.1574 9.117,37.1924 C11.328,38.4694 12.195,38.8444 12.204,38.8474 L11.426,40.6894 C11.388,40.6734 10.469,40.2824 8.117,38.9254 C6.086,37.7534 5.29,36.9734 5.206,36.8894 C1.791,33.4854 1.022,28.5914 3.296,24.7164 C3.406,24.5274 3.523,24.3404 3.646,24.1534 C6.05,20.5044 3.578,14.2424 3.553,14.1804 C3.429,13.8714 3.466,13.5214 3.653,13.2474 C3.838,12.9724 4.149,12.8074 4.481,12.8074 C7.148,12.8074 9.453,15.2174 10.792,16.9974 C12.143,10.6794 8.165,7.3554 7.979,7.2044 C7.728,7.0004 7.589,6.6854 7.61,6.3634 C7.63,6.0404 7.803,5.7464 8.078,5.5754 C9.625,4.6164 11.885,4.9854 13.33,5.7354 L12.408,7.5114 Z" id="Amazon-Firewall_Resource-Icon_light-bg" fill="#242F3E"></path>
    </g>
</svg>