<?xml version="1.0" encoding="UTF-8"?>
<svg width="48px" height="48px" viewBox="0 0 48 48" version="1.1" xmlns="http://www.w3.org/2000/svg" xmlns:xlink="http://www.w3.org/1999/xlink">
    <title>Icon-Resource/General-Resource/Res_Forums_48_Light</title>
    <g id="Icon-Resource/General-Resource/Res_Forums_48" stroke="none" stroke-width="1" fill="none" fill-rule="evenodd">
        <path d="M4,43.201 L44.178,43.201 L44.178,38.334 L4,38.334 L4,43.201 Z M46.178,37.611 L46.178,43.925 C46.178,44.629 45.605,45.202 44.901,45.202 L3.276,45.202 C2.572,45.202 2,44.629 2,43.925 L2,37.611 C2,36.907 2.572,36.334 3.276,36.334 L44.901,36.334 C45.605,36.334 46.178,36.907 46.178,37.611 L46.178,37.611 Z M4,31.701 L44.178,31.701 L44.178,26.834 L4,26.834 L4,31.701 Z M46.178,26.111 L46.178,32.425 C46.178,33.129 45.605,33.702 44.901,33.702 L3.276,33.702 C2.572,33.702 2,33.129 2,32.425 L2,26.111 C2,25.407 2.572,24.834 3.276,24.834 L44.901,24.834 C45.605,24.834 46.178,25.407 46.178,26.111 L46.178,26.111 Z M4.055,20.256 L44.232,20.256 L44.232,15.39 L4.055,15.39 L4.055,20.256 Z M46.232,14.666 L46.232,20.981 C46.232,21.684 45.66,22.256 44.957,22.256 L3.332,22.256 C2.628,22.256 2.056,21.684 2.056,20.981 L2.056,14.666 C2.056,13.962 2.628,13.39 3.332,13.39 L44.957,13.39 C45.66,13.39 46.232,13.962 46.232,14.666 L46.232,14.666 Z M4,8.868 L44.178,8.868 L44.178,4.001 L4,4.001 L4,8.868 Z M2,9.591 L2,3.277 C2,2.573 2.572,2 3.276,2 L44.901,2 C45.605,2 46.178,2.573 46.178,3.277 L46.178,9.591 C46.178,10.295 45.605,10.868 44.901,10.868 L3.276,10.868 C2.572,10.868 2,10.295 2,9.591 L2,9.591 Z M5.689,41.716 L29.465,41.716 L29.465,39.716 L5.689,39.716 L5.689,41.716 Z M5.689,18.827 L29.465,18.827 L29.465,16.827 L5.689,16.827 L5.689,18.827 Z M22.288,30.327 L42.517,30.327 L42.517,28.327 L22.288,28.327 L22.288,30.327 Z M22.287,7.437 L42.516,7.437 L42.516,5.437 L22.287,5.437 L22.287,7.437 Z" id="Fill-7" fill="#232F3D"></path>
    </g>
</svg>