<?xml version="1.0" encoding="UTF-8"?>
<svg width="48px" height="48px" viewBox="0 0 48 48" version="1.1" xmlns="http://www.w3.org/2000/svg" xmlns:xlink="http://www.w3.org/1999/xlink">
    <title>Icon-Resource/General-Resource/Res_Gear_48_Light</title>
    <g id="Icon-Resource/General-Resource/Res_Gear_48" stroke="none" stroke-width="1" fill="none" fill-rule="evenodd">
        <path d="M24.006,31.814 C19.7,31.814 16.197,28.311 16.197,24.005 C16.197,19.7 19.7,16.197 24.006,16.197 C28.312,16.197 31.815,19.7 31.815,24.005 C31.815,28.311 28.312,31.814 24.006,31.814 L24.006,31.814 Z M24.006,14.197 C18.598,14.197 14.197,18.597 14.197,24.005 C14.197,29.414 18.598,33.814 24.006,33.814 C29.414,33.814 33.815,29.414 33.815,24.005 C33.815,18.597 29.414,14.197 24.006,14.197 L24.006,14.197 Z M44.012,27.749 L40.484,27.749 C40.03,27.749 39.634,28.053 39.517,28.491 C39.147,29.884 38.556,30.893 37.871,32.061 C37.641,32.454 37.706,32.954 38.029,33.275 L40.521,35.751 L35.722,40.521 L33.223,38.036 C32.902,37.717 32.407,37.653 32.017,37.88 L31.797,38.007 C30.622,38.688 29.774,39.18 28.494,39.516 C28.056,39.632 27.749,40.029 27.749,40.483 L27.749,44.011 L20.263,44.011 L20.263,40.485 C20.263,40.032 19.958,39.636 19.52,39.519 C18.145,39.153 17.153,38.606 15.904,37.876 C15.512,37.645 15.012,37.71 14.69,38.034 L12.219,40.522 L7.456,35.727 L9.938,33.229 C10.255,32.909 10.319,32.415 10.094,32.024 L9.985,31.838 C9.297,30.647 8.799,29.786 8.459,28.494 C8.344,28.055 7.946,27.749 7.492,27.749 L4,27.749 L4,20.262 L7.526,20.262 C7.979,20.262 8.376,19.957 8.492,19.519 C8.864,18.116 9.432,17.083 10.136,15.878 C10.365,15.485 10.301,14.986 9.979,14.665 L7.487,12.184 L12.282,7.407 L14.778,9.894 C15.099,10.214 15.594,10.277 15.985,10.051 L16.162,9.949 C17.359,9.255 18.223,8.753 19.518,8.413 C19.956,8.297 20.263,7.899 20.263,7.445 L20.263,4 L27.749,4 L27.749,7.51 C27.749,7.963 28.053,8.359 28.49,8.476 C29.761,8.816 30.61,9.318 31.783,10.011 L31.956,10.113 C32.352,10.347 32.853,10.282 33.176,9.954 L35.612,7.484 L40.317,12.252 L37.86,14.743 C37.545,15.063 37.482,15.554 37.705,15.943 C38.407,17.164 38.962,18.129 39.323,19.515 C39.439,19.955 39.836,20.262 40.291,20.262 L44.012,20.262 L44.012,27.749 Z M44.137,18.262 L41.038,18.262 C40.707,17.263 40.289,16.447 39.817,15.607 L41.827,13.57 C42.543,12.844 42.543,11.663 41.827,10.936 L36.947,5.989 C36.236,5.269 34.988,5.269 34.277,5.989 L32.299,7.995 C31.485,7.521 30.707,7.101 29.749,6.771 L29.749,3.875 C29.749,2.841 28.908,2 27.874,2 L20.138,2 C19.104,2 18.263,2.841 18.263,3.875 L18.263,6.702 C17.28,7.034 16.483,7.458 15.648,7.936 L13.606,5.902 C12.876,5.175 11.689,5.178 10.959,5.902 L5.986,10.856 C5.631,11.21 5.436,11.681 5.436,12.183 C5.436,12.686 5.631,13.157 5.986,13.513 L8.024,15.541 C7.544,16.394 7.116,17.248 6.78,18.262 L3.876,18.262 C2.842,18.262 2,19.104 2,20.137 L2,27.874 C2,28.907 2.842,29.749 3.876,29.749 L6.748,29.749 C7.08,30.731 7.502,31.527 7.98,32.362 L5.949,34.406 C5.227,35.134 5.227,36.32 5.95,37.048 L10.888,42.02 C11.241,42.377 11.714,42.574 12.217,42.574 L12.219,42.574 C12.722,42.574 13.194,42.377 13.55,42.02 L15.567,39.989 C16.435,40.48 17.269,40.898 18.263,41.23 L18.263,44.136 C18.263,45.169 19.104,46.011 20.138,46.011 L27.874,46.011 C28.908,46.011 29.749,45.169 29.749,44.136 L29.749,41.227 C30.731,40.895 31.523,40.472 32.356,39.994 L34.4,42.026 C35.128,42.752 36.314,42.751 37.044,42.026 L42.019,37.081 C42.376,36.727 42.573,36.253 42.573,35.75 C42.573,35.247 42.376,34.774 42.02,34.421 L39.986,32.401 C40.454,31.584 40.887,30.753 41.226,29.749 L44.137,29.749 C45.171,29.749 46.012,28.907 46.012,27.874 L46.012,20.137 C46.012,19.104 45.171,18.262 44.137,18.262 L44.137,18.262 Z" id="Fill-6" fill="#232F3D"></path>
    </g>
</svg>