<?xml version="1.0" encoding="UTF-8"?>
<svg width="48px" height="48px" viewBox="0 0 48 48" version="1.1" xmlns="http://www.w3.org/2000/svg" xmlns:xlink="http://www.w3.org/1999/xlink">
    <title>Icon-Resource/General-Resource/Res_Globe_48_Light</title>
    <g id="Icon-Resource/General-Resource/Res_Globe_48" stroke="none" stroke-width="1" fill="none" fill-rule="evenodd">
        <path d="M37.322,9.762 C35.937,10.442 34.302,11.002 32.486,11.419 C31.664,8.711 30.55,6.477 29.222,4.86 C32.32,5.813 35.091,7.518 37.322,9.762 L37.322,9.762 Z M34.033,22 C33.969,18.854 33.609,15.932 33,13.344 C35.153,12.843 37.088,12.154 38.693,11.305 C41.086,14.281 42.615,17.97 42.924,22 L34.033,22 Z M32.71,33.883 C33.491,30.974 33.958,27.619 34.033,24 L42.974,24 C42.859,28.507 41.226,32.644 38.543,35.894 C36.898,35.047 34.906,34.372 32.71,33.883 L32.71,33.883 Z M32.13,35.796 C33.997,36.201 35.685,36.753 37.117,37.432 C34.744,39.752 31.78,41.458 28.477,42.332 C29.937,40.817 31.185,38.573 32.13,35.796 L32.13,35.796 Z M16.034,35.949 C17.043,38.858 18.385,41.179 19.956,42.662 C16.39,42.003 13.171,40.371 10.565,38.053 C12.033,37.179 13.903,36.466 16.034,35.949 L16.034,35.949 Z M14.078,24 C14.154,27.688 14.639,31.101 15.446,34.047 C12.96,34.664 10.784,35.534 9.105,36.608 C6.051,33.257 4.149,28.851 4.025,24 L14.078,24 Z M15.151,13.164 C14.517,15.795 14.144,18.782 14.078,22 L4.076,22 C4.411,17.628 6.192,13.663 8.944,10.569 C10.578,11.65 12.706,12.531 15.151,13.164 L15.151,13.164 Z M15.673,11.248 C13.6,10.717 11.786,9.998 10.373,9.122 C12.822,6.884 15.833,5.26 19.178,4.499 C17.748,6.103 16.55,8.418 15.673,11.248 L15.673,11.248 Z M16.078,22 C16.143,18.838 16.506,16.016 17.089,13.604 C19.377,14.047 21.87,14.286 24.444,14.286 C26.733,14.286 28.966,14.095 31.051,13.739 C31.616,16.121 31.969,18.895 32.033,22 L16.078,22 Z M30.163,35.434 C28.599,39.881 26.284,42.5 24.055,42.5 C21.845,42.5 19.548,39.926 17.984,35.545 C19.998,35.193 22.181,35 24.444,35 C26.427,35 28.35,35.157 30.163,35.434 L30.163,35.434 Z M24.444,33 C21.98,33 19.593,33.222 17.387,33.629 C16.635,30.909 16.076,27.658 16,24 L32,24 C31.925,27.603 31.49,30.811 30.757,33.506 C28.755,33.181 26.627,33 24.444,33 L24.444,33 Z M24.482,4.05 C26.749,4.362 29.065,7.121 30.528,11.801 C28.612,12.115 26.559,12.286 24.444,12.286 C22.047,12.286 19.736,12.073 17.624,11.68 C19.146,6.899 21.559,4.147 23.887,4.02 C24.087,4.024 24.284,4.04 24.482,4.05 L24.482,4.05 Z M24.636,2.058 C24.443,2.036 24.252,2 24.055,2 C23.992,2 23.931,2.016 23.868,2.019 C23.744,2.017 23.624,2 23.5,2 C11.645,2 2,11.645 2,23.5 C2,35.355 11.645,45 23.5,45 C35.355,45 45,35.355 45,23.5 C45,12.028 35.961,2.654 24.636,2.058 L24.636,2.058 Z" id="Fill-1" fill="#232F3D"></path>
    </g>
</svg>