<?xml version="1.0" encoding="UTF-8"?>
<svg width="48px" height="48px" viewBox="0 0 48 48" version="1.1" xmlns="http://www.w3.org/2000/svg" xmlns:xlink="http://www.w3.org/1999/xlink">
    <title>Icon-Resource/General-Resource/Res_Internet-alt1_48_Light</title>
    <g id="Icon-Resource/General-Resource/Res_Internet-alt1_48" stroke="none" stroke-width="1" fill="none" fill-rule="evenodd">
        <path d="M23.61,22.0490004 C27.501,22.0490004 31.187,23.5440004 33.99,26.2600004 L32.597,27.6950004 C30.171,25.3440004 26.978,24.0490004 23.61,24.0490004 C20.058,24.0490004 16.622,25.5400004 14.183,28.1410004 L12.724,26.7720004 C15.54,23.7710004 19.507,22.0490004 23.61,22.0490004 M23.61,25.6830004 C26.684,25.6830004 29.56,26.9020004 31.708,29.1130004 L30.272,30.5060004 C28.506,28.6860004 26.139,27.6830004 23.61,27.6830004 C20.974,27.6830004 18.451,28.8120004 16.688,30.7800004 L15.198,29.4460004 C17.34,27.0550004 20.406,25.6830004 23.61,25.6830004 M23.61,29.3160004 C25.713,29.3160004 27.748,30.1970004 29.192,31.7360004 L27.735,33.1050004 C26.651,31.9510004 25.186,31.3160004 23.61,31.3160004 C21.864,31.3160004 20.24,32.1070004 19.156,33.4870004 L17.584,32.2510004 C19.049,30.3860004 21.246,29.3160004 23.61,29.3160004 M42.384,33.6750004 C40.489,35.5690004 37.531,35.5890004 37.491,35.5890004 L32.722,35.5840004 L9.029,35.5610004 C8.419,35.5600004 7.823,35.3960004 7.307,35.0870004 C5.798,34.1810004 4,32.4420004 4,29.2970004 C4,25.1660004 7.006,23.7700004 8.853,23.3020004 C8.873,23.2990004 8.892,23.2950004 8.911,23.2900004 C9.413,23.1770004 9.746,22.7000004 9.681,22.1900004 C9.634,21.8210004 9.611,21.4440004 9.611,21.0670004 C9.611,17.6880004 12.068,14.0500004 15.204,12.7840004 C20.673,10.5700004 24.544,13.4740004 25.955,14.8220004 C27.099,15.9160004 27.992,17.3150004 28.609,18.9800004 C28.735,19.3200004 29.036,19.5660004 29.395,19.6200004 C29.762,19.6760004 30.116,19.5310004 30.337,19.2440004 C31.217,18.1090004 32.646,17.6360004 33.981,18.0390004 C35.525,18.5070004 36.506,19.9730004 36.684,22.0690004 C36.622,22.5970004 36.986,23.0850004 37.515,23.1720004 C38.042,23.2590004 39.424,23.5580004 40.895,24.4590004 C43.701,26.1790004 44.025,27.9480004 44.025,29.1290004 C44.025,31.0590004 43.473,32.5880004 42.384,33.6750004 M41.94,22.7540004 C40.926,22.1320004 39.75,21.6420004 38.615,21.3600004 C38.233,18.7220004 36.751,16.7890004 34.561,16.1250004 C32.937,15.6360004 31.233,15.9450004 29.896,16.9130004 C29.227,15.5490004 28.37,14.3630004 27.338,13.3770004 C23.816,10.0100004 19.001,9.09500036 14.456,10.9290004 C10.553,12.5040004 7.611,16.8620004 7.611,21.0670004 C7.611,21.2380004 7.615,21.4090004 7.623,21.5810004 C5.461,22.3050004 2,24.2530004 2,29.2970004 C2,33.5920004 4.68,35.8430004 6.279,36.8020004 C7.105,37.2970004 8.055,37.5600004 9.027,37.5610004 L37.483,37.5890004 L37.496,37.5890004 C37.777,37.5890004 41.332,37.5390004 43.783,35.1050004 C45.27,33.6270004 46.025,31.6170004 46.025,29.1290004 C46.025,26.5250004 44.689,24.4390004 41.94,22.7540004" id="Fill-11" fill="#232F3D"></path>
    </g>
</svg>