<?xml version="1.0" encoding="UTF-8"?>
<svg width="48px" height="48px" viewBox="0 0 48 48" version="1.1" xmlns="http://www.w3.org/2000/svg" xmlns:xlink="http://www.w3.org/1999/xlink">
    <title>Icon-Resource/General-Resource/Res_Internet-alt2_48_Light</title>
    <g id="Icon-Resource/General-Resource/Res_Internet-alt2_48" stroke="none" stroke-width="1" fill="none" fill-rule="evenodd">
        <path d="M30.997,42.2326342 L30.997,14.7586342 L28.997,14.7586342 L28.997,42.1226342 L25.556,38.6256342 L24.13,40.0276342 L29.325,45.3066342 C29.513,45.4976342 29.768,45.6046342 30.034,45.6056342 L30.038,45.6056342 C30.303,45.6056342 30.558,45.5006342 30.745,45.3126342 L36.004,40.0546342 L34.59,38.6406342 L30.997,42.2326342 Z M22.35,20.7246342 L23.764,19.3106342 L18.506,14.0516342 C18.317,13.8636342 18.018,13.7446342 17.795,13.7586342 C17.528,13.7596342 17.273,13.8676342 17.086,14.0576342 L11.89,19.3366342 L13.315,20.7396342 L16.757,17.2436342 L16.757,30.5546342 L18.757,30.5546342 L18.757,17.1306342 L22.35,20.7246342 Z M27.401,28.5806342 L20.335,28.5736342 L20.333,30.5736342 L27.399,30.5806342 L27.401,28.5806342 Z M46.025,22.1296342 C46.025,24.6186342 45.27,26.6286342 43.783,28.1056342 C41.332,30.5406342 37.777,30.5896342 37.496,30.5896342 L37.483,30.5896342 L32.721,30.5856342 L32.723,28.5856342 L37.491,28.5896342 C37.53,28.5896342 40.488,28.5696342 42.385,26.6756342 C43.474,25.5886342 44.025,24.0596342 44.025,22.1296342 C44.025,20.9496342 43.701,19.1796342 40.895,17.4606342 C39.425,16.5586342 38.042,16.2596342 37.516,16.1726342 C36.986,16.0866342 36.622,15.5976342 36.684,15.0696342 C36.507,12.9736342 35.525,11.5076342 33.981,11.0406342 C32.646,10.6356342 31.218,11.1096342 30.337,12.2456342 C30.116,12.5326342 29.763,12.6786342 29.395,12.6216342 C29.036,12.5666342 28.735,12.3216342 28.609,11.9806342 C27.992,10.3166342 27.1,8.91863416 25.955,7.82363416 C24.544,6.47463416 20.678,3.57163416 15.204,5.78563416 C12.068,7.05063416 9.611,10.6886342 9.611,14.0676342 C9.611,14.4446342 9.635,14.8226342 9.682,15.1906342 C9.746,15.7016342 9.413,16.1776342 8.911,16.2916342 C8.893,16.2956342 8.873,16.2996342 8.853,16.3026342 C7.007,16.7706342 4,18.1676342 4,22.2976342 C4,25.4426342 5.799,27.1816342 7.308,28.0876342 C7.823,28.3966342 8.419,28.5606342 9.029,28.5616342 L15.181,28.5676342 L15.179,30.5676342 L9.027,30.5616342 C8.056,30.5606342 7.105,30.2976342 6.279,29.8026342 C4.681,28.8436342 2,26.5926342 2,22.2976342 C2,17.2536342 5.461,15.3056342 7.623,14.5826342 C7.615,14.4106342 7.611,14.2396342 7.611,14.0676342 C7.611,9.86363416 10.554,5.50463416 14.456,3.92963416 C19.001,2.09463416 23.816,3.00963416 27.338,6.37863416 C28.37,7.36663416 29.227,8.55063416 29.896,9.91463416 C31.233,8.94663416 32.937,8.63663416 34.561,9.12663416 C36.751,9.79063416 38.233,11.7226342 38.615,14.3606342 C39.75,14.6426342 40.927,15.1326342 41.94,15.7546342 C44.689,17.4396342 46.025,19.5256342 46.025,22.1296342 L46.025,22.1296342 Z" id="Fill-12" fill="#232F3D"></path>
    </g>
</svg>