<?xml version="1.0" encoding="UTF-8"?>
<svg width="48px" height="48px" viewBox="0 0 48 48" version="1.1" xmlns="http://www.w3.org/2000/svg" xmlns:xlink="http://www.w3.org/1999/xlink">
    <title>Icon-Resource/General-Resource/Res_Internet_48_Light</title>
    <g id="Icon-Resource/General-Resource/Res_Internet_48" stroke="none" stroke-width="1" fill="none" fill-rule="evenodd">
        <path d="M34.59,29.7893333 L30.997,33.3813333 L30.997,21.7593333 L28.997,21.7593333 L28.997,33.2703333 L25.556,29.7733333 L24.13,31.1763333 L29.325,36.4553333 C29.513,36.6453333 29.768,36.7533333 30.034,36.7543333 L30.038,36.7543333 C30.303,36.7543333 30.558,36.6483333 30.745,36.4613333 L36.004,31.2033333 L34.59,29.7893333 Z M22.35,27.7243333 L23.764,26.3103333 L18.506,21.0523333 C18.319,20.8643333 18.065,20.7593333 17.799,20.7593333 L17.795,20.7593333 C17.528,20.7603333 17.274,20.8673333 17.086,21.0583333 L11.89,26.3363333 L13.316,27.7383333 L16.757,24.2433333 L16.757,37.5543333 L18.757,37.5543333 L18.757,24.1313333 L22.35,27.7243333 Z M20.333,37.5723333 L27.4,37.5793333 L27.402,35.5793333 L20.335,35.5723333 L20.333,37.5723333 Z M46.026,29.1303333 C46.026,31.6173333 45.272,33.6283333 43.783,35.1053333 C41.332,37.5403333 37.776,37.5903333 37.496,37.5903333 L37.484,37.5903333 L32.721,37.5853333 L32.723,35.5853333 L37.491,35.5903333 C37.531,35.5903333 40.489,35.5693333 42.385,33.6763333 C43.474,32.5883333 44.026,31.0593333 44.026,29.1303333 C44.026,27.9483333 43.701,26.1793333 40.896,24.4603333 C39.422,23.5573333 38.041,23.2593333 37.517,23.1743333 C36.986,23.0873333 36.622,22.5993333 36.685,22.0693333 C36.507,19.9743333 35.526,18.5083333 33.982,18.0403333 C32.647,17.6363333 31.218,18.1083333 30.337,19.2443333 C30.116,19.5313333 29.763,19.6773333 29.396,19.6203333 C29.036,19.5653333 28.736,19.3203333 28.61,18.9793333 C27.992,17.3143333 27.099,15.9173333 25.955,14.8233333 C24.545,13.4753333 20.675,10.5743333 15.204,12.7843333 C12.069,14.0513333 9.611,17.6893333 9.611,21.0673333 C9.611,21.4443333 9.635,21.8223333 9.682,22.1893333 C9.743,22.6733333 9.446,23.1313333 8.981,23.2723333 C8.943,23.2843333 8.903,23.2933333 8.865,23.3003333 C7.02,23.7643333 4,25.1573333 4,29.2983333 C4,32.4433333 5.799,34.1823333 7.308,35.0873333 C7.823,35.3963333 8.419,35.5603333 9.029,35.5613333 L15.181,35.5673333 L15.179,37.5673333 L9.028,37.5613333 C8.055,37.5603333 7.104,37.2983333 6.278,36.8023333 C4.681,35.8443333 2,33.5953333 2,29.2983333 C2,25.5833333 4.084,22.7513333 7.623,21.5793333 C7.615,21.4093333 7.611,21.2383333 7.611,21.0673333 C7.611,16.8633333 10.554,12.5053333 14.456,10.9303333 C19.001,9.09333332 23.817,10.0113333 27.338,13.3783333 C28.37,14.3643333 29.228,15.5503333 29.897,16.9143333 C31.234,15.9453333 32.938,15.6373333 34.562,16.1263333 C36.751,16.7903333 38.234,18.7233333 38.615,21.3603333 C39.748,21.6423333 40.925,22.1323333 41.941,22.7553333 C44.69,24.4383333 46.026,26.5243333 46.026,29.1303333 L46.026,29.1303333 Z" id="Fill-10" fill="#232F3D"></path>
    </g>
</svg>