<?xml version="1.0" encoding="UTF-8"?>
<svg width="48px" height="48px" viewBox="0 0 48 48" version="1.1" xmlns="http://www.w3.org/2000/svg" xmlns:xlink="http://www.w3.org/1999/xlink">
    <title>Icon-Resource/General-Resource/Res_Magnifying-Glass_48_Light</title>
    <g id="Icon-Resource/General-Resource/Res_Magnifying-Glass_48" stroke="none" stroke-width="1" fill="none" fill-rule="evenodd">
        <path d="M19,30 C12.935,30 8,25.065 8,19 C8,12.935 12.935,8 19,8 C25.065,8 30,12.935 30,19 C30,25.065 25.065,30 19,30 L19,30 Z M19,6 C11.832,6 6,11.832 6,19 C6,26.168 11.832,32 19,32 C26.168,32 32,26.168 32,19 C32,11.832 26.168,6 19,6 L19,6 Z M43.428,43.36 C42.355,44.451 40.521,44.488 39.484,43.433 L38.24,42.174 L42.315,38.099 L43.506,39.314 C44.58,40.411 44.545,42.226 43.428,43.36 L43.428,43.36 Z M33.01,28.608 L38.44,34.146 L34.349,38.237 L28.939,32.763 C30.52,31.618 31.903,30.218 33.01,28.608 L33.01,28.608 Z M4,19 C4,10.729 10.729,4 19,4 C27.271,4 34,10.729 34,19 C34,27.271 27.271,34 19,34 C10.729,34 4,27.271 4,19 L4,19 Z M40.915,36.671 L36.834,40.752 L35.754,39.66 L39.84,35.575 L40.915,36.671 Z M44.934,37.914 L34.072,26.833 C35.297,24.486 36,21.826 36,19 C36,9.626 28.374,2 19,2 C9.626,2 2,9.626 2,19 C2,28.374 9.626,36 19,36 C21.981,36 24.782,35.223 27.22,33.87 L38.06,44.838 C38.943,45.735 40.125,46.229 41.39,46.229 L41.39,46.229 C42.694,46.228 43.924,45.708 44.854,44.763 C46.731,42.856 46.767,39.784 44.934,37.914 L44.934,37.914 Z" id="Fill-1" fill="#232F3D"></path>
    </g>
</svg>