<?xml version="1.0" encoding="UTF-8"?>
<svg width="48px" height="48px" viewBox="0 0 48 48" version="1.1" xmlns="http://www.w3.org/2000/svg" xmlns:xlink="http://www.w3.org/1999/xlink">
    <title>Icon-Resource/General-Resource/Res_Office-building_48_Light</title>
    <g id="Icon-Resource/General-Resource/Res_Office-building_48" stroke="none" stroke-width="1" fill="none" fill-rule="evenodd">
        <path d="M32.82,42.821 L34.82,42.821 L34.82,37.514 L32.82,37.514 L32.82,42.821 Z M29.287,42.822 L31.287,42.822 L31.287,37.515 L29.287,37.515 L29.287,42.822 Z M24.88,42.822 L26.88,42.822 L26.88,37.515 L24.88,37.515 L24.88,42.822 Z M21.388,42.822 L23.388,42.822 L23.388,37.515 L21.388,37.515 L21.388,42.822 Z M16.941,42.822 L18.941,42.822 L18.941,37.515 L16.941,37.515 L16.941,42.822 Z M13.366,42.822 L15.366,42.822 L15.366,37.515 L13.366,37.515 L13.366,42.822 Z M32.82,34.841 L34.82,34.841 L34.82,30.476 L32.82,30.476 L32.82,34.841 Z M29.287,34.841 L31.287,34.841 L31.287,30.476 L29.287,30.476 L29.287,34.841 Z M24.88,34.841 L26.88,34.841 L26.88,30.476 L24.88,30.476 L24.88,34.841 Z M21.388,34.841 L23.388,34.841 L23.388,30.476 L21.388,30.476 L21.388,34.841 Z M16.941,34.841 L18.941,34.841 L18.941,30.476 L16.941,30.476 L16.941,34.841 Z M13.366,34.841 L15.366,34.841 L15.366,30.476 L13.366,30.476 L13.366,34.841 Z M32.82,27.815 L34.82,27.815 L34.82,23.451 L32.82,23.451 L32.82,27.815 Z M29.287,27.815 L31.287,27.815 L31.287,23.451 L29.287,23.451 L29.287,27.815 Z M24.88,27.815 L26.88,27.815 L26.88,23.451 L24.88,23.451 L24.88,27.815 Z M21.388,27.815 L23.388,27.815 L23.388,23.451 L21.388,23.451 L21.388,27.815 Z M16.941,27.815 L18.941,27.815 L18.941,23.451 L16.941,23.451 L16.941,27.815 Z M13.366,27.815 L15.366,27.815 L15.366,23.451 L13.366,23.451 L13.366,27.815 Z M32.82,20.832 L34.82,20.832 L34.82,16.468 L32.82,16.468 L32.82,20.832 Z M29.287,20.832 L31.287,20.832 L31.287,16.468 L29.287,16.468 L29.287,20.832 Z M24.88,20.832 L26.88,20.832 L26.88,16.468 L24.88,16.468 L24.88,20.832 Z M21.388,20.832 L23.388,20.832 L23.388,16.468 L21.388,16.468 L21.388,20.832 Z M16.941,20.832 L18.941,20.832 L18.941,16.468 L16.941,16.468 L16.941,20.832 Z M13.366,20.832 L15.366,20.832 L15.366,16.468 L13.366,16.468 L13.366,20.832 Z M24.908,13.747 L26.908,13.747 L26.908,5.923 L24.908,5.923 L24.908,13.747 Z M21.375,13.747 L23.375,13.747 L23.375,5.923 L21.375,5.923 L21.375,13.747 Z M36.353,44.523 L12,44.523 L12,14.849 L17.899,14.849 C18.452,14.849 18.899,14.401 18.899,13.849 L18.899,4 L29.44,4 L29.44,13.849 C29.44,14.401 29.887,14.849 30.44,14.849 L36.353,14.849 L36.353,44.523 Z M36.564,12.849 L31.44,12.849 L31.44,3.789 C31.44,2.803 30.637,2 29.651,2 L18.688,2 C17.702,2 16.899,2.803 16.899,3.789 L16.899,12.849 L11.789,12.849 C10.802,12.849 10,13.651 10,14.638 L10,44.734 C10,45.721 10.802,46.523 11.789,46.523 L36.564,46.523 C37.55,46.523 38.353,45.721 38.353,44.734 L38.353,14.638 C38.353,13.651 37.55,12.849 36.564,12.849 L36.564,12.849 Z" id="Fill-14" fill="#232F3D"></path>
    </g>
</svg>