<?xml version="1.0" encoding="UTF-8"?>
<svg width="48px" height="48px" viewBox="0 0 48 48" version="1.1" xmlns="http://www.w3.org/2000/svg" xmlns:xlink="http://www.w3.org/1999/xlink">
    <title>Icon-Resource/General-Resource/Res_Question_48_Light</title>
    <g id="Icon-Resource/General-Resource/Res_Question_48" stroke="none" stroke-width="1" fill="none" fill-rule="evenodd">
        <path d="M24.684,43.34 C24.174,43.864 23.509,44.119 22.652,44.119 C21.794,44.119 21.129,43.864 20.619,43.34 C20.101,42.808 19.849,42.127 19.849,41.258 C19.849,40.39 20.101,39.709 20.619,39.177 C21.129,38.652 21.794,38.397 22.652,38.397 C23.509,38.397 24.173,38.652 24.684,39.177 C25.203,39.71 25.455,40.391 25.455,41.258 C25.455,42.126 25.203,42.807 24.684,43.34 M22.652,36.397 C21.246,36.397 20.08,36.862 19.185,37.782 C18.298,38.694 17.849,39.862 17.849,41.258 C17.849,42.653 18.298,43.823 19.186,44.736 C20.08,45.653 21.246,46.119 22.652,46.119 C24.058,46.119 25.224,45.653 26.118,44.735 C27.004,43.822 27.455,42.653 27.455,41.258 C27.455,39.863 27.004,38.694 26.118,37.782 C25.224,36.863 24.058,36.397 22.652,36.397 M32.006,18.793 C30.463,20.618 27.967,22.32 24.587,23.852 C24.23,24.014 24,24.37 24,24.763 L24,31.134 L21.174,31.134 L20.74,23.314 L22.825,22.266 C25.487,20.949 27.376,19.639 28.6,18.26 C29.887,16.811 30.539,15.121 30.539,13.237 C30.539,11.187 29.884,9.584 28.591,8.472 C27.341,7.4 25.546,6.856 23.254,6.856 C21.732,6.856 20.181,7.075 18.648,7.507 C17.539,7.819 16.317,8.272 15,8.857 L15,6.389 C17.872,4.803 20.959,4 24.186,4 C27.373,4 29.882,4.783 31.645,6.326 C33.394,7.859 34.244,9.928 34.244,12.653 C34.244,15.004 33.512,17.013 32.006,18.793 M32.963,4.822 C30.825,2.949 27.872,2 24.186,2 C20.413,2 16.815,2.991 13.494,4.945 C13.188,5.125 13,5.453 13,5.808 L13,10.43 C13,10.776 13.179,11.096 13.472,11.278 C13.765,11.461 14.132,11.48 14.442,11.327 C16.205,10.46 17.803,9.822 19.19,9.433 C20.547,9.05 21.914,8.856 23.254,8.856 C25.054,8.856 26.412,9.237 27.288,9.988 C28.13,10.713 28.539,11.776 28.539,13.237 C28.539,14.636 28.07,15.845 27.104,16.932 C26.069,18.098 24.33,19.289 21.932,20.476 L19.255,21.821 C18.9,22 18.684,22.373 18.706,22.771 L19.23,32.19 C19.259,32.719 19.698,33.134 20.228,33.134 L25,33.134 C25.553,33.134 26,32.687 26,32.134 L26,25.402 C29.359,23.814 31.891,22.027 33.534,20.084 C35.331,17.958 36.244,15.457 36.244,12.653 C36.244,9.364 35.14,6.73 32.963,4.822" id="Fill-1" fill="#232F3D"></path>
    </g>
</svg>