<?xml version="1.0" encoding="UTF-8"?>
<svg width="48px" height="48px" viewBox="0 0 48 48" version="1.1" xmlns="http://www.w3.org/2000/svg" xmlns:xlink="http://www.w3.org/1999/xlink">
    <title>Icon-Resource/General-Resource/Res_Tape-storage_48_Light</title>
    <g id="Icon-Resource/General-Resource/Res_Tape-storage_48" stroke="none" stroke-width="1" fill="none" fill-rule="evenodd">
        <path d="M39.583,24.08 L43.323,24.08 L43.323,22.08 L39.583,22.08 L39.583,24.08 Z M32.608,26.461 L34.334,27.471 L32.464,30.671 L30.738,29.662 L32.608,26.461 Z M32.525,20.258 L30.655,17.058 L32.381,16.048 L34.251,19.248 L32.525,20.258 Z M35.383,24.691 C34.791,24.691 34.308,24.208 34.308,23.616 C34.308,23.023 34.791,22.54 35.383,22.54 C35.977,22.54 36.459,23.023 36.459,23.616 C36.459,24.208 35.977,24.691 35.383,24.691 L35.383,24.691 Z M35.383,20.54 C33.688,20.54 32.308,21.92 32.308,23.616 C32.308,25.311 33.688,26.691 35.383,26.691 C37.08,26.691 38.459,25.311 38.459,23.616 C38.459,21.92 37.08,20.54 35.383,20.54 L35.383,20.54 Z M35.397,32.23 C30.647,32.23 26.783,28.366 26.783,23.616 C26.783,18.866 30.647,15 35.397,15 C40.147,15 44.011,18.866 44.011,23.616 C44.011,28.366 40.147,32.23 35.397,32.23 L35.397,32.23 Z M4,23.616 C4,18.866 7.865,15 12.615,15 C17.365,15 21.229,18.866 21.229,23.616 C21.229,28.366 17.365,32.23 12.615,32.23 C7.865,32.23 4,28.366 4,23.616 L4,23.616 Z M35.397,13 C29.544,13 24.783,17.762 24.783,23.616 C24.783,26.533 25.967,29.178 27.878,31.099 L20.133,31.099 C22.045,29.178 23.229,26.533 23.229,23.616 C23.229,17.762 18.467,13 12.615,13 C6.762,13 2,17.762 2,23.616 C2,29.468 6.762,34.23 12.615,34.23 C14.319,34.23 15.926,33.816 17.354,33.099 L30.517,33.099 L30.517,33.032 C31.98,33.792 33.637,34.23 35.397,34.23 C41.249,34.23 46.011,29.468 46.011,23.616 C46.011,17.762 41.249,13 35.397,13 L35.397,13 Z M16.801,24.08 L20.541,24.08 L20.541,22.08 L16.801,22.08 L16.801,24.08 Z M9.827,26.461 L11.553,27.471 L9.682,30.671 L7.956,29.662 L9.827,26.461 Z M9.743,20.258 L7.873,17.058 L9.599,16.048 L11.469,19.248 L9.743,20.258 Z M12.602,24.691 C12.008,24.691 11.526,24.208 11.526,23.616 C11.526,23.023 12.008,22.54 12.602,22.54 C13.195,22.54 13.677,23.023 13.677,23.616 C13.677,24.208 13.195,24.691 12.602,24.691 L12.602,24.691 Z M12.602,20.54 C10.906,20.54 9.526,21.92 9.526,23.616 C9.526,25.311 10.906,26.691 12.602,26.691 C14.297,26.691 15.677,25.311 15.677,23.616 C15.677,21.92 14.297,20.54 12.602,20.54 L12.602,20.54 Z" id="Fill-17" fill="#232F3D"></path>
    </g>
</svg>