<?xml version="1.0" encoding="UTF-8"?>
<svg width="48px" height="48px" viewBox="0 0 48 48" version="1.1" xmlns="http://www.w3.org/2000/svg" xmlns:xlink="http://www.w3.org/1999/xlink">
    <title>Icon-Resource/General-Resource/Res_Toolkit_48_Light</title>
    <g id="Icon-Resource/General-Resource/Res_Toolkit_48" stroke="none" stroke-width="1" fill="none" fill-rule="evenodd">
        <path d="M32.438,34.203 L25.12,26.884 L26.957,25.047 L34.275,32.366 L32.438,34.203 Z M13.922,14.201 L14.273,13.85 L17.117,15.924 L15.996,17.045 L13.922,14.201 Z M27.664,22.926 C27.289,22.551 26.625,22.551 26.25,22.926 L25.331,23.845 L18.677,17.191 L19.357,16.512 C19.564,16.305 19.669,16.018 19.647,15.727 C19.625,15.435 19.475,15.169 19.239,14.997 L14.759,11.73 C14.362,11.441 13.812,11.483 13.463,11.831 L11.903,13.391 C11.554,13.74 11.511,14.29 11.802,14.687 L15.069,19.167 C15.241,19.403 15.507,19.553 15.799,19.575 C15.825,19.577 15.851,19.578 15.876,19.578 C16.141,19.578 16.395,19.474 16.584,19.285 L17.263,18.605 L23.917,25.259 L22.999,26.177 C22.608,26.567 22.608,27.2 22.999,27.591 L31.731,36.324 C31.918,36.512 32.172,36.617 32.438,36.617 C32.704,36.617 32.958,36.512 33.145,36.324 L36.396,33.073 C36.787,32.682 36.787,32.05 36.396,31.659 L27.664,22.926 Z M27.176,17.271 C26.874,15.72 27.359,14.077 28.492,12.944 C29.939,11.494 32.154,11.125 34,12.022 C34.29,12.164 34.495,12.437 34.548,12.756 C34.602,13.075 34.498,13.4 34.269,13.629 L32.786,15.112 L33.115,15.442 L34.596,13.961 C34.825,13.732 35.149,13.629 35.467,13.682 C35.786,13.734 36.059,13.937 36.201,14.227 C37.105,16.069 36.738,18.282 35.286,19.733 C34.133,20.886 32.517,21.364 30.953,21.05 L29.25,22.754 L27.836,21.34 L29.946,19.228 C30.214,18.959 30.613,18.867 30.976,18.989 C32.001,19.34 33.109,19.081 33.872,18.319 C34.315,17.876 34.584,17.311 34.666,16.72 L33.821,17.564 C33.633,17.752 33.379,17.857 33.114,17.857 L33.113,17.857 C32.847,17.857 32.593,17.752 32.406,17.563 L30.665,15.817 C30.275,15.427 30.275,14.794 30.666,14.404 L31.505,13.564 C30.913,13.646 30.348,13.916 29.906,14.358 C29.155,15.109 28.892,16.244 29.236,17.248 C29.359,17.609 29.266,18.01 28.997,18.279 L25.261,22.015 L23.847,20.6 L27.176,17.271 Z M22.828,29.18 L21.124,30.885 C21.425,32.438 20.938,34.082 19.8,35.213 C18.884,36.134 17.658,36.619 16.414,36.619 C15.696,36.619 14.971,36.458 14.296,36.126 C14.007,35.983 13.804,35.71 13.751,35.391 C13.699,35.073 13.802,34.749 14.031,34.521 L15.512,33.04 L15.185,32.713 L13.704,34.194 C13.475,34.423 13.147,34.524 12.834,34.474 C12.515,34.421 12.242,34.218 12.099,33.929 C11.193,32.088 11.561,29.875 13.014,28.423 C14.147,27.285 15.79,26.799 17.341,27.105 L20.674,23.773 L22.088,25.187 L18.348,28.927 C18.078,29.197 17.675,29.29 17.315,29.165 C16.312,28.817 15.179,29.08 14.43,29.835 C13.985,30.279 13.714,30.845 13.633,31.436 L14.478,30.592 C14.869,30.201 15.501,30.201 15.892,30.592 L17.633,32.333 C18.024,32.724 18.024,33.356 17.633,33.747 L16.787,34.594 C17.379,34.514 17.944,34.243 18.386,33.799 C19.143,33.046 19.408,31.913 19.064,30.907 C18.941,30.547 19.034,30.146 19.303,29.877 L21.414,27.766 L22.828,29.18 Z M41.243,34.008 L24.095,43.846 L7.003,33.915 L7.057,14.146 L24.204,4.308 L41.295,14.24 L41.243,34.008 Z M24.209,2 L5.061,12.986 L5,35.063 L24.089,46.154 L43.239,35.168 L43.299,13.092 L24.209,2 Z" id="Fill-19" fill="#232F3D"></path>
    </g>
</svg>