<?xml version="1.0" encoding="UTF-8"?>
<svg width="48px" height="48px" viewBox="0 0 48 48" version="1.1" xmlns="http://www.w3.org/2000/svg" xmlns:xlink="http://www.w3.org/1999/xlink">
    <title>Icon-Resource/General-Resource/Res_Traditional-server_48_Light</title>
    <g id="Icon-Resource/General-Resource/Res_Traditional-server_48" stroke="none" stroke-width="1" fill="none" fill-rule="evenodd">
        <path d="M15.437,21.52 L32.064,21.52 L32.064,19.52 L15.437,19.52 L15.437,21.52 Z M15.437,17.196 L32.064,17.196 L32.064,15.196 L15.437,15.196 L15.437,17.196 Z M15.437,12.762 L32.064,12.762 L32.064,10.762 L15.437,10.762 L15.437,12.762 Z M15.437,8.494 L32.064,8.494 L32.064,6.494 L15.437,6.494 L15.437,8.494 Z M13,44.013 L34.499,44.013 L34.499,4 L13,4 L13,44.013 Z M35.032,2 L12.468,2 C11.659,2 11,2.659 11,3.469 L11,44.545 C11,45.355 11.659,46.013 12.468,46.013 L35.032,46.013 C35.841,46.013 36.499,45.355 36.499,44.545 L36.499,3.469 C36.499,2.659 35.841,2 35.032,2 L35.032,2 Z" id="Fill-18" fill="#232F3D"></path>
    </g>
</svg>