<?xml version="1.0" encoding="UTF-8"?>
<svg width="48px" height="48px" viewBox="0 0 48 48" version="1.1" xmlns="http://www.w3.org/2000/svg" xmlns:xlink="http://www.w3.org/1999/xlink">
    <title>Icon-Resource/General-Resource/Res_Users_48_Light</title>
    <g id="Icon-Resource/General-Resource/Res_Users_48" stroke="none" stroke-width="1" fill="none" fill-rule="evenodd">
        <path d="M28.639,9.286 C28.639,6.371 31.052,4 34.019,4 C36.985,4 39.397,6.371 39.397,9.286 C39.397,12.201 36.985,14.572 34.019,14.572 C31.052,14.572 28.639,12.201 28.639,9.286 L28.639,9.286 Z M40.163,16.334 C39.516,15.932 38.833,15.6 38.128,15.333 C40.098,14.023 41.397,11.802 41.397,9.286 C41.397,5.269 38.087,2 34.019,2 C29.95,2 26.639,5.269 26.639,9.286 C26.639,11.796 27.932,14.014 29.895,15.325 C28.614,15.808 27.41,16.515 26.349,17.425 L27.652,18.943 C29.434,17.414 31.689,16.572 34,16.572 C35.802,16.572 37.569,17.077 39.109,18.033 C41.849,19.735 43.647,22.725 43.953,26 L34,26 L34,28 L45,28 C45.553,28 46,27.553 46,27 C46,22.657 43.764,18.57 40.163,16.334 L40.163,16.334 Z M8.639,9.286 C8.639,6.371 11.052,4 14.019,4 C16.985,4 19.397,6.371 19.397,9.286 C19.397,12.201 16.985,14.572 14.019,14.572 C11.052,14.572 8.639,12.201 8.639,9.286 L8.639,9.286 Z M14,26 L4.046,26 C4.53,20.717 8.81,16.572 14,16.572 C15.802,16.572 17.569,17.077 19.109,18.033 C19.541,18.302 19.958,18.608 20.349,18.943 L21.652,17.426 C21.184,17.024 20.684,16.657 20.163,16.334 C19.516,15.932 18.833,15.6 18.128,15.333 C20.098,14.023 21.397,11.802 21.397,9.286 C21.397,5.269 18.087,2 14.019,2 C9.95,2 6.639,5.269 6.639,9.286 C6.639,11.801 7.937,14.023 9.907,15.332 C5.302,17.071 2,21.638 2,27 C2,27.553 2.448,28 3,28 L14,28 L14,26 Z M14.046,44 C14.53,38.717 18.81,34.572 24,34.572 C25.802,34.572 27.569,35.077 29.109,36.033 C31.849,37.735 33.647,40.725 33.953,44 L14.046,44 Z M18.639,27.286 C18.639,24.371 21.052,22 24.019,22 C26.985,22 29.397,24.371 29.397,27.286 C29.397,30.201 26.985,32.572 24.019,32.572 C21.052,32.572 18.639,30.201 18.639,27.286 L18.639,27.286 Z M30.163,34.334 C29.516,33.932 28.833,33.6 28.128,33.333 C30.098,32.023 31.397,29.802 31.397,27.286 C31.397,23.269 28.087,20 24.019,20 C19.95,20 16.639,23.269 16.639,27.286 C16.639,29.801 17.937,32.023 19.907,33.332 C15.302,35.071 12,39.638 12,45 C12,45.553 12.448,46 13,46 L35,46 C35.553,46 36,45.553 36,45 C36,40.657 33.764,36.57 30.163,34.334 L30.163,34.334 Z" id="Fill-1" fill="#242F3E"></path>
    </g>
</svg>