<?xml version="1.0" encoding="UTF-8"?>
<svg width="64px" height="64px" viewBox="0 0 64 64" version="1.1" xmlns="http://www.w3.org/2000/svg" xmlns:xlink="http://www.w3.org/1999/xlink">
    <title>Icon-Architecture/48/Arch_Amazon-GameSparks_48</title>
    <defs>
        <linearGradient x1="0%" y1="100%" x2="100%" y2="0%" id="linearGradient-1">
            <stop stop-color="#4D27A8" offset="0%"></stop>
            <stop stop-color="#A166FF" offset="100%"></stop>
        </linearGradient>
    </defs>
    <g id="Icon-Architecture/48/Arch_Amazon-GameSparks_48" stroke="none" stroke-width="1" fill="none" fill-rule="evenodd">
        <g id="Rectangle" fill="url(#linearGradient-1)">
            <rect x="0" y="0" width="64" height="64"></rect>
        </g>
        <g id="Icon-Service/48/Amazon-GameSparks_48" transform="translate(8.000000, 8.000000)" fill="#FFFFFF">
            <path d="M38.5,31.999 C38.5,31.171 39.172,30.499 40,30.499 C40.828,30.499 41.5,31.171 41.5,31.999 C41.5,32.827 40.828,33.499 40,33.499 C39.172,33.499 38.5,32.827 38.5,31.999 L38.5,31.999 Z M22.999,32.999 L21.999,32.999 L21.999,30.999 L22.999,30.999 L22.999,29.999 L24.999,29.999 L24.999,30.999 L25.999,30.999 L25.999,32.999 L24.999,32.999 L24.999,33.999 L22.999,33.999 L22.999,32.999 Z M43.402,43.558 C43.11,43.854 42.703,43.999 42.157,43.999 C40.435,43.999 38.831,40.137 37.771,37.581 C37.768,37.575 37.765,37.569 37.762,37.562 C38.454,37.841 39.208,37.999 39.999,37.999 C41.537,37.999 42.937,37.413 44,36.458 L44,41.812 C44.006,42.122 43.91,43.04 43.402,43.558 L43.402,43.558 Z M21.842,43.999 C21.296,43.999 20.889,43.855 20.598,43.558 C20.09,43.04 19.994,42.122 20,41.787 L20,36.459 C21.062,37.413 22.462,37.999 23.999,37.999 C24.79,37.999 25.543,37.841 26.235,37.562 C26.232,37.569 26.229,37.576 26.227,37.583 C25.167,40.138 23.564,43.999 21.842,43.999 L21.842,43.999 Z M23.999,27.999 C26.205,27.999 27.999,29.793 27.999,31.999 C27.999,34.204 26.205,35.999 23.999,35.999 C21.793,35.999 19.999,34.204 19.999,31.999 C19.999,29.793 21.793,27.999 23.999,27.999 L23.999,27.999 Z M34.811,34.999 L29.187,34.999 C29.7,34.115 29.999,33.092 29.999,31.999 C29.999,30.905 29.7,29.883 29.187,28.999 L34.811,28.999 C34.298,29.883 33.999,30.905 33.999,31.999 C33.999,33.092 34.298,34.115 34.811,34.999 L34.811,34.999 Z M39.999,27.999 C42.205,27.999 43.999,29.793 43.999,31.999 C43.999,34.204 42.205,35.999 39.999,35.999 C37.793,35.999 35.999,34.204 35.999,31.999 C35.999,29.793 37.793,27.999 39.999,27.999 L39.999,27.999 Z M46,41.787 L45.999,31.999 C45.999,28.69 43.308,25.999 39.999,25.999 C38.776,25.999 37.639,26.368 36.689,26.999 L27.309,26.999 C26.359,26.368 25.222,25.999 23.999,25.999 C20.69,25.999 17.99893,28.69 17.99893,31.999 L18,41.756 C17.994,41.954 17.975,43.726 19.155,44.944 C19.824,45.634 20.754,45.999 21.842,45.999 C24.899,45.999 26.66,41.758 28.074,38.349 C28.273,37.87 28.462,37.414 28.644,36.999 L35.354,36.999 C35.535,37.413 35.725,37.87 35.924,38.348 C37.339,41.757 39.1,45.999 42.157,45.999 C43.245,45.999 44.175,45.634 44.844,44.944 C46.024,43.726 46.006,41.954 46,41.787 L46,41.787 Z M26,6.313 C26.444,6.981 27.019,7.555 27.687,8 C27.019,8.444 26.444,9.018 26,9.686 C25.556,9.018 24.981,8.444 24.313,8 C24.981,7.555 25.556,6.981 26,6.313 L26,6.313 Z M21,9 C23.206,9 25,10.794 25,13 C25,13.552 25.447,14 26,14 C26.553,14 27,13.552 27,13 C27,10.794 28.794,9 31,9 C31.553,9 32,8.552 32,8 C32,7.448 31.553,7 31,7 C28.794,7 27,5.205 27,3 C27,2.448 26.553,2 26,2 C25.447,2 25,2.448 25,3 C25,5.205 23.206,7 21,7 C20.447,7 20,7.448 20,8 C20,8.552 20.447,9 21,9 L21,9 Z M13.083,27.106 C11.931,24.402 9.868,22.203 7.351,21 C9.868,19.797 11.931,17.597 13.083,14.893 C14.235,17.597 16.298,19.797 18.816,21 C16.298,22.203 14.235,24.402 13.083,27.106 L13.083,27.106 Z M24.167,21 C24.167,20.448 23.72,20 23.167,20 C18.243,20 14.083,15.42 14.083,10 C14.083,9.448 13.636,9 13.083,9 C12.53,9 12.083,9.448 12.083,10 C12.083,15.42 7.924,20 3,20 C2.447,20 2,20.448 2,21 C2,21.552 2.447,22 3,22 C7.924,22 12.083,26.579 12.083,32 C12.083,32.552 12.53,33 13.083,33 C13.636,33 14.083,32.552 14.083,32 C14.083,26.579 18.243,22 23.167,22 C23.72,22 24.167,21.552 24.167,21 L24.167,21 Z M39,14.602 C39.591,15.583 40.417,16.408 41.397,17 C40.417,17.591 39.591,18.416 39,19.397 C38.409,18.416 37.583,17.591 36.603,17 C37.583,16.408 38.409,15.583 39,14.602 L39,14.602 Z M33,18 C35.757,18 38,20.243 38,23 C38,23.552 38.447,24 39,24 C39.553,24 40,23.552 40,23 C40,20.243 42.243,18 45,18 C45.553,18 46,17.552 46,17 C46,16.448 45.553,16 45,16 C42.243,16 40,13.757 40,11 C40,10.448 39.553,10 39,10 C38.447,10 38,10.448 38,11 C38,13.757 35.757,16 33,16 C32.447,16 32,16.448 32,17 C32,17.552 32.447,18 33,18 L33,18 Z" id="Fill-4"></path>
        </g>
    </g>
</svg>