<?xml version="1.0" encoding="UTF-8"?>
<svg width="48px" height="48px" viewBox="0 0 48 48" version="1.1" xmlns="http://www.w3.org/2000/svg" xmlns:xlink="http://www.w3.org/1999/xlink">
    <title>Icon-Resource/Database/Res_Amazon-Aurora_48_Light</title>
    <g id="Icon-Resource/Database/Res_Amazon-Aurora_48" stroke="none" stroke-width="1" fill="none" fill-rule="evenodd">
        <path d="M43.9538,41.606 L43.9538,38.889 C42.1608,39.827 39.5038,40.261 37.0878,40.261 C34.6548,40.261 32.0088,39.825 30.2218,38.889 L30.2218,41.606 C30.2218,42.413 32.8948,43.955 37.0878,43.955 C41.2798,43.955 43.9538,42.413 43.9538,41.606 L43.9538,41.606 Z M30.2218,24.415 C30.2218,25.03 32.5578,26.474 37.0878,26.474 C41.6178,26.474 43.9538,25.03 43.9538,24.415 C43.9538,23.799 41.6178,22.355 37.0878,22.355 C32.5578,22.355 30.2218,23.799 30.2218,24.415 L30.2218,24.415 Z M43.9538,27.07 C42.2428,27.995 39.6598,28.474 37.0878,28.474 C34.5158,28.474 31.9328,27.995 30.2218,27.07 L30.2218,30.332 C30.7598,31.147 33.3138,32.204 37.0878,32.204 C40.5868,32.204 43.2218,31.273 43.9228,30.398 C43.9358,30.381 43.9418,30.366 43.9538,30.35 L43.9538,27.07 Z M30.2218,36.389 C30.7578,37.206 33.3108,38.261 37.0878,38.261 C40.9878,38.261 43.4258,37.176 43.9538,36.394 L43.9538,32.819 C42.3158,33.682 39.8538,34.204 37.0878,34.204 C34.6568,34.204 32.0098,33.767 30.2218,32.832 L30.2218,36.389 Z M45.9458,24.341 L45.9538,24.341 L45.9538,41.606 C45.9538,44.044 42.0588,45.955 37.0878,45.955 C32.1158,45.955 28.2218,44.044 28.2218,41.606 L28.2218,24.341 L28.2288,24.341 C28.3128,21.725 32.7238,20.355 37.0878,20.355 C41.4518,20.355 45.8628,21.725 45.9458,24.341 L45.9458,24.341 Z M27.4208,18.695 C27.2998,18.656 27.1548,18.637 26.9888,18.637 C26.8298,18.637 26.7068,18.688 26.6218,18.79 C26.5358,18.893 26.4928,19.041 26.4928,19.235 C26.4928,19.4 26.5268,19.532 26.5968,19.629 C26.6658,19.726 26.7578,19.774 26.8738,19.774 C27.0558,19.774 27.2378,19.686 27.4208,19.509 L27.4208,18.695 Z M28.4638,20.463 L27.5868,20.463 L27.4868,20.082 C27.3928,20.225 27.2578,20.343 27.0818,20.434 C26.9038,20.525 26.7248,20.572 26.5428,20.572 C26.1998,20.572 25.9308,20.459 25.7308,20.235 C25.5318,20.011 25.4328,19.703 25.4328,19.309 C25.4328,18.894 25.5548,18.566 25.7978,18.325 C26.0398,18.085 26.3688,17.964 26.7828,17.964 C26.9538,17.964 27.1668,17.997 27.4208,18.064 L27.4208,17.681 C27.4208,17.394 27.3828,17.199 27.3078,17.097 C27.2348,16.994 27.0958,16.943 26.8908,16.943 C26.5578,16.943 26.1528,17.031 25.6738,17.209 L25.6738,16.453 C25.8338,16.348 26.0428,16.265 26.3028,16.204 C26.5618,16.143 26.8268,16.112 27.0978,16.112 C27.5778,16.112 27.9258,16.222 28.1408,16.44 C28.3558,16.659 28.4638,17.009 28.4638,17.491 L28.4638,20.463 Z M23.8838,17.366 C24.1218,17.233 24.3728,17.167 24.6388,17.167 C24.7758,17.167 24.9228,17.18 25.0768,17.209 L25.0768,16.204 C24.9878,16.187 24.8998,16.179 24.8118,16.179 C24.6298,16.179 24.4568,16.226 24.2938,16.32 C24.1308,16.414 23.9678,16.563 23.8018,16.768 L23.6768,16.22 L22.7498,16.22 L22.7498,20.463 L23.8838,20.463 L23.8838,17.366 Z M19.6608,18.346 C19.6608,18.817 19.7058,19.162 19.7978,19.38 C19.8878,19.599 20.0358,19.708 20.2398,19.708 C20.4438,19.708 20.5928,19.599 20.6828,19.38 C20.7748,19.162 20.8198,18.817 20.8198,18.346 C20.8198,17.875 20.7748,17.529 20.6828,17.308 C20.5928,17.086 20.4438,16.976 20.2398,16.976 C20.0358,16.976 19.8878,17.086 19.7978,17.308 C19.7058,17.529 19.6608,17.875 19.6608,18.346 L19.6608,18.346 Z M18.9738,19.99 C18.6758,19.603 18.5248,19.055 18.5248,18.346 C18.5248,17.632 18.6758,17.082 18.9738,16.694 C19.2708,16.306 19.6938,16.112 20.2398,16.112 C20.7868,16.112 21.2088,16.306 21.5068,16.694 C21.8048,17.082 21.9548,17.632 21.9548,18.346 C21.9548,19.055 21.8048,19.603 21.5068,19.99 C21.2088,20.378 20.7868,20.572 20.2398,20.572 C19.6938,20.572 19.2708,20.378 18.9738,19.99 L18.9738,19.99 Z M17.0018,17.366 C17.2398,17.233 17.4898,17.167 17.7558,17.167 C17.8938,17.167 18.0408,17.18 18.1948,17.209 L18.1948,16.204 C18.1068,16.187 18.0178,16.179 17.9298,16.179 C17.7478,16.179 17.5758,16.226 17.4118,16.32 C17.2498,16.414 17.0848,16.563 16.9198,16.768 L16.7958,16.22 L15.8678,16.22 L15.8678,20.463 L17.0018,20.463 L17.0018,17.366 Z M11.7018,16.22 L11.7018,19.309 C11.7018,19.719 11.7818,20.031 11.9418,20.247 C12.1018,20.463 12.3368,20.572 12.6458,20.572 C13.0378,20.572 13.4468,20.408 13.8718,20.082 L13.9628,20.463 L14.8908,20.463 L14.8908,16.22 L13.7568,16.22 L13.7568,19.517 C13.5738,19.645 13.3998,19.708 13.2338,19.708 C13.0908,19.708 12.9888,19.65 12.9278,19.534 C12.8678,19.418 12.8368,19.224 12.8368,18.952 L12.8368,16.22 L11.7018,16.22 Z M9.4328,18.263 L8.9108,15.879 L8.4058,18.263 L9.4328,18.263 Z M9.5988,14.71 L11.1808,20.463 L9.9048,20.463 L9.6068,19.093 L8.2318,19.093 L7.9418,20.463 L6.7248,20.463 L8.3148,14.71 L9.5988,14.71 Z M32.4888,12.16 L32.4888,9.046 C32.4888,8.642 32.4048,8.335 32.2368,8.124 C32.0678,7.914 31.8228,7.809 31.5038,7.809 C31.0998,7.809 30.6788,7.972 30.2358,8.299 L30.1448,7.917 L29.2188,7.917 L29.2188,12.16 L30.3518,12.16 L30.3518,8.872 C30.5568,8.738 30.7438,8.672 30.9158,8.672 C31.0758,8.672 31.1878,8.728 31.2548,8.838 C31.3208,8.949 31.3548,9.126 31.3548,9.37 L31.3548,12.16 L32.4888,12.16 Z M26.1278,10.043 C26.1278,10.513 26.1738,10.858 26.2658,11.077 C26.3558,11.295 26.5048,11.404 26.7088,11.404 C26.9128,11.404 27.0598,11.295 27.1508,11.077 C27.2418,10.858 27.2878,10.513 27.2878,10.043 C27.2878,9.572 27.2418,9.226 27.1508,9.005 C27.0598,8.783 26.9128,8.672 26.7088,8.672 C26.5048,8.672 26.3558,8.783 26.2658,9.005 C26.1738,9.226 26.1278,9.572 26.1278,10.043 L26.1278,10.043 Z M25.4408,11.687 C25.1428,11.299 24.9938,10.752 24.9938,10.043 C24.9938,9.328 25.1428,8.778 25.4408,8.39 C25.7398,8.002 26.1618,7.809 26.7088,7.809 C27.2548,7.809 27.6778,8.002 27.9748,8.39 C28.2728,8.778 28.4228,9.328 28.4228,10.043 C28.4228,10.752 28.2728,11.299 27.9748,11.687 C27.6778,12.074 27.2548,12.268 26.7088,12.268 C26.1618,12.268 25.7398,12.074 25.4408,11.687 L25.4408,11.687 Z M24.4798,11.288 L22.7328,11.288 L24.4468,8.722 L24.4468,7.917 L21.6068,7.917 L21.6068,8.789 L23.2558,8.789 L21.5408,11.355 L21.5408,12.16 L24.4798,12.16 L24.4798,11.288 Z M18.8908,10.931 C18.8908,11.097 18.9248,11.229 18.9938,11.326 C19.0628,11.422 19.1558,11.471 19.2708,11.471 C19.4538,11.471 19.6358,11.382 19.8178,11.206 L19.8178,10.391 C19.6968,10.353 19.5538,10.333 19.3878,10.333 C19.2268,10.333 19.1038,10.384 19.0188,10.487 C18.9328,10.589 18.8908,10.738 18.8908,10.931 L18.8908,10.931 Z M18.9398,12.268 C18.5988,12.268 18.3278,12.155 18.1288,11.932 C17.9298,11.707 17.8308,11.399 17.8308,11.005 C17.8308,10.591 17.9518,10.262 18.1948,10.022 C18.4378,9.781 18.7668,9.66 19.1818,9.66 C19.3508,9.66 19.5638,9.694 19.8178,9.76 L19.8178,9.378 C19.8178,9.09 19.7798,8.896 19.7068,8.793 C19.6328,8.691 19.4928,8.64 19.2888,8.64 C18.9568,8.64 18.5518,8.728 18.0708,8.905 L18.0708,8.149 C18.2308,8.044 18.4398,7.961 18.6998,7.9 C18.9598,7.839 19.2248,7.809 19.4948,7.809 C19.9748,7.809 20.3238,7.918 20.5378,8.137 C20.7548,8.355 20.8618,8.705 20.8618,9.188 L20.8618,12.16 L19.9838,12.16 L19.8848,11.778 C19.7908,11.921 19.6548,12.039 19.4788,12.13 C19.3018,12.222 19.1228,12.268 18.9398,12.268 L18.9398,12.268 Z M15.7978,8.838 C15.8608,8.949 15.8928,9.124 15.8928,9.362 L15.8928,12.16 L17.0268,12.16 L17.0268,9.046 C17.0268,8.647 16.9448,8.341 16.7788,8.128 C16.6128,7.916 16.3758,7.809 16.0668,7.809 C15.6808,7.809 15.2598,7.978 14.8078,8.315 C14.6478,7.978 14.3708,7.809 13.9788,7.809 C13.5938,7.809 13.1798,7.972 12.7368,8.299 L12.6458,7.917 L11.7188,7.917 L11.7188,12.16 L12.8528,12.16 L12.8528,8.872 C13.0578,8.738 13.2368,8.672 13.3918,8.672 C13.5398,8.672 13.6468,8.728 13.7108,8.838 C13.7728,8.949 13.8058,9.124 13.8058,9.362 L13.8058,12.16 L14.9398,12.16 L14.9398,9.063 L14.9398,8.963 C14.9398,8.93 14.9378,8.899 14.9328,8.872 C15.1368,8.738 15.3188,8.672 15.4778,8.672 C15.6278,8.672 15.7338,8.728 15.7978,8.838 L15.7978,8.838 Z M9.4328,9.959 L8.9108,7.576 L8.4058,9.959 L9.4328,9.959 Z M11.1808,12.16 L9.9048,12.16 L9.6068,10.79 L8.2318,10.79 L7.9418,12.16 L6.7248,12.16 L8.3148,6.406 L9.5988,6.406 L11.1808,12.16 Z M45.9538,7.762 L45.9538,20.481 L43.9538,20.481 L43.9538,7.762 C43.9538,5.688 42.2668,4 40.1918,4 L7.7618,4 C5.6868,4 3.9998,5.688 3.9998,7.762 L3.9998,40.193 C3.9998,42.267 5.6868,43.955 7.7618,43.955 L27.4738,43.955 L27.4738,45.955 L7.7618,45.955 C4.5848,45.955 1.9998,43.37 1.9998,40.193 L1.9998,7.762 C1.9998,4.585 4.5848,2 7.7618,2 L40.1918,2 C43.3688,2 45.9538,4.585 45.9538,7.762 L45.9538,7.762 Z" id="Amazon-Aurora_Resource-Icon_light-bg" fill="#2E27AD"></path>
    </g>
</svg>