<?xml version="1.0" encoding="UTF-8"?>
<svg width="48px" height="48px" viewBox="0 0 48 48" version="1.1" xmlns="http://www.w3.org/2000/svg" xmlns:xlink="http://www.w3.org/1999/xlink">
    <title>Icon-Resource/Database/Res_Amazon-Aurora-PostgreSQL-Instance-Alternate_48_Light</title>
    <g id="Icon-Resource/Database/Res_Amazon-Aurora-PostgreSQL-Instance-Alternate_48" stroke="none" stroke-width="1" fill="none" fill-rule="evenodd">
        <path d="M43.908,39.814 C43.908,42.072 42.071,43.909 39.814,43.909 L8.094,43.909 C5.837,43.909 4,42.072 4,39.814 L4,8.094 C4,5.836 5.837,4 8.094,4 L39.814,4 C42.071,4 43.908,5.836 43.908,8.094 L43.908,39.814 Z M39.814,2 L8.094,2 C4.733,2 2,4.734 2,8.094 L2,39.814 C2,43.174 4.733,45.909 8.094,45.909 L39.814,45.909 C43.175,45.909 45.908,43.174 45.908,39.814 L45.908,8.094 C45.908,4.734 43.175,2 39.814,2 L39.814,2 Z M40.953,14.516 L43.153,14.516 L43.153,15.223 L40.105,15.223 L40.105,9.172 L40.953,9.172 L40.953,14.516 Z M36.648,14.638 C36.177,14.638 35.822,14.433 35.584,14.022 C35.345,13.612 35.225,13.005 35.225,12.202 C35.225,11.399 35.345,10.793 35.584,10.386 C35.822,9.979 36.177,9.775 36.648,9.775 C37.12,9.775 37.475,9.979 37.714,10.386 C37.952,10.793 38.071,11.399 38.071,12.202 C38.071,13.005 37.952,13.612 37.714,14.022 C37.475,14.433 37.12,14.638 36.648,14.638 L36.648,14.638 Z M38.516,14.232 C38.796,13.706 38.936,13.029 38.936,12.202 C38.936,11.207 38.735,10.434 38.334,9.883 C37.932,9.334 37.37,9.059 36.648,9.059 C35.927,9.059 35.365,9.334 34.963,9.883 C34.561,10.434 34.361,11.207 34.361,12.202 C34.361,12.836 34.444,13.386 34.609,13.852 C34.775,14.318 35.021,14.679 35.347,14.935 C35.674,15.191 36.066,15.331 36.526,15.354 C36.858,15.715 37.221,16.002 37.617,16.218 C38.013,16.434 38.432,16.571 38.875,16.628 L38.875,15.886 C38.572,15.852 38.296,15.785 38.046,15.686 C37.795,15.586 37.554,15.444 37.32,15.258 C37.839,15.101 38.237,14.758 38.516,14.232 L38.516,14.232 Z M33.265,12.647 C33.443,12.91 33.531,13.223 33.531,13.59 C33.531,14.12 33.366,14.546 33.034,14.87 C32.702,15.192 32.26,15.354 31.707,15.354 C31.438,15.354 31.181,15.324 30.934,15.262 C30.686,15.202 30.472,15.113 30.293,14.997 L30.293,14.324 C30.769,14.528 31.232,14.629 31.68,14.629 C31.989,14.629 32.232,14.543 32.409,14.368 C32.587,14.193 32.676,13.952 32.676,13.643 C32.676,13.223 32.443,12.895 31.977,12.656 L31.357,12.342 C30.968,12.144 30.685,11.917 30.511,11.661 C30.336,11.405 30.249,11.09 30.249,10.717 C30.249,10.223 30.403,9.823 30.712,9.517 C31.019,9.211 31.425,9.059 31.926,9.059 C32.315,9.059 32.752,9.164 33.235,9.374 L33.235,10.054 C32.839,9.874 32.423,9.784 31.986,9.784 C31.713,9.784 31.496,9.864 31.336,10.024 C31.176,10.184 31.095,10.401 31.095,10.674 C31.095,10.889 31.151,11.073 31.262,11.224 C31.372,11.376 31.555,11.518 31.811,11.652 L32.431,11.966 C32.809,12.159 33.088,12.385 33.265,12.647 L33.265,12.647 Z M28.707,12.516 C28.704,12.557 28.703,12.595 28.703,12.629 L27.132,12.629 C27.149,12.193 27.232,11.863 27.381,11.639 C27.529,11.416 27.737,11.302 28.005,11.302 C28.243,11.302 28.421,11.392 28.537,11.569 C28.653,11.747 28.712,12.022 28.712,12.394 C28.712,12.435 28.711,12.476 28.707,12.516 L28.707,12.516 Z M28.04,10.674 C27.498,10.674 27.082,10.875 26.791,11.277 C26.5,11.678 26.354,12.254 26.354,13.005 C26.354,13.791 26.5,14.376 26.791,14.76 C27.082,15.145 27.524,15.336 28.118,15.336 C28.59,15.336 29.003,15.226 29.358,15.004 L29.358,14.403 C28.956,14.583 28.59,14.673 28.258,14.673 C27.868,14.673 27.584,14.557 27.407,14.324 C27.228,14.091 27.137,13.712 27.132,13.189 L29.367,13.189 C29.413,12.967 29.436,12.726 29.436,12.463 C29.436,11.876 29.318,11.431 29.083,11.128 C28.847,10.826 28.499,10.674 28.04,10.674 L28.04,10.674 Z M25.69,10.761 C25.784,10.761 25.877,10.77 25.971,10.788 L25.971,11.547 C25.807,11.524 25.677,11.512 25.577,11.512 C25.246,11.512 24.943,11.621 24.669,11.835 L24.669,15.223 L23.848,15.223 L23.848,10.796 L24.53,10.796 L24.608,11.329 C24.765,11.131 24.929,10.987 25.101,10.897 C25.273,10.807 25.47,10.761 25.69,10.761 L25.69,10.761 Z M21.867,14.131 C21.599,14.353 21.346,14.463 21.107,14.463 C20.816,14.463 20.6,14.336 20.462,14.084 C20.322,13.831 20.252,13.442 20.252,12.918 C20.252,12.382 20.317,11.988 20.448,11.735 C20.579,11.482 20.785,11.355 21.064,11.355 C21.326,11.355 21.594,11.46 21.867,11.669 L21.867,14.131 Z M21.937,11.154 C21.599,10.84 21.247,10.683 20.881,10.683 C20.438,10.683 20.086,10.886 19.824,11.294 C19.562,11.702 19.431,12.252 19.431,12.944 C19.431,13.381 19.488,13.764 19.601,14.092 C19.715,14.421 19.879,14.677 20.095,14.861 C20.31,15.043 20.566,15.135 20.863,15.135 C21.212,15.135 21.547,14.987 21.867,14.691 L21.867,15.013 C21.867,15.526 21.791,15.892 21.64,16.114 C21.488,16.335 21.232,16.445 20.872,16.445 C20.54,16.445 20.156,16.355 19.72,16.174 L19.72,16.803 C20.092,17.019 20.499,17.127 20.941,17.127 C22.099,17.127 22.679,16.408 22.679,14.969 L22.679,10.796 L21.998,10.796 L21.937,11.154 Z M18.304,14.603 C18.485,14.603 18.663,14.574 18.838,14.516 L18.838,15.118 C18.587,15.223 18.322,15.276 18.043,15.276 C17.681,15.276 17.416,15.176 17.244,14.979 C17.072,14.781 16.986,14.475 16.986,14.062 L16.986,11.46 L16.367,11.46 L16.367,10.918 L17.021,10.814 L17.143,9.556 L17.807,9.556 L17.807,10.796 L18.82,10.796 L18.82,11.46 L17.807,11.46 L17.807,14.001 C17.807,14.222 17.844,14.377 17.917,14.467 C17.989,14.558 18.118,14.603 18.304,14.603 L18.304,14.603 Z M15.882,13.311 C16.008,13.498 16.069,13.727 16.069,14.001 C16.069,14.403 15.944,14.725 15.694,14.969 C15.444,15.214 15.109,15.336 14.69,15.336 C14.242,15.336 13.835,15.229 13.468,15.013 L13.468,14.419 C13.922,14.6 14.315,14.691 14.646,14.691 C14.862,14.691 15.029,14.633 15.148,14.52 C15.267,14.407 15.328,14.245 15.328,14.036 C15.328,13.786 15.168,13.582 14.847,13.424 L14.28,13.145 C13.756,12.889 13.494,12.487 13.494,11.94 C13.494,11.568 13.616,11.265 13.861,11.033 C14.105,10.799 14.423,10.683 14.812,10.683 C15.179,10.683 15.531,10.776 15.869,10.962 L15.869,11.556 C15.549,11.405 15.22,11.329 14.883,11.329 C14.684,11.329 14.527,11.381 14.411,11.487 C14.295,11.59 14.236,11.734 14.236,11.914 C14.236,12.06 14.275,12.182 14.354,12.281 C14.432,12.379 14.565,12.476 14.752,12.569 L15.284,12.831 C15.557,12.964 15.757,13.125 15.882,13.311 L15.882,13.311 Z M11.765,14.267 C11.62,14.538 11.395,14.673 11.094,14.673 C10.791,14.673 10.566,14.538 10.421,14.267 C10.275,13.997 10.203,13.576 10.203,13.005 C10.203,12.435 10.275,12.016 10.421,11.749 C10.566,11.48 10.791,11.346 11.094,11.346 C11.395,11.346 11.62,11.48 11.765,11.749 C11.911,12.016 11.983,12.435 11.983,13.005 C11.983,13.576 11.911,13.997 11.765,14.267 L11.765,14.267 Z M11.094,10.683 C10.54,10.683 10.117,10.883 9.823,11.286 C9.529,11.687 9.382,12.26 9.382,13.005 C9.382,13.756 9.529,14.333 9.823,14.734 C10.117,15.135 10.54,15.336 11.094,15.336 C11.646,15.336 12.069,15.135 12.363,14.734 C12.657,14.333 12.804,13.756 12.804,13.005 C12.804,12.26 12.657,11.687 12.363,11.286 C12.069,10.883 11.646,10.683 11.094,10.683 L11.094,10.683 Z M7.632,11.888 C7.477,12.097 7.263,12.202 6.99,12.202 L6.125,12.202 L6.125,9.844 L6.99,9.844 C7.263,9.844 7.477,9.948 7.632,10.155 C7.786,10.361 7.863,10.651 7.863,11.023 C7.863,11.39 7.786,11.678 7.632,11.888 L7.632,11.888 Z M7.937,9.408 C7.689,9.252 7.403,9.172 7.077,9.172 L5.304,9.172 L5.304,15.223 L6.125,15.223 L6.125,12.875 L7.077,12.875 C7.56,12.875 7.952,12.706 8.251,12.368 C8.551,12.03 8.701,11.583 8.701,11.023 C8.701,10.663 8.636,10.342 8.505,10.063 C8.374,9.784 8.184,9.565 7.937,9.408 L7.937,9.408 Z" id="Amazon-DATABASEAmazon-Aurora-PostgreSQL-instance-alternate_Resource-Icon_light-bg" fill="#2E27AD"></path>
    </g>
</svg>