<?xml version="1.0" encoding="UTF-8"?>
<svg width="48px" height="48px" viewBox="0 0 48 48" version="1.1" xmlns="http://www.w3.org/2000/svg" xmlns:xlink="http://www.w3.org/1999/xlink">
    <title>Icon-Resource/Database/Res_Amazon-Aurora_Amazon-Aurora-Instance_48_Light</title>
    <g id="Icon-Resource/Database/Res_Amazon-Aurora_Amazon-Aurora-Instance_48" stroke="none" stroke-width="1" fill="none" fill-rule="evenodd">
        <path d="M34.2512,25.9737 C34.0112,26.2057 33.7712,26.3237 33.5302,26.3237 C33.3782,26.3237 33.2552,26.2587 33.1652,26.1317 C33.0732,26.0047 33.0282,25.8317 33.0282,25.6137 C33.0282,25.3587 33.0852,25.1637 33.1972,25.0297 C33.3102,24.8947 33.4722,24.8277 33.6842,24.8277 C33.9012,24.8277 34.0912,24.8527 34.2512,24.9047 L34.2512,25.9737 Z M33.8252,21.5097 C33.4692,21.5097 33.1192,21.5497 32.7782,21.6297 C32.4362,21.7097 32.1592,21.8197 31.9472,21.9567 L31.9472,22.9517 C32.5812,22.7177 33.1152,22.6017 33.5522,22.6017 C33.8212,22.6017 34.0062,22.6687 34.1032,22.8037 C34.2022,22.9387 34.2512,23.1947 34.2512,23.5727 L34.2512,24.0747 C33.9162,23.9877 33.6362,23.9437 33.4102,23.9437 C32.8652,23.9437 32.4322,24.1017 32.1112,24.4177 C31.7912,24.7347 31.6322,25.1657 31.6322,25.7117 C31.6322,26.2287 31.7632,26.6337 32.0242,26.9287 C32.2872,27.2237 32.6442,27.3707 33.0942,27.3707 C33.3342,27.3707 33.5712,27.3107 33.8032,27.1907 C34.0362,27.0707 34.2142,26.9157 34.3382,26.7267 L34.4702,27.2287 L35.6262,27.2287 L35.6262,23.3217 C35.6262,22.6887 35.4842,22.2287 35.2002,21.9417 C34.9162,21.6547 34.4582,21.5097 33.8252,21.5097 L33.8252,21.5097 Z M30.8132,21.5967 C30.9302,21.5967 31.0452,21.6087 31.1622,21.6297 L31.1622,22.9517 C30.9582,22.9137 30.7662,22.8967 30.5832,22.8967 C30.2342,22.8967 29.9022,22.9837 29.5912,23.1587 L29.5912,27.2287 L28.0952,27.2287 L28.0952,21.6517 L29.3172,21.6517 L29.4812,22.3717 C29.7002,22.1037 29.9162,21.9067 30.1312,21.7827 C30.3462,21.6597 30.5732,21.5967 30.8132,21.5967 L30.8132,21.5967 Z M25.3732,25.8047 C25.2532,26.0917 25.0582,26.2357 24.7892,26.2357 C24.5202,26.2357 24.3252,26.0917 24.2052,25.8047 C24.0842,25.5177 24.0242,25.0647 24.0242,24.4457 C24.0242,23.8277 24.0842,23.3727 24.2052,23.0807 C24.3252,22.7897 24.5202,22.6447 24.7892,22.6447 C25.0582,22.6447 25.2532,22.7897 25.3732,23.0807 C25.4932,23.3727 25.5532,23.8277 25.5532,24.4457 C25.5532,25.0647 25.4932,25.5177 25.3732,25.8047 L25.3732,25.8047 Z M24.7892,21.5097 C24.0692,21.5097 23.5122,21.7647 23.1192,22.2737 C22.7272,22.7837 22.5292,23.5067 22.5292,24.4457 C22.5292,25.3767 22.7272,26.0967 23.1192,26.6067 C23.5122,27.1167 24.0692,27.3707 24.7892,27.3707 C25.5092,27.3707 26.0652,27.1167 26.4582,26.6067 C26.8522,26.0967 27.0482,25.3767 27.0482,24.4457 C27.0482,23.5067 26.8522,22.7837 26.4582,22.2737 C26.0652,21.7647 25.5092,21.5097 24.7892,21.5097 L24.7892,21.5097 Z M21.7442,21.5967 C21.8602,21.5967 21.9772,21.6087 22.0932,21.6297 L22.0932,22.9517 C21.8902,22.9137 21.6972,22.8967 21.5152,22.8967 C21.1652,22.8967 20.8342,22.9837 20.5222,23.1587 L20.5222,27.2287 L19.0262,27.2287 L19.0262,21.6517 L20.2492,21.6517 L20.4132,22.3717 C20.6312,22.1037 20.8472,21.9067 21.0622,21.7827 C21.2752,21.6597 21.5042,21.5967 21.7442,21.5967 L21.7442,21.5967 Z M16.2432,21.6517 L17.7392,21.6517 L17.7392,27.2287 L16.5172,27.2287 L16.3972,26.7267 C15.8362,27.1567 15.2972,27.3707 14.7812,27.3707 C14.3742,27.3707 14.0642,27.2287 13.8542,26.9447 C13.6432,26.6607 13.5372,26.2507 13.5372,25.7117 L13.5372,21.6517 L15.0322,21.6517 L15.0322,25.2437 C15.0322,25.5987 15.0722,25.8537 15.1522,26.0067 C15.2322,26.1597 15.3672,26.2357 15.5572,26.2357 C15.7742,26.2357 16.0032,26.1517 16.2432,25.9847 L16.2432,21.6517 Z M9.1932,24.3357 L9.8592,21.2037 L10.5462,24.3357 L9.1932,24.3357 Z M9.0732,19.6657 L6.9782,27.2287 L8.5822,27.2287 L8.9642,25.4277 L10.7752,25.4277 L11.1692,27.2287 L12.8502,27.2287 L10.7652,19.6657 L9.0732,19.6657 Z M40.5982,10.5747 C40.8192,10.8507 40.9302,11.2537 40.9302,11.7857 L40.9302,15.8777 L39.4362,15.8777 L39.4362,12.2107 C39.4362,11.8917 39.3912,11.6587 39.3042,11.5127 C39.2172,11.3677 39.0662,11.2937 38.8562,11.2937 C38.6302,11.2937 38.3832,11.3817 38.1142,11.5557 L38.1142,15.8777 L36.6192,15.8777 L36.6192,10.3007 L37.8422,10.3007 L37.9622,10.8037 C38.5432,10.3737 39.1012,10.1597 39.6312,10.1597 C40.0542,10.1597 40.3752,10.2977 40.5982,10.5747 L40.5982,10.5747 Z M32.7292,11.7317 C32.8482,11.4407 33.0432,11.2937 33.3122,11.2937 C33.5812,11.2937 33.7752,11.4407 33.8972,11.7317 C34.0162,12.0227 34.0752,12.4777 34.0752,13.0947 C34.0752,13.7137 34.0162,14.1667 33.8972,14.4537 C33.7752,14.7417 33.5812,14.8847 33.3122,14.8847 C33.0432,14.8847 32.8482,14.7417 32.7292,14.4537 C32.6082,14.1667 32.5482,13.7137 32.5482,13.0947 C32.5482,12.4777 32.6082,12.0227 32.7292,11.7317 L32.7292,11.7317 Z M33.3122,16.0207 C34.0332,16.0207 34.5892,15.7657 34.9812,15.2567 C35.3752,14.7467 35.5712,14.0277 35.5712,13.0947 C35.5712,12.1567 35.3752,11.4327 34.9812,10.9237 C34.5892,10.4137 34.0332,10.1597 33.3122,10.1597 C32.5922,10.1597 32.0352,10.4137 31.6432,10.9237 C31.2502,11.4327 31.0532,12.1567 31.0532,13.0947 C31.0532,14.0277 31.2502,14.7467 31.6432,15.2567 C32.0352,15.7657 32.5922,16.0207 33.3122,16.0207 L33.3122,16.0207 Z M30.3772,15.8777 L26.5032,15.8777 L26.5032,14.8207 L28.7612,11.4477 L26.5902,11.4477 L26.5902,10.3007 L30.3322,10.3007 L30.3322,11.3607 L28.0732,14.7327 L30.3772,14.7327 L30.3772,15.8777 Z M24.2322,14.6227 C23.9922,14.8557 23.7522,14.9727 23.5122,14.9727 C23.3592,14.9727 23.2372,14.9097 23.1472,14.7817 C23.0562,14.6547 23.0102,14.4817 23.0102,14.2637 C23.0102,14.0087 23.0662,13.8137 23.1792,13.6797 C23.2912,13.5447 23.4532,13.4777 23.6652,13.4777 C23.8832,13.4777 24.0722,13.5027 24.2322,13.5537 L24.2322,14.6227 Z M23.3922,12.5927 C22.8472,12.5927 22.4132,12.7517 22.0932,13.0677 C21.7722,13.3837 21.6132,13.8157 21.6132,14.3617 C21.6132,14.8777 21.7442,15.2847 22.0062,15.5777 C22.2692,15.8727 22.6252,16.0207 23.0752,16.0207 C23.3152,16.0207 23.5532,15.9597 23.7842,15.8397 C24.0182,15.7207 24.1952,15.5657 24.3192,15.3757 L24.4512,15.8777 L25.6072,15.8777 L25.6072,11.9707 C25.6072,11.3377 25.4662,10.8777 25.1822,10.5907 C24.8972,10.3037 24.4392,10.1597 23.8072,10.1597 C23.4502,10.1597 23.1012,10.1997 22.7602,10.2797 C22.4172,10.3597 22.1412,10.4687 21.9292,10.6067 L21.9292,11.6007 C22.5632,11.3677 23.0972,11.2507 23.5332,11.2507 C23.8032,11.2507 23.9872,11.3187 24.0842,11.4527 C24.1842,11.5867 24.2322,11.8437 24.2322,12.2217 L24.2322,12.7247 C23.8972,12.6377 23.6172,12.5927 23.3922,12.5927 L23.3922,12.5927 Z M19.0592,12.2007 C19.0592,11.8877 19.0182,11.6587 18.9342,11.5127 C18.8502,11.3677 18.7102,11.2937 18.5142,11.2937 C18.3032,11.2937 18.0632,11.3817 17.7942,11.5557 C17.8012,11.5927 17.8042,11.6327 17.8042,11.6767 L17.8042,11.8077 L17.8042,15.8777 L16.3102,15.8777 L16.3102,12.2007 C16.3102,11.8877 16.2682,11.6587 16.1842,11.5127 C16.1012,11.3677 15.9602,11.2937 15.7642,11.2937 C15.5602,11.2937 15.3222,11.3817 15.0542,11.5557 L15.0542,15.8777 L13.5592,15.8777 L13.5592,10.3007 L14.7812,10.3007 L14.9012,10.8037 C15.4832,10.3737 16.0282,10.1597 16.5382,10.1597 C17.0562,10.1597 17.4192,10.3807 17.6302,10.8257 C18.2262,10.3807 18.7792,10.1597 19.2882,10.1597 C19.6962,10.1597 20.0092,10.2997 20.2272,10.5787 C20.4452,10.8597 20.5552,11.2617 20.5552,11.7857 L20.5552,15.8777 L19.0592,15.8777 L19.0592,12.2007 Z M9.1932,12.9867 L9.8592,9.8537 L10.5462,12.9867 L9.1932,12.9867 Z M9.0732,8.3147 L6.9782,15.8777 L8.5822,15.8777 L8.9642,14.0777 L10.7752,14.0777 L11.1692,15.8777 L12.8502,15.8777 L10.7652,8.3147 L9.0732,8.3147 Z M43.9082,39.4607 C43.9082,41.9137 41.9132,43.9097 39.4612,43.9097 L8.4472,43.9097 C5.9952,43.9097 4.0002,41.9137 4.0002,39.4607 L4.0002,8.4487 C4.0002,5.9947 5.9952,3.9997 8.4472,3.9997 L39.4612,3.9997 C41.9132,3.9997 43.9082,5.9947 43.9082,8.4487 L43.9082,39.4607 Z M39.4612,1.9997 L8.4472,1.9997 C4.8932,1.9997 2.0002,4.8927 2.0002,8.4487 L2.0002,39.4607 C2.0002,43.0167 4.8932,45.9097 8.4472,45.9097 L39.4612,45.9097 C43.0162,45.9097 45.9082,43.0167 45.9082,39.4607 L45.9082,8.4487 C45.9082,4.8927 43.0162,1.9997 39.4612,1.9997 L39.4612,1.9997 Z" id="Amazon-DATABASEAmazon--Aurora-Amazon-Aurora-instance_Resource-Icon_light-bg" fill="#2E27AD"></path>
    </g>
</svg>