<?xml version="1.0" encoding="UTF-8"?>
<svg width="48px" height="48px" viewBox="0 0 48 48" version="1.1" xmlns="http://www.w3.org/2000/svg" xmlns:xlink="http://www.w3.org/1999/xlink">
    <title>Icon-Resource/Database/Res_Amazon-DynamoDB_Item_48_Light</title>
    <g id="Icon-Resource/Database/Res_Amazon-DynamoDB_Item_48" stroke="none" stroke-width="1" fill="none" fill-rule="evenodd">
        <path d="M30.1807,12.5992 C30.1807,9.7832 32.4727,7.4912 35.2897,7.4912 C38.1067,7.4912 40.3987,9.7832 40.3987,12.5992 C40.3987,15.4162 38.1067,17.7082 35.2897,17.7082 C32.4727,17.7082 30.1807,15.4162 30.1807,12.5992 L30.1807,12.5992 Z M28.1807,12.5992 C28.1807,16.5192 31.3697,19.7082 35.2897,19.7082 C39.2097,19.7082 42.3987,16.5192 42.3987,12.5992 C42.3987,8.6792 39.2097,5.4912 35.2897,5.4912 C31.3697,5.4912 28.1807,8.6792 28.1807,12.5992 L28.1807,12.5992 Z M4.0007,43.8892 L21.1997,43.8892 L21.1997,26.6902 L4.0007,26.6902 L4.0007,43.8892 Z M2.0007,45.8892 L23.1997,45.8892 L23.1997,24.6902 L2.0007,24.6902 L2.0007,45.8892 Z M26.6907,43.8892 L43.8897,43.8892 L43.8897,26.6902 L26.6907,26.6902 L26.6907,43.8892 Z M24.6907,45.8892 L45.8897,45.8892 L45.8897,24.6902 L24.6907,24.6902 L24.6907,45.8892 Z M3.9997,21.1982 L21.1987,21.1982 L21.1987,3.9992 L3.9997,3.9992 L3.9997,21.1982 Z M1.9997,23.1992 L23.1987,23.1992 L23.1987,2.0002 L1.9997,2.0002 L1.9997,23.1992 Z M26.6907,21.1992 L43.8897,21.1992 L43.8897,4.0002 L26.6907,4.0002 L26.6907,21.1992 Z M24.6907,23.1982 L45.8897,23.1982 L45.8897,1.9992 L24.6907,1.9992 L24.6907,23.1982 Z" id="Amazon-DATABASE_Amazon-DynamoDB_Item_Resource-Icon_light-bg" fill="#2E27AD"></path>
    </g>
</svg>