<?xml version="1.0" encoding="UTF-8"?>
<svg width="48px" height="48px" viewBox="0 0 48 48" version="1.1" xmlns="http://www.w3.org/2000/svg" xmlns:xlink="http://www.w3.org/1999/xlink">
    <title>Icon-Resource/Database/Res_Amazon-DynamoDB_Attributes_48_Light</title>
    <g id="Icon-Resource/Database/Res_Amazon-DynamoDB_Attributes_48" stroke="none" stroke-width="1" fill="none" fill-rule="evenodd">
        <path d="M12.625,40.5 C11.487,40.5 10.562,39.575 10.562,38.437 C10.562,37.3 11.487,36.375 12.625,36.375 C13.763,36.375 14.688,37.3 14.688,38.437 C14.688,39.575 13.763,40.5 12.625,40.5 L12.625,40.5 Z M12.625,34.375 C10.385,34.375 8.563,36.197 8.563,38.437 C8.563,40.678 10.385,42.5 12.625,42.5 C14.865,42.5 16.687,40.678 16.687,38.437 C16.687,36.197 14.865,34.375 12.625,34.375 L12.625,34.375 Z M12.625,25.625 C11.487,25.625 10.562,24.7 10.562,23.563 C10.562,22.425 11.487,21.5 12.625,21.5 C13.763,21.5 14.688,22.425 14.688,23.563 C14.688,24.7 13.763,25.625 12.625,25.625 L12.625,25.625 Z M12.625,19.5 C10.385,19.5 8.563,21.322 8.563,23.563 C8.563,25.803 10.385,27.625 12.625,27.625 C14.865,27.625 16.687,25.803 16.687,23.563 C16.687,21.322 14.865,19.5 12.625,19.5 L12.625,19.5 Z M12.625,10.75 C11.487,10.75 10.562,9.825 10.562,8.688 C10.562,7.55 11.487,6.625 12.625,6.625 C13.763,6.625 14.688,7.55 14.688,8.688 C14.688,9.825 13.763,10.75 12.625,10.75 L12.625,10.75 Z M12.625,4.625 C10.385,4.625 8.563,6.447 8.563,8.688 C8.563,10.928 10.385,12.75 12.625,12.75 C14.865,12.75 16.687,10.928 16.687,8.688 C16.687,6.447 14.865,4.625 12.625,4.625 L12.625,4.625 Z M26.75,43.125 L44,43.125 L44,33.75 L26.75,33.75 L26.75,43.125 Z M24.75,45.125 L46,45.125 L46,31.75 L24.75,31.75 L24.75,45.125 Z M26.75,28.25 L44,28.25 L44,18.875 L26.75,18.875 L26.75,28.25 Z M24.75,30.25 L46,30.25 L46,16.875 L24.75,16.875 L24.75,30.25 Z M26.75,13.375 L44,13.375 L44,4 L26.75,4 L26.75,13.375 Z M24.75,15.375 L46,15.375 L46,2 L24.75,2 L24.75,15.375 Z M4,43.125 L21.25,43.125 L21.25,33.75 L4,33.75 L4,43.125 Z M2,45.125 L23.25,45.125 L23.25,31.75 L2,31.75 L2,45.125 Z M4,28.25 L21.25,28.25 L21.25,18.875 L4,18.875 L4,28.25 Z M2,30.25 L23.25,30.25 L23.25,16.875 L2,16.875 L2,30.25 Z M4,13.375 L21.25,13.375 L21.25,4 L4,4 L4,13.375 Z M2,15.375 L23.25,15.375 L23.25,2 L2,2 L2,15.375 Z" id="Amazon-DATABASE_Amazon-DynamoDB_Attributes_Resource-Icon_light-bg" fill="#2E27AD"></path>
    </g>
</svg>