<?xml version="1.0" encoding="UTF-8"?>
<svg width="74px" height="74px" viewBox="0 0 74 74" version="1.1" xmlns="http://www.w3.org/2000/svg" xmlns:xlink="http://www.w3.org/1999/xlink">
    <title>Icon-Architecture-Category/48/Analytics_48</title>
    <defs>
        <linearGradient x1="0%" y1="100%" x2="100%" y2="0%" id="linearGradient-1">
            <stop stop-color="#4D27A8" offset="0%"></stop>
            <stop stop-color="#A166FF" offset="100%"></stop>
        </linearGradient>
    </defs>
    <g id="Icon-Architecture-Category/48/Analytics_48" stroke="none" stroke-width="1" fill="none" fill-rule="evenodd">
        <rect id="Rectangle" fill="url(#linearGradient-1)" x="5" y="5" width="64" height="64"></rect>
        <rect id="#879196-Border" stroke="#879196" stroke-width="2" x="1" y="1" width="72" height="72"></rect>
        <g id="Icon-Category/48/Analytics_48" transform="translate(13.000000, 13.000000)" fill="#FFFFFF">
            <path d="M36.0000834,15 L36.0000834,21 L34.0000834,21 L34.0000834,17.587 L25.7400834,26.673 C25.3840834,27.063 24.7870834,27.11 24.3750834,26.781 L20.0740834,23.34 L12.7070834,30.707 L11.2930834,29.293 L19.2930834,21.293 C19.6540834,20.932 20.2290834,20.901 20.6250834,21.219 L24.8920834,24.633 L32.7390834,16 L29.0000834,16 L29.0000834,14 L35.0000834,14 C35.5530834,14 36.0000834,14.448 36.0000834,15 L36.0000834,15 Z M41.4340834,39 L6.56608344,39 L4.76708344,36 L7.00008344,36 L41.0000834,36 L43.2330834,36 L41.4340834,39 Z M8.00008344,10.21 C8.00008344,9.543 8.54308344,9 9.21108344,9 L37.7890834,9 C38.7620834,9 40.0000834,9.82 40.0000834,10.21 L40.0000834,34 L8.00008344,34 L8.00008344,10.21 Z M45.8700834,34.507 C45.6920834,34.194 45.3600834,34 45.0000834,34 L42.0000834,34 L42.0000834,10.21 C42.0000834,8.28 39.4660834,7 37.7890834,7 L9.21108344,7 C7.44008344,7 6.00008344,8.44 6.00008344,10.21 L6.00008344,34 L3.00008344,34 C2.64008344,34 2.30808344,34.194 2.13008344,34.507 C1.95208344,34.821 1.95708344,35.206 2.14308344,35.515 L5.14308344,40.515 C5.32308344,40.816 5.64808344,41 6.00008344,41 L42.0000834,41 C42.3520834,41 42.6770834,40.816 42.8570834,40.515 L45.8570834,35.515 C46.0430834,35.206 46.0480834,34.821 45.8700834,34.507 L45.8700834,34.507 Z" id="Analytics_Category-Icon_48_Squid-"></path>
        </g>
    </g>
</svg>