<?xml version="1.0" encoding="UTF-8"?>
<svg width="74px" height="74px" viewBox="0 0 74 74" version="1.1" xmlns="http://www.w3.org/2000/svg" xmlns:xlink="http://www.w3.org/1999/xlink">
    <title>Icon-Architecture-Category/48/Application-Integration_48</title>
    <defs>
        <linearGradient x1="0%" y1="100%" x2="100%" y2="0%" id="linearGradient-1">
            <stop stop-color="#B0084D" offset="0%"></stop>
            <stop stop-color="#FF4F8B" offset="100%"></stop>
        </linearGradient>
    </defs>
    <g id="Icon-Architecture-Category/48/Application-Integration_48" stroke="none" stroke-width="1" fill="none" fill-rule="evenodd">
        <rect id="Rectangle" fill="url(#linearGradient-1)" x="5" y="5" width="64" height="64"></rect>
        <rect id="#879196-Border-Copy" stroke="#879196" stroke-width="2" x="1" y="1" width="72" height="72"></rect>
        <g id="Icon-Category/48/Application-Integration_48" transform="translate(13.000000, 13.000000)" fill="#FFFFFF">
            <path d="M44,23 L37.866,23 C38.106,22.413 38.232,21.778 38.232,21.124 C38.232,19.596 37.546,18.174 36.349,17.222 C35.151,16.269 33.59,15.928 32.072,16.278 C30.311,16.686 28.882,18.081 28.433,19.833 C28.154,20.921 28.234,22.021 28.635,23 L24,23 L24,15.953 C24,15.544 23.751,15.177 23.372,15.025 C22.992,14.873 22.559,14.967 22.276,15.263 C21.517,16.059 20.417,16.37 19.329,16.09 C18.309,15.829 17.464,14.964 17.227,13.937 C17.01,13.001 17.209,12.085 17.787,11.357 C18.357,10.64 19.209,10.228 20.124,10.228 C20.94,10.228 21.704,10.558 22.276,11.158 C22.559,11.454 22.992,11.548 23.372,11.396 C23.751,11.244 24,10.876 24,10.468 L24,4 L43,4 C43.552,4 44,4.449 44,5 L44,23 Z M44,43 C44,43.551 43.552,44 43,44 L24,44 L24,38.325 C24.979,38.727 26.078,38.806 27.167,38.528 C28.919,38.079 30.314,36.65 30.723,34.888 C31.074,33.369 30.73,31.81 29.778,30.613 C28.827,29.415 27.404,28.728 25.876,28.728 C25.222,28.728 24.588,28.854 24,29.095 L24,25 L30.507,25 C30.916,25 31.283,24.751 31.436,24.372 C31.587,23.992 31.493,23.559 31.197,23.276 C30.401,22.518 30.092,21.415 30.37,20.329 C30.632,19.309 31.497,18.464 32.523,18.226 C33.464,18.009 34.376,18.209 35.104,18.788 C35.821,19.358 36.232,20.209 36.232,21.124 C36.232,21.94 35.902,22.705 35.303,23.276 C35.007,23.559 34.913,23.993 35.064,24.372 C35.217,24.751 35.584,25 35.993,25 L44,25 L44,43 Z M4,43 L4,25 L8.135,25 C7.734,25.979 7.654,27.079 7.933,28.168 C8.382,29.919 9.811,31.314 11.572,31.722 C11.963,31.813 12.355,31.857 12.745,31.857 C13.869,31.857 14.959,31.485 15.849,30.778 C17.046,29.826 17.732,28.404 17.732,26.876 C17.732,26.222 17.606,25.587 17.366,25 L22,25 L22,30.968 C22,31.376 22.249,31.744 22.628,31.896 C23.009,32.048 23.441,31.954 23.724,31.658 C24.296,31.058 25.06,30.728 25.876,30.728 C26.791,30.728 27.643,31.14 28.213,31.857 C28.791,32.585 28.99,33.501 28.773,34.437 C28.536,35.464 27.691,36.329 26.671,36.59 C25.582,36.869 24.483,36.559 23.724,35.763 C23.441,35.467 23.009,35.373 22.628,35.525 C22.249,35.677 22,36.044 22,36.453 L22,44 L5,44 C4.448,44 4,43.551 4,43 L4,43 Z M5,4 L22,4 L22,8.595 C21.412,8.354 20.778,8.228 20.124,8.228 C18.596,8.228 17.173,8.915 16.222,10.113 C15.27,11.31 14.926,12.869 15.277,14.387 C15.686,16.15 17.081,17.579 18.833,18.028 C19.922,18.307 21.021,18.227 22,17.825 L22,23 L15.493,23 C15.084,23 14.717,23.249 14.564,23.628 C14.413,24.007 14.507,24.441 14.803,24.724 C15.402,25.295 15.732,26.06 15.732,26.876 C15.732,27.791 15.321,28.642 14.604,29.212 C13.877,29.791 12.962,29.992 12.023,29.774 C10.997,29.536 10.132,28.691 9.87,27.672 C9.592,26.585 9.901,25.482 10.697,24.724 C10.993,24.441 11.087,24.008 10.936,23.628 C10.783,23.249 10.416,23 10.007,23 L4,23 L4,5 C4,4.449 4.448,4 5,4 L5,4 Z M43,2 L5,2 C3.346,2 2,3.346 2,5 L2,43 C2,44.654 3.346,46 5,46 L43,46 C44.654,46 46,44.654 46,43 L46,5 C46,3.346 44.654,2 43,2 L43,2 Z" id="Application-Integration_Category-Icon_48_Squid--"></path>
        </g>
    </g>
</svg>