<?xml version="1.0" encoding="UTF-8"?>
<svg width="74px" height="74px" viewBox="0 0 74 74" version="1.1" xmlns="http://www.w3.org/2000/svg" xmlns:xlink="http://www.w3.org/1999/xlink">
    <title>Icon-Architecture-Category/48/Compute_48</title>
    <defs>
        <linearGradient x1="0%" y1="100%" x2="100%" y2="0%" id="linearGradient-1">
            <stop stop-color="#C8511B" offset="0%"></stop>
            <stop stop-color="#FF9900" offset="100%"></stop>
        </linearGradient>
    </defs>
    <g id="Icon-Architecture-Category/48/Compute_48" stroke="none" stroke-width="1" fill="none" fill-rule="evenodd">
        <rect id="Rectangle" fill="url(#linearGradient-1)" x="5" y="5" width="64" height="64"></rect>
        <rect id="#879196-Border-Copy-6" stroke="#879196" stroke-width="2" x="1" y="1" width="72" height="72"></rect>
        <g id="Icon-Category/48/Compute_48" transform="translate(13.000000, 13.000000)" fill="#FFFFFF">
            <path d="M16,16.125 C16,16.056 16.056,16 16.125,16 L31.875,16 C31.944,16 32,16.056 32,16.125 L32,31.875 C32,31.944 31.944,32 31.875,32 L16.125,32 C16.056,32 16,31.944 16,31.875 L16,16.125 Z M16.125,34 L31.875,34 C33.047,34 34,33.047 34,31.875 L34,16.125 C34,14.953 33.047,14 31.875,14 L16.125,14 C14.953,14 14,14.953 14,16.125 L14,31.875 C14,33.047 14.953,34 16.125,34 L16.125,34 Z M9,39 L39,39 L39,9 L9,9 L9,39 Z M41,8 C41,7.448 40.553,7 40,7 L37,7 L37,2 L35,2 L35,7 L31,7 L31,2 L29,2 L29,7 L25,7 L25,2 L23,2 L23,7 L19,7 L19,2 L17,2 L17,7 L13,7 L13,2 L11,2 L11,7 L8,7 C7.447,7 7,7.448 7,8 L7,11 L2,11 L2,13 L7,13 L7,17 L2,17 L2,19 L7,19 L7,23 L2,23 L2,25 L7,25 L7,29 L2,29 L2,31 L7,31 L7,35 L2,35 L2,37 L7,37 L7,40 C7,40.552 7.447,41 8,41 L11,41 L11,46 L13,46 L13,41 L17,41 L17,46 L19,46 L19,41 L23,41 L23,46 L25,46 L25,41 L29,41 L29,46 L31,46 L31,41 L35,41 L35,46 L37,46 L37,41 L40,41 C40.553,41 41,40.552 41,40 L41,37 L46,37 L46,35 L41,35 L41,31 L46,31 L46,29 L41,29 L41,25 L46,25 L46,23 L41,23 L41,19 L46,19 L46,17 L41,17 L41,13 L46,13 L46,11 L41,11 L41,8 Z" id="Fill-1"></path>
        </g>
    </g>
</svg>