<?xml version="1.0" encoding="UTF-8"?>
<svg width="74px" height="74px" viewBox="0 0 74 74" version="1.1" xmlns="http://www.w3.org/2000/svg" xmlns:xlink="http://www.w3.org/1999/xlink">
    <title>Icon-Architecture-Category/48/Database_48</title>
    <defs>
        <linearGradient x1="0%" y1="100%" x2="100%" y2="0%" id="linearGradient-1">
            <stop stop-color="#2E27AD" offset="0%"></stop>
            <stop stop-color="#527FFF" offset="100%"></stop>
        </linearGradient>
    </defs>
    <g id="Icon-Architecture-Category/48/Database_48" stroke="none" stroke-width="1" fill="none" fill-rule="evenodd">
        <rect id="Rectangle" fill="url(#linearGradient-1)" x="5" y="5" width="64" height="64"></rect>
        <rect id="#879196-Border-Copy-9" stroke="#879196" stroke-width="2" x="1" y="1" width="72" height="72"></rect>
        <g id="Icon-Category/48/Database_48" transform="translate(13.000000, 13.000000)" fill="#FFFFFF">
            <path d="M24,23.764 C16.56,23.764 11,21.419 11,19.323 L11,11.777 C13.768,13.811 18.991,14.882 24,14.882 C29.009,14.882 34.232,13.811 37,11.777 L37,19.323 C37,21.419 31.44,23.764 24,23.764 M24,34.455 C16.56,34.455 11,32.11 11,30.014 L11,22.659 C13.768,24.693 18.991,25.764 24,25.764 C29.009,25.764 34.232,24.693 37,22.659 L37,30.014 C37,32.11 31.44,34.455 24,34.455 M24,44 C16.56,44 11,41.656 11,39.559 L11,33.35 C13.768,35.384 18.991,36.455 24,36.455 C29.009,36.455 34.232,35.384 37,33.35 L37,39.559 C37,41.656 31.44,44 24,44 M24,4 C31.44,4 37,6.345 37,8.441 C37,10.537 31.44,12.882 24,12.882 C16.56,12.882 11,10.537 11,8.441 C11,6.345 16.56,4 24,4 M24,2 C16.729,2 9,4.258 9,8.441 L9,39.559 C9,43.743 16.729,46 24,46 C31.271,46 39,43.743 39,39.559 L39,8.441 C39,4.258 31.271,2 24,2" id="Database_Category-Icon_48_Squid--"></path>
        </g>
    </g>
</svg>