<?xml version="1.0" encoding="UTF-8"?>
<svg width="74px" height="74px" viewBox="0 0 74 74" version="1.1" xmlns="http://www.w3.org/2000/svg" xmlns:xlink="http://www.w3.org/1999/xlink">
    <title>Icon-Architecture-Category/48/End-User-Computing_48</title>
    <defs>
        <linearGradient x1="0%" y1="100%" x2="100%" y2="0%" id="linearGradient-1">
            <stop stop-color="#055F4E" offset="0%"></stop>
            <stop stop-color="#56C0A7" offset="100%"></stop>
        </linearGradient>
    </defs>
    <g id="Icon-Architecture-Category/48/End-User-Computing_48" stroke="none" stroke-width="1" fill="none" fill-rule="evenodd">
        <rect id="Rectangle" fill="url(#linearGradient-1)" x="5" y="5" width="64" height="64"></rect>
        <rect id="#879196-Border-Copy-11" stroke="#879196" stroke-width="2" x="1" y="1" width="72" height="72"></rect>
        <g id="Icon-Category/48/End-User-Computing_48" transform="translate(13.000000, 13.000000)" fill="#FFFFFF">
            <path d="M33.9995939,42 L38.9995939,42 L38.9995939,40 L33.9995939,40 L33.9995939,42 Z M6.9995939,5.263 C6.9995939,4.567 7.6865939,4 8.5285939,4 L41.4705939,4 C42.3125939,4 42.9995939,4.567 42.9995939,5.263 L42.9995939,9 L44.9995939,9 L44.9995939,5.263 C44.9995939,3.464 43.4165939,2 41.4705939,2 L8.5285939,2 C6.5825939,2 4.9995939,3.464 4.9995939,5.263 L4.9995939,30 L2.9995939,30 C2.6145939,30 2.2655939,30.22 2.0985939,30.567 C1.9325939,30.913 1.9785939,31.325 2.2185939,31.625 L6.2185939,36.625 C6.4085939,36.862 6.6955939,37 6.9995939,37 L23.9995939,37 L23.9995939,35 L7.4795939,35 L5.0805939,32 L23.9995939,32 L23.9995939,30 L6.9995939,30 L6.9995939,5.263 Z M45.0005939,36 L44.9995939,13 L27.9995939,13 L27.9995939,36 L45.0005939,36 Z M27.9995939,44 L45.0005939,44 L45.0005939,38 L27.9995939,38 L27.9995939,44 Z M46.9995939,13 L46.9995939,36 L46.9995939,38 L46.9995939,44 C46.9995939,45.103 46.1025939,46 44.9995939,46 L27.9995939,46 C26.8965939,46 25.9995939,45.103 25.9995939,44 L25.9995939,13 C25.9995939,11.897 26.8965939,11 27.9995939,11 L44.9995939,11 C46.1025939,11 46.9995939,11.897 46.9995939,13 L46.9995939,13 Z M36.9415939,23.075 C36.9415939,23.065 36.9405939,23.056 36.9405939,23.046 L36.9375939,22.833 C36.9375939,21.732 36.3865939,20.703 35.4235939,20.009 C34.0155939,18.993 31.9605939,18.828 29.7885939,19.551 L30.4215939,21.449 C31.9535939,20.938 33.3865939,21.007 34.2535939,21.631 C34.6945939,21.95 34.9375939,22.376 34.9375939,22.833 L34.9415939,23.082 C34.9455939,23.34 34.9555939,23.74 34.9485939,23.855 C34.9065939,24.143 34.9915939,24.435 35.1815939,24.654 C35.3715939,24.874 35.6475939,25 35.9375939,25 C36.0845939,25 39.5295939,25.029 39.6045939,27.53 C39.6235939,28.143 39.3815939,28.741 38.9215939,29.214 C38.4375939,29.714 37.7745939,30 37.1045939,30 L29.9995939,30 L29.9995939,32 L37.1045939,32 C38.3125939,32 39.4975939,31.492 40.3565939,30.607 C41.1955939,29.742 41.6395939,28.628 41.6045939,27.47 C41.5145939,24.487 38.9045939,23.355 36.9415939,23.075 L36.9415939,23.075 Z M24.9995939,13.889 L24.9995939,15 L22.9995939,15 L22.9995939,13.889 C22.9995939,12.007 21.1945939,10.293 19.2125939,10.293 C17.2775939,10.293 15.7035939,11.844 15.7035939,13.75 C15.7035939,14.127 15.7765939,14.509 15.9275939,14.917 C16.0565939,15.268 15.9785939,15.662 15.7265939,15.938 C15.4745939,16.213 15.0875939,16.327 14.7285939,16.228 C14.3715939,16.132 14.0775939,16.087 13.8025939,16.087 C11.8665939,16.087 10.2925939,17.638 10.2925939,19.543 C10.2925939,21.449 11.8665939,23 13.8025939,23 L23.9995939,23 L23.9995939,25 L13.8025939,25 C10.7645939,25 8.2925939,22.552 8.2925939,19.543 C8.2925939,16.563 10.7175939,14.134 13.7155939,14.087 C13.7075939,13.975 13.7035939,13.862 13.7035939,13.75 C13.7035939,10.741 16.1755939,8.293 19.2125939,8.293 C22.2955939,8.293 24.9995939,10.908 24.9995939,13.889 L24.9995939,13.889 Z" id="End-User-Computing_Category-Icon_48_Squid--"></path>
        </g>
    </g>
</svg>