<?xml version="1.0" encoding="UTF-8"?>
<svg width="74px" height="74px" viewBox="0 0 74 74" version="1.1" xmlns="http://www.w3.org/2000/svg" xmlns:xlink="http://www.w3.org/1999/xlink">
    <title>Icon-Architecture-Category/48/Front-End-Web-Mobile_48</title>
    <defs>
        <linearGradient x1="0%" y1="100%" x2="100%" y2="0%" id="linearGradient-1">
            <stop stop-color="#BD0816" offset="0%"></stop>
            <stop stop-color="#FF5252" offset="100%"></stop>
        </linearGradient>
    </defs>
    <g id="Icon-Architecture-Category/48/Front-End-Web-Mobile_48" stroke="none" stroke-width="1" fill="none" fill-rule="evenodd">
        <rect id="Rectangle" fill="url(#linearGradient-1)" x="5" y="5" width="64" height="64"></rect>
        <rect id="#879196-Border-Copy-18" stroke="#879196" stroke-width="2" x="1" y="1" width="72" height="72"></rect>
        <g id="Icon-Category/48/Mobile_48" transform="translate(13.000000, 13.000000)" fill="#FFFFFF">
            <path d="M33,42 L39,42 L39,40 L33,40 L33,42 Z M28,44 L44.001,44 L44.001,38 L28,38 L28,44 Z M28,15 L28,36 L44.001,36 L44,15 L28,15 Z M46,15 L46,44 C46,45.103 45.103,46 44,46 L28,46 C26.897,46 26,45.103 26,44 L26,15 C26,13.897 26.897,13 28,13 L44,13 C45.103,13 46,13.897 46,15 L46,15 Z M9,9 L26,9 L26,11 L28,11 L28,8 C28,7.448 27.553,7 27,7 L8,7 C7.447,7 7,7.448 7,8 L7,37 C7,37.552 7.447,38 8,38 L24,38 L24,36 L9,36 L9,9 Z M5.148,41 L24,41 L24,43 L5.148,43 C3.412,43 2,41.557 2,39.782 L2,5.218 C2,3.443 3.412,2 5.148,2 L29.852,2 C31.588,2 33,3.443 33,5.218 L33,11 L31,11 L31,5.218 C31,4.546 30.484,4 29.852,4 L5.148,4 C4.516,4 4,4.546 4,5.218 L4,39.782 C4,40.454 4.516,41 5.148,41 L5.148,41 Z" id="Fill-1"></path>
        </g>
    </g>
</svg>