<?xml version="1.0" encoding="UTF-8"?>
<svg width="74px" height="74px" viewBox="0 0 74 74" version="1.1" xmlns="http://www.w3.org/2000/svg" xmlns:xlink="http://www.w3.org/1999/xlink">
    <title>Icon-Architecture-Category/48/Game-Tech_48</title>
    <defs>
        <linearGradient x1="0%" y1="100%" x2="100%" y2="0%" id="linearGradient-1">
            <stop stop-color="#4D27A8" offset="0%"></stop>
            <stop stop-color="#A166FF" offset="100%"></stop>
        </linearGradient>
    </defs>
    <g id="Icon-Architecture-Category/48/Game-Tech_48" stroke="none" stroke-width="1" fill="none" fill-rule="evenodd">
        <rect id="Rectangle" fill="url(#linearGradient-1)" x="5" y="5" width="64" height="64"></rect>
        <rect id="#879196-Border-Copy-12" stroke="#879196" stroke-width="2" x="1" y="1" width="72" height="72"></rect>
        <g id="Icon-Category/48/Game-Tech_48" transform="translate(13.000000, 13.000000)" fill="#FFFFFF">
            <path d="M38.521,20.5 C38.521,21.328 37.849,22 37.021,22 C36.193,22 35.521,21.328 35.521,20.5 C35.521,19.672 36.193,19 37.021,19 C37.849,19 38.521,19.672 38.521,20.5 L38.521,20.5 Z M35.521,15.5 C35.521,14.672 36.193,14 37.021,14 C37.849,14 38.521,14.672 38.521,15.5 C38.521,16.328 37.849,17 37.021,17 C36.193,17 35.521,16.328 35.521,15.5 L35.521,15.5 Z M39.52,16.5 C40.349,16.5 41.02,17.172 41.02,18 C41.02,18.828 40.349,19.5 39.52,19.5 C38.692,19.5 38.02,18.828 38.02,18 C38.02,17.172 38.692,16.5 39.52,16.5 L39.52,16.5 Z M33.021,18 C33.021,17.172 33.693,16.5 34.521,16.5 C35.349,16.5 36.021,17.172 36.021,18 C36.021,18.828 35.349,19.5 34.521,19.5 C33.693,19.5 33.021,18.828 33.021,18 L33.021,18 Z M10.021,19 L8.021,19 L8.021,17 L10.021,17 L10.021,15 L12.021,15 L12.021,17 L14.021,17 L14.021,19 L12.021,19 L12.021,21 L10.021,21 L10.021,19 Z M44.021,33.037 C44.014,33.443 43.856,37 40.421,37 C37.439,37 34.693,30.41 32.859,25.972 C34.105,26.625 35.519,27 37.021,27 C39.847,27 42.37,25.688 44.021,23.644 L44.021,33.037 Z M7.599,37 C4.166,37 4.007,33.443 4,33.05 L4,23.644 C5.652,25.688 8.174,27 11,27 C12.502,27 13.916,26.625 15.162,25.972 C13.328,30.411 10.581,37 7.599,37 L7.599,37 Z M11,11 C14.86,11 18,14.14 18,18 C18,21.86 14.86,25 11,25 C7.141,25 4,21.86 4,18 C4,14.14 7.141,11 11,11 L11,11 Z M29.542,22.999 L18.479,22.999 C19.439,21.568 20,19.849 20,18 C20,16.151 19.439,14.43 18.478,12.999 L29.543,12.999 C28.583,14.43 28.021,16.151 28.021,18 C28.021,19.849 28.583,21.568 29.542,22.999 L29.542,22.999 Z M37.021,11 C40.88,11 44.021,14.14 44.021,18 C44.021,21.86 40.88,25 37.021,25 C33.162,25 30.021,21.86 30.021,18 C30.021,14.14 33.162,11 37.021,11 L37.021,11 Z M37.021,9 C34.885,9 32.923,9.751 31.378,10.999 L16.644,10.999 C15.099,9.751 13.137,9 11,9 C6.038,9 2,13.038 2,18 L2,33.059 C2.019,35.114 3.213,39 7.599,39 C11.945,39 14.781,32.134 17.06,26.618 C17.292,26.056 17.517,25.511 17.734,24.999 L30.287,24.999 C30.505,25.511 30.73,26.056 30.962,26.618 C33.241,32.135 36.077,39 40.421,39 C44.808,39 46.002,35.114 46.021,33.05 L46.021,18 C46.021,13.038 41.984,9 37.021,9 L37.021,9 Z" id="Fill-3"></path>
        </g>
    </g>
</svg>