<?xml version="1.0" encoding="UTF-8"?>
<svg width="74px" height="74px" viewBox="0 0 74 74" version="1.1" xmlns="http://www.w3.org/2000/svg" xmlns:xlink="http://www.w3.org/1999/xlink">
    <title>Icon-Architecture-Category/48/Machine-Learning_48</title>
    <defs>
        <linearGradient x1="0%" y1="100%" x2="100%" y2="0%" id="linearGradient-1">
            <stop stop-color="#055F4E" offset="0%"></stop>
            <stop stop-color="#56C0A7" offset="100%"></stop>
        </linearGradient>
    </defs>
    <g id="Icon-Architecture-Category/48/Machine-Learning_48" stroke="none" stroke-width="1" fill="none" fill-rule="evenodd">
        <rect id="Rectangle" fill="url(#linearGradient-1)" x="5" y="5" width="64" height="64"></rect>
        <rect id="#879196-Border-Copy-14" stroke="#879196" stroke-width="2" x="1" y="1" width="72" height="72"></rect>
        <g id="Icon-Category/48/Machine-Learning_48" transform="translate(13.000000, 13.000000)" fill="#FFFFFF">
            <path d="M32,24.0003893 C32,20.6103893 29.853,17.5773893 26.657,16.4523893 L27.321,14.5653893 C31.316,15.9713893 34,19.7633893 34,24.0003893 C34,28.2323893 31.32,32.0213893 27.333,33.4313893 L26.667,31.5453893 C29.856,30.4183893 32,27.3863893 32,24.0003893 L32,24.0003893 Z M45.925,28.5133893 L42.749,36.2293893 C42.645,36.4833893 42.439,36.6833893 42.183,36.7813893 C41.926,36.8803893 41.64,36.8683893 41.392,36.7493893 L39,35.6013893 C38.034,36.8513893 36.918,37.9713893 35.667,38.9443893 L36.827,41.3343893 C36.947,41.5823893 36.96,41.8683893 36.863,42.1253893 C36.766,42.3823893 36.566,42.5883893 36.312,42.6943893 L28.611,45.9043893 C28.488,45.9563893 28.357,45.9813893 28.227,45.9813893 C28.088,45.9813893 27.949,45.9533893 27.819,45.8953893 C27.568,45.7833893 27.374,45.5733893 27.283,45.3133893 L26.128,42.0273893 L28.015,41.3643893 L28.819,43.6513893 L34.565,41.2553893 L33.507,39.0733893 C33.293,38.6333893 33.429,38.1043893 33.828,37.8213893 C35.403,36.7033893 36.763,35.3393893 37.868,33.7663893 C38.149,33.3673893 38.679,33.2293893 39.119,33.4403893 L41.303,34.4883893 L43.672,28.7303893 L41.386,27.9383893 C40.924,27.7793893 40.646,27.3083893 40.727,26.8263893 C41.05,24.9243893 41.045,22.9983893 40.713,21.1003893 C40.629,20.6183893 40.905,20.1463893 41.367,19.9843893 L43.651,19.1813893 L41.256,13.4343893 L39.07,14.4953893 C38.629,14.7083893 38.101,14.5723893 37.818,14.1743893 C36.702,12.6033893 35.338,11.2453893 33.764,10.1393893 C33.364,9.85838932 33.226,9.32938932 33.437,8.88838932 L34.488,6.69838932 L28.73,4.32838932 L27.935,6.62538932 L26.044,5.97138932 L27.187,2.67338932 C27.277,2.41338932 27.47,2.20138932 27.721,2.08838932 C27.973,1.97538932 28.259,1.97038932 28.513,2.07538932 L36.229,5.25138932 C36.482,5.35638932 36.683,5.56138932 36.781,5.81738932 C36.88,6.07438932 36.868,6.36038932 36.749,6.60838932 L35.599,9.00738932 C36.849,9.97238932 37.969,11.0873893 38.941,12.3343893 L41.335,11.1733893 C41.584,11.0533893 41.87,11.0413893 42.126,11.1373893 C42.383,11.2343893 42.589,11.4343893 42.694,11.6873893 L45.904,19.3893893 C46.011,19.6433893 46.007,19.9303893 45.895,20.1813893 C45.783,20.4323893 45.572,20.6263893 45.313,20.7173893 L42.812,21.5963893 C43.014,23.1663893 43.018,24.7483893 42.822,26.3193893 L45.327,27.1873893 C45.587,27.2773893 45.799,27.4703893 45.912,27.7213893 C46.024,27.9723893 46.029,28.2583893 45.925,28.5133893 L45.925,28.5133893 Z M19,30.0483893 L19,25.9923893 C19,25.6273893 18.802,25.2923893 18.482,25.1163893 L14,22.6503893 L14,19.3713893 L18.486,16.8723893 C18.804,16.6963893 19,16.3613893 19,15.9993893 L19,10.0003893 L17,10.0003893 L17,15.4113893 L13.021,17.6263893 L9,15.3753893 L9,10.1683893 L12,8.17938932 L12,13.0003893 L14,13.0003893 L14,6.85338932 L18.031,4.18038932 L22.08,6.57138932 L22.079,21.7823893 L18.671,19.8053893 L17.667,21.5363893 L22.079,24.0943893 L22.079,28.2743893 L19,30.0483893 Z M22.079,41.4293893 L18.062,43.8023893 L14.079,40.8573893 L18.939,37.7503893 L17.861,36.0653893 L12.357,39.5843893 L9,37.1023893 L9,32.1203893 L13.169,29.7183893 L12.171,27.9853893 L7.999,30.3883893 L4.001,27.8993893 L4.001,24.2483893 L8.334,21.7523893 L7.336,20.0193893 L4.001,21.9403893 L4.001,19.3713893 L8.032,17.1253893 L12,19.3473893 L12,22.7243893 L7.424,25.3603893 L8.422,27.0933893 L13.065,24.4183893 L17,26.5833893 L17,31.2003893 L11.977,34.0933893 L12.975,35.8273893 L22.079,30.5823893 L22.079,41.4293893 Z M23.589,5.13938932 L18.509,2.13938932 C18.179,1.94438932 17.766,1.95538932 17.447,2.16738932 L7.447,8.79838932 C7.168,8.98438932 7,9.29638932 7,9.63238932 L7,15.4113893 L2.515,17.9103893 C2.197,18.0863893 2.001,18.4203893 2.001,18.7833893 L2.001,19.2213893 C2,19.2363893 2,19.2503893 2,19.2663893 L2,27.9733893 C2,27.9883893 2,28.0023893 2.001,28.0173893 L2.001,28.4553893 C2.001,28.8003893 2.18,29.1213893 2.473,29.3043893 L7,32.1223893 L7,37.6063893 C7,37.9243893 7.15,38.2223893 7.405,38.4113893 L17.405,45.8043893 C17.581,45.9343893 17.79,46.0003893 18,46.0003893 C18.176,46.0003893 18.352,45.9543893 18.509,45.8613893 L23.588,42.8613893 C23.893,42.6813893 24,42.3543893 24,42.0003893 L24,6.00038932 C24,5.64638932 23.894,5.31938932 23.589,5.13938932 L23.589,5.13938932 Z" id="Machine-Learning_Category-Icon_48_Squid"></path>
        </g>
    </g>
</svg>