<?xml version="1.0" encoding="UTF-8"?>
<svg width="74px" height="74px" viewBox="0 0 74 74" version="1.1" xmlns="http://www.w3.org/2000/svg" xmlns:xlink="http://www.w3.org/1999/xlink">
    <title>Icon-Architecture-Category/48/Management-Governance_48</title>
    <defs>
        <linearGradient x1="0%" y1="100%" x2="100%" y2="0%" id="linearGradient-1">
            <stop stop-color="#B0084D" offset="0%"></stop>
            <stop stop-color="#FF4F8B" offset="100%"></stop>
        </linearGradient>
    </defs>
    <g id="Icon-Architecture-Category/48/Management-Governance_48" stroke="none" stroke-width="1" fill="none" fill-rule="evenodd">
        <rect id="Rectangle" fill="url(#linearGradient-1)" x="5" y="5" width="64" height="64"></rect>
        <rect id="#879196-Border-Copy-15" stroke="#879196" stroke-width="2" x="1" y="1" width="72" height="72"></rect>
        <g id="Icon-Category/48/Management-Governance_48" transform="translate(13.000000, 13.000000)" fill="#FFFFFF">
            <path d="M24,30 L7,30 L7,28 L24,28 L24,26 L26,26 L26,28 L30,28 L30,30 L26,30 L26,32 L24,32 L24,30 Z M12,22 L7,22 L7,20 L12,20 L12,18 L14,18 L14,20 L30,20 L30,22 L14,22 L14,24 L12,24 L12,22 Z M24,7 L34,7 L34,4 L24,4 L24,7 Z M42.842,4 L36,4 L36,3 C36,2.448 35.553,2 35,2 L23,2 C22.447,2 22,2.448 22,3 L22,4 L15.158,4 C13.417,4 12,5.417 12,7.158 L12,11 L14,11 L14,7.158 C14,6.52 14.52,6 15.158,6 L22,6 L22,8 C22,8.552 22.447,9 23,9 L35,9 C35.553,9 36,8.552 36,8 L36,6 L42.842,6 C43.48,6 44,6.52 44,7.158 L44,42.842 C44,43.48 43.48,44 42.842,44 L16.158,44 C15.52,44 15,43.48 15,42.842 L15,40 L13,40 L13,42.842 C13,44.583 14.417,46 16.158,46 L42.842,46 C44.583,46 46,44.583 46,42.842 L46,7.158 C46,5.417 44.583,4 42.842,4 L42.842,4 Z M4,36 L33,36 L33,15 L4,15 L4,36 Z M35,37 L35,14 C35,13.448 34.553,13 34,13 L3,13 C2.447,13 2,13.448 2,14 L2,37 C2,37.552 2.447,38 3,38 L34,38 C34.553,38 35,37.552 35,37 L35,37 Z" id="Management-Governance_Category-Icon_48_Squid"></path>
        </g>
    </g>
</svg>