<?xml version="1.0" encoding="UTF-8"?>
<svg width="74px" height="74px" viewBox="0 0 74 74" version="1.1" xmlns="http://www.w3.org/2000/svg" xmlns:xlink="http://www.w3.org/1999/xlink">
    <title>Icon-Architecture-Category/48/Media-Services_48</title>
    <defs>
        <linearGradient x1="0%" y1="100%" x2="100%" y2="0%" id="linearGradient-1">
            <stop stop-color="#C8511B" offset="0%"></stop>
            <stop stop-color="#FF9900" offset="100%"></stop>
        </linearGradient>
    </defs>
    <g id="Icon-Architecture-Category/48/Media-Services_48" stroke="none" stroke-width="1" fill="none" fill-rule="evenodd">
        <rect id="Rectangle" fill="url(#linearGradient-1)" x="5" y="5" width="64" height="64"></rect>
        <rect id="#879196-Border-Copy-16" stroke="#879196" stroke-width="2" x="1" y="1" width="72" height="72"></rect>
        <g id="Icon-Category/48/Media-Services_48" transform="translate(13.000000, 13.000000)" fill="#FFFFFF">
            <path d="M24.474,24.062 L13.165,30.864 C13.149,30.874 13.112,30.9 13.056,30.869 C13,30.839 13,30.797 13,30.776 L13,17.223 C13,17.202 13,17.16 13.056,17.13 C13.074,17.121 13.089,17.116 13.104,17.116 C13.137,17.116 13.166,17.136 13.203,17.16 L24.474,23.937 L24.99,23.08 L24.474,24.062 Z M25.505,22.223 L14.273,15.47 C13.626,15.039 12.796,14.999 12.112,15.367 C11.426,15.734 11,16.445 11,17.223 L11,30.776 C11,31.554 11.426,32.265 12.112,32.632 C12.428,32.802 12.775,32.885 13.117,32.885 C13.515,32.885 13.907,32.772 14.235,32.553 L25.544,25.751 C26.131,25.36 26.482,24.705 26.482,24 C26.482,23.294 26.131,22.639 25.505,22.223 L25.505,22.223 Z M44,32.894 C44,32.952 43.953,33 43.895,33 L40.974,33 L40.974,14.999 L43.895,14.999 C43.953,14.999 44,15.047 44,15.105 L44,32.894 Z M32,27 L32,38.789 C32,39.457 31.457,40 30.789,40 L5.211,40 C4.543,40 4,39.457 4,38.789 L4,9.21 C4,8.542 4.543,8 5.211,8 L30.789,8 C31.457,8 32,8.542 32,9.21 L32,20.999 L35.762,20.999 L39,16.552 L39,31.447 L35.762,27 L32,27 Z M43.895,12.999 L39.072,12.999 L34.739,19 L34,19 L34,9.21 C34,7.44 32.56,6 30.789,6 L5.211,6 C3.441,6 2,7.44 2,9.21 L2,38.789 C2,40.559 3.441,41.999 5.211,41.999 L30.789,41.999 C32.56,41.999 34,40.559 34,38.789 L34,28.999 L34.739,28.999 L39.072,35 L43.895,35 C45.056,35 46,34.055 46,32.894 L46,15.105 C46,13.944 45.056,12.999 43.895,12.999 L43.895,12.999 Z" id="Media-Services_Category-Icon_48_Squid"></path>
        </g>
    </g>
</svg>