<?xml version="1.0" encoding="UTF-8"?>
<svg width="74px" height="74px" viewBox="0 0 74 74" version="1.1" xmlns="http://www.w3.org/2000/svg" xmlns:xlink="http://www.w3.org/1999/xlink">
    <title>Icon-Architecture-Category/48/Migration-Transfer_48</title>
    <defs>
        <linearGradient x1="0%" y1="100%" x2="100%" y2="0%" id="linearGradient-1">
            <stop stop-color="#055F4E" offset="0%"></stop>
            <stop stop-color="#56C0A7" offset="100%"></stop>
        </linearGradient>
    </defs>
    <g id="Icon-Architecture-Category/48/Migration-Transfer_48" stroke="none" stroke-width="1" fill="none" fill-rule="evenodd">
        <rect id="Rectangle" fill="url(#linearGradient-1)" x="5" y="5" width="64" height="64"></rect>
        <rect id="#879196-Border-Copy-17" stroke="#879196" stroke-width="2" x="1" y="1" width="72" height="72"></rect>
        <g id="Icon-Category/48/Migration-Transfer_48" transform="translate(13.000000, 13.000000)" fill="#FFFFFF">
            <path d="M31.98,35.631 L23.505,24.562 L15.031,35.631 L20,35.631 C20.552,35.631 21,36.079 21,36.631 L21,43.631 L26,43.631 L26,36.631 C26,36.079 26.447,35.631 27,35.631 L31.98,35.631 Z M34.799,36.023 C35.031,36.325 35.071,36.733 34.902,37.074 C34.734,37.415 34.386,37.631 34.005,37.631 L28,37.631 L28,44.631 C28,45.183 27.552,45.631 27,45.631 L20,45.631 C19.447,45.631 19,45.183 19,44.631 L19,37.631 L13.005,37.631 C12.625,37.631 12.277,37.415 12.109,37.074 C11.94,36.733 11.98,36.325 12.211,36.023 L22.711,22.309 C23.09,21.815 23.92,21.815 24.299,22.309 L34.799,36.023 Z M46,22.894 C46,28.12 42.932,31.631 38.368,31.631 L34,31.631 L34,29.631 L38.368,29.631 C42.52,29.631 44,26.151 44,22.894 C44,20.172 42.23,17.262 37.262,17.262 C36.955,17.262 36.664,17.12 36.474,16.878 C36.285,16.635 36.217,16.319 36.292,16.02 C36.734,14.255 36.374,12.634 35.305,11.575 C34.247,10.526 32.643,10.184 30.911,10.632 C30.652,10.7 30.38,10.661 30.151,10.526 C29.921,10.39 29.756,10.169 29.691,9.911 C28.447,5.025 24.106,4 20.684,4 C20.322,4.002 11.737,4.184 11.737,15.157 C11.737,15.71 11.29,16.157 10.737,16.157 C4.117,16.157 4.001,22.333 4,22.596 C4,26.408 7.084,29.631 10.737,29.631 L13,29.631 L13,31.631 L10.737,31.631 C6.001,31.631 2,27.492 2,22.593 C2,19.818 3.651,14.692 9.757,14.196 C10.278,2.143 20.578,2 20.684,2 C26.143,2 29.895,4.301 31.356,8.508 C33.43,8.223 35.346,8.8 36.713,10.154 C38.037,11.467 38.641,13.302 38.442,15.311 C43.993,15.782 46,19.597 46,22.894 L46,22.894 Z" id="Migration-Transfer_Category-Icon_48_Squid"></path>
        </g>
    </g>
</svg>