<?xml version="1.0" encoding="UTF-8"?>
<svg width="74px" height="74px" viewBox="0 0 74 74" version="1.1" xmlns="http://www.w3.org/2000/svg" xmlns:xlink="http://www.w3.org/1999/xlink">
    <title>Icon-Architecture-Category/48/Quantum-Technologies_48</title>
    <defs>
        <linearGradient x1="0%" y1="100%" x2="100%" y2="0%" id="linearGradient-1">
            <stop stop-color="#C8511B" offset="0%"></stop>
            <stop stop-color="#FF9900" offset="100%"></stop>
        </linearGradient>
    </defs>
    <g id="Icon-Architecture-Category/48/Quantum-Technologies_48" stroke="none" stroke-width="1" fill="none" fill-rule="evenodd">
        <rect id="Rectangle" fill="url(#linearGradient-1)" x="5" y="5" width="64" height="64"></rect>
        <rect id="#879196-Border-Copy-20" stroke="#879196" stroke-width="2" x="1" y="1" width="72" height="72"></rect>
        <g id="Icon-Category/48/Quantum-Technologies_48" transform="translate(13.000000, 13.000000)" fill="#FFFFFF">
            <path d="M42.32,34 C42.271,34.084 42.201,34.154 42.142,34.23 C41.5,33.484 40.559,33 39.5,33 C37.934,33 36.622,34.04 36.175,35.459 C35.15,35.344 34.051,35.133 32.901,34.843 C33.295,33.069 33.587,31.129 33.771,29.064 C35.467,27.872 37.002,26.648 38.341,25.42 C41.827,29.027 43.303,32.297 42.32,34 M39.5,38 C38.673,38 38,37.327 38,36.5 C38,35.673 38.673,35 39.5,35 C40.327,35 41,35.673 41,36.5 C41,37.327 40.327,38 39.5,38 M25,44 C23.029,44 20.93,41.074 19.549,36.234 C21.314,35.683 23.142,34.972 24.995,34.119 C26.854,34.973 28.687,35.667 30.454,36.221 C29.072,41.069 26.971,44 25,44 M14.809,35.336 C11.11,35.93 8.512,35.443 7.679,34 C7.511,33.709 7.422,33.367 7.393,32.989 C7.429,32.99 7.463,33 7.5,33 C9.429,33 11,31.43 11,29.5 C11,28.602 10.65,27.791 10.092,27.17 C10.566,26.587 11.077,26 11.648,25.411 C12.99,26.643 14.528,27.869 16.228,29.064 C16.413,31.131 16.706,33.074 17.099,34.85 C16.316,35.046 15.547,35.218 14.809,35.336 M7.5,28 C8.327,28 9,28.673 9,29.5 C9,30.327 8.327,31 7.5,31 C6.673,31 6,30.327 6,29.5 C6,28.673 6.673,28 7.5,28 M7.679,14 C8.512,12.556 11.109,12.068 14.809,12.664 C15.547,12.782 16.316,12.954 17.099,13.15 C16.705,14.931 16.411,16.878 16.226,18.95 C14.567,20.126 13.035,21.354 11.678,22.601 C8.178,18.986 6.694,15.706 7.679,14 M25,4 C25.88,4 26.662,4.574 27.257,5.2 C27.094,5.603 27,6.04 27,6.5 C27,8.214 28.24,9.637 29.869,9.936 C30.079,10.52 30.274,11.129 30.455,11.765 C28.687,12.317 26.855,13.028 25,13.883 C23.146,13.029 21.315,12.318 19.549,11.766 C20.93,6.926 23.029,4 25,4 M30.5,5 C31.327,5 32,5.673 32,6.5 C32,7.327 31.327,8 30.5,8 C29.673,8 29,7.327 29,6.5 C29,5.673 29.673,5 30.5,5 M33.942,21.547 C35.018,22.365 35.998,23.186 36.884,24 C35.999,24.812 35.021,25.632 33.947,26.449 C33.98,25.647 34,24.832 34,24 C34,23.173 33.977,22.356 33.942,21.547 M27.348,15.03 C28.571,14.517 29.773,14.074 30.945,13.704 C31.211,14.901 31.427,16.162 31.594,17.476 C30.916,17.046 30.219,16.621 29.5,16.206 C28.785,15.792 28.066,15.404 27.348,15.03 M18.404,17.48 C18.575,16.139 18.797,14.88 19.058,13.706 C20.228,14.075 21.429,14.517 22.651,15.03 C21.933,15.404 21.215,15.792 20.5,16.206 C19.786,16.618 19.088,17.044 18.404,17.48 M16.052,26.449 C14.977,25.631 13.999,24.811 13.112,23.997 C14.016,23.17 14.997,22.349 16.052,21.547 C16.019,22.351 16,23.167 16,24 C16,24.832 16.019,25.647 16.052,26.449 M22.65,32.97 C21.429,33.483 20.228,33.925 19.058,34.294 C18.797,33.121 18.576,31.863 18.405,30.524 C19.083,30.954 19.78,31.379 20.5,31.794 C21.213,32.206 21.931,32.597 22.65,32.97 M31.594,30.524 C31.424,31.86 31.204,33.114 30.944,34.285 C29.778,33.916 28.581,33.477 27.358,32.965 C28.073,32.592 28.788,32.206 29.5,31.794 C30.219,31.379 30.917,30.954 31.594,30.524 M28.5,30.062 C27.341,30.731 26.175,31.347 25.016,31.907 C23.843,31.343 22.667,30.736 21.5,30.062 C20.312,29.376 19.199,28.67 18.148,27.956 C18.054,26.688 18,25.371 18,24 C18,22.631 18.054,21.315 18.147,20.05 C19.219,19.32 20.336,18.61 21.5,17.938 C22.665,17.266 23.836,16.647 25,16.084 C26.164,16.647 27.335,17.266 28.5,17.938 C29.688,18.624 30.803,19.331 31.854,20.046 C31.949,21.334 32,22.655 32,24 C32,25.371 31.945,26.688 31.851,27.956 C30.8,28.67 29.687,29.376 28.5,30.062 M35.19,12.664 C38.885,12.071 41.486,12.556 42.32,14 C43.303,15.703 41.827,18.973 38.341,22.58 C37,21.349 35.461,20.123 33.76,18.928 C33.573,16.897 33.274,14.96 32.87,13.158 C33.664,12.958 34.444,12.784 35.19,12.664 M44.052,13 C42.761,10.765 39.506,9.944 34.872,10.689 C34.069,10.819 33.23,11.006 32.378,11.221 C32.229,10.699 32.072,10.191 31.905,9.7 C33.135,9.158 34,7.929 34,6.5 C34,4.57 32.429,3 30.5,3 C29.758,3 29.074,3.235 28.507,3.629 C27.17,2.318 25.893,2 25,2 C21.853,2 19.185,5.568 17.59,11.213 C16.748,11.002 15.921,10.817 15.128,10.689 C10.496,9.942 7.239,10.765 5.947,13 C4.374,15.725 6.129,19.816 10.216,24.02 C9.534,24.724 8.926,25.426 8.372,26.124 C8.091,26.051 7.802,26 7.5,26 C5.57,26 4,27.57 4,29.5 C4,30.644 4.559,31.652 5.411,32.291 C5.327,33.303 5.496,34.217 5.947,35 C6.927,36.697 9.042,37.579 12.03,37.579 C12.977,37.579 14.013,37.49 15.128,37.311 C15.921,37.183 16.748,36.998 17.59,36.787 C19.185,42.432 21.853,46 25,46 C28.148,46 30.817,42.428 32.413,36.777 C33.728,37.109 34.982,37.342 36.152,37.463 C36.573,38.923 37.906,40 39.5,40 C41.429,40 43,38.43 43,36.5 C43,36.407 42.979,36.32 42.972,36.229 C43.419,35.881 43.781,35.47 44.052,35 C45.623,32.28 43.876,28.196 39.801,24 C43.876,19.804 45.623,15.72 44.052,13" id="Quantum-Technologies_Category-Icon_48_Squid"></path>
        </g>
    </g>
</svg>