<?xml version="1.0" encoding="UTF-8"?>
<svg width="74px" height="74px" viewBox="0 0 74 74" version="1.1" xmlns="http://www.w3.org/2000/svg" xmlns:xlink="http://www.w3.org/1999/xlink">
    <title>Icon-Architecture-Category/48/Satellite_48</title>
    <defs>
        <linearGradient x1="0%" y1="100%" x2="100%" y2="0%" id="linearGradient-1">
            <stop stop-color="#2E27AD" offset="0%"></stop>
            <stop stop-color="#527FFF" offset="100%"></stop>
        </linearGradient>
    </defs>
    <g id="Icon-Architecture-Category/48/Satellite_48" stroke="none" stroke-width="1" fill="none" fill-rule="evenodd">
        <rect id="Rectangle" fill="url(#linearGradient-1)" x="5" y="5" width="64" height="64"></rect>
        <rect id="#879196-Border-Copy-22" stroke="#879196" stroke-width="2" x="1" y="1" width="72" height="72"></rect>
        <g id="Icon-Category/48/Satellite_48" transform="translate(13.000000, 13.000000)" fill="#FFFFFF">
            <path d="M37.5450652,27.4018447 C35.2810652,28.7438447 32.5820652,30.0428447 29.5500652,31.2058447 C23.7740652,33.4228447 17.1410652,34.9428447 11.9390652,35.1068447 C14.4560652,38.8368447 18.7220652,41.2948447 23.5510652,41.2948447 C31.2340652,41.2948447 37.4860652,35.0718447 37.5450652,27.4018447 M8.61906517,32.9948447 C7.94606517,31.2378447 7.56106517,29.3408447 7.55406517,27.3518447 C6.00206517,28.6918447 5.07106517,29.9568447 5.00406517,30.8818447 C4.97606517,31.2668447 5.09906517,31.5688447 5.40206517,31.8618447 C5.98806517,32.4248447 7.10706517,32.8058447 8.61906517,32.9948447 M9.55106517,27.2948447 C9.55106517,29.3798447 10.0220652,31.3518447 10.8420652,33.1318447 C15.3480652,33.1648447 21.9330652,31.9868447 28.8330652,29.3388447 C32.3580652,27.9858447 35.1930652,26.5558447 37.3740652,25.1848447 C36.3520652,18.4648447 30.5520652,13.2948447 23.5510652,13.2948447 C15.8310652,13.2948447 9.55106517,19.5748447 9.55106517,27.2948447 M40.4770652,15.1528447 C40.4770652,14.6018447 40.0280652,14.1528447 39.4770652,14.1528447 C38.9250652,14.1528447 38.4770652,14.6018447 38.4770652,15.1528447 C38.4770652,15.7048447 38.9250652,16.1528447 39.4770652,16.1528447 C40.0280652,16.1528447 40.4770652,15.7048447 40.4770652,15.1528447 M43.7860652,17.1038447 C44.6770652,17.9678447 44.9960652,19.0128447 44.7580652,20.1708447 C44.3810652,22.0078447 42.4800652,24.1048447 39.4930652,26.1588447 C39.5200652,26.5358447 39.5510652,26.9108447 39.5510652,27.2948447 C39.5510652,36.1168447 32.3730652,43.2948447 23.5510652,43.2948447 C17.5600652,43.2948447 12.3340652,39.9798447 9.59306517,35.0918447 C7.11606517,34.9418447 5.14106517,34.3828447 4.01706517,33.3028447 C3.28506517,32.5998447 2.93806517,31.7118447 3.00906517,30.7348447 C3.17906517,28.4288447 5.66906517,26.1538447 7.79406517,24.6158447 C9.07406517,17.0668447 15.6440652,11.2948447 23.5510652,11.2948447 C31.2250652,11.2948447 37.6490652,16.7268447 39.1920652,23.9458447 C41.3820652,22.3158447 42.5790652,20.8378447 42.7990652,19.7688447 C42.8990652,19.2858447 42.7870652,18.9198447 42.4400652,18.5808447 C42.0190652,18.2238447 41.4990652,17.9398447 40.9330652,17.7598447 C40.5000652,18.0028447 40.0080652,18.1528447 39.4770652,18.1528447 C37.8220652,18.1528447 36.4770652,16.8078447 36.4770652,15.1528447 C36.4770652,13.4988447 37.8220652,12.1528447 39.4770652,12.1528447 C41.1310652,12.1528447 42.4770652,13.4988447 42.4770652,15.1528447 C42.4770652,15.5038447 42.4040652,15.8358447 42.2940652,16.1498447 C42.8300652,16.3978447 43.3330652,16.7168447 43.7860652,17.1038447 M38.2950652,9.93584469 C39.2100652,9.62484469 40.1900652,9.69184469 41.0520652,10.1188447 C41.7590652,10.4678447 42.3400652,11.0488447 42.6890652,11.7548447 L44.4820652,10.8688447 C43.9400652,9.77184469 43.0360652,8.86784469 41.9390652,8.32584469 C40.5940652,7.66084469 39.0730652,7.56084469 37.6530652,8.04084469 C36.2340652,8.52184469 35.0870652,9.52584469 34.4230652,10.8688447 L36.2160652,11.7548447 C36.6430652,10.8908447 37.3820652,10.2448447 38.2950652,9.93584469 M46.8960652,8.61284469 L45.1050652,9.50384469 C44.4950652,8.27684469 43.4850652,7.26684469 42.2610652,6.65884469 C39.1420652,5.10884469 35.3480652,6.38784469 33.8000652,9.50284469 L32.0090652,8.61284469 C34.0470652,4.50784469 39.0450652,2.82784469 43.1500652,4.86784469 C44.7630652,5.66884469 46.0930652,6.99884469 46.8960652,8.61284469" id="Satellite_Category-Icon_48_Squid"></path>
        </g>
    </g>
</svg>