<?xml version="1.0" encoding="UTF-8"?>
<svg width="74px" height="74px" viewBox="0 0 74 74" version="1.1" xmlns="http://www.w3.org/2000/svg" xmlns:xlink="http://www.w3.org/1999/xlink">
    <title>Icon-Architecture-Category/48/Security-Identity-Compliance_48</title>
    <defs>
        <linearGradient x1="0%" y1="100%" x2="100%" y2="0%" id="linearGradient-1">
            <stop stop-color="#BD0816" offset="0%"></stop>
            <stop stop-color="#FF5252" offset="100%"></stop>
        </linearGradient>
    </defs>
    <g id="Icon-Architecture-Category/48/Security-Identity-Compliance_48" stroke="none" stroke-width="1" fill="none" fill-rule="evenodd">
        <rect id="Rectangle" fill="url(#linearGradient-1)" x="5" y="5" width="64" height="64"></rect>
        <rect id="#879196-Border-Copy-23" stroke="#879196" stroke-width="2" x="1" y="1" width="72" height="72"></rect>
        <g id="Icon-Category/48/Security-Identity-Compliance_48" transform="translate(13.000000, 13.000000)" fill="#FFFFFF">
            <path d="M38,28.107 C38,28.744 37.841,43.714 24,43.714 C10.188,43.714 10.001,27.715 10,27.035 L10,10.466 L24,5.071 L38,10.466 L38,28.107 Z M39.359,8.847 L24.359,3.066 C24.129,2.978 23.871,2.978 23.641,3.066 L8.641,8.847 C8.255,8.996 8,9.366 8,9.78 L8,27.035 C8,27.222 8.183,45.714 24,45.714 C39.817,45.714 40,28.283 40,28.107 L40,9.78 C40,9.366 39.745,8.996 39.359,8.847 L39.359,8.847 Z M34,28.098 C33.989,29.244 33.639,38.971 25,39.67 L25,9.743 L34,13.211 L34,28.098 Z M14,27.021 L14,13.211 L23,9.743 L23,39.667 C14.344,38.903 14.009,28.268 14,27.021 L14,27.021 Z M23.641,7.353 L12.641,11.592 C12.255,11.741 12,12.111 12,12.525 L12,27.028 C12.011,28.531 12.437,41.714 24,41.714 C28.789,41.714 32.374,39.503 34.367,35.318 C35.888,32.127 35.994,28.759 36,28.107 L36,12.525 C36,12.111 35.745,11.741 35.359,11.592 L24.359,7.353 C24.129,7.264 23.871,7.264 23.641,7.353 L23.641,7.353 Z" id="Security-Identity-Compliance_Category-Icon_48_Squid"></path>
        </g>
    </g>
</svg>