<?xml version="1.0" encoding="UTF-8"?>
<svg width="74px" height="74px" viewBox="0 0 74 74" version="1.1" xmlns="http://www.w3.org/2000/svg" xmlns:xlink="http://www.w3.org/1999/xlink">
    <title>Icon-Architecture-Category/48/Serverless_48</title>
    <defs>
        <linearGradient x1="0%" y1="100%" x2="100%" y2="0%" id="linearGradient-1">
            <stop stop-color="#4D27A8" offset="0%"></stop>
            <stop stop-color="#A166FF" offset="100%"></stop>
        </linearGradient>
    </defs>
    <g id="Icon-Architecture-Category/48/Serverless_48" stroke="none" stroke-width="1" fill="none" fill-rule="evenodd">
        <rect id="#879196-Border-Copy-23" stroke="#879196" stroke-width="2" x="1" y="1" width="72" height="72"></rect>
        <rect id="Rectangle" fill="url(#linearGradient-1)" x="5" y="5" width="64" height="64"></rect>
        <g id="Icon-Category/48/Serverless_48" transform="translate(13.000000, 13.000000)" fill="#FFFFFF">
            <path d="M46.6242816,29.647 C46.6242816,32.023 45.7912816,34.253 44.2782816,35.926 C42.5622816,37.824 40.1402816,38.827 37.2732816,38.827 C31.4702816,38.827 27.6372816,35.104 24.3742816,31.307 C24.0462816,30.925 23.3172816,30.06 23.0492816,29.74 C21.4702816,27.858 19.9692816,26.067 18.3252816,24.709 L18.3302816,29.499 L16.3302816,29.501 L16.3232816,22.501 C16.3232816,22.236 16.4282816,21.981 16.6152816,21.793 C16.8032816,21.606 17.0572816,21.501 17.3222816,21.5 L24.3292816,21.493 L24.3312816,23.493 L19.9782816,23.498 C21.5522816,24.873 22.9952816,26.557 24.3892816,28.225 C24.7562816,28.665 25.5302816,29.598 25.6912816,29.772 C28.9602816,33.304 32.2052816,36.827 37.2732816,36.827 C39.5592816,36.827 41.4682816,36.052 42.7952816,34.584 C43.9582816,33.299 44.6242816,31.499 44.6242816,29.647 C44.6242816,26.316 42.5562816,22.956 37.9352816,22.956 C32.9772816,22.956 29.8752816,25.265 27.1072816,28.202 C26.8402816,27.897 26.5722816,27.593 26.3042816,27.283 C26.1342816,27.087 25.9602816,26.891 25.7882816,26.695 C28.6892816,23.668 32.2462816,21.026 37.7152816,20.958 C37.4412816,18.151 35.5592816,16.5 32.5612816,16.5 L31.8742816,16.5 C31.5112816,16.5 31.1762816,16.303 30.9992816,15.984 C29.2702816,12.863 25.9992816,11 22.2492816,11 C16.7352816,11 12.2492816,15.486 12.2492816,21 C12.2492816,21.552 11.8022816,22 11.2492816,22 C9.22428163,22 7.34528163,22.814 5.95928163,24.293 C4.57428163,25.771 3.88428163,27.704 4.01628163,29.735 C4.26228163,33.528 7.56328163,36.5 11.5322816,36.5 L13.1382816,36.5 C13.5072816,36.5 13.8792816,36.473 14.2452816,36.42 C15.0462816,36.303 15.7592816,36.094 16.3652816,35.797 C18.4112816,34.795 20.0822816,33.153 21.7232816,31.306 C21.7692816,31.359 21.8132816,31.409 21.8592816,31.462 C22.2532816,31.916 22.6542816,32.366 23.0552816,32.816 C21.3552816,34.709 19.5192816,36.479 17.2452816,37.593 C16.4522816,37.981 15.5402816,38.252 14.5332816,38.399 C14.0712816,38.466 13.6032816,38.5 13.1382816,38.5 L11.5322816,38.5 C6.51228163,38.5 2.33428163,34.707 2.02028163,29.864 C1.85228163,27.275 2.73228163,24.811 4.50028163,22.925 C6.02128163,21.302 8.09028163,20.283 10.2862816,20.051 C10.7712816,13.876 15.9512816,9 22.2492816,9 C26.5282816,9 30.2962816,11.044 32.4462816,14.5 L32.5612816,14.5 C36.7292816,14.5 39.4902816,17.071 39.7312816,21.104 C44.4542816,21.912 46.6242816,25.907 46.6242816,29.647" id="Serverless_48"></path>
        </g>
    </g>
</svg>