<?xml version="1.0" encoding="UTF-8"?>
<svg width="64px" height="64px" viewBox="0 0 64 64" version="1.1" xmlns="http://www.w3.org/2000/svg" xmlns:xlink="http://www.w3.org/1999/xlink">
    <title>Icon-Architecture/48/Arch_NICE-EnginFrame_48</title>
    <defs>
        <linearGradient x1="0%" y1="100%" x2="100%" y2="0%" id="linearGradient-1">
            <stop stop-color="#C8511B" offset="0%"></stop>
            <stop stop-color="#FF9900" offset="100%"></stop>
        </linearGradient>
    </defs>
    <g id="Icon-Architecture/48/Arch_NICE-EnginFrame_48" stroke="none" stroke-width="1" fill="none" fill-rule="evenodd">
        <g id="Rectangle" fill="url(#linearGradient-1)">
            <rect x="0" y="0" width="64" height="64"></rect>
        </g>
        <g id="Icon-Service/48/NICE-EnginFrame_48" transform="translate(8.000000, 8.000000)" fill="#FFFFFF">
            <path d="M9.861,27.998 C11.946,32.727 17.573,36 24,36 C32.271,36 39,30.617 39,24 C39,17.384 32.271,12 24,12 C17.573,12 11.946,15.274 9.861,20.003 C9.907,20.001 9.954,20 10,20 L28,20 C30.206,20 32,21.795 32,24 C32,26.206 30.206,28 28,28 L10,28 C9.954,28 9.907,27.999 9.861,27.998 M24,38 C15.885,38 8.872,33.247 7.322,26.696 C7.227,26.293 7.39,25.873 7.732,25.64 C8.075,25.407 8.526,25.41 8.865,25.644 C9.202,25.877 9.593,26 10,26 L28,26 C29.102,26 30,25.103 30,24 C30,22.897 29.102,22 28,22 L10,22 C9.593,22 9.202,22.123 8.865,22.357 C8.526,22.592 8.075,22.594 7.732,22.361 C7.39,22.127 7.227,21.707 7.322,21.305 C8.872,14.754 15.885,10 24,10 C33.374,10 41,16.281 41,24 C41,31.72 33.374,38 24,38 M24,7 C12.971,7 4,14.626 4,24 C4,33.374 12.971,41 24,41 C35.028,41 44,33.374 44,24 C44,14.626 35.028,7 24,7 M24,43 C11.869,43 2,34.477 2,24 C2,13.524 11.869,5 24,5 C36.131,5 46,13.524 46,24 C46,34.477 36.131,43 24,43" id="Fill-6"></path>
        </g>
    </g>
</svg>