<?xml version="1.0" encoding="UTF-8"?>
<svg width="48px" height="48px" viewBox="0 0 48 48" version="1.1" xmlns="http://www.w3.org/2000/svg" xmlns:xlink="http://www.w3.org/1999/xlink">
    <title>Icon-Resource/Media-Services/Res_AWS-Cloud-Digital-Interface_48_Light</title>
    <g id="Icon-Resource/Media-Services/Res_AWS-Cloud-Digital-Interface_48" stroke="none" stroke-width="1" fill="none" fill-rule="evenodd">
        <path d="M7.5,40 C6.121,40 5,38.878 5,37.5 C5,36.122 6.121,35 7.5,35 C8.879,35 10,36.122 10,37.5 C10,38.878 8.879,40 7.5,40 L7.5,40 Z M44,24 C44,35.028 35.028,44 24,44 C19.42,44 15.019,42.421 11.475,39.566 C11.799,38.944 12,38.249 12,37.5 C12,35.019 9.981,33 7.5,33 C5.019,33 3,35.019 3,37.5 C3,39.981 5.019,42 7.5,42 C8.509,42 9.432,41.654 10.184,41.091 C14.09,44.252 18.945,46 24,46 C36.131,46 46,36.131 46,24 L44,24 Z M40.5,8 C41.879,8 43,9.122 43,10.5 C43,11.878 41.879,13 40.5,13 C39.121,13 38,11.878 38,10.5 C38,9.122 39.121,8 40.5,8 L40.5,8 Z M24,4 C28.58,4 32.981,5.579 36.525,8.434 C36.201,9.056 36,9.751 36,10.5 C36,12.981 38.019,15 40.5,15 C42.981,15 45,12.981 45,10.5 C45,8.019 42.981,6 40.5,6 C39.491,6 38.568,6.346 37.816,6.909 C33.91,3.748 29.055,2 24,2 C11.869,2 2,11.869 2,24 L4,24 C4,12.972 12.972,4 24,4 L24,4 Z M22,20.772 L27.912,23.984 L22,27.222 L22,20.772 Z M20.489,18.231 C20.186,18.412 20,18.738 20,19.091 L20,28.909 C20,29.262 20.187,29.589 20.49,29.77 C20.647,29.862 20.823,29.909 21,29.909 C21.165,29.909 21.33,29.868 21.48,29.786 L30.48,24.858 C30.801,24.682 31.001,24.345 31,23.979 C30.999,23.613 30.799,23.277 30.478,23.102 L21.478,18.212 C21.167,18.045 20.793,18.051 20.489,18.231 L20.489,18.231 Z M34,29.774 L24,35.547 L14,29.774 L14,18.226 L24,12.453 L34,18.226 L34,29.774 Z M24.5,10.432 C24.191,10.253 23.809,10.253 23.5,10.432 L12.5,16.783 C12.19,16.961 12,17.292 12,17.649 L12,30.351 C12,30.708 12.19,31.039 12.5,31.217 L23.5,37.568 C23.654,37.657 23.827,37.702 24,37.702 C24.173,37.702 24.346,37.657 24.5,37.568 L35.5,31.217 C35.81,31.039 36,30.708 36,30.351 L36,17.649 C36,17.292 35.81,16.961 35.5,16.783 L24.5,10.432 Z" id="Fill-1" fill="#D45B07"></path>
    </g>
</svg>