<?xml version="1.0" encoding="UTF-8"?>
<svg width="48px" height="48px" viewBox="0 0 48 48" version="1.1" xmlns="http://www.w3.org/2000/svg" xmlns:xlink="http://www.w3.org/1999/xlink">
    <title>Icon-Resource/Developer-Tools/Res_AWS-Cloud9_Cloud9_48_Light</title>
    <g id="Icon-Resource/Developer-Tools/Res_AWS-Cloud9_Cloud9_48" stroke="none" stroke-width="1" fill="none" fill-rule="evenodd">
        <path d="M37.8624,36.1201 L9.1094,36.1201 C8.3834,36.1191 7.8134,35.9821 7.3714,35.7031 C5.8334,34.7321 4.0004,32.8631 4.0004,29.4741 C4.0004,24.9681 7.1344,23.4891 9.0044,23.0101 C9.4664,22.8911 9.7814,22.4601 9.7534,21.9821 L9.6764,20.7151 C9.6764,17.0881 12.1734,13.1851 15.3594,11.8331 C16.7954,11.2231 18.1214,10.9801 19.3234,10.9801 C22.7444,10.9801 25.1594,12.9431 26.2144,14.0051 C27.3774,15.1751 28.2854,16.6721 28.9144,18.4561 C29.0374,18.8051 29.3434,19.0581 29.7104,19.1121 C30.0824,19.1631 30.4424,19.0151 30.6624,18.7161 C31.5724,17.4811 33.1384,16.9691 34.5574,17.4321 C36.1714,17.9621 37.0954,19.5611 37.0934,21.7591 C37.0134,22.2961 37.3784,22.8001 37.9134,22.8911 C39.7434,23.2071 44.0004,24.4841 44.0004,29.5391 C44.0004,35.4021 38.3984,36.0701 37.8624,36.1201 L37.8624,36.1201 Z M39.0684,21.0921 C38.8574,18.3251 37.4384,16.2731 35.1814,15.5321 C33.4674,14.9681 31.6264,15.3051 30.2164,16.3571 C29.5424,14.9061 28.6754,13.6441 27.6324,12.5951 C24.0664,9.0071 19.1854,8.0371 14.5784,9.9911 C10.6434,11.6621 7.6764,16.2721 7.6784,20.7731 L7.7104,21.3121 C5.5324,22.0691 2.0004,24.1221 2.0004,29.4741 C2.0004,34.0011 4.6964,36.3801 6.3024,37.3941 C7.0744,37.8821 7.9924,38.1191 9.1084,38.1201 L37.9054,38.1201 C37.9294,38.1201 37.9544,38.1191 37.9784,38.1171 C40.7534,37.9151 46.0004,35.8611 46.0004,29.5391 C46.0004,24.5571 42.5564,21.9571 39.0684,21.0921 L39.0684,21.0921 Z M26.7794,26.0371 C26.3524,26.2761 25.8834,26.4641 25.3704,26.5971 C24.8564,26.7301 24.3464,26.7971 23.8404,26.7971 C22.9604,26.7971 22.2934,26.5541 21.8404,26.0661 C21.3854,25.5801 21.1594,24.8701 21.1594,23.9361 C21.1594,23.0571 21.3964,22.3531 21.8704,21.8261 C22.3424,21.3001 22.9724,21.0371 23.7594,21.0371 C25.7324,21.0371 26.7394,22.6101 26.7794,25.7571 L26.7794,26.0371 Z M23.7994,19.3961 C22.8804,19.3961 22.0664,19.5991 21.3594,20.0071 C20.6524,20.4131 20.1094,20.9671 19.7294,21.6671 C19.3494,22.3661 19.1594,23.1631 19.1594,24.0571 C19.1594,25.4031 19.5364,26.4641 20.2904,27.2361 C21.0434,28.0101 22.0664,28.3961 23.3594,28.3961 C23.9724,28.3961 24.5734,28.3071 25.1594,28.1271 C25.7464,27.9461 26.2794,27.6961 26.7594,27.3771 C26.6664,29.0301 26.2904,30.2501 25.6304,31.0371 C24.9694,31.8231 24.0004,32.2171 22.7194,32.2171 C21.8004,32.2171 20.7934,31.9701 19.6994,31.4761 L19.6994,32.9971 C20.5804,33.5691 21.6794,33.8561 23.0004,33.8561 C24.8404,33.8561 26.2594,33.1831 27.2594,31.8371 C28.2594,30.4901 28.7594,28.5631 28.7594,26.0571 C28.7594,23.8841 28.3364,22.2301 27.4894,21.0971 C26.6424,19.9641 25.4134,19.3961 23.7994,19.3961 L23.7994,19.3961 Z" id="AWS_AWS-Cloud9_Resource-Icon_light-bg" fill="#2E27AD"></path>
    </g>
</svg>