<?xml version="1.0" encoding="UTF-8"?>
<svg width="48px" height="48px" viewBox="0 0 48 48" version="1.1" xmlns="http://www.w3.org/2000/svg" xmlns:xlink="http://www.w3.org/1999/xlink">
    <title>Icon-Resource/Security-Identity-and-Compliance/Res_AWS-Directory-Service_Simple-AD_48_Light</title>
    <g id="Icon-Resource/Security-Identity-and-Compliance/Res_AWS-Directory-Service_Simple-AD_48" stroke="none" stroke-width="1" fill="none" fill-rule="evenodd">
        <path d="M43.8808,41.2608 L43.8798,26.3408 C42.0338,27.2478 39.1728,27.6758 36.4378,27.6758 C33.7018,27.6758 30.8418,27.2478 28.9958,26.3418 L28.9958,41.2718 C29.1178,41.7538 31.5948,43.0518 36.4378,43.0518 C41.2808,43.0518 43.7578,41.7538 43.8808,41.2608 L43.8808,41.2608 Z M28.9958,23.8958 C29.1188,24.3778 31.5968,25.6758 36.4378,25.6758 C41.2658,25.6758 43.7428,24.3848 43.8798,23.8888 L43.8798,23.7958 C43.7578,23.3138 41.2808,22.0158 36.4378,22.0158 C31.6078,22.0158 29.1318,23.3068 28.9958,23.8028 L28.9958,23.8958 Z M45.8798,23.7938 L45.8798,23.7958 L45.8798,41.2718 C45.8798,43.8688 40.9848,45.0518 36.4378,45.0518 C31.8908,45.0518 26.9958,43.8688 26.9958,41.2718 L26.9958,23.7958 L26.9958,23.7938 C26.9978,21.1988 31.8918,20.0158 36.4378,20.0158 C40.9848,20.0158 45.8778,21.1988 45.8798,23.7938 L45.8798,23.7938 Z M26.0948,35.2488 C26.0948,35.8018 25.6478,36.2488 25.0948,36.2488 L2.9998,36.2488 C2.6428,36.2488 2.3128,36.0588 2.1338,35.7488 C1.9548,35.4398 1.9548,35.0588 2.1338,34.7488 L20.7528,2.4998 C20.9318,2.1908 21.2618,1.9998 21.6188,1.9998 C21.9768,1.9998 22.3068,2.1908 22.4848,2.4998 L31.3568,17.8658 C31.6328,18.3448 31.4688,18.9558 30.9898,19.2328 C30.5128,19.5068 29.8998,19.3448 29.6238,18.8658 L21.6188,4.9998 L4.7328,34.2488 L25.0948,34.2488 C25.6478,34.2488 26.0948,34.6968 26.0948,35.2488 L26.0948,35.2488 Z" id="AWS-Directory-Service_Simple-AD_Resource-Icon_light-bg" fill="#BF0816"></path>
    </g>
</svg>