<?xml version="1.0" encoding="UTF-8"?>
<svg width="48px" height="48px" viewBox="0 0 48 48" version="1.1" xmlns="http://www.w3.org/2000/svg" xmlns:xlink="http://www.w3.org/1999/xlink">
    <title>Icon-Resource/Security-Identity-and-Compliance/Res_AWS-Identity-Access-Management_Encrypted-Data_48_Light</title>
    <g id="Icon-Resource/Security-Identity-and-Compliance/Res_AWS-Identity-Access-Management_Encrypted-Data_48" stroke="none" stroke-width="1" fill="none" fill-rule="evenodd">
        <path d="M22.8353,28.1396 C23.0343,27.9406 23.3003,27.8306 23.5823,27.8306 L23.5833,27.8306 C23.8653,27.8306 24.1313,27.9416 24.3313,28.1406 C24.5303,28.3406 24.6403,28.6056 24.6403,28.8876 L24.6403,28.8886 C24.6403,29.1716 24.5293,29.4376 24.3293,29.6366 C24.1303,29.8356 23.8663,29.9456 23.5833,29.9456 L23.5813,29.9456 C22.9993,29.9456 22.5253,29.4706 22.5253,28.8886 C22.5253,28.6056 22.6363,28.3396 22.8353,28.1396 L22.8353,28.1396 Z M22.5823,31.7636 L22.5823,35.2906 L24.5823,35.2906 L24.5823,31.7666 C25.0123,31.6176 25.4103,31.3836 25.7423,31.0526 C26.3203,30.4746 26.6403023,29.7066 26.6403023,28.8896 C26.6413,28.0736 26.3223,27.3046 25.7453,26.7276 C25.1683,26.1496 24.4003,25.8306 23.5843,25.8306 L23.5813,25.8306 C22.7663,25.8306 21.9983,26.1486 21.4213,26.7256 C20.8443,27.3026 20.5263,28.0706 20.5253,28.8876 C20.5253,30.2216 21.3903,31.3476 22.5823,31.7636 L22.5823,31.7636 Z M32.1763,37.7826 L15.0193,37.7746 L15.0233,24.0736 L32.1833,24.0806 L32.1763,37.7826 Z M19.3493,18.8556 C19.3533,17.6756 19.8013,16.5696 20.6103,15.7406 C21.4093,14.9226 22.4663,14.4736 23.5873,14.4736 L23.6023,14.4736 C24.7243,14.4766 25.7763,14.9366 26.5683,15.7656 C27.3673,16.6046 27.8063,17.7186 27.8023271,18.9076 L27.8023271,22.0786 L19.3333,22.0756 L19.3493,18.8556 Z M33.1833,22.0806 L29.8023,22.0796 L29.8023,18.9106 C29.8083,17.2066 29.1733,15.5996 28.0163,14.3856 C26.8453,13.1586 25.2793,12.4786 23.6073,12.4736 L23.5873,12.4736 C21.9233,12.4736 20.3583,13.1366 19.1803,14.3426 C18.0053,15.5456 17.3553,17.1466 17.3493,18.8476 L17.3333,22.0746 L14.0233,22.0736 C13.7593,22.0736 13.5043,22.1786 13.3163,22.3666 C13.1293,22.5536 13.0233,22.8076 13.0233,23.0736 L13.0193,38.7746 C13.0193,39.3266 13.4663,39.7746 14.0193,39.7746 L33.1763,39.7826 C33.7283,39.7826 34.1763,39.3346 34.1763,38.7826 L34.1833,23.0806 C34.1833,22.8166 34.0773,22.5616 33.8903,22.3736 C33.7023,22.1866 33.4483,22.0806 33.1833,22.0806 L33.1833,22.0806 Z M39.1643,43.3116 C39.1643,43.6316 38.9043,43.8916 38.5853,43.8916 L8.5803,43.8916 C8.2603,43.8916 8.0003,43.6316 8.0003,43.3116 L8.0003,4.5796 C8.0003,4.2596 8.2603,3.9996 8.5803,3.9996 L29.5643,3.9996 L29.5643,12.6006 C29.5643,13.1536 30.0123,13.6006 30.5643,13.6006 L39.1643,13.6006 L39.1643,25.1776 L39.1643,43.3116 Z M31.5643,5.4136 L37.7503,11.6006 L31.5643,11.6006 L31.5643,5.4136 Z M30.9793,1.9996 L8.5803,1.9996 C7.1573,1.9996 6.0003,3.1576 6.0003,4.5796 L6.0003,43.3116 C6.0003,44.7346 7.1573,45.8916 8.5803,45.8916 L38.5853,45.8916 C40.0073,45.8916 41.1643,44.7346 41.1643,43.3116 L41.1643,25.1776 L41.1643,13.1796 L41.1643,12.1866 L30.9793,1.9996 Z" id="AWS-Identity-and-Access-Management_Encrypted-data_-Resource-Icon_light-bg" fill="#BF0816"></path>
    </g>
</svg>