<?xml version="1.0" encoding="UTF-8"?>
<svg width="48px" height="48px" viewBox="0 0 48 48" version="1.1" xmlns="http://www.w3.org/2000/svg" xmlns:xlink="http://www.w3.org/1999/xlink">
    <title>Icon-Resource/Analytics/Res_CloudSearch_Search-Documents_48_Light</title>
    <g id="Icon-Resource/Analytics/Res_CloudSearch_Search-Documents_48" stroke="none" stroke-width="1" fill="none" fill-rule="evenodd">
        <path d="M41.406,14.6378 L38.823,16.5748 L41.406,18.5128 L41.406,14.6378 Z M43.406,12.6378 L43.406,20.5128 C43.406,20.8918 43.192,21.2378 42.853,21.4078 C42.712,21.4778 42.558,21.5128 42.406,21.5128 C42.193,21.5128 41.982,21.4448 41.806,21.3128 L36.557,17.3748 C36.305,17.1868 36.157,16.8898 36.157,16.5748 C36.157,16.2608 36.305,15.9638 36.557,15.7758 L41.806,11.8378 C42.108,11.6108 42.513,11.5738 42.853,11.7428 C43.192,11.9128 43.406,12.2588 43.406,12.6378 L43.406,12.6378 Z M9.243,16.5748 L6.66,14.6378 L6.66,18.5128 L9.243,16.5748 Z M11.51,17.3748 L6.26,21.3128 C6.084,21.4448 5.872,21.5128 5.66,21.5128 C5.508,21.5128 5.354,21.4778 5.213,21.4078 C4.874,21.2378 4.66,20.8918 4.66,20.5128 L4.66,12.6378 C4.66,12.2588 4.874,11.9128 5.213,11.7428 C5.552,11.5738 5.957,11.6108 6.26,11.8378 L11.51,15.7758 C11.761,15.9638 11.91,16.2608 11.91,16.5748 C11.91,16.8898 11.761,17.1868 11.51,17.3748 L11.51,17.3748 Z M12.66,40.7628 L35.41,40.7628 L35.41,38.7628 L12.66,38.7628 L12.66,40.7628 Z M12.66,35.5128 L35.41,35.5128 L35.41,33.5128 L12.66,33.5128 L12.66,35.5128 Z M12.66,30.2628 L35.41,30.2628 L35.41,28.2628 L12.66,28.2628 L12.66,30.2628 Z M12.66,25.0128 L35.41,25.0128 L35.41,23.0128 L12.66,23.0128 L12.66,25.0128 Z M12.66,19.7628 L35.41,19.7628 L35.41,17.7628 L12.66,17.7628 L12.66,19.7628 Z M12.769,14.5128 L35.41,14.5128 L35.41,12.5128 L12.769,12.5128 L12.769,14.5128 Z M12.66,9.2628 L35.41,9.2628 L35.41,7.2628 L12.66,7.2628 L12.66,9.2628 Z M37.91,44.0128 L10.16,44.0128 L10.16,21.3878 L8.16,21.3878 L8.16,46.0128 L39.91,46.0128 L39.91,21.3878 L37.91,21.3878 L37.91,44.0128 Z M10.16,11.7628 L8.16,11.7628 L8.16,2.0128 L39.91,2.0128 L39.91,11.7628 L37.91,11.7628 L37.91,4.0128 L10.16,4.0128 L10.16,11.7628 Z" id="Icon-Resource/48/CloudSearch-Search_Documents" fill="#4D27AA"></path>
    </g>
</svg>