<?xml version="1.0" encoding="UTF-8"?>
<svg width="48px" height="48px" viewBox="0 0 48 48" version="1.1" xmlns="http://www.w3.org/2000/svg" xmlns:xlink="http://www.w3.org/1999/xlink">
    <title>Icon-Resource/Analytics/Res_AWS-Lake-Formation_Data-Lake_48_Light</title>
    <g id="Icon-Resource/Analytics/Res_AWS-Lake-Formation_Data-Lake_48" stroke="none" stroke-width="1" fill="none" fill-rule="evenodd">
        <path d="M46,31 L46,33 C45.815,33.107 45.479,33.933 45.3,34.376 C44.824,35.545 44.232,37 42.745,37 C41.258,37 40.666,35.545 40.19,34.376 C40.011,33.933 39.675,33.107 39.458,32.992 C39.307,33.108 38.972,33.934 38.792,34.376 C38.316,35.545 37.726,37 36.24,37 C34.755,37 34.163,35.545 33.688,34.376 C33.509,33.933 33.174,33.108 32.957,32.991 C32.809,33.108 32.474,33.933 32.294,34.376 C31.819,35.545 31.228,37 29.742,37 C28.258,37 27.668,35.545 27.193,34.376 C27.014,33.933 26.68,33.108 26.463,32.991 C26.314,33.108 25.979,33.934 25.8,34.377 C25.325,35.546 24.734,37 23.249,37 C21.764,37 21.173,35.546 20.698,34.377 C20.519,33.934 20.184,33.108 19.967,32.992 L20,31 C21.485,31 22.077,32.455 22.552,33.624 C22.731,34.067 23.066,34.892 23.283,35.009 C23.432,34.892 23.767,34.067 23.946,33.624 C24.421,32.455 25.013,31 26.498,31 C27.982,31 28.572,32.455 29.047,33.624 C29.227,34.067 29.561,34.892 29.777,35.009 C29.926,34.892 30.261,34.066 30.44,33.623 C30.915,32.454 31.506,31 32.991,31 C34.477,31 35.067,32.454 35.542,33.623 C35.722,34.066 36.057,34.892 36.273,35.008 C36.424,34.892 36.759,34.066 36.938,33.624 C37.414,32.455 38.005,31 39.49,31 C40.977,31 41.568,32.454 42.043,33.623 C42.224,34.066 42.56,34.893 42.777,35.008 C42.931,34.893 43.267,34.066 43.447,33.623 C43.922,32.454 44.514,31 46,31 L46,31 Z M46,24 L46,26 C45.815,26.107 45.479,26.933 45.3,27.376 C44.824,28.545 44.232,30 42.745,30 C41.258,30 40.666,28.545 40.19,27.376 C40.011,26.933 39.675,26.107 39.458,25.992 C39.307,26.108 38.972,26.934 38.792,27.376 C38.316,28.545 37.726,30 36.24,30 C34.755,30 34.163,28.545 33.688,27.376 C33.509,26.933 33.174,26.108 32.957,25.991 C32.809,26.108 32.474,26.933 32.294,27.376 C31.819,28.545 31.228,30 29.742,30 C28.258,30 27.668,28.545 27.193,27.376 C27.014,26.933 26.68,26.108 26.463,25.991 C26.314,26.108 25.979,26.934 25.8,27.377 C25.325,28.546 24.734,30 23.249,30 C21.764,30 21.173,28.546 20.698,27.377 C20.519,26.934 20.184,26.108 19.967,25.992 L20,24 C21.485,24 22.077,25.455 22.552,26.624 C22.731,27.067 23.066,27.892 23.283,28.009 C23.432,27.892 23.767,27.067 23.946,26.624 C24.421,25.455 25.013,24 26.498,24 C27.982,24 28.572,25.455 29.047,26.624 C29.227,27.067 29.561,27.892 29.777,28.009 C29.926,27.892 30.261,27.066 30.44,26.623 C30.915,25.454 31.506,24 32.991,24 C34.477,24 35.067,25.454 35.542,26.623 C35.722,27.066 36.057,27.892 36.273,28.008 C36.424,27.892 36.759,27.066 36.938,26.624 C37.414,25.455 38.005,24 39.49,24 C40.977,24 41.568,25.454 42.043,26.623 C42.224,27.066 42.56,27.893 42.777,28.008 C42.931,27.893 43.267,27.066 43.447,26.623 C43.922,25.454 44.514,24 46,24 L46,24 Z M46,16 L46,18 C45.815,18.107 45.479,18.933 45.3,19.376 C44.824,20.545 44.232,22 42.745,22 C41.258,22 40.666,20.545 40.19,19.376 C40.011,18.933 39.675,18.107 39.458,17.992 C39.307,18.108 38.972,18.934 38.792,19.376 C38.316,20.545 37.726,22 36.24,22 C34.755,22 34.163,20.545 33.688,19.376 C33.509,18.933 33.174,18.108 32.957,17.991 C32.809,18.108 32.474,18.933 32.294,19.376 C31.819,20.545 31.228,22 29.742,22 C28.258,22 27.668,20.545 27.193,19.376 C27.014,18.933 26.68,18.108 26.463,17.991 C26.314,18.108 25.979,18.934 25.8,19.377 C25.325,20.546 24.734,22 23.249,22 C21.764,22 21.173,20.546 20.698,19.377 C20.519,18.934 20.184,18.108 19.967,17.992 L20,16 C21.485,16 22.077,17.455 22.552,18.624 C22.731,19.067 23.066,19.892 23.283,20.009 C23.432,19.892 23.767,19.067 23.946,18.624 C24.421,17.455 25.013,16 26.498,16 C27.982,16 28.572,17.455 29.047,18.624 C29.227,19.067 29.561,19.892 29.777,20.009 C29.926,19.892 30.261,19.066 30.44,18.623 C30.915,17.454 31.506,16 32.991,16 C34.477,16 35.067,17.454 35.542,18.623 C35.722,19.066 36.057,19.892 36.273,20.008 C36.424,19.892 36.759,19.066 36.938,18.624 C37.414,17.455 38.005,16 39.49,16 C40.977,16 41.568,17.454 42.043,18.623 C42.224,19.066 42.56,19.893 42.777,20.008 C42.931,19.893 43.267,19.066 43.447,18.623 C43.922,17.454 44.514,16 46,16 L46,16 Z M16.136,4 C23.717,4 29,6.165 29,8.107 C29,10.051 23.717,12.216 16.136,12.216 C8.64,12.216 4,10.083 4,8.107 C4,6.132 8.64,4 16.136,4 L16.136,4 Z M29,39.486 C29,41.43 23.717,43.595 16.136,43.595 C8.539,43.595 4,41.506 4,39.486 L4,32.637 C6.358,34.349 10.658,35.378 16.136,35.378 L16.136,33.378 C8.539,33.378 4,31.303 4,29.297 L4,22.409 C6.358,24.128 10.658,25.162 16.136,25.162 L16.136,23.162 C8.64,23.162 4,21.029 4,19.054 L4,11.463 C6.358,13.182 10.658,14.216 16.136,14.216 C21.19,14.216 26.285,13.231 29,11.326 L29,15 L31,15 L31,8 L30.987,8 C30.852,4.062 23.454,2 16.136,2 C7.765,2 2.123,4.407 2.011,8 L2,8 L2,39.486 C2,43.14 7.681,45.595 16.136,45.595 C23.295,45.595 31,43.684 31,39.486 L31,38 L29,38 L29,39.486 Z" id="Icon-Resource/48/AWS-Lake-Formation_Data-Lake" fill="#4D27AA"></path>
    </g>
</svg>