<?xml version="1.0" encoding="UTF-8"?>
<svg width="48px" height="48px" viewBox="0 0 48 48" version="1.1" xmlns="http://www.w3.org/2000/svg" xmlns:xlink="http://www.w3.org/1999/xlink">
    <title>Icon-Resource/Analytics/Res_Amazon-MSK_MSK-Connect_48_Light</title>
    <g id="Icon-Resource/Analytics/Res_Amazon-MSK_MSK-Connect_48" stroke="none" stroke-width="1" fill="none" fill-rule="evenodd">
        <path d="M29.035,38.3799 L30.133,39.4029 L23.998,45.9999 L17.865,39.4029 L18.964,38.3799 L23,42.7229 L23,27.1029 L7.961,19.3869 L9.981,24.9579 L8.569,25.4689 L5.501,16.9989 L14.17,14.5539 L14.579,15.9979 L8.871,17.6069 L24,25.3689 L39.126,17.6079 L33.422,15.9999 L33.83,14.5549 L42.501,17.0019 L39.431,25.4699 L38.019,24.9599 L40.041,19.3849 L25,27.1029 L25,42.7199 L29.035,38.3799 Z M41.5,37.9999 C40.121,37.9999 39,36.8789 39,35.4999 C39,34.1219 40.121,32.9999 41.5,32.9999 C42.879,32.9999 44,34.1219 44,35.4999 C44,36.8789 42.879,37.9999 41.5,37.9999 L41.5,37.9999 Z M41.5,30.9999 C40.984,30.9999 40.496,31.1049 40.035,31.2659 L35.473,23.9699 L33.778,25.0299 L38.33,32.3109 C37.738,32.8999 37.315,33.6539 37.122,34.4949 L27,34.4949 L27,36.4949 L37.119,36.4949 C37.574,38.4979 39.361,39.9999 41.5,39.9999 C43.981,39.9999 46,37.9819 46,35.4999 C46,33.0189 43.981,30.9999 41.5,30.9999 L41.5,30.9999 Z M6.5,37.9999 C5.121,37.9999 4,36.8789 4,35.4999 C4,34.1219 5.121,32.9999 6.5,32.9999 C7.879,32.9999 9,34.1219 9,35.4999 C9,36.8789 7.879,37.9999 6.5,37.9999 L6.5,37.9999 Z M21,36.4949 L21,34.4949 L10.878,34.4949 C10.684,33.6539 10.262,32.8999 9.67,32.3109 L14.222,25.0299 L12.526,23.9699 L7.965,31.2659 C7.503,31.1049 7.015,30.9999 6.5,30.9999 C4.018,30.9999 2,33.0189 2,35.4999 C2,37.9819 4.018,39.9999 6.5,39.9999 C8.639,39.9999 10.426,38.4979 10.881,36.4949 L21,36.4949 Z M24,4.9999 C25.379,4.9999 26.5,6.1219 26.5,7.4999 C26.5,8.8789 25.379,9.9999 24,9.9999 C22.621,9.9999 21.5,8.8789 21.5,7.4999 C21.5,6.1219 22.621,4.9999 24,4.9999 L24,4.9999 Z M17.453,19.8629 L22.536,11.7349 C22.997,11.8949 23.484,11.9999 24,11.9999 C24.515,11.9999 25.003,11.8949 25.465,11.7339 L30.547,19.8629 L32.242,18.8019 L27.17,10.6899 C27.99,9.8739 28.5,8.7459 28.5,7.4999 C28.5,5.0189 26.481,2.9999 24,2.9999 C21.518,2.9999 19.5,5.0189 19.5,7.4999 C19.5,8.7459 20.01,9.8739 20.831,10.6899 L15.758,18.8019 L17.453,19.8629 Z" id="Fill-1" fill="#4D27AA"></path>
    </g>
</svg>