<?xml version="1.0" encoding="UTF-8"?>
<svg width="48px" height="48px" viewBox="0 0 48 48" version="1.1" xmlns="http://www.w3.org/2000/svg" xmlns:xlink="http://www.w3.org/1999/xlink">
    <title>Icon-Resource/Analytics/Res_Amazon-Redshift_Dense-Storage-Node_48_Light</title>
    <g id="Icon-Resource/Analytics/Res_Amazon-Redshift_Dense-Storage-Node_48" stroke="none" stroke-width="1" fill="none" fill-rule="evenodd">
        <path d="M18.339,24.646 C18.447,24.908 18.502,25.224 18.502,25.595 C18.502,26.315 18.271,26.884 17.804,27.305 C17.338,27.726 16.696,27.935 15.878,27.935 C15.522,27.935 15.165,27.894 14.81,27.811 C14.453,27.728 14.154,27.618 13.912,27.481 L13.912,26.289 C14.193,26.394 14.509,26.483 14.861,26.555 C15.214,26.627 15.514,26.664 15.765,26.664 C16.128,26.664 16.404,26.578 16.594,26.408 C16.783,26.238 16.878,25.993 16.878,25.674 C16.878,25.44 16.812,25.242 16.679,25.079 C16.547,24.916 16.324,24.75 16.014,24.584 L15.401,24.254 C14.841,23.951 14.439,23.625 14.196,23.277 C13.953,22.928 13.832,22.504 13.832,22.004 C13.832,21.542 13.94,21.138 14.152,20.794 C14.362,20.45 14.652,20.184 15.02,19.999 C15.388,19.813 15.81,19.72 16.287,19.72 C16.886,19.72 17.48,19.857 18.07,20.129 L18.07,21.334 C17.457,21.107 16.915,20.993 16.446,20.993 C16.128,20.993 15.878,21.073 15.696,21.232 C15.514,21.391 15.423,21.61 15.423,21.891 C15.423,22.125 15.483,22.319 15.6,22.47 C15.717,22.622 15.943,22.789 16.276,22.97 L16.889,23.3 C17.283,23.512 17.596,23.724 17.827,23.936 C18.058,24.149 18.229,24.384 18.339,24.646 L18.339,24.646 Z M11.288,23.936 C11.288,24.823 11.167,25.48 10.925,25.908 C10.682,26.335 10.315,26.549 9.821,26.549 L9.151,26.549 L9.151,21.107 L9.811,21.107 C10.318,21.107 10.692,21.317 10.93,21.738 C11.168,22.158 11.288,22.815 11.288,23.709 L11.288,23.936 Z M9.936,19.891 L7.561,19.891 L7.561,27.765 L9.992,27.765 C10.947,27.765 11.674,27.432 12.175,26.765 C12.674,26.099 12.924,25.118 12.924,23.823 C12.924,22.535 12.67,21.557 12.163,20.891 C11.655,20.224 10.912,19.891 9.936,19.891 L9.936,19.891 Z M36.959,26.5 C36.471,26.566 36.089,26.967 36.089,27.474 L36.089,30.457 L33.756,29.678 L36.444,25.749 L36.959,26.5 Z M38.089,34.34 L43.956,34.34 L43.956,28.474 L38.089,28.474 L38.089,34.34 Z M33.719,39.485 L33.719,37.088 C33.719,36.536 33.272,36.088 32.719,36.088 L29.37,36.088 L32.582,31.394 L36.089,32.564 L36.089,35.34 C36.089,35.893 36.536,36.34 37.089,36.34 L37.928,36.34 C36.407,37.494 34.842,38.656 33.719,39.485 L33.719,39.485 Z M25.853,43.956 L31.719,43.956 L31.719,38.089 L25.853,38.089 L25.853,43.956 Z M23.104,31.97 C23.656,31.97 24.104,31.523 24.104,30.97 L24.104,28.565 L30.61,30.736 L26.947,36.088 L24.853,36.088 C24.625,36.088 24.427,36.177 24.259,36.304 L18.927,31.97 L23.104,31.97 Z M4,29.97 L22.104,29.97 L22.104,17.985 L4,17.985 L4,29.97 Z M24.259,11.651 C24.427,11.778 24.626,11.867 24.853,11.867 L26.947,11.867 L30.61,17.219 L24.104,19.391 L24.104,16.985 C24.104,16.432 23.656,15.985 23.104,15.985 L18.928,15.985 L24.259,11.651 Z M25.853,9.866 L31.719,9.866 L31.719,4 L25.853,4 L25.853,9.866 Z M37.928,11.615 L37.089,11.615 C36.536,11.615 36.089,12.062 36.089,12.615 L36.089,15.391 L32.582,16.561 L29.37,11.867 L32.719,11.867 C33.272,11.867 33.719,11.419 33.719,10.867 L33.719,8.471 C34.842,9.299 36.407,10.461 37.928,11.615 L37.928,11.615 Z M38.089,19.482 L43.956,19.482 L43.956,13.615 L38.089,13.615 L38.089,19.482 Z M33.756,18.277 L36.089,17.499 L36.089,20.482 C36.089,20.989 36.471,21.39 36.959,21.456 L36.444,22.208 L33.756,18.277 Z M24.104,21.499 L31.783,18.935 L35.234,23.978 L31.783,29.02 L24.104,26.458 L24.104,21.499 Z M39.364,21.482 L44.956,21.482 C45.509,21.482 45.956,21.035 45.956,20.482 L45.956,12.615 C45.956,12.062 45.509,11.615 44.956,11.615 L41.209,11.615 C38.585,9.565 34.926,6.874 33.719,5.989 L33.719,3 C33.719,2.448 33.272,2 32.719,2 L24.853,2 C24.3,2 23.853,2.448 23.853,3 L23.853,9.403 L15.755,15.985 L3,15.985 C2.447,15.985 2,16.432 2,16.985 L2,30.97 C2,31.523 2.447,31.97 3,31.97 L15.755,31.97 L23.853,38.553 L23.853,44.956 C23.853,45.508 24.3,45.956 24.853,45.956 L32.719,45.956 C33.272,45.956 33.719,45.508 33.719,44.956 L33.719,41.967 C34.926,41.083 38.585,38.39 41.209,36.34 L44.956,36.34 C45.509,36.34 45.956,35.893 45.956,35.34 L45.956,27.474 C45.956,26.921 45.509,26.474 44.956,26.474 L39.364,26.474 L37.656,23.978 L39.364,21.482 Z" id="Fill-18" fill="#4D27AA"></path>
    </g>
</svg>