<?xml version="1.0" encoding="UTF-8"?>
<svg width="48px" height="48px" viewBox="0 0 48 48" version="1.1" xmlns="http://www.w3.org/2000/svg" xmlns:xlink="http://www.w3.org/1999/xlink">
    <title>Icon-Resource/Quantum-Technologies/Res_Amazon-Braket_Simulator-2 _48_Light</title>
    <g id="Icon-Resource/Quantum-Technologies/Res_Amazon-Braket_Simulator-2-_48" stroke="none" stroke-width="1" fill="none" fill-rule="evenodd">
        <path d="M9,39 L39,39 L39,9 L9,9 L9,39 Z M41,13 L41,17 L46,17 L46,19 L41,19 L41,23 L46,23 L46,25 L41,25 L41,29 L46,29 L46,31 L41,31 L41,35 L46,35 L46,37 L41,37 L41,40 C41,40.552 40.553,41 40,41 L37,41 L37,46 L35,46 L35,41 L31,41 L31,46 L29,46 L29,41 L25,41 L25,46 L23,46 L23,41 L19,41 L19,46 L17,46 L17,41 L13,41 L13,46 L11,46 L11,41 L8,41 C7.447,41 7,40.552 7,40 L7,37 L2,37 L2,35 L7,35 L7,31 L2,31 L2,29 L7,29 L7,25 L2,25 L2,23 L7,23 L7,19 L2,19 L2,17 L7,17 L7,13 L2,13 L2,11 L7,11 L7,8 C7,7.448 7.447,7 8,7 L11,7 L11,2 L13,2 L13,7 L17,7 L17,2 L19,2 L19,7 L23,7 L23,2 L25,2 L25,7 L29,7 L29,2 L31,2 L31,7 L35,7 L35,2 L37,2 L37,7 L40,7 C40.553,7 41,7.448 41,8 L41,11 L46,11 L46,13 L41,13 Z M34.655,23.921 C33.553,23.921 32.655,23.024 32.655,21.921 C32.655,20.818 33.553,19.921 34.655,19.921 C35.758,19.921 36.655,20.818 36.655,21.921 C36.655,23.024 35.758,23.921 34.655,23.921 L34.655,23.921 Z M24.146,33.909 C23.943,31.892 22.256,30.305 20.186,30.305 C19.086,30.305 18.09,30.751 17.366,31.471 C15.164,29.567 13.899,26.854 13.899,23.921 C13.899,22.237 14.339,20.614 15.135,19.154 C15.631,19.375 16.177,19.503 16.754,19.503 C18.96,19.503 20.754,17.708 20.754,15.503 C20.754,15.148 20.692,14.81 20.605,14.482 C21.659,14.113 22.762,13.921 23.899,13.921 C27.399,13.921 30.554,15.717 32.372,18.645 C31.337,19.369 30.655,20.565 30.655,21.921 C30.655,23.802 31.965,25.374 33.717,25.798 C32.85,30.339 28.906,33.792 24.146,33.909 L24.146,33.909 Z M22.147,34.693 L22.147,34.694 C21.965,35.627 21.14,36.305 20.186,36.305 C19.083,36.305 18.186,35.408 18.186,34.305 C18.186,33.202 19.083,32.305 20.186,32.305 C21.288,32.305 22.186,33.202 22.186,34.305 C22.186,34.437 22.173,34.568 22.147,34.693 L22.147,34.693 Z M16.754,13.503 C17.856,13.503 18.754,14.4 18.754,15.503 C18.754,16.606 17.856,17.503 16.754,17.503 C15.651,17.503 14.754,16.606 14.754,15.503 C14.754,14.4 15.651,13.503 16.754,13.503 L16.754,13.503 Z M38.655,21.921 C38.655,19.716 36.861,17.921 34.655,17.921 C34.537,17.921 34.426,17.946 34.311,17.956 C32.172,14.216 28.25,11.921 23.899,11.921 C22.417,11.921 20.984,12.202 19.621,12.724 C18.894,11.974 17.879,11.503 16.754,11.503 C14.548,11.503 12.754,13.297 12.754,15.503 C12.754,16.389 13.053,17.201 13.542,17.864 C12.468,19.698 11.899,21.775 11.899,23.921 C11.899,27.57 13.524,30.941 16.35,33.233 C16.254,33.576 16.186,33.931 16.186,34.305 C16.186,36.511 17.979,38.305 20.186,38.305 C21.843,38.305 23.303,37.28 23.899,35.786 L23.899,35.921 C29.893,35.921 34.859,31.5 35.745,25.751 C37.419,25.273 38.655,23.747 38.655,21.921 L38.655,21.921 Z M23.899,25.921 C22.797,25.921 21.899,25.024 21.899,23.921 C21.899,22.818 22.797,21.921 23.899,21.921 C25.002,21.921 25.899,22.818 25.899,23.921 C25.899,25.024 25.002,25.921 23.899,25.921 L23.899,25.921 Z M23.899,19.921 C21.693,19.921 19.899,21.716 19.899,23.921 C19.899,26.127 21.693,27.921 23.899,27.921 C26.105,27.921 27.899,26.127 27.899,23.921 C27.899,21.716 26.105,19.921 23.899,19.921 L23.899,19.921 Z" id="Fill-1" fill="#D45B07"></path>
    </g>
</svg>