<?xml version="1.0" encoding="UTF-8"?>
<svg width="48px" height="48px" viewBox="0 0 48 48" version="1.1" xmlns="http://www.w3.org/2000/svg" xmlns:xlink="http://www.w3.org/1999/xlink">
    <title>Icon-Resource/Quantum-Technologies/Res_Amazon-Braket_Tensor-Network_48_Light</title>
    <g id="Icon-Resource/Quantum-Technologies/Res_Amazon-Braket_Tensor-Network_48" stroke="none" stroke-width="1" fill="none" fill-rule="evenodd">
        <path d="M39.296,31.351 C39.574,31.572 39.841,31.794 40.101,32.018 C39.842,32.241 39.574,32.463 39.296,32.684 C39.301,32.462 39.309,32.239 39.309,32.018 C39.309,31.793 39.3,31.573 39.296,31.351 L39.296,31.351 Z M36.795,37.725 C36.477,37.613 36.155,37.495 35.83,37.366 C36.022,37.26 36.213,37.159 36.404,37.048 C36.596,36.937 36.781,36.822 36.969,36.708 C36.916,37.059 36.858,37.397 36.795,37.725 L36.795,37.725 Z M33.5,44 C32.601,44 31.468,42.427 30.672,39.688 C31.593,39.373 32.542,38.987 33.498,38.547 C34.459,38.99 35.407,39.37 36.329,39.684 C35.533,42.425 34.4,44 33.5,44 L33.5,44 Z M30.031,36.708 C30.219,36.822 30.404,36.937 30.596,37.048 C30.79,37.161 30.984,37.263 31.18,37.371 C30.852,37.5 30.527,37.619 30.206,37.731 C30.143,37.401 30.084,37.061 30.031,36.708 L30.031,36.708 Z M26.9,32.018 C27.158,31.794 27.426,31.572 27.704,31.351 C27.699,31.574 27.692,31.796 27.692,32.018 C27.692,32.239 27.699,32.462 27.704,32.684 C27.426,32.463 27.158,32.241 26.9,32.018 L26.9,32.018 Z M23.123,26.026 C23.437,25.483 24.646,25.053 27.081,25.469 C27.471,25.535 27.876,25.626 28.288,25.728 C28.096,26.697 27.953,27.714 27.854,28.748 C26.989,29.36 26.174,29.993 25.436,30.637 C25.146,30.335 24.868,30.034 24.619,29.734 C23.038,27.828 22.81,26.569 23.123,26.026 L23.123,26.026 Z M31.179,26.665 C30.984,26.772 30.789,26.875 30.596,26.987 C30.404,27.098 30.219,27.214 30.031,27.327 C30.084,26.975 30.143,26.634 30.206,26.304 C30.527,26.416 30.851,26.536 31.179,26.665 L31.179,26.665 Z M37.309,32.018 C37.309,32.768 37.279,33.483 37.235,34.176 C36.647,34.567 36.038,34.95 35.404,35.316 C34.772,35.682 34.136,36.017 33.504,36.331 C32.867,36.016 32.229,35.681 31.596,35.316 C30.962,34.95 30.354,34.567 29.765,34.176 C29.721,33.483 29.692,32.768 29.692,32.018 C29.692,31.267 29.721,30.552 29.765,29.859 C30.354,29.468 30.962,29.085 31.596,28.72 C32.231,28.353 32.866,28.017 33.5,27.703 C34.134,28.017 34.77,28.353 35.404,28.72 C36.037,29.085 36.646,29.467 37.234,29.858 C37.279,30.567 37.309,31.287 37.309,32.018 L37.309,32.018 Z M36.794,26.304 C36.858,26.638 36.916,26.978 36.968,27.326 C36.779,27.213 36.596,27.098 36.404,26.987 C36.211,26.875 36.016,26.772 35.821,26.665 C36.15,26.536 36.473,26.416 36.794,26.304 L36.794,26.304 Z M39.919,25.469 C42.358,25.053 43.565,25.485 43.877,26.026 C44.191,26.569 43.962,27.828 42.381,29.734 C42.132,30.034 41.854,30.336 41.564,30.638 C40.829,29.995 40.018,29.365 39.155,28.754 C39.058,27.698 38.913,26.684 38.724,25.726 C39.132,25.624 39.533,25.535 39.919,25.469 L39.919,25.469 Z M43.009,32.018 C43.332,31.682 43.642,31.346 43.92,31.011 C46.427,27.988 46.223,26.088 45.609,25.026 C44.996,23.965 43.452,22.838 39.582,23.497 C39.152,23.571 38.707,23.671 38.254,23.783 C38.074,23.163 37.879,22.568 37.656,22.023 L35.805,22.778 C36,23.257 36.174,23.789 36.334,24.346 C35.41,24.661 34.459,25.048 33.5,25.489 C32.543,25.049 31.594,24.663 30.672,24.348 C31.468,21.608 32.601,20.035 33.5,20.035 C33.983,20.035 34.442,20.484 34.741,20.86 L36.306,19.613 C35.265,18.309 34.205,18.035 33.5,18.035 C31.319,18.035 29.724,20.447 28.761,23.787 C28.304,23.673 27.853,23.572 27.418,23.497 C23.551,22.839 22.004,23.965 21.391,25.026 C20.777,26.088 20.573,27.988 23.08,31.011 C23.358,31.346 23.667,31.682 23.99,32.017 C23.681,32.339 23.384,32.661 23.115,32.982 L24.65,34.264 C24.891,33.976 25.157,33.687 25.436,33.397 C26.174,34.042 26.988,34.675 27.854,35.288 C27.953,36.322 28.096,37.338 28.288,38.307 C27.876,38.409 27.471,38.5 27.081,38.567 C24.644,38.982 23.437,38.551 23.123,38.009 C22.827,37.497 23.136,36.67 23.346,36.223 L21.535,35.372 C20.703,37.144 20.997,38.328 21.391,39.009 C21.877,39.851 22.948,40.735 25.302,40.735 C25.916,40.735 26.617,40.675 27.418,40.538 C27.853,40.464 28.304,40.363 28.762,40.248 C29.724,43.588 31.319,46 33.5,46 C35.68,46 37.276,43.588 38.238,40.249 C38.879,40.407 39.503,40.536 40.097,40.617 L40.366,38.635 C39.844,38.564 39.287,38.448 38.713,38.304 C38.905,37.336 39.047,36.321 39.147,35.288 C40.012,34.675 40.826,34.043 41.564,33.398 C41.854,33.7 42.132,34.001 42.381,34.302 C43.962,36.208 44.191,37.467 43.877,38.009 C43.63,38.436 42.99,38.609 42.496,38.678 L42.775,40.659 C44.467,40.421 45.25,39.63 45.609,39.009 C46.223,37.947 46.427,36.047 43.92,33.025 C43.642,32.69 43.332,32.353 43.009,32.018 L43.009,32.018 Z M14,43 L16,43 L16,41 L14,41 L14,43 Z M7,32 L9,32 L9,30 L7,30 L7,32 Z M10,20 L12,20 L12,18 L10,18 L10,20 Z M21,6 L23,6 L23,4 L21,4 L21,6 Z M4,6 L6,6 L6,4 L4,4 L4,6 Z M11,29 C11,28.448 10.553,28 10,28 L9.212,28 L11.629,22 L13,22 C13.553,22 14,21.553 14,21 L14,17.255 L21.924,8 L24,8 C24.553,8 25,7.553 25,7 L25,3 C25,2.448 24.553,2 24,2 L20,2 C19.447,2 19,2.448 19,3 L19,7 C19,7.345 19.186,7.634 19.45,7.814 L12.442,16 L9.774,16 L6.654,8 L7,8 C7.553,8 8,7.553 8,7 L8,3 C8,2.448 7.553,2 7,2 L3,2 C2.447,2 2,2.448 2,3 L2,7 C2,7.553 2.447,8 3,8 L4.508,8 L8.006,16.972 C8.006,16.982 8,16.99 8,17 L8,21 C8,21.553 8.447,22 9,22 L9.473,22 L7.055,28 L6,28 C5.447,28 5,28.448 5,29 L5,33 C5,33.553 5.447,34 6,34 L8.023,34 L12.008,39.959 C12.008,39.974 12,39.986 12,40 L12,44 C12,44.553 12.447,45 13,45 L17,45 C17.553,45 18,44.553 18,44 L18,40 C18,39.448 17.553,39 17,39 L13.774,39 L10.378,33.924 C10.742,33.775 11,33.419 11,33 L11,32 L20,32 L20,30 L11,30 L11,29 Z M36,6 L38,6 L38,4 L36,4 L36,6 Z M35.504,16.247 L37.77,8 L39,8 C39.553,8 40,7.553 40,7 L40,3 C40,2.448 39.553,2 39,2 L35,2 C34.447,2 34,2.448 34,3 L34,7 C34,7.553 34.447,8 35,8 L35.696,8 L33.576,15.717 L35.504,16.247 Z" id="Fill-1" fill="#D45B07"></path>
    </g>
</svg>