<?xml version="1.0" encoding="UTF-8"?>
<svg width="48px" height="48px" viewBox="0 0 48 48" version="1.1" xmlns="http://www.w3.org/2000/svg" xmlns:xlink="http://www.w3.org/1999/xlink">
    <title>Icon-Resource/Quantum-Technologies/Res_Amazon-Braket_Managed-Simulator_48_Light</title>
    <g id="Icon-Resource/Quantum-Technologies/Res_Amazon-Braket_Managed-Simulator_48" stroke="none" stroke-width="1" fill="none" fill-rule="evenodd">
        <path d="M24,20.769 C25.781,20.769 27.23,22.218 27.23,24 C27.23,25.782 25.781,27.231 24,27.231 C22.219,27.231 20.77,25.782 20.77,24 C20.77,22.218 22.219,20.769 24,20.769 L24,20.769 Z M24,29.231 C26.884,29.231 29.23,26.884 29.23,24 C29.23,21.116 26.884,18.769 24,18.769 C21.116,18.769 18.77,21.116 18.77,24 C18.77,26.884 21.116,29.231 24,29.231 L24,29.231 Z M14,22.708 L15.36,22.708 C15.814,22.708 16.211,22.403 16.327,21.964 C16.507,21.285 16.778,20.63 17.136,20.015 C17.364,19.623 17.3,19.126 16.979,18.806 L16.016,17.842 L17.842,16.016 L18.806,16.979 C19.127,17.301 19.622,17.364 20.016,17.136 C20.63,16.779 21.285,16.507 21.964,16.327 C22.402,16.211 22.708,15.814 22.708,15.36 L22.708,14 L25.292,14 L25.292,15.36 C25.292,15.814 25.598,16.211 26.036,16.327 C26.715,16.507 27.37,16.779 27.984,17.136 C28.377,17.364 28.874,17.301 29.194,16.979 L30.158,16.016 L31.984,17.842 L31.021,18.806 C30.7,19.126 30.636,19.623 30.864,20.015 C31.222,20.63 31.493,21.285 31.673,21.964 C31.789,22.403 32.186,22.708 32.64,22.708 L34,22.708 L34,25.291 L32.64,25.291 C32.186,25.291 31.789,25.597 31.673,26.036 C31.493,26.715 31.222,27.37 30.864,27.985 C30.636,28.377 30.7,28.873 31.021,29.194 L31.984,30.158 L30.158,31.984 L29.194,31.021 C28.874,30.699 28.377,30.635 27.984,30.864 C27.37,31.221 26.715,31.493 26.036,31.673 C25.598,31.789 25.292,32.186 25.292,32.64 L25.292,34 L22.708,34 L22.708,32.64 C22.708,32.186 22.402,31.789 21.964,31.673 C21.285,31.493 20.63,31.221 20.016,30.864 C19.622,30.635 19.127,30.699 18.806,31.021 L17.842,31.984 L16.016,30.158 L16.979,29.194 C17.3,28.873 17.364,28.377 17.136,27.985 C16.778,27.37 16.507,26.715 16.327,26.036 C16.211,25.597 15.814,25.291 15.36,25.291 L14,25.291 L14,22.708 Z M13.458,27.291 L14.622,27.291 C14.743,27.635 14.884,27.973 15.042,28.303 L14.22,29.125 C13.943,29.401 13.791,29.768 13.791,30.158 C13.791,30.548 13.943,30.915 14.219,31.189 L16.812,33.782 C17.381,34.352 18.306,34.35 18.873,33.782 L19.697,32.957 C20.027,33.116 20.364,33.256 20.708,33.377 L20.708,34.541 C20.708,35.346 21.362,36 22.167,36 L25.833,36 C26.638,36 27.292,35.346 27.292,34.541 L27.292,33.377 C27.636,33.256 27.973,33.116 28.303,32.957 L29.127,33.782 C29.695,34.35 30.62,34.352 31.188,33.782 L33.78,31.19 C34.057,30.915 34.209,30.548 34.209,30.158 C34.209,29.768 34.057,29.401 33.781,29.126 L32.958,28.303 C33.116,27.973 33.257,27.635 33.378,27.291 L34.542,27.291 C35.346,27.291 36,26.637 36,25.833 L36,22.166 C36,21.363 35.346,20.708 34.542,20.708 L33.378,20.708 C33.257,20.365 33.116,20.027 32.958,19.697 L33.78,18.874 C34.057,18.599 34.209,18.232 34.209,17.842 C34.209,17.452 34.057,17.085 33.781,16.811 L31.188,14.218 C30.62,13.649 29.695,13.651 29.127,14.218 L28.303,15.042 C27.973,14.884 27.636,14.744 27.292,14.623 L27.292,13.458 C27.292,12.654 26.638,12 25.833,12 L22.167,12 C21.362,12 20.708,12.654 20.708,13.458 L20.708,14.623 C20.364,14.744 20.027,14.884 19.697,15.042 L18.873,14.218 C18.306,13.651 17.381,13.649 16.812,14.218 L14.22,16.81 C13.943,17.085 13.791,17.452 13.791,17.842 C13.791,18.232 13.943,18.599 14.219,18.873 L15.042,19.697 C14.884,20.027 14.743,20.365 14.622,20.708 L13.458,20.708 C12.654,20.708 12,21.363 12,22.166 L12,25.833 C12,26.637 12.654,27.291 13.458,27.291 L13.458,27.291 Z M9,39 L39,39 L39,9 L9,9 L9,39 Z M46,13 L46,11 L41,11 L41,8 C41,7.448 40.553,7 40,7 L37,7 L37,2 L35,2 L35,7 L31,7 L31,2 L29,2 L29,7 L25,7 L25,2 L23,2 L23,7 L19,7 L19,2 L17,2 L17,7 L13,7 L13,2 L11,2 L11,7 L8,7 C7.447,7 7,7.448 7,8 L7,11 L2,11 L2,13 L7,13 L7,17 L2,17 L2,19 L7,19 L7,23 L2,23 L2,25 L7,25 L7,29 L2,29 L2,31 L7,31 L7,35 L2,35 L2,37 L7,37 L7,40 C7,40.552 7.447,41 8,41 L11,41 L11,46 L13,46 L13,41 L17,41 L17,46 L19,46 L19,41 L23,41 L23,46 L25,46 L25,41 L29,41 L29,46 L31,46 L31,41 L35,41 L35,46 L37,46 L37,41 L40,41 C40.553,41 41,40.552 41,40 L41,37 L46,37 L46,35 L41,35 L41,31 L46,31 L46,29 L41,29 L41,25 L46,25 L46,23 L41,23 L41,19 L46,19 L46,17 L41,17 L41,13 L46,13 Z" id="Fill-1" fill="#D45B07"></path>
    </g>
</svg>