<?xml version="1.0" encoding="UTF-8"?>
<svg width="48px" height="48px" viewBox="0 0 48 48" version="1.1" xmlns="http://www.w3.org/2000/svg" xmlns:xlink="http://www.w3.org/1999/xlink">
    <title>Icon-Resource/Quantum-Technologies/Res_AWS-Braket_QPU _48_Light</title>
    <g id="Icon-Resource/Quantum-Technologies/Res_AWS-Braket_QPU-_48" stroke="none" stroke-width="1" fill="none" fill-rule="evenodd">
        <path d="M39.448,32.318 C39.448,32.52 39.44,32.722 39.436,32.924 C39.688,32.723 39.929,32.521 40.166,32.318 C39.929,32.115 39.688,31.912 39.436,31.712 C39.439,31.914 39.448,32.114 39.448,32.318 L39.448,32.318 Z M37.111,36.946 C36.939,37.049 36.771,37.155 36.596,37.256 C36.423,37.356 36.249,37.448 36.075,37.545 C36.371,37.661 36.662,37.768 36.952,37.87 C37.01,37.57 37.063,37.264 37.111,36.946 L37.111,36.946 Z M36.488,39.83 C35.594,39.524 34.676,39.155 33.744,38.727 C32.817,39.153 31.898,39.527 31.005,39.833 C31.778,42.488 32.875,44.013 33.746,44.013 C34.618,44.013 35.715,42.487 36.488,39.83 L36.488,39.83 Z M30.541,37.876 C30.833,37.774 31.128,37.666 31.426,37.549 C31.249,37.451 31.072,37.358 30.895,37.256 C30.72,37.155 30.552,37.049 30.381,36.946 C30.429,37.266 30.483,37.575 30.541,37.876 L30.541,37.876 Z M28.055,32.924 C28.052,32.722 28.044,32.52 28.044,32.318 C28.044,32.116 28.052,31.914 28.055,31.711 C27.803,31.912 27.562,32.114 27.326,32.318 C27.562,32.521 27.803,32.723 28.055,32.924 L28.055,32.924 Z M25.079,30.07 C25.318,30.359 25.584,30.648 25.862,30.938 C26.577,30.313 27.367,29.701 28.204,29.109 C28.301,28.107 28.437,27.122 28.624,26.184 C28.228,26.087 27.84,26 27.466,25.936 C25.092,25.531 23.92,25.946 23.618,26.47 C23.315,26.994 23.54,28.215 25.079,30.07 L25.079,30.07 Z M30.541,26.76 C30.483,27.061 30.429,27.369 30.381,27.689 C30.552,27.586 30.72,27.481 30.895,27.38 C31.071,27.278 31.249,27.184 31.426,27.087 C31.127,26.969 30.833,26.862 30.541,26.76 L30.541,26.76 Z M37.376,30.219 C36.803,29.839 36.213,29.467 35.596,29.112 C34.98,28.756 34.362,28.429 33.746,28.123 C33.13,28.429 32.511,28.756 31.895,29.112 C31.279,29.467 30.687,29.839 30.115,30.22 C30.072,30.893 30.044,31.589 30.044,32.318 C30.044,33.047 30.072,33.742 30.115,34.416 C30.687,34.796 31.279,35.168 31.895,35.524 C32.511,35.879 33.131,36.204 33.749,36.51 C34.364,36.205 34.981,35.879 35.596,35.524 C36.213,35.168 36.804,34.796 37.377,34.416 C37.42,33.742 37.448,33.047 37.448,32.318 C37.448,31.608 37.42,30.908 37.376,30.219 L37.376,30.219 Z M36.066,27.087 C36.243,27.184 36.421,27.278 36.596,27.38 C36.77,27.48 36.937,27.585 37.108,27.688 C37.06,27.372 37.008,27.064 36.95,26.76 C36.658,26.862 36.364,26.969 36.066,27.087 L36.066,27.087 Z M38.88,26.181 C39.062,27.11 39.203,28.092 39.298,29.115 C40.132,29.706 40.917,30.316 41.629,30.938 C41.908,30.648 42.174,30.359 42.413,30.07 C43.952,28.215 44.177,26.994 43.874,26.47 C43.572,25.947 42.4,25.532 40.026,25.936 C39.656,25.999 39.27,26.085 38.88,26.181 L38.88,26.181 Z M43.952,33.289 C46.412,36.254 46.209,38.121 45.606,39.165 C45.254,39.777 44.483,40.556 42.818,40.789 L42.541,38.809 C43.018,38.742 43.637,38.576 43.874,38.166 C44.177,37.641 43.952,36.421 42.413,34.566 C42.174,34.277 41.908,33.987 41.629,33.697 C40.914,34.322 40.126,34.934 39.288,35.527 C39.191,36.527 39.054,37.511 38.869,38.449 C39.423,38.586 39.96,38.699 40.464,38.767 L40.194,40.749 C39.619,40.671 39.013,40.546 38.394,40.393 C37.449,43.657 35.884,46.013 33.746,46.013 C31.608,46.013 30.043,43.657 29.097,40.394 C28.656,40.503 28.221,40.6 27.802,40.672 C27.018,40.805 26.332,40.864 25.73,40.864 C23.418,40.864 22.364,39.994 21.886,39.165 C21.498,38.494 21.208,37.328 22.026,35.588 L23.837,36.44 C23.633,36.872 23.334,37.672 23.618,38.165 C23.92,38.689 25.088,39.104 27.466,38.7 C27.84,38.636 28.228,38.549 28.624,38.451 C28.437,37.513 28.301,36.528 28.204,35.527 C27.366,34.934 26.577,34.321 25.862,33.697 C25.595,33.975 25.341,34.253 25.109,34.529 L23.574,33.247 C23.833,32.937 24.118,32.627 24.416,32.317 C24.105,31.993 23.807,31.67 23.54,31.347 C21.08,28.382 21.283,26.514 21.886,25.47 C22.488,24.426 24.003,23.317 27.802,23.964 C28.221,24.036 28.656,24.133 29.097,24.242 C30.043,20.979 31.608,18.623 33.746,18.623 C34.44,18.623 35.483,18.892 36.507,20.174 L34.942,21.422 C34.652,21.057 34.209,20.623 33.746,20.623 C32.875,20.623 31.778,22.148 31.005,24.803 C31.898,25.109 32.818,25.484 33.746,25.91 C34.675,25.483 35.595,25.108 36.49,24.802 C36.336,24.265 36.168,23.753 35.979,23.291 L37.831,22.536 C38.046,23.064 38.236,23.638 38.41,24.238 C38.846,24.131 39.275,24.035 39.689,23.964 C43.489,23.315 45.003,24.426 45.606,25.47 C46.209,26.514 46.412,28.382 43.952,31.347 C43.683,31.67 43.386,31.994 43.075,32.318 C43.386,32.642 43.683,32.965 43.952,33.289 L43.952,33.289 Z M14,14 L32,14 L32,15 L34,15 L34,13 C34,12.448 33.552,12 33,12 L13,12 C12.447,12 12,12.448 12,13 L12,33 C12,33.552 12.447,34 13,34 L19,34 L19,32 L14,32 L14,14 Z M9,37 L19,37 L19,39 L18,39 L18,44 L16,44 L16,39 L13,39 L13,44 L11,44 L11,39 L8,39 C7.447,39 7,38.552 7,38 L7,35 L2,35 L2,33 L7,33 L7,30 L2,30 L2,28 L7,28 L7,24 L2,24 L2,22 L7,22 L7,18 L2,18 L2,16 L7,16 L7,12 L2,12 L2,10 L7,10 L7,8 C7,7.448 7.447,7 8,7 L11,7 L11,2 L13,2 L13,7 L16,7 L16,2 L18,2 L18,7 L22,7 L22,2 L24,2 L24,7 L28,7 L28,2 L30,2 L30,7 L33,7 L33,2 L35,2 L35,7 L38,7 C38.552,7 39,7.448 39,8 L39,10 L44,10 L44,12 L39,12 L39,16 L44,16 L44,18 L39,18 L38,18 L37,18 L37,17 L37,9 L9,9 L9,37 Z" id="Fill-1" fill="#D45B07"></path>
    </g>
</svg>