<?xml version="1.0" encoding="UTF-8"?>
<svg width="48px" height="48px" viewBox="0 0 48 48" version="1.1" xmlns="http://www.w3.org/2000/svg" xmlns:xlink="http://www.w3.org/1999/xlink">
    <title>Icon-Resource/Quantum-Technologies/Res_Amazon-Braket_Simulator-1 _48_Light</title>
    <g id="Icon-Resource/Quantum-Technologies/Res_Amazon-Braket_Simulator-1-_48" stroke="none" stroke-width="1" fill="none" fill-rule="evenodd">
        <path d="M39,39.94 C39,39.973 38.973,40 38.939,40 L8,39.94 L8.061,9 L39,9.06 L39,39.94 Z M46,11 L46,9 L41,9 L41,9.06 C41,7.924 40.075,7 38.939,7 L39,7 L39,2 L37,2 L37,7 L32,7 L32,2 L30,2 L30,7 L25,7 L25,2 L23,2 L23,7 L18,7 L18,2 L16,2 L16,7 L11,7 L11,2 L9,2 L9,7 L8.061,7 C6.945,7 6.039,7.893 6.006,9 L2,9 L2,11 L6,11 L6,16 L2,16 L2,18 L6,18 L6,23 L2,23 L2,25 L6,25 L6,30 L2,30 L2,32 L6,32 L6,37 L2,37 L2,39 L6,39 L6,39.94 C6,41.076 6.925,42 8.061,42 L9,42 L9,46 L11,46 L11,42 L16,42 L16,46 L18,46 L18,42 L23,42 L23,46 L25,46 L25,42 L30,42 L30,46 L32,46 L32,42 L37,42 L37,46 L39,46 L39,41.994 C40.107,41.961 41,41.055 41,39.94 L41,39 L46,39 L46,37 L41,37 L41,32 L46,32 L46,30 L41,30 L41,25 L46,25 L46,23 L41,23 L41,18 L46,18 L46,16 L41,16 L41,11 L46,11 Z M20.742,29.085 C20.945,29.207 21.146,29.333 21.35,29.45 C21.556,29.569 21.762,29.679 21.969,29.793 C21.614,29.932 21.268,30.061 20.929,30.178 C20.861,29.826 20.799,29.461 20.742,29.085 L20.742,29.085 Z M17.555,24.338 C17.831,24.1 18.117,23.863 18.415,23.628 C18.41,23.866 18.401,24.106 18.401,24.344 C18.401,24.579 18.41,24.816 18.414,25.052 C18.114,24.813 17.827,24.575 17.555,24.338 L17.555,24.338 Z M13.715,18.234 C14.177,17.433 16.163,17.234 19.01,17.938 C18.813,18.927 18.667,19.967 18.565,21.024 C17.681,21.65 16.848,22.296 16.094,22.956 C14.07,20.847 13.254,19.033 13.715,18.234 L13.715,18.234 Z M21.969,18.895 C21.763,19.009 21.556,19.118 21.35,19.237 C21.144,19.357 20.945,19.481 20.743,19.603 C20.799,19.226 20.861,18.861 20.929,18.51 C21.268,18.627 21.614,18.755 21.969,18.895 L21.969,18.895 Z M27.672,18.499 C27.741,18.859 27.804,19.229 27.859,19.607 C27.655,19.483 27.454,19.357 27.246,19.237 C27.04,19.118 26.828,19.006 26.619,18.891 C26.974,18.75 27.325,18.62 27.672,18.499 L27.672,18.499 Z M30.83,17.657 C32.918,17.301 34.471,17.523 34.88,18.234 C35.291,18.945 34.706,20.4 33.354,22.03 C33.098,22.34 32.81,22.652 32.51,22.963 C31.756,22.303 30.922,21.656 30.037,21.029 C29.937,19.95 29.793,18.905 29.599,17.922 C30.019,17.818 30.433,17.725 30.83,17.657 L30.83,17.657 Z M30.193,24.344 C30.193,24.103 30.185,23.866 30.181,23.627 C30.479,23.864 30.769,24.104 31.048,24.344 C30.769,24.585 30.479,24.823 30.18,25.061 C30.185,24.821 30.193,24.582 30.193,24.344 L30.193,24.344 Z M22.35,27.718 C21.686,27.334 21.067,26.943 20.477,26.55 C20.432,25.842 20.401,25.111 20.401,24.344 C20.401,23.576 20.432,22.844 20.477,22.136 C21.078,21.735 21.701,21.344 22.35,20.97 C22.998,20.596 23.648,20.252 24.296,19.931 C24.932,20.246 25.581,20.586 26.246,20.97 C26.895,21.344 27.518,21.736 28.12,22.136 C28.166,22.858 28.193,23.594 28.193,24.344 C28.193,25.112 28.163,25.844 28.118,26.553 C27.517,26.953 26.894,27.344 26.246,27.718 C25.581,28.102 24.932,28.442 24.295,28.757 C23.647,28.436 22.997,28.092 22.35,27.718 L22.35,27.718 Z M27.664,30.187 C27.318,30.065 26.968,29.936 26.615,29.795 C26.825,29.68 27.039,29.57 27.246,29.45 C27.452,29.332 27.65,29.207 27.852,29.086 C27.795,29.465 27.732,29.832 27.664,30.187 L27.664,30.187 Z M24.298,36.564 C23.373,36.564 22.208,34.944 21.394,32.128 C22.352,31.802 23.327,31.412 24.295,30.97 C25.277,31.422 26.251,31.82 27.197,32.142 C26.383,34.95 25.22,36.564 24.298,36.564 L24.298,36.564 Z M12.131,27.767 C11.286,29.564 11.584,30.763 11.982,31.454 C12.685,32.669 14.118,33.187 15.948,33.187 C17.012,33.187 18.215,32.999 19.479,32.684 C20.455,36.096 22.078,38.564 24.298,38.564 C26.513,38.564 28.134,36.106 29.11,32.704 C29.564,32.817 30.012,32.918 30.442,32.993 L30.784,31.023 C30.396,30.955 29.992,30.864 29.583,30.762 C29.781,29.768 29.927,28.725 30.029,27.664 C30.917,27.035 31.754,26.386 32.51,25.724 C32.81,26.036 33.098,26.348 33.354,26.658 C34.706,28.288 35.291,29.742 34.88,30.454 C34.625,30.896 33.968,31.073 33.461,31.144 L33.74,33.125 C35.455,32.883 36.249,32.083 36.612,31.454 C37.49,29.933 36.881,27.776 34.894,25.381 C34.607,25.036 34.288,24.69 33.955,24.344 C34.288,23.998 34.607,23.652 34.894,23.307 C36.881,20.912 37.49,18.755 36.612,17.234 C35.733,15.713 33.562,15.163 30.494,15.686 C30.052,15.761 29.592,15.865 29.126,15.981 C28.992,15.518 28.852,15.066 28.695,14.645 L26.82,15.34 C26.961,15.719 27.088,16.125 27.208,16.542 C26.257,16.866 25.277,17.265 24.289,17.72 C23.322,17.279 22.35,16.885 21.394,16.561 C22.208,13.744 23.373,12.124 24.298,12.124 C24.796,12.124 25.269,12.585 25.577,12.972 L27.14,11.724 C26.084,10.401 25.012,10.124 24.298,10.124 C22.078,10.124 20.456,12.59 19.479,16 C16.038,15.141 13.092,15.314 11.982,17.234 C10.875,19.153 12.193,21.786 14.65,24.332 C14.327,24.668 14.017,25.003 13.737,25.337 L15.272,26.62 C15.524,26.318 15.804,26.016 16.097,25.712 C16.86,26.383 17.693,27.033 18.564,27.654 C18.666,28.714 18.812,29.757 19.01,30.75 C16.162,31.453 14.176,31.254 13.715,30.454 C13.409,29.925 13.726,29.077 13.941,28.619 L12.131,27.767 Z" id="Fill-1" fill="#D45B07"></path>
    </g>
</svg>