<?xml version="1.0" encoding="UTF-8"?>
<svg width="48px" height="48px" viewBox="0 0 48 48" version="1.1" xmlns="http://www.w3.org/2000/svg" xmlns:xlink="http://www.w3.org/1999/xlink">
    <title>Icon-Resource/Quantum-Technologies/Res_Amazon-Braket_Simulator-Noise_48_Light</title>
    <g id="Icon-Resource/Quantum-Technologies/Res_Amazon-Braket_Simulator-Noise_48" stroke="none" stroke-width="1" fill="none" fill-rule="evenodd">
        <path d="M19.537,29.474 L20.086,31.397 C18.754,31.777 17.369,31.97 15.971,31.97 C13.106,31.97 10.308,31.131 7.912,29.601 L7.912,36.756 C7.912,40.074 5.936,46 2,46 L2,44 C4.232,44 5.912,39.606 5.912,36.756 L5.912,2 L7.912,2 L7.912,4.397 C10.306,2.866 13.093,2.03 15.971,2.03 C24.224,2.03 30.94,8.745 30.94,17 C30.94,17.166 30.937,17.33 30.932,17.495 L28.933,17.432 C28.937,17.288 28.94,17.144 28.94,17 C28.94,9.848 23.122,4.03 15.971,4.03 C13.03,4.03 10.199,5.035 7.912,6.853 L7.912,27.155 C10.196,28.968 13.046,29.97 15.971,29.97 C17.183,29.97 18.384,29.803 19.537,29.474 M39.287,31.337 C39.566,31.559 39.832,31.78 40.086,32 C39.832,32.221 39.566,32.441 39.287,32.663 C39.292,32.442 39.3,32.221 39.3,32 C39.3,31.777 39.291,31.558 39.287,31.337 M36.785,37.717 C36.465,37.605 36.141,37.486 35.814,37.356 C36.007,37.25 36.2,37.147 36.392,37.036 C36.583,36.926 36.771,36.808 36.96,36.695 C36.907,37.047 36.849,37.387 36.785,37.717 M33.484,44 C32.583,44 31.448,42.424 30.651,39.68 C31.574,39.365 32.524,38.978 33.482,38.537 C34.445,38.981 35.394,39.362 36.319,39.677 C35.521,42.422 34.386,44 33.484,44 M30.01,36.695 C30.199,36.808 30.385,36.925 30.577,37.036 C30.772,37.149 30.969,37.252 31.164,37.361 C30.834,37.491 30.509,37.611 30.185,37.724 C30.122,37.392 30.062,37.049 30.01,36.695 M26.873,32 C27.134,31.776 27.403,31.552 27.683,31.33 C27.678,31.554 27.67,31.778 27.67,32 C27.67,32.223 27.678,32.447 27.683,32.671 C27.403,32.449 27.134,32.225 26.873,32 M23.093,26 C23.405,25.457 24.611,25.026 27.058,25.441 C27.449,25.508 27.855,25.599 28.267,25.702 C28.074,26.672 27.933,27.691 27.832,28.727 C26.966,29.341 26.148,29.974 25.41,30.62 C25.119,30.318 24.841,30.015 24.591,29.714 C23.008,27.805 22.778,26.544 23.093,26 M31.164,26.64 C30.968,26.748 30.77,26.853 30.577,26.964 C30.385,27.076 30.198,27.192 30.01,27.306 C30.062,26.952 30.122,26.609 30.185,26.277 C30.509,26.39 30.834,26.51 31.164,26.64 M37.3,32 C37.3,32.752 37.27,33.467 37.226,34.161 C36.648,34.546 36.043,34.929 35.392,35.304 C34.758,35.67 34.122,36.007 33.488,36.321 C32.85,36.006 32.211,35.67 31.577,35.304 C30.942,34.938 30.333,34.555 29.743,34.162 C29.699,33.469 29.67,32.752 29.67,32 C29.67,31.248 29.699,30.532 29.743,29.838 C30.333,29.446 30.942,29.063 31.577,28.697 C32.228,28.321 32.863,27.988 33.487,27.679 C34.121,27.994 34.758,28.33 35.392,28.697 C36.043,29.072 36.647,29.454 37.224,29.839 C37.27,30.549 37.3,31.269 37.3,32 M36.786,26.284 C36.849,26.618 36.907,26.957 36.959,27.306 C36.769,27.192 36.583,27.074 36.392,26.964 C36.2,26.853 36.006,26.75 35.812,26.643 C36.144,26.513 36.469,26.394 36.786,26.284 M43.877,26 C44.328,26.782 43.526,28.558 41.542,30.625 C40.8,29.975 39.992,29.345 39.147,28.743 C39.05,27.684 38.905,26.668 38.716,25.708 C41.493,25.026 43.427,25.22 43.877,26 M45.609,25 C44.516,23.11 41.627,22.933 38.249,23.771 C38.068,23.143 37.87,22.543 37.645,21.993 L35.794,22.748 C35.991,23.232 36.167,23.769 36.328,24.333 C35.392,24.651 34.44,25.037 33.493,25.468 C32.531,25.026 31.578,24.637 30.651,24.321 C31.448,21.577 32.583,20 33.484,20 C33.969,20 34.428,20.45 34.728,20.827 L36.293,19.581 C35.253,18.275 34.191,18 33.484,18 C31.302,18 29.704,20.416 28.74,23.76 C28.282,23.646 27.83,23.544 27.394,23.47 C23.518,22.808 21.974,23.938 21.36,25 C20.747,26.063 20.542,27.965 23.052,30.991 C23.33,31.327 23.641,31.664 23.964,32 C23.654,32.323 23.356,32.645 23.088,32.967 L24.623,34.249 C24.864,33.96 25.131,33.67 25.41,33.38 C26.148,34.027 26.965,34.661 27.832,35.274 C27.933,36.31 28.074,37.329 28.267,38.299 C27.855,38.402 27.449,38.493 27.058,38.559 C24.611,38.976 23.406,38.544 23.093,38 C22.796,37.487 23.105,36.659 23.316,36.21 L21.506,35.36 C20.673,37.133 20.967,38.318 21.36,39 C21.847,39.844 22.919,40.728 25.276,40.727 C25.891,40.727 26.593,40.667 27.394,40.531 C27.83,40.456 28.282,40.355 28.74,40.241 C29.704,43.585 31.302,46 33.484,46 C35.667,46 37.266,43.585 38.228,40.241 C38.87,40.4 39.496,40.529 40.092,40.61 L40.359,38.628 C39.836,38.557 39.278,38.44 38.702,38.296 C38.896,37.324 39.038,36.303 39.138,35.265 C39.986,34.66 40.798,34.028 41.542,33.375 C43.526,35.442 44.328,37.219 43.877,38 C43.63,38.429 42.988,38.601 42.494,38.671 L42.771,40.651 C44.466,40.413 45.25,39.622 45.609,39 C46.702,37.107 45.403,34.51 42.982,32 C45.403,29.491 46.702,26.894 45.609,25" id="Fill-1" fill="#D45B07"></path>
    </g>
</svg>