<?xml version="1.0" encoding="UTF-8"?>
<svg width="48px" height="48px" viewBox="0 0 48 48" version="1.1" xmlns="http://www.w3.org/2000/svg" xmlns:xlink="http://www.w3.org/1999/xlink">
    <title>Icon-Resource/Quantum-Technologies/Res_Amazon-Braket_Embedded-Simulator_48_Light</title>
    <g id="Icon-Resource/Quantum-Technologies/Res_Amazon-Braket_Embedded-Simulator_48" stroke="none" stroke-width="1" fill="none" fill-rule="evenodd">
        <path d="M33,25.999 L35,25.999 L35,22 L33,22 L33,25.999 Z M13.001,25.999 L15.001,25.999 L15.001,22 L13.001,22 L13.001,25.999 Z M22.001,34.999 L26,34.999 L26,32.999 L22.001,32.999 L22.001,34.999 Z M22.001,15 L26,15 L26,13 L22.001,13 L22.001,15 Z M33,31.899 L35,31.899 L35,27.999 L33,27.999 L33,31.899 Z M28,34.999 L32,34.999 L32,32.999 L28,32.999 L28,34.999 Z M16.101,34.999 L20.001,34.999 L20.001,32.999 L16.101,32.999 L16.101,34.999 Z M13.001,31.999 L15.001,31.999 L15.001,27.999 L13.001,27.999 L13.001,31.999 Z M28,15 L32,15 L32,13 L28,13 L28,15 Z M33,20 L35,20 L35,16 L33,16 L33,20 Z M13.001,20 L15.001,20 L15.001,16 L13.001,16 L13.001,20 Z M16.001,15 L20.001,15 L20.001,13 L16.001,13 L16.001,15 Z M9,39 L39,39 L39,9 L9,9 L9,39 Z M46,13 L46,11 L41,11 L41,8 C41,7.448 40.553,7 40,7 L37,7 L37,2 L35,2 L35,7 L31,7 L31,2 L29,2 L29,7 L25,7 L25,2 L23,2 L23,7 L19,7 L19,2 L17,2 L17,7 L13,7 L13,2 L11,2 L11,7 L8,7 C7.447,7 7,7.448 7,8 L7,11 L2,11 L2,13 L7,13 L7,17 L2,17 L2,19 L7,19 L7,23 L2,23 L2,25 L7,25 L7,29 L2,29 L2,31 L7,31 L7,35 L2,35 L2,37 L7,37 L7,40 C7,40.552 7.447,41 8,41 L11,41 L11,46 L13,46 L13,41 L17,41 L17,46 L19,46 L19,41 L23,41 L23,46 L25,46 L25,41 L29,41 L29,46 L31,46 L31,41 L35,41 L35,46 L37,46 L37,41 L40,41 C40.553,41 41,40.552 41,40 L41,37 L46,37 L46,35 L41,35 L41,31 L46,31 L46,29 L41,29 L41,25 L46,25 L46,23 L41,23 L41,19 L46,19 L46,17 L41,17 L41,13 L46,13 Z" id="Fill-1" fill="#D45B07"></path>
    </g>
</svg>