<?xml version="1.0" encoding="UTF-8"?>
<svg width="64px" height="64px" viewBox="0 0 64 64" version="1.1" xmlns="http://www.w3.org/2000/svg" xmlns:xlink="http://www.w3.org/1999/xlink">
    <title>Icon-Architecture/48/Arch_Amazon-SageMaker-Studio-Lab_48</title>
    <defs>
        <linearGradient x1="0%" y1="100%" x2="100%" y2="0%" id="linearGradient-1">
            <stop stop-color="#055F4E" offset="0%"></stop>
            <stop stop-color="#56C0A7" offset="100%"></stop>
        </linearGradient>
    </defs>
    <g id="Icon-Architecture/48/Arch_Amazon-SageMaker-Studio-Lab_48" stroke="none" stroke-width="1" fill="none" fill-rule="evenodd">
        <g id="Rectangle" fill="url(#linearGradient-1)">
            <rect x="0" y="0" width="64" height="64"></rect>
        </g>
        <g id="Icon-Service/48/Amazon-SageMaker-Studio-Lab_48" transform="translate(8.000000, 8.000000)" fill="#FFFFFF">
            <path d="M30.001,35.0285907 L44.001,35.0285907 L44.001,13.0285907 L30.001,13.0285907 L30.001,35.0285907 Z M28.001,35.0285907 L28.001,13.0285907 L25.001,13.0285907 L25.001,17.0285907 L26.001,17.0285907 L26.001,19.0285907 L25.001,19.0285907 L25.001,23.0285907 L26.001,23.0285907 L26.001,25.0285907 L25.001,25.0285907 L25.001,29.0285907 L26.001,29.0285907 L26.001,31.0285907 L25.001,31.0285907 L25.001,35.0285907 L28.001,35.0285907 Z M46.001,12.0285907 L46.001,36.0285907 C46.001,36.5805907 45.554,37.0285907 45.001,37.0285907 L30.001,37.0285907 L28.001,37.0285907 L24.001,37.0285907 C23.448,37.0285907 23.001,36.5805907 23.001,36.0285907 L23.001,31.0285907 L22.001,31.0285907 L22.001,29.0285907 L23.001,29.0285907 L23.001,25.0285907 L22.001,25.0285907 L22.001,23.0285907 L23.001,23.0285907 L23.001,19.0285907 L22.001,19.0285907 L22.001,17.0285907 L23.001,17.0285907 L23.001,12.0285907 C23.001,11.4765907 23.448,11.0285907 24.001,11.0285907 L45.001,11.0285907 C45.554,11.0285907 46.001,11.4765907 46.001,12.0285907 L46.001,12.0285907 Z M23.001,39.0285907 L25.001,39.0285907 L25.001,41.4055907 C25.001,41.7675907 24.805,42.1015907 24.488,42.2785907 L18.888,45.4075907 C18.736,45.4925907 18.568,45.5345907 18.4,45.5345907 C18.222,45.5345907 18.043,45.4865907 17.885,45.3915907 L7.485,39.1325907 C7.185,38.9515907 7.001,38.6265907 7.001,38.2755907 L7.001,31.7565907 L2.561,29.5865907 C2.219,29.4185907 2.001,29.0695907 2.001,28.6885907 L2,23.1715907 L2.001,18.5285907 C2.001,18.1665907 2.197,17.8325907 2.513,17.6555907 L7.001,15.1475907 L7.001,8.22959069 C7.001,7.87059069 7.193,7.53859069 7.506,7.36059069 L17.198,1.83159069 C17.49,1.66559069 17.847,1.65559069 18.144,1.80759069 L24.451,5.00059069 C24.788,5.16959069 25,5.51559069 25,5.89159069 L25.001,9.02759069 L23.001,9.02859069 L23,6.50659069 L17.722,3.83559069 L16.001,4.81659069 L16.001,12.0285907 L14.001,12.0285907 L14.001,5.95759069 L9.001,8.80959069 L9.001,14.4245907 L13.644,17.2385907 L18.001,14.4865907 L18.001,10.5045907 L20.001,10.5045907 L20.001,15.0375907 C20.001,15.3805907 19.825,15.6995907 19.535,15.8825907 L15.001,18.7475907 L15.001,22.0285907 L19.001,22.0285907 L19.001,23.9365907 L14.305,23.9365907 L9.525,26.8795907 L8.476,25.1765907 L13.001,22.3905907 L13.001,19.1875907 L8.61,16.5265907 C8.572,16.5565907 8.531,16.5835907 8.489,16.6065907 L4.001,19.1155907 L4,22.1605907 L8.446,19.1965907 L9.556,20.8605907 L4,24.5645907 L4.001,28.0645907 L8.44,30.2345907 C8.496,30.2615907 8.542,30.3005907 8.591,30.3365907 L11.401,28.2285907 L12.601,29.8285907 L9.001,32.5275907 L9.001,37.7105907 L13.621,40.4915907 L15.001,39.3405907 L15.001,31.0285907 L17.001,31.0285907 L17.001,37.6745907 L19.401,35.6735907 L20.683,37.2105907 L15.435,41.5835907 L18.419,43.3785907 L23.001,40.8185907 L23.001,39.0285907 Z" id="Fill-1"></path>
        </g>
    </g>
</svg>