<?xml version="1.0" encoding="UTF-8"?>
<svg width="48px" height="48px" viewBox="0 0 48 48" version="1.1" xmlns="http://www.w3.org/2000/svg" xmlns:xlink="http://www.w3.org/1999/xlink">
    <title>Icon-Resource/Machine-Learning/Res_Amazon-Rekognition_Video_48_Light</title>
    <g id="Icon-Resource/Machine-Learning/Res_Amazon-Rekognition_Video_48" stroke="none" stroke-width="1" fill="none" fill-rule="evenodd">
        <path d="M27.2689,22.2744 L24.1519,20.4934 L24.1519,24.0554 L27.2689,22.2744 Z M30.2849,22.2744 C30.2849,22.6324 30.0919,22.9644 29.7809,23.1424 L23.6479,26.6474 C23.4949,26.7354 23.3229,26.7794 23.1519,26.7794 C22.9779,26.7794 22.8049,26.7344 22.6499,26.6444 C22.3409,26.4644 22.1519,26.1354 22.1519,25.7794 L22.1519,18.7703905 C22.1519,18.4144 22.3409,18.0854 22.6499,17.9054 C22.9569,17.7274 23.3379,17.7244 23.6479,17.9024 L29.7809,21.4064 C30.0919,21.5844 30.2849,21.9154 30.2849,22.2744 L30.2849,22.2744 Z M19.7709,28.2834 L31.7889,28.2834 L31.7889,16.2654 L19.7709,16.2654 L19.7709,28.2834 Z M17.7709,29.2834 L17.7709,15.2654 C17.7709,14.7124 18.2179,14.2654 18.7709,14.2654 L32.7889,14.2654 C33.3409,14.2654 33.7889,14.7124 33.7889,15.2654 L33.7889,29.2834 C33.7889,29.8364 33.3409,30.2834 32.7889,30.2834 L18.7709,30.2834 C18.2179,30.2834 17.7709,29.8364 17.7709,29.2834 L17.7709,29.2834 Z M17.0979,34.5004 C15.7279,33.5234 14.5309,32.3254 13.5549,30.9544 L4.7329,39.7774 C4.2599,40.2504 3.9999,40.8784 3.9999,41.5484 C3.9999,42.2194 4.2599,42.8484 4.7329,43.3214 C5.6779,44.2664 7.3319,44.2664 8.2779,43.3214 L17.0979,34.5004 Z M12.7709,22.2744 C12.7709,29.4534 18.6109,35.2934 25.7889,35.2934 C32.9659,35.2934 38.8059,29.4534 38.8059,22.2744 C38.8059,15.0964 32.9659,9.2564 25.7889,9.2564 C18.6109,9.2564 12.7709,15.0964 12.7709,22.2744 L12.7709,22.2744 Z M18.8469,35.5794 L9.6919,44.7354 C8.8419,45.5864 7.7099,46.0534 6.5049,46.0534 C5.2999,46.0534 4.1679,45.5854 3.3189,44.7354 C2.4689,43.8854 1.9999,42.7544 1.9999,41.5484 C1.9999,40.3434 2.4689,39.2124 3.3189,38.3634 L12.4779,29.2034 C11.3929,27.1284 10.7709,24.7744 10.7709,22.2744 C10.7709,13.9944 17.5079,7.2564 25.7889,7.2564 C34.0689,7.2564 40.8059,13.9944 40.8059,22.2744 C40.8059,30.5554 34.0689,37.2934 25.7889,37.2934 C23.2839,37.2934 20.9249,36.6684 18.8469,35.5794 L18.8469,35.5794 Z M9.4219,30.4014 C8.1559,27.8874 7.5139,25.1534 7.5139,22.2744 C7.5139,19.1394 8.3209,16.0494 9.8469,13.3374 L8.1049,12.3574 C6.4099,15.3684 5.5139,18.7964 5.5139,22.2744 C5.5139,25.4234 6.2479,28.5454 7.6349,31.3014 L9.4219,30.4014 Z M46.0629,22.2744 C46.0629,33.4544 36.9679,42.5484 25.7889,42.5484 C22.6119,42.5484 19.5709,41.8364 16.7479,40.4294 L17.6399,38.6384 C20.1829,39.9064 22.9239,40.5484 25.7889,40.5484 C35.8649,40.5484 44.0629,32.3504 44.0629,22.2744 C44.0629,12.1984 35.8649,4.0004 25.7889,4.0004 C23.2569,4.0004 20.8099,4.5084 18.5139,5.5104 L17.7129,3.6784 C20.2629,2.5644 22.9799,2.0004 25.7889,2.0004 C36.9679,2.0004 46.0629,11.0944 46.0629,22.2744 L46.0629,22.2744 Z" id="Amazon-Rekognition_Amazon-Rekognition-video_Resource-Icon_light-bg" fill="#067F68"></path>
    </g>
</svg>