<?xml version="1.0" encoding="UTF-8"?>
<svg width="48px" height="48px" viewBox="0 0 48 48" version="1.1" xmlns="http://www.w3.org/2000/svg" xmlns:xlink="http://www.w3.org/1999/xlink">
    <title>Icon-Resource/Migration-and-Transfer/Res_AWS-Mainframe-Modernization_Compiler_48_Light</title>
    <g id="Icon-Resource/Migration-and-Transfer/Res_AWS-Mainframe-Modernization_Compiler_48" stroke="none" stroke-width="1" fill="none" fill-rule="evenodd">
        <path d="M29.471,23.2368 L32.646,20.0618 L29.471,16.8868 L30.885,15.4728 L34.767,19.3548 C35.158,19.7448 35.158,20.3778 34.767,20.7688 L30.885,24.6508 L29.471,23.2368 Z M14.408,20.7688 C14.018,20.3778 14.018,19.7448 14.408,19.3548 L18.29,15.4728 L19.704,16.8868 L16.53,20.0618 L19.704,23.2368 L18.29,24.6508 L14.408,20.7688 Z M23.282,25.7048 L21.424,24.9618 L25.641,14.4188 L27.498,15.1618 L23.282,25.7048 Z M33.873,43.9998 L14.081,43.9998 L5.091,36.9778 L11.59,31.6018 L13.901,33.8608 C14.55,34.4938 15.603,34.4918 16.248,33.8608 L17.8,32.3428 C18.503,32.6968 19.232,32.9928 19.979,33.2298 L19.979,35.3198 C19.979,36.2468 20.733,36.9998 21.659,36.9998 L27.299,36.9998 C28.225,36.9998 28.979,36.2468 28.979,35.3198 L28.979,33.4388 C29.698,33.1998 30.399,32.9028 31.075,32.5488 L32.548,34.0558 C33.187,34.7078 34.315,34.7078 34.951,34.0558 L36.894,32.0678 L42.861,36.9798 L33.873,43.9998 Z M11.284,21.9998 L8.979,21.9998 L8.979,16.9998 L11.502,16.9998 C11.958,16.9998 12.357,16.6918 12.47,16.2508 C12.751,15.1658 13.175,14.1198 13.732,13.1408 C13.952,12.7528 13.889,12.2668 13.577,11.9478 L11.768,10.0958 L15.207,6.5758 L16.987,8.3958 C17.311,8.7278 17.818,8.7928 18.213,8.5558 C19.167,7.9878 20.186,7.5558 21.241,7.2698 C21.676,7.1518 21.979,6.7568 21.979,6.3048 L21.979,3.9998 L26.979,3.9998 L26.979,6.5238 C26.979,6.9798 27.287,7.3778 27.729,7.4918 C28.812,7.7718 29.858,8.1958 30.838,8.7538 C31.225,8.9738 31.711,8.9118 32.032,8.5998 L33.883,6.7888 L37.402,10.2288 L35.582,12.0068 C35.252,12.3298 35.186,12.8368 35.422,13.2338 C35.99,14.1868 36.422,15.2058 36.709,16.2618 C36.827,16.6978 37.223,16.9998 37.674,16.9998 L39.979,16.9998 L39.979,21.9998 L37.455,21.9998 C36.999,21.9998 36.601,22.3078 36.488,22.7498 C36.207,23.8338 35.783,24.8798 35.226,25.8598 C35.005,26.2468 35.069,26.7338 35.38,27.0518 L37.19,28.9038 L36.748,29.3568 L36.592,29.2278 L35.321,30.7718 L35.345,30.7918 L33.75,32.4238 L31.971,30.6038 C31.649,30.2748 31.141,30.2088 30.744,30.4438 C29.79,31.0118 28.772,31.4448 27.717,31.7298 C27.282,31.8478 26.979,32.2438 26.979,32.6948 L26.979,34.9998 L21.979,34.9998 L21.979,32.4768 C21.979,32.0208 21.67,31.6228 21.229,31.5078 C20.146,31.2278 19.1,30.8038 18.119,30.2468 C17.734,30.0268 17.246,30.0888 16.926,30.4008 L15.075,32.2108 L11.556,28.7718 L13.375,26.9928 C13.705,26.6708 13.772,26.1628 13.535,25.7668 C12.968,24.8128 12.535,23.7938 12.248,22.7378 C12.13,22.3028 11.735,21.9998 11.284,21.9998 L11.284,21.9998 Z M38.297,30.6318 L38.837,30.0798 C39.473,29.4318 39.473,28.3778 38.838,27.7308 L37.323,26.1788 C37.676,25.4758 37.972,24.7478 38.208,23.9998 L40.299,23.9998 C41.225,23.9998 41.979,23.2468 41.979,22.3198 L41.979,16.6798 C41.979,15.7538 41.225,14.9998 40.299,14.9998 L38.417,14.9998 C38.178,14.2808 37.881,13.5788 37.528,12.9028 L39.034,11.4308 C39.361,11.1118 39.54,10.6848 39.54,10.2288 C39.54,9.7728 39.361,9.3448 39.034,9.0278 L35.057,5.1388 C34.408,4.5068 33.355,4.5078 32.709,5.1398 L31.158,6.6568 C30.454,6.3028 29.726,6.0068 28.979,5.7708 L28.979,3.6798 C28.979,2.7538 28.225,1.9998 27.299,1.9998 L21.659,1.9998 C20.733,1.9998 19.979,2.7538 19.979,3.6798 L19.979,5.5618 C19.26,5.7998 18.559,6.0968 17.882,6.4508 L16.409,4.9448 C15.771,4.2918 14.643,4.2918 14.006,4.9448 L10.12,8.9208 C9.485,9.5688 9.485,10.6228 10.119,11.2698 L11.635,12.8208 C11.283,13.5238 10.986,14.2528 10.749,14.9998 L8.659,14.9998 C7.733,14.9998 6.979,15.7538 6.979,16.6798 L6.979,22.3198 C6.979,23.2468 7.733,23.9998 8.659,23.9998 L10.54,23.9998 C10.78,24.7188 11.076,25.4208 11.43,26.0968 L9.924,27.5698 C9.597,27.8878 9.417,28.3148 9.417,28.7708 C9.417,29.2278 9.597,29.6548 9.923,29.9718 L10.151,30.1948 L1.9,37.0228 L13.392,45.9998 L34.563,45.9998 L46.058,37.0208 L38.297,30.6318 Z" id="Fill-1" fill="#067F68"></path>
    </g>
</svg>