<?xml version="1.0" encoding="UTF-8"?>
<svg width="64px" height="64px" viewBox="0 0 64 64" version="1.1" xmlns="http://www.w3.org/2000/svg" xmlns:xlink="http://www.w3.org/1999/xlink">
    <title>Icon-Architecture/48/Arch_AWS-Cloud-Control-API_48</title>
    <defs>
        <linearGradient x1="0%" y1="100%" x2="100%" y2="0%" id="linearGradient-1">
            <stop stop-color="#2E27AD" offset="0%"></stop>
            <stop stop-color="#527FFF" offset="100%"></stop>
        </linearGradient>
    </defs>
    <g id="Icon-Architecture/48/Arch_AWS-Cloud-Control-API_48" stroke="none" stroke-width="1" fill="none" fill-rule="evenodd">
        <g id="Rectangle" fill="url(#linearGradient-1)">
            <rect x="0" y="0" width="64" height="64"></rect>
        </g>
        <g id="Icon-Service/48/AWS-Cloud-Control-API_48" transform="translate(8.000000, 8.000000)" fill="#FFFFFF">
            <path d="M4,28.9928816 C4,26.2358816 6.243,23.9928816 9,23.9928816 L27.586,23.9928816 L24.293,27.2858816 L25.707,28.6998816 L30.707,23.6998816 C31.098,23.3088816 31.098,22.6768816 30.707,22.2858816 L25.707,17.2858816 L24.293,18.6998816 L27.586,21.9928816 L9,21.9928816 C5.141,21.9928816 2,25.1328816 2,28.9928816 C2,32.8528816 5.141,35.9928816 9,35.9928816 L10.905,35.9928816 L10.905,33.9928816 L9,33.9928816 C6.243,33.9928816 4,31.7498816 4,28.9928816 M46,27.4958816 C46,33.8058816 40.764,35.8548816 37.995,36.0568816 L17.412,36.0598816 L20.802,39.4498816 L19.388,40.8638816 L14.328,35.8038816 C13.937,35.4128816 13.937,34.7808816 14.328,34.3898816 L19.388,29.3298816 L20.802,30.7438816 L17.486,34.0598816 L37.922,34.0598816 C38.098,34.0428816 44,33.5068816 44,27.4958816 C44,26.3928816 43.795,25.4008816 43.39,24.5478816 C42.87,23.4538816 42.014,22.5608816 40.844,21.8928816 C40.409,21.6448816 39.932,21.4298816 39.425,21.2528816 C38.935,21.0818816 38.432,20.9518816 37.929,20.8648816 C37.394,20.7728816 37.029,20.2688816 37.109,19.7318816 C37.111,19.1998816 37.047,18.6438816 36.92,18.1428816 C36.528,16.6088816 35.529,15.5768816 34.181,15.3138816 C32.867,15.0598816 31.505,15.6018816 30.696,16.6988816 C30.478,16.9968816 30.107,17.1488816 29.744,17.0948816 C29.378,17.0398816 29.071,16.7868816 28.948,16.4378816 C28.322,14.6598816 27.416,13.1658816 26.255,11.9978816 C24.833,10.5678816 20.933,7.49388156 15.427,9.83088156 C12.249,11.1808816 9.759,15.0738816 9.759,18.6918816 L7.759,18.6918816 C7.759,14.2588816 10.72,9.65788156 14.645,7.99088156 C19.243,6.03688156 24.115,7.00888156 27.673,10.5878816 C28.715,11.6368816 29.58,12.8948816 30.253,14.3438816 C31.479,13.4368816 33.044,13.0548816 34.563,13.3508816 C36.671,13.7618816 38.275,15.3688816 38.857,17.6498816 C38.972,18.0968816 39.047,18.5708816 39.084,19.0658816 C39.421,19.1498816 39.755,19.2498816 40.083,19.3648816 C40.705,19.5808816 41.294,19.8468816 41.835,20.1558816 C43.367,21.0308816 44.498,22.2198816 45.196,23.6898816 C45.729,24.8128816 46,26.0938816 46,27.4958816" id="Fill-4"></path>
        </g>
    </g>
</svg>