<?xml version="1.0" encoding="UTF-8"?>
<svg width="48px" height="48px" viewBox="0 0 48 48" version="1.1" xmlns="http://www.w3.org/2000/svg" xmlns:xlink="http://www.w3.org/1999/xlink">
    <title>Icon-Resource/Robotics/Res_AWS-Robo-Maker_Simulation_48_Light</title>
    <g id="Icon-Resource/Robotics/Res_AWS-Robo-Maker_Simulation_48" stroke="none" stroke-width="1" fill="none" fill-rule="evenodd">
        <path d="M43.4075,15.9072 C43.4075,15.7242 43.2585,15.5752 43.0745,15.5752 C42.8915,15.5752 42.7425,15.7242 42.7425,15.9072 C42.7425,16.0902 42.8915,16.2392 43.0745,16.2392 C43.2585,16.2392 43.4075,16.0902 43.4075,15.9072 L43.4075,15.9072 Z M45.3565,15.9072 C45.3565,17.1652 44.3335,18.1882 43.0745,18.1882 C41.8165,18.1882 40.7935,17.1652 40.7935,15.9072 C40.7935,14.6492 41.8165,13.6262 43.0745,13.6262 C44.3335,13.6262 45.3565,14.6492 45.3565,15.9072 L45.3565,15.9072 Z M25.9065,23.3252 C25.9065,23.6232 26.1485,23.8652 26.4465,23.8652 C26.7445,23.8652 26.9865,23.6232 26.9865,23.3252 C26.9865,23.0272 26.7445,22.7842 26.4465,22.7842 C26.1485,22.7842 25.9065,23.0272 25.9065,23.3252 L25.9065,23.3252 Z M26.4465,20.7842 C27.8465,20.7842 28.9865,21.9242 28.9865,23.3252 C28.9865,24.7252 27.8465,25.8652 26.4465,25.8652 C25.0465,25.8652 23.9065,24.7252 23.9065,23.3252 C23.9065,21.9242 25.0465,20.7842 26.4465,20.7842 L26.4465,20.7842 Z M43.0875,23.2542 C43.3685,23.2542 43.5975,23.0252 43.5975,22.7442 C43.5975,22.4632 43.3685,22.2342 43.0875,22.2342 C42.8055,22.2342 42.5775,22.4632 42.5775,22.7442 C42.5775,23.0252 42.8055,23.2542 43.0875,23.2542 L43.0875,23.2542 Z M43.0875,24.2542 C42.2555,24.2542 41.5775,23.5762 41.5775,22.7442 C41.5775,21.9122 42.2555,21.2342 43.0875,21.2342 C43.9205,21.2342 44.5975,21.9122 44.5975,22.7442 C44.5975,23.5762 43.9205,24.2542 43.0875,24.2542 L43.0875,24.2542 Z M26.4465,18.8362 C26.7425,18.8362 26.9825,18.5952 26.9825,18.3002 C26.9825,18.0042 26.7425,17.7632 26.4465,17.7632 C26.1505,17.7632 25.9105,18.0042 25.9105,18.3002 C25.9105,18.5952 26.1505,18.8362 26.4465,18.8362 L26.4465,18.8362 Z M26.4465,19.5862 C25.7375,19.5862 25.1605,19.0092 25.1605,18.3002 C25.1605,17.5912 25.7375,17.0132 26.4465,17.0132 C27.1555,17.0132 27.7325,17.5912 27.7325,18.3002 C27.7325,19.0092 27.1555,19.5862 26.4465,19.5862 L26.4465,19.5862 Z M39.1235,20.3952 C39.1235,20.0062 38.8055,19.6882 38.4165,19.6882 C38.0265,19.6882 37.7095,20.0062 37.7095,20.3952 C37.7095,20.7852 38.0265,21.1022 38.4165,21.1022 C38.8055,21.1022 39.1235,20.7852 39.1235,20.3952 L39.1235,20.3952 Z M41.1235,20.3952 C41.1235,21.8872 39.9085,23.1022 38.4165,23.1022 C36.9245,23.1022 35.7095,21.8872 35.7095,20.3952 C35.7095,18.9032 36.9245,17.6882 38.4165,17.6882 C39.9085,17.6882 41.1235,18.9032 41.1235,20.3952 L41.1235,20.3952 Z M26.6465,29.1572 C26.6465,29.0532 26.5605,28.9682 26.4565,28.9682 C26.3515,28.9682 26.2665,29.0532 26.2665,29.1572 C26.2665,29.3662 26.6465,29.3662 26.6465,29.1572 L26.6465,29.1572 Z M28.5955,29.1572 C28.5955,30.3372 27.6365,31.2962 26.4565,31.2962 C25.2765,31.2962 24.3175,30.3372 24.3175,29.1572 C24.3175,27.9772 25.2765,27.0182 26.4565,27.0182 C27.6365,27.0182 28.5955,27.9772 28.5955,29.1572 L28.5955,29.1572 Z M32.0355,29.7002 C32.3315,29.7002 32.5715,29.4602 32.5715,29.1642 C32.5715,28.8682 32.3315,28.6282 32.0355,28.6282 C31.7395,28.6282 31.4995,28.8682 31.4995,29.1642 C31.4995,29.4602 31.7395,29.7002 32.0355,29.7002 L32.0355,29.7002 Z M32.0355,30.4502 C31.3265,30.4502 30.7495,29.8732 30.7495,29.1642 C30.7495,28.4552 31.3265,27.8782 32.0355,27.8782 C32.7445,27.8782 33.3215,28.4552 33.3215,29.1642 C33.3215,29.8732 32.7445,30.4502 32.0355,30.4502 L32.0355,30.4502 Z M41.9615,30.2412 C41.9615,30.6312 42.2785,30.9482 42.6685,30.9482 C43.0575,30.9482 43.3755,30.6312 43.3755,30.2412 C43.3755,29.8512 43.0575,29.5342 42.6685,29.5342 C42.2785,29.5342 41.9615,29.8512 41.9615,30.2412 L41.9615,30.2412 Z M42.6685,27.5342 C44.1605,27.5342 45.3755,28.7492 45.3755,30.2412 C45.3755,31.7332 44.1605,32.9482 42.6685,32.9482 C41.1765,32.9482 39.9615,31.7332 39.9615,30.2412 C39.9615,28.7492 41.1765,27.5342 42.6685,27.5342 L42.6685,27.5342 Z M19.4705,26.1232 C20.5515,26.0902 20.7115,25.0062 20.7715,24.5982 C20.8525,24.0472 20.9295,23.6912 21.3115,23.4172 C21.7615,23.0932 22.2435,22.8942 22.7435,22.8272 L22.4775,20.8442 C21.6585,20.9552 20.8505,21.2832 20.1415,21.7942 C19.1175,22.5322 18.9075,23.5612 18.8105,24.1832 C17.0115,24.4812 14.7845,25.8822 14.7845,28.9872 C14.7845,30.5952 15.2615,31.8702 16.2015,32.7752 C17.4865,34.0122 19.2005,34.0792 19.5355,34.0792 C19.5695,34.0792 19.5895,34.0782 19.5935,34.0782 L32.7715,34.0782 C32.8475,34.0782 34.6575,34.0682 36.1085,33.1972 C38.0705,32.0192 39.2835,28.8982 37.9145,25.7152 C37.1475,23.9312 35.7095,23.4952 34.6575,23.1772 C34.4035,23.0992 34.1605,23.0252 33.9435,22.9402 C33.9085,22.4862 33.8005,21.7202 33.0735,20.6302 C31.2655,17.9182 28.5675,18.3432 28.4565,18.3622 L28.7795,20.3352 C28.8445,20.3302 30.3395,20.1342 31.4095,21.7392 C31.9095,22.4902 31.9355,22.8822 31.9575,23.1962 C31.9795,23.5302 32.0255,24.2242 32.7935,24.6142 C33.2185,24.8302 33.6545,24.9632 34.0775,25.0912 C35.0995,25.4002 35.6965,25.6192 36.0765,26.5042 C37.0975,28.8802 36.0855,30.8792 35.0795,31.4822 C34.1105,32.0632 32.7825,32.0782 32.7715,32.0782 L19.5625,32.0782 C19.5425,32.0772 18.3715,32.0992 17.5765,31.3232 C17.0515,30.8092 16.7845,30.0232 16.7845,28.9872 C16.7845,26.2402 19.3615,26.1272 19.4705,26.1232 L19.4705,26.1232 Z M4.0005,12.1362 L11.3565,12.1362 L11.3565,8.0002 L4.0005,8.0002 L4.0005,12.1362 Z M4.0005,32.8452 L11.3565,32.8452 L11.3565,27.4782 L4.0005,27.4782 L4.0005,32.8452 Z M4.0005,18.8402 L11.3565,18.8402 L11.3565,14.1362 L4.0005,14.1362 L4.0005,18.8402 Z M4.0005,25.4782 L11.3565,25.4782 L11.3565,20.8392 L4.0005,20.8392 L4.0005,25.4782 Z M45.9915,6.0002 L45.9915,8.0002 L13.3565,8.0002 L13.3565,41.2032 C13.3565,41.7562 12.9095,42.2032 12.3565,42.2032 L3.0005,42.2032 L3.0005,40.2032 L11.3565,40.2032 L11.3565,34.8452 L4.0005,34.8452 L4.0005,38.8922 L2.0005,38.8922 L2.0005,7.0002 C2.0005,6.4472 2.4475,6.0002 3.0005,6.0002 L45.9915,6.0002 Z M14.6795,42.1652 L45.9915,42.1652 L45.9915,40.1652 L14.6795,40.1652 L14.6795,42.1652 Z M5.4125,11.0302 L6.9525,11.0302 L6.9525,9.0302 L5.4125,9.0302 L5.4125,11.0302 Z M14.6795,11.0302 L45.9915,11.0302 L45.9915,9.0302 L14.6795,9.0302 L14.6795,11.0302 Z" id="AWS-Robo-Maker_Simulation_Resource-Icon_light-bg" fill="#BF0816"></path>
    </g>
</svg>