<?xml version="1.0" encoding="UTF-8"?>
<svg width="48px" height="48px" viewBox="0 0 48 48" version="1.1" xmlns="http://www.w3.org/2000/svg" xmlns:xlink="http://www.w3.org/1999/xlink">
    <title>Icon-Resource/Robotics/Res_AWS-Robo-Maker_Cloud-Extensions-ROS_48_Light</title>
    <g id="Icon-Resource/Robotics/Res_AWS-Robo-Maker_Cloud-Extensions-ROS_48" stroke="none" stroke-width="1" fill="none" fill-rule="evenodd">
        <path d="M23.9675,43.2587 C23.4005,43.2587 22.9385,42.7967 22.9385,42.2297 C22.9385,41.6617 23.4005,41.2007 23.9675,41.2007 C24.5345,41.2007 24.9965,41.6617 24.9965,42.2297 C24.9965,42.7967 24.5345,43.2587 23.9675,43.2587 M23.9675,39.2007 C22.2975,39.2007 20.9385,40.5597 20.9385,42.2297 C20.9385,43.8997 22.2975,45.2587 23.9675,45.2587 C25.6375,45.2587 26.9965,43.8997 26.9965,42.2297 C26.9965,40.5597 25.6375,39.2007 23.9675,39.2007 M14.4985,32.4077 C15.0665,32.4077 15.5275,32.8697 15.5275,33.4377 C15.5275,34.0047 15.0665,34.4657 14.4985,34.4657 C13.9315,34.4657 13.4695,34.0047 13.4695,33.4377 C13.4695,32.8697 13.9315,32.4077 14.4985,32.4077 M14.4985,36.4657 C16.1685,36.4657 17.5275,35.1077 17.5275,33.4377 C17.5275,31.7677 16.1685,30.4077 14.4985,30.4077 C12.8285,30.4077 11.4695,31.7677 11.4695,33.4377 C11.4695,35.1077 12.8285,36.4657 14.4985,36.4657 M14.4985,15.5277 C13.9315,15.5277 13.4695,15.0667 13.4695,14.4987 C13.4695,13.9317 13.9315,13.4697 14.4985,13.4697 C15.0665,13.4697 15.5275,13.9317 15.5275,14.4987 C15.5275,15.0667 15.0665,15.5277 14.4985,15.5277 M17.5275,14.4987 C17.5275,12.8287 16.1685,11.4697 14.4985,11.4697 C12.8285,11.4697 11.4695,12.8287 11.4695,14.4987 C11.4695,16.1687 12.8285,17.5277 14.4985,17.5277 C16.1685,17.5277 17.5275,16.1687 17.5275,14.4987 M33.4375,6.7347 C32.8695,6.7347 32.4075,6.2737 32.4075,5.7057 C32.4075,5.1387 32.8695,4.6767 33.4375,4.6767 C34.0045,4.6767 34.4655,5.1387 34.4655,5.7057 C34.4655,6.2737 34.0045,6.7347 33.4375,6.7347 M33.4375,2.6767 C31.7675,2.6767 30.4075,4.0357 30.4075,5.7057 C30.4075,7.3757 31.7675,8.7347 33.4375,8.7347 C35.1075,8.7347 36.4655,7.3757 36.4655,5.7057 C36.4655,4.0357 35.1075,2.6767 33.4375,2.6767 M42.2295,43.2587 C41.6615,43.2587 41.2005,42.7967 41.2005,42.2297 C41.2005,41.6617 41.6615,41.2007 42.2295,41.2007 C42.7965,41.2007 43.2585,41.6617 43.2585,42.2297 C43.2585,42.7967 42.7965,43.2587 42.2295,43.2587 M42.2295,39.2007 C40.5595,39.2007 39.2005,40.5597 39.2005,42.2297 C39.2005,43.8997 40.5595,45.2587 42.2295,45.2587 C43.8995,45.2587 45.2585,43.8997 45.2585,42.2297 C45.2585,40.5597 43.8995,39.2007 42.2295,39.2007 M33.4375,34.4657 C32.8695,34.4657 32.4075,34.0047 32.4075,33.4377 C32.4075,32.8697 32.8695,32.4077 33.4375,32.4077 C34.0045,32.4077 34.4655,32.8697 34.4655,33.4377 C34.4655,34.0047 34.0045,34.4657 33.4375,34.4657 M33.4375,30.4077 C31.7675,30.4077 30.4075,31.7677 30.4075,33.4377 C30.4075,35.1077 31.7675,36.4657 33.4375,36.4657 C35.1075,36.4657 36.4655,35.1077 36.4655,33.4377 C36.4655,31.7677 35.1075,30.4077 33.4375,30.4077 M33.4375,24.9967 C32.8695,24.9967 32.4075,24.5347 32.4075,23.9677 C32.4075,23.4007 32.8695,22.9387 33.4375,22.9387 C34.0045,22.9387 34.4655,23.4007 34.4655,23.9677 C34.4655,24.5347 34.0045,24.9967 33.4375,24.9967 M33.4375,20.9387 C31.7675,20.9387 30.4075,22.2977 30.4075,23.9677 C30.4075,25.6377 31.7675,26.9967 33.4375,26.9967 C35.1075,26.9967 36.4655,25.6377 36.4655,23.9677 C36.4655,22.2977 35.1075,20.9387 33.4375,20.9387 M5.7055,5.3817 C5.8845,5.3817 6.0295,5.5277 6.0295,5.7057 C6.0295,5.8847 5.8845,6.0297 5.7055,6.0297 C5.5275,6.0297 5.3815,5.8847 5.3815,5.7057 C5.3815,5.5277 5.5275,5.3817 5.7055,5.3817 M5.7055,7.3817 C6.6295,7.3817 7.3815,6.6297 7.3815,5.7057 C7.3815,4.7807 6.6295,4.0297 5.7055,4.0297 C4.7805,4.0297 4.0295,4.7807 4.0295,5.7057 C4.0295,6.6297 4.7805,7.3817 5.7055,7.3817 M5.7055,42.5537 C5.5275,42.5537 5.3815,42.4077 5.3815,42.2297 C5.3815,42.0507 5.5275,41.9057 5.7055,41.9057 C5.8845,41.9057 6.0295,42.0507 6.0295,42.2297 C6.0295,42.4077 5.8845,42.5537 5.7055,42.5537 M5.7055,40.5537 C4.7805,40.5537 4.0295,41.3057 4.0295,42.2297 C4.0295,43.1547 4.7805,43.9057 5.7055,43.9057 C6.6295,43.9057 7.3815,43.1547 7.3815,42.2297 C7.3815,41.3057 6.6295,40.5537 5.7055,40.5537 M23.2905,31.8407 C23.4695,31.8407 23.6145,31.9867 23.6145,32.1647 C23.6145,32.3437 23.4695,32.4877 23.2905,32.4877 C23.1125,32.4877 22.9675,32.3437 22.9675,32.1647 C22.9675,31.9867 23.1125,31.8407 23.2905,31.8407 M23.2905,33.8407 C24.2155,33.8407 24.9675,33.0887 24.9675,32.1647 C24.9675,31.2397 24.2155,30.4877 23.2905,30.4877 C22.3665,30.4877 21.6145,31.2397 21.6145,32.1647 C21.6145,33.0887 22.3665,33.8407 23.2905,33.8407 M23.2905,23.6447 C23.4695,23.6447 23.6145,23.7887 23.6145,23.9677 C23.6145,24.1467 23.4695,24.2907 23.2905,24.2907 C23.1125,24.2907 22.9675,24.1467 22.9675,23.9677 C22.9675,23.7887 23.1125,23.6447 23.2905,23.6447 M23.2905,25.6447 C24.2155,25.6447 24.9675,24.8927 24.9675,23.9677 C24.9675,23.0427 24.2155,22.2907 23.2905,22.2907 C22.3665,22.2907 21.6145,23.0427 21.6145,23.9677 C21.6145,24.8927 22.3665,25.6447 23.2905,25.6447 M14.8215,23.9677 C14.8215,24.1467 14.6775,24.2907 14.4985,24.2907 C14.3205,24.2907 14.1745,24.1467 14.1745,23.9677 C14.1745,23.7887 14.3205,23.6447 14.4985,23.6447 C14.6775,23.6447 14.8215,23.7887 14.8215,23.9677 M12.8215,23.9677 C12.8215,24.8927 13.5735,25.6447 14.4985,25.6447 C15.4225,25.6447 16.1745,24.8927 16.1745,23.9677 C16.1745,23.0427 15.4225,22.2907 14.4985,22.2907 C13.5735,22.2907 12.8215,23.0427 12.8215,23.9677 M5.7055,33.7607 C5.5275,33.7607 5.3815,33.6157 5.3815,33.4377 C5.3815,33.2587 5.5275,33.1127 5.7055,33.1127 C5.8845,33.1127 6.0295,33.2587 6.0295,33.4377 C6.0295,33.6157 5.8845,33.7607 5.7055,33.7607 M5.7055,31.7607 C4.7805,31.7607 4.0295,32.5127 4.0295,33.4377 C4.0295,34.3617 4.7805,35.1127 5.7055,35.1127 C6.6295,35.1127 7.3815,34.3617 7.3815,33.4377 C7.3815,32.5127 6.6295,31.7607 5.7055,31.7607 M23.9675,5.3817 C24.1465,5.3817 24.2905,5.5277 24.2905,5.7057 C24.2905,5.8847 24.1465,6.0297 23.9675,6.0297 C23.7885,6.0297 23.6445,5.8847 23.6445,5.7057 C23.6445,5.5277 23.7885,5.3817 23.9675,5.3817 M23.9675,7.3817 C24.8925,7.3817 25.6445,6.6297 25.6445,5.7057 C25.6445,4.7807 24.8925,4.0297 23.9675,4.0297 C23.0425,4.0297 22.2905,4.7807 22.2905,5.7057 C22.2905,6.6297 23.0425,7.3817 23.9675,7.3817 M33.1135,14.4987 C33.1135,14.3207 33.2585,14.1747 33.4375,14.1747 C33.6155,14.1747 33.7605,14.3207 33.7605,14.4987 C33.7605,14.6777 33.6155,14.8217 33.4375,14.8217 C33.2585,14.8217 33.1135,14.6777 33.1135,14.4987 M35.1135,14.4987 C35.1135,13.5737 34.3615,12.8217 33.4375,12.8217 C32.5125,12.8217 31.7605,13.5737 31.7605,14.4987 C31.7605,15.4227 32.5125,16.1747 33.4375,16.1747 C34.3615,16.1747 35.1135,15.4227 35.1135,14.4987 M41.9055,33.4377 C41.9055,33.2587 42.0505,33.1127 42.2295,33.1127 C42.4075,33.1127 42.5535,33.2587 42.5535,33.4377 C42.5535,33.6157 42.4075,33.7607 42.2295,33.7607 C42.0505,33.7607 41.9055,33.6157 41.9055,33.4377 M43.9055,33.4377 C43.9055,32.5127 43.1545,31.7607 42.2295,31.7607 C41.3055,31.7607 40.5535,32.5127 40.5535,33.4377 C40.5535,34.3617 41.3055,35.1127 42.2295,35.1127 C43.1545,35.1127 43.9055,34.3617 43.9055,33.4377 M33.4375,42.5537 C33.2585,42.5537 33.1135,42.4077 33.1135,42.2297 C33.1135,42.0507 33.2585,41.9057 33.4375,41.9057 C33.6155,41.9057 33.7605,42.0507 33.7605,42.2297 C33.7605,42.4077 33.6155,42.5537 33.4375,42.5537 M33.4375,40.5537 C32.5125,40.5537 31.7605,41.3057 31.7605,42.2297 C31.7605,43.1547 32.5125,43.9057 33.4375,43.9057 C34.3615,43.9057 35.1135,43.1547 35.1135,42.2297 C35.1135,41.3057 34.3615,40.5537 33.4375,40.5537 M42.2295,5.3817 C42.4075,5.3817 42.5535,5.5277 42.5535,5.7057 C42.5535,5.8847 42.4075,6.0297 42.2295,6.0297 C42.0505,6.0297 41.9055,5.8847 41.9055,5.7057 C41.9055,5.5277 42.0505,5.3817 42.2295,5.3817 M42.2295,7.3817 C43.1545,7.3817 43.9055,6.6297 43.9055,5.7057 C43.9055,4.7807 43.1545,4.0297 42.2295,4.0297 C41.3055,4.0297 40.5535,4.7807 40.5535,5.7057 C40.5535,6.6297 41.3055,7.3817 42.2295,7.3817 M5.7055,16.2037 C4.7655,16.2037 3.9995,15.4397 3.9995,14.4987 C3.9995,13.5587 4.7655,12.7927 5.7055,12.7927 C6.6465,12.7927 7.4105,13.5587 7.4105,14.4987 C7.4105,15.4397 6.6465,16.2037 5.7055,16.2037 M5.7055,10.7927 C3.6615,10.7927 1.9995,12.4547 1.9995,14.4987 C1.9995,16.5417 3.6615,18.2037 5.7055,18.2037 C7.7485,18.2037 9.4105,16.5417 9.4105,14.4987 C9.4105,12.4547 7.7485,10.7927 5.7055,10.7927 M5.7055,25.6727 C4.7655,25.6727 3.9995,24.9077 3.9995,23.9677 C3.9995,23.0277 4.7655,22.2627 5.7055,22.2627 C6.6465,22.2627 7.4105,23.0277 7.4105,23.9677 C7.4105,24.9077 6.6465,25.6727 5.7055,25.6727 M5.7055,20.2627 C3.6615,20.2627 1.9995,21.9247 1.9995,23.9677 C1.9995,26.0107 3.6615,27.6727 5.7055,27.6727 C7.7485,27.6727 9.4105,26.0107 9.4105,23.9677 C9.4105,21.9247 7.7485,20.2627 5.7055,20.2627 M14.4985,43.9357 C13.5585,43.9357 12.7925,43.1697 12.7925,42.2297 C12.7925,41.2887 13.5585,40.5247 14.4985,40.5247 C15.4395,40.5247 16.2035,41.2887 16.2035,42.2297 C16.2035,43.1697 15.4395,43.9357 14.4985,43.9357 M14.4985,38.5247 C12.4545,38.5247 10.7925,40.1867 10.7925,42.2297 C10.7925,44.2737 12.4545,45.9357 14.4985,45.9357 C16.5415,45.9357 18.2035,44.2737 18.2035,42.2297 C18.2035,40.1867 16.5415,38.5247 14.4985,38.5247 M14.4985,7.4107 C13.5585,7.4107 12.7925,6.6467 12.7925,5.7057 C12.7925,4.7657 13.5585,3.9997 14.4985,3.9997 C15.4395,3.9997 16.2035,4.7657 16.2035,5.7057 C16.2035,6.6467 15.4395,7.4107 14.4985,7.4107 M14.4985,1.9997 C12.4545,1.9997 10.7925,3.6617 10.7925,5.7057 C10.7925,7.7487 12.4545,9.4107 14.4985,9.4107 C16.5415,9.4107 18.2035,7.7487 18.2035,5.7057 C18.2035,3.6617 16.5415,1.9997 14.4985,1.9997 M23.9675,16.2037 C23.0275,16.2037 22.2625,15.4397 22.2625,14.4987 C22.2625,13.5587 23.0275,12.7927 23.9675,12.7927 C24.9075,12.7927 25.6735,13.5587 25.6735,14.4987 C25.6735,15.4397 24.9075,16.2037 23.9675,16.2037 M23.9675,10.7927 C21.9245,10.7927 20.2625,12.4547 20.2625,14.4987 C20.2625,16.5417 21.9245,18.2037 23.9675,18.2037 C26.0115,18.2037 27.6735,16.5417 27.6735,14.4987 C27.6735,12.4547 26.0115,10.7927 23.9675,10.7927 M42.2295,25.6727 C41.2885,25.6727 40.5245,24.9077 40.5245,23.9677 C40.5245,23.0277 41.2885,22.2627 42.2295,22.2627 C43.1695,22.2627 43.9355,23.0277 43.9355,23.9677 C43.9355,24.9077 43.1695,25.6727 42.2295,25.6727 M42.2295,20.2627 C40.1865,20.2627 38.5245,21.9247 38.5245,23.9677 C38.5245,26.0107 40.1865,27.6727 42.2295,27.6727 C44.2735,27.6727 45.9355,26.0107 45.9355,23.9677 C45.9355,21.9247 44.2735,20.2627 42.2295,20.2627 M42.2295,12.7927 C43.1695,12.7927 43.9355,13.5587 43.9355,14.4987 C43.9355,15.4397 43.1695,16.2037 42.2295,16.2037 C41.2885,16.2037 40.5245,15.4397 40.5245,14.4987 C40.5245,13.5587 41.2885,12.7927 42.2295,12.7927 M42.2295,18.2037 C44.2735,18.2037 45.9355,16.5417 45.9355,14.4987 C45.9355,12.4547 44.2735,10.7927 42.2295,10.7927 C40.1865,10.7927 38.5245,12.4547 38.5245,14.4987 C38.5245,16.5417 40.1865,18.2037 42.2295,18.2037" id="AWS-Robo-Maker_Cloud-extensions-ROS_Resource-Icon_light-bg" fill="#BF0816"></path>
    </g>
</svg>