<?xml version="1.0" encoding="UTF-8"?>
<svg width="48px" height="48px" viewBox="0 0 48 48" version="1.1" xmlns="http://www.w3.org/2000/svg" xmlns:xlink="http://www.w3.org/1999/xlink">
    <title>Icon-Resource/Robotics/Res_AWS-Robo-Maker_Development-Environment_48_Light</title>
    <g id="Icon-Resource/Robotics/Res_AWS-Robo-Maker_Development-Environment_48" stroke="none" stroke-width="1" fill="none" fill-rule="evenodd">
        <path d="M22.2644,35.627 C22.2644,36.263 22.7824,36.78 23.4174,36.78 C24.0534,36.78 24.5714,36.263 24.5714,35.627 C24.5714,34.991 24.0534,34.475 23.4174,34.475 C22.7824,34.475 22.2644,34.991 22.2644,35.627 L22.2644,35.627 Z M23.4174,32.475 C25.1564,32.475 26.5714,33.889 26.5714,35.627 C26.5714,37.365 25.1564,38.78 23.4174,38.78 C21.6794,38.78 20.2644,37.365 20.2644,35.627 C20.2644,33.889 21.6794,32.475 23.4174,32.475 L23.4174,32.475 Z M24.0104,27.459 C23.7564,27.459 23.5494,27.666 23.5494,27.921 C23.5494,28.176 23.7564,28.383 24.0104,28.383 C24.2654,28.383 24.4724,28.176 24.4724,27.921 C24.4724,27.666 24.2654,27.459 24.0104,27.459 L24.0104,27.459 Z M24.0104,26.383 C24.8594,26.383 25.5494,27.073 25.5494,27.921 C25.5494,28.769 24.8594,29.459 24.0104,29.459 C23.1624,29.459 22.4724,28.769 22.4724,27.921 C22.4724,27.073 23.1624,26.383 24.0104,26.383 L24.0104,26.383 Z M36.8934,30.599 L34.4224,33.069 L35.8364,34.483 L36.6004,33.72 L36.6004,40.592 L38.6004,40.592 L38.6004,33.72 L39.3644,34.483 L40.7784,33.069 L38.3074,30.599 C37.9164,30.208 37.2844,30.208 36.8934,30.599 L36.8934,30.599 Z M44.0134,35.65 C44.0134,32.114 41.1364,29.237 37.6004,29.237 C34.0644,29.237 31.1874,32.114 31.1874,35.65 C31.1874,39.187 34.0644,42.064 37.6004,42.064 C41.1364,42.064 44.0134,39.187 44.0134,35.65 L44.0134,35.65 Z M46.0134,35.65 C46.0134,40.289 42.2394,44.064 37.6004,44.064 C32.9614,44.064 29.1874,40.289 29.1874,35.65 C29.1874,31.012 32.9614,27.237 37.6004,27.237 C42.2394,27.237 46.0134,31.012 46.0134,35.65 L46.0134,35.65 Z M19.3264,13.818 L36.3034,13.818 L36.3034,26.162 L38.3034,26.162 L38.3034,12.818 C38.3034,12.266 37.8564,11.818 37.3034,11.818 L18.3264,11.818 C17.7744,11.818 17.3274,12.266 17.3274,12.818 L17.3274,41.284 C17.3274,41.837 17.7744,42.284 18.3264,42.284 L30.1874,42.284 L30.1874,40.284 L19.3264,40.284 L19.3264,13.818 Z M11.5354,29.223 C11.5354,29.562 11.8114,29.838 12.1504,29.838 C12.4894,29.838 12.7654,29.562 12.7654,29.223 C12.7654,28.884 12.4894,28.607 12.1504,28.607 C11.8114,28.607 11.5354,28.884 11.5354,29.223 L11.5354,29.223 Z M9.5354,29.223 C9.5354,27.78 10.7084,26.607 12.1504,26.607 C13.5924,26.607 14.7654,27.78 14.7654,29.223 C14.7654,30.665 13.5924,31.838 12.1504,31.838 C10.7084,31.838 9.5354,30.665 9.5354,29.223 L9.5354,29.223 Z M12.7654,14.15 C12.7654,13.812 12.4894,13.536 12.1504,13.536 C11.8114,13.536 11.5354,13.812 11.5354,14.15 C11.5354,14.489 11.8114,14.766 12.1504,14.766 C12.4894,14.766 12.7654,14.489 12.7654,14.15 L12.7654,14.15 Z M12.1504,16.766 C10.7084,16.766 9.5354,15.593 9.5354,14.15 C9.5354,12.709 10.7084,11.536 12.1504,11.536 C13.5924,11.536 14.7654,12.709 14.7654,14.15 C14.7654,15.593 13.5924,16.766 12.1504,16.766 L12.1504,16.766 Z M26.6074,7.152 C26.6074,7.491 26.8834,7.768 27.2224,7.768 C27.5614,7.768 27.8374,7.491 27.8374,7.152 C27.8374,6.814 27.5614,6.538 27.2224,6.538 C26.8834,6.538 26.6074,6.814 26.6074,7.152 L26.6074,7.152 Z M24.6074,7.152 C24.6074,5.711 25.7804,4.538 27.2224,4.538 C28.6644,4.538 29.8374,5.711 29.8374,7.152 C29.8374,8.595 28.6644,9.768 27.2224,9.768 C25.7804,9.768 24.6074,8.595 24.6074,7.152 L24.6074,7.152 Z M4.6914,7.152 C4.6914,7.407 4.8984,7.614 5.1534,7.614 C5.4074,7.614 5.6144,7.407 5.6144,7.152 C5.6144,6.898 5.4074,6.691 5.1534,6.691 C4.8984,6.691 4.6914,6.898 4.6914,7.152 L4.6914,7.152 Z M3.6144,7.152 C3.6144,6.305 4.3044,5.614 5.1534,5.614 C6.0004,5.614 6.6914,6.305 6.6914,7.152 C6.6914,8.001 6.0004,8.691 5.1534,8.691 C4.3044,8.691 3.6144,8.001 3.6144,7.152 L3.6144,7.152 Z M5.6144,36.221 C5.6144,35.966 5.4074,35.759 5.1534,35.759 C4.8984,35.759 4.6914,35.966 4.6914,36.221 C4.6914,36.475 4.8984,36.682 5.1534,36.682 C5.4074,36.682 5.6144,36.475 5.6144,36.221 L5.6144,36.221 Z M6.6914,36.221 C6.6914,37.068 6.0004,37.759 5.1534,37.759 C4.3044,37.759 3.6144,37.068 3.6144,36.221 C3.6144,35.372 4.3044,34.682 5.1534,34.682 C6.0004,34.682 6.6914,35.372 6.6914,36.221 L6.6914,36.221 Z M12.1504,21.225 C11.8954,21.225 11.6884,21.432 11.6884,21.687 C11.6884,21.941 11.8954,22.148 12.1504,22.148 C12.4054,22.148 12.6124,21.941 12.6124,21.687 C12.6124,21.432 12.4054,21.225 12.1504,21.225 L12.1504,21.225 Z M12.1504,20.148 C12.9974,20.148 13.6884,20.839 13.6884,21.687 C13.6884,22.534 12.9974,23.225 12.1504,23.225 C11.3024,23.225 10.6124,22.534 10.6124,21.687 C10.6124,20.839 11.3024,20.148 12.1504,20.148 L12.1504,20.148 Z M5.6144,29.223 C5.6144,28.968 5.4074,28.761 5.1534,28.761 C4.8984,28.761 4.6914,28.968 4.6914,29.223 C4.6914,29.478 4.8984,29.685 5.1534,29.685 C5.4074,29.685 5.6144,29.478 5.6144,29.223 L5.6144,29.223 Z M6.6914,29.223 C6.6914,30.07 6.0004,30.761 5.1534,30.761 C4.3044,30.761 3.6144,30.07 3.6144,29.223 C3.6144,28.375 4.3044,27.685 5.1534,27.685 C6.0004,27.685 6.6914,28.375 6.6914,29.223 L6.6914,29.223 Z M19.2244,7.152 C19.2244,7.407 19.4314,7.614 19.6864,7.614 C19.9414,7.614 20.1484,7.407 20.1484,7.152 C20.1484,6.898 19.9414,6.691 19.6864,6.691 C19.4314,6.691 19.2244,6.898 19.2244,7.152 L19.2244,7.152 Z M18.1484,7.152 C18.1484,6.305 18.8384,5.614 19.6864,5.614 C20.5344,5.614 21.2244,6.305 21.2244,7.152 C21.2244,8.001 20.5344,8.691 19.6864,8.691 C18.8384,8.691 18.1484,8.001 18.1484,7.152 L18.1484,7.152 Z M33.6264,17.67 C33.3724,17.67 33.1654,17.877 33.1654,18.132 C33.1654,18.387 33.3724,18.594 33.6264,18.594 C33.8814,18.594 34.0884,18.387 34.0884,18.132 C34.0884,17.877 33.8814,17.67 33.6264,17.67 L33.6264,17.67 Z M33.6264,16.594 C34.4754,16.594 35.1654,17.284 35.1654,18.132 C35.1654,18.98 34.4754,19.67 33.6264,19.67 C32.7794,19.67 32.0884,18.98 32.0884,18.132 C32.0884,17.284 32.7794,16.594 33.6264,16.594 L33.6264,16.594 Z M33.7584,7.152 C33.7584,7.407 33.9654,7.614 34.2204,7.614 C34.4754,7.614 34.6824,7.407 34.6824,7.152 C34.6824,6.898 34.4754,6.691 34.2204,6.691 C33.9654,6.691 33.7584,6.898 33.7584,7.152 L33.7584,7.152 Z M32.6824,7.152 C32.6824,6.305 33.3724,5.614 34.2204,5.614 C35.0684,5.614 35.7584,6.305 35.7584,7.152 C35.7584,8.001 35.0684,8.691 34.2204,8.691 C33.3724,8.691 32.6824,8.001 32.6824,7.152 L32.6824,7.152 Z M6.3054,14.15 C6.3054,13.515 5.7884,12.997 5.1534,12.997 C4.5174,12.997 3.9994,13.515 3.9994,14.15 C3.9994,14.786 4.5174,15.304 5.1534,15.304 C5.7884,15.304 6.3054,14.786 6.3054,14.15 L6.3054,14.15 Z M8.3054,14.15 C8.3054,15.889 6.8914,17.304 5.1534,17.304 C3.4144,17.304 1.9994,15.889 1.9994,14.15 C1.9994,12.412 3.4144,10.997 5.1534,10.997 C6.8914,10.997 8.3054,12.412 8.3054,14.15 L8.3054,14.15 Z M6.3054,21.687 C6.3054,21.051 5.7884,20.533 5.1534,20.533 C4.5174,20.533 3.9994,21.051 3.9994,21.687 C3.9994,22.322 4.5174,22.84 5.1534,22.84 C5.7884,22.84 6.3054,22.322 6.3054,21.687 L6.3054,21.687 Z M8.3054,21.687 C8.3054,23.425 6.8914,24.84 5.1534,24.84 C3.4144,24.84 1.9994,23.425 1.9994,21.687 C1.9994,19.948 3.4144,18.533 5.1534,18.533 C6.8914,18.533 8.3054,19.948 8.3054,21.687 L8.3054,21.687 Z M13.3034,36.221 C13.3034,35.585 12.7854,35.067 12.1504,35.067 C11.5144,35.067 10.9964,35.585 10.9964,36.221 C10.9964,36.856 11.5144,37.373 12.1504,37.373 C12.7854,37.373 13.3034,36.856 13.3034,36.221 L13.3034,36.221 Z M15.3034,36.221 C15.3034,37.959 13.8884,39.373 12.1504,39.373 C10.4114,39.373 8.9964,37.959 8.9964,36.221 C8.9964,34.482 10.4114,33.067 12.1504,33.067 C13.8884,33.067 15.3034,34.482 15.3034,36.221 L15.3034,36.221 Z M13.3034,7.152 C13.3034,6.517 12.7854,6 12.1504,6 C11.5144,6 10.9964,6.517 10.9964,7.152 C10.9964,7.788 11.5144,8.306 12.1504,8.306 C12.7854,8.306 13.3034,7.788 13.3034,7.152 L13.3034,7.152 Z M15.3034,7.152 C15.3034,8.891 13.8884,10.306 12.1504,10.306 C10.4114,10.306 8.9964,8.891 8.9964,7.152 C8.9964,5.414 10.4114,4 12.1504,4 C13.8884,4 15.3034,5.414 15.3034,7.152 L15.3034,7.152 Z M26.0564,24.071 L31.3164,24.071 L31.3164,22.071 L26.0564,22.071 L26.0564,24.071 Z M21.8274,22.061 L24.1644,19.724 L21.8274,17.388 L23.2424,15.974 L26.2854,19.017 C26.4734,19.204 26.5784,19.458 26.5784,19.724 C26.5784,19.989 26.4734,20.243 26.2854,20.431 L23.2424,23.475 L21.8274,22.061 Z" id="AWS-Robo-Maker_Development-environment_Resource-Icon_light-bg" fill="#BF0816"></path>
    </g>
</svg>