<?xml version="1.0" encoding="UTF-8"?>
<svg width="74px" height="74px" viewBox="0 0 74 74" version="1.1" xmlns="http://www.w3.org/2000/svg" xmlns:xlink="http://www.w3.org/1999/xlink">
    <title>Icon-Architecture-Category/48/Robotics_48</title>
    <defs>
        <linearGradient x1="0%" y1="100%" x2="100%" y2="0%" id="linearGradient-1">
            <stop stop-color="#BD0816" offset="0%"></stop>
            <stop stop-color="#FF5252" offset="100%"></stop>
        </linearGradient>
    </defs>
    <g id="Icon-Architecture-Category/48/Robotics_48" stroke="none" stroke-width="1" fill="none" fill-rule="evenodd">
        <rect id="Rectangle" fill="url(#linearGradient-1)" x="5" y="5" width="64" height="64"></rect>
        <rect id="#879196-Border-Copy-21" stroke="#879196" stroke-width="2" x="1" y="1" width="72" height="72"></rect>
        <g id="Icon-Category/48/Robotics_48" transform="translate(13.000000, 13.000000)" fill="#FFFFFF">
            <path d="M15.707,7.606 L14.291,6.193 C16.988,3.492 20.575,2.002 24.393,2 L24.404,2 C28.217,2 31.802,3.483 34.5,6.177 L33.086,7.592 C30.766,5.275 27.683,4 24.404,4 L24.394,4 C21.111,4.002 18.026,5.283 15.707,7.606 L15.707,7.606 Z M31.815,9.072 L30.401,10.486 C27.091,7.176 21.706,7.176 18.395,10.486 L16.981,9.072 C21.071,4.982 27.726,4.982 31.815,9.072 L31.815,9.072 Z M44,41.232 L43,41.989 L43,34.043 L44,34.819 L44,41.232 Z M40,43.966 L41,43.966 L41,30.999 L40,30.999 L40,43.966 Z M7,43.967 L8,43.967 L8,31 L7,31 L7,43.967 Z M4,41.232 L4,34.819 L5,34.043 L5,41.989 L4,41.232 Z M24,17 C31.981,17 38,23.018 38,31 L38,44 L10,44 L10,31 C10,23.018 16.019,17 24,17 L24,17 Z M23,13 C23,12.448 23.448,12 24,12 L25,12 C25.552,12 26,12.448 26,13 L26,15.125 C25.346,15.05 24.682,15 24,15 C23.661,15 23.332,15.028 23,15.047 L23,13 Z M43,31.51 L43,30 C43,29.447 42.553,29 42,29 L39.875,29 C39.101,22.232 34.433,17.023 28,15.483 L28,13 C28,11.345 26.654,10 25,10 L24,10 C22.346,10 21,11.345 21,13 L21,15.269 C14.054,16.485 8.938,21.885 8.125,29 L6,29 C5.447,29 5,29.447 5,30 L5,31.51 L2.387,33.54 C2.143,33.73 2,34.021 2,34.33 L2,41.73 C2,42.043 2.146,42.338 2.396,42.527 L5,44.497 L5,44.966 C5,45.519 5.447,45.966 6,45.966 L42,45.966 C42.553,45.966 43,45.519 43,44.966 L43,44.497 L45.603,42.527 C45.853,42.338 46,42.043 46,41.73 L46,34.33 C46,34.021 45.857,33.73 45.613,33.54 L43,31.51 Z M31,29 C32.103,29 33,29.897 33,31.006 C32.997,32.105 32.1,33 31,33 C29.897,33 29,32.103 29,31 C29,29.897 29.897,29 31,29 L31,29 Z M31,35 C33.199,35 34.993,33.21 35,31 C35,28.794 33.206,27 31,27 C28.794,27 27,28.794 27,31 C27,33.205 28.794,35 31,35 L31,35 Z M16.945,29.055 C18.048,29.055 18.945,29.952 18.945,31.061 C18.941,32.16 18.044,33.055 16.945,33.055 C15.843,33.055 14.945,32.158 14.945,31.055 C14.945,29.952 15.843,29.055 16.945,29.055 L16.945,29.055 Z M16.945,35.055 C19.144,35.055 20.937,33.266 20.945,31.055 C20.945,28.849 19.151,27.055 16.945,27.055 C14.739,27.055 12.945,28.849 12.945,31.055 C12.945,33.26 14.739,35.055 16.945,35.055 L16.945,35.055 Z" id="Robotics_Category-Icon_48_Squid"></path>
        </g>
    </g>
</svg>