<?xml version="1.0" encoding="UTF-8"?>
<svg width="48px" height="48px" viewBox="0 0 48 48" version="1.1" xmlns="http://www.w3.org/2000/svg" xmlns:xlink="http://www.w3.org/1999/xlink">
    <title>Icon-Resource/Robotics/Res_AWS-Robo-Maker_Fleet-Management_48_Light</title>
    <g id="Icon-Resource/Robotics/Res_AWS-Robo-Maker_Fleet-Management_48" stroke="none" stroke-width="1" fill="none" fill-rule="evenodd">
        <path d="M33.106,20.963 C32.795,19.913 32.424,18.919 31.99,18.087 C33.456,18.45 34.82,19.117 36.001,20.04 C35.424,20.386 34.652,20.714 33.677,20.88 C33.494,20.912 33.297,20.936 33.106,20.963 M32.272,27.221 L26.504,27.221 C26.593,25.885 26.821,24.45 27.123,23.107 C27.884,23.167 28.673,23.204 29.491,23.204 C30.225,23.204 30.929,23.172 31.616,23.124 C31.935,24.469 32.175,25.9 32.272,27.221 M40.971,27.654 C41.336,27.654 41.633,27.951 41.633,28.316 C41.633,28.681 41.336,28.978 40.971,28.978 C40.606,28.978 40.309,28.681 40.309,28.316 C40.309,27.951 40.606,27.654 40.971,27.654 M31.671,33.418 C30.97,33.368 30.244,33.34 29.491,33.34 C28.66,33.34 27.856,33.378 27.082,33.44 C26.777,32.053 26.553,30.576 26.484,29.221 L32.298,29.221 C32.226,30.556 31.991,32.029 31.671,33.418 M33.677,35.663 C34.726,35.842 35.553,36.207 36.138,36.583 C34.929,37.559 33.515,38.258 31.995,38.635 C32.454,37.758 32.84,36.699 33.161,35.588 C33.334,35.613 33.511,35.635 33.677,35.663 M29.352,38.925 C28.84,38.788 28.162,37.339 27.589,35.408 C28.205,35.368 28.835,35.34 29.491,35.34 C30.053,35.34 30.604,35.361 31.144,35.392 C30.551,37.331 29.854,38.796 29.352,38.925 M24.622,35.793 C24.924,35.728 25.247,35.673 25.577,35.622 C25.877,36.695 26.24,37.718 26.671,38.573 C25.24,38.178 23.916,37.487 22.773,36.555 C23.221,36.255 23.826,35.964 24.622,35.793 M17.921,28.978 C17.556,28.978 17.259,28.681 17.259,28.316 C17.259,27.951 17.556,27.654 17.921,27.654 C18.287,27.654 18.584,27.951 18.584,28.316 C18.584,28.681 18.287,28.978 17.921,28.978 M24.623,20.751 C23.903,20.596 23.333,20.344 22.896,20.075 C24.011,19.193 25.292,18.531 26.67,18.149 C26.263,18.96 25.915,19.919 25.624,20.93 C25.277,20.878 24.94,20.818 24.623,20.751 M29.315,17.791 C29.815,17.921 30.49,19.304 31.075,21.156 C30.556,21.184 30.029,21.204 29.491,21.204 C28.853,21.204 28.238,21.177 27.638,21.139 C28.194,19.294 28.837,17.925 29.315,17.791 M37.498,21.452 C38.105,22.153 38.633,22.93 39.043,23.785 L40.846,22.921 C38.76,18.568 34.296,15.756 29.473,15.756 C24.657,15.756 20.196,18.562 18.108,22.904 L19.911,23.771 C20.312,22.936 20.829,22.178 21.418,21.491 C22.167,22.045 23.134,22.476 24.203,22.706 C24.502,22.77 24.823,22.823 25.145,22.876 C24.806,24.474 24.599,26.034 24.512,27.221 L20.341,27.221 C19.922,26.299 18.998,25.654 17.921,25.654 C16.454,25.654 15.259,26.848 15.259,28.316 C15.259,29.783 16.454,30.978 17.921,30.978 C19.07,30.978 20.042,30.242 20.414,29.221 L24.492,29.221 C24.561,30.391 24.759,32.006 25.104,33.675 C24.796,33.725 24.489,33.776 24.202,33.838 C23.089,34.077 22.085,34.537 21.327,35.124 C20.744,34.424 20.234,33.654 19.841,32.806 L18.027,33.645 C20.083,38.092 24.576,40.966 29.473,40.966 C34.332,40.966 38.809,38.125 40.88,33.729 L39.072,32.877 C38.677,33.713 38.168,34.472 37.585,35.163 C36.648,34.458 35.398,33.927 34.013,33.692 C33.895,33.671 33.77,33.657 33.65,33.639 C34.008,31.971 34.216,30.366 34.29,29.221 L38.478,29.221 C38.851,30.242 39.823,30.978 40.971,30.978 C42.439,30.978 43.633,29.783 43.633,28.316 C43.633,26.848 42.439,25.654 40.971,25.654 C39.894,25.654 38.969,26.299 38.55,27.221 L34.264,27.221 C34.169,26.046 33.95,24.495 33.599,22.902 C33.733,22.882 33.882,22.875 34.013,22.852 C35.353,22.625 36.57,22.122 37.498,21.452 M29.434,44.339 C29.069,44.339 28.772,44.042 28.772,43.677 C28.772,43.312 29.069,43.015 29.434,43.015 C29.799,43.015 30.096,43.312 30.096,43.677 C30.096,44.042 29.799,44.339 29.434,44.339 M29.434,41.015 C28.412,41.015 27.533,41.6 27.087,42.447 C20.192,41.321 15.063,35.354 15.063,28.295 C15.063,23.676 17.308,19.31 21.068,16.616 L19.904,14.99 C15.621,18.059 13.063,23.033 13.063,28.295 C13.063,36.383 18.973,43.213 26.897,44.441 C27.228,45.536 28.233,46.339 29.434,46.339 C30.902,46.339 32.096,45.145 32.096,43.677 C32.096,42.209 30.902,41.015 29.434,41.015 M6.587,33.516 C6.587,33.423 6.664,33.347 6.756,33.347 C6.849,33.347 6.925,33.423 6.925,33.516 C6.925,33.702 6.587,33.702 6.587,33.516 M6.756,31.847 C5.836,31.847 5.087,32.596 5.087,33.516 C5.087,34.436 5.836,35.185 6.756,35.185 C7.676,35.185 8.425,34.436 8.425,33.516 C8.425,32.596 7.676,31.847 6.756,31.847 M6.733,5.627 C6.826,5.627 6.902,5.703 6.902,5.796 C6.902,5.982 6.564,5.982 6.564,5.796 C6.564,5.703 6.64,5.627 6.733,5.627 M6.733,7.464 C7.653,7.464 8.402,6.716 8.402,5.796 C8.402,4.876 7.653,4.127 6.733,4.127 C5.813,4.127 5.064,4.876 5.064,5.796 C5.064,6.716 5.813,7.464 6.733,7.464 M15.562,14.928 C15.562,15.114 15.225,15.114 15.225,14.928 C15.225,14.835 15.3,14.759 15.393,14.759 C15.486,14.759 15.562,14.835 15.562,14.928 M13.725,14.928 C13.725,15.848 14.473,16.597 15.393,16.597 C16.313,16.597 17.062,15.848 17.062,14.928 C17.062,14.007 16.313,13.259 15.393,13.259 C14.473,13.259 13.725,14.007 13.725,14.928 M24.155,5.614 C24.248,5.614 24.324,5.69 24.324,5.783 C24.324,5.968 23.986,5.968 23.986,5.783 C23.986,5.69 24.062,5.614 24.155,5.614 M24.155,7.451 C25.075,7.451 25.824,6.703 25.824,5.783 C25.824,4.862 25.075,4.114 24.155,4.114 C23.235,4.114 22.486,4.862 22.486,5.783 C22.486,6.703 23.235,7.451 24.155,7.451 M33.219,4.715 C33.807,4.715 34.286,5.193 34.286,5.781 C34.286,6.369 33.807,6.848 33.219,6.848 C32.631,6.848 32.153,6.369 32.153,5.781 C32.153,5.193 32.631,4.715 33.219,4.715 M33.219,8.848 C34.91,8.848 36.286,7.472 36.286,5.781 C36.286,4.09 34.91,2.715 33.219,2.715 C31.529,2.715 30.153,4.09 30.153,5.781 C30.153,7.472 31.529,8.848 33.219,8.848 M6.525,25.067 C5.937,25.067 5.459,24.589 5.459,24.001 C5.459,23.413 5.937,22.934 6.525,22.934 C7.113,22.934 7.591,23.413 7.591,24.001 C7.591,24.589 7.113,25.067 6.525,25.067 M6.525,20.934 C4.835,20.934 3.459,22.31 3.459,24.001 C3.459,25.692 4.835,27.067 6.525,27.067 C8.215,27.067 9.591,25.692 9.591,24.001 C9.591,22.31 8.215,20.934 6.525,20.934 M13.298,5.762 C13.298,4.791 14.088,4 15.06,4 C16.032,4 16.822,4.791 16.822,5.762 C16.822,6.733 16.032,7.524 15.06,7.524 C14.088,7.524 13.298,6.733 13.298,5.762 M18.822,5.762 C18.822,3.688 17.134,2 15.06,2 C12.986,2 11.298,3.688 11.298,5.762 C11.298,7.836 12.986,9.524 15.06,9.524 C17.134,9.524 18.822,7.836 18.822,5.762 M6.761,15.916 C5.79,15.916 5,15.126 5,14.154 C5,13.183 5.79,12.393 6.761,12.393 C7.733,12.393 8.523,13.183 8.523,14.154 C8.523,15.126 7.733,15.916 6.761,15.916 M6.761,10.393 C4.687,10.393 3,12.08 3,14.154 C3,16.229 4.687,17.916 6.761,17.916 C8.835,17.916 10.523,16.229 10.523,14.154 C10.523,12.08 8.835,10.393 6.761,10.393 M29.434,13.616 C29.069,13.616 28.772,13.319 28.772,12.954 C28.772,12.589 29.069,12.292 29.434,12.292 C29.799,12.292 30.096,12.589 30.096,12.954 C30.096,13.319 29.799,13.616 29.434,13.616 M31.959,12.15 C31.615,11.077 30.62,10.292 29.434,10.292 C27.966,10.292 26.772,11.486 26.772,12.954 C26.772,14.422 27.966,15.616 29.434,15.616 C30.471,15.616 31.363,15.013 31.801,14.145 C38.698,15.283 43.776,21.18 43.776,28.295 C43.776,32.899 41.544,37.255 37.804,39.949 L38.974,41.572 C43.233,38.503 45.776,33.54 45.776,28.295 C45.776,20.13 39.904,13.376 31.959,12.15" id="AWS-Robo-Maker_Fleet-Management_Resource-Icon_light-bg" fill="#BF0816"></path>
    </g>
</svg>