<?xml version="1.0" encoding="UTF-8"?>
<svg width="48px" height="48px" viewBox="0 0 48 48" version="1.1" xmlns="http://www.w3.org/2000/svg" xmlns:xlink="http://www.w3.org/1999/xlink">
    <title>Icon-Resource/Managment-Governance/Res_Amazon-Cloudwatch_Event-Time-Based_48_Light</title>
    <g id="Icon-Resource/Managment-Governance/Res_Amazon-Cloudwatch_Event-Time-Based_48" stroke="none" stroke-width="1" fill="none" fill-rule="evenodd">
        <path d="M39.0691,11.9052 L33.6821,11.9052 L33.6821,9.9052 L37.0691,9.9052 L37.0691,5.6392 L39.0691,5.6392 L39.0691,11.9052 Z M38.0691,4.0002 C41.3981,4.0002 44.1061,6.7092 44.1061,10.0382 C44.1061,13.3672 41.3981,16.0762 38.0691,16.0762 C34.7401,16.0762 32.0311,13.3672 32.0311,10.0382 C32.0311,6.7092 34.7401,4.0002 38.0691,4.0002 L38.0691,4.0002 Z M38.0691,18.0762 C42.5011,18.0762 46.1061,14.4702 46.1061,10.0382 C46.1061,5.6052 42.5011,2.0002 38.0691,2.0002 C33.6361,2.0002 30.0311,5.6052 30.0311,10.0382 C30.0311,14.4702 33.6361,18.0762 38.0691,18.0762 L38.0691,18.0762 Z M41.4671,40.7092 L34.6701,40.7092 L34.6701,21.1552 C36.8571,21.8152 39.2801,21.8152 41.4671,21.1552 L41.4671,40.7092 Z M42.0571,18.8022 C39.5511,19.9292 36.5881,19.9292 34.0801,18.8022 C33.7721,18.6652 33.4121,18.6902 33.1271,18.8752 C32.8411,19.0592 32.6701,19.3762 32.6701,19.7152 L32.6701,41.7092 C32.6701,42.2612 33.1171,42.7092 33.6701,42.7092 L42.4671,42.7092 C43.0201,42.7092 43.4671,42.2612 43.4671,41.7092 L43.4671,19.7152 C43.4671,19.3762 43.2961,19.0592 43.0101,18.8752 C42.7251,18.6892 42.3651,18.6642 42.0571,18.8022 L42.0571,18.8022 Z M2.0001,46.2272 L45.9861,46.2272 L45.9861,44.2272 L2.0001,44.2272 L2.0001,46.2272 Z M20.5941,40.7092 L27.3911,40.7092 L27.3911,27.7532 L20.5941,27.7532 L20.5941,40.7092 Z M19.5941,42.7092 L28.3911,42.7092 C28.9441,42.7092 29.3911,42.2612 29.3911,41.7092 L29.3911,26.7532 C29.3911,26.2002 28.9441,25.7532 28.3911,25.7532 L19.5941,25.7532 C19.0421,25.7532 18.5941,26.2002 18.5941,26.7532 L18.5941,41.7092 C18.5941,42.2612 19.0421,42.7092 19.5941,42.7092 L19.5941,42.7092 Z M6.5181,40.7082 L13.3161,40.7082 L13.3161,23.3542 L6.5181,23.3542 L6.5181,40.7082 Z M5.5181,42.7092 L14.3161,42.7092 C14.8691,42.7092 15.3161,42.2612 15.3161,41.7092 L15.3161,22.3542 C15.3161,21.8012 14.8691,21.3542 14.3161,21.3542 L5.5181,21.3542 C4.9651,21.3542 4.5181,21.8012 4.5181,22.3542 L4.5181,41.7092 C4.5181,42.2612 4.9651,42.7092 5.5181,42.7092 L5.5181,42.7092 Z" id="Amazon-Cloudwatch_Event-time-based_Resource-Icon_light-bg" fill="#B0084D"></path>
    </g>
</svg>