<?xml version="1.0" encoding="UTF-8"?>
<svg width="48px" height="48px" viewBox="0 0 48 48" version="1.1" xmlns="http://www.w3.org/2000/svg" xmlns:xlink="http://www.w3.org/1999/xlink">
    <title>Icon-Resource/Managment-Governance/Res_AWS-CloudFormation_Template_48_Light</title>
    <g id="Icon-Resource/Managment-Governance/Res_AWS-CloudFormation_Template_48" stroke="none" stroke-width="1" fill="none" fill-rule="evenodd">
        <path d="M22.734,38.089 L37.593,38.089 L37.593,36.089 L22.734,36.089 L22.734,38.089 Z M22.734,25.852 L37.593,25.852 L37.593,23.852 L22.734,23.852 L22.734,25.852 Z M22.734,13.615 L37.593,13.615 L37.593,11.615 L22.734,11.615 L22.734,13.615 Z M14.118,37.838 L18.237,37.838 L18.237,33.719 L14.118,33.719 L14.118,37.838 Z M13.118,39.838 L19.238,39.838 C19.79,39.838 20.238,39.391 20.238,38.838 L20.238,32.719 C20.238,32.166 19.79,31.719 19.238,31.719 L13.118,31.719 C12.566,31.719 12.118,32.166 12.118,32.719 L12.118,38.838 C12.118,39.391 12.566,39.838 13.118,39.838 L13.118,39.838 Z M14.118,25.6 L18.237,25.6 L18.237,21.481 L14.118,21.481 L14.118,25.6 Z M13.118,27.601 L19.238,27.601 C19.79,27.601 20.238,27.153 20.238,26.601 L20.238,20.481 C20.238,19.929 19.79,19.481 19.238,19.481 L13.118,19.481 C12.566,19.481 12.118,19.929 12.118,20.481 L12.118,26.601 C12.118,27.153 12.566,27.601 13.118,27.601 L13.118,27.601 Z M14.118,13.363 L18.237,13.363 L18.237,9.244 L14.118,9.244 L14.118,13.363 Z M13.118,15.363 L19.238,15.363 C19.79,15.363 20.238,14.916 20.238,14.363 L20.238,8.244 C20.238,7.691 19.79,7.244 19.238,7.244 L13.118,7.244 C12.566,7.244 12.118,7.691 12.118,8.244 L12.118,14.363 C12.118,14.916 12.566,15.363 13.118,15.363 L13.118,15.363 Z M8,43.956 L40.963,43.956 L40.963,4 L8,4 L8,43.956 Z M41.963,2 L7,2 C6.448,2 6,2.447 6,3 L6,44.956 C6,45.509 6.448,45.956 7,45.956 L41.963,45.956 C42.516,45.956 42.963,45.509 42.963,44.956 L42.963,3 C42.963,2.447 42.516,2 41.963,2 L41.963,2 Z" id="AWS-CloudFormation_template_Resource-Icon_light-bg" fill="#B0084D"></path>
    </g>
</svg>