<?xml version="1.0" encoding="UTF-8"?>
<svg width="48px" height="48px" viewBox="0 0 48 48" version="1.1" xmlns="http://www.w3.org/2000/svg" xmlns:xlink="http://www.w3.org/1999/xlink">
    <title>Icon-Resource/Managment-Governance/Res_AWS-OpsWorks_Instances_48_Light</title>
    <g id="Icon-Resource/Managment-Governance/Res_AWS-OpsWorks_Instances_48" stroke="none" stroke-width="1" fill="none" fill-rule="evenodd">
        <path d="M19.738,43.966 L28.23,43.966 L28.23,35.475 L19.738,35.475 L19.738,43.966 Z M29.23,33.475 L18.738,33.475 C18.185,33.475 17.738,33.922 17.738,34.475 L17.738,44.966 C17.738,45.519 18.185,45.966 18.738,45.966 L29.23,45.966 C29.782,45.966 30.23,45.519 30.23,44.966 L30.23,34.475 C30.23,33.922 29.782,33.475 29.23,33.475 L29.23,33.475 Z M35.475,43.966 L43.967,43.966 L43.967,35.475 L35.475,35.475 L35.475,43.966 Z M44.967,33.475 L34.475,33.475 C33.922,33.475 33.475,33.922 33.475,34.475 L33.475,44.966 C33.475,45.519 33.922,45.966 34.475,45.966 L44.967,45.966 C45.52,45.966 45.967,45.519 45.967,44.966 L45.967,34.475 C45.967,33.922 45.52,33.475 44.967,33.475 L44.967,33.475 Z M4,43.966 L12.492,43.966 L12.492,35.475 L4,35.475 L4,43.966 Z M13.492,33.475 L3,33.475 C2.448,33.475 2,33.922 2,34.475 L2,44.966 C2,45.519 2.448,45.966 3,45.966 L13.492,45.966 C14.045,45.966 14.492,45.519 14.492,44.966 L14.492,34.475 C14.492,33.922 14.045,33.475 13.492,33.475 L13.492,33.475 Z M19.738,28.229 L28.23,28.229 L28.23,19.738 L19.738,19.738 L19.738,28.229 Z M29.23,17.737 L18.738,17.737 C18.185,17.737 17.738,18.185 17.738,18.737 L17.738,29.229 C17.738,29.781 18.185,30.229 18.738,30.229 L29.23,30.229 C29.782,30.229 30.23,29.781 30.23,29.229 L30.23,18.737 C30.23,18.185 29.782,17.737 29.23,17.737 L29.23,17.737 Z M35.475,28.229 L43.967,28.229 L43.967,19.738 L35.475,19.738 L35.475,28.229 Z M44.967,17.737 L34.475,17.737 C33.922,17.737 33.475,18.185 33.475,18.737 L33.475,29.229 C33.475,29.781 33.922,30.229 34.475,30.229 L44.967,30.229 C45.52,30.229 45.967,29.781 45.967,29.229 L45.967,18.737 C45.967,18.185 45.52,17.737 44.967,17.737 L44.967,17.737 Z M4,28.229 L12.492,28.229 L12.492,19.738 L4,19.738 L4,28.229 Z M13.492,17.737 L3,17.737 C2.448,17.737 2,18.185 2,18.737 L2,29.229 C2,29.781 2.448,30.229 3,30.229 L13.492,30.229 C14.045,30.229 14.492,29.781 14.492,29.229 L14.492,18.737 C14.492,18.185 14.045,17.737 13.492,17.737 L13.492,17.737 Z M19.738,12.491 L28.23,12.491 L28.23,4 L19.738,4 L19.738,12.491 Z M29.23,2 L18.738,2 C18.185,2 17.738,2.447 17.738,3 L17.738,13.491 C17.738,14.044 18.185,14.491 18.738,14.491 L29.23,14.491 C29.782,14.491 30.23,14.044 30.23,13.491 L30.23,3 C30.23,2.447 29.782,2 29.23,2 L29.23,2 Z M35.475,12.491 L43.967,12.491 L43.967,4 L35.475,4 L35.475,12.491 Z M44.967,2 L34.475,2 C33.922,2 33.475,2.447 33.475,3 L33.475,13.491 C33.475,14.044 33.922,14.491 34.475,14.491 L44.967,14.491 C45.52,14.491 45.967,14.044 45.967,13.491 L45.967,3 C45.967,2.447 45.52,2 44.967,2 L44.967,2 Z M4,12.491 L12.492,12.491 L12.492,4 L4,4 L4,12.491 Z M13.492,2 L3,2 C2.448,2 2,2.447 2,3 L2,13.491 C2,14.044 2.448,14.491 3,14.491 L13.492,14.491 C14.045,14.491 14.492,14.044 14.492,13.491 L14.492,3 C14.492,2.447 14.045,2 13.492,2 L13.492,2 Z" id="AWS-OpsWorks-instances_Resource-Icon_light-bg" fill="#B0084D"></path>
    </g>
</svg>