<?xml version="1.0" encoding="UTF-8"?>
<svg width="48px" height="48px" viewBox="0 0 48 48" version="1.1" xmlns="http://www.w3.org/2000/svg" xmlns:xlink="http://www.w3.org/1999/xlink">
    <title>Icon-Resource/Managment-Governance/Res_AWS-System-Manager_Automation_48_Light</title>
    <g id="Icon-Resource/Managment-Governance/Res_AWS-System-Manager_Automation_48" stroke="none" stroke-width="1" fill="none" fill-rule="evenodd">
        <path d="M36.1575,15.6748 L37.9405,16.5808 L34.9715,22.4158 C34.7965,22.7618 34.4455,22.9628 34.0795,22.9628 C33.9435,22.9628 33.8045,22.9348 33.6735,22.8758 L27.4805,20.1118 L28.2955,18.2848 L32.1665,20.0128 C30.6755,16.9678 27.5405,14.9228 24.0335,14.9228 C19.7535,14.9228 16.0235,17.9678 15.1655,22.1628 L13.2065,21.7628 C14.2545,16.6408 18.8075,12.9228 24.0335,12.9228 C28.4855,12.9228 32.4405,15.6248 34.1655,19.5908 L36.1575,15.6748 Z M32.9025,25.7818 L34.8615,26.1828 C33.8165,31.3038 29.2625,35.0218 24.0345,35.0218 C19.9175,35.0218 16.2675,32.7818 14.3675,29.3268 L13.6235,32.8868 L11.6665,32.4768 L13.0065,26.0688 C13.1155,25.5478 13.6265,25.2118 14.1385,25.2848 L20.8385,26.3338 L20.5295,28.3108 L15.7215,27.5578 C17.1235,30.8378 20.3525,33.0218 24.0345,33.0218 C28.3165,33.0218 32.0465,29.9768 32.9025,25.7818 L32.9025,25.7818 Z M43.9455,27.0818 L41.5225,26.9448 C41.0565,26.9208 40.5975,27.2438 40.4905,27.7228 C40.0675,29.5958 39.3325,31.3708 38.3035,33.0018 C38.0435,33.4148 38.1195,33.9558 38.4835,34.2808 L40.2945,35.8968 L35.8975,40.2938 L34.2875,38.4888 C33.9615,38.1238 33.4185,38.0498 33.0075,38.3098 C31.3805,39.3388 29.6015,40.0748 27.7215,40.4998 C27.2455,40.6088 26.9165,41.0448 26.9445,41.5318 L27.0825,43.9448 L20.8635,43.9448 L21.0015,41.5298 C21.0295,41.0428 20.7005,40.6068 20.2235,40.4978 C18.3505,40.0738 16.5735,39.3368 14.9405,38.3068 C14.5285,38.0468 13.9855,38.1218 13.6615,38.4868 L12.0495,40.2938 L7.6515,35.8968 L9.4585,34.2848 C9.8225,33.9598 9.8985,33.4188 9.6375,33.0058 C8.6115,31.3788 7.8765,29.6018 7.4525,27.7228 C7.3445,27.2438 6.8815,26.9208 6.4205,26.9448 L4.0005,27.0818 L4.0005,20.8628 L6.4275,21.0008 C6.9045,21.0238 7.3495,20.6998 7.4595,20.2248 C7.8835,18.3538 8.6205,16.5798 9.6485,14.9508 C9.9095,14.5378 9.8335,13.9958 9.4695,13.6708 L7.6505,12.0488 L12.0495,7.6508 L13.6705,9.4678 C13.9945,9.8318 14.5375,9.9058 14.9495,9.6478 C16.5755,8.6218 18.3495,7.8878 20.2225,7.4648 C20.7005,7.3578 21.0295,6.9208 21.0015,6.4328 L20.8635,3.9998 L27.0825,3.9998 L26.9445,6.4348 C26.9165,6.9228 27.2455,7.3588 27.7215,7.4668 C29.5925,7.8898 31.3655,8.6238 32.9935,9.6518 C33.4035,9.9098 33.9465,9.8348 34.2725,9.4718 L35.8965,7.6518 L40.2945,12.0478 L38.4795,13.6668 C38.1155,13.9918 38.0395,14.5338 38.3005,14.9468 C39.3285,16.5738 40.0645,18.3498 40.4885,20.2238 C40.5955,20.6998 41.0565,21.0238 41.5205,21.0008 L43.9455,20.8628 L43.9455,27.0818 Z M45.6325,19.0778 C45.4325,18.8898 45.1575,18.7888 44.8885,18.8068 L42.2335,18.9568 C41.8165,17.4368 41.2125,15.9798 40.4285,14.6088 L42.4165,12.8358 C42.6215,12.6538 42.7425,12.3938 42.7505,12.1178 C42.7585,11.8438 42.6515,11.5768 42.4575,11.3828 L36.5625,5.4878 C36.3685,5.2938 36.0905,5.2018 35.8275,5.1958 C35.5525,5.2028 35.2925,5.3238 35.1095,5.5288 L33.3315,7.5228 C31.9605,6.7408 30.5055,6.1378 28.9875,5.7218 L29.1385,3.0568 C29.1545,2.7818 29.0565,2.5128 28.8675,2.3138 C28.6785,2.1128 28.4165,1.9998 28.1405,1.9998 L19.8045,1.9998 C19.5295,1.9998 19.2665,2.1128 19.0785,2.3138 C18.8885,2.5128 18.7915,2.7818 18.8065,3.0568 L18.9585,5.7198 C17.4375,6.1348 15.9815,6.7378 14.6115,7.5188 L12.8365,5.5288 C12.6525,5.3238 12.3935,5.2028 12.1185,5.1958 C11.8355,5.2048 11.5775,5.2938 11.3835,5.4878 L5.4885,11.3828 C5.2945,11.5768 5.1875,11.8428 5.1955,12.1178 C5.2035,12.3938 5.3245,12.6528 5.5295,12.8358 L7.5195,14.6128 C6.7365,15.9838 6.1325,17.4398 5.7155,18.9578 L3.0565,18.8068 C2.7885,18.7878 2.5125,18.8898 2.3135,19.0778 C2.1135,19.2668 2.0005,19.5288 2.0005,19.8048 L2.0005,28.1408 C2.0005,28.4158 2.1135,28.6788 2.3135,28.8668 C2.5125,29.0558 2.7895,29.1518 3.0565,29.1388 L5.7075,28.9878 C6.1235,30.5128 6.7275,31.9718 7.5095,33.3438 L5.5295,35.1098 C5.3245,35.2918 5.2035,35.5518 5.1955,35.8268 C5.1875,36.1018 5.2945,36.3678 5.4885,36.5628 L11.3835,42.4568 C11.5775,42.6518 11.8325,42.7418 12.1185,42.7498 C12.3935,42.7418 12.6535,42.6208 12.8365,42.4158 L14.6025,40.4358 C15.9775,41.2198 17.4365,41.8248 18.9575,42.2418 L18.8065,44.8878 C18.7915,45.1618 18.8885,45.4308 19.0785,45.6308 C19.2665,45.8308 19.5295,45.9448 19.8045,45.9448 L28.1405,45.9448 C28.4165,45.9448 28.6785,45.8308 28.8675,45.6308 C29.0565,45.4308 29.1545,45.1618 29.1385,44.8878 L28.9885,42.2448 C30.5135,41.8268 31.9735,41.2228 33.3455,40.4388 L35.1095,42.4158 C35.2925,42.6208 35.5525,42.7418 35.8275,42.7498 C36.0935,42.7448 36.3685,42.6518 36.5625,42.4568 L42.4575,36.5628 C42.6515,36.3678 42.7585,36.1018 42.7505,35.8268 C42.7425,35.5518 42.6215,35.2918 42.4165,35.1098 L40.4325,33.3398 C41.2165,31.9668 41.8195,30.5088 42.2355,28.9878 L44.8885,29.1388 C45.1565,29.1508 45.4325,29.0558 45.6325,28.8668 C45.8325,28.6788 45.9455,28.4158 45.9455,28.1408 L45.9455,19.8048 C45.9455,19.5288 45.8325,19.2668 45.6325,19.0778 L45.6325,19.0778 Z" id="AWS-System-Manager_automation_Resource-Icon_light-bg" fill="#B0084D"></path>
    </g>
</svg>