<?xml version="1.0" encoding="UTF-8"?>
<svg width="48px" height="48px" viewBox="0 0 48 48" version="1.1" xmlns="http://www.w3.org/2000/svg" xmlns:xlink="http://www.w3.org/1999/xlink">
    <title>Icon-Resource/Managment-Governance/Res_AWS-System-Manager_Documents_48_Light</title>
    <g id="Icon-Resource/Managment-Governance/Res_AWS-System-Manager_Documents_48" stroke="none" stroke-width="1" fill="none" fill-rule="evenodd">
        <path d="M20.114,31.103 L34.976,31.103 L34.976,29.103 L20.114,29.103 L20.114,31.103 Z M20.114,24.983 L38.473,24.983 L38.473,22.983 L20.114,22.983 L20.114,24.983 Z M20.114,18.862 L27.983,18.862 L27.983,16.862 L20.114,16.862 L20.114,18.862 Z M8,36.971 L8.748,36.971 L8.748,38.971 L7,38.971 C6.448,38.971 6,38.524 6,37.971 L6,3 C6,2.447 6.448,2 7,2 L23.611,2 L23.611,4 L8,4 L8,36.971 Z M13.245,40.468 L14.868,40.468 L14.868,42.468 L12.245,42.468 C11.693,42.468 11.245,42.021 11.245,41.468 L11.245,6.497 C11.245,5.944 11.693,5.497 12.245,5.497 L27.983,5.497 L27.983,7.497 L13.245,7.497 L13.245,40.468 Z M18.491,43.965 L18.491,10.994 L31.354,10.994 L31.354,18.736 C31.354,19.289 31.801,19.736 32.354,19.736 L40.096,19.736 L40.096,43.965 L18.491,43.965 Z M33.354,12.408 L38.682,17.736 L33.354,17.736 L33.354,12.408 Z M41.803,18.029 L33.061,9.287 C32.873,9.1 32.619,8.994 32.354,8.994 L17.491,8.994 C16.939,8.994 16.491,9.442 16.491,9.994 L16.491,44.965 C16.491,45.518 16.939,45.965 17.491,45.965 L41.096,45.965 C41.649,45.965 42.096,45.518 42.096,44.965 L42.096,18.736 C42.096,18.471 41.99,18.217 41.803,18.029 L41.803,18.029 Z" id="AWS-System-Manager_documents_Resource-Icon_light-bg" fill="#B0084D"></path>
    </g>
</svg>