<?xml version="1.0" encoding="UTF-8"?>
<svg width="48px" height="48px" viewBox="0 0 48 48" version="1.1" xmlns="http://www.w3.org/2000/svg" xmlns:xlink="http://www.w3.org/1999/xlink">
    <title>Icon-Resource/Management-Governance/Res_AWS-Systems-Manager_Change-Manager_48_Light</title>
    <g id="Icon-Resource/Management-Governance/Res_AWS-Systems-Manager_Change-Manager_48" stroke="none" stroke-width="1" fill="none" fill-rule="evenodd">
        <path d="M43.938,26.489 C42.505,36.503 33.725,44.347 23.948,44.347 C15.345,44.347 7.52,38.273 4.787,29.992 L3.896,32.664 L2,32.031 L4,26.031 C4.102,25.721 4.351,25.481 4.665,25.388 C4.979,25.297 5.318,25.363 5.573,25.567 L10.573,29.567 L9.323,31.128 L6.554,28.913 C8.878,36.629 16.045,42.347 23.948,42.347 C32.752,42.347 40.664,35.257 41.958,26.206 L43.938,26.489 Z M5.938,22.489 L3.958,22.206 C5.418,11.997 14.199,4 23.948,4 C32.543,4 40.377,10.218 43.115,18.686 L44,16.031 L45.896,16.664 L43.896,22.664 C43.793,22.974 43.544,23.214 43.231,23.306 C43.138,23.334 43.042,23.347 42.948,23.347 C42.723,23.347 42.502,23.272 42.323,23.128 L37.323,19.128 L38.573,17.567 L41.353,19.791 C39.029,11.875 31.848,6 23.948,6 C15.171,6 7.26,13.243 5.938,22.489 L5.938,22.489 Z M19.948,30 L28.948,30 L28.948,28 L19.948,28 L19.948,30 Z M19.948,26 L28.948,26 L28.948,24 L19.948,24 L19.948,26 Z M19.948,22 L28.948,22 L28.948,20 L19.948,20 L19.948,22 Z M32.502,30.12 L33.657,31.217 L31.387,33.373 L30.158,32.205 C29.84,31.905 29.367,31.845 28.985,32.055 C28.268,32.452 27.501,32.755 26.704,32.955 C26.259,33.067 25.948,33.467 25.948,33.925 L25.948,36 L22.948,36 L22.948,34.289 C22.948,33.841 22.649,33.447 22.216,33.326 C21.47,33.118 20.75,32.803 20.075,32.39 C19.673,32.145 19.153,32.212 18.827,32.554 L17.73,33.709 L15.574,31.439 L16.742,30.21 C17.042,29.894 17.103,29.42 16.892,29.038 C16.495,28.319 16.192,27.551 15.993,26.756 C15.881,26.312 15.481,26 15.023,26 L12.948,26 L12.948,23 L14.659,23 C15.108,23 15.501,22.7 15.623,22.268 C15.83,21.522 16.144,20.802 16.557,20.127 C16.804,19.724 16.736,19.205 16.393,18.88 L15.239,17.782 L17.508,15.626 L18.738,16.794 C19.055,17.095 19.529,17.154 19.911,16.944 C20.627,16.547 21.395,16.245 22.191,16.045 C22.636,15.933 22.948,15.533 22.948,15.075 L22.948,13 L25.948,13 L25.948,14.71 C25.948,15.159 26.247,15.553 26.679,15.674 C27.425,15.882 28.146,16.197 28.821,16.61 C29.223,16.857 29.744,16.788 30.069,16.446 L31.166,15.29 L33.322,17.56 L32.154,18.79 C31.853,19.106 31.792,19.581 32.003,19.963 C32.401,20.681 32.703,21.448 32.903,22.243 C33.014,22.688 33.415,23 33.873,23 L35.948,23 L35.948,26 L34.237,26 C33.788,26 33.394,26.299 33.273,26.732 C33.066,27.477 32.751,28.197 32.338,28.873 C32.091,29.275 32.16,29.795 32.502,30.12 L32.502,30.12 Z M36.429,21 L34.625,21 C34.475,20.541 34.297,20.091 34.091,19.655 L35.087,18.606 C35.643,18.019 35.643,17.101 35.086,16.515 L32.265,13.544 C31.979,13.244 31.579,13.073 31.166,13.073 L31.164,13.073 C30.75,13.073 30.349,13.246 30.064,13.546 L29.154,14.505 C28.761,14.304 28.359,14.129 27.948,13.981 L27.948,12.518 C27.948,11.681 27.266,11 26.429,11 L22.466,11 C21.629,11 20.948,11.681 20.948,12.518 L20.948,14.323 C20.489,14.472 20.039,14.651 19.602,14.857 L18.555,13.862 C17.966,13.302 17.047,13.304 16.462,13.861 L13.494,16.681 C13.193,16.967 13.021,17.368 13.021,17.782 C13.021,18.197 13.193,18.598 13.494,18.883 L14.453,19.794 C14.252,20.186 14.078,20.589 13.929,21 L12.466,21 C11.629,21 10.948,21.681 10.948,22.518 L10.948,26.481 C10.948,27.319 11.629,28 12.466,28 L14.271,28 C14.42,28.459 14.598,28.908 14.804,29.345 L13.807,30.395 C13.252,30.981 13.252,31.899 13.809,32.485 L16.63,35.456 C16.917,35.755 17.317,35.927 17.73,35.927 L17.732,35.927 C18.146,35.926 18.546,35.754 18.832,35.454 L19.742,34.495 C20.134,34.695 20.537,34.87 20.948,35.019 L20.948,36.481 C20.948,37.319 21.629,38 22.466,38 L26.429,38 C27.266,38 27.948,37.319 27.948,36.481 L27.948,34.677 C28.408,34.527 28.857,34.349 29.293,34.143 L30.34,35.138 C30.93,35.697 31.849,35.696 32.433,35.138 L35.402,32.318 C35.703,32.033 35.875,31.632 35.875,31.218 C35.875,30.803 35.703,30.402 35.402,30.116 L34.443,29.205 C34.643,28.813 34.818,28.41 34.966,28 L36.429,28 C37.266,28 37.948,27.319 37.948,26.481 L37.948,22.518 C37.948,21.681 37.266,21 36.429,21 L36.429,21 Z" id="Fill-1" fill="#B0084D"></path>
    </g>
</svg>