<?xml version="1.0" encoding="UTF-8"?>
<svg width="48px" height="48px" viewBox="0 0 48 48" version="1.1" xmlns="http://www.w3.org/2000/svg" xmlns:xlink="http://www.w3.org/1999/xlink">
    <title>Icon-Resource/Quantum-Technologies/Res_Amazon-Braket_Chandelier _48_Light</title>
    <g id="Icon-Resource/Quantum-Technologies/Res_Amazon-Braket_Chandelier-_48" stroke="none" stroke-width="1" fill="none" fill-rule="evenodd">
        <path d="M22,44 L26,44 L26,41 L22,41 L22,44 Z M28,40 L28,45 C28,45.552 27.553,46 27,46 L21,46 C20.447,46 20,45.552 20,45 L20,40 C20,39.448 20.447,39 21,39 L27,39 C27.553,39 28,39.448 28,40 L28,40 Z M11,2 L9,2 L9,7 C9,7.552 9.447,8 10,8 L13,8 L13,6 L11,6 L11,2 Z M37,2 L37,6 L35,6 L35,8 L38,8 C38.553,8 39,7.552 39,7 L39,2 L37,2 Z M14,31 L34,31 L34,29 L14,29 L14,31 Z M14,16 L34,16 L34,14 L14,14 L14,16 Z M30,27 L32,27 L32,18 L30,18 L30,27 Z M26,27 L28,27 L28,18 L26,18 L26,27 Z M20,27 L22,27 L22,18 L20,18 L20,27 Z M16,27 L18,27 L18,18 L16,18 L16,27 Z M32,12 L32,3 L30,3 L30,12 L30,13 L32,13 L32,12 Z M26,13 L28,13 L28,3 L26,3 L26,13 Z M25,37 L27,37 L27,32 L25,32 L25,37 Z M21,37 L23,37 L23,32 L21,32 L21,37 Z M20,13 L22,13 L22,3 L20,3 L20,13 Z M18,13 L16,13 L16,12 L16,3 L18,3 L18,12 L18,13 Z" id="Fill-1" fill="#D45B07"></path>
    </g>
</svg>