<?xml version="1.0" encoding="UTF-8"?>
<svg width="48px" height="48px" viewBox="0 0 48 48" version="1.1" xmlns="http://www.w3.org/2000/svg" xmlns:xlink="http://www.w3.org/1999/xlink">
    <title>Icon-Resource/Storage/Res_AWS-Backup_Storage_48_Light</title>
    <g id="Icon-Resource/Storage/Res_AWS-Backup_Storage_48" stroke="none" stroke-width="1" fill="none" fill-rule="evenodd">
        <path d="M22,31 L26,31 L26,29 L22,29 L22,31 Z M17,33.007 L17,27 L31,27 L31,33 L17,33.007 Z M19,17 L24,17 L24,20.933 C24,21.485 24.447,21.933 25,21.933 L29,21.933 L29,25 L19,25 L19,17 Z M28.5,20 L26,20 L26,17.458 L28.5,20 Z M31.993,25 L31,25 L31,20.246 C31,19.991 30.902,19.746 30.728,19.561 L26.728,15.314 C26.539,15.114 26.275,15 26,15 L18.472,15 C17.66,15 17,15.66 17,16.472 L17,25 L16,25 C15.447,25 15,25.448 15,26 L15,33.007 C15,34.106 15.895,35 16.993,35 L31,35 C32.099,35 32.993,34.106 32.993,33.007 L32.993,26 C32.993,25.448 32.546,25 31.993,25 L31.993,25 Z M42,21 C40.897,21 40,20.103 40,19 C40,17.897 40.897,17 42,17 C43.103,17 44,17.897 44,19 C44,20.103 43.103,21 42,21 L42,21 Z M34.296,37.03 C34.196,37.022 34.101,37 34,37 C32.141,37 30.589,38.28 30.142,40 L17.858,40 C17.411,38.28 15.859,37 14,37 C13.899,37 13.804,37.022 13.704,37.03 L8.195,22.338 C9.28,21.622 10,20.395 10,19 C10,18.511 9.899,18.047 9.738,17.613 L21.812,9.341 C22.442,9.755 23.192,10 24,10 C24.808,10 25.558,9.755 26.188,9.341 L38.262,17.613 C38.101,18.047 38,18.511 38,19 C38,20.395 38.72,21.622 39.805,22.338 L34.296,37.03 Z M34,43 C32.897,43 32,42.103 32,41 C32,39.897 32.897,39 34,39 C35.103,39 36,39.897 36,41 C36,42.103 35.103,43 34,43 L34,43 Z M14,43 C12.897,43 12,42.103 12,41 C12,39.897 12.897,39 14,39 C15.103,39 16,39.897 16,41 C16,42.103 15.103,43 14,43 L14,43 Z M4,19 C4,17.897 4.897,17 6,17 C7.103,17 8,17.897 8,19 C8,20.103 7.103,21 6,21 C4.897,21 4,20.103 4,19 L4,19 Z M24,4 C25.103,4 26,4.897 26,6 C26,7.103 25.103,8 24,8 C22.897,8 22,7.103 22,6 C22,4.897 22.897,4 24,4 L24,4 Z M42,15 C41.008,15 40.111,15.376 39.412,15.976 L27.532,7.837 C27.821,7.284 28,6.666 28,6 C28,3.794 26.206,2 24,2 C21.794,2 20,3.794 20,6 C20,6.666 20.179,7.284 20.468,7.837 L8.588,15.976 C7.889,15.376 6.992,15 6,15 C3.794,15 2,16.794 2,19 C2,21.206 3.794,23 6,23 C6.101,23 6.196,22.978 6.296,22.97 L11.805,37.662 C10.72,38.378 10,39.605 10,41 C10,43.206 11.794,45 14,45 C15.859,45 17.411,43.72 17.858,42 L30.142,42 C30.589,43.72 32.141,45 34,45 C36.206,45 38,43.206 38,41 C38,39.605 37.28,38.378 36.195,37.662 L41.704,22.97 C41.804,22.978 41.899,23 42,23 C44.206,23 46,21.206 46,19 C46,16.794 44.206,15 42,15 L42,15 Z" id="Fill-1" fill="#3F8624"></path>
    </g>
</svg>