<?xml version="1.0" encoding="UTF-8"?>
<svg width="48px" height="48px" viewBox="0 0 48 48" version="1.1" xmlns="http://www.w3.org/2000/svg" xmlns:xlink="http://www.w3.org/1999/xlink">
    <title>Icon-Resource/Storage/Res_AWS-Backup_Virtual-Machine-Monitor_48_Light</title>
    <g id="Icon-Resource/Storage/Res_AWS-Backup_Virtual-Machine-Monitor_48" stroke="none" stroke-width="1" fill="none" fill-rule="evenodd">
        <path d="M41.94,34.4116 C42.306,34.7666 42.507,35.2446 42.507,35.7556 C42.507,36.2666 42.306,36.7446 41.939,37.0996 L36.831,42.0666 C36.099,42.7796 34.952,42.7806 34.216,42.0666 L32.073,39.9826 C31.064,40.5006 30.012,40.9256 28.932,41.2526 L28.932,44.1246 C28.932,45.1586 28.091,45.9996 27.057,45.9996 L19.807,45.9996 C18.773,45.9996 17.932,45.1586 17.932,44.1246 L17.932,41.2526 C16.852,40.9256 15.8,40.5006 14.792,39.9826 L12.648,42.0666 C11.914,42.7806 10.765,42.7806 10.033,42.0656 L4.924,37.0996 C4.558,36.7446 4.357,36.2666 4.357,35.7556 C4.357,35.2446 4.558,34.7666 4.925,34.4116 L7.004,32.3886 C6.359,31.1936 5.855,29.9346 5.502,28.6376 L7.432,28.1126 C7.806,29.4866 8.372,30.8126 9.115,32.0526 C9.352,32.4506 9.286,32.9596 8.954,33.2836 L6.411,35.7556 L11.34,40.5476 L13.923,38.0366 C14.242,37.7256 14.727,37.6656 15.113,37.8836 C16.395,38.6086 17.764,39.1616 19.181,39.5246 C19.624,39.6386 19.932,40.0366 19.932,40.4936 L19.932,43.9996 L26.932,43.9996 L26.932,40.4936 C26.932,40.0366 27.241,39.6386 27.683,39.5246 C29.1,39.1616 30.469,38.6086 31.752,37.8836 C32.138,37.6656 32.622,37.7256 32.941,38.0366 L35.524,40.5476 L40.454,35.7556 L37.911,33.2836 C37.579,32.9596 37.512,32.4506 37.75,32.0526 C38.493,30.8126 39.058,29.4866 39.432,28.1126 L41.362,28.6376 C41.009,29.9346 40.505,31.1936 39.86,32.3886 L41.94,34.4116 Z M4.924,13.5886 C4.558,13.2326 4.357,12.7556 4.357,12.2446 C4.357,11.7336 4.558,11.2556 4.925,10.8996 L10.034,5.9336 C10.765,5.2206 11.914,5.2186 12.647,5.9326 L14.792,8.0176 C15.8,7.4996 16.852,7.0746 17.932,6.7476 L17.932,3.8746 C17.932,2.8416 18.773,1.9996 19.807,1.9996 L27.057,1.9996 C28.091,1.9996 28.932,2.8416 28.932,3.8746 L28.932,6.7476 C30.012,7.0746 31.064,7.4996 32.073,8.0176 L34.216,5.9326 C34.951,5.2206 36.099,5.2196 36.832,5.9346 L41.94,10.9006 C42.306,11.2556 42.507,11.7336 42.507,12.2446 C42.507,12.7556 42.306,13.2326 41.939,13.5886 L39.86,15.6116 C40.505,16.8066 41.009,18.0646 41.362,19.3626 L39.432,19.8876 C39.058,18.5136 38.493,17.1876 37.75,15.9476 C37.512,15.5496 37.579,15.0396 37.911,14.7166 L40.454,12.2446 L35.523,7.4526 L32.941,9.9626 C32.622,10.2736 32.138,10.3346 31.752,10.1166 C30.469,9.3916 29.1,8.8386 27.683,8.4746 C27.241,8.3616 26.932,7.9626 26.932,7.5066 L26.932,3.9996 L19.932,3.9996 L19.932,7.5066 C19.932,7.9626 19.624,8.3616 19.181,8.4746 C17.764,8.8386 16.395,9.3916 15.113,10.1166 C14.727,10.3346 14.242,10.2736 13.923,9.9626 L11.341,7.4526 L6.411,12.2446 L8.954,14.7166 C9.286,15.0396 9.352,15.5496 9.115,15.9476 C8.372,17.1876 7.806,18.5136 7.432,19.8876 L5.502,19.3626 C5.855,18.0646 6.359,16.8066 7.004,15.6116 L4.924,13.5886 Z M7.406,22.7916 C8.181,22.7916 8.812,23.4226 8.812,24.1986 C8.812,24.9736 8.181,25.6046 7.406,25.6046 C6.63,25.6046 6,24.9736 6,24.1986 C6,23.4226 6.63,22.7916 7.406,22.7916 L7.406,22.7916 Z M23.648,11.3626 C24.423,11.3626 25.054,11.9936 25.054,12.7686 C25.054,13.5436 24.423,14.1746 23.648,14.1746 C22.873,14.1746 22.242,13.5436 22.242,12.7686 C22.242,11.9936 22.873,11.3626 23.648,11.3626 L23.648,11.3626 Z M39.89,22.7916 C40.666,22.7916 41.296,23.4226 41.296,24.1986 C41.296,24.9736 40.666,25.6046 39.89,25.6046 C39.115,25.6046 38.484,24.9736 38.484,24.1986 C38.484,23.4226 39.115,22.7916 39.89,22.7916 L39.89,22.7916 Z M23.628,37.6516 C22.852,37.6516 22.221,37.0206 22.221,36.2446 C22.221,35.4696 22.852,34.8386 23.628,34.8386 C24.403,34.8386 25.034,35.4696 25.034,36.2446 C25.034,37.0206 24.403,37.6516 23.628,37.6516 L23.628,37.6516 Z M10.468,22.7336 L21.252,15.1856 C21.868,15.7956 22.714,16.1746 23.648,16.1746 C24.582,16.1746 25.428,15.7956 26.044,15.1856 L36.828,22.7336 C36.614,23.1796 36.484,23.6716 36.484,24.1986 C36.484,24.9016 36.698,25.5556 37.065,26.0996 L26.024,33.8286 C25.408,33.2176 24.561,32.8386 23.628,32.8386 C22.694,32.8386 21.847,33.2176 21.231,33.8286 L10.216,26.1176 C10.591,25.5706 10.812,24.9106 10.812,24.1986 C10.812,23.6716 10.682,23.1796 10.468,22.7336 L10.468,22.7336 Z M7.406,27.6046 C7.856,27.6046 8.284,27.5126 8.677,27.3526 L8.617,27.4396 L20.286,35.6076 C20.246,35.8146 20.221,36.0266 20.221,36.2446 C20.221,38.1236 21.75,39.6516 23.628,39.6516 C25.505,39.6516 27.034,38.1236 27.034,36.2446 C27.034,36.0266 27.009,35.8146 26.969,35.6076 L38.638,27.4396 L38.566,27.3366 C38.974,27.5086 39.421,27.6046 39.89,27.6046 C41.768,27.6046 43.296,26.0766 43.296,24.1986 C43.296,22.3196 41.768,20.7916 39.89,20.7916 C39.274,20.7916 38.704,20.9686 38.205,21.2566 L26.99,13.4056 C27.029,13.1986 27.054,12.9866 27.054,12.7686 C27.054,10.8906 25.526,9.3626 23.648,9.3626 C21.77,9.3626 20.242,10.8906 20.242,12.7686 C20.242,12.9866 20.267,13.1986 20.306,13.4056 L9.091,21.2566 C8.592,20.9686 8.022,20.7916 7.406,20.7916 C5.528,20.7916 4,22.3196 4,24.1986 C4,26.0766 5.528,27.6046 7.406,27.6046 L7.406,27.6046 Z" id="Fill-1" fill="#3F8624"></path>
    </g>
</svg>