<?xml version="1.0" encoding="UTF-8"?>
<svg width="48px" height="48px" viewBox="0 0 48 48" version="1.1" xmlns="http://www.w3.org/2000/svg" xmlns:xlink="http://www.w3.org/1999/xlink">
    <title>Icon-Resource/Storage/Res_AWS-Backup_Virtual-Machine_48_Light</title>
    <g id="Icon-Resource/Storage/Res_AWS-Backup_Virtual-Machine_48" stroke="none" stroke-width="1" fill="none" fill-rule="evenodd">
        <path d="M5.4146,44 L10.9996,44 L10.9996,46 L1.9996,46 L1.9996,37 L3.9996,37 L3.9996,42.586 L9.2926,37.293 L10.7066,38.708 L5.4146,44 Z M43.9996,37 L45.9996,37 L45.9996,46 L36.9996,46 L36.9996,44 L42.5856,44 L37.2926,38.707 L38.7066,37.293 L43.9996,42.586 L43.9996,37 Z M3.9996,11 L1.9996,11 L1.9996,2 L10.9996,2 L10.9996,4 L5.4146,4 L10.7066,9.292 L9.2926,10.707 L3.9996,5.414 L3.9996,11 Z M45.9996,2 L45.9996,11 L43.9996,11 L43.9996,5.414 L38.7066,10.707 L37.2926,9.293 L42.5856,4 L36.9996,4 L36.9996,2 L45.9996,2 Z M23.9996,39 C22.8976,39 21.9996,38.103 21.9996,37 C21.9996,35.897 22.8976,35 23.9996,35 C25.1026,35 25.9996,35.897 25.9996,37 C25.9996,38.103 25.1026,39 23.9996,39 L23.9996,39 Z M6.9996,26 C5.8976,26 4.9996,25.103 4.9996,24 C4.9996,22.897 5.8976,22 6.9996,22 C8.1026,22 8.9996,22.897 8.9996,24 C8.9996,25.103 8.1026,26 6.9996,26 L6.9996,26 Z M23.9996,9 C25.1026,9 25.9996,9.897 25.9996,11 C25.9996,12.103 25.1026,13 23.9996,13 C22.8976,13 21.9996,12.103 21.9996,11 C21.9996,9.897 22.8976,9 23.9996,9 L23.9996,9 Z M40.9996,22 C42.1026,22 42.9996,22.897 42.9996,24 C42.9996,25.103 42.1026,26 40.9996,26 C39.8976,26 38.9996,25.103 38.9996,24 C38.9996,22.897 39.8976,22 40.9996,22 L40.9996,22 Z M23.9996,33 C23.2076,33 22.4716,33.239 21.8496,33.638 L10.7586,25.319 C10.9046,24.904 10.9996,24.465 10.9996,24 C10.9996,23.535 10.9046,23.096 10.7586,22.681 L21.8496,14.362 C22.4716,14.761 23.2076,15 23.9996,15 C24.7926,15 25.5276,14.761 26.1506,14.362 L37.2416,22.681 C37.0956,23.096 36.9996,23.535 36.9996,24 C36.9996,24.465 37.0956,24.904 37.2416,25.319 L26.1506,33.638 C25.5276,33.239 24.7926,33 23.9996,33 L23.9996,33 Z M38.3586,26.981 C39.0646,27.607 39.9836,28 40.9996,28 C43.2066,28 44.9996,26.206 44.9996,24 C44.9996,21.794 43.2066,20 40.9996,20 C39.9836,20 39.0646,20.393 38.3586,21.019 L27.5086,12.882 C27.8116,12.318 27.9996,11.684 27.9996,11 C27.9996,8.794 26.2066,7 23.9996,7 C21.7936,7 19.9996,8.794 19.9996,11 C19.9996,11.684 20.1886,12.318 20.4916,12.882 L9.6416,21.019 C8.9356,20.393 8.0166,20 6.9996,20 C4.7936,20 2.9996,21.794 2.9996,24 C2.9996,26.206 4.7936,28 6.9996,28 C8.0166,28 8.9356,27.607 9.6416,26.981 L20.4916,35.118 C20.1886,35.682 19.9996,36.316 19.9996,37 C19.9996,39.206 21.7936,41 23.9996,41 C26.2066,41 27.9996,39.206 27.9996,37 C27.9996,36.316 27.8116,35.682 27.5086,35.118 L38.3586,26.981 Z" id="Fill-1" fill="#3F8624"></path>
    </g>
</svg>