<?xml version="1.0" encoding="UTF-8"?>
<svg width="48px" height="48px" viewBox="0 0 48 48" version="1.1" xmlns="http://www.w3.org/2000/svg" xmlns:xlink="http://www.w3.org/1999/xlink">
    <title>Icon-Resource/Storage/Res_AWS-Backup_Recovery-Time-Objective_48_Light</title>
    <g id="Icon-Resource/Storage/Res_AWS-Backup_Recovery-Time-Objective_48" stroke="none" stroke-width="1" fill="none" fill-rule="evenodd">
        <path d="M26.606,38.281 C29.163,38.281 31.593,37.474 33.636,35.947 C33.938,35.721 34.228,35.482 34.506,35.229 C34.646,35.102 34.782,34.972 34.914,34.84 C35.717,34.037 36.398,33.126 36.939,32.13 C37.031,31.963 37.116,31.796 37.197,31.626 C37.967,30.03 38.357,28.316 38.357,26.53 C38.357,21.024 34.614,16.316 29.255,15.081 L29.705,13.132 C35.976,14.577 40.357,20.087 40.357,26.53 C40.357,28.619 39.9,30.625 39,32.492 C38.905,32.691 38.802,32.891 38.696,33.087 C38.064,34.25 37.267,35.316 36.329,36.254 C36.174,36.408 36.015,36.561 35.851,36.709 C35.527,37.004 35.186,37.285 34.834,37.549 C32.443,39.336 29.597,40.281 26.606,40.281 C19.023,40.281 12.853,34.112 12.853,26.53 L14.855,26.468 L14.853,26.546 C14.853,33.01 20.126,38.281 26.606,38.281 L26.606,38.281 Z M26.056,25.182 C26.755,25.182 27.325,25.751 27.325,26.45 C27.325,27.149 26.755,27.718 26.056,27.718 C25.357,27.718 24.789,27.149 24.789,26.45 C24.789,25.751 25.357,25.182 26.056,25.182 L26.056,25.182 Z M22.789,26.45 C22.789,28.252 24.254,29.718 26.056,29.718 C27.859,29.718 29.325,28.252 29.325,26.45 C29.325,24.976 28.338,23.742 26.996,23.336 L26.939,13.994 L24.939,14.006 L24.996,23.374 C23.716,23.817 22.789,25.021 22.789,26.45 L22.789,26.45 Z M5,20 L16,20 L16,18 L5,18 L5,20 Z M2,24 L13,24 L13,22 L2,22 L2,24 Z M23,7.497 L23,4.654 C23,4.294 23.293,4 23.654,4 L28.345,4 C28.706,4 29,4.294 29,4.655 L29,7.337 C26.998,7.082 24.974,7.135 23,7.497 L23,7.497 Z M39.314,11.988 L41.015,10.288 L42.129,11.402 L43.543,9.988 L39.901,6.345 L38.487,7.76 L39.601,8.874 L37.735,10.74 C35.652,9.262 33.365,8.253 31,7.696 L31,4.655 C31,3.191 29.809,2 28.345,2 L23.654,2 C22.19,2 21,3.191 21,4.654 L21,7.965 C18.057,8.832 15.299,10.397 13,12.633 L13,11 L11,11 L11,15 C11,15.552 11.447,16 12,16 L16,16 L16,14 L14.457,14 C20.503,8.177 30.052,7.479 36.917,12.597 C44.61,18.331 46.204,29.256 40.469,36.949 C34.735,44.642 23.809,46.235 16.117,40.502 C11.704,37.213 9.152,32.166 9.114,26.655 L7.114,26.668 C7.156,32.812 10.002,38.438 14.921,42.105 C18.395,44.695 22.46,45.944 26.492,45.944 C32.416,45.944 38.268,43.248 42.073,38.144 C48.152,29.989 46.831,18.587 39.314,11.988 L39.314,11.988 Z" id="Fill-1" fill="#3F8624"></path>
    </g>
</svg>