<?xml version="1.0" encoding="UTF-8"?>
<svg width="48px" height="48px" viewBox="0 0 48 48" version="1.1" xmlns="http://www.w3.org/2000/svg" xmlns:xlink="http://www.w3.org/1999/xlink">
    <title>Icon-Resource/Storage/Res_AWS-Backup_AWS-Backup-support-for-FSx-for NetApp-ONTAP_48_Light</title>
    <g id="Icon-Resource/Storage/Res_AWS-Backup_AWS-Backup-support-for-FSx-for-NetApp-ONTAP_48" stroke="none" stroke-width="1" fill="none" fill-rule="evenodd">
        <path d="M45.8079,21.4034 C45.1139,16.6464 42.6089,12.4444 38.7549,9.5714 C34.9019,6.6984 30.1599,5.4974 25.3999,6.1924 C21.3769,6.7794 17.7609,8.6734 14.9999,11.5724 L14.9999,8.0004 L12.9999,8.0004 L12.9999,14.0004 C12.9999,14.5524 13.4469,15.0004 13.9999,15.0004 L19.9999,15.0004 L19.9999,13.0004 L16.3949,13.0004 C18.8549,10.3954 22.0899,8.6964 25.6899,8.1714 C29.9119,7.5544 34.1319,8.6204 37.5599,11.1744 C40.9859,13.7284 43.2129,17.4634 43.8289,21.6924 C44.4459,25.9204 43.3789,30.1354 40.8249,33.5614 C37.7779,37.6494 33.1039,39.9964 27.9999,40.0004 L26.9999,40.0004 L26.9999,42.0004 L27.9999,42.0004 C33.7429,41.9954 39.0009,39.3554 42.4279,34.7564 C45.3009,30.9024 46.5019,26.1604 45.8079,21.4034 L45.8079,21.4034 Z M30.7349,18.5504 C30.3959,16.3584 29.1729,14.7744 27.3789,14.2504 C26.1679,13.8964 24.9089,14.1084 23.8829,14.7824 C23.3779,13.7674 22.7479,12.8784 21.9999,12.1264 L21.9999,15.5204 C22.2139,15.9304 22.4119,16.3574 22.5759,16.8214 C22.6989,17.1694 23.0049,17.4224 23.3709,17.4774 C23.7349,17.5294 24.1039,17.3784 24.3229,17.0824 C24.9289,16.2624 25.9089,15.9024 26.8179,16.1694 C27.9329,16.4954 28.6719,17.6524 28.8079,19.2734 C28.7569,19.7914 29.1139,20.2664 29.6339,20.3554 C30.9459,20.5804 33.9999,21.5034 33.9999,25.1854 C33.9999,29.4824 30.0259,29.9624 29.6579,30.0004 L26.9999,30.0004 L26.9999,32.0004 L29.7379,32.0004 C31.9039,31.8244 35.9999,30.1704 35.9999,25.1854 C35.9999,21.3034 33.4039,19.2574 30.7349,18.5504 L30.7349,18.5504 Z M10.9999,30.0004 L8.9109,30.0004 C6.3959,29.9974 4.2509,28.1114 4.0269,25.7324 C4.0089,25.5414 3.9999,25.3424 3.9999,25.1354 C3.9999,21.9094 6.2189,20.8204 7.5859,20.4574 C7.6189,20.4504 7.6519,20.4424 7.6859,20.4324 C8.1519,20.2924 8.4479,19.8374 8.3909,19.3544 C8.3549,19.0624 8.3369,18.7644 8.3369,18.4624 C8.3369,16.4074 9.4289,14.2434 10.9999,12.8944 L10.9999,10.4734 C8.2989,12.0094 6.3369,15.2794 6.3369,18.4624 C6.3369,18.5594 6.3389,18.6574 6.3419,18.7544 C3.6069,19.7644 1.9999,22.0964 1.9999,25.1354 C1.9999,25.4084 2.0129,25.6724 2.0359,25.9224 C2.3549,29.3144 5.3729,31.9964 8.9089,32.0004 L10.9999,32.0004 L10.9999,30.0004 Z M23.9999,40.0004 C23.6609,40.0004 23.3379,39.8274 23.1519,39.5294 L14.9999,26.4864 L14.9999,40.0004 L12.9999,40.0004 L12.9999,23.0004 C12.9999,22.5534 13.2959,22.1614 13.7249,22.0384 C14.1509,21.9164 14.6109,22.0914 14.8479,22.4704 L22.9999,35.5134 L22.9999,22.0004 L24.9999,22.0004 L24.9999,39.0004 C24.9999,39.4464 24.7039,39.8384 24.2759,39.9614 C24.1849,39.9874 24.0919,40.0004 23.9999,40.0004 L23.9999,40.0004 Z" id="Fill-1" fill="#3F8624"></path>
    </g>
</svg>