<?xml version="1.0" encoding="UTF-8"?>
<svg width="48px" height="48px" viewBox="0 0 48 48" version="1.1" xmlns="http://www.w3.org/2000/svg" xmlns:xlink="http://www.w3.org/1999/xlink">
    <title>Icon-Resource/Storage/Res_AWS-Backup_Compliance-Reporting_48_Light</title>
    <g id="Icon-Resource/Storage/Res_AWS-Backup_Compliance-Reporting_48" stroke="none" stroke-width="1" fill="none" fill-rule="evenodd">
        <path d="M15.271,10 L32.55,10 L31.3,6 L26.815,6 C26.401,7.162 25.301,8 24,8 C22.698,8 21.598,7.162 21.184,6 L16.521,6 L15.271,10 Z M23,5 C23,5.551 23.448,6 24,6 C24.551,6 25,5.551 25,5 C25,4.449 24.551,4 24,4 C23.448,4 23,4.449 23,5 L23,5 Z M13.105,11.592 C12.917,11.336 12.861,11.005 12.957,10.702 L14.832,4.702 C14.961,4.284 15.348,4 15.786,4 L21.184,4 C21.598,2.838 22.698,2 24,2 C25.301,2 26.401,2.838 26.815,4 L32.036,4 C32.473,4 32.86,4.284 32.99,4.702 L34.865,10.702 C34.96,11.005 34.905,11.336 34.716,11.592 C34.528,11.849 34.229,12 33.911,12 L13.911,12 C13.592,12 13.293,11.849 13.105,11.592 L13.105,11.592 Z M39,6 L36,6 L36,8 L39,8 C39.551,8 40,8.449 40,9 L40,43 C40,43.551 39.551,44 39,44 L9,44 C8.448,44 8,43.551 8,43 L8,9 C8,8.449 8.448,8 9,8 L12,8 L12,6 L9,6 C7.345,6 6,7.346 6,9 L6,43 C6,44.654 7.345,46 9,46 L39,46 C40.654,46 42,44.654 42,43 L42,9 C42,7.346 40.654,6 39,6 L39,6 Z M14.5,27.5 C14.5,32.738 18.761,37 24,37 C29.238,37 33.5,32.738 33.5,27.5 C33.5,22.262 29.238,18 24,18 C18.761,18 14.5,22.262 14.5,27.5 L14.5,27.5 Z M12.5,27.5 C12.5,21.159 17.659,16 24,16 C30.34,16 35.5,21.159 35.5,27.5 C35.5,33.841 30.34,39 24,39 C17.659,39 12.5,33.841 12.5,27.5 L12.5,27.5 Z M21.26,31.745 L18.002,28.487 L19.417,27.073 L21.967,29.624 L28.248,23.343 L29.662,24.757 L22.674,31.745 C22.487,31.933 22.233,32.038 21.967,32.038 C21.702,32.038 21.448,31.933 21.26,31.745 L21.26,31.745 Z" id="Fill-1" fill="#3F8624"></path>
    </g>
</svg>