<?xml version="1.0" encoding="UTF-8"?>
<svg width="48px" height="48px" viewBox="0 0 48 48" version="1.1" xmlns="http://www.w3.org/2000/svg" xmlns:xlink="http://www.w3.org/1999/xlink">
    <title>Icon-Resource/Storage/Res_AWS-Backup_AWS-Backup-support-for-Amazon-S3_48_Light</title>
    <g id="Icon-Resource/Storage/Res_AWS-Backup_AWS-Backup-support-for-Amazon-S3_48" stroke="none" stroke-width="1" fill="none" fill-rule="evenodd">
        <path d="M39.5230246,40.8829 C39.5170246,40.9259 39.5150246,40.9589 39.5150246,41.0029 C39.4880246,41.1189 39.1210246,41.5609 37.8450246,42.0599 C37.2100246,42.3069 36.4590246,42.5309 35.6110246,42.7239 C33.4170246,43.2259 30.7240246,43.5019 28.0290246,43.5019 C20.8510246,43.5019 16.7250246,41.7499 16.5450246,41.0139 C16.5450246,40.9679 16.5430246,40.9219 16.5360246,40.8759 L15.4330246,32.9969 C16.1480246,33.0979 16.8720246,33.1539 17.6010246,33.1539 C19.0610246,33.1539 20.5400246,32.9399 21.9970246,32.5079 L20.2840246,35.7629 L22.0530246,36.6949 L24.8450246,31.3899 C25.1030246,30.9009 24.9150246,30.2969 24.4260246,30.0389 L19.1220246,27.2469 L18.1900246,29.0169 L21.2730246,30.6389 C19.2250246,31.2199 17.1350246,31.2819 15.1420246,30.9139 L13.0880246,16.2369 C16.4150246,17.9139 22.6230246,18.5679 28.1900246,18.5679 C33.5590246,18.5679 39.5420246,17.9199 42.7800246,16.2639 L39.5230246,40.8829 Z M45.1710246,13.4349 L45.1610246,13.4339 C45.1630246,13.3889 45.1800246,13.3489 45.1800246,13.3039 C45.1800246,9.5649 37.0570246,8.2219 34.5670246,7.8999 L34.3110246,9.8829 C40.8690246,10.7319 43.1230246,12.5469 43.1750246,13.2769 L43.1620246,13.3739 C42.9760246,14.5559 37.9820246,16.5679 28.1900246,16.5679 C18.1970246,16.5679 12.8900246,14.5269 12.6870246,13.3739 L12.6730246,13.2769 C12.7350246,12.4439 15.7980246,10.5419 22.7980246,9.7889 L22.5840246,7.7999 C16.8230246,8.4209 10.6680246,10.1919 10.6680246,13.3039 C10.6680246,13.3519 10.6860246,13.3939 10.6890246,13.4409 L10.6770246,13.4429 L13.0440246,30.3539 C9.45802457,29.0769 6.41902457,26.3219 4.93302457,22.5059 C2.21802457,15.5309 5.68302457,7.6479 12.6580246,4.9329 C16.0380246,3.6169 19.7240246,3.6959 23.0440246,5.1549 C26.3620246,6.6129 28.9150246,9.2779 30.2280246,12.6509 L30.3060246,12.8559 L32.1750246,12.1449 L32.0930246,11.9299 C30.5850246,8.0539 27.6560246,4.9979 23.8480246,3.3239 C20.0390246,1.6499 15.8070246,1.5609 11.9310246,3.0699 C8.05502457,4.5779 4.99902457,7.5069 3.32502457,11.3149 C1.65102457,15.1229 1.56002457,19.3549 3.07002457,23.2309 C4.90902457,27.9539 8.81602457,31.2649 13.3520246,32.5529 L14.5470246,41.0959 C14.6790246,44.3269 22.6540246,45.5019 28.0290246,45.5019 C30.8700246,45.5019 33.7210246,45.2079 36.0550246,44.6739 C37.0000246,44.4589 37.8460246,44.2059 38.5730246,43.9229 C40.4820246,43.1759 41.4700246,42.2239 41.5130246,41.0909 L45.1710246,13.4349 Z" id="Fill-1" fill="#3F8624"></path>
    </g>
</svg>