<?xml version="1.0" encoding="UTF-8"?>
<svg width="64px" height="64px" viewBox="0 0 64 64" version="1.1" xmlns="http://www.w3.org/2000/svg" xmlns:xlink="http://www.w3.org/1999/xlink">
    <title>Icon-Architecture/48/Arch_Amazon-EFS_48</title>
    <defs>
        <linearGradient x1="0%" y1="100%" x2="100%" y2="0%" id="linearGradient-1">
            <stop stop-color="#1B660F" offset="0%"></stop>
            <stop stop-color="#6CAE3E" offset="100%"></stop>
        </linearGradient>
    </defs>
    <g id="Icon-Architecture/48/Arch_Amazon-EFS_48" stroke="none" stroke-width="1" fill="none" fill-rule="evenodd">
        <g id="Rectangle" fill="url(#linearGradient-1)">
            <rect x="0" y="0" width="64" height="64"></rect>
        </g>
        <g id="Icon-Service/48/Amazon-EFS_48" transform="translate(7.853500, 8.000000)" fill="#FFFFFF">
            <path d="M45.002652,2 L38.0212163,2 L38.0212163,4 L42.4783643,4 L37.1994016,9.293 L38.6096516,10.707 L44.0053041,5.297 L44.0053041,10 L46,10 L46,3 C46,2.448 45.5541855,2 45.002652,2 L45.002652,2 Z M3.99469592,5.297 L9.39034839,10.707 L10.8005984,9.293 L5.52163565,4 L9.97878369,4 L9.97878369,2 L2.99734796,2 C2.44581454,2 2,2.448 2,3 L2,10 L3.99469592,10 L3.99469592,5.297 Z M44.0053041,42.703 L38.6096516,37.293 L37.1994016,38.707 L42.4783643,44 L38.0212163,44 L38.0212163,46 L45.002652,46 C45.5541855,46 46,45.552 46,45 L46,38 L44.0053041,38 L44.0053041,42.703 Z M12.9887798,18.465 C12.9887798,15.52 15.0413219,12.35 17.6593603,11.249 C22.2062697,9.344 25.4277036,11.85 26.6005848,13.017 C27.5590362,13.971 28.3090419,15.193 28.8276628,16.649 C28.951334,16.995 29.2545277,17.246 29.616565,17.301 C29.980597,17.353 30.3426344,17.207 30.5630483,16.913 C31.1056055,16.19 31.8945078,15.776 32.729288,15.776 C33.9859465,15.776 35.5098941,16.753 35.6724619,19.507 C35.6983929,19.958 36.0215336,20.334 36.4623614,20.427 C39.7216946,21.114 41.3743002,22.917 41.3743002,25.786 C41.3743002,26.5 41.2885282,27.148 41.1189791,27.712 L43.0298978,28.288 C43.2552984,27.537 43.3689961,26.695 43.3689961,25.786 C43.3689961,22.175 41.3244328,19.66 37.5873699,18.642 C37.1046535,15.305 34.798785,13.776 32.729288,13.776 C31.7917809,13.776 30.8931704,14.064 30.1252125,14.594 C29.5637056,13.445 28.8535939,12.441 28.0058481,11.597 C24.9689235,8.578 20.8139719,7.758 16.8894077,9.404 C13.5283451,10.817 10.9940839,14.712 10.9940839,18.465 C10.9940839,18.589 10.997076,18.716 11.00306,18.846 C7.99904799,19.91 6.23473944,22.434 6.23473944,25.743 C6.23473944,25.912 6.24271823,26.081 6.25169436,26.243 C6.41226738,29.164 8.35510121,31.688 11.2015323,32.674 L11.8528005,30.784 C9.77632205,30.064 8.3590906,28.239 8.24240089,26.134 C8.23541945,26.008 8.22943537,25.875 8.22943537,25.743 C8.22943537,22.101 10.7816488,20.92 12.3045991,20.541 C12.7923023,20.419 13.1134483,19.952 13.0546048,19.451 C13.0157082,19.131 12.9887798,18.798 12.9887798,18.465 L12.9887798,18.465 Z M32.975633,26.6 C32.975633,26.288 32.906816,26.112 32.8469751,26.057 C32.7961103,26.009 32.6684498,25.986 32.5088741,25.998 L22.4655802,26 C21.9160414,26 21.4682322,25.552 21.4682322,25 C21.4682322,24.824 21.4113834,24.356 21.3405717,24 L19.0546501,24 C18.9599021,24.349 18.8661514,24.831 18.8591699,25.009 C18.8382256,25.546 18.3973978,26 17.861822,26 L15.5599429,26 C15.3275608,25.987 15.2038897,26.008 15.1520276,26.057 C15.093184,26.112 15.0233697,26.288 15.0233697,26.6 L15.0233697,37 L32.975633,37 L32.975633,26.6 Z M34.9703289,29 L34.9703289,33.764 L37.3460117,29 L34.9703289,29 Z M34.8656074,38.447 L34.8566312,38.443 C34.6920688,38.77 34.3639413,39 33.9729809,39 L14.0260217,39 C13.4754856,39 13.0286738,38.552 13.0286738,38 L13.0286738,26.6 C13.0286738,25.532 13.4435705,24.92 13.7916449,24.595 C14.1187751,24.29 14.6962395,23.939 15.6297572,24.002 L16.9811637,24.001 C17.1477208,23.128 17.543668,22 18.4821724,22 L21.9738876,22 C22.0387152,22 22.1015482,22.006 22.1643811,22.019 C22.9622594,22.174 23.2714373,23.183 23.3901217,24 L32.4390598,24 C33.3087472,23.934 33.8822223,24.289 34.2083551,24.595 C34.5554321,24.92 34.9703289,25.532 34.9703289,26.6 L34.9703289,27 L38.9597207,27 C39.3058005,27 39.6259492,27.18 39.8084639,27.474 C39.9909785,27.769 40.0069361,28.137 39.8523472,28.447 L34.8656074,38.447 Z M10.8005984,38.707 L5.52163565,44 L9.97878369,44 L9.97878369,46 L2.99734796,46 C2.44581454,46 2,45.552 2,45 L2,38 L3.99469592,38 L3.99469592,42.703 L9.39034839,37.293 L10.8005984,38.707 Z" id="Amazon-EFS_Icon_48_Squid"></path>
        </g>
    </g>
</svg>