<?xml version="1.0" encoding="UTF-8"?>
<svg width="48px" height="48px" viewBox="0 0 48 48" version="1.1" xmlns="http://www.w3.org/2000/svg" xmlns:xlink="http://www.w3.org/1999/xlink">
    <title>Icon-Resource/Storage/Res_Amazon-Elastic-Block-Store_Volume-GP3_48_Light</title>
    <g id="Icon-Resource/Storage/Res_Amazon-Elastic-Block-Store_Volume-GP3_48" stroke="none" stroke-width="1" fill="none" fill-rule="evenodd">
        <path d="M30.0089713,32.759 C29.3049713,32.759 28.6149713,32.612 27.9409713,32.319 L27.9409713,31.285 C28.7429713,31.556 29.4169713,31.692 29.9639713,31.692 C30.4809713,31.692 30.8809713,31.576 31.1609713,31.345 C31.4419713,31.114 31.5819713,30.786 31.5819713,30.361 C31.5819713,29.554 31.0729713,29.151 30.0549713,29.151 C29.7279713,29.151 29.3749713,29.173 28.9969713,29.217 L28.9969713,28.37 L31.1639713,26.016 L28.0509713,26.016 L28.0509713,24.971 L32.5939713,24.971 L32.5939713,25.972 L30.3059713,28.216 C30.4069713,28.209 30.5089713,28.205 30.6099713,28.205 C31.0379713,28.205 31.4259713,28.295 31.7729713,28.474 C32.1199713,28.654 32.3969713,28.909 32.6029713,29.239 C32.8099713,29.569 32.9129713,29.946 32.9129713,30.372 C32.9129713,30.834 32.7959713,31.245 32.5609713,31.604 C32.3259713,31.964 31.9889713,32.246 31.5489713,32.451 C31.1089713,32.656 30.5949713,32.759 30.0089713,32.759 L30.0089713,32.759 Z M22.9579713,28.271 C23.3609713,27.992 23.8009713,27.853 24.2779713,27.853 C24.7469713,27.853 25.0929713,28.009 25.3179713,28.321 C25.5409713,28.632 25.6529713,29.111 25.6529713,29.756 C25.6529713,30.409 25.5389713,30.894 25.3119713,31.214 C25.0849713,31.532 24.7359713,31.692 24.2669713,31.692 C23.8049713,31.692 23.3679713,31.549 22.9579713,31.263 L22.9579713,28.271 Z M22.9579713,32.11 C23.1709713,32.301 23.4199713,32.449 23.7059713,32.555 C23.9919713,32.662 24.2889713,32.715 24.5969713,32.715 C25.0809713,32.715 25.5029713,32.587 25.8619713,32.33 C26.2209713,32.073 26.4959713,31.719 26.6869713,31.268 C26.8779713,30.818 26.9729713,30.299 26.9729713,29.712 C26.9729713,28.832 26.7659713,28.132 26.3509713,27.611 C25.9369713,27.091 25.3819713,26.83 24.6849713,26.83 C24.3469713,26.83 24.0229713,26.892 23.7109713,27.017 C23.3999713,27.142 23.1149713,27.322 22.8589713,27.556 L22.7379713,26.995 L21.6599713,26.995 L21.6599713,34.86 L22.9579713,34.86 L22.9579713,32.11 Z M16.8029713,28.282 C17.0199713,27.989 17.3519713,27.842 17.7989713,27.842 C18.2319713,27.842 18.6389713,27.974 19.0199713,28.238 L19.0199713,31.054 C18.6309713,31.34 18.2199713,31.483 17.7879713,31.483 C16.9149713,31.483 16.4789713,30.867 16.4789713,29.635 C16.4789713,29.027 16.5869713,28.575 16.8029713,28.282 L16.8029713,28.282 Z M17.4029713,32.484 C18.0039713,32.484 18.5429713,32.279 19.0199713,31.868 L19.0199713,32.341 C19.0199713,32.913 18.8949713,33.325 18.6459713,33.578 C18.3969713,33.831 17.9969713,33.958 17.4469713,33.958 C16.9039713,33.958 16.2919713,33.844 15.6099713,33.617 L15.6099713,34.541 C16.2139713,34.842 16.8549713,34.992 17.5329713,34.992 C18.4249713,34.992 19.1119713,34.75 19.5939713,34.266 C20.0769713,33.782 20.3179713,33.096 20.3179713,32.209 L20.3179713,26.995 L19.2179713,26.995 L19.1079713,27.501 C18.6389713,27.054 18.0849713,26.83 17.4469713,26.83 C16.9779713,26.83 16.5709713,26.951 16.2259713,27.193 C15.8809713,27.435 15.6169713,27.77 15.4339713,28.199 C15.2509713,28.629 15.1589713,29.122 15.1589713,29.679 C15.1589713,30.53 15.3629713,31.21 15.7699713,31.719 C16.1759713,32.229 16.7209713,32.484 17.4029713,32.484 L17.4029713,32.484 Z M8.06897127,44 L40.0689713,44 L40.0689713,15 L8.06897127,15 L8.06897127,44 Z M41.0689713,13 L7.06897127,13 C6.51697127,13 6.06897127,13.448 6.06897127,14 L6.06897127,45 C6.06897127,45.552 6.51697127,46 7.06897127,46 L41.0689713,46 C41.6209713,46 42.0689713,45.552 42.0689713,45 L42.0689713,14 C42.0689713,13.448 41.6209713,13 41.0689713,13 L41.0689713,13 Z M13.5329713,4 L34.4679713,4.002 L38.9929713,10 L9.00697127,10 L13.5329713,4 Z M6.99997127,12 L40.9999713,12 C41.3799713,12 41.7259713,11.786 41.8949713,11.446 C42.0639713,11.107 42.0269713,10.701 41.7989713,10.398 L35.7649713,2.4 C35.5759713,2.15 35.2799713,2.002 34.9669713,2.002 L13.0349713,2 C12.7209713,2 12.4259713,2.148 12.2369713,2.398 L6.20197127,10.398 C5.97297127,10.701 5.93597127,11.107 6.10497127,11.446 C6.27397127,11.786 6.62097127,12 6.99997127,12 L6.99997127,12 Z" id="Fill-1" fill="#3F8624"></path>
    </g>
</svg>