<?xml version="1.0" encoding="UTF-8"?>
<svg width="48px" height="48px" viewBox="0 0 48 48" version="1.1" xmlns="http://www.w3.org/2000/svg" xmlns:xlink="http://www.w3.org/1999/xlink">
    <title>Icon-Resource/Storage/Res_Amazon-Elastic-File-System_Infrequent-Access_48_Light</title>
    <g id="Icon-Resource/Storage/Res_Amazon-Elastic-File-System_Infrequent-Access_48" stroke="none" stroke-width="1" fill="none" fill-rule="evenodd">
        <path d="M41,39.00025 L41,16.65425 C41,14.89425 40.109,13.00025 38.154,13.00025 L34.771,13.00025 C34.583,11.69425 34.126,9.52225 33.141,9.08625 C33.013,9.02925 32.875,9.00025 32.735,9.00025 L25.257,9.00025 C25.069,9.00025 24.885,9.05325 24.726,9.15325 C23.853,9.70025 23.528,11.74825 23.41,13.00025 L21,13.00025 L21,15.00025 L24.346,15.00025 C24.898,15.00025 25.346,14.55225 25.346,14.00025 C25.346,13.30725 25.575,11.70925 25.811,11.00025 L32.234,11.00025 C32.524,11.69825 32.885,13.37825 32.885,14.00025 C32.885,14.55225 33.332,15.00025 33.885,15.00025 L38.154,15.00025 C38.95,15.00025 39,16.64125 39,16.65425 L39,38.00025 L4,38.00025 L4,16.66425 C4.008,16.27325 4.166,15.00025 5.846,15.00025 L9,15.00025 L9,13.00025 L5.846,13.00025 C3.024,13.00025 2,15.18525 2,16.65425 L2,39.00025 C2,39.55225 2.447,40.00025 3,40.00025 L40,40.00025 C40.553,40.00025 41,39.55225 41,39.00025 L41,39.00025 Z M32,33.00025 C33.103,33.00025 34,32.10325 34,31.00025 C34,29.89725 33.103,29.00025 32,29.00025 C30.897,29.00025 30,29.89725 30,31.00025 C30,32.10325 30.897,33.00025 32,33.00025 L32,33.00025 Z M32,35.00025 C29.794,35.00025 28,33.20625 28,31.00025 C28,28.79425 29.794,27.00025 32,27.00025 C34.206,27.00025 36,28.79425 36,31.00025 C36,33.20625 34.206,35.00025 32,35.00025 L32,35.00025 Z M19.674,27.00025 L23.326,27.00025 L21.5,23.60925 L19.674,27.00025 Z M17.119,27.52625 L20.619,21.02625 C20.969,20.37825 22.031,20.37825 22.381,21.02625 L25.881,27.52625 C26.047,27.83625 26.039,28.21025 25.858,28.51325 C25.678,28.81525 25.352,29.00025 25,29.00025 L18,29.00025 C17.648,29.00025 17.322,28.81525 17.142,28.51325 C16.961,28.21025 16.953,27.83625 17.119,27.52625 L17.119,27.52625 Z M9,31.00025 L12,31.00025 L12,28.00025 L9,28.00025 L9,31.00025 Z M13,26.00025 C13.553,26.00025 14,26.44825 14,27.00025 L14,32.00025 C14,32.55225 13.553,33.00025 13,33.00025 L8,33.00025 C7.447,33.00025 7,32.55225 7,32.00025 L7,27.00025 C7,26.44825 7.447,26.00025 8,26.00025 L13,26.00025 Z M15,19.00025 C15.256,19.00025 15.512,18.90225 15.707,18.70725 L18.707,15.70725 L17.293,14.29325 L15,16.58625 L12.707,14.29325 L11.293,15.70725 L14.293,18.70725 C14.488,18.90225 14.744,19.00025 15,19.00025 L15,19.00025 Z M15,4.41425 L17.293,6.70725 L18.707,5.29325 L15.707,2.29325 C15.316,1.90225 14.684,1.90225 14.293,2.29325 L11.293,5.29325 L12.707,6.70725 L15,4.41425 Z M14,13.00025 L16,13.00025 L16,8.00025 L14,8.00025 L14,13.00025 Z M46,22.07425 L46,44.00025 C46,44.55225 45.553,45.00025 45,45.00025 L8,45.00025 C7.448,45.00025 7.001,44.55325 7,44.00125 L7,44.00025 L7,42.00025 L9,42.00025 L9,43.00025 L44,43.00025 L44,22.07425 C44,21.51025 43.542,21.02925 42.979,21.00125 L43.079,19.00425 C44.717,19.08525 46,20.43425 46,22.07425 L46,22.07425 Z" id="Fill-1" fill="#3F8624"></path>
    </g>
</svg>