<?xml version="1.0" encoding="UTF-8"?>
<svg width="48px" height="48px" viewBox="0 0 48 48" version="1.1" xmlns="http://www.w3.org/2000/svg" xmlns:xlink="http://www.w3.org/1999/xlink">
    <title>Icon-Resource/Storage/Res_Amazon-Elastic-File-System_One-Zone-Standard_48_Light</title>
    <g id="Icon-Resource/Storage/Res_Amazon-Elastic-File-System_One-Zone-Standard_48" stroke="none" stroke-width="1" fill="none" fill-rule="evenodd">
        <path d="M40,9 C40,8.449 39.552,8 39,8 C38.448,8 38,8.449 38,9 C38,9.551 38.448,10 39,10 C39.552,10 40,9.551 40,9 L40,9 Z M42,9 C42,10.654 40.654,12 39,12 C37.346,12 36,10.654 36,9 C36,7.346 37.346,6 39,6 C40.654,6 42,7.346 42,9 L42,9 Z M43.992,8.833 C44.061,7.55 43.659,6.411 42.833,5.54 C41.904,4.561 40.508,4 39,4 C37.581,4 36.215,4.58 35.251,5.592 C34.39,6.496 33.947,7.648 34.005,8.837 C34.121,11.234 37.104,15.242 38.933,17.405 C39.405,16.769 40.074,15.875 40.854,14.861 L41.35,14.2 C42.047,13.247 42.624,12.349 43.057,11.539 L43.354,10.95 C43.744,10.126 43.962,9.406 43.992,8.833 L43.992,8.833 Z M45.99,8.938 C45.945,9.785 45.671,10.73 45.151,11.828 L44.837,12.45 C44.834,12.457 44.83,12.464 44.826,12.471 C44.349,13.367 43.72,14.349 42.956,15.391 L42.446,16.07 C40.913,18.066 39.813,19.583 39.81,19.587 C39.633,19.83 39.356,19.981 39.058,19.999 C39.038,20 39.019,20 39,20 C38.721,20 38.453,19.883 38.263,19.676 C37.644,19 32.202,12.958 32.007,8.934 C31.923,7.193 32.561,5.517 33.803,4.212 C35.143,2.807 37.037,2 39,2 C41.054,2 42.979,2.789 44.283,4.163 C45.497,5.442 46.087,7.094 45.99,8.938 L45.99,8.938 Z M14.885,18 C14.885,17.488 15.273,15.695 15.575,15 L21.854,15 C22.103,15.71 22.346,17.408 22.346,18 C22.346,18.552 22.793,19 23.346,19 L25,19 L25,17 L24.285,17 C24.155,15.614 23.755,13.252 22.524,13.018 C22.463,13.006 22.399,13 22.337,13 L15.158,13 C13.779,13 13.209,15.541 12.997,17 L12,17 L12,19 L13.885,19 C14.438,19 14.885,18.552 14.885,18 L14.885,18 Z M31,19 L35,19 L35,17 L31,17 L31,19 Z M42.592,19.592 C42.858,19.956 43,20.511 43,21.199 L43,44 L4,44 L4,21.199 C4,19.555 4.544,19 6.154,19 L6.154,17 C3.437,17 2,18.452 2,21.199 L2,45 C2,45.552 2.447,46 3,46 L44,46 C44.553,46 45,45.552 45,45 L45,21.199 C45,20.066 44.731,19.127 44.203,18.408 L42.592,19.592 Z M33,37.5 C33,38.878 34.121,40 35.5,40 C36.879,40 38,38.878 38,37.5 C38,36.122 36.879,35 35.5,35 C34.121,35 33,36.122 33,37.5 L33,37.5 Z M35.5,33 C37.981,33 40,35.019 40,37.5 C40,39.981 37.981,42 35.5,42 C33.019,42 31,39.981 31,37.5 C31,35.019 33.019,33 35.5,33 L35.5,33 Z M25.342,36 L23.476,32.463 L21.645,36 L25.342,36 Z M24.353,29.838 L27.885,36.533 C28.048,36.843 28.037,37.216 27.856,37.517 C27.676,37.816 27.351,38 27,38 L20,38 C19.651,38 19.327,37.818 19.146,37.52 C18.964,37.221 18.951,36.85 19.112,36.54 L22.58,29.845 C22.751,29.514 23.092,29.306 23.464,29.305 L23.468,29.305 C23.839,29.305 24.179,29.51 24.353,29.838 L24.353,29.838 Z M10,40 L14,40 L14,36 L10,36 L10,40 Z M15,34 C15.553,34 16,34.448 16,35 L16,41 C16,41.552 15.553,42 15,42 L9,42 C8.447,42 8,41.552 8,41 L8,35 C8,34.448 8.447,34 9,34 L15,34 Z M24.293,22.707 L27.293,25.707 C27.488,25.902 27.744,26 28,26 C28.256,26 28.512,25.902 28.707,25.707 L31.707,22.707 L30.293,21.293 L29,22.586 L29,13 L27,13 L27,22.586 L25.707,21.293 L24.293,22.707 Z M18,5.415 L18,11 L20,11 L20,5.414 L21.293,6.707 L22.707,5.293 L19.708,2.293 C19.521,2.105 19.267,2 19.001,2 C18.735,2 18.481,2.105 18.294,2.293 L15.293,5.293 L16.707,6.707 L18,5.415 Z M6.707,22.293 L8,23.586 L8,16 L10,16 L10,23.586 L11.293,22.293 L12.707,23.707 L9.707,26.707 C9.512,26.902 9.256,27 9,27 C8.744,27 8.488,26.902 8.293,26.707 L5.293,23.707 L6.707,22.293 Z" id="Fill-1" fill="#3F8624"></path>
    </g>
</svg>