<?xml version="1.0" encoding="UTF-8"?>
<svg width="48px" height="48px" viewBox="0 0 48 48" version="1.1" xmlns="http://www.w3.org/2000/svg" xmlns:xlink="http://www.w3.org/1999/xlink">
    <title>Icon-Resource/Storage/Res_Amazon-Elastic-File-System_Standard_48_Light</title>
    <g id="Icon-Resource/Storage/Res_Amazon-Elastic-File-System_Standard_48" stroke="none" stroke-width="1" fill="none" fill-rule="evenodd">
        <path d="M41,40 L41,17.654 C41,15.894 40.109,14 38.154,14 L36,14 L36,16 L38.154,16 C38.95,16 39,17.641 39,17.654 L39,39 L4,39 L4,17.664 C4.008,17.273 4.166,16 5.846,16 L7,16 L7,14 L5.846,14 C3.024,14 2,16.185 2,17.654 L2,40 C2,40.552 2.447,41 3,41 L40,41 C40.553,41 41,40.552 41,40 L41,40 Z M25.347,15 C25.347,14.307 25.576,12.71 25.812,12 L30,12 L30,10 L25.257,10 C25.068,10 24.885,10.053 24.726,10.153 C23.853,10.701 23.528,12.748 23.411,14 L13,14 L13,16 L24.347,16 C24.899,16 25.347,15.552 25.347,15 L25.347,15 Z M24,33 C24,34.103 24.897,35 26,35 C27.103,35 28,34.103 28,33 C28,31.897 27.103,31 26,31 C24.897,31 24,31.897 24,33 L24,33 Z M22,33 C22,30.794 23.794,29 26,29 C28.206,29 30,30.794 30,33 C30,35.206 28.206,37 26,37 C23.794,37 22,35.206 22,33 L22,33 Z M26.437,25 L24.611,21.609 L22.785,25 L26.437,25 Z M28.111,27 L21.111,27 C20.76,27 20.434,26.815 20.253,26.513 C20.072,26.21 20.064,25.836 20.23,25.526 L23.73,19.026 C24.08,18.378 25.143,18.378 25.492,19.026 L28.992,25.526 C29.158,25.836 29.15,26.21 28.97,26.513 C28.789,26.815 28.463,27 28.111,27 L28.111,27 Z M12,32 L15,32 L15,29 L12,29 L12,32 Z M16,27 C16.553,27 17,27.448 17,28 L17,33 C17,33.552 16.553,34 16,34 L11,34 C10.447,34 10,33.552 10,33 L10,28 C10,27.448 10.447,27 11,27 L16,27 Z M43.079,20.004 L42.979,22.001 C43.542,22.029 44,22.51 44,23.074 L44,44 L9,44 L9,43 L7,43 L7,45 L7,45.001 C7.001,45.553 7.448,46 8,46 L45,46 C45.553,46 46,45.552 46,45 L46,23.074 C46,21.434 44.717,20.085 43.079,20.004 L43.079,20.004 Z M20,5.401 L20,12 L22,12 L22,5.427 L23.296,6.71 L24.704,5.29 L21.675,2.29 C21.487,2.104 21.234,2 20.971,2 L20.966,2 C20.7,2.001 20.446,2.108 20.26,2.296 L17.289,5.296 L18.711,6.704 L20,5.401 Z M6.283,18.697 L9.269,21.767 C9.456,21.959 9.714,22.069 9.982,22.069 L9.985,22.069 C10.254,22.069 10.511,21.961 10.699,21.77 L13.714,18.701 L12.286,17.299 L11,18.609 L11,10 L9,10 L9,18.622 L7.717,17.303 L6.283,18.697 Z M30.707,17.293 L32,18.586 L32,10 L34,10 L34,18.586 L35.293,17.293 L36.707,18.707 L33.707,21.707 C33.512,21.902 33.256,22 33,22 C32.744,22 32.488,21.902 32.293,21.707 L29.293,18.707 L30.707,17.293 Z" id="Fill-1" fill="#3F8624"></path>
    </g>
</svg>