<?xml version="1.0" encoding="UTF-8"?>
<svg width="48px" height="48px" viewBox="0 0 48 48" version="1.1" xmlns="http://www.w3.org/2000/svg" xmlns:xlink="http://www.w3.org/1999/xlink">
    <title>Icon-Resource/Storage/Res_Amazon-Elastic-File-System_Intelligent-Tiering_48_Light</title>
    <g id="Icon-Resource/Storage/Res_Amazon-Elastic-File-System_Intelligent-Tiering_48" stroke="none" stroke-width="1" fill="none" fill-rule="evenodd">
        <path d="M21.954,12.8 C21.954,14.33 20.71,15.574 19.18,15.574 C17.649,15.574 16.405,14.33 16.405,12.8 C16.405,11.27 17.649,10.026 19.18,10.026 C20.71,10.026 21.954,11.27 21.954,12.8 L21.954,12.8 Z M23.954,12.8 C23.954,10.167 21.812,8.026 19.18,8.026 C16.547,8.026 14.405,10.167 14.405,12.8 C14.405,15.433 16.547,17.574 19.18,17.574 C21.812,17.574 23.954,15.433 23.954,12.8 L23.954,12.8 Z M18.147,19.092 L17.405,18.895 C16.883,18.756 16.492,18.54 15.998,18.25 L15.329,17.858 L14.129,19.066 L12.894,17.822 L13.557,17.155 L14.047,16.527 L13.664,15.864 C13.383,15.378 13.197,15.055 13.071,14.578 L12.876,13.832 L11.18,13.832 L11.18,11.768 L12.888,11.768 L13.085,11.024 C13.225,10.493 13.451,10.085 13.73,9.607 L14.121,8.939 L12.912,7.735 L14.156,6.496 L14.822,7.159 L15.439,7.658 L16.103,7.273 C16.596,6.988 16.921,6.799 17.402,6.672 L18.147,6.475 L18.147,4.8 L20.212,4.8 L20.212,6.5 L20.953,6.698 C21.422,6.824 21.74,7.012 22.296,7.34 L22.968,7.737 L24.153,6.535 L25.366,7.764 L24.176,8.97 L24.554,9.629 C24.844,10.137 25.055,10.503 25.189,11.021 L25.386,11.768 L27.18,11.768 L27.18,13.832 L25.47,13.832 L25.272,14.575 C25.142,15.071 24.951,15.408 24.627,15.963 L24.236,16.632 L25.444,17.833 L24.199,19.07 L22.987,17.866 L22.236,18.301 C21.753,18.582 21.433,18.768 20.958,18.893 L20.212,19.089 L20.212,20.8 L18.147,20.8 L18.147,19.092 Z M22.212,21.425 L22.212,20.571 C22.368,20.505 22.516,20.433 22.658,20.358 L23.228,20.925 C23.763,21.459 24.633,21.459 25.169,20.926 L27.301,18.808 C27.562,18.548 27.706,18.201 27.706,17.832 C27.706,17.464 27.562,17.117 27.301,16.857 L26.734,16.295 C26.81,16.147 26.884,15.994 26.952,15.832 L27.805,15.832 C28.562,15.832 29.18,15.216 29.18,14.457 L29.18,11.143 C29.18,10.384 28.562,9.768 27.805,9.768 L26.873,9.768 C26.806,9.605 26.733,9.452 26.657,9.303 L27.224,8.729 C27.747,8.197 27.747,7.332 27.223,6.799 L25.131,4.678 C24.87,4.415 24.522,4.27 24.152,4.27 L24.15,4.27 C23.779,4.271 23.433,4.416 23.174,4.679 L22.632,5.229 C22.497,5.158 22.358,5.09 22.212,5.026 L22.212,4.175 C22.212,3.417 21.595,2.8 20.837,2.8 L17.522,2.8 C16.765,2.8 16.147,3.417 16.147,4.175 L16.147,4.994 C15.993,5.06 15.845,5.132 15.698,5.208 L15.129,4.641 C14.612,4.121 13.701,4.123 13.186,4.639 L11.057,6.76 C10.795,7.02 10.651,7.366 10.651,7.735 C10.651,8.104 10.795,8.45 11.056,8.709 L11.627,9.278 C11.548,9.435 11.473,9.597 11.402,9.768 L10.555,9.768 C9.797,9.768 9.18,10.384 9.18,11.143 L9.18,14.457 C9.18,15.216 9.797,15.832 10.555,15.832 L11.393,15.832 C11.459,15.986 11.53,16.134 11.607,16.28 L11.036,16.855 C10.509,17.387 10.509,18.255 11.038,18.791 L13.152,20.92 C13.674,21.445 14.587,21.446 15.104,20.921 L15.668,20.354 C15.822,20.433 15.98,20.507 16.147,20.576 L16.147,21.425 C16.147,22.183 16.765,22.8 17.522,22.8 L20.837,22.8 C21.595,22.8 22.212,22.183 22.212,21.425 L22.212,21.425 Z M41,39.98 L41,17.633 C41,15.874 40.109,13.98 38.154,13.98 L34.771,13.98 C34.583,12.674 34.126,10.502 33.141,10.066 C33.013,10.009 32.875,9.98 32.735,9.98 L31,9.98 L31,11.98 L32.234,11.98 C32.524,12.678 32.885,14.358 32.885,14.98 C32.885,15.532 33.332,15.98 33.885,15.98 L38.154,15.98 C38.95,15.98 39,17.621 39,17.633 L39,38.98 L4,38.98 L4,17.643 C4.008,17.253 4.166,15.98 5.846,15.98 L7,15.98 L7,13.98 L5.846,13.98 C3.024,13.98 2,16.165 2,17.633 L2,39.98 C2,40.532 2.447,40.98 3,40.98 L40,40.98 C40.553,40.98 41,40.532 41,39.98 L41,39.98 Z M35,32.98 C35,34.083 34.102,34.98 33,34.98 C31.897,34.98 31,34.083 31,32.98 C31,31.877 31.897,30.98 33,30.98 C34.102,30.98 35,31.877 35,32.98 L35,32.98 Z M37,32.98 C37,30.774 35.206,28.98 33,28.98 C30.794,28.98 29,30.774 29,32.98 C29,35.185 30.794,36.98 33,36.98 C35.206,36.98 37,35.185 37,32.98 L37,32.98 Z M21.5,27.589 L23.326,30.98 L19.674,30.98 L21.5,27.589 Z M25.858,32.492 C26.039,32.19 26.047,31.816 25.881,31.506 L22.381,25.006 C22.031,24.358 20.969,24.358 20.619,25.006 L17.119,31.506 C16.953,31.816 16.961,32.19 17.142,32.492 C17.322,32.795 17.648,32.98 18,32.98 L25,32.98 C25.351,32.98 25.678,32.795 25.858,32.492 L25.858,32.492 Z M8,34.98 L11,34.98 L11,31.98 L8,31.98 L8,34.98 Z M13,35.98 L13,30.98 C13,30.427 12.553,29.98 12,29.98 L7,29.98 C6.447,29.98 6,30.427 6,30.98 L6,35.98 C6,36.532 6.447,36.98 7,36.98 L12,36.98 C12.553,36.98 13,36.532 13,35.98 L13,35.98 Z M45,45.98 L8,45.98 C7.448,45.98 7.001,45.533 7,44.981 L7,44.98 L7,42.98 L9,42.98 L9,43.98 L44,43.98 L44,23.053 C44,22.49 43.542,22.009 42.979,21.981 L43.079,19.984 C44.717,20.065 46,21.413 46,23.053 L46,44.98 C46,45.532 45.553,45.98 45,45.98 L45,45.98 Z" id="Fill-1" fill="#3F8624"></path>
    </g>
</svg>