<?xml version="1.0" encoding="UTF-8"?>
<svg width="64px" height="64px" viewBox="0 0 64 64" version="1.1" xmlns="http://www.w3.org/2000/svg" xmlns:xlink="http://www.w3.org/1999/xlink">
    <title>Icon-Architecture/48/Arch_Amazon-FSx-for-NetApp_Storage_48</title>
    <defs>
        <linearGradient x1="0%" y1="100%" x2="100%" y2="0%" id="linearGradient-1">
            <stop stop-color="#1B660F" offset="0%"></stop>
            <stop stop-color="#6CAE3E" offset="100%"></stop>
        </linearGradient>
    </defs>
    <g id="Icon-Architecture/48/Arch_Amazon-FSx-for-NetApp_Storage_48" stroke="none" stroke-width="1" fill="none" fill-rule="evenodd">
        <g id="Rectangle" fill="url(#linearGradient-1)">
            <rect x="0" y="0" width="64" height="64"></rect>
        </g>
        <g id="Icon-Service/48/Amazon-FSx-for-NetApp_48" transform="translate(8.000000, 8.000000)" fill="#FFFFFF">
            <path d="M39.292,40.325 C39.713,40.197 40,39.808 40,39.368 L40,30.845 L38,30.845 L38,36.091 L34.83,31.379 C34.584,31.014 34.129,30.852 33.708,30.98 C33.287,31.109 33,31.497 33,31.937 L33,39.845 L35,39.845 L35,35.215 L38.17,39.927 C38.359,40.208 38.674,40.368 39,40.368 C39.097,40.368 39.195,40.354 39.292,40.325 L39.292,40.325 Z M25.127,24.95 L25.901,26.043 L23.035,30.229 L21.317,30.229 L25.127,24.95 Z M27.563,23.822 L28.919,25.752 C28.657,26.298 28.454,26.87 28.327,27.467 L25.861,23.933 L26.728,22.732 L29.97,18.104 L31.664,18.104 L27.563,23.822 Z M25.106,22.907 L21.698,18.104 L23.486,18.104 L26.009,21.705 L25.106,22.907 Z M19.903,24.1 C20.372,24.676 20.607,25.398 20.607,26.266 C20.607,27.532 20.141,28.556 19.209,29.339 C18.277,30.121 17.05,30.512 15.528,30.512 C13.949,30.512 12.541,30.213 11.303,29.616 L11.303,28.528 C12.797,29.068 14.17,29.339 15.422,29.339 C16.602,29.339 17.545,29.061 18.249,28.506 C18.953,27.952 19.305,27.198 19.305,26.245 C19.305,25.661 19.113,25.164 18.729,24.751 C18.345,24.339 17.726,23.969 16.873,23.641 L14.397,22.681 C13.302,22.255 12.499,21.746 11.986,21.156 C11.474,20.565 11.218,19.836 11.218,18.968 C11.218,17.788 11.641,16.831 12.488,16.099 C13.334,15.366 14.447,15 15.827,15 C16.453,15 17.111,15.074 17.801,15.224 C18.491,15.373 19.141,15.583 19.753,15.853 L19.753,16.941 C18.302,16.429 17.015,16.173 15.891,16.173 C14.796,16.173 13.956,16.412 13.373,16.888 C12.79,17.365 12.499,18.044 12.499,18.926 C12.499,19.424 12.587,19.826 12.765,20.131 C12.943,20.437 13.235,20.715 13.64,20.964 C14.045,21.213 14.625,21.479 15.379,21.764 L17.662,22.639 C18.686,23.037 19.433,23.524 19.903,24.1 L19.903,24.1 Z M2,30.149 L3.259,30.149 L3.259,23.279 L9.212,23.279 L9.212,22.148 L3.259,22.148 L3.259,16.493 L10.3,16.493 L10.3,15.362 L2,15.362 L2,30.149 Z M42.266,36.352 L42.104,34.359 C42.404,34.329 43.945,34.089 43.945,32.349 C43.945,30.869 42.782,30.449 42.089,30.329 C41.827,30.284 41.594,30.136 41.44,29.919 C41.312,29.736 41.249,29.515 41.26,29.294 C41.2,28.685 40.949,28.261 40.581,28.154 C40.302,28.071 40.009,28.186 39.814,28.449 C39.596,28.745 39.232,28.901 38.862,28.843 C38.497,28.788 38.19,28.536 38.067,28.187 C37.851,27.571 37.54,27.058 37.145,26.66 C36.668,26.183 35.364,25.154 33.521,25.936 C32.488,26.373 31.647,27.692 31.647,28.875 C31.647,29.012 31.655,29.147 31.672,29.279 C31.731,29.777 31.412,30.242 30.926,30.367 C29.918,30.624 29.406,31.283 29.406,32.324 C29.406,32.416 29.409,32.504 29.418,32.589 C29.51,33.572 30.408,34.343 31.462,34.344 L31.46,36.344 C29.386,36.342 27.613,34.774 27.426,32.776 C27.413,32.631 27.406,32.48 27.406,32.324 C27.406,30.655 28.23,29.349 29.65,28.701 C29.726,26.777 31.029,24.819 32.742,24.094 C34.797,23.223 36.973,23.656 38.561,25.249 C38.877,25.566 39.156,25.926 39.396,26.325 C39.94,26.1 40.55,26.06 41.143,26.234 C41.955,26.471 42.849,27.198 43.16,28.541 C44.611,29.021 45.945,30.21 45.945,32.349 C45.945,35.279 43.538,36.248 42.266,36.352 L42.266,36.352 Z" id="Fill-3"></path>
        </g>
    </g>
</svg>