<?xml version="1.0" encoding="UTF-8"?>
<svg width="64px" height="64px" viewBox="0 0 64 64" version="1.1" xmlns="http://www.w3.org/2000/svg" xmlns:xlink="http://www.w3.org/1999/xlink">
    <title>Icon-Architecture/48/Arch_Amazon-FSx-for-WFS_48</title>
    <defs>
        <linearGradient x1="0%" y1="100%" x2="100%" y2="0%" id="linearGradient-1">
            <stop stop-color="#1B660F" offset="0%"></stop>
            <stop stop-color="#6CAE3E" offset="100%"></stop>
        </linearGradient>
    </defs>
    <g id="Icon-Architecture/48/Arch_Amazon-FSx-for-WFS_48" stroke="none" stroke-width="1" fill="none" fill-rule="evenodd">
        <g id="Rectangle" fill="url(#linearGradient-1)">
            <rect x="0" y="0" width="64" height="64"></rect>
        </g>
        <g id="Icon-Service/48/Amazon-FSx-for-WFS_48" transform="translate(7.853500, 8.000000)" fill="#FFFFFF">
            <path d="M2,15.429 L11.458,15.429 L11.458,16.765 L3.435,16.765 L3.435,23.447 L10.218,23.447 L10.218,24.783 L3.435,24.783 L3.435,32.902 L2,32.902 L2,15.429 Z M22.399,25.754 C22.935,26.435 23.202,27.288 23.202,28.313 C23.202,29.81 22.671,31.02 21.609,31.944 C20.548,32.869 19.149,33.331 17.415,33.331 C15.616,33.331 14.012,32.978 12.602,32.272 L12.602,30.986 C14.303,31.625 15.867,31.944 17.294,31.944 C18.639,31.944 19.713,31.616 20.516,30.961 C21.317,30.305 21.719,29.414 21.719,28.288 C21.719,27.599 21.5,27.011 21.062,26.523 C20.625,26.036 19.92,25.599 18.947,25.212 L16.127,24.077 C14.878,23.573 13.963,22.972 13.379,22.275 C12.796,21.577 12.504,20.716 12.504,19.69 C12.504,18.295 12.986,17.165 13.951,16.299 C14.915,15.433 16.184,15 17.756,15 C18.469,15 19.219,15.089 20.005,15.265 C20.791,15.442 21.532,15.69 22.229,16.009 L22.229,17.295 C20.576,16.69 19.109,16.387 17.828,16.387 C16.58,16.387 15.624,16.669 14.96,17.232 C14.295,17.795 13.963,18.597 13.963,19.64 C13.963,20.228 14.063,20.703 14.267,21.064 C14.469,21.426 14.802,21.754 15.264,22.048 C15.726,22.342 16.386,22.657 17.245,22.993 L19.847,24.027 C21.014,24.498 21.865,25.074 22.399,25.754 L22.399,25.754 Z M28.353,26.759 L29.234,28.05 L25.969,32.996 L24.011,32.996 L28.353,26.759 Z M31.128,25.425 L33,28.187 L33,31.219 L29.189,25.557 L30.177,24.137 L33.871,18.669 L35.801,18.669 L31.128,25.425 Z M28.329,24.345 L24.445,18.669 L26.483,18.669 L29.357,22.924 L28.329,24.345 Z M37,32 L44.001,32 L44.001,31 L37,31 L37,32 Z M38,29 L43,29 L43,26 L38,26 L38,29 Z M45,29 L45,25 C45,24.448 44.553,24 44,24 L37,24 C36.447,24 36,24.448 36,25 L36,29 C35.447,29 35,29.448 35,30 L35,32 C35,33.103 35.897,34 37,34 L44,34 C45.103,34 46,33.103 46,32 L46,30 C46,29.448 45.553,29 45,29 L45,29 Z" id="Amazon-FSx-for-WFS_Icon_48_Squid"></path>
        </g>
    </g>
</svg>