<?xml version="1.0" encoding="UTF-8"?>
<svg width="64px" height="64px" viewBox="0 0 64 64" version="1.1" xmlns="http://www.w3.org/2000/svg" xmlns:xlink="http://www.w3.org/1999/xlink">
    <title>Icon-Architecture/48/Arch_Amazon-FSx_OpenZFS_48</title>
    <defs>
        <linearGradient x1="0%" y1="100%" x2="100%" y2="0%" id="linearGradient-1">
            <stop stop-color="#1B660F" offset="0%"></stop>
            <stop stop-color="#6CAE3E" offset="100%"></stop>
        </linearGradient>
    </defs>
    <g id="Icon-Architecture/48/Arch_Amazon-FSx_OpenZFS_48" stroke="none" stroke-width="1" fill="none" fill-rule="evenodd">
        <g id="Rectangle" fill="url(#linearGradient-1)">
            <rect x="0" y="0" width="64" height="64"></rect>
        </g>
        <g id="Icon-Service/48/Amazon-FSx_OpenZFS_48" transform="translate(8.000000, 8.000000)" fill="#FFFFFF">
            <path d="M36,27.965 L36,25.985 L28,25.985 L28,27.985 L33.333,27.985 L28,33.985 L28,35.985 L36,35.985 L36,33.985 L30.682,33.985 L36,27.965 Z M17.603,19.733 L15.357,18.871 C14.631,18.597 14.063,18.337 13.671,18.097 C13.296,17.867 13.025,17.609 12.862,17.331 C12.7,17.053 12.62,16.679 12.62,16.219 C12.62,15.391 12.883,14.773 13.427,14.33 C13.969,13.885 14.771,13.661 15.809,13.661 C16.891,13.661 18.153,13.911 19.556,14.407 L19.754,14.477 L19.754,13.101 L19.666,13.062 C19.056,12.793 18.402,12.582 17.718,12.434 C17.034,12.286 16.37,12.21 15.746,12.21 C14.359,12.21 13.221,12.586 12.366,13.327 C11.503,14.074 11.064,15.061 11.064,16.261 C11.064,17.147 11.332,17.903 11.856,18.509 C12.374,19.105 13.191,19.623 14.286,20.05 L16.72,20.994 C17.537,21.307 18.131,21.662 18.491,22.048 C18.841,22.423 19.018,22.884 19.018,23.416 C19.018,24.314 18.697,25.003 18.035,25.524 C17.374,26.046 16.47,26.31 15.348,26.31 C14.138,26.31 12.793,26.046 11.347,25.523 L11.149,25.451 L11.149,26.824 L11.234,26.864 C12.466,27.459 13.885,27.761 15.451,27.761 C16.976,27.761 18.228,27.36 19.166,26.572 C20.113,25.776 20.594,24.721 20.594,23.437 C20.594,22.554 20.35,21.805 19.869,21.214 C19.393,20.63 18.631,20.132 17.603,19.733 L17.603,19.733 Z M20.855,27.482 L22.911,27.482 L25.773,23.302 L25.833,23.217 L24.893,21.89 L20.855,27.482 Z M2,27.404 L3.534,27.404 L3.534,20.648 L9.388,20.648 L9.388,19.24 L3.534,19.24 L3.534,13.975 L10.459,13.975 L10.459,12.567 L2,12.567 L2,27.404 Z M27.417,23.985 L29.541,23.985 L27.467,21.035 L31.608,15.263 L29.576,15.263 L26.346,19.875 L25.433,21.142 L27.417,23.985 Z M25.94,18.955 L23.355,15.263 L21.232,15.263 L24.866,20.384 L25.94,18.955 Z M38,27.985 L42,27.985 L42,25.985 L38,25.985 L38,27.985 Z M38,35.985 L42,35.985 L42,33.985 L38,33.985 L38,35.985 Z M38,31.985 L46,31.985 L46,29.985 L38,29.985 L38,31.985 Z" id="Fill-3"></path>
        </g>
    </g>
</svg>