<?xml version="1.0" encoding="UTF-8"?>
<svg width="48px" height="48px" viewBox="0 0 48 48" version="1.1" xmlns="http://www.w3.org/2000/svg" xmlns:xlink="http://www.w3.org/1999/xlink">
    <title>Icon-Resource/Storage/Res_Amazon-S3-Storage-Lens_48_Light</title>
    <g id="Icon-Resource/Storage/Res_Amazon-S3-Storage-Lens_48" stroke="none" stroke-width="1" fill="none" fill-rule="evenodd">
        <path d="M10.604,25.036 L10.604,23.036 C13.781,23.036 16.365,25.62 16.365,28.797 L14.365,28.797 C14.365,26.723 12.677,25.036 10.604,25.036 M40.813,26.016 L41.097,24.266 C43.145,25.466 43.771,26.158 43.956,26.453 C43.641,26.513 42.789,26.537 40.813,26.016 M23.641,13.481 C13.299,13.481 6.293,11.012 5.779,9.228 L5.75,9.019 C5.889,7.227 13.227,4 23.641,4 C34.056,4 41.395,7.227 41.534,9.019 L41.505,9.228 C40.991,11.012 33.984,13.481 23.641,13.481 M17,28.5 C17,32.084 14.083,35 10.5,35 C6.916,35 4,32.084 4,28.5 C4,24.916 6.916,22 10.5,22 C14.083,22 17,24.916 17,28.5 M45.999,26.249 C45.774,25.051 44.36,23.785 41.438,22.16 L43.471,9.619 C43.473,9.61 43.469,9.6 43.47,9.591 L43.475,9.591 L43.527,9.203 C43.533,9.159 43.536,9.115 43.536,9.071 C43.536,4.904 33.051,2 23.641,2 C14.232,2 3.749,4.904 3.749,9.071 C3.749,9.115 3.751,9.159 3.757,9.203 L3.809,9.591 L3.82,9.59 C3.823,9.612 3.815,9.634 3.82,9.656 L6.142,21.216 C3.666,22.703 2,25.407 2,28.5 C2,33.187 5.813,37 10.5,37 C11.498,37 12.453,36.818 13.343,36.5 L18.108,45.665 L19.883,44.743 L15.138,35.614 C17.459,34.095 19,31.476 19,28.5 C19,23.813 15.186,20 10.5,20 C9.634,20 8.8,20.132 8.013,20.373 L6.414,12.411 C10.094,14.435 17.034,15.481 23.641,15.481 C30.33,15.481 37.359,14.41 41.004,12.336 L38.88,25.441 C34.419,23.991 28.708,21.397 25.988,20.12 C25.99,20.079 26,20.041 26,20 C26,18.897 25.102,18 24,18 C22.897,18 22,18.897 22,20 C22,21.103 22.897,22 24,22 C24.308,22 24.597,21.924 24.858,21.799 C27.901,23.236 33.885,25.956 38.556,27.439 L36.35,41.046 C35.918,41.636 32.515,44.051 23.641,44.051 L23.641,46.051 C32.912,46.051 38.122,43.317 38.327,41.355 L40.492,27.997 C41.731,28.316 42.74,28.485 43.528,28.485 C44.518,28.485 45.186,28.233 45.611,27.726 C45.96,27.309 46.098,26.785 45.999,26.249" id="Fill-1" fill="#3F8624"></path>
    </g>
</svg>