<?xml version="1.0" encoding="UTF-8"?>
<svg width="48px" height="48px" viewBox="0 0 48 48" version="1.1" xmlns="http://www.w3.org/2000/svg" xmlns:xlink="http://www.w3.org/1999/xlink">
    <title>Icon-Resource/Storage/Res_Amazon-Simple-Storage-Service_S3-Object-Lambda_48_Light</title>
    <g id="Icon-Resource/Storage/Res_Amazon-Simple-Storage-Service_S3-Object-Lambda_48" stroke="none" stroke-width="1" fill="none" fill-rule="evenodd">
        <path d="M36.128,31.9852352 L36.169,31.6732352 C36.42,31.8382352 36.626,31.9842352 36.78,32.1062352 C36.603,32.0812352 36.386,32.0422352 36.128,31.9852352 L36.128,31.9852352 Z M31.556,42.8602352 C31.065,43.0542352 30.482,43.2292352 29.823,43.3812352 C28.107,43.7772352 26.001,43.9962352 23.891,43.9962352 C18.745,43.9962352 15.337,42.7672352 15.042,42.2142352 C15.042,42.1692352 15.039,42.1242352 15.033,42.0802352 L12.525,23.4592352 C12.553,23.4712352 12.586,23.4822352 12.613,23.4942352 C12.935,23.6442352 13.277,23.7842352 13.643,23.9142352 C13.721,23.9432352 13.806,23.9672352 13.886,23.9942352 C14.192,24.0972352 14.51,24.1942352 14.839,24.2852352 C14.956,24.3172352 15.073,24.3492352 15.193,24.3802352 C15.578,24.4792352 15.973,24.5712352 16.378,24.6542352 C16.408,24.6612352 16.438,24.6682352 16.468,24.6742352 C16.905,24.7622352 17.355,24.8392352 17.807,24.9092352 C17.934,24.9292352 18.061,24.9472352 18.189,24.9652352 C18.551,25.0182352 18.913,25.0652352 19.276,25.1072352 C19.382,25.1192352 19.485,25.1322352 19.59,25.1442352 C20.043,25.1922352 20.494,25.2332352 20.94,25.2662352 C21.039,25.2732352 21.134,25.2782352 21.232,25.2842352 C21.593,25.3092352 21.946,25.3282352 22.296,25.3422352 C22.416,25.3472352 22.535,25.3522352 22.653,25.3562352 C23.078,25.3702352 23.495,25.3802352 23.891,25.3802352 C24.357,25.3802352 24.827,25.3692352 25.299,25.3542352 C25.432,25.3492352 25.565,25.3432352 25.698,25.3382352 C26.065,25.3222352 26.43,25.3022352 26.795,25.2782352 C26.916,25.2702352 27.036,25.2632352 27.157,25.2542352 C27.627,25.2182352 28.095,25.1752352 28.557,25.1242352 C28.63,25.1152352 28.7,25.1052352 28.773,25.0962352 C29.164,25.0502352 29.551,24.9982352 29.932,24.9402352 C30.061,24.9212352 30.188,24.9012352 30.316,24.8802352 C30.677,24.8202352 31.031,24.7552352 31.379,24.6852352 C31.464,24.6682352 31.552,24.6522352 31.636,24.6342352 C32.054,24.5462352 32.456,24.4482352 32.846,24.3422352 C32.939,24.3172352 33.026,24.2892352 33.118,24.2632352 C33.417,24.1772352 33.704,24.0872352 33.982,23.9902352 C34.086,23.9542352 34.19,23.9182352 34.29,23.8812352 C34.603,23.7642352 34.9,23.6422352 35.177,23.5112352 C35.201,23.5002352 35.232,23.4902352 35.257,23.4782352 L34.19,31.4362352 C31.363,30.5082352 27.803,28.9092352 25.898,28.0222352 C25.695,27.4332352 25.142,27.0072352 24.485,27.0072352 C23.658,27.0072352 22.985,27.6802352 22.985,28.5072352 C22.985,29.3342352 23.658,30.0072352 24.485,30.0072352 C24.711,30.0072352 24.923,29.9532352 25.115,29.8632352 C27.305,30.8842352 30.999,32.5312352 33.92,33.4512352 L32.755,42.1362352 C32.713,42.2232352 32.415,42.5212352 31.556,42.8602352 L31.556,42.8602352 Z M39.289,32.2562352 C39.127,31.3952352 38.266,30.5572352 36.461,29.5082352 L37.59,21.1272352 L37.59,21.1262352 L37.625,20.8642352 C37.631,20.8202352 37.634,20.7762352 37.634,20.7312352 C37.634,19.5292352 36.626,18.4662352 34.639,17.5712352 L33.818,19.3952352 C35.205,20.0202352 35.582,20.5482352 35.629,20.7032352 L35.621,20.7602352 C35.611,20.7892352 35.591,20.8212352 35.573,20.8522352 C35.557,20.8812352 35.543,20.9092352 35.519,20.9392352 C35.493,20.9702352 35.458,21.0042352 35.425,21.0372352 C35.393,21.0682352 35.363,21.0992352 35.324,21.1322352 C35.284,21.1652352 35.233,21.2002352 35.186,21.2342352 C35.138,21.2682352 35.093,21.3022352 35.037,21.3382352 C34.983,21.3722352 34.919,21.4062352 34.858,21.4412352 C34.795,21.4772352 34.733,21.5132352 34.662,21.5502352 C34.594,21.5862352 34.515,21.6212352 34.44,21.6562352 C34.361,21.6932352 34.286,21.7312352 34.199,21.7682352 C34.118,21.8032352 34.026,21.8382352 33.939,21.8732352 C33.844,21.9102352 33.753,21.9482352 33.65,21.9852352 C33.556,22.0212352 33.451,22.0552352 33.35,22.0892352 C33.241,22.1262352 33.136,22.1642352 33.02,22.2002352 C32.911,22.2352352 32.791,22.2682352 32.676,22.3012352 C32.554,22.3372352 32.436,22.3732352 32.307,22.4082352 C32.185,22.4412352 32.052,22.4722352 31.923,22.5042352 C31.787,22.5382352 31.656,22.5722352 31.513,22.6052352 C31.378,22.6362352 31.232,22.6652352 31.09,22.6952352 C30.941,22.7262352 30.798,22.7582352 30.643,22.7882352 C30.49,22.8182352 30.326,22.8442352 30.168,22.8722352 C30.011,22.8992352 29.859,22.9272352 29.697,22.9532352 C29.524,22.9802352 29.341,23.0042352 29.162,23.0292352 C29,23.0512352 28.844,23.0762352 28.677,23.0962352 C28.484,23.1202352 28.281,23.1402352 28.082,23.1612352 C27.916,23.1792352 27.755,23.1992352 27.584,23.2142352 C27.366,23.2352352 27.136,23.2502352 26.91,23.2662352 C26.746,23.2782352 26.589,23.2932352 26.421,23.3032352 C26.165,23.3192352 25.898,23.3292352 25.633,23.3392352 C25.483,23.3462352 25.341,23.3552352 25.189,23.3602352 C24.767,23.3732352 24.334,23.3802352 23.891,23.3802352 C23.447,23.3802352 23.016,23.3732352 22.594,23.3602352 C22.437,23.3552352 22.288,23.3452352 22.134,23.3392352 C21.875,23.3282352 21.612,23.3192352 21.361,23.3032352 C21.192,23.2932352 21.033,23.2782352 20.868,23.2662352 C20.644,23.2502352 20.416,23.2352352 20.198,23.2142352 C20.029,23.1992352 19.869,23.1792352 19.704,23.1622352 C19.504,23.1402352 19.299,23.1212352 19.106,23.0962352 C18.94,23.0762352 18.783,23.0512352 18.622,23.0292352 C18.443,23.0042352 18.259,22.9812352 18.086,22.9532352 C17.923,22.9272352 17.77,22.8992352 17.612,22.8712352 C17.454,22.8442352 17.293,22.8182352 17.142,22.7892352 C16.984,22.7582352 16.839,22.7262352 16.689,22.6942352 C16.549,22.6652352 16.404,22.6362352 16.272,22.6062352 C16.127,22.5722352 15.994,22.5382352 15.857,22.5042352 C15.731,22.4722352 15.599,22.4412352 15.478,22.4082352 C15.346,22.3732352 15.226,22.3362352 15.101,22.2992352 C14.988,22.2672352 14.872,22.2352352 14.766,22.2012352 C14.647,22.1632352 14.538,22.1252352 14.426,22.0872352 C14.328,22.0532352 14.227,22.0202352 14.135,21.9862352 C14.03,21.9482352 13.939,21.9102352 13.842,21.8722352 C13.756,21.8372352 13.665,21.8032352 13.585,21.7682352 C13.498,21.7312352 13.422,21.6932352 13.342,21.6562352 C13.268,21.6212352 13.19,21.5862352 13.122,21.5512352 C13.051,21.5142352 12.99,21.4782352 12.926,21.4422352 C12.865,21.4072352 12.801,21.3722352 12.746,21.3382352 C12.691,21.3032352 12.647,21.2692352 12.599,21.2352352 C12.551,21.2012352 12.5,21.1662352 12.46,21.1322352 C12.421,21.1002352 12.392,21.0692352 12.36,21.0382352 C12.326,21.0052352 12.29,20.9712352 12.265,20.9392352 C12.241,20.9102352 12.228,20.8832352 12.212,20.8552352 C12.192,20.8232352 12.172,20.7912352 12.162,20.7602352 L12.155,20.7032352 C12.2,20.5492352 12.581,20.0152352 13.988,19.3842352 L13.172,17.5592352 C11.167,18.4572352 10.15,19.5242352 10.15,20.7312352 C10.15,20.7752352 10.153,20.8182352 10.159,20.8602352 L10.193,21.1232352 L10.193,21.1232352 L10.193,21.1272352 L13.044,42.2932352 C13.168,45.2192352 20.172,45.9962352 23.891,45.9962352 C26.148,45.9962352 28.415,45.7592352 30.274,45.3302352 C31.028,45.1562352 31.707,44.9512352 32.29,44.7212352 C33.874,44.0942352 34.697,43.2782352 34.739,42.2932352 L35.86,33.9692352 C36.412,34.0822352 36.896,34.1462352 37.302,34.1462352 C38.077,34.1462352 38.607,33.9392352 38.957,33.5212352 C39.257,33.1642352 39.375,32.7152352 39.289,32.2562352 L39.289,32.2562352 Z M17.888,32.0072352 L18.829,30.4382352 L19.771,32.0072352 L17.888,32.0072352 Z M22.406,33.5002352 C22.584,33.1862352 22.579,32.8012352 22.394,32.4922352 L19.687,27.9802352 C19.506,27.6792352 19.181,27.4952352 18.829,27.4952352 C18.478,27.4952352 18.152,27.6792352 17.972,27.9802352 L15.264,32.4922352 C15.078,32.8012352 15.073,33.1862352 15.251,33.5002352 C15.429,33.8132352 15.761,34.0072352 16.121,34.0072352 L21.536,34.0072352 C21.897,34.0072352 22.229,33.8132352 22.406,33.5002352 L22.406,33.5002352 Z M28.485,38.0072352 C27.658,38.0072352 26.985,37.3342352 26.985,36.5072352 C26.985,35.6802352 27.658,35.0072352 28.485,35.0072352 C29.313,35.0072352 29.985,35.6802352 29.985,36.5072352 C29.985,37.3342352 29.313,38.0072352 28.485,38.0072352 L28.485,38.0072352 Z M28.485,33.0072352 C26.556,33.0072352 24.985,34.5772352 24.985,36.5072352 C24.985,38.4372352 26.556,40.0072352 28.485,40.0072352 C30.415,40.0072352 31.985,38.4372352 31.985,36.5072352 C31.985,34.5772352 30.415,33.0072352 28.485,33.0072352 L28.485,33.0072352 Z M18.985,40.0072352 L20.985,40.0072352 L20.985,38.0072352 L18.985,38.0072352 L18.985,40.0072352 Z M21.985,36.0072352 L17.985,36.0072352 C17.433,36.0072352 16.985,36.4552352 16.985,37.0072352 L16.985,41.0072352 C16.985,41.5592352 17.433,42.0072352 17.985,42.0072352 L21.985,42.0072352 C22.538,42.0072352 22.985,41.5592352 22.985,41.0072352 L22.985,37.0072352 C22.985,36.4552352 22.538,36.0072352 21.985,36.0072352 L21.985,36.0072352 Z M22.842,10.9022352 C23.136,10.5962352 23.529,10.4422352 23.923,10.4422352 C24.297,10.4422352 24.672,10.5812352 24.962,10.8602352 C25.559,11.4332352 25.577,12.3842352 25.004,12.9812352 C24.726,13.2702352 24.353,13.4332352 23.952,13.4412352 C23.551,13.4352352 23.172,13.3002352 22.883,13.0222352 C22.595,12.7452352 22.431,12.3712352 22.423,11.9712352 C22.415,11.5702352 22.565,11.1902352 22.842,10.9022352 L22.842,10.9022352 Z M23.922,15.4402352 C24.841,15.4402352 25.76,15.0802352 26.445,14.3672352 C27.783,12.9762352 27.739,10.7562352 26.349,9.41823523 C24.957,8.08123523 22.736,8.12523523 21.4,9.51523523 C20.752,10.1892352 20.405,11.0752352 20.424,12.0092352 C20.441,12.9442352 20.823,13.8172352 21.497,14.4642352 C22.175,15.1162352 23.049,15.4402352 23.922,15.4402352 L23.922,15.4402352 Z M18.213,11.9052352 C18.467,11.7892352 18.66,11.5712352 18.747,11.3062352 L19.186,9.96023523 C19.272,9.69423523 19.243,9.40423523 19.107,9.16023523 L17.911,7.03323523 L20.836,4.91223523 L22.477,6.69323523 C22.666,6.89923523 22.933,7.01623523 23.212,7.01623523 L23.218,7.01623523 L24.673,7.00723523 C24.95,7.00623523 25.214,6.88923523 25.402,6.68523523 L27.032,4.91723523 L29.953,7.04323523 L28.763,9.16123523 C28.627,9.40223523 28.598,9.69023523 28.682,9.95423523 L29.115,11.3152352 C29.201,11.5832352 29.396,11.8022352 29.65,11.9202352 L31.863,12.9372352 L30.745,16.3722352 L28.355,15.8922352 C28.082,15.8362352 27.793,15.9002352 27.567,16.0662352 L26.411,16.9122352 C26.187,17.0762352 26.041,17.3262352 26.009,17.6032352 L25.727,20.0112352 L22.114,20.0082352 L21.836,17.6172352 C21.804,17.3432352 21.66,17.0942352 21.438,16.9292352 L20.268,16.0642352 C20.04,15.8962352 19.753,15.8312352 19.477,15.8872352 L17.105,16.3612352 L15.992,12.9242352 L18.213,11.9052352 Z M15.477,17.8242352 C15.633,18.3082352 16.122,18.5932352 16.624,18.4972352 L19.435,17.9352352 L19.899,18.2792352 L20.231,21.1232352 C20.289,21.6262352 20.716,22.0062352 21.223,22.0072352 L26.615,22.0122352 L26.616,22.0122352 C27.123,22.0122352 27.551,21.6322352 27.609,21.1292352 L27.944,18.2682352 L28.394,17.9402352 L31.225,18.5072352 C31.715,18.6052352 32.214,18.3192352 32.372,17.8372352 L34.041,12.7092352 C34.198,12.2272352 33.969,11.7032352 33.508,11.4912352 L30.887,10.2872352 L30.72,9.76123523 L32.133,7.24723523 C32.381,6.80523523 32.259,6.24723523 31.849,5.94823523 L27.488,2.77623523 C27.077,2.47823523 26.51,2.53323523 26.165,2.90723523 L24.227,5.00923523 L23.649,5.01323523 L21.704,2.90323523 C21.36,2.52823523 20.789,2.47323523 20.382,2.77123523 L16.017,5.93723523 C15.606,6.23523523 15.483,6.79423523 15.732,7.23623523 L17.148,9.75723523 L16.981,10.2702352 L14.35,11.4772352 C13.889,11.6892352 13.659,12.2122352 13.816,12.6942352 L15.477,17.8242352 Z" id="Fill-1" fill="#3F8624"></path>
    </g>
</svg>