<?xml version="1.0" encoding="UTF-8"?>
<svg width="48px" height="48px" viewBox="0 0 48 48" version="1.1" xmlns="http://www.w3.org/2000/svg" xmlns:xlink="http://www.w3.org/1999/xlink">
    <title>Icon-Resource/Storage/Res_Icon-Amazon-S3_CN-Nightfall_48_Light</title>
    <g id="Icon-Resource/Storage/Res_Icon-Amazon-S3_CN-Nightfall_48" stroke="none" stroke-width="1" fill="none" fill-rule="evenodd">
        <path d="M8.17216744,21.129 C8.46316744,21.129 8.73916744,21.255 8.93016744,21.476 C9.11916744,21.696 9.20416744,21.988 9.16116744,22.276 C8.91316744,23.939 8.66616744,25.694 8.47016744,27.191 C9.10416744,26.147 9.80916744,24.967 10.4741674,23.837 L13.4281674,18.128 L11.0891674,18.129 C10.7741674,18.129 10.4771674,17.98 10.2871674,17.727 C10.0991674,17.475 10.0401674,17.148 10.1301674,16.845 L12.1201674,10.129 L5.52616744,10.129 L4.03516744,21.129 L8.17216744,21.129 Z M7.10316744,32.129 C6.81216744,32.129 6.52516744,31.997 6.33416744,31.776 C5.99316744,31.38 5.82916744,31.191 7.01316744,23.129 L3.77716744,23.129 C3.28716744,23.129 2.76116744,22.891 2.43616744,22.523 C2.11316744,22.161 1.95716744,21.672 2.01016744,21.185 L3.56316744,9.764 C3.65716744,8.89 4.46816744,8.129 5.33016744,8.129 L12.4321674,8.129 C13.0071674,8.129 13.5471674,8.411 13.8781674,8.884 C14.2041674,9.352 14.2861674,9.953 14.0981674,10.493 L12.4281674,16.129 L13.9401674,16.129 C14.4181674,16.093 14.9291674,16.315 15.2651674,16.707 C15.6031674,17.099 15.7311674,17.633 15.6171674,18.171 C15.5991674,18.258 15.5681674,18.343 15.5271674,18.423 L12.2231674,24.805 C7.91216744,32.129 7.80516744,32.129 7.10316744,32.129 L7.10316744,32.129 Z M45.8391674,36.435 L44.4431674,35.003 L42.2621674,37.129 L39.1141674,37.129 L40.7351674,34.317 L43.5911674,33.552 L43.0731674,31.621 L40.7561674,32.241 L40.1741674,29.957 L38.2361674,30.45 L38.9771674,33.362 L37.3971674,36.103 L35.7881674,33.321 L36.5541674,30.462 L34.6221674,29.945 L34.0011674,32.262 L31.7321674,31.624 L31.1911674,33.549 L34.0801674,34.362 L35.6811674,37.129 L32.4761674,37.129 L30.3601674,35.012 L28.9451674,36.426 L30.6421674,38.123 L28.9541674,39.769 L30.3511674,41.2 L32.4741674,39.129 L35.6491674,39.129 L34.0541674,41.887 L31.2021674,42.651 L31.7201674,44.583 L34.0371674,43.962 L34.6191674,46.246 L36.5571674,45.753 L35.8151674,42.836 L37.3971674,40.101 L39.0041674,42.887 L38.2391674,45.741 L40.1711674,46.258 L40.7921674,43.941 L43.0621674,44.579 L43.6031674,42.654 L40.7081674,41.84 L39.1451674,39.129 L42.3711674,39.129 L44.4341674,41.191 L45.8481674,39.777 L44.1511674,38.081 L45.8391674,36.435 Z M41.6041674,24.429 L41.3131674,26.068 C43.0691674,26.508 43.8401674,26.479 44.1401674,26.423 C43.9601674,26.146 43.3781674,25.502 41.6041674,24.429 L41.6041674,24.429 Z M8.23816744,6.992 L7.31716744,5.218 C11.1371674,3.233 17.4751674,2 23.8561674,2 C33.2551674,2 43.7281674,4.9 43.7281674,9.063 C43.7281674,9.107 43.7251674,9.151 43.7191674,9.195 L43.6671674,9.583 C43.6641674,9.606 43.6581674,9.628 43.6541674,9.651 L41.9511674,22.317 C44.6461674,23.852 45.9721674,25.069 46.1881674,26.221 C46.2871674,26.756 46.1501674,27.28 45.8001674,27.696 C45.3751674,28.203 44.7081674,28.4550034 43.7191674,28.4550034 C42.8011674,28.456 41.6051674,28.238 40.0661674,27.806 C35.3141674,26.483 28.5281674,23.408 25.1641674,21.821 C24.8571674,22.013 24.4971674,22.129 24.1101674,22.129 C23.0071674,22.129 22.1101674,21.232 22.1101674,20.129 C22.1101674,19.026 23.0071674,18.129 24.1101674,18.129 C25.1861674,18.129 26.0601674,18.985 26.1021674,20.052 C28.8371674,21.338 34.8311674,24.068 39.3811674,25.512 L39.8851674,22.678 L41.2841674,12.269 C37.6701674,14.375 30.5941674,15.466 23.8561674,15.466 C20.9971674,15.466 18.0931674,15.265 15.4571674,14.884 L15.7421674,12.905 C18.2861674,13.272 21.0921674,13.466 23.8561674,13.466 C34.1341674,13.466 41.1181674,11.025 41.6941674,9.246 L41.7261674,9.011 C41.5871674,7.222 34.2581674,4 23.8561674,4 C17.8681674,4 11.7381674,5.174 8.23816744,6.992 L8.23816744,6.992 Z M29.6651674,43.631 L29.9191674,45.615 C27.9251674,45.87 25.8871674,46 23.8601674,46 C17.8721674,46 8.39716744,44.629 8.26616744,40.956 L7.29716744,33.75 L9.27916744,33.483 L10.2561674,40.745 C10.2621674,40.79 10.2651674,40.834 10.2651674,40.879 C10.2651674,41.832 15.4011674,44 23.8601674,44 C25.8021674,44 27.7551674,43.876 29.6651674,43.631 L29.6651674,43.631 Z" id="Fill-1" fill="#3F8624"></path>
    </g>
</svg>