<?xml version="1.0" encoding="UTF-8"?>
<svg width="48px" height="48px" viewBox="0 0 48 48" version="1.1" xmlns="http://www.w3.org/2000/svg" xmlns:xlink="http://www.w3.org/1999/xlink">
    <title>Icon-Resource/Storage/Res_AWS-Amazon-Simple-Storage_Bucket-With-Objects_48_Light</title>
    <g id="Icon-Resource/Storage/Res_AWS-Amazon-Simple-Storage_Bucket-With-Objects_48" stroke="none" stroke-width="1" fill="none" fill-rule="evenodd">
        <path d="M40.354,26.059 L40.576,24.412 C42.336,25.484 42.887,26.107 43.049,26.372 C42.579,26.512 41.631,26.385 40.354,26.059 L40.354,26.059 Z M22.727,20.038 C22.727,19.989 22.767,19.948 22.817,19.948 C22.832,19.948 22.841,19.957 22.854,19.963 L22.785,20.103 C22.753,20.094 22.727,20.076 22.727,20.038 L22.727,20.038 Z M36.373,40.637 C36.367,40.682 36.364,40.726 36.364,40.771 C36.364,40.923 35.987,41.507 34.31,42.17 C33.562,42.465 32.679,42.731 31.684,42.959 C29.118,43.553 25.968,43.88 22.816,43.88 C14.388,43.88 9.271,41.721 9.271,40.771 C9.271,40.726 9.268,40.682 9.262,40.637 L5.44,12.253 C5.685,12.396 5.95,12.533 6.226,12.666 C6.295,12.7 6.372,12.732 6.444,12.765 C6.692,12.879 6.95,12.99 7.218,13.097 C7.326,13.14 7.435,13.182 7.545,13.224 C7.826,13.33 8.116,13.431 8.416,13.529 C8.496,13.555 8.573,13.583 8.655,13.609 C9.037,13.729 9.432,13.843 9.84,13.952 C9.943,13.979 10.05,14.004 10.156,14.031 C10.476,14.113 10.804,14.191 11.139,14.265 C11.272,14.295 11.404,14.324 11.539,14.353 C11.911,14.431 12.289,14.505 12.673,14.576 C12.75,14.589 12.823,14.605 12.9,14.618 C13.36,14.699 13.83,14.773 14.306,14.842 C14.434,14.861 14.564,14.877 14.693,14.895 C15.059,14.945 15.427,14.992 15.8,15.035 C15.947,15.052 16.093,15.069 16.24,15.085 C16.685,15.133 17.133,15.176 17.585,15.214 C17.638,15.219 17.69,15.224 17.743,15.229 C18.245,15.27 18.751,15.303 19.259,15.331 C19.401,15.339 19.542,15.346 19.685,15.353 C20.069,15.372 20.453,15.388 20.837,15.4 C20.988,15.405 21.137,15.41 21.288,15.413 C21.798,15.425 22.308,15.434 22.816,15.434 C23.324,15.434 23.833,15.425 24.344,15.413 C24.495,15.41 24.644,15.405 24.794,15.4 C25.179,15.388 25.564,15.372 25.948,15.353 C26.09,15.346 26.231,15.339 26.373,15.331 C26.881,15.303 27.388,15.27 27.891,15.229 C27.942,15.224 27.991,15.219 28.041,15.215 C28.496,15.177 28.947,15.133 29.394,15.084 C29.541,15.069 29.685,15.052 29.83,15.036 C30.206,14.992 30.578,14.945 30.946,14.894 C31.072,14.876 31.199,14.861 31.325,14.842 C31.803,14.773 32.275,14.699 32.737,14.618 C32.808,14.605 32.877,14.59 32.949,14.578 C33.339,14.506 33.722,14.431 34.099,14.352 C34.231,14.324 34.361,14.295 34.491,14.266 C34.83,14.191 35.162,14.112 35.486,14.029 C35.587,14.003 35.691,13.979 35.792,13.952 C36.201,13.843 36.599,13.729 36.982,13.608 C37.06,13.583 37.133,13.557 37.21,13.532 C37.514,13.432 37.809,13.33 38.093,13.222 C38.201,13.182 38.307,13.14 38.412,13.099 C38.684,12.991 38.946,12.878 39.196,12.762 C39.265,12.73 39.339,12.7 39.407,12.667 C39.684,12.534 39.949,12.396 40.195,12.253 L38.413,25.49 C34.792,24.328 29.708,22.221 24.897,19.933 C24.84,18.83 23.934,17.948 22.817,17.948 C21.665,17.948 20.727,18.885 20.727,20.038 C20.727,21.192 21.665,22.129 22.817,22.129 C23.269,22.129 23.686,21.982 24.028,21.737 C28.341,23.805 33.845,26.246 38.143,27.487 L36.373,40.637 Z M22.816,4 C33.188,4 40.496,7.212 40.632,8.995 L40.606,9.202 C40.587,9.263 40.548,9.327 40.515,9.39 C40.488,9.441 40.469,9.492 40.433,9.543 C40.388,9.607 40.323,9.671 40.263,9.736 C40.213,9.788 40.173,9.841 40.115,9.894 C40.043,9.959 39.953,10.024 39.868,10.089 C39.796,10.144 39.734,10.198 39.654,10.252 C39.558,10.317 39.444,10.382 39.334,10.447 C39.242,10.502 39.157,10.558 39.054,10.613 C38.937,10.676 38.801,10.74 38.671,10.802 C38.555,10.859 38.448,10.915 38.322,10.971 C38.183,11.033 38.026,11.093 37.875,11.155 C37.739,11.21 37.609,11.267 37.462,11.322 C37.301,11.382 37.123,11.441 36.951,11.499 C36.793,11.553 36.644,11.609 36.478,11.662 C36.298,11.718 36.101,11.773 35.911,11.829 C35.732,11.88 35.562,11.934 35.375,11.984 C35.177,12.038 34.963,12.087 34.756,12.138 C34.557,12.188 34.365,12.24 34.156,12.287 C33.941,12.335 33.708,12.381 33.484,12.427 C33.266,12.473 33.056,12.52 32.83,12.563 C32.588,12.609 32.331,12.65 32.08,12.693 C31.852,12.732 31.632,12.774 31.398,12.81 C31.132,12.851 30.851,12.886 30.576,12.924 C30.338,12.956 30.108,12.993 29.864,13.022 C29.578,13.057 29.276,13.085 28.98,13.117 C28.731,13.143 28.49,13.172 28.234,13.196 C27.91,13.225 27.57,13.246 27.236,13.271 C26.995,13.288 26.761,13.31 26.514,13.325 C26.134,13.348 25.739,13.362 25.346,13.377 C25.131,13.386 24.924,13.4 24.706,13.406 C24.089,13.424 23.458,13.434 22.816,13.434 C22.172,13.434 21.542,13.424 20.926,13.406 C20.715,13.4 20.514,13.386 20.306,13.378 C19.907,13.363 19.504,13.348 19.118,13.325 C18.882,13.311 18.661,13.29 18.431,13.274 C18.084,13.248 17.733,13.226 17.397,13.196 C17.156,13.173 16.928,13.146 16.693,13.121 C16.383,13.088 16.067,13.059 15.767,13.022 C15.538,12.995 15.323,12.96 15.099,12.93 C14.808,12.89 14.512,12.853 14.233,12.81 C14.013,12.776 13.808,12.737 13.595,12.701 C13.33,12.655 13.057,12.612 12.801,12.563 C12.587,12.522 12.389,12.477 12.183,12.435 C11.946,12.385 11.702,12.338 11.475,12.287 C11.278,12.242 11.096,12.193 10.907,12.146 C10.688,12.092 10.463,12.039 10.256,11.984 C10.079,11.936 9.917,11.884 9.747,11.835 C9.547,11.777 9.341,11.72 9.154,11.661 C8.994,11.61 8.85,11.557 8.699,11.505 C8.521,11.444 8.336,11.383 8.17,11.322 C8.029,11.268 7.905,11.214 7.772,11.161 C7.617,11.097 7.454,11.035 7.311,10.97 C7.189,10.916 7.084,10.861 6.971,10.806 C6.838,10.742 6.699,10.677 6.58,10.613 C6.478,10.558 6.395,10.503 6.303,10.449 C6.193,10.383 6.077,10.318 5.98,10.252 C5.901,10.198 5.838,10.144 5.768,10.09 C5.683,10.025 5.591,9.959 5.52,9.894 C5.461,9.841 5.42,9.788 5.372,9.736 C5.312,9.671 5.247,9.607 5.202,9.543 C5.165,9.492 5.146,9.441 5.12,9.39 C5.086,9.327 5.046,9.263 5.029,9.202 L5.002,8.995 C5.139,7.212 12.446,4 22.816,4 L22.816,4 Z M45.084,26.158 C44.872,25.013 43.553,23.8 40.865,22.263 L42.575,9.567 L42.575,9.564 L42.575,9.563 L42.625,9.175 C42.631,9.132 42.634,9.088 42.634,9.045 C42.634,4.894 32.19,2 22.816,2 C13.444,2 3,4.894 3,9.045 C3,9.088 3.003,9.132 3.009,9.175 L3.06,9.563 L3.06,9.564 L3.06,9.567 L7.272,40.848 C7.404,44.512 16.848,45.88 22.816,45.88 C26.115,45.88 29.424,45.536 32.134,44.909 C33.225,44.658 34.204,44.362 35.045,44.03 C37.204,43.176 38.319,42.106 38.363,40.848 L40.095,27.979 C41.041,28.179 41.902,28.301 42.618,28.301 C43.583,28.301 44.306,28.097 44.697,27.63 C45.045,27.215 45.183,26.692 45.084,26.158 L45.084,26.158 Z M12.654,26.43 L15.25,22.103 L17.846,26.43 L12.654,26.43 Z M20.483,27.922 C20.661,27.609 20.656,27.224 20.47,26.915 L16.107,19.645 C15.746,19.043 14.753,19.043 14.392,19.645 L10.03,26.915 C9.844,27.225 9.839,27.609 10.017,27.923 C10.195,28.237 10.527,28.43 10.887,28.43 L19.613,28.43 C19.973,28.43 20.305,28.237 20.483,27.922 L20.483,27.922 Z M29.646,29.302 C31.259,29.302 32.572,30.625 32.572,32.252 C32.572,33.878 31.259,35.202 29.646,35.202 C28.033,35.202 26.72,33.878 26.72,32.252 C26.72,30.625 28.033,29.302 29.646,29.302 L29.646,29.302 Z M29.646,37.202 C32.362,37.202 34.572,34.982 34.572,32.252 C34.572,29.523 32.362,27.302 29.646,27.302 C26.93,27.302 24.72,29.523 24.72,32.252 C24.72,34.982 26.93,37.202 29.646,37.202 L29.646,37.202 Z M14.599,38.645 L19.496,38.645 L19.496,33.666 L14.599,33.666 L14.599,38.645 Z M20.496,31.665 L13.598,31.665 C13.045,31.665 12.598,32.113 12.598,32.665 L12.598,39.645 C12.598,40.198 13.045,40.645 13.598,40.645 L20.496,40.645 C21.048,40.645 21.496,40.198 21.496,39.645 L21.496,32.665 C21.496,32.113 21.048,31.665 20.496,31.665 L20.496,31.665 Z" id="AWS-Amazon-Simple-Storage_Bucket-with-objects_Resource-Icon_light-bg" fill="#3F8624"></path>
    </g>
</svg>