<?xml version="1.0" encoding="UTF-8"?>
<svg width="48px" height="48px" viewBox="0 0 48 48" version="1.1" xmlns="http://www.w3.org/2000/svg" xmlns:xlink="http://www.w3.org/1999/xlink">
    <title>Icon-Resource/Storage/Res_AWS-Amazon-Simple-Storage_S3-Replication_48_Light</title>
    <g id="Icon-Resource/Storage/Res_AWS-Amazon-Simple-Storage_S3-Replication_48" stroke="none" stroke-width="1" fill="none" fill-rule="evenodd">
        <path d="M43.6736,29.1963 C43.4326,28.9383 42.9406,28.5193 41.9506,27.9153 L41.8176,28.9243 C42.7746,29.1483 43.3486,29.1973 43.6736,29.1963 L43.6736,29.1963 Z M26.8156,24.0453 C26.7686,24.0453 26.7306,24.0833 26.7306,24.1303 C26.7316,24.2223 26.9006,24.2243 26.8996,24.1303 C26.8996,24.0833 26.8616,24.0453 26.8156,24.0453 L26.8156,24.0453 Z M39.6066,30.3893 C35.6996,29.1913 30.6256,26.9223 27.9416,25.6723 C27.6236,25.9033 27.2366,26.0453 26.8156,26.0453 C25.7586,26.0453 24.8996,25.1853 24.8996,24.1303 C24.8996,23.0743 25.7586,22.2153 26.8156,22.2153 C27.7646,22.2153 28.5486,22.9113 28.6986,23.8183 C30.9706,24.8763 36.0106,27.1493 39.8726,28.3753 L41.3846,16.9453 C38.1696,18.5833 32.2516,19.2233 26.9386,19.2233 C21.4306,19.2233 15.2876,18.5773 11.9846,16.9213 L15.3996,41.3173 C15.4056,41.3633 15.4086,41.4103 15.4086,41.4563 C15.5966,42.1813 19.6926,43.9123 26.7776,43.9123 C29.4486,43.9123 32.1166,43.6383 34.2896,43.1413 C35.1356,42.9493 35.8786,42.7273 36.4996,42.4843 C37.7566,41.9923 38.1226,41.5563 38.1516,41.4433 C38.1516,41.3993 38.1526,41.3683 38.1586,41.3253 L39.6066,30.3893 Z M11.5716,13.9743 L11.5846,14.0673 C11.7876,15.2083 17.0436,17.2233 26.9386,17.2233 C36.6346,17.2233 41.5806,15.2353 41.7656,14.0663 L41.7776,13.9753 C41.7196,12.6953 36.4896,10.2453 26.9386,10.2453 C17.6056,10.2453 11.6406,12.6793 11.5716,13.9743 L11.5716,13.9743 Z M45.5006,30.5083 C45.1106,30.9673 44.5096,31.1943 43.6196,31.1943 C43.0566,31.1943 42.3686,31.0973 41.5546,30.9153 L40.1496,41.5333 C40.1066,42.6593 39.1246,43.6053 37.2296,44.3463 C36.5166,44.6263 35.6766,44.8773 34.7346,45.0913 C32.4206,45.6203 29.5946,45.9123 26.7776,45.9123 C21.4486,45.9123 13.5426,44.7453 13.4106,41.5383 L9.5746,14.1363 L9.5866,14.1343 C9.5836,14.0883 9.5656,14.0463 9.5656,13.9983 C9.5656,10.2613 18.5166,8.2453 26.9386,8.2453 C35.3096,8.2453 43.7826,10.2213 43.7826,13.9983 C43.7826,14.0433 43.7666,14.0833 43.7646,14.1273 L43.7746,14.1293 L42.2356,25.7673 C44.5696,27.0873 45.6756,28.1083 45.8656,29.1343 C45.9586,29.6333 45.8286,30.1213 45.5006,30.5083 L45.5006,30.5083 Z M11.2226,37.7813 L10.7326,39.7203 C7.5456,38.9133 5.9026,37.7593 5.8446,36.2923 L2.0096,8.8913 L2.0206,8.8903 C2.0176,8.8433 1.9996,8.8003 1.9996,8.7533 C1.9996,5.0163 10.9496,3.0003 19.3716,3.0003 C26.5096,3.0003 32.6726,4.3873 35.0746,6.5353 L33.7406,8.0253 C32.1106,6.5683 26.9196,5.0003 19.3716,5.0003 C10.0396,5.0003 4.0746,7.4343 4.0066,8.7293 L4.0246,8.8583 C4.1786,9.2713 5.2066,10.2153 8.7916,11.0033 L8.3616,12.9563 C6.7346,12.5973 5.4226,12.1663 4.4176,11.6653 L7.8326,36.0723 C7.8396,36.1183 7.8426,36.1653 7.8426,36.2113 C7.8836,36.3613 8.5806,37.1123 11.2226,37.7813 L11.2226,37.7813 Z" id="AWS-Amazon-Simple-Storage_S3-Replication_Resource-Icon_light-bg" fill="#3F8624"></path>
    </g>
</svg>