<?xml version="1.0" encoding="UTF-8"?>
<svg width="48px" height="48px" viewBox="0 0 48 48" version="1.1" xmlns="http://www.w3.org/2000/svg" xmlns:xlink="http://www.w3.org/1999/xlink">
    <title>Icon-Resource/Storage/Res_AWS-Amazon-Simple-Storage_S3-Replication-Time-Control_48_Light</title>
    <g id="Icon-Resource/Storage/Res_AWS-Amazon-Simple-Storage_S3-Replication-Time-Control_48" stroke="none" stroke-width="1" fill="none" fill-rule="evenodd">
        <path d="M24.4436,31.9717 L22.4436,31.9717 L22.4436,35.9677 C22.4436,36.5207 22.8906,36.9677 23.4436,36.9677 L26.4396,36.9677 L26.4396,34.9677 L24.4436,34.9677 L24.4436,31.9717 Z M27.9726,35.4677 C27.9726,32.9897 25.9576,30.9737 23.4786,30.9737 C21.0006,30.9737 18.9846,32.9897 18.9846,35.4677 C18.9846,37.9467 21.0006,39.9617 23.4786,39.9617 C25.9576,39.9617 27.9726,37.9467 27.9726,35.4677 L27.9726,35.4677 Z M29.9726,35.4677 C29.9726,39.0487 27.0596,41.9617 23.4786,41.9617 C19.8976,41.9617 16.9846,39.0487 16.9846,35.4677 C16.9846,31.8867 19.8976,28.9737 23.4786,28.9737 C27.0596,28.9737 29.9726,31.8867 29.9726,35.4677 L29.9726,35.4677 Z M43.7206,29.2257 C43.4796,28.9677 42.9866,28.5477 41.9926,27.9407 L41.8586,28.9517 C42.8216,29.1777 43.3986,29.2257 43.7206,29.2257 L43.7206,29.2257 Z M26.8416,24.0697 C26.7966,24.0697 26.7576,24.1067 26.7576,24.1527 C26.7576,24.2437 26.9246,24.2437 26.9246,24.1527 C26.9246,24.1067 26.8876,24.0697 26.8416,24.0697 L26.8416,24.0697 Z M39.6476,30.4187 C35.7366,29.2187 30.6566,26.9467 27.9686,25.6957 C27.6516,25.9277 27.2636,26.0697 26.8416,26.0697 C25.7856,26.0697 24.9246,25.2087 24.9246,24.1527 C24.9246,23.0957 25.7856,22.2367 26.8416,22.2367 C27.7926,22.2367 28.5776,22.9337 28.7266,23.8417 C31.0006,24.9017 36.0476,27.1777 39.9136,28.4047 L41.4276,16.9577 C38.2106,18.5977 32.2846,19.2397 26.9646,19.2397 C21.4506,19.2397 15.2996,18.5927 11.9936,16.9337 L15.4126,41.3597 C15.4196,41.4057 15.4226,41.4517 15.4226,41.4977 C15.6086,42.2247 19.7086,43.9577 26.8046,43.9577 C29.4806,43.9577 32.1506,43.6837 34.3236,43.1867 C35.1676,42.9937 35.9116,42.7737 36.5386,42.5277 C37.7976,42.0357 38.1636,41.5997 38.1916,41.4857 C38.1916,41.4417 38.1936,41.4097 38.1996,41.3677 L39.6476,30.4187 Z M11.5806,13.9877 L11.5936,14.0787 C11.7976,15.2207 17.0586,17.2397 26.9646,17.2397 C36.6726,17.2397 41.6246,15.2487 41.8086,14.0787 L41.8206,13.9877 C41.7616,12.7047 36.5266,10.2507 26.9646,10.2507 C16.2846,10.2507 11.6486,13.0597 11.5806,13.9877 L11.5806,13.9877 Z M45.5476,30.5367 C45.1576,30.9957 44.5546,31.2237 43.6656,31.2237 C43.0996,31.2237 42.4126,31.1267 41.5946,30.9437 L40.1896,41.5757 C40.1466,42.7027 39.1646,43.6497 37.2656,44.3907 C36.5476,44.6717 35.7076,44.9227 34.7686,45.1357 C32.4556,45.6657 29.6266,45.9577 26.8046,45.9577 C21.4696,45.9577 13.5556,44.7897 13.4236,41.5797 L9.5846,14.1487 L9.5946,14.1467 C9.5926,14.1007 9.5746,14.0577 9.5746,14.0097 C9.5746,10.2697 18.5346,8.2507 26.9646,8.2507 C35.3436,8.2507 43.8266,10.2297 43.8266,14.0097 C43.8266,14.0547 43.8096,14.0947 43.8066,14.1397 L43.8176,14.1407 L42.2766,25.7927 C44.6136,27.1127 45.7196,28.1357 45.9126,29.1627 C46.0056,29.6617 45.8756,30.1507 45.5476,30.5367 L45.5476,30.5367 Z M11.0956,37.7847 L10.5916,39.7207 C7.5016,38.9147 5.9066,37.7737 5.8496,36.3277 L2.0096,8.8977 L2.0206,8.8957 C2.0176,8.8497 2.0006,8.8057 2.0006,8.7587 C2.0006,5.0187 10.9606,2.9997 19.3906,2.9997 C26.6146,2.9997 32.8086,4.4107 35.1716,6.5947 L33.8136,8.0637 C32.2166,6.5877 27.0236,4.9997 19.3906,4.9997 C8.7106,4.9997 4.0746,7.8087 4.0066,8.7367 L4.0246,8.8647 C4.1786,9.2787 5.2126,10.2277 8.8206,11.0177 L8.3926,12.9707 C6.7506,12.6117 5.4296,12.1757 4.4176,11.6717 L7.8386,36.1087 C7.8446,36.1547 7.8476,36.2007 7.8476,36.2467 C7.8866,36.3927 8.5576,37.1227 11.0956,37.7847 L11.0956,37.7847 Z" id="AWS-Amazon-Simple-Storage_S3-Replication-Time-Control_Resource-Icon_light-bg" fill="#3F8624"></path>
    </g>
</svg>