<?xml version="1.0" encoding="UTF-8"?>
<svg width="48px" height="48px" viewBox="0 0 48 48" version="1.1" xmlns="http://www.w3.org/2000/svg" xmlns:xlink="http://www.w3.org/1999/xlink">
    <title>Icon-Resource/Storage/Res_Amazon-Simple-Storage_General-Access-Points_48_Light</title>
    <g id="Icon-Resource/Storage/Res_Amazon-Simple-Storage_General-Access-Points_48" stroke="none" stroke-width="1" fill="none" fill-rule="evenodd">
        <path d="M30.5762,21.9659 C29.2062,21.9659 28.0912,23.0809 28.0912,24.4509 C28.0912,25.8209 29.2062,26.9359 30.5762,26.9359 C31.9462,26.9359 33.0602,25.8209 33.0602,24.4509 C33.0602,23.0809 31.9462,21.9659 30.5762,21.9659 L30.5762,21.9659 Z M30.5762,19.9659 C33.0492,19.9659 35.0602,21.9779 35.0602,24.4509 C35.0602,26.9239 33.0492,28.9359 30.5762,28.9359 C28.1022,28.9359 26.0912,26.9239 26.0912,24.4509 C26.0912,21.9779 28.1022,19.9659 30.5762,19.9659 L30.5762,19.9659 Z M30.2062,14.8899 L28.0422,10.9329 L25.7862,14.8899 L30.2062,14.8899 Z M32.7692,15.4099 C32.9392,15.7199 32.9322,16.0959 32.7532,16.3999 C32.5722,16.7029 32.2462,16.8899 31.8922,16.8899 L24.0641905,16.8899 C23.7082,16.8899 23.3792,16.6999 23.2002,16.3919 C23.0202,16.0839 23.0192,15.7039 23.1952,15.3949 L27.1912,8.3869 C27.3712,8.0709 27.6992,7.8919 28.0692,7.8819 C28.4312,7.8849 28.7642,8.0839 28.9372,8.4029 L32.7692,15.4099 Z M13.8572,21.9949 L17.9192,21.9949 L17.9192,17.9319 L13.8572,17.9319 L13.8572,21.9949 Z M18.9192,15.9319 C19.4722,15.9319 19.9192,16.3789 19.9192,16.9319 L19.9192,22.9949 C19.9192,23.5479 19.4722,23.9949 18.9192,23.9949 L12.8562,23.9949 C12.3042,23.9949 11.8562,23.5479 11.8562,22.9949 L11.8562,16.9319 C11.8562,16.3789 12.3042,15.9319 12.8562,15.9319 L18.9192,15.9319 Z M25.0092,42.5059 L25.0092,30.2919 L23.0092,30.2919 L23.0092,42.5859 L19.7642,39.3419 L18.3502,40.7559 L23.2622,45.6669 C23.4572,45.8619 23.7132,45.9599 23.9692,45.9599 C24.2242,45.9599 24.4802,45.8619 24.6762,45.6669 L29.5972,40.7449 L28.1832,39.3309 L25.0092,42.5059 Z M41.8022,19.9019 C41.8022,28.5559 35.4512,35.9619 26.9502,37.5109 L26.9502,35.5439 C34.5012,34.1679 39.8022,27.5889 39.8022,19.9019 C39.8022,11.1339 32.6682,3.9999 23.9002,3.9999 C15.1332,3.9999 8.0002,11.1339 8.0002,19.9019 C8.0002,27.5499 13.2632,34.1219 20.7672,35.5289 L20.7672,37.4939 C12.3172,35.9109 6.0002,28.5119 6.0002,19.9019 C6.0002,10.0299 14.0302,1.9999 23.9002,1.9999 C33.7712,1.9999 41.8022,10.0299 41.8022,19.9019 L41.8022,19.9019 Z" id="Amazon-Simple-Storage_General-Access-Points_Resource-Icon_light-bg" fill="#3F8624"></path>
    </g>
</svg>