<?xml version="1.0" encoding="UTF-8"?>
<svg width="48px" height="48px" viewBox="0 0 48 48" version="1.1" xmlns="http://www.w3.org/2000/svg" xmlns:xlink="http://www.w3.org/1999/xlink">
    <title>Icon-Resource/Storage/Res_Amazon-Simple-Storage_Service-Standard-IA_48_Light</title>
    <g id="Icon-Resource/Storage/Res_Amazon-Simple-Storage_Service-Standard-IA_48" stroke="none" stroke-width="1" fill="none" fill-rule="evenodd">
        <path d="M44.001,40.793 L45.415,42.207 L41.915,45.707 C41.72,45.902 41.464,46 41.208,46 C40.952,46 40.696,45.902 40.501,45.707 L37.001,42.207 L38.415,40.793 L40.208,42.586 L40.208,32.539 L38.415,34.332 L37.001,32.918 L40.501,29.418 C40.892,29.027 41.524,29.027 41.915,29.418 L45.415,32.918 L44.001,34.332 L42.208,32.539 L42.208,42.586 L44.001,40.793 Z M22.87,4 C33.272,4 40.602,7.222 40.74,9.012 L40.714,9.21 C40.691,9.29 40.645,9.373 40.597,9.456 C40.577,9.489 40.566,9.522 40.543,9.556 C40.488,9.635 40.408,9.717 40.329,9.798 C40.293,9.835 40.267,9.871 40.227,9.908 C40.139,9.988 40.029,10.069 39.92,10.15 C39.867,10.189 39.824,10.229 39.766,10.269 C39.647,10.35 39.506,10.431 39.366,10.512 C39.299,10.551 39.24,10.591 39.168,10.63 C39.014,10.713 38.838,10.796 38.663,10.879 C38.586,10.915 38.52,10.952 38.439,10.987 C38.242,11.075 38.024,11.162 37.805,11.249 C37.729,11.278 37.661,11.309 37.582,11.339 C37.33,11.434 37.057,11.526 36.777,11.618 C36.718,11.638 36.664,11.658 36.604,11.677 C36.273,11.782 35.923,11.886 35.557,11.985 C35.541,11.99 35.525,11.995 35.51,11.999 C32.402,12.843 28.059,13.463 22.874,13.463 C14.458,13.463 8.25,11.826 5.961,10.257 C5.939,10.241 5.924,10.227 5.902,10.212 C5.756,10.108 5.621,10.005 5.51,9.901 C5.479,9.874 5.459,9.846 5.432,9.817 C5.343,9.729 5.259,9.641 5.198,9.554 C5.171,9.516 5.158,9.479 5.137,9.44 C5.094,9.364 5.05,9.288 5.029,9.214 L5.002,9.012 C5.141,7.222 12.47,4 22.87,4 L22.87,4 Z M43.158,26.423 C42.868,26.479 42.13,26.509 40.459,26.102 L40.68,24.466 C42.419,25.523 42.985,26.147 43.158,26.423 L43.158,26.423 Z M31.768,43.08 C29.177,43.673 26.018,44 22.874,44 C14.415,44 9.279,41.832 9.279,40.879 C9.279,40.834 9.276,40.79 9.271,40.746 L5.441,12.272 C5.674,12.407 5.923,12.538 6.184,12.665 C6.326,12.734 6.48,12.8 6.629,12.866 C6.793,12.939 6.957,13.012 7.13,13.081 C7.305,13.152 7.483,13.222 7.667,13.29 C7.828,13.349 7.994,13.405 8.161,13.463 C8.561,13.599 8.977,13.729 9.409,13.851 C9.522,13.882 9.627,13.916 9.741,13.946 C9.987,14.013 10.242,14.075 10.497,14.137 C10.647,14.173 10.795,14.21 10.947,14.244 C11.213,14.306 11.482,14.364 11.756,14.421 C11.885,14.447 12.015,14.472 12.145,14.497 C13.106,14.686 14.111,14.847 15.147,14.98 C15.268,14.995 15.388,15.011 15.509,15.025 C15.846,15.066 16.184,15.106 16.525,15.141 C16.6,15.148 16.675,15.155 16.75,15.162 C17.869,15.273 19.01,15.354 20.158,15.403 C20.273,15.408 20.389,15.413 20.504,15.417 C20.863,15.431 21.223,15.442 21.582,15.449 C21.632,15.45 21.682,15.45 21.73,15.451 C22.111,15.458 22.492,15.467 22.87,15.467 C23.236,15.467 23.605,15.458 23.973,15.452 C24.04,15.45 24.107,15.45 24.176,15.449 C24.522,15.442 24.865,15.431 25.211,15.418 C25.35,15.413 25.487,15.407 25.625,15.401 C25.966,15.387 26.305,15.37 26.644,15.351 C26.721,15.346 26.796,15.34 26.873,15.335 C27.532,15.293 28.186,15.24 28.834,15.178 C28.979,15.163 29.123,15.151 29.267,15.136 C29.568,15.105 29.865,15.07 30.163,15.034 C30.342,15.013 30.518,14.99 30.694,14.967 C30.98,14.93 31.268,14.892 31.549,14.851 C31.726,14.824 31.897,14.795 32.072,14.767 C32.535,14.693 32.988,14.614 33.435,14.528 C33.64,14.489 33.845,14.45 34.046,14.409 C34.276,14.361 34.503,14.312 34.728,14.261 C34.939,14.212 35.147,14.162 35.352,14.111 C35.557,14.061 35.762,14.012 35.96,13.958 C36.321,13.861 36.673,13.761 37.013,13.654 C37.174,13.604 37.326,13.55 37.482,13.497 C37.697,13.425 37.91,13.352 38.116,13.275 C38.272,13.217 38.426,13.157 38.575,13.097 C38.783,13.014 38.98,12.927 39.176,12.84 C39.297,12.784 39.424,12.731 39.54,12.675 C39.807,12.546 40.061,12.413 40.298,12.274 L38.516,25.552 C33.959,24.12 27.881,21.353 25.119,20.054 C25.12,20.036 25.125,20.019 25.125,20 C25.125,18.897 24.228,18 23.125,18 C22.022,18 21.125,18.897 21.125,20 C21.125,21.103 22.022,22 23.125,22 C23.461,22 23.772,21.909 24.051,21.762 C27.186,23.243 33.508,26.118 38.246,27.562 L38.114,28.541 L40.097,28.805 L40.191,28.095 C41.211,28.335 42.049,28.456 42.732,28.456 C43.723,28.456 44.39,28.203 44.814,27.697 C45.164,27.28 45.302,26.757 45.202,26.221 C44.986,25.07 43.662,23.854 40.968,22.319 L42.668,9.651 C42.674,9.628 42.679,9.606 42.682,9.583 L42.733,9.194 C42.739,9.15 42.742,9.106 42.742,9.063 C42.742,4.9 32.27,2 22.87,2 C13.472,2 3,4.9 3,9.063 C3,9.106 3.003,9.15 3.009,9.194 L3.061,9.583 C3.062,9.589 3.063,9.596 3.064,9.602 L7.28,40.956 C7.411,44.629 16.887,46 22.874,46 C26.164,46 29.48,45.655 32.217,45.028 C33.28,44.782 34.213,44.503 34.989,44.199 L34.261,42.336 C33.573,42.605 32.734,42.856 31.768,43.08 L31.768,43.08 Z" id="Amazon-Simple-Storage_Service-Standard-IA_Resource-Icon_light-bg" fill="#3F8624"></path>
    </g>
</svg>