<?xml version="1.0" encoding="UTF-8"?>
<svg width="48px" height="48px" viewBox="0 0 48 48" version="1.1" xmlns="http://www.w3.org/2000/svg" xmlns:xlink="http://www.w3.org/1999/xlink">
    <title>Icon-Resource/Storage/Res_Amazon-Simple-Storage_VPC-Access-Points_48_Light</title>
    <g id="Icon-Resource/Storage/Res_Amazon-Simple-Storage_VPC-Access-Points_48" stroke="none" stroke-width="1" fill="none" fill-rule="evenodd">
        <path d="M32.2275,25.4649 C32.2275,24.0949 31.1125,22.9799 29.7425,22.9799 C28.3725,22.9799 27.2565,24.0949 27.2565,25.4649 C27.2565,26.8349 28.3725,27.9489 29.7425,27.9489 C31.1125,27.9489 32.2275,26.8349 32.2275,25.4649 L32.2275,25.4649 Z M34.2275,25.4649 C34.2275,27.9379 32.2155,29.9489 29.7425,29.9489 C27.2685,29.9489 25.2565,27.9379 25.2565,25.4649 C25.2565,22.9909 27.2685,20.9799 29.7425,20.9799 C32.2155,20.9799 34.2275,22.9909 34.2275,25.4649 L34.2275,25.4649 Z M30.4535,15.9029 L28.2895,11.9459 L26.0325,15.9029 L30.4535,15.9029 Z M33.0165,16.4239 C33.1865,16.7339 33.1795,17.1099 32.9995,17.4129 C32.8195,17.7169 32.4935,17.9029 32.1395,17.9029 L24.3105,17.9029 C23.9545,17.9029 23.6245,17.7139 23.4465,17.4049 C23.2665,17.0979 23.2655,16.7179 23.4425,16.4079 L27.4395,9.4009 C27.6185,9.0859 27.9705,8.8659 28.3165,8.8959 C28.6785,8.8989 29.0105,9.0979 29.1845,9.4159 L33.0165,16.4239 Z M15.1835,23.0079 L19.2465,23.0079 L19.2465,18.9449 L15.1835,18.9449 L15.1835,23.0079 Z M20.2465,16.9449 C20.7985,16.9449 21.2465,17.3929 21.2465,17.9449 L21.2465,24.0089 C21.2465,24.5619 20.7985,25.0089 20.2465,25.0089 L14.1825,25.0089 C13.6295,25.0089 13.1825,24.5619 13.1825,24.0089 L13.1825,17.9449 C13.1825,17.3929 13.6295,16.9449 14.1825,16.9449 L20.2465,16.9449 Z M25.2555,42.4399 L25.2555,30.2259 L23.2555,30.2259 L23.2555,42.5199 L20.0115,39.2759 L18.5975,40.6899 L23.5085,45.6009 C23.6965,45.7879 23.9505,45.8939 24.2155,45.8939 C24.4815,45.8939 24.7355,45.7879 24.9225,45.6009 L29.8435,40.6789 L28.4295,39.2649 L25.2555,42.4399 Z M39.4675,8.6939 L39.4675,22.9279 C39.4675,31.4019 34.8665,36.8779 27.0815,37.9529 L27.0815,35.9729 C33.8675,35.0349 37.4675,30.4019 37.4675,22.9279 L37.4675,8.6939 L24.2175,3.9969 L10.9655,8.7419 L10.9995,22.9279 C10.9995,30.4019 14.6005,35.0349 21.3875,35.9729 L21.3875,37.9529 C13.6015,36.8779 8.9995,31.4019 8.9995,22.9279 L8.9995,8.6939 C8.9995,7.8699 9.5205,7.1329 10.2955,6.8589 L23.5795,2.1139 C23.9985,1.9619 24.4655,1.9619 24.8915,2.1139 L38.1735,6.8599 C38.9475,7.1329 39.4675,7.8699 39.4675,8.6939 L39.4675,8.6939 Z" id="Amazon-Simple-Storage_VPC-Access-Points_Resource-Icon_light-bg" fill="#3F8624"></path>
    </g>
</svg>