<?xml version="1.0" encoding="UTF-8"?>
<svg width="48px" height="48px" viewBox="0 0 48 48" version="1.1" xmlns="http://www.w3.org/2000/svg" xmlns:xlink="http://www.w3.org/1999/xlink">
    <title>Icon-Resource/Storage/Res_AWS-Storage-Gateway_Virtual-Tape-Library_48_Light</title>
    <g id="Icon-Resource/Storage/Res_AWS-Storage-Gateway_Virtual-Tape-Library_48" stroke="none" stroke-width="1" fill="none" fill-rule="evenodd">
        <path d="M16.1868,22.3711 C18.7708,22.3711 20.8728,24.4741 20.8728,27.0581 C20.8728,29.6421 18.7708,31.7441 16.1868,31.7441 C13.6028,31.7441 11.4998,29.6421 11.4998,27.0581 C11.4998,24.4741 13.6028,22.3711 16.1868,22.3711 L16.1868,22.3711 Z M26.3728,27.0581 C26.3728,24.4741 28.4748,22.3711 31.0588,22.3711 C33.6428,22.3711 35.7448,24.4741 35.7448,27.0581 C35.7448,29.6421 33.6428,31.7441 31.0588,31.7441 C28.4748,31.7441 26.3728,29.6421 26.3728,27.0581 L26.3728,27.0581 Z M16.1868,33.7441 C16.3338,33.7441 16.4788,33.7311 16.6238,33.7221 L16.6238,33.7441 L31.4968,33.7441 L31.4968,33.7221 C34.9788,33.4951 37.7448,30.5971 37.7448,27.0581 C37.7448,23.3711 34.7458,20.3711 31.0588,20.3711 C27.3728,20.3711 24.3728,23.3711 24.3728,27.0581 C24.3728,28.8821 25.1088,30.5361 26.2968,31.7441 L20.9478,31.7441 C22.1358,30.5361 22.8728,28.8821 22.8728,27.0581 C22.8728,23.3711 19.8738,20.3711 16.1868,20.3711 C12.4998,20.3711 9.4998,23.3711 9.4998,27.0581 C9.4998,30.7441 12.4998,33.7441 16.1868,33.7441 L16.1868,33.7441 Z M32.0568,15.2471 L28.0868,15.2471 L28.0868,7.3661 L29.1908,7.3661 L29.1908,14.3261 L32.0568,14.3261 L32.0568,15.2471 Z M24.0048,8.2871 L22.0488,8.2871 L22.0488,7.3661 L27.0758,7.3661 L27.0758,8.2871 L25.1088,8.2871 L25.1088,15.2471 L24.0048,15.2471 L24.0048,8.2871 Z M18.1148,15.2471 L15.8398,7.3661 L17.0558,7.3661 L18.7168,14.0531 L20.3888,7.3661 L21.5598,7.3661 L19.2858,15.2471 L18.1148,15.2471 Z M39.2448,43.9911 L30.7468,43.9911 L30.7468,38.8671 C30.7468,38.3141 30.2988,37.8671 29.7468,37.8671 L17.4988,37.8671 C16.9458,37.8671 16.4988,38.3141 16.4988,38.8671 L16.4988,43.9911 L7.9998,43.9911 L7.9998,4.0001 L39.2448,4.0001 L39.2448,43.9911 Z M40.2448,2.0001 L6.9998,2.0001 C6.4478,2.0001 5.9998,2.4471 5.9998,3.0001 L5.9998,44.9911 C5.9998,45.5441 6.4478,45.9911 6.9998,45.9911 L17.4988,45.9911 C18.0508,45.9911 18.4988,45.5441 18.4988,44.9911 L18.4988,39.8671 L28.7468,39.8671 L28.7468,44.9911 C28.7468,45.5441 29.1938,45.9911 29.7468,45.9911 L40.2448,45.9911 C40.7968,45.9911 41.2448,45.5441 41.2448,44.9911 L41.2448,3.0001 C41.2448,2.4471 40.7968,2.0001 40.2448,2.0001 L40.2448,2.0001 Z" id="AWS-Storage-Gateway_Virtual-tape-library_Resource-Icon_light-bg" fill="#3F8624"></path>
    </g>
</svg>