<?xml version="1.0" encoding="UTF-8"?>
<svg width="48px" height="48px" viewBox="0 0 48 48" version="1.1" xmlns="http://www.w3.org/2000/svg" xmlns:xlink="http://www.w3.org/1999/xlink">
    <title>Icon-Resource/Storage/Res_AWS-Storage-Gateway_Cached-Volume_48_Light</title>
    <g id="Icon-Resource/Storage/Res_AWS-Storage-Gateway_Cached-Volume_48" stroke="none" stroke-width="1" fill="none" fill-rule="evenodd">
        <path d="M36.5442,14.3457 L32.8672,14.3457 L32.8672,7.0877 L36.5442,7.0877 L36.5442,7.9047 L33.8832,7.9047 L33.8832,10.1887 L36.0832,10.1887 L36.0832,11.0047 L33.8832,11.0047 L33.8832,13.5297 L36.5442,13.5297 L36.5442,14.3457 Z M27.6412,14.3457 L26.6252,14.3457 L26.6252,7.0877 L27.6412,7.0877 L27.6412,10.2187 L30.2802,10.2187 L30.2802,7.0877 L31.2972,7.0877 L31.2972,14.3457 L30.2802,14.3457 L30.2802,11.0467 L27.6412,11.0467 L27.6412,14.3457 Z M21.2112,10.7427 C21.2112,9.5207 21.4522,8.5927 21.9342,7.9567 C22.4142,7.3227 23.1242,7.0047 24.0592,7.0047 C24.5062,7.0047 24.9562,7.0987 25.4102,7.2867 L25.4102,8.1147 C24.9422,7.9677 24.5312,7.8947 24.1752,7.8947 C23.5192,7.8947 23.0382,8.1097 22.7342,8.5377 C22.4312,8.9677 22.2792,9.6577 22.2792,10.6077 L22.2792,10.8587 C22.2792,11.8087 22.4262,12.4947 22.7192,12.9217 C23.0122,13.3477 23.4832,13.5607 24.1332,13.5607 C24.4462,13.5607 24.9002,13.4727 25.4932,13.2977 L25.4932,14.1257 C25.0402,14.3417 24.5482,14.4497 24.0182,14.4497 C22.1472,14.4497 21.2112,13.2147 21.2112,10.7427 L21.2112,10.7427 Z M18.0902,8.0617 L18.9902,11.6127 L17.1892,11.6127 L18.0902,8.0617 Z M17.0012,12.3877 L19.1902,12.3877 L19.6912,14.3457 L20.7602,14.3457 L18.6652,7.0877 L17.5662,7.0877 L15.4722,14.3457 L16.5082,14.3457 L17.0012,12.3877 Z M10.7492,10.7427 C10.7492,9.5207 10.9902,8.5927 11.4722,7.9567 C11.9522,7.3227 12.6612,7.0047 13.5972,7.0047 C14.0442,7.0047 14.4942,7.0987 14.9482,7.2867 L14.9482,8.1147 C14.4812,7.9677 14.0692,7.8947 13.7132,7.8947 C13.0572,7.8947 12.5762,8.1097 12.2732,8.5377 C11.9692,8.9677 11.8172,9.6577 11.8172,10.6077 L11.8172,10.8587 C11.8172,11.8087 11.9642,12.4947 12.2572,12.9217 C12.5502,13.3477 13.0222,13.5607 13.6712,13.5607 C13.9842,13.5607 14.4392,13.4727 15.0312,13.2977 L15.0312,14.1257 C14.5782,14.3417 14.0862,14.4497 13.5562,14.4497 C11.6852,14.4497 10.7492,13.2147 10.7492,10.7427 L10.7492,10.7427 Z M39.1642,43.8917 L30.6912,43.8917 L30.6912,38.7827 C30.6912,38.2297 30.2442,37.7827 29.6912,37.7827 L17.4732,37.7827 C16.9202,37.7827 16.4732,38.2297 16.4732,38.7827 L16.4732,43.8917 L8.0002,43.8917 L8.0002,3.9997 L39.1642,3.9997 L39.1642,43.8917 Z M40.1642,1.9997 L7.0002,1.9997 C6.4472,1.9997 6.0002,2.4477 6.0002,2.9997 L6.0002,44.8917 C6.0002,45.4447 6.4472,45.8917 7.0002,45.8917 L17.4732,45.8917 C18.0252,45.8917 18.4732,45.4447 18.4732,44.8917 L18.4732,39.7827 L28.6912,39.7827 L28.6912,44.8917 C28.6912,45.4447 29.1392,45.8917 29.6912,45.8917 L40.1642,45.8917 C40.7172,45.8917 41.1642,45.4447 41.1642,44.8917 L41.1642,2.9997 C41.1642,2.4477 40.7172,1.9997 40.1642,1.9997 L40.1642,1.9997 Z" id="AWS-Storage-Gateway_Cached-volume_Resource-Icon_light-bg" fill="#3F8624"></path>
    </g>
</svg>