<?xml version="1.0" encoding="UTF-8"?>
<svg width="48px" height="48px" viewBox="0 0 48 48" version="1.1" xmlns="http://www.w3.org/2000/svg" xmlns:xlink="http://www.w3.org/1999/xlink">
    <title>Icon-Resource/Storage/Res_AWS-Storage-Gateway_Tape-Gateway_48_Light</title>
    <g id="Icon-Resource/Storage/Res_AWS-Storage-Gateway_Tape-Gateway_48" stroke="none" stroke-width="1" fill="none" fill-rule="evenodd">
        <path d="M41.458,41.769 L33.72,41.769 C32.952,42.594 32.081,43.319 31.123,43.922 L39.692,43.922 L41.458,41.769 Z M24.236,43.922 C30.283,43.922 35.202,39.002 35.202,32.956 C35.202,26.909 30.283,21.99 24.236,21.99 C18.189,21.99 13.271,26.909 13.271,32.956 C13.271,39.002 18.189,43.922 24.236,43.922 L24.236,43.922 Z M44.345,41.403 L40.939,45.556 C40.749,45.788 40.466,45.922 40.166,45.922 L23.996,45.922 C23.967,45.922 23.943,45.909 23.916,45.906 C16.915,45.734 11.271,39.998 11.271,32.956 C11.271,25.806 17.087,19.99 24.236,19.99 C31.386,19.99 37.202,25.806 37.202,32.956 C37.202,35.457 36.479,37.787 35.247,39.769 L43.571,39.769 C43.958,39.769 44.31,39.992 44.476,40.341 C44.641,40.691 44.59,41.104 44.345,41.403 L44.345,41.403 Z M24.236,38.106 C27.076,38.106 29.386,35.795 29.386,32.956 C29.386,30.116 27.076,27.806 24.236,27.806 C21.396,27.806 19.086,30.116 19.086,32.956 C19.086,35.795 21.396,38.106 24.236,38.106 L24.236,38.106 Z M24.236,40.106 C20.294,40.106 17.086,36.898 17.086,32.956 C17.086,29.013 20.294,25.806 24.236,25.806 C28.179,25.806 31.386,29.013 31.386,32.956 C31.386,36.898 28.179,40.106 24.236,40.106 L24.236,40.106 Z M17.523,4 C11.934,4 8.485,5.619 5,7.632 L5,44.922 L3,44.922 L3,7.057 C3,6.703 3.188,6.373 3.494,6.195 C7.266,3.984 11.176,2 17.523,2 C23.421,2 27.738,4.227 31.208,6.015 L31.504,6.168 C31.837,6.339 32.046,6.682 32.046,7.057 L32.046,19.234 L30.046,19.234 L30.046,7.666 C26.657,5.921 22.808,4 17.523,4 L17.523,4 Z" id="AWS-Storage-Gateway_Tape-Gateway_Resource-Icon_light-bg" fill="#3F8624"></path>
    </g>
</svg>