<?xml version="1.0" encoding="UTF-8"?>
<svg width="48px" height="48px" viewBox="0 0 48 48" version="1.1" xmlns="http://www.w3.org/2000/svg" xmlns:xlink="http://www.w3.org/1999/xlink">
    <title>Icon-Resource/Storage/Res_AWS-Storage-Gateway_File-Gateway-for-Amazon-S3_48_Light</title>
    <g id="Icon-Resource/Storage/Res_AWS-Storage-Gateway_File-Gateway-for-Amazon-S3_48" stroke="none" stroke-width="1" fill="none" fill-rule="evenodd">
        <path d="M31,7.5 C27.486,5.689 23.498,4 18,4 C12.189,4 8.621,5.404 5,7.5 L5,46 L3,46 L3,7.072 C3,6.752 3.17,6.456 3.446,6.294 C7.308,4.031 11.507,2 18,2 C24.03,2 28.648,4.279 32.203,6.111 L32.511,6.27 C32.812,6.425 33,6.734 33,7.072 L33,16 L31,16 L31,7.5 Z M38,37 L38,45 C38,45.55 37.55,46 37,46 L9.914,46 C9.415,46 9.012,45.596 9.011,45.098 L9,26 C9,25.45 9.449,25 10,25 L18,25 C18.229,25 18.497,25.168 18.597,25.375 L19.441,26.724 C19.522,26.893 19.693,27 19.88,27 L27,27 L27,29 L19,29 C18.653,29 18.5,29 18.203,28.209 L17.618,27.288 C17.547,27.114 17.188,27 17,27 L11,27 L11,44 L36,44 L36,37 L38,37 Z M35.979,32.995 C32.967,32.995 32.139,32.558 31.97,32.44 L30.4,23.282 C32.569,23.992 35.495,24.026 36,24.026 C36.506,24.026 39.438,23.992 41.608,23.28 L41.046,26.635 C39.688,26.14 38.234,25.449 37.417,25.057 C37.219,24.46 36.662,24.026 36,24.026 C35.173,24.026 34.5,24.699 34.5,25.526 C34.5,26.354 35.173,27.026 36,27.026 C36.22,27.026 36.427,26.976 36.615,26.891 C37.544,27.335 39.187,28.113 40.71,28.637 L40.073,32.432 C39.894,32.554 39.034,32.995 35.979,32.995 L35.979,32.995 Z M36,20.026 C39.137,20.026 41.155,20.611 41.829,21.026 C41.155,21.442 39.137,22.026 36,22.026 C32.863,22.026 30.845,21.442 30.171,21.026 C30.845,20.611 32.863,20.026 36,20.026 L36,20.026 Z M44.933,27.773 C44.804,27.107 44.17,26.587 43.177,26.02 L43.986,21.192 L43.975,21.19 C43.979,21.134 44,21.084 44,21.026 C44,18.11 36.818,18.026 36,18.026 C35.182,18.026 28,18.11 28,21.026 C28,21.085 28.021,21.136 28.026,21.193 L28.015,21.195 L30.013,32.862 C30.254,34.337 32.094,34.995 35.979,34.995 C39.921,34.995 41.786,34.337 42.028,32.866 L42.648,29.169 C42.979,29.231 43.264,29.263 43.51,29.263 C44.053,29.263 44.409,29.112 44.667,28.807 C44.908,28.52 45.005,28.143 44.933,27.773 L44.933,27.773 Z" id="Fill-1" fill="#3F8624"></path>
    </g>
</svg>