<?xml version="1.0" encoding="UTF-8"?>
<svg width="64px" height="64px" viewBox="0 0 64 64" version="1.1" xmlns="http://www.w3.org/2000/svg" xmlns:xlink="http://www.w3.org/1999/xlink">
    <title>Icon-Architecture/48/Arch_Amazon-WorkSpaces-Web_48</title>
    <defs>
        <linearGradient x1="0%" y1="100%" x2="100%" y2="0%" id="linearGradient-1">
            <stop stop-color="#055F4E" offset="0%"></stop>
            <stop stop-color="#56C0A7" offset="100%"></stop>
        </linearGradient>
    </defs>
    <g id="Icon-Architecture/48/Arch_Amazon-WorkSpaces-Web_48" stroke="none" stroke-width="1" fill="none" fill-rule="evenodd">
        <g id="Icon-Architecture-BG/48/End-User-Computing" fill="url(#linearGradient-1)">
            <rect id="Rectangle" x="0" y="0" width="64" height="64"></rect>
        </g>
        <g id="Icon-Service/48/Amazon-WorkSpaces-Web_48" transform="translate(10.000000, 11.000000)" fill="#FFFFFF">
            <path d="M23,39.26 L23,27.574 L33,21.741 L33,33.425 L23,39.26 Z M11,21.744 L21,27.574 L21,39.257 L11,33.425 L11,21.744 Z M22.004,14.158 L32.016,19.999 L22,25.842 L12,20.009 L22.004,14.158 Z M34.504,19.136 L22.507,12.136 C22.195,11.953 21.81,11.954 21.498,12.136 L9.584,19.104 C9.326,19.226 9.121,19.456 9.038,19.745 C9.002,19.872 8.992,20.002 9.006,20.128 L9.006,34 C9.006,34.355 9.194,34.684 9.502,34.863 L21.499,41.863 C21.654,41.954 21.829,42 22.003,42 C22.177,42 22.352,41.954 22.507,41.863 L34.504,34.863 C34.812,34.684 35,34.355 35,34 L35,20 C35,19.644 34.812,19.315 34.504,19.136 L34.504,19.136 Z M11.012,4 C11.012,4.552 10.564,5 10.012,5 C9.46,5 9.012,4.552 9.012,4 C9.012,3.447 9.46,3 10.012,3 C10.564,3 11.012,3.447 11.012,4 L11.012,4 Z M8.012,4 C8.012,4.552 7.564,5 7.012,5 C6.46,5 6.012,4.552 6.012,4 C6.012,3.447 6.46,3 7.012,3 C7.564,3 8.012,3.447 8.012,4 L8.012,4 Z M5.012,4 C5.012,4.552 4.564,5 4.012,5 C3.46,5 3.012,4.552 3.012,4 C3.012,3.447 3.46,3 4.012,3 C4.564,3 5.012,3.447 5.012,4 L5.012,4 Z M38,28 L40,28 L40,10 L38,10 L38,28 Z M2,6 L2,2 L42,2 L42,6 L2,6 Z M42,0 L2,0 C0.897,0 0,0.896 0,2 L0.002,30 C0.002,31.103 0.899,32 2.002,32 L7,32 L7,30 L2,30 L2,8 L42,8 L42,30 L37,30 L37,32 L42,32 C43.103,32 44,31.103 44,30 L44,2 C44,0.896 43.103,0 42,0 L42,0 Z" id="Fill-6"></path>
        </g>
    </g>
</svg>