<?xml version="1.0" encoding="UTF-8"?>
<svg width="74px" height="74px" viewBox="0 0 74 74" version="1.1" xmlns="http://www.w3.org/2000/svg" xmlns:xlink="http://www.w3.org/1999/xlink">
    <title>Icon-Architecture-Category/48/Developer-Tools_48</title>
    <defs>
        <linearGradient x1="0%" y1="100%" x2="100%" y2="0%" id="linearGradient-1">
            <stop stop-color="#2E27AD" offset="0%"></stop>
            <stop stop-color="#527FFF" offset="100%"></stop>
        </linearGradient>
    </defs>
    <g id="Icon-Architecture-Category/48/Developer-Tools_48" stroke="none" stroke-width="1" fill="none" fill-rule="evenodd">
        <rect id="Rectangle" fill="url(#linearGradient-1)" x="5" y="5" width="64" height="64"></rect>
        <rect id="#879196-Border-Copy-10" stroke="#879196" stroke-width="2" x="1" y="1" width="72" height="72"></rect>
        <g id="Icon-Category/48/Dev-Tools_48" transform="translate(13.000000, 12.000000)" fill="#FFFFFF">
            <path d="M44.0184887,39.7552949 C44.0184887,39.3052949 43.8434887,38.8832949 43.5254887,38.5652949 L28.0564887,23.0972949 C27.9304887,22.9712949 27.7644887,22.9022949 27.5864887,22.9022949 C27.4094887,22.9022949 27.2424887,22.9712949 27.1164887,23.0972949 L23.0964887,27.1162949 C22.8374887,27.3762949 22.8374887,27.7972949 23.0974887,28.0572949 L38.5654887,43.5252949 C39.2214887,44.1802949 40.2894887,44.1812949 40.9454887,43.5252949 L43.5254887,40.9452949 C43.8424887,40.6272949 44.0184887,40.2042949 44.0184887,39.7552949 L44.0184887,39.7552949 Z M12.6294887,14.5642949 L22.7454887,24.6402949 L24.6404887,22.7452949 L15.1574887,13.2242949 C14.7684887,12.8332949 14.4744887,12.3512949 14.3074887,11.8292949 L12.9064887,7.45829486 C12.7784887,7.06129486 12.4864887,6.73329486 12.1054887,6.56029486 L7.30748868,4.38429486 C6.74748868,4.13029486 6.07948868,4.25229486 5.64448868,4.68729486 L4.68748868,5.64429486 C4.25248868,6.07929486 4.13048868,6.74729486 4.38448868,7.30729486 L6.56048868,12.1052949 C6.73348868,12.4862949 7.06048868,12.7772949 7.45848868,12.9052949 L12.6294887,14.5642949 Z M44.9394887,37.1512949 C45.6344887,37.8462949 46.0184887,38.7712949 46.0184887,39.7552949 C46.0184887,40.7382949 45.6344887,41.6632949 44.9394887,42.3592949 L42.3594887,44.9392949 C41.6414887,45.6562949 40.6984887,46.0162949 39.7554887,46.0162949 C38.8124887,46.0162949 37.8694887,45.6572949 37.1514887,44.9392949 L21.6824887,29.4712949 C20.7654887,28.5522949 20.6624887,27.1272949 21.3664887,26.0902949 L11.5594887,16.3212949 L6.84748868,14.8102949 C5.91348868,14.5102949 5.14448868,13.8252949 4.73948868,12.9322949 L2.56248868,8.13329486 C1.96748868,6.81829486 2.25248868,5.25029486 3.27348868,4.23029486 L4.23048868,3.27329486 C5.24948868,2.25329486 6.81748868,1.96629486 8.13348868,2.56329486 L12.9314887,4.73929486 C13.8254887,5.14429486 14.5094887,5.91229486 14.8104887,6.84729486 L16.2114887,11.2192949 C16.2834887,11.4412949 16.4094887,11.6472949 16.5754887,11.8142949 L26.0914887,21.3692949 C27.1164887,20.6922949 28.5844887,20.7952949 29.4714887,21.6832949 L44.9394887,37.1512949 Z M25.7284887,17.6802949 L31.0504887,11.9842949 C31.2534887,11.7672949 31.3494887,11.4712949 31.3124887,11.1752949 C31.0604887,9.19829486 31.7194887,7.26029486 33.1204887,5.85929486 C34.6674887,4.31129486 36.8834887,3.69229486 38.9634887,4.14029486 L35.1824887,7.92229486 C34.5294887,8.57529486 34.1694887,9.44329486 34.1694887,10.3672949 C34.1694887,11.2912949 34.5294887,12.1602949 35.1824887,12.8132949 C36.5324887,14.1612949 38.7264887,14.1602949 40.0744887,12.8132949 L43.8554887,9.03129486 C44.3014887,11.1132949 43.6834887,13.3292949 42.1364887,14.8752949 C40.7354887,16.2762949 38.7964887,16.9352949 36.8194887,16.6842949 C36.5094887,16.6412949 36.2044887,16.7502949 35.9864887,16.9692949 L31.9774887,20.9782949 L33.3914887,22.3922949 L37.0664887,18.7172949 C39.4864887,18.8812949 41.8284887,18.0132949 43.5504887,16.2892949 C46.0504887,13.7892949 46.7064887,9.96129486 45.1804887,6.76329486 C45.0404887,6.47029486 44.7674887,6.26329486 44.4474887,6.20829486 C44.1324887,6.15329486 43.8014887,6.25629486 43.5714887,6.48629486 L38.6604887,11.3992949 C38.0914887,11.9682949 37.1644887,11.9662949 36.5964887,11.3992949 C36.0284887,10.8302949 36.0284887,9.90529486 36.5964887,9.33629486 L41.5084887,4.42429486 C41.7384887,4.19429486 41.8414887,3.86829486 41.7874887,3.54729486 C41.7324887,3.22829486 41.5254887,2.95429486 41.2324887,2.81529486 C38.0354887,1.29029486 34.2064887,1.94429486 31.7054887,4.44529486 C29.9774887,6.17429486 29.1084887,8.52229486 29.2814887,10.9502949 L24.2674887,16.3152949 L25.7284887,17.6802949 Z M21.7424887,33.6662949 L18.7144887,37.0342949 C18.8904887,39.4652949 18.0214887,41.8182949 16.2894887,43.5502949 C14.6884887,45.1512949 12.5414887,45.9962949 10.3674887,45.9962949 C9.14448868,45.9962949 7.91348868,45.7302949 6.76348868,45.1812949 C6.47048868,45.0412949 6.26348868,44.7682949 6.20848868,44.4482949 C6.15348868,44.1282949 6.25748868,43.8012949 6.48748868,43.5712949 L11.3984887,38.6592949 C11.6744887,38.3832949 11.8264887,38.0172949 11.8264887,37.6282949 C11.8264887,37.2392949 11.6744887,36.8732949 11.3984887,36.5972949 C10.8304887,36.0302949 9.90548868,36.0292949 9.33548868,36.5972949 L4.42448868,41.5092949 C4.19448868,41.7382949 3.86148868,41.8412949 3.54848868,41.7872949 C3.22848868,41.7332949 2.95548868,41.5262949 2.81548868,41.2332949 C1.28948868,38.0352949 1.94548868,34.2072949 4.44548868,31.7062949 C6.17348868,29.9782949 8.52848868,29.1092949 10.9494887,29.2802949 L16.3154887,24.2672949 L17.6804887,25.7292949 L11.9844887,31.0502949 C11.7664887,31.2542949 11.4694887,31.3512949 11.1754887,31.3122949 C9.19948868,31.0582949 7.25948868,31.7192949 5.85948868,33.1202949 C4.31248868,34.6672949 3.69448868,36.8822949 4.14048868,38.9642949 L7.92148868,35.1832949 C9.26948868,33.8362949 11.4624887,33.8342949 12.8124887,35.1832949 C13.4654887,35.8362949 13.8264887,36.7042949 13.8264887,37.6282949 C13.8264887,38.5522949 13.4654887,39.4212949 12.8124887,40.0742949 L9.03148868,43.8552949 C11.1094887,44.3002949 13.3284887,43.6832949 14.8754887,42.1362949 C16.2764887,40.7352949 16.9354887,38.7972949 16.6834887,36.8202949 C16.6474887,36.5312949 16.7374887,36.2412949 16.9314887,36.0252949 L20.2534887,32.3292949 L21.7424887,33.6662949 Z" id="Dev-Tools_Category-Icon_48_Squid--"></path>
        </g>
    </g>
</svg>