<?xml version="1.0" encoding="UTF-8"?>
<svg width="74px" height="74px" viewBox="0 0 74 74" version="1.1" xmlns="http://www.w3.org/2000/svg" xmlns:xlink="http://www.w3.org/1999/xlink">
    <title>Icon-Architecture-Category/48/Storage_48</title>
    <defs>
        <linearGradient x1="0%" y1="100%" x2="100%" y2="0%" id="linearGradient-1">
            <stop stop-color="#1B660F" offset="0%"></stop>
            <stop stop-color="#6CAE3E" offset="100%"></stop>
        </linearGradient>
    </defs>
    <g id="Icon-Architecture-Category/48/Storage_48" stroke="none" stroke-width="1" fill="none" fill-rule="evenodd">
        <rect id="Rectangle" fill="url(#linearGradient-1)" x="5" y="5" width="64" height="64"></rect>
        <rect id="#879196-Border-Copy-24" stroke="#879196" stroke-width="2" x="1" y="1" width="72" height="72"></rect>
        <g id="Icon-Category/48/Storage_48" transform="translate(13.000000, 13.000000)" fill="#FFFFFF">
            <path d="M18,32 L30,32 L30.001,35 L18,35 L18,32 Z M18,37 L30,37 C31.103,37 32,36.103 32,35 L32,32 C32,30.897 31.103,30 30,30 L18,30 C16.897,30 16,30.897 16,32 L16,35 C16,36.103 16.897,37 18,37 L18,37 Z M16,21 L32,21 L32,19 L16,19 L16,21 Z M16,11 L22,11 L22,9 L16,9 L16,11 Z M16,16 L23,16 L23,14 L16,14 L16,16 Z M42,42.746 C42,43.438 41.437,44 40.746,44 L7.254,44 C6.562,44 6,43.438 6,42.746 L6,27 L42,27 L42,42.746 Z M13,4 L27,4 L27,11 C27,11.552 27.447,12 28,12 L35,12 L35,25 L13,25 L13,4 Z M29,5.414 L33.586,10 L29,10 L29,5.414 Z M43,25 L37,25 L37,11 L36.991,11 C36.99,10.74 36.898,10.484 36.707,10.293 L28.707,2.293 C28.516,2.102 28.26,2.01 28,2.009 L28,2 L12,2 C11.447,2 11,2.448 11,3 L11,25 L5,25 C4.447,25 4,25.448 4,26 L4,42.746 C4,44.541 5.46,46 7.254,46 L40.746,46 C42.54,46 44,44.541 44,42.746 L44,26 C44,25.448 43.553,25 43,25 L43,25 Z" id="Storage_Category-Icon_48_Squid"></path>
        </g>
    </g>
</svg>