<?xml version="1.0" encoding="UTF-8"?>
<svg width="74px" height="74px" viewBox="0 0 74 74" version="1.1" xmlns="http://www.w3.org/2000/svg" xmlns:xlink="http://www.w3.org/1999/xlink">
    <title>Icon-Architecture-Category/48/Internet-of-Things_48</title>
    <defs>
        <linearGradient x1="0%" y1="100%" x2="100%" y2="0%" id="linearGradient-1">
            <stop stop-color="#1B660F" offset="0%"></stop>
            <stop stop-color="#6CAE3E" offset="100%"></stop>
        </linearGradient>
    </defs>
    <g id="Icon-Architecture-Category/48/Internet-of-Things_48" stroke="none" stroke-width="1" fill="none" fill-rule="evenodd">
        <rect id="Rectangle" fill="url(#linearGradient-1)" x="5" y="5" width="64" height="64"></rect>
        <rect id="#879196-Border-Copy-13" stroke="#879196" stroke-width="2" x="1" y="1" width="72" height="72"></rect>
        <g id="Icon-Category/48/IoT_48" transform="translate(13.000000, 13.000000)" fill="#FFFFFF">
            <path d="M39,29.5 C36.243,29.5 34,27.257 34,24.5 C34,21.743 36.243,19.5 39,19.5 C41.757,19.5 44,21.743 44,24.5 C44,27.257 41.757,29.5 39,29.5 M30,40.366 L30,26 L32.166,26 C32.855,29.141 35.656,31.5 39,31.5 C39.059,31.5 39.115,31.493 39.173,31.491 C37.408,35.626 34.068,38.782 30,40.366 M25,41.46 L25,15.92 C28.046,15.481 30.459,13.079 30.914,10.038 C34.266,11.591 37.022,14.234 38.698,17.515 C35.146,17.667 32.276,20.474 32.025,24 L29,24 C28.447,24 28,24.448 28,25 L28,41.008 C27.027,41.25 26.023,41.399 25,41.46 M20,41.008 L20,25 C20,24.448 19.553,24 19,24 L15.975,24 C15.724,20.474 12.854,17.667 9.302,17.515 C10.978,14.234 13.734,11.591 17.086,10.038 C17.541,13.079 19.954,15.481 23,15.92 L23,41.46 C21.977,41.399 20.973,41.25 20,41.008 M8.827,31.491 C8.885,31.493 8.941,31.5 9,31.5 C12.344,31.5 15.145,29.141 15.834,26 L18,26 L18,40.366 C13.932,38.782 10.592,35.626 8.827,31.491 M4,24.5 C4,21.743 6.243,19.5 9,19.5 C11.757,19.5 14,21.743 14,24.5 C14,27.257 11.757,29.5 9,29.5 C6.243,29.5 4,27.257 4,24.5 M24,4 C26.757,4 29,6.243 29,9 C29,11.757 26.757,14 24,14 C21.243,14 19,11.757 19,9 C19,6.243 21.243,4 24,4 M41.031,17.803 C39.12,13.286 35.452,9.66 30.894,7.829 C30.334,4.526 27.46,2 24,2 C20.54,2 17.666,4.526 17.106,7.829 C12.548,9.66 8.88,13.286 6.969,17.803 C4.097,18.676 2,21.347 2,24.5 C2,27.484 3.881,30.031 6.516,31.036 C8.412,36.533 12.704,40.688 18,42.498 L18,46 L20,46 L20,43.055 C20.977,43.27 21.979,43.406 23,43.46 L23,46 L25,46 L25,43.46 C26.021,43.406 27.023,43.27 28,43.055 L28,46 L30,46 L30,42.498 C35.296,40.688 39.588,36.533 41.484,31.036 C44.119,30.031 46,27.484 46,24.5 C46,21.347 43.903,18.676 41.031,17.803" id="IoT_Category-Icon_48_Squid--"></path>
        </g>
    </g>
</svg>