<?xml version="1.0" encoding="UTF-8"?>
<svg width="48px" height="48px" viewBox="0 0 48 48" version="1.1" xmlns="http://www.w3.org/2000/svg" xmlns:xlink="http://www.w3.org/1999/xlink">
    <title>Icon-Resource/IoT/Res_Alexa_Voice-Service_48_Light</title>
    <g id="Icon-Resource/IoT/Res_Alexa_Voice-Service_48" stroke="none" stroke-width="1" fill="none" fill-rule="evenodd">
        <path d="M38.9257,43.2585 C41.3957,41.1305 42.9307,38.1495 42.9307,35.0245 C42.9307,30.6655 39.3837,27.1185 35.0247,27.1185 C30.6647,27.1185 27.1177,30.6655 27.1177,35.0245 C27.1177,38.2025 29.0127,41.0605 31.9457,42.3065 C32.2437,42.4325 32.4367,42.7115 32.4367,43.0165 L32.4367,43.7775 C32.1087,43.6805 31.7847,43.5655 31.4697,43.4315 C28.0847,41.9925 25.8977,38.6925 25.8977,35.0245 C25.8977,29.9925 29.9917,25.8975 35.0247,25.8975 C40.0577,25.8975 44.1527,29.9925 44.1527,35.0245 C44.1527,38.3415 42.3407,41.4055 39.4257,43.0195 C39.2637,43.1095 39.0927,43.1795 38.9257,43.2585 Z M29.1177,35.0245 C29.1177,31.7675 31.7677,29.1185 35.0247,29.1185 C38.2807,29.1185 40.9307,31.7675 40.9307,35.0245 C40.9307,38.7115 38.2657,42.1715 34.4367,43.6545 L34.4367,43.0165 C34.4367,41.9075 33.7657,40.9055 32.7267,40.4655 C30.5347,39.5345 29.1177,37.3985 29.1177,35.0245 Z M9.1677,39.7485 C8.6807,39.7485 8.2837,39.3565 8.2837,38.8735 L8.2837,9.1765 C8.2837,8.6945 8.6807,8.3015 9.1677,8.3015 L38.8637,8.3015 C39.3527,8.3015 39.7487,8.6945 39.7487,9.1765 L39.7487,24.9645 C38.3127,24.2875 36.7147,23.8975 35.0247,23.8975 C28.8887,23.8975 23.8977,28.8885 23.8977,35.0245 C23.8977,36.6935 24.2697,38.2995 24.9487,39.7485 L9.1677,39.7485 Z M46.0327,25.0165 L46.0327,23.0165 L41.7487,23.0165 L41.7487,19.7325 L46.0327,19.7325 L46.0327,17.7325 L41.7487,17.7325 L41.7487,14.4485 L46.0327,14.4485 L46.0327,12.4485 L41.7487,12.4485 L41.7487,9.1765 C41.7487,7.5915 40.4547,6.3015 38.8637,6.3015 L35.5837,6.3015 L35.5837,1.9995 L33.5837,1.9995 L33.5837,6.3015 L30.3007,6.3015 L30.3007,1.9995 L28.3007,1.9995 L28.3007,6.3015 L25.0167,6.3015 L25.0167,1.9995 L23.0167,1.9995 L23.0167,6.3015 L19.7327,6.3015 L19.7327,1.9995 L17.7327,1.9995 L17.7327,6.3015 L14.4477,6.3015 L14.4477,1.9995 L12.4477,1.9995 L12.4477,6.3015 L9.1677,6.3015 C7.5777,6.3015 6.2837,7.5915 6.2837,9.1765 L6.2837,12.4485 L1.9997,12.4485 L1.9997,14.4485 L6.2837,14.4485 L6.2837,17.7325 L1.9997,17.7325 L1.9997,19.7325 L6.2837,19.7325 L6.2837,23.0165 L1.9997,23.0165 L1.9997,25.0165 L6.2837,25.0165 L6.2837,28.3005 L1.9997,28.3005 L1.9997,30.3005 L6.2837,30.3005 L6.2837,33.5835 L1.9997,33.5835 L1.9997,35.5835 L6.2837,35.5835 L6.2837,38.8735 C6.2837,40.4585 7.5777,41.7485 9.1677,41.7485 L12.4477,41.7485 L12.4477,46.0335 L14.4477,46.0335 L14.4477,41.7485 L17.7327,41.7485 L17.7327,46.0335 L19.7327,46.0335 L19.7327,41.7485 L23.0167,41.7485 L23.0167,46.0335 L25.0167,46.0335 L25.0167,39.8825 C26.1687,42.2545 28.1507,44.1935 30.6867,45.2715 C32.0597,45.8565 33.5197,46.1525 35.0247,46.1525 C36.9007,46.1525 38.7567,45.6735 40.3937,44.7695 C43.9457,42.8025 46.1527,39.0695 46.1527,35.0245 C46.1527,30.6225 43.5747,26.8195 39.8567,25.0165 L46.0327,25.0165 Z" id="Amazon-IOT-RESOURCES-Alexa-Voice-Service_Resource-Icon_light-bg" fill="#3F8624"></path>
    </g>
</svg>