<?xml version="1.0" encoding="UTF-8"?>
<svg width="48px" height="48px" viewBox="0 0 48 48" version="1.1" xmlns="http://www.w3.org/2000/svg" xmlns:xlink="http://www.w3.org/1999/xlink">
    <title>Icon-Resource/IoT/Res_IoT_Actuator_48_Light</title>
    <g id="Icon-Resource/IoT/Res_IoT_Actuator_48" stroke="none" stroke-width="1" fill="none" fill-rule="evenodd">
        <path d="M35.573,40.4535463 L37.922,40.4535463 L37.922,38.1045463 L35.573,38.1045463 L35.573,40.4535463 Z M33.573,37.1045463 C33.573,36.5515463 34.02,36.1045463 34.573,36.1045463 L38.922,36.1045463 C39.475,36.1045463 39.922,36.5515463 39.922,37.1045463 L39.922,41.4535463 C39.922,42.0055463 39.475,42.4535463 38.922,42.4535463 L34.573,42.4535463 C34.02,42.4535463 33.573,42.0055463 33.573,41.4535463 L33.573,37.1045463 Z M22.637,40.3895463 L25.635,40.3895463 L24.136,38.3575463 L22.637,40.3895463 Z M19.851,40.7955463 L23.331,36.0785463 C23.708,35.5675463 24.563,35.5675463 24.94,36.0785463 L28.42,40.7955463 C28.643,41.0995463 28.678,41.5035463 28.508,41.8405463 C28.338,42.1765463 27.992,42.3895463 27.615,42.3895463 L20.656,42.3895463 C20.279,42.3895463 19.934,42.1765463 19.764,41.8405463 C19.594,41.5035463 19.628,41.0995463 19.851,40.7955463 Z M11.523,40.6075463 C12.291,40.6075463 12.916,39.9835463 12.916,39.2155463 C12.916,38.4485463 12.291,37.8235463 11.523,37.8235463 C10.756,37.8235463 10.132,38.4485463 10.132,39.2155463 C10.132,39.9835463 10.756,40.6075463 11.523,40.6075463 Z M11.523,35.8235463 C13.394,35.8235463 14.916,37.3445463 14.916,39.2155463 C14.916,41.0855463 13.394,42.6075463 11.523,42.6075463 C9.653,42.6075463 8.132,41.0855463 8.132,39.2155463 C8.132,37.3445463 9.653,35.8235463 11.523,35.8235463 Z M6,43.9325463 L42.271,43.9325463 L42.271,34.6245463 L6,34.6245463 L6,43.9325463 Z M44.271,44.9325463 C44.271,45.4855463 43.824,45.9325463 43.271,45.9325463 L5,45.9325463 C4.447,45.9325463 4,45.4855463 4,44.9325463 L4,33.6245463 C4,33.0725463 4.447,32.6245463 5,32.6245463 L43.271,32.6245463 C43.824,32.6245463 44.271,33.0725463 44.271,33.6245463 L44.271,44.9325463 Z M26.18,17.9055463 C26.18,16.7785463 25.263,15.8615463 24.136,15.8615463 C23.009,15.8615463 22.092,16.7785463 22.092,17.9055463 C22.092,19.0335463 23.009,19.9505463 24.136,19.9505463 C25.263,19.9505463 26.18,19.0335463 26.18,17.9055463 Z M23.136,28.5375463 L23.136,21.8095463 C21.392,21.3615463 20.092,19.7875463 20.092,17.9055463 C20.092,15.6755463 21.906,13.8615463 24.136,13.8615463 C26.365,13.8615463 28.18,15.6755463 28.18,17.9055463 C28.18,19.7875463 26.881,21.3615463 25.136,21.8095463 L25.136,28.5375463 L26.908,26.7665463 L28.322,28.1805463 L24.843,31.6595463 C24.647,31.8545463 24.392,31.9525463 24.136,31.9525463 C23.88,31.9525463 23.624,31.8545463 23.429,31.6595463 L19.949,28.1805463 L21.363,26.7665463 L23.136,28.5375463 Z M4.679,19.9145463 C4.679,16.4725463 6.534,13.8435463 9.689,12.7365463 C9.683,12.5895463 9.68,12.4455463 9.68,12.3035463 C9.68,8.3945463 12.329,4.3365463 15.844,2.8665463 C19.941,1.1545463 24.286,2.0105463 27.466,5.1575463 C28.362,6.0395463 29.112,7.1015463 29.705,8.3245463 C30.888,7.4955463 32.365,7.2265463 33.78,7.6435463 C35.799,8.2405463 37.17,10.0375463 37.533,12.5155463 C40.589,13.2905463 43.593,15.5895463 43.593,19.9755463 C43.593,25.5555463 38.957,27.4035463 36.506,27.6005463 L30.224,27.5945463 L30.225,25.5945463 L36.427,25.6035463 C36.557,25.5875463 41.593,25.0885463 41.593,19.9755463 C41.593,15.6795463 37.981,14.5925463 36.43,14.3245463 C35.913,14.2355463 35.556,13.7645463 35.603,13.2465463 C35.447,11.3325463 34.559,9.9585463 33.213,9.5615463 C32.106,9.2325463 30.914,9.6495463 30.168,10.6215463 C29.988,10.8835463 29.686,11.0565463 29.346,11.0565463 C28.885,11.0565463 28.496,10.7465463 28.381,10.3245463 C27.833,8.8175463 27.053,7.5575463 26.06,6.5805463 C24.817,5.3485463 21.407,2.7065463 16.615,4.7115463 C13.848,5.8695463 11.68,9.2045463 11.68,12.3035463 C11.68,12.6565463 11.704,13.0095463 11.742,13.3465463 C11.8,13.8445463 11.479,14.3085463 10.993,14.4305463 C9.382,14.8365463 6.679,16.0895463 6.679,19.9145463 C6.679,20.0795463 6.687,20.2455463 6.695,20.4035463 C6.876,23.2995463 9.425,25.5775463 12.498,25.5775463 L18.049,25.5855463 L18.045,27.5855463 L12.496,27.5775463 C8.371,27.5775463 4.945,24.4755463 4.698,20.5165463 C4.687,20.3145463 4.679,20.1155463 4.679,19.9145463 Z" id="Amazon-IOT-RESOURCES-IoT-actuator_Resource-Icon_light-bg" fill="#3F8624"></path>
    </g>
</svg>