<?xml version="1.0" encoding="UTF-8"?>
<svg width="48px" height="48px" viewBox="0 0 48 48" version="1.1" xmlns="http://www.w3.org/2000/svg" xmlns:xlink="http://www.w3.org/1999/xlink">
    <title>Icon-Resource/IoT/Res_AWS-IoT-Analytics_Notebook_48_Light</title>
    <g id="Icon-Resource/IoT/Res_AWS-IoT-Analytics_Notebook_48" stroke="none" stroke-width="1" fill="none" fill-rule="evenodd">
        <path d="M7.972,2 L7.972,7.206 L5,7.206 L5,9.206 L7.972,9.206 L7.972,12.467 L5,12.467 L5,14.467 L7.972,14.467 L7.972,17.781 L5,17.781 L5,19.78 L7.972,19.78 L7.972,23.055 L5,23.055 L5,25.054 L7.972,25.054 L7.972,28.247 L5,28.247 L5,30.247 L7.972,30.247 L7.972,33.48 L5,33.48 L5,35.48 L7.972,35.48 L7.972,38.794 L5,38.794 L5,40.794 L7.972,40.794 L7.972,45.973 L43.586,45.973 L43.586,2 L7.972,2 Z M9.972,4.001 L41.586,4.001 L41.586,43.973 L9.972,43.973 L9.972,40.794 L13.051,40.794 L13.051,38.794 L9.972,38.794 L9.972,35.48 L13.051,35.48 L13.051,33.48 L9.972,33.48 L9.972,30.247 L13.051,30.247 L13.051,28.247 L9.972,28.247 L9.972,25.054 L13.051,25.054 L13.051,23.055 L9.972,23.055 L9.972,19.78 L13.051,19.78 L13.051,17.781 L9.972,17.781 L9.972,14.467 L13.051,14.467 L13.051,12.467 L9.972,12.467 L9.972,9.206 L13.051,9.206 L13.051,7.206 L9.972,7.206 L9.972,4.001 Z M16.861,9.206 L36.559,9.206 L36.559,7.206 L16.861,7.206 L16.861,9.206 Z M16.861,15.594 L36.559,15.594 L36.559,13.593 L16.861,13.593 L16.861,15.594 Z M16.861,21.927 L36.559,21.927 L36.559,19.927 L16.861,19.927 L16.861,21.927 Z M16.861,28.314 L26.764,28.314 L26.764,26.313 L16.861,26.313 L16.861,28.314 Z" id="AWS-IoT-Analytics-Notebook_Resource-Icon_light-bg" fill="#3F8624"></path>
    </g>
</svg>