<?xml version="1.0" encoding="UTF-8"?>
<svg width="48px" height="48px" viewBox="0 0 48 48" version="1.1" xmlns="http://www.w3.org/2000/svg" xmlns:xlink="http://www.w3.org/1999/xlink">
    <title>Icon-Resource/IoT/Res_IoT_Action_48_Light</title>
    <g id="Icon-Resource/IoT/Res_IoT_Action_48" stroke="none" stroke-width="1" fill="none" fill-rule="evenodd">
        <path d="M32.5463,23.2744 C32.9063,23.6594 32.9063,24.2564 32.5463,24.6414 L19.4483,38.6124 L17.9893,37.2454 L30.4453,23.9584 L17.9893,10.6704 L19.4483,9.3024 L32.5463,23.2744 Z M4.0003,23.9584 C4.0003,12.9534 12.9533,4.0004 23.9583,4.0004 C34.9623,4.0004 43.9153,12.9534 43.9153,23.9584 C43.9153,34.9624 34.9623,43.9154 23.9583,43.9154 C12.9533,43.9154 4.0003,34.9624 4.0003,23.9584 Z M2.0003,23.9584 C2.0003,36.0654 11.8513,45.9154 23.9583,45.9154 C36.0663,45.9154 45.9153,36.0654 45.9153,23.9584 C45.9153,11.8504 36.0663,2.0004 23.9583,2.0004 C11.8513,2.0004 2.0003,11.8504 2.0003,23.9584 Z" id="Amazon-IOT-RESOURCES-IoT-action_Resource-Icon_light-bg" fill="#3F8624"></path>
    </g>
</svg>