<?xml version="1.0" encoding="UTF-8"?>
<svg width="48px" height="48px" viewBox="0 0 48 48" version="1.1" xmlns="http://www.w3.org/2000/svg" xmlns:xlink="http://www.w3.org/1999/xlink">
    <title>Icon-Resource/IoT/Res_Data-Set_48_Light</title>
    <g id="Icon-Resource/IoT/Res_Data-Set_48" stroke="none" stroke-width="1" fill="none" fill-rule="evenodd">
        <path d="M6,40.457 L34.888,40.457 L34.888,2 L6,2 L6,40.457 Z M8,38.457 L32.889,38.457 L32.889,4 L8,4 L8,38.457 Z M36.651,5.557 L36.651,7.557 L39.33,7.557 L39.33,44 L12.56,44 L12.56,42.178 L10.56,42.178 L10.56,46 L41.33,46 L41.33,5.557 L36.651,5.557 Z M28.175,10.176 L30.555,10.176 L30.555,8.176 L28.175,8.176 L28.175,10.176 Z M10.25,10.176 L26.588,10.176 L26.588,8.176 L10.25,8.176 L10.25,10.176 Z M19.332,16.223 L30.556,16.223 L30.556,14.223 L19.332,14.223 L19.332,16.223 Z M14.08,16.223 L17.933,16.223 L17.933,14.223 L14.08,14.223 L14.08,16.223 Z M10.25,16.223 L12.266,16.223 L12.266,14.223 L10.25,14.223 L10.25,16.223 Z M18.35,22.269 L30.556,22.269 L30.556,20.269 L18.35,20.269 L18.35,22.269 Z M10.25,22.269 L16.838,22.269 L16.838,20.269 L10.25,20.269 L10.25,22.269 Z M10.25,28.315 L30.556,28.315 L30.556,26.315 L10.25,26.315 L10.25,28.315 Z M26.928,34.286 L30.556,34.286 L30.556,32.285 L26.928,32.285 L26.928,34.286 Z M10.25,34.286 L24.963,34.286 L24.963,32.285 L10.25,32.285 L10.25,34.286 Z" id="Amazon-IOT-RESOURCES-IoT-Data-Set_Resource-Icon_light-bg" fill="#3F8624"></path>
    </g>
</svg>