<?xml version="1.0" encoding="UTF-8"?>
<svg width="48px" height="48px" viewBox="0 0 48 48" version="1.1" xmlns="http://www.w3.org/2000/svg" xmlns:xlink="http://www.w3.org/1999/xlink">
    <title>Icon-Resource/IoT/Res_Alexa_Skill_48_Light</title>
    <g id="Icon-Resource/IoT/Res_Alexa_Skill_48" stroke="none" stroke-width="1" fill="none" fill-rule="evenodd">
        <path d="M26.734,36.476 C31.203,33.628 34.115,28.915 34.115,23.933 C34.115,18.135 29.398,13.417 23.599,13.417 C17.8,13.417 13.082,18.135 13.082,23.933 C13.082,28.162 15.603,31.964 19.503,33.62 C20.054,33.853 20.41,34.375 20.41,34.947 L20.41,36.468 C19.778,36.309 19.153,36.122 18.552,35.866 C13.747,33.823 10.643,29.139 10.643,23.933 C10.643,16.79 16.455,10.977 23.599,10.977 C30.742,10.977 36.555,16.79 36.555,23.933 C36.555,28.642 33.984,32.991 29.844,35.281 C28.865,35.822 27.815,36.21 26.734,36.476 Z M15.082,23.933 C15.082,19.237 18.903,15.417 23.599,15.417 C28.295,15.417 32.115,19.237 32.115,23.933 C32.115,29.333 28.104,34.385 22.41,36.367 L22.41,34.947 C22.41,33.57 21.575,32.326 20.284,31.778 C17.124,30.437 15.082,27.358 15.082,23.933 Z M8.643,23.933 C8.643,29.943 12.225,35.349 17.77,37.706 C18.894,38.183 20.064,38.5 21.26,38.689 C21.311,38.696 21.359,38.714 21.41,38.714 C21.412,38.714 21.415,38.713 21.418,38.713 C22.136,38.818 22.862,38.889 23.599,38.889 C26.121,38.889 28.615,38.247 30.813,37.031 C35.588,34.388 38.555,29.37 38.555,23.933 C38.555,15.686 31.846,8.977 23.599,8.977 C15.352,8.977 8.643,15.686 8.643,23.933 Z M43.868,39.42 C43.868,41.873 41.873,43.868 39.421,43.868 L8.448,43.868 C5.995,43.868 4,41.873 4,39.42 L4,8.448 C4,5.995 5.995,4 8.448,4 L39.421,4 C41.873,4 43.868,5.995 43.868,8.448 L43.868,39.42 Z M8.448,2 C4.893,2 2,4.892 2,8.448 L2,39.42 C2,42.975 4.893,45.868 8.448,45.868 L39.421,45.868 C42.976,45.868 45.868,42.975 45.868,39.42 L45.868,8.448 C45.868,4.892 42.976,2 39.421,2 L8.448,2 Z" id="Amazon-IOT-RESOURCES-Alexa-skill_Resource-Icon_light-bg" fill="#3F8624"></path>
    </g>
</svg>