<?xml version="1.0" encoding="UTF-8"?>
<svg width="48px" height="48px" viewBox="0 0 48 48" version="1.1" xmlns="http://www.w3.org/2000/svg" xmlns:xlink="http://www.w3.org/1999/xlink">
    <title>Icon-Resource/IoT/Res_IoT_Desired-State_48_Light</title>
    <g id="Icon-Resource/IoT/Res_IoT_Desired-State_48" stroke="none" stroke-width="1" fill="none" fill-rule="evenodd">
        <path d="M35.437,36.055 L38.676,36.055 L38.676,32.816 L35.437,32.816 L35.437,36.055 Z M40.676,37.056 C40.676,37.608 40.229,38.056 39.676,38.056 L34.437,38.056 C33.884,38.056 33.437,37.608 33.437,37.056 L33.437,31.816 C33.437,31.264 33.884,30.816 34.437,30.816 L39.676,30.816 C40.229,30.816 40.676,31.264 40.676,31.816 L40.676,37.056 Z M23.104,36.056 L24.811,36.056 L23.957,34.633 L23.104,36.056 Z M20.481,36.541 L23.1,32.175 C23.461,31.573 24.454,31.573 24.815,32.175 L27.435,36.541 C27.621,36.85 27.625,37.234 27.448,37.548 C27.27,37.862 26.938,38.056 26.578,38.056 L21.338,38.056 C20.978,38.056 20.646,37.862 20.468,37.549 C20.29,37.235 20.295,36.851 20.481,36.541 Z M10.86,36.056 C11.512,36.056 12.042,35.524 12.042,34.872 C12.042,34.22 11.512,33.689 10.86,33.689 C10.207,33.689 9.676,34.22 9.676,34.872 C9.676,35.524 10.207,36.056 10.86,36.056 Z M10.86,31.689 C12.615,31.689 14.042,33.117 14.042,34.872 C14.042,36.628 12.615,38.056 10.86,38.056 C9.104,38.056 7.676,36.628 7.676,34.872 C7.676,33.117 9.104,31.689 10.86,31.689 Z M32.817,39.549 L41.296,39.549 L41.296,15.352 L32.817,15.352 L32.817,39.549 Z M30.817,14.352 C30.817,13.799 31.264,13.351 31.817,13.351 L42.295,13.351 C42.848,13.351 43.295,13.799 43.295,14.352 L43.295,40.549 C43.295,41.102 42.848,41.549 42.295,41.549 L31.817,41.549 C31.264,41.549 30.817,41.102 30.817,40.549 L30.817,14.352 Z M19.719,39.549 L28.198,39.549 L28.198,10.112 L19.719,10.112 L19.719,39.549 Z M18.718,41.549 C18.165,41.549 17.718,41.102 17.718,40.549 L17.718,9.112 C17.718,8.56 18.165,8.112 18.718,8.112 L29.198,8.112 C29.75,8.112 30.198,8.56 30.198,9.112 L30.198,40.549 C30.198,41.102 29.75,41.549 29.198,41.549 L18.718,41.549 Z M6.62,39.549 L15.099,39.549 L15.099,22.338 L6.62,22.338 L6.62,39.549 Z M17.099,40.549 C17.099,41.102 16.652,41.549 16.099,41.549 L5.621,41.549 C5.068,41.549 4.621,41.102 4.621,40.549 L4.621,21.338 C4.621,20.785 5.068,20.338 5.621,20.338 L16.099,20.338 C16.652,20.338 17.099,20.785 17.099,21.338 L17.099,40.549 Z M23.236,45.914 L27.294,45.914 L27.294,43.914 L23.236,43.914 L23.236,45.914 Z M17.149,45.914 L21.208,45.914 L21.208,43.914 L17.149,43.914 L17.149,45.914 Z M29.323,45.914 L33.381,45.914 L33.381,43.914 L29.323,43.914 L29.323,45.914 Z M43.915,27.675 L45.915,27.675 L45.915,23.616 L43.915,23.616 L43.915,27.675 Z M43.915,21.588 L45.915,21.588 L45.915,17.53 L43.915,17.53 L43.915,21.588 Z M43.915,15.501 L45.915,15.501 L45.915,11.443 L43.915,11.443 L43.915,15.501 Z M43.22,6.06 C43.675,6.772 43.915,7.598 43.915,8.448 L43.915,9.414 L45.915,9.414 L45.915,8.448 C45.915,7.216 45.566,6.018 44.906,4.983 L43.22,6.06 Z M43.915,39.467 C43.915,39.571 43.912,39.675 43.904,39.778 L45.9,39.917 C45.91,39.768 45.915,39.618 45.915,39.467 L45.915,35.79 L43.915,35.79 L43.915,39.467 Z M41.884,45.445 C43.389,44.836 44.6,43.693 45.296,42.226 L43.49,41.369 C43.009,42.382 42.172,43.171 41.134,43.592 L41.884,45.445 Z M35.41,43.914 L35.41,45.914 L39.531,45.914 L39.467,43.914 L35.41,43.914 Z M43.915,33.761 L45.915,33.761 L45.915,29.703 L43.915,29.703 L43.915,33.761 Z M11.063,45.914 L15.121,45.914 L15.121,43.914 L11.063,43.914 L11.063,45.914 Z M6.069,2.454 C4.56,3.052 3.341,4.188 2.635,5.653 L4.438,6.52 C4.924,5.51 5.765,4.726 6.805,4.313 L6.069,2.454 Z M12.474,4 L12.474,2 L8.419,2.001 L8.418,2.151 L8.449,4 L12.474,4 Z M20.59,4 L24.648,4 L24.648,2 L20.59,2 L20.59,4 Z M4.613,44.649 C5.73,45.477 7.056,45.914 8.449,45.914 L9.034,45.914 L9.034,43.914 L8.449,43.914 C7.488,43.914 6.573,43.612 5.802,43.042 L4.613,44.649 Z M43.274,3.243 C42.163,2.43 40.846,2 39.467,2 L38.85,2 L38.85,4 L39.467,4 C40.418,4 41.327,4.296 42.092,4.856 L43.274,3.243 Z M4,8.448 C4,8.336 4.004,8.225 4.013,8.113 L2.019,7.957 C2.006,8.119 2,8.283 2,8.448 L2,12.092 L4,12.092 L4,8.448 Z M26.677,4 L30.735,4 L30.735,2 L26.677,2 L26.677,4 Z M32.763,4 L36.821,4 L36.821,2 L32.763,2 L32.763,4 Z M14.503,4 L18.561,4 L18.561,2 L14.503,2 L14.503,4 Z M2,24.266 L4,24.266 L4,20.208 L2,20.208 L2,24.266 Z M4,38.468 L2,38.468 L2,39.467 C2,40.685 2.342,41.873 2.99,42.899 L4.681,41.833 C4.236,41.126 4,40.308 4,39.467 L4,38.468 Z M2,30.353 L4,30.353 L4,26.295 L2,26.295 L2,30.353 Z M2,18.179 L4,18.179 L4,14.121 L2,14.121 L2,18.179 Z M2,36.439 L4,36.439 L4,32.38 L2,32.38 L2,36.439 Z" id="Amazon-IOT-RESOURCES-IoT-desired-state_Resource-Icon_light-bg" fill="#3F8624"></path>
    </g>
</svg>