<?xml version="1.0" encoding="UTF-8"?>
<svg width="48px" height="48px" viewBox="0 0 48 48" version="1.1" xmlns="http://www.w3.org/2000/svg" xmlns:xlink="http://www.w3.org/1999/xlink">
    <title>Icon-Resource/IoT/Res_AWS-loT-Device-Defender_IoT-Device-Jobs_48_Light</title>
    <g id="Icon-Resource/IoT/Res_AWS-loT-Device-Defender_IoT-Device-Jobs_48" stroke="none" stroke-width="1" fill="none" fill-rule="evenodd">
        <path d="M10,17 L21,17 L21,15 L10,15 L10,17 Z M10,12 L27,12 L27,10 L10,10 L10,12 Z M30.5,33 C28.571,33 27,31.43 27,29.5 C27,27.57 28.571,26 30.5,26 C32.43,26 34,27.57 34,29.5 C34,31.43 32.43,33 30.5,33 L30.5,33 Z M30.5,24 C27.467,24 25,26.467 25,29.5 C25,32.533 27.467,35 30.5,35 C33.532,35 36,32.533 36,29.5 C36,26.467 33.532,24 30.5,24 L30.5,24 Z M40,30.528 L39.315,30.488 C38.85,30.465 38.389,30.79 38.282,31.268 C38.083,32.15 37.737,32.986 37.252,33.754 C36.993,34.168 37.069,34.709 37.432,35.033 L37.944,35.49 L36.491,36.944 L36.038,36.436 C35.711,36.07 35.168,35.994 34.756,36.256 C33.989,36.74 33.151,37.088 32.268,37.287 C31.79,37.395 31.461,37.832 31.489,38.32 L31.528,39 L29.471,39 L29.51,38.318 C29.54,37.831 29.209,37.395 28.733,37.286 C27.852,37.087 27.014,36.739 26.245,36.254 C25.833,35.993 25.29,36.068 24.965,36.434 L24.508,36.945 L23.055,35.49 L23.565,35.036 C23.93,34.711 24.006,34.17 23.747,33.756 C23.262,32.988 22.915,32.15 22.715,31.268 C22.608,30.79 22.161,30.465 21.682,30.488 L21,30.527 L21,28.472 L21.687,28.512 C22.149,28.531 22.61,28.211 22.719,27.734 C22.92,26.851 23.266,26.015 23.75,25.25 C24.012,24.837 23.936,24.295 23.571,23.97 L23.055,23.51 L24.51,22.055 L24.969,22.57 C25.295,22.936 25.836,23.01 26.25,22.75 C27.014,22.268 27.85,21.922 28.733,21.723 C29.209,21.614 29.54,21.178 29.51,20.689 L29.471,20 L31.528,20 L31.489,20.69 C31.461,21.178 31.79,21.615 32.266,21.723 C33.149,21.923 33.985,22.27 34.75,22.752 C35.161,23.012 35.704,22.938 36.03,22.572 L36.491,22.055 L37.946,23.51 L37.43,23.969 C37.067,24.294 36.991,24.836 37.25,25.248 C37.735,26.014 38.081,26.85 38.282,27.733 C38.389,28.211 38.85,28.531 39.313,28.512 L40,28.472 L40,30.528 Z M41.686,26.686 C41.487,26.498 41.215,26.404 40.944,26.414 L40.008,26.469 C39.838,25.935 39.624,25.418 39.368,24.921 L40.067,24.297 C40.272,24.113 40.393,23.854 40.401,23.579 C40.409,23.305 40.301,23.038 40.108,22.844 L37.157,19.893 C36.961,19.697 36.694,19.589 36.42,19.6 C36.145,19.607 35.887,19.729 35.704,19.934 L35.077,20.637 C34.581,20.38 34.065,20.166 33.532,19.996 L33.584,19.057 C33.6,18.782 33.502,18.514 33.313,18.313 C33.125,18.113 32.862,18 32.586,18 L28.413,18 C28.137,18 27.875,18.113 27.686,18.313 C27.497,18.514 27.399,18.782 27.415,19.057 L27.467,19.994 C26.936,20.164 26.418,20.378 25.922,20.635 L25.297,19.934 C25.114,19.729 24.854,19.607 24.579,19.6 C24.307,19.592 24.038,19.697 23.844,19.893 L20.893,22.844 C20.698,23.038 20.592,23.305 20.6,23.579 C20.608,23.854 20.729,24.113 20.934,24.297 L21.635,24.922 C21.377,25.419 21.163,25.936 20.993,26.469 L20.057,26.414 C19.786,26.402 19.512,26.498 19.313,26.686 C19.114,26.875 19,27.139 19,27.413 L19,31.587 C19,31.861 19.114,32.125 19.313,32.314 C19.514,32.503 19.772,32.6 20.057,32.586 L20.989,32.532 C21.159,33.066 21.372,33.584 21.629,34.082 L20.934,34.703 C20.729,34.886 20.608,35.146 20.6,35.42 C20.592,35.695 20.698,35.962 20.893,36.156 L23.844,39.107 C24.038,39.303 24.303,39.416 24.579,39.4 C24.854,39.393 25.114,39.271 25.297,39.066 L25.918,38.37 C26.417,38.628 26.934,38.843 27.467,39.014 L27.415,39.943 C27.399,40.217 27.497,40.486 27.686,40.687 C27.875,40.887 28.137,41 28.413,41 L32.586,41 C32.862,41 33.125,40.887 33.315,40.687 C33.502,40.486 33.6,40.217 33.584,39.943 L33.532,39.015 C34.067,38.845 34.584,38.63 35.084,38.371 L35.704,39.066 C35.885,39.271 36.145,39.393 36.42,39.4 C36.668,39.418 36.961,39.303 37.157,39.107 L40.108,36.156 C40.301,35.962 40.409,35.695 40.401,35.421 C40.393,35.146 40.272,34.887 40.067,34.703 L39.368,34.08 C39.625,33.583 39.84,33.065 40.01,32.531 L40.944,32.586 C41.213,32.598 41.487,32.502 41.686,32.314 C41.887,32.125 42,31.861 42,31.587 L42,27.413 C42,27.139 41.887,26.875 41.686,26.686 L41.686,26.686 Z M32,5.414 L36.586,10 L32,10 L32,5.414 Z M38,44 L8,44 L8,4 L30,4 L30,11 C30,11.553 30.448,12 31,12 L38,12 L38,17 L40,17 L40,11 L39.991,11 C39.991,10.74 39.898,10.484 39.708,10.293 L31.708,2.293 C31.516,2.102 31.26,2.01 31,2.01 L31,2 L7,2 C6.448,2 6,2.447 6,3 L6,45 C6,45.553 6.448,46 7,46 L39,46 C39.553,46 40,45.553 40,45 L40,41 L38,41 L38,44 Z" id="AWS-IoT-Device-Defender-RESOURCES-IoT-Device-Jobs_Resource-Icon_light-bg" fill="#3F8624"></path>
    </g>
</svg>