<?xml version="1.0" encoding="UTF-8"?>
<svg width="48px" height="48px" viewBox="0 0 48 48" version="1.1" xmlns="http://www.w3.org/2000/svg" xmlns:xlink="http://www.w3.org/1999/xlink">
    <title>Icon-Resource/IoT/Res_Echo_48_Light</title>
    <g id="Icon-Resource/IoT/Res_Echo_48" stroke="none" stroke-width="1" fill="none" fill-rule="evenodd">
        <path d="M33.9437,26.4878 C31.7667,27.6348 28.1137,28.1718 24.4757,28.1718 C20.8327,28.1718 17.1757,27.6338 14.9987,26.4828 L14.9997,41.0268 C16.1437,42.4018 19.2157,43.9018 24.4757,43.9018 C29.7717,43.9018 32.8437,42.3898 33.9657,41.0098 L33.9437,26.4878 Z M14.9987,23.9138 C14.9997,24.5358 17.9137,26.1718 24.4757,26.1718 C30.8997,26.1718 33.8197,24.6068 33.9397,23.9568 L33.9377,22.5538 C31.7597,23.6998 28.1107,24.2358 24.4757,24.2358 C20.8317,24.2358 17.1757,23.6978 14.9987,22.5458 L14.9987,23.9138 Z M14.9987,19.9768 C14.9997,20.5988 17.9137,22.2358 24.4757,22.2358 C30.8267,22.2358 33.7517,20.7038 33.9337,20.0418 L33.9167,9.2578 C31.7637,10.4328 28.0977,10.9828 24.4447,10.9828 C20.8057,10.9828 17.1547,10.4378 14.9977,9.2728 L14.9987,19.9768 Z M24.4447,8.9828 C30.6587,8.9828 33.5677,7.4928 33.8177,6.8178 C33.7327,6.5808 33.5917,6.3608 33.3757,6.1458 C31.5837,4.3608 26.2657,3.9888 24.4087,3.9998 C16.8307,3.9998 15.3487,6.1138 15.0667,6.7948 C15.2587,7.4598 18.1607,8.9828 24.4447,8.9828 Z M35.9667,41.3588 C35.9667,41.6208 35.8637,41.8738 35.6797,42.0618 C34.2947,43.9438 30.6647,45.9018 24.4757,45.9018 C18.1487,45.9018 14.4887,43.8478 13.1747,41.9248 C13.0607,41.7588 12.9997,41.5618 12.9997,41.3608 L12.9997,6.9528 C13.0067,6.4338 13.3857,1.9998 24.4037,1.9998 C25.1537,2.0018 32.0807,2.0358 34.7857,4.7268 C35.5337,5.4718 35.9137,6.3498 35.9137,7.3378 L35.9337,19.9768 L35.9507,19.9768 C35.9507,20.0248 35.9377,20.0698 35.9337,20.1158 L35.9397,23.9138 L35.9507,23.9138 C35.9507,23.9458 35.9417,23.9738 35.9407,24.0048 L35.9667,41.3588 Z M19.1907,5.4138 C20.1307,5.4138 20.8927,5.7868 20.8927,6.2468 C20.8927,6.7068 20.1307,7.0798 19.1907,7.0798 C18.2497,7.0798 17.4877,6.7068 17.4877,6.2468 C17.4877,5.7868 18.2497,5.4138 19.1907,5.4138 Z" id="Amazon-IOT-RESOURCES-Echo_Resource-Icon_light-bg" fill="#3F8624"></path>
    </g>
</svg>