<?xml version="1.0" encoding="UTF-8"?>
<svg width="64px" height="64px" viewBox="0 0 64 64" version="1.1" xmlns="http://www.w3.org/2000/svg" xmlns:xlink="http://www.w3.org/1999/xlink">
    <title>Icon-Architecture/48/Arch_AWS-IoT-EduKit_48</title>
    <defs>
        <linearGradient x1="0%" y1="100%" x2="100%" y2="0%" id="linearGradient-1">
            <stop stop-color="#1B660F" offset="0%"></stop>
            <stop stop-color="#6CAE3E" offset="100%"></stop>
        </linearGradient>
    </defs>
    <g id="Icon-Architecture/48/Arch_AWS-IoT-EduKit_48" stroke="none" stroke-width="1" fill="none" fill-rule="evenodd">
        <g id="Rectangle" fill="url(#linearGradient-1)">
            <rect x="0" y="0" width="64" height="64"></rect>
        </g>
        <g id="Icon-Service/48/AWS-IoT-EduKit_48" transform="translate(8.000000, 8.000000)" fill="#FFFFFF">
            <path d="M13,36 C11.897,36 11,35.103 11,34 C11,32.897 11.897,32 13,32 C14.103,32 15,32.897 15,34 C15,35.103 14.103,36 13,36 M19,26.565 L19,33 L16.858,33 C16.411,31.28 14.859,30 13,30 C10.794,30 9,31.794 9,34 C9,36.206 10.794,38 13,38 C14.859,38 16.411,36.72 16.858,35 L20,35 C20.553,35 21,34.552 21,34 L21,26.832 C20.323,26.764 19.657,26.677 19,26.565 M24,44 C22.897,44 22,43.103 22,42 C22,40.897 22.897,40 24,40 C25.103,40 26,40.897 26,42 C26,43.103 25.103,44 24,44 M25,38.142 L25,26.967 C24.676,26.977 24.325,27 24,27 C23.655,27 23.344,26.974 23,26.963 L23,38.142 C21.28,38.589 20,40.142 20,42 C20,44.206 21.794,46 24,46 C26.206,46 28,44.206 28,42 C28,40.142 26.72,38.589 25,38.142 M24,23 C16.471,23 11.334,20.091 11.016,17.276 L12.936,14.366 L23.684,17.949 C23.786,17.983 23.894,18 24,18 C24.106,18 24.214,17.983 24.316,17.949 L35.109,14.351 L36.985,17.271 C36.673,20.087 31.535,23 24,23 M45.316,9.051 L24.316,2.051 C24.111,1.983 23.889,1.983 23.684,2.051 L16.67,4.389 L19.833,5.443 L24,4.054 L41.838,10 L24,15.946 L6.162,10 L13.5,7.554 L22.077,10.413 C22.3,11.06 23.036,11.5 24,11.5 C25.159,11.5 26,10.869 26,10 C26,9.131 25.159,8.5 24,8.5 C23.671,8.5 23.372,8.555 23.107,8.648 L6.316,3.051 C6.011,2.949 5.677,3 5.415,3.189 C5.154,3.377 5,3.679 5,4 L5,6.165 L7,5.499 L7,5.387 L10.338,6.5 L2.684,9.051 C2.275,9.188 2,9.569 2,10 C2,10.431 2.275,10.813 2.684,10.949 L5,11.721 L5,18.527 C4.111,19.603 4,21.969 4,22 C4,23.103 4.897,24 6,24 C7.103,24 8,23.103 8,22 C8,21.969 7.889,19.603 7,18.527 L7,12.388 L10.971,13.711 L9.165,16.449 C9.058,16.613 9,16.804 9,17 C9,21.486 15.589,25 24,25 C32.411,25 39,21.486 39,17 C39,16.808 38.945,16.621 38.841,16.459 L37.066,13.699 L45.316,10.949 C45.725,10.813 46,10.431 46,10 C46,9.569 45.725,9.188 45.316,9.051 M35,36 C33.897,36 33,35.103 33,34 C33,32.897 33.897,32 35,32 C36.103,32 37,32.897 37,34 C37,35.103 36.103,36 35,36 M35,30 C33.141,30 31.589,31.28 31.142,33 L29,33 L29,26.574 C28.343,26.685 27.677,26.772 27,26.838 L27,34 C27,34.552 27.447,35 28,35 L31.142,35 C31.589,36.72 33.141,38 35,38 C37.206,38 39,36.206 39,34 C39,31.794 37.206,30 35,30" id="Fill-3"></path>
        </g>
    </g>
</svg>