<?xml version="1.0" encoding="UTF-8"?>
<svg width="64px" height="64px" viewBox="0 0 64 64" version="1.1" xmlns="http://www.w3.org/2000/svg" xmlns:xlink="http://www.w3.org/1999/xlink">
    <title>Icon-Architecture/48/Arch_AWS-IoT-ExpressLink_48</title>
    <defs>
        <linearGradient x1="0%" y1="100%" x2="100%" y2="0%" id="linearGradient-1">
            <stop stop-color="#1B660F" offset="0%"></stop>
            <stop stop-color="#6CAE3E" offset="100%"></stop>
        </linearGradient>
    </defs>
    <g id="Icon-Architecture/48/Arch_AWS-IoT-ExpressLink_48" stroke="none" stroke-width="1" fill="none" fill-rule="evenodd">
        <g id="Rectangle" fill="url(#linearGradient-1)">
            <rect x="0" y="0" width="64" height="64"></rect>
        </g>
        <g id="Icon-Service/48/AWS-IoT-ExpressLink_48" transform="translate(8.000000, 8.000000)" fill="#FFFFFF">
            <path d="M41.939,14.8546734 C40.924,14.2316734 39.748,13.7416734 38.614,13.4596734 C38.232,10.8226734 36.75,8.88967341 34.559,8.22567341 C32.935,7.73367341 31.232,8.04667341 29.895,9.01367341 C29.226,7.64967341 28.369,6.46467341 27.336,5.47767341 C23.815,2.10967341 18.999,1.19467341 14.455,3.02967341 C10.552,4.60467341 7.61,8.96367341 7.61,13.1676734 C7.61,13.3386734 7.614,13.5106734 7.622,13.6816734 C5.46,14.4056734 2,16.3546734 2,21.3976734 C2,26.0646734 4.183,28.0716734 5.485,28.8526734 C6.251,29.3116734 7.926,29.9946734 9.403,29.9946734 L11,29.9946734 L11,27.9946734 L9.403,27.9946734 C8.408,27.9946734 7.09,27.4826734 6.514,27.1376734 C5.367,26.4496734 4,24.8956734 4,21.3976734 C4,17.2666734 7.005,15.8706734 8.852,15.4026734 C8.872,15.3996734 8.891,15.3956734 8.91,15.3916734 C9.412,15.2766734 9.745,14.8006734 9.68,14.2906734 C9.633,13.9226734 9.61,13.5446734 9.61,13.1676734 C9.61,9.78867341 12.067,6.15067341 15.203,4.88367341 C20.675,2.67467341 24.543,5.57367341 25.954,6.92267341 C27.098,8.01767341 27.991,9.41567341 28.608,11.0806734 C28.734,11.4206734 29.035,11.6666734 29.394,11.7206734 C29.759,11.7786734 30.114,11.6316734 30.335,11.3446734 C31.215,10.2086734 32.647,9.73567341 33.979,10.1396734 C35.524,10.6076734 36.505,12.0736734 36.683,14.1696734 C36.621,14.6986734 36.985,15.1876734 37.515,15.2736734 C38.041,15.3596734 39.421,15.6566734 40.894,16.5596734 C43.7,18.2796734 44.024,20.0486734 44.024,21.2296734 C44.024,27.6596734 38.208,27.9846734 38,27.9946734 L37,27.9946734 L37,29.9946734 L38.036,29.9946734 C40.798,29.8946734 46.024,27.9346734 46.024,21.2296734 C46.024,18.6246734 44.688,16.5396734 41.939,14.8546734 L41.939,14.8546734 Z M33,19.6506734 C33,18.7376734 32.256,17.9946734 31.343,17.9946734 L31,17.9946734 L31,15.9946734 L29,15.9946734 L29,17.9946734 L27,17.9946734 L27,15.9946734 L25,15.9946734 L25,17.9946734 L23,17.9946734 L23,15.9946734 L21,15.9946734 L21,17.9946734 L19,17.9946734 L19,15.9946734 L17,15.9946734 L17,17.9946734 L16.655,17.9946734 C15.742,17.9946734 15,18.7376734 15,19.6506734 L15,19.9946734 L13.024,19.9946734 L13.024,21.9946734 L15,21.9946734 L15,23.9946734 L13.024,23.9946734 L13.024,25.9946734 L15,25.9946734 L15,27.9946734 L13.024,27.9946734 L13.024,29.9946734 L15,29.9946734 L15,31.9946734 L13.024,31.9946734 L13.024,33.9946734 L15,33.9946734 L15,34.3386734 C15,35.2516734 15.742,35.9946734 16.655,35.9946734 L19,35.9946734 L19,33.9946734 L17,33.9946734 L17,19.9946734 L31,19.9946734 L31,33.9946734 L25.024,33.9946734 L25.024,35.9946734 L31.343,35.9946734 C32.256,35.9946734 33,35.2516734 33,34.3386734 L33,33.9946734 L35,33.9946734 L35,31.9946734 L33,31.9946734 L33,29.9946734 L35,29.9946734 L35,27.9946734 L33,27.9946734 L33,25.9946734 L35,25.9946734 L35,23.9946734 L33,23.9946734 L33,21.9946734 L35,21.9946734 L35,19.9946734 L33,19.9946734 L33,19.6506734 Z M29,41.9946734 L31,41.9946734 L31,36.9946734 L29,36.9946734 L29,41.9946734 Z M25,44.9946734 L27,44.9946734 L27,38.9946734 L25,38.9946734 L25,44.9946734 Z M21,42.9946734 L23,42.9946734 L23,31.9946734 L21,31.9946734 L21,42.9946734 Z M17,45.9946734 L19,45.9946734 L19,37.9946734 L17,37.9946734 L17,45.9946734 Z" id="Fill-6"></path>
        </g>
    </g>
</svg>