<?xml version="1.0" encoding="UTF-8"?>
<svg width="64px" height="64px" viewBox="0 0 64 64" version="1.1" xmlns="http://www.w3.org/2000/svg" xmlns:xlink="http://www.w3.org/1999/xlink">
    <title>Icon-Architecture/48/Arch_AWS-IoT-FleetWise_48</title>
    <defs>
        <linearGradient x1="0%" y1="100%" x2="100%" y2="0%" id="linearGradient-1">
            <stop stop-color="#1B660F" offset="0%"></stop>
            <stop stop-color="#6CAE3E" offset="100%"></stop>
        </linearGradient>
    </defs>
    <g id="Icon-Architecture/48/Arch_AWS-IoT-FleetWise_48" stroke="none" stroke-width="1" fill="none" fill-rule="evenodd">
        <g id="Rectangle" fill="url(#linearGradient-1)">
            <rect x="0" y="0" width="64" height="64"></rect>
        </g>
        <g id="Icon-Service/48/AWS-IoT-FleetWise_48" transform="translate(8.000000, 8.000000)" fill="#FFFFFF">
            <path d="M24,39.4682041 L24,35.5262041 C24,34.1292041 25.136,32.9932041 26.532,32.9932041 L29.768,32.9932041 C29.08,36.0092041 26.875,38.4472041 24,39.4682041 M20,39.9342041 L20,35.5262041 C20,33.0262041 17.967,30.9932041 15.468,30.9932041 L12,30.9932041 C12,30.6762041 12.017,30.3642041 12.049,30.0562041 L14.113,30.0552041 C15.704,30.0552041 17.259,29.2852041 18.379,27.9422041 C19.062,27.1222041 20.064,26.6522041 21.131,26.6522041 C22.197,26.6522041 23.2,27.1222041 23.885,27.9432041 C25.004,29.2852041 26.558,30.0552041 28.149,30.0562041 L29.951,30.0562041 C29.983,30.3642041 30,30.6772041 30,30.9932041 L26.532,30.9932041 C24.033,30.9932041 22,33.0262041 22,35.5262041 L22,39.9342041 C21.671,39.9712041 21.338,39.9932041 21,39.9932041 C20.662,39.9932041 20.329,39.9712041 20,39.9342041 M12.232,32.9932041 L15.468,32.9932041 C16.864,32.9932041 18,34.1292041 18,35.5262041 L18,39.4682041 C15.125,38.4472041 12.92,36.0092041 12.232,32.9932041 M21,21.9932041 C24.933,21.9932041 28.276,24.5332041 29.498,28.0562041 L28.149,28.0562041 C27.139,28.0552041 26.17,27.5602041 25.42,26.6622041 C24.355,25.3852041 22.792,24.6522041 21.131,24.6522041 C19.47,24.6522041 17.906,25.3852041 16.843,26.6612041 C16.093,27.5602041 15.124,28.0552041 14.113,28.0552041 L12.502,28.0562041 C13.724,24.5332041 17.067,21.9932041 21,21.9932041 M21,19.9932041 C14.935,19.9932041 10,24.9282041 10,30.9932041 C10,37.0592041 14.935,41.9932041 21,41.9932041 C27.065,41.9932041 32,37.0592041 32,30.9932041 C32,24.9282041 27.065,19.9932041 21,19.9932041 M37.922,29.9932041 L35.949,29.9882041 C35.428,22.1862041 28.932,15.9932041 21,15.9932041 C13.705,15.9932041 7.618,21.2292041 6.28,28.1382041 C5.046,26.8952041 4.209,25.1422041 4.038,23.2882041 C4.014,23.0162041 4,22.7332041 4,22.4402041 C4,20.3132041 5.516,17.3262041 8.361,17.2472041 C8.866,17.2342041 9.281,16.8462041 9.329,16.3432041 L9.409,15.5032041 C9.416,15.4332041 9.415,15.3622041 9.407,15.2912041 C9.358,14.8782041 9.334,14.4572041 9.334,14.0392041 C9.334,10.2882041 11.867,6.25620412 15.102,4.85920412 C20.688,2.44420412 24.651,5.62120412 26.096,7.09920412 C27.277,8.30920412 28.199,9.85520412 28.837,11.6972041 C28.959,12.0492041 29.268,12.3042041 29.636,12.3592041 C30.002,12.4132041 30.373,12.2582041 30.592,11.9562041 C31.47,10.7462041 32.894,10.2122041 34.212,10.5912041 C35.853,11.0632041 36.935,12.7612041 37.119,15.1432041 C37.054,15.6702041 37.413,16.1592041 37.938,16.2512041 C39.761,16.5712041 44,17.8812041 44,23.1302041 C44,29.3732041 38.085,29.9742041 37.922,29.9932041 M21,43.9932041 C13.832,43.9932041 8,38.1622041 8,30.9932041 C8,23.8252041 13.832,17.9932041 21,17.9932041 C28.168,17.9932041 34,23.8252041 34,30.9932041 C34,38.1622041 28.168,43.9932041 21,43.9932041 M39.058,14.4452041 C38.676,11.4782041 37.103,9.34220412 34.766,8.66920412 C33.149,8.20420412 31.465,8.56120412 30.142,9.57620412 C29.459,8.08220412 28.583,6.78320412 27.525,5.70220412 C23.918,2.00820412 18.977,1.00620412 14.309,3.02320412 C10.332,4.74120412 7.334,9.47620412 7.334,14.0392041 C7.334,14.4732041 7.356,14.9102041 7.4,15.3412041 C4.041,15.9472041 2,19.3352041 2,22.4402041 C2,22.7962041 2.016,23.1392041 2.046,23.4702041 C2.313,26.3602041 3.813,28.9782041 6.023,30.5292041 C6.019,30.6852041 6,30.8372041 6,30.9932041 C6,39.2642041 12.729,45.9932041 21,45.9932041 C28.936,45.9932041 35.434,39.7942041 35.95,31.9872041 L38.002,31.9902041 C40.769,31.7602041 46,29.6132041 46,23.1302041 C46,17.9842041 42.544,15.3172041 39.058,14.4452041" id="Fill-3"></path>
        </g>
    </g>
</svg>