<?xml version="1.0" encoding="UTF-8"?>
<svg width="48px" height="48px" viewBox="0 0 48 48" version="1.1" xmlns="http://www.w3.org/2000/svg" xmlns:xlink="http://www.w3.org/1999/xlink">
    <title>Icon-Resource/IoT/Res_AWS-IoT-Greengrass_Protocol_48_Light</title>
    <g id="Icon-Resource/IoT/Res_AWS-IoT-Greengrass_Protocol_48" stroke="none" stroke-width="1" fill="none" fill-rule="evenodd">
        <path d="M19,25 L23,25 L23,23 L19,23 L19,25 Z M13,25 L17,25 L17,23 L13,23 L13,25 Z M7,25 L11,25 L11,23 L7,23 L7,25 Z M4,29 L44,29 L44,19 L4,19 L4,29 Z M35.917,42 C35.09,42 34.417,41.327 34.417,40.5 C34.417,39.673 35.09,39 35.917,39 C36.744,39 37.417,39.673 37.417,40.5 C37.417,41.327 36.744,42 35.917,42 L35.917,42 Z M25.501,42.5 C25.501,43.327 24.828,44 24.001,44 C23.174,44 22.501,43.327 22.501,42.5 C22.501,41.673 23.174,41 24.001,41 C24.828,41 25.501,41.673 25.501,42.5 L25.501,42.5 Z M11.917,42 C11.09,42 10.417,41.327 10.417,40.5 C10.417,39.673 11.09,39 11.917,39 C12.744,39 13.417,39.673 13.417,40.5 C13.417,41.327 12.744,42 11.917,42 L11.917,42 Z M10.499,7.5 C10.499,6.673 11.172,6 11.999,6 C12.826,6 13.499,6.673 13.499,7.5 C13.499,8.327 12.826,9 11.999,9 C11.172,9 10.499,8.327 10.499,7.5 L10.499,7.5 Z M22.499,5.5 C22.499,4.673 23.172,4 23.999,4 C24.826,4 25.499,4.673 25.499,5.5 C25.499,6.327 24.826,7 23.999,7 C23.172,7 22.499,6.327 22.499,5.5 L22.499,5.5 Z M34.501,7.5 C34.501,6.673 35.174,6 36.001,6 C36.828,6 37.501,6.673 37.501,7.5 C37.501,8.327 36.828,9 36.001,9 C35.174,9 34.501,8.327 34.501,7.5 L34.501,7.5 Z M45,17 L33.379,17 L36.696,13.783 C36.891,13.595 37,13.336 37,13.065 L37,10.837 C38.441,10.404 39.501,9.08 39.501,7.5 C39.501,5.57 37.931,4 36.001,4 C34.071,4 32.501,5.57 32.501,7.5 C32.501,9.08 33.56,10.403 35,10.836 L35,12.642 L30.506,17 L25,17 L25,8.836 C26.44,8.403 27.499,7.08 27.499,5.5 C27.499,3.57 25.929,2 23.999,2 C22.069,2 20.499,3.57 20.499,5.5 C20.499,7.08 21.559,8.404 23,8.837 L23,17 L17.492,17 L13,12.642 L13,10.836 C14.44,10.403 15.499,9.08 15.499,7.5 C15.499,5.57 13.929,4 11.999,4 C10.069,4 8.499,5.57 8.499,7.5 C8.499,9.08 9.559,10.404 11,10.837 L11,13.065 C11,13.336 11.109,13.595 11.304,13.783 L14.62,17 L3,17 C2.447,17 2,17.448 2,18 L2,30 C2,30.552 2.447,31 3,31 L15.023,31 L11.302,34.625 C11.109,34.813 11,35.072 11,35.341 L11,37.137 C9.517,37.543 8.417,38.89 8.417,40.5 C8.417,42.43 9.987,44 11.917,44 C13.847,44 15.417,42.43 15.417,40.5 C15.417,38.951 14.397,37.648 13,37.189 L13,35.763 L17.89,31 L23,31 L23,39.164 C21.56,39.597 20.501,40.92 20.501,42.5 C20.501,44.43 22.071,46 24.001,46 C25.931,46 27.501,44.43 27.501,42.5 C27.501,40.92 26.441,39.596 25,39.163 L25,31 L30.086,31 L35,35.765 L35,37.137 C33.517,37.543 32.417,38.89 32.417,40.5 C32.417,42.43 33.987,44 35.917,44 C37.847,44 39.417,42.43 39.417,40.5 C39.417,38.951 38.397,37.648 37,37.189 L37,35.341 C37,35.071 36.891,34.812 36.696,34.624 L32.959,31 L45,31 C45.553,31 46,30.552 46,30 L46,18 C46,17.448 45.553,17 45,17 L45,17 Z" id="Fill-1" fill="#3F8624"></path>
    </g>
</svg>