<?xml version="1.0" encoding="UTF-8"?>
<svg width="48px" height="48px" viewBox="0 0 48 48" version="1.1" xmlns="http://www.w3.org/2000/svg" xmlns:xlink="http://www.w3.org/1999/xlink">
    <title>Icon-Resource/IoT/Res_Greengrass_Connector_48_Light</title>
    <g id="Icon-Resource/IoT/Res_Greengrass_Connector_48" stroke="none" stroke-width="1" fill="none" fill-rule="evenodd">
        <path d="M29.2267,30.4492 L29.2267,18.0002 L33.2177,18.0002 C36.6507,18.0002 39.4427,20.7932 39.4427,24.2252 C39.4427,27.6572 36.6507,30.4492 33.2177,30.4492 L29.2267,30.4492 Z M45.9997,23.2242 L41.3747,23.2242 C40.8787,19.1602 37.4127,16.0002 33.2177,16.0002 L28.2267,16.0002 C27.6737,16.0002 27.2267,16.4472 27.2267,17.0002 L27.2267,31.4492 C27.2267,32.0022 27.6737,32.4492 28.2267,32.4492 L33.2177,32.4492 C37.4137,32.4492 40.8797,29.2882 41.3757,25.2242 L45.9997,25.2242 L45.9997,23.2242 Z M18.7737,30.4492 L14.7817,30.4492 C11.3497,30.4492 8.5567,27.6572 8.5567,24.2242 C8.5567,20.7922 11.3497,18.0002 14.7817,18.0002 L18.7737,18.0002 L18.7737,30.4492 Z M20.7737,17.0002 C20.7737,16.4472 20.3257,16.0002 19.7737,16.0002 L14.7817,16.0002 C10.5857,16.0002 7.1197,19.1602 6.6237,23.2242 L1.9997,23.2242 L1.9997,25.2242 L6.6237,25.2242 C7.1197,29.2892 10.5857,32.4492 14.7817,32.4492 L19.7737,32.4492 C20.3257,32.4492 20.7737,32.0022 20.7737,31.4492 L20.7737,27.6132 L24.8557,27.6132 L24.8557,25.6132 L20.7737,25.6132 L20.7737,22.8372 L24.8557,22.8372 L24.8557,20.8372 L20.7737,20.8372 L20.7737,17.0002 Z" id="Amazon-AWS-IoT-Greengrass-Connector_Resource-Icon_light-bg" fill="#3F8624"></path>
    </g>
</svg>