<?xml version="1.0" encoding="UTF-8"?>
<svg width="48px" height="48px" viewBox="0 0 48 48" version="1.1" xmlns="http://www.w3.org/2000/svg" xmlns:xlink="http://www.w3.org/1999/xlink">
    <title>Icon-Resource/IoT/Res_AWS-IoT-Greengrass_Component-Machine-Learning_48_Light</title>
    <g id="Icon-Resource/IoT/Res_AWS-IoT-Greengrass_Component-Machine-Learning_48" stroke="none" stroke-width="1" fill="none" fill-rule="evenodd">
        <path d="M4,24 C4,22.897 4.897,22 6,22 C7.103,22 8,22.897 8,24 C8,25.103 7.103,26 6,26 C4.897,26 4,25.103 4,24 L4,24 Z M24,4 C25.103,4 26,4.897 26,6 C26,7.103 25.103,8 24,8 C22.897,8 22,7.103 22,6 C22,4.897 22.897,4 24,4 L24,4 Z M10.961,35.532 C9.036,33.336 7.688,30.678 7.06,27.839 C8.749,27.372 10,25.836 10,24 C10,22.179 8.77,20.656 7.103,20.174 C8.604,13.762 13.757,8.646 20.206,7.205 C20.721,8.819 22.217,10 24,10 C25.78,10 27.274,8.823 27.792,7.213 C29.593,7.616 31.31,8.294 32.905,9.255 L33.938,7.542 C32.065,6.414 30.043,5.644 27.92,5.205 C27.55,3.379 25.934,2 24,2 C22.071,2 20.459,3.371 20.083,5.189 C12.612,6.728 6.647,12.679 5.071,20.12 C3.314,20.541 2,22.115 2,24 C2,25.866 3.29,27.426 5.022,27.865 C5.69,31.233 7.27,34.389 9.563,36.963 L7.016,36.924 L6.984,38.924 L11.908,39 L11.924,39 C12.184,39 12.434,38.899 12.62,38.718 C12.811,38.533 12.92,38.28 12.924,38.015 L13,33.015 L11,32.985 L10.961,35.532 Z M42,26 C40.897,26 40,25.103 40,24 C40,22.897 40.897,22 42,22 C43.103,22 44,22.897 44,24 C44,25.103 43.103,26 42,26 L42,26 Z M24,44 C22.897,44 22,43.103 22,42 C22,40.897 22.897,40 24,40 C25.103,40 26,40.897 26,42 C26,43.103 25.103,44 24,44 L24,44 Z M46,24 C46,22.096 44.66,20.503 42.874,20.103 C42.159,16.709 40.558,13.605 38.201,11.043 L41.016,11 L40.984,9 L35.984,9.076 C35.72,9.081 35.467,9.189 35.282,9.38 C35.098,9.57 34.996,9.826 35,10.092 L35.076,15.016 L37.076,14.984 L37.041,12.731 C38.914,14.877 40.209,17.423 40.848,20.189 C39.206,20.687 38,22.198 38,24 C38,25.82 39.229,27.342 40.896,27.825 C39.469,34.305 34.354,39.495 27.854,40.987 C27.402,39.273 25.854,38 24,38 C22.144,38 20.594,39.276 20.145,40.993 C18.33,40.583 16.6,39.905 14.999,38.933 L13.962,40.643 C15.88,41.808 17.964,42.602 20.154,43.041 C20.616,44.74 22.156,46 24,46 C25.847,46 27.39,44.736 27.848,43.033 C35.437,41.483 41.427,35.432 42.931,27.879 C44.688,27.457 46,25.884 46,24 L46,24 Z M20.972,33.488 L16.478,30.831 L16.478,29 L19,29 L19,31 L21,31 L21,28 C21,27.448 20.553,27 20,27 L16,27 L16,27.005 C15.98,26.993 15.966,26.977 15.945,26.966 L13.478,25.662 L13.478,21.768 L15.947,20.453 C16.273,20.279 16.478,19.939 16.478,19.57 L16.478,19 L21,19 L21,17 L16.478,17 L16.478,16.716 L21.002,14.126 L22.828,15.296 L22.828,21 L19,21 C18.447,21 18,21.448 18,22 L18,25 L20,25 L20,23 L22.828,23 L22.828,32.413 L20.972,33.488 Z M26.919,14.107 L31.478,16.716 L31.478,19.57 C31.478,19.939 31.682,20.279 32.008,20.453 L34.478,21.768 L34.478,22 L30,22 C29.447,22 29,22.448 29,23 L29,25 L26,25 L26,27 L30,27 C30.553,27 31,26.552 31,26 L31,24 L34.478,24 L34.478,25.662 L32.01,26.966 C31.683,27.139 31.478,27.479 31.478,27.85 L31.478,30.831 L28,32.887 L28,31 L29,31 L29,29 L27,29 C26.447,29 26,29.448 26,30 L26,32.855 L24.828,32.127 L24.828,20 L29,20 C29.553,20 30,19.552 30,19 L30,17 L28,17 L28,18 L24.828,18 L24.828,15.283 L26.919,14.107 Z M26.46,35.496 C26.622,35.597 26.805,35.647 26.988,35.647 C27.164,35.647 27.34,35.601 27.497,35.508 L32.986,32.262 C33.291,32.082 33.478,31.755 33.478,31.401 L33.478,28.453 L35.945,27.148 C36.272,26.975 36.478,26.635 36.478,26.264 L36.478,21.167 C36.478,20.797 36.273,20.458 35.947,20.284 L33.478,18.969 L33.478,16.136 C33.478,15.777 33.285,15.446 32.975,15.268 L27.42,12.089 C27.114,11.916 26.74,11.914 26.433,12.086 L23.818,13.556 L21.57,12.116 C21.257,11.914 20.857,11.905 20.534,12.089 L14.98,15.268 C14.67,15.446 14.478,15.777 14.478,16.136 L14.478,18.969 L12.008,20.284 C11.682,20.458 11.478,20.797 11.478,21.167 L11.478,26.264 C11.478,26.635 11.683,26.975 12.01,27.148 L14.478,28.453 L14.478,31.401 C14.478,31.755 14.664,32.082 14.969,32.262 L20.458,35.508 C20.77,35.692 21.156,35.694 21.468,35.512 L23.992,34.049 L23.988,34.042 L24.122,34.042 L26.46,35.496 Z" id="Fill-1" fill="#3F8624"></path>
    </g>
</svg>