<?xml version="1.0" encoding="UTF-8"?>
<svg width="48px" height="48px" viewBox="0 0 48 48" version="1.1" xmlns="http://www.w3.org/2000/svg" xmlns:xlink="http://www.w3.org/1999/xlink">
    <title>Icon-Resource/IoT/Res_AWS-IoT-Greengrass_Stream-Manager_48_Light</title>
    <g id="Icon-Resource/IoT/Res_AWS-IoT-Greengrass_Stream-Manager_48" stroke="none" stroke-width="1" fill="none" fill-rule="evenodd">
        <path d="M13,38 L31,38 L31,36 L13,36 L13,38 Z M2,25 L21,25 L21,23 L2,23 L2,25 Z M2,14 L15,14 L15,12 L2,12 L2,14 Z M7,29 L17,29 L17,27 L7,27 L7,29 Z M41,26 L44,26 L44,23 L41,23 L41,26 Z M45,21 L40,21 C39.447,21 39,21.448 39,22 L39,27 C39,27.552 39.447,28 40,28 L45,28 C45.553,28 46,27.552 46,27 L46,22 C46,21.448 45.553,21 45,21 L45,21 Z M20,15 L26,15 L26,9 L20,9 L20,15 Z M19,17 L27,17 C27.553,17 28,16.552 28,16 L28,8 C28,7.448 27.553,7 27,7 L19,7 C18.447,7 18,7.448 18,8 L18,16 C18,16.552 18.447,17 19,17 L19,17 Z M35,39 L39,39 L39,35 L35,35 L35,39 Z M40,33 L34,33 C33.447,33 33,33.448 33,34 L33,40 C33,40.552 33.447,41 34,41 L40,41 C40.553,41 41,40.552 41,40 L41,34 C41,33.448 40.553,33 40,33 L40,33 Z M36,16 L39,16 L39,13 L36,13 L36,16 Z M35,18 L40,18 C40.553,18 41,17.552 41,17 L41,12 C41,11.448 40.553,11 40,11 L35,11 C34.447,11 34,11.448 34,12 L34,17 C34,17.552 34.447,18 35,18 L35,18 Z M26,29 L33,29 L33,22 L26,22 L26,29 Z M24,21 L24,30 C24,30.552 24.447,31 25,31 L34,31 C34.553,31 35,30.552 35,30 L35,21 C35,20.448 34.553,20 34,20 L25,20 C24.447,20 24,20.448 24,21 L24,21 Z" id="Fill-1" fill="#3F8624"></path>
    </g>
</svg>