<?xml version="1.0" encoding="UTF-8"?>
<svg width="48px" height="48px" viewBox="0 0 48 48" version="1.1" xmlns="http://www.w3.org/2000/svg" xmlns:xlink="http://www.w3.org/1999/xlink">
    <title>Icon-Resource/IoT/Res_AWS-IoT-Greengrass_Component_48_Light</title>
    <g id="Icon-Resource/IoT/Res_AWS-IoT-Greengrass_Component_48" stroke="none" stroke-width="1" fill="none" fill-rule="evenodd">
        <path d="M4,24 C4,22.897 4.897,22 6,22 C7.103,22 8,22.897 8,24 C8,25.103 7.103,26 6,26 C4.897,26 4,25.103 4,24 L4,24 Z M24,4 C25.103,4 26,4.897 26,6 C26,7.103 25.103,8 24,8 C22.897,8 22,7.103 22,6 C22,4.897 22.897,4 24,4 L24,4 Z M10.961,35.532 C9.036,33.336 7.688,30.678 7.06,27.839 C8.749,27.372 10,25.836 10,24 C10,22.179 8.77,20.656 7.103,20.174 C8.604,13.762 13.757,8.646 20.206,7.205 C20.721,8.819 22.217,10 24,10 C25.78,10 27.274,8.823 27.792,7.213 C29.592,7.616 31.31,8.293 32.906,9.255 L33.937,7.542 C32.064,6.413 30.042,5.644 27.92,5.204 C27.55,3.379 25.934,2 24,2 C22.071,2 20.459,3.371 20.083,5.189 C12.612,6.728 6.647,12.679 5.071,20.12 C3.314,20.541 2,22.115 2,24 C2,25.866 3.29,27.426 5.022,27.865 C5.69,31.233 7.27,34.389 9.563,36.963 L7.016,36.924 L6.984,38.924 L11.908,39 L11.924,39 C12.184,39 12.434,38.899 12.62,38.718 C12.811,38.533 12.92,38.28 12.924,38.015 L13,33.015 L11,32.985 L10.961,35.532 Z M42,26 C40.897,26 40,25.103 40,24 C40,22.897 40.897,22 42,22 C43.103,22 44,22.897 44,24 C44,25.103 43.103,26 42,26 L42,26 Z M24,44 C22.897,44 22,43.103 22,42 C22,40.897 22.897,40 24,40 C25.103,40 26,40.897 26,42 C26,43.103 25.103,44 24,44 L24,44 Z M46,24 C46,22.096 44.66,20.503 42.874,20.103 C42.159,16.708 40.558,13.604 38.201,11.043 L41.016,11 L40.984,9 L35.984,9.076 C35.72,9.081 35.467,9.189 35.282,9.38 C35.098,9.57 34.996,9.826 35,10.092 L35.076,15.016 L37.076,14.984 L37.041,12.731 C38.914,14.876 40.209,17.423 40.848,20.189 C39.206,20.687 38,22.198 38,24 C38,25.82 39.229,27.342 40.896,27.825 C39.469,34.305 34.354,39.495 27.854,40.987 C27.402,39.273 25.854,38 24,38 C22.144,38 20.594,39.276 20.145,40.993 C18.329,40.583 16.599,39.904 14.999,38.933 L13.962,40.643 C15.878,41.807 17.963,42.601 20.154,43.041 C20.616,44.74 22.156,46 24,46 C25.847,46 27.39,44.736 27.848,43.033 C35.437,41.483 41.427,35.432 42.931,27.879 C44.688,27.457 46,25.884 46,24 L46,24 Z" id="Fill-1" fill="#3F8624"></path>
    </g>
</svg>