<?xml version="1.0" encoding="UTF-8"?>
<svg width="48px" height="48px" viewBox="0 0 48 48" version="1.1" xmlns="http://www.w3.org/2000/svg" xmlns:xlink="http://www.w3.org/1999/xlink">
    <title>Icon-Resource/IoT/Res_AWS-IoT-Greengrass_Component-Nucleus_48_Light</title>
    <g id="Icon-Resource/IoT/Res_AWS-IoT-Greengrass_Component-Nucleus_48" stroke="none" stroke-width="1" fill="none" fill-rule="evenodd">
        <path d="M22.2969,21.145 C23.7949,20.199 25.3199,19.431 26.7619,18.89 C27.0739,20.337 27.2729,22.059 27.2729,24.007 C27.2729,25.902 27.0849,27.583 26.7869,29.005 C25.4249,28.498 23.9009,27.757 22.2969,26.744 C20.8419,25.825 19.6249,24.87 18.6309,23.944 C19.6249,23.02 20.8419,22.064 22.2969,21.145 L22.2969,21.145 Z M17.3229,31.885 C17.8879,31.885 18.5029,31.824 19.1639,31.701 L18.7989,29.735 C17.1529,30.041 15.9109,29.882 15.5569,29.319 C15.1439,28.666 15.7149,27.156 17.2489,25.37 C18.4329,26.478 19.7989,27.532 21.2289,28.435 C22.8359,29.45 24.5799,30.317 26.2669,30.929 C25.5869,32.93 24.6879,34.071 23.9619,34.071 C23.3299,34.071 22.5629,33.18 21.9579,31.746 L20.1139,32.523 C21.3519,35.456 22.8899,36.071 23.9619,36.071 C25.8629,36.071 27.2789,34.177 28.1699,31.502 C29.1229,31.736 30.0359,31.878 30.8559,31.878 C32.3809,31.878 33.6059,31.431 34.2649,30.388 C35.1789,28.941 34.6479,26.853 32.7699,24.507 L31.2089,25.757 C32.6999,27.621 32.8759,28.841 32.5729,29.319 C32.1879,29.933 30.7429,30.084 28.6909,29.591 C29.0729,27.84 29.2729,25.906 29.2729,24.007 C29.2729,22.064 29.0629,20.085 28.6619,18.303 C28.8579,18.255 29.0529,18.207 29.2419,18.17 C31.2619,17.779 32.2899,18.12 32.5729,18.569 C32.9549,19.174 32.4659,20.514 31.3269,21.981 L32.9069,23.208 C34.6709,20.935 35.1529,18.909 34.2649,17.501 C33.4139,16.155 31.4949,15.695 28.8599,16.207 C28.6189,16.254 28.3709,16.313 28.1209,16.375 C27.2289,13.773 25.8299,11.943 23.9619,11.943 C22.3969,11.943 20.9999,13.278 20.0279,15.702 L21.8859,16.446 C22.5039,14.902 23.2999,13.943 23.9619,13.943 C24.6719,13.943 25.5489,15.037 26.2239,16.961 C24.6009,17.556 22.8929,18.403 21.2289,19.455 C19.7989,20.357 18.4329,21.411 17.2489,22.519 C15.7149,20.733 15.1439,19.223 15.5569,18.569 C15.8959,18.033 17.0649,17.861 18.6089,18.12 L18.9399,16.147 C15.7799,15.618 14.4399,16.592 13.8649,17.501 C12.7799,19.219 13.8199,21.621 15.8619,23.944 C13.8199,26.268 12.7799,28.67 13.8649,30.388 C14.4889,31.374 15.6899,31.885 17.3229,31.885 L17.3229,31.885 Z M3.9999,24 C3.9999,22.897 4.8979,22 5.9999,22 C7.1029,22 7.9999,22.897 7.9999,24 C7.9999,25.103 7.1029,26 5.9999,26 C4.8979,26 3.9999,25.103 3.9999,24 L3.9999,24 Z M23.9999,4 C25.1029,4 25.9999,4.897 25.9999,6 C25.9999,7.103 25.1029,8 23.9999,8 C22.8979,8 21.9999,7.103 21.9999,6 C21.9999,4.897 22.8979,4 23.9999,4 L23.9999,4 Z M10.9609,35.532 C9.0359,33.336 7.6879,30.678 7.0599,27.839 C8.7489,27.372 9.9999,25.836 9.9999,24 C9.9999,22.179 8.7699,20.656 7.1029,20.174 C8.6049,13.762 13.7569,8.645 20.2059,7.205 C20.7209,8.819 22.2169,10 23.9999,10 C25.7799,10 27.2749,8.823 27.7919,7.213 C29.5919,7.616 31.3099,8.293 32.9059,9.255 L33.9379,7.542 C32.0649,6.413 30.0419,5.644 27.9199,5.204 C27.5499,3.379 25.9339,2 23.9999,2 C22.0709,2 20.4589,3.371 20.0829,5.189 C12.6119,6.728 6.6479,12.679 5.0709,20.12 C3.3149,20.541 1.9999,22.115 1.9999,24 C1.9999,25.866 3.2899,27.426 5.0229,27.865 C5.6909,31.233 7.2699,34.389 9.5639,36.963 L7.0159,36.924 L6.9839,38.924 L11.9079,39 L11.9239,39 C12.1839,39 12.4339,38.899 12.6199,38.718 C12.8109,38.533 12.9199,38.28 12.9239,38.015 L12.9999,33.015 L10.9999,32.985 L10.9609,35.532 Z M41.9999,26 C40.8979,26 39.9999,25.103 39.9999,24 C39.9999,22.897 40.8979,22 41.9999,22 C43.1029,22 43.9999,22.897 43.9999,24 C43.9999,25.103 43.1029,26 41.9999,26 L41.9999,26 Z M23.9999,44 C22.8979,44 21.9999,43.103 21.9999,42 C21.9999,40.897 22.8979,40 23.9999,40 C25.1029,40 25.9999,40.897 25.9999,42 C25.9999,43.103 25.1029,44 23.9999,44 L23.9999,44 Z M45.9999,24 C45.9999,22.096 44.6599,20.503 42.8739,20.103 C42.1589,16.708 40.5579,13.604 38.2009,11.043 L41.0159,11 L40.9839,9 L35.9849,9.076 C35.7199,9.081 35.4669,9.189 35.2819,9.38 C35.0979,9.57 34.9959,9.826 34.9999,10.092 L35.0759,15.016 L37.0759,14.984 L37.0409,12.731 C38.9139,14.876 40.2089,17.423 40.8479,20.189 C39.2059,20.687 37.9999,22.198 37.9999,24 C37.9999,25.82 39.2289,27.342 40.8959,27.825 C39.4689,34.305 34.3539,39.495 27.8539,40.987 C27.4019,39.273 25.8539,38 23.9999,38 C22.1439,38 20.5939,39.276 20.1449,40.993 C18.3289,40.583 16.5989,39.904 14.9989,38.933 L13.9619,40.643 C15.8779,41.807 17.9629,42.601 20.1539,43.041 C20.6159,44.74 22.1559,46 23.9999,46 C25.8469,46 27.3899,44.736 27.8479,43.033 C35.4379,41.483 41.4269,35.432 42.9309,27.879 C44.6879,27.457 45.9999,25.884 45.9999,24 L45.9999,24 Z" id="Fill-1" fill="#3F8624"></path>
    </g>
</svg>