<?xml version="1.0" encoding="UTF-8"?>
<svg width="48px" height="48px" viewBox="0 0 48 48" version="1.1" xmlns="http://www.w3.org/2000/svg" xmlns:xlink="http://www.w3.org/1999/xlink">
    <title>Icon-Resource/IoT/Res_IoT-Desired-State_48_Light</title>
    <g id="Icon-Resource/IoT/Res_IoT-Desired-State_48" stroke="none" stroke-width="1" fill="none" fill-rule="evenodd">
        <path d="M37.221,22.981 L40.467,22.981 L40.467,19.736 L37.221,19.736 L37.221,22.981 Z M31.597,22.359 L35.221,22.359 L35.221,24.982 L42.467,24.982 L42.467,17.736 L35.221,17.736 L35.221,20.359 L31.597,20.359 C31.233,19.657 30.509,19.173 29.664,19.173 C28.457,19.173 27.479,20.151 27.479,21.359 C27.479,22.566 28.457,23.544 29.664,23.544 C30.509,23.544 31.234,23.06 31.597,22.359 Z M32.77,40.148 C31.267,43.68 27.818,45.963 23.982,45.963 C20.146,45.963 16.697,43.68 15.194,40.148 L17.034,39.364 C18.222,42.158 20.95,43.963 23.982,43.963 C27.014,43.963 29.742,42.158 30.93,39.364 L32.77,40.148 Z M20.141,37.458 C20.597,39.19 22.177,40.4 23.982,40.4 C25.788,40.4 27.368,39.19 27.824,37.458 L29.757,37.968 C29.07,40.577 26.695,42.4 23.982,42.4 C21.269,42.4 18.895,40.577 18.207,37.968 L20.141,37.458 Z M15.194,7.816 C16.697,4.283 20.146,2 23.982,2 C27.818,2 31.267,4.283 32.77,7.816 L30.93,8.599 C29.742,5.805 27.014,4 23.982,4 C20.95,4 18.222,5.805 17.034,8.599 L15.194,7.816 Z M27.824,10.505 C27.368,8.773 25.788,7.564 23.982,7.564 C22.176,7.564 20.597,8.773 20.141,10.505 L18.207,9.995 C18.894,7.386 21.269,5.564 23.982,5.564 C26.696,5.564 29.071,7.386 29.757,9.995 L27.824,10.505 Z M16.24,33.473 L16.24,24.442 L11.653,19.855 C11.891,19.102 11.721,18.247 11.124,17.65 C10.271,16.796 8.887,16.796 8.034,17.65 C7.18,18.503 7.18,19.887 8.034,20.74 C8.63,21.338 9.486,21.508 10.239,21.269 L14.24,25.27 L14.24,33.473 L9.246,33.473 L9.246,28.975 C9.947,28.61 10.431,27.886 10.431,27.041 C10.431,25.834 9.453,24.856 8.246,24.856 C7.038,24.856 6.06,25.834 6.06,27.041 C6.06,27.886 6.544,28.61 7.246,28.974 L7.246,33.473 L4,33.473 L4,14.49 L15.119,14.49 L15.138,18.3 L19.722,22.885 C19.484,23.638 19.654,24.492 20.25,25.09 C21.104,25.943 22.488,25.943 23.341,25.09 C24.195,24.236 24.195,22.853 23.341,21.999 C22.745,21.401 21.89,21.232 21.136,21.471 L17.134,17.468 L17.119,14.49 L43.964,14.49 L43.964,28.227 L28.538,28.227 C28.173,27.526 27.449,27.041 26.605,27.041 C25.397,27.041 24.418,28.02 24.418,29.227 C24.418,30.434 25.397,31.412 26.605,31.412 C27.45,31.412 28.173,30.928 28.538,30.227 L43.964,30.227 L43.964,33.473 L16.24,33.473 Z M3,12.49 C2.448,12.49 2,12.938 2,13.49 L2,34.473 C2,35.025 2.448,35.473 3,35.473 L44.964,35.473 C45.517,35.473 45.964,35.025 45.964,34.473 L45.964,13.49 C45.964,12.938 45.517,12.49 44.964,12.49 L3,12.49 Z" id="Amazon-IOT-RESOURCES-IoT-IoT-Desired-State_Resource-Icon_light-bg" fill="#3F8624"></path>
    </g>
</svg>