<?xml version="1.0" encoding="UTF-8"?>
<svg width="48px" height="48px" viewBox="0 0 48 48" version="1.1" xmlns="http://www.w3.org/2000/svg" xmlns:xlink="http://www.w3.org/1999/xlink">
    <title>Icon-Resource/IoT/Res_IoT_HTTP2-Protocol_48_Light</title>
    <g id="Icon-Resource/IoT/Res_IoT_HTTP2-Protocol_48" stroke="none" stroke-width="1" fill="none" fill-rule="evenodd">
        <path d="M12.7421,43.9609 L40.1971,43.9609 L43.9611,43.9609 L43.9611,40.1969 L43.9611,32.8489 L12.7421,32.8489 L12.7421,43.9609 Z M10.7421,30.8489 L45.9611,30.8489 L45.9611,40.1969 L45.9611,45.9609 L40.1971,45.9609 L10.7421,45.9609 L10.7421,30.8489 Z M7.7641,1.9999 C4.5861,1.9999 2.0001,4.5859 2.0001,7.7649 L2.0001,40.1969 C2.0001,43.3749 4.5861,45.9609 7.7641,45.9609 L9.1201,45.9609 L9.1201,43.9609 L7.7641,43.9609 C5.6881,43.9609 4.0001,42.2729 4.0001,40.1969 L4.0001,7.7649 C4.0001,5.6889 5.6881,3.9999 7.7641,3.9999 L40.1971,3.9999 C42.2721,3.9999 43.9611,5.6889 43.9611,7.7649 L43.9611,29.2259 L45.9611,29.2259 L45.9611,7.7649 C45.9611,4.5859 43.3751,1.9999 40.1971,1.9999 L7.7641,1.9999 Z M43.0491,41.4679 L40.1951,41.4679 C41.0061,40.4189 41.5801,39.6419 41.9151,39.1339 C42.2521,38.6269 42.4811,38.2019 42.6081,37.8589 C42.7341,37.5179 42.7971,37.1849 42.7971,36.8629 C42.7971,36.2549 42.6461,35.7809 42.3461,35.4409 C42.0461,35.1029 41.6251,34.9329 41.0871,34.9329 C40.7791,34.9329 40.4781,34.9869 40.1851,35.0959 C39.8911,35.2029 39.5871,35.3769 39.2721,35.6139 L39.2721,36.5069 C39.9361,36.0589 40.4851,35.8349 40.9201,35.8349 C41.4861,35.8349 41.7681,36.1979 41.7681,36.9259 C41.7681,37.2549 41.6881,37.6019 41.5271,37.9649 C41.3671,38.3279 41.1011,38.7849 40.7301,39.3329 C40.3601,39.8829 39.8211,40.6219 39.1141,41.5519 L39.1141,42.3389 L43.0491,42.3389 L43.0491,41.4679 Z M34.4781,43.8499 L35.4651,43.8499 L38.3071,34.4289 L37.3211,34.4289 L34.4781,43.8499 Z M33.1301,36.2489 C32.9451,36.0009 32.6871,35.8769 32.3591,35.8769 L31.3201,35.8769 L31.3201,38.7089 L32.3591,38.7089 C32.6871,38.7089 32.9451,38.5839 33.1301,38.3309 C33.3141,38.0799 33.4071,37.7329 33.4071,37.2929 C33.4071,36.8459 33.3141,36.4969 33.1301,36.2489 Z M34.4141,37.2929 C34.4141,37.9649 34.2341,38.5029 33.8751,38.9089 C33.5141,39.3149 33.0441,39.5169 32.4641,39.5169 L31.3201,39.5169 L31.3201,42.3389 L30.3341,42.3389 L30.3341,35.0689 L32.4641,35.0689 C32.8541,35.0689 33.1991,35.1629 33.4971,35.3519 C33.7941,35.5409 34.0211,35.8039 34.1791,36.1389 C34.3371,36.4749 34.4141,36.8589 34.4141,37.2929 Z M24.7641,35.9189 L26.5691,35.9189 L26.5691,42.3389 L27.5861,42.3389 L27.5861,35.9189 L29.4011,35.9189 L29.4011,35.0689 L24.7641,35.0689 L24.7641,35.9189 Z M19.5181,35.9189 L21.3231,35.9189 L21.3231,42.3389 L22.3411,42.3389 L22.3411,35.9189 L24.1551,35.9189 L24.1551,35.0689 L19.5181,35.0689 L19.5181,35.9189 Z M17.5681,35.0689 L18.5861,35.0689 L18.5861,42.3389 L17.5681,42.3389 L17.5681,39.0339 L14.9251,39.0339 L14.9251,42.3389 L13.9071,42.3389 L13.9071,35.0689 L14.9251,35.0689 L14.9251,38.2059 L17.5681,38.2059 L17.5681,35.0689 Z" id="Amazon-IOT-RESOURCES-IoT-HTTP/2-protocol_Resource-Icon_light-bg" fill="#3F8624"></path>
    </g>
</svg>