<?xml version="1.0" encoding="UTF-8"?>
<svg width="48px" height="48px" viewBox="0 0 48 48" version="1.1" xmlns="http://www.w3.org/2000/svg" xmlns:xlink="http://www.w3.org/1999/xlink">
    <title>Icon-Resource/IoT/Res_Lambda_Function_48_Light</title>
    <g id="Icon-Resource/IoT/Res_Lambda_Function_48" stroke="none" stroke-width="1" fill="none" fill-rule="evenodd">
        <path d="M4,23.981 C4,12.963 12.962,4 23.98,4 C34.998,4 43.96,12.963 43.96,23.981 C43.96,34.998 34.998,43.961 23.98,43.961 C12.962,43.961 4,34.998 4,23.981 Z M2,23.981 C2,36.101 11.86,45.961 23.98,45.961 C36.1,45.961 45.96,36.101 45.96,23.981 C45.96,11.86 36.1,2 23.98,2 C11.86,2 2,11.86 2,23.981 Z M17.218,35.219 L11.87,35.219 L18.207,21.943 L20.885,27.47 L17.218,35.219 Z M19.099,19.2 C18.932,18.856 18.583,18.637 18.2,18.637 L18.197,18.637 C17.812,18.638 17.462,18.859 17.297,19.206 L9.382,35.788 C9.234,36.098 9.255,36.462 9.439,36.752 C9.622,37.043 9.941,37.219 10.285,37.219 L17.851,37.219 C18.238,37.219 18.589,36.996 18.755,36.647 L22.898,27.893 C23.027,27.619 23.026,27.301 22.893,27.028 L19.099,19.2 Z M36.093,35.219 L30.648,35.219 L20.746,13.942 C20.582,13.59 20.228,13.364 19.839,13.364 L16.24,13.364 L16.244,9.245 L23.455,9.245 L33.31,30.52 C33.474,30.873 33.828,31.1 34.217,31.1 L36.093,31.1 L36.093,35.219 Z M34.856,29.1 L25.001,7.825 C24.836,7.472 24.483,7.245 24.093,7.245 L15.245,7.245 C14.693,7.245 14.246,7.692 14.245,8.244 L14.239,14.363 C14.239,14.629 14.344,14.883 14.532,15.071 C14.719,15.259 14.973,15.364 15.239,15.364 L19.202,15.364 L29.104,36.641 C29.268,36.993 29.622,37.219 30.01,37.219 L37.093,37.219 C37.646,37.219 38.093,36.772 38.093,36.219 L38.093,30.1 C38.093,29.547 37.646,29.1 37.093,29.1 L34.856,29.1 Z" id="Amazon-IOT-RESOURCES-Lambda-function_Resource-Icon_light-bg" fill="#3F8624"></path>
    </g>
</svg>