<?xml version="1.0" encoding="UTF-8"?>
<svg width="48px" height="48px" viewBox="0 0 48 48" version="1.1" xmlns="http://www.w3.org/2000/svg" xmlns:xlink="http://www.w3.org/1999/xlink">
    <title>Icon-Resource/IoT/Res_Amazon-IoT_LoRaWAN-Protocol _48_Light</title>
    <g id="Icon-Resource/IoT/Res_Amazon-IoT_LoRaWAN-Protocol-_48" stroke="none" stroke-width="1" fill="none" fill-rule="evenodd">
        <path d="M46,5 C46,3.346 44.654,2 43,2 L5,2 C3.346,2 2,3.346 2,5 L2,28 L4,28 L4,5 C4,4.449 4.448,4 5,4 L43,4 C43.552,4 44,4.449 44,5 L44,28 L46,28 L46,5 Z M37.595,37.442 L37.595,41.875 L36.541,41.875 L36.541,35.58 L37.958,35.58 L39.856,39.995 L39.856,35.58 L40.91,35.58 L40.91,41.875 L39.512,41.875 L37.595,37.442 Z M32.825,39.468 L33.951,39.468 L33.38,36.861 L32.825,39.468 Z M34.47,41.875 L34.143,40.376 L32.635,40.376 L32.316,41.875 L30.981,41.875 L32.726,35.58 L34.134,35.58 L35.868,41.875 L34.47,41.875 Z M28.328,41.875 L27.62,37.233 L26.947,41.875 L25.54,41.875 L24.195,35.58 L25.477,35.58 L26.275,40.585 L26.966,35.834 L28.347,35.834 L29.056,40.503 L29.827,35.58 L31.081,35.58 L29.736,41.875 L28.328,41.875 Z M21.815,41.121 C22.015,41.121 22.215,41.025 22.414,40.831 L22.414,39.94 C22.281,39.898 22.124,39.877 21.942,39.877 C21.767,39.877 21.632,39.933 21.538,40.045 C21.444,40.157 21.397,40.319 21.397,40.531 C21.397,40.713 21.435,40.857 21.511,40.962 C21.587,41.068 21.688,41.121 21.815,41.121 L21.815,41.121 Z M22.597,41.875 L22.487,41.458 C22.384,41.615 22.236,41.744 22.042,41.844 C21.849,41.944 21.651,41.994 21.451,41.994 C21.076,41.994 20.779,41.871 20.562,41.626 C20.343,41.38 20.234,41.043 20.234,40.613 C20.234,40.159 20.367,39.8 20.634,39.536 C20.9,39.273 21.261,39.141 21.715,39.141 C21.902,39.141 22.136,39.178 22.414,39.25 L22.414,38.832 C22.414,38.518 22.374,38.304 22.292,38.192 C22.21,38.08 22.057,38.023 21.833,38.023 C21.47,38.023 21.024,38.121 20.498,38.314 L20.498,37.488 C20.673,37.373 20.903,37.282 21.188,37.215 C21.473,37.148 21.764,37.115 22.061,37.115 C22.587,37.115 22.969,37.235 23.205,37.474 C23.44,37.713 23.56,38.096 23.56,38.624 L23.56,41.875 L22.597,41.875 Z M16.892,38.596 L17.481,38.596 C17.718,38.596 17.898,38.508 18.022,38.333 C18.146,38.157 18.209,37.899 18.209,37.561 C18.209,37.221 18.146,36.964 18.022,36.789 C17.898,36.613 17.718,36.525 17.481,36.525 L16.892,36.525 L16.892,38.596 Z M18.481,41.875 L17.382,39.541 L16.892,39.541 L16.892,41.875 L15.646,41.875 L15.646,35.58 L17.636,35.58 C18.193,35.58 18.637,35.757 18.967,36.111 C19.297,36.465 19.462,36.949 19.462,37.561 C19.462,37.985 19.38,38.351 19.217,38.66 C19.053,38.969 18.82,39.199 18.518,39.35 L19.789,41.875 L18.481,41.875 Z M12.812,41.049 C13.037,41.049 13.199,40.929 13.299,40.69 C13.398,40.451 13.449,40.074 13.449,39.559 C13.449,39.044 13.398,38.666 13.299,38.423 C13.199,38.182 13.037,38.06 12.812,38.06 C12.589,38.06 12.427,38.182 12.326,38.423 C12.228,38.666 12.177,39.044 12.177,39.559 C12.177,40.074 12.228,40.451 12.326,40.69 C12.427,40.929 12.589,41.049 12.812,41.049 L12.812,41.049 Z M12.812,41.994 C12.213,41.994 11.75,41.782 11.423,41.358 C11.096,40.934 10.933,40.334 10.933,39.559 C10.933,38.778 11.096,38.175 11.423,37.751 C11.75,37.327 12.213,37.115 12.812,37.115 C13.412,37.115 13.876,37.327 14.202,37.751 C14.529,38.175 14.693,38.778 14.693,39.559 C14.693,40.334 14.529,40.934 14.202,41.358 C13.876,41.782 13.412,41.994 12.812,41.994 L12.812,41.994 Z M7.135,41.875 L7.135,35.58 L8.406,35.58 L8.406,40.867 L10.551,40.867 L10.551,41.875 L7.135,41.875 Z M4,44 L44,44 L44,33 L4,33 L4,44 Z M45,46 L3,46 C2.447,46 2,45.552 2,45 L2,32 C2,31.448 2.447,31 3,31 L45,31 C45.553,31 46,31.448 46,32 L46,45 C46,45.552 45.553,46 45,46 L45,46 Z" id="Fill-1" fill="#3F8624"></path>
    </g>
</svg>