<?xml version="1.0" encoding="UTF-8"?>
<svg width="48px" height="48px" viewBox="0 0 48 48" version="1.1" xmlns="http://www.w3.org/2000/svg" xmlns:xlink="http://www.w3.org/1999/xlink">
    <title>Icon-Resource/IoT/Res_IoT-MQT_Protocol_48_Light</title>
    <g id="Icon-Resource/IoT/Res_IoT-MQT_Protocol_48" stroke="none" stroke-width="1" fill="none" fill-rule="evenodd">
        <path d="M31.3459,38.7085 C31.3459,37.7435 31.2019,37.0165 30.9159,36.5265 C30.6299,36.0375 30.2019,35.7925 29.6359,35.7925 C29.0689,35.7925 28.6439,36.0375 28.3559,36.5265 C28.0689,37.0165 27.9259,37.7435 27.9259,38.7085 C27.9259,39.6735 28.0689,40.4035 28.3559,40.8955 C28.6439,41.3885 29.0689,41.6355 29.6359,41.6355 C30.2019,41.6355 30.6299,41.3885 30.9159,40.8955 C31.2019,40.4035 31.3459,39.6735 31.3459,38.7085 Z M18.8609,43.9605 L32.0189,43.9605 C31.5959,43.8745 31.1869,43.7445 30.8009,43.5345 C30.3249,43.2755 29.8889,42.9295 29.4889,42.4965 C28.9369,42.4675 28.4649,42.2995 28.0729,41.9925 C27.6819,41.6845 27.3869,41.2505 27.1869,40.6915 C26.9879,40.1315 26.8879,39.4705 26.8879,38.7085 C26.8879,37.5125 27.1289,36.5835 27.6109,35.9235 C28.0949,35.2625 28.7699,34.9325 29.6359,34.9325 C30.5029,34.9325 31.1789,35.2625 31.6609,35.9235 C32.1439,36.5835 32.3839,37.5125 32.3839,38.7085 C32.3839,39.7025 32.2169,40.5145 31.8819,41.1475 C31.5459,41.7815 31.0659,42.1915 30.4439,42.3795 C30.7239,42.6045 31.0149,42.7755 31.3149,42.8945 C31.6149,43.0125 31.9469,43.0925 32.3119,43.1355 L32.3119,43.9605 L40.1959,43.9605 L43.9609,43.9605 L43.9609,40.1965 L43.9609,32.8485 L18.8609,32.8485 L18.8609,43.9605 Z M16.8609,30.8485 L45.9609,30.8485 L45.9609,40.1965 L45.9609,45.9605 L40.1959,45.9605 L16.8609,45.9605 L16.8609,30.8485 Z M7.7639,1.9995 C4.5859,1.9995 1.9999,4.5855 1.9999,7.7645 L1.9999,40.1965 C1.9999,43.3745 4.5859,45.9605 7.7639,45.9605 L15.2379,45.9605 L15.2379,43.9605 L7.7639,43.9605 C5.6879,43.9605 3.9999,42.2725 3.9999,40.1965 L3.9999,7.7645 C3.9999,5.6885 5.6879,3.9995 7.7639,3.9995 L40.1959,3.9995 C42.2719,3.9995 43.9609,5.6885 43.9609,7.7645 L43.9609,29.2255 L45.9609,29.2255 L45.9609,7.7645 C45.9609,4.5855 43.3749,1.9995 40.1959,1.9995 L7.7639,1.9995 Z M39.9889,42.3375 L41.0079,42.3375 L41.0079,35.9185 L42.8209,35.9185 L42.8209,35.0695 L38.1859,35.0695 L38.1859,35.9185 L39.9889,35.9185 L39.9889,42.3375 Z M34.7439,42.3375 L35.7629,42.3375 L35.7629,35.9185 L37.5769,35.9185 L37.5769,35.0695 L32.9409,35.0695 L32.9409,35.9185 L34.7439,35.9185 L34.7439,42.3375 Z M24.3809,35.0695 L25.4809,35.0695 L25.4809,42.3375 L24.5689,42.3375 L24.5689,36.6425 L23.0799,40.4705 L22.1669,40.4705 L20.6779,36.6425 L20.6779,42.3375 L19.7649,42.3375 L19.7649,35.0695 L20.9089,35.0695 L22.6389,39.5165 L24.3809,35.0695 Z" id="Amazon-IOT-RESOURCES-IoT-MQT-protocol_Resource-Icon_light-bg" fill="#3F8624"></path>
    </g>
</svg>