<?xml version="1.0" encoding="UTF-8"?>
<svg width="48px" height="48px" viewBox="0 0 48 48" version="1.1" xmlns="http://www.w3.org/2000/svg" xmlns:xlink="http://www.w3.org/1999/xlink">
    <title>Icon-Resource/IoT/Res_Policy_48_Light</title>
    <g id="Icon-Resource/IoT/Res_Policy_48" stroke="none" stroke-width="1" fill="none" fill-rule="evenodd">
        <path d="M28.5196,31.7816 C28.5196,32.4576 29.0666,33.0046 29.7426,33.0046 C30.4196,33.0046 30.9666,32.4576 30.9666,31.7816 C30.9666,31.1056 30.4196,30.5576 29.7426,30.5576 C29.0666,30.5576 28.5196,31.1056 28.5196,31.7816 Z M41.3966,31.4706 L40.7286,31.4706 C40.4896,31.4706 40.2586,31.3846 40.0766,31.2286 L39.6696,30.8776 L39.2626,31.2286 C39.0806,31.3846 38.8486,31.4706 38.6096,31.4706 L37.9026,31.4706 C37.6636,31.4706 37.4316,31.3846 37.2506,31.2286 L36.8436,30.8776 L36.4346,31.2286 C36.2536,31.3846 36.0216,31.4706 35.7826,31.4706 L34.5286,31.4706 C34.1046,31.4706 33.7266,31.2036 33.5856,30.8036 C33.1806,29.6526 31.9766,28.8486 30.6606,28.8486 C28.9716,28.8486 27.5966,30.1636 27.5966,31.7816 C27.5966,33.3986 28.9716,34.7146 30.6606,34.7146 C31.9766,34.7146 33.1806,33.9116 33.5856,32.7596 C33.7266,32.3606 34.1046,32.0926 34.5286,32.0926 L41.6646,32.0926 L41.8376,31.8786 L41.3966,31.4706 Z M42.9196,33.7216 C42.7296,33.9556 42.4436,34.0926 42.1416,34.0926 L35.1736,34.0926 C34.3136,35.6656 32.5536,36.7146 30.6606,36.7146 C27.8686,36.7146 25.5966,34.5016 25.5966,31.7816 C25.5966,29.0616 27.8686,26.8486 30.6606,26.8486 C32.5536,26.8486 34.3136,27.8976 35.1736,29.4706 L35.4116,29.4706 L36.1906,28.8006 C36.5656,28.4786 37.1206,28.4786 37.4956,28.8006 L38.2566,29.4546 L39.0166,28.8006 C39.3916,28.4786 39.9466,28.4786 40.3216,28.8006 L41.0996,29.4706 L41.7896,29.4706 C42.0416,29.4706 42.2846,29.5666 42.4696,29.7376 L43.8826,31.0476 C43.9066,31.0706 43.9166,31.1006 43.9386,31.1246 C43.8136,26.0006 39.6156,21.8696 34.4626,21.8696 C29.2306,21.8696 24.9746,26.1246 24.9746,31.3566 C24.9746,36.5876 29.2306,40.8446 34.4626,40.8446 C39.2886,40.8446 43.2766,37.2186 43.8666,32.5496 L42.9196,33.7216 Z M34.4626,42.8446 C28.1286,42.8446 22.9746,37.6916 22.9746,31.3566 C22.9746,25.0226 28.1286,19.8696 34.4626,19.8696 C40.7976,19.8696 45.9506,25.0226 45.9506,31.3566 C45.9506,37.6916 40.7976,42.8446 34.4626,42.8446 Z M8.6856,35.5306 C8.8746,35.7286 9.1366,35.8406 9.4096,35.8406 C9.6826,35.8406 9.9446,35.7286 10.1346,35.5306 L15.9606,29.4116 L14.5116,28.0336 L9.4096,33.3906 L7.2196,31.0916 L5.7716,32.4706 L8.6856,35.5306 Z M8.0766,25.9336 L10.4286,23.5816 L12.7806,25.9336 L14.1946,24.5196 L11.8426,22.1676 L14.1946,19.8166 L12.7806,18.4026 L10.4286,20.7536 L8.0766,18.4026 L6.6626,19.8166 L9.0136,22.1676 L6.6626,24.5196 L8.0766,25.9336 Z M8.0766,16.3206 L10.4286,13.9686 L12.7806,16.3206 L14.1946,14.9066 L11.8426,12.5546 L14.1946,10.2026 L12.7806,8.7876 L10.4286,11.1406 L8.0766,8.7876 L6.6626,10.2026 L9.0136,12.5546 L6.6626,14.9066 L8.0766,16.3206 Z M22.8656,36.4616 L22.8656,38.4616 L4.1536,38.4616 C2.9666,38.4616 2.0006,37.4956 2.0006,36.3086 L2.0006,7.1536 C2.0006,5.9656 2.9666,4.9996 4.1536,4.9996 L25.4436,4.9996 C26.6316,4.9996 27.5966,5.9656 27.5966,7.1536 L27.5966,20.8666 L25.5966,20.8666 L25.5966,7.1536 C25.5966,7.0676 25.5296,6.9996 25.4436,6.9996 L4.1536,6.9996 C4.0676,6.9996 4.0006,7.0676 4.0006,7.1536 L4.0006,36.3086 C4.0006,36.3946 4.0676,36.4616 4.1536,36.4616 L22.8656,36.4616 Z" id="Amazon-IOT-RESOURCES-IoT-Policy_Resource-Icon_light-bg" fill="#3F8624"></path>
    </g>
</svg>