<?xml version="1.0" encoding="UTF-8"?>
<svg width="48px" height="48px" viewBox="0 0 48 48" version="1.1" xmlns="http://www.w3.org/2000/svg" xmlns:xlink="http://www.w3.org/1999/xlink">
    <title>Icon-Resource/IoT/Res_IoT-Rule_48_Light</title>
    <g id="Icon-Resource/IoT/Res_IoT-Rule_48" stroke="none" stroke-width="1" fill="none" fill-rule="evenodd">
        <path d="M33.0811,9.1075 C31.6731,9.1075 30.5271,7.9615 30.5271,6.5535 C30.5271,5.1455 31.6731,4.0005 33.0811,4.0005 C34.4891,4.0005 35.6351,5.1455 35.6351,6.5535 C35.6351,7.9615 34.4891,9.1075 33.0811,9.1075 L33.0811,9.1075 Z M13.0001,8.1835 L17.1191,8.1835 L17.1191,4.0635 L13.0001,4.0635 L13.0001,8.1835 Z M33.0811,2.0005 C30.5701,2.0005 28.5271,4.0435 28.5271,6.5535 C28.5271,7.3635 28.7581,8.1135 29.1301,8.7735 L24.2491,12.0825 L19.1191,8.6055 L19.1191,3.0635 C19.1191,2.5105 18.6721,2.0635 18.1191,2.0635 L12.0001,2.0635 C11.4471,2.0635 11.0001,2.5105 11.0001,3.0635 L11.0001,9.1835 C11.0001,9.7365 11.4471,10.1835 12.0001,10.1835 L17.8841,10.1835 L23.3251,13.8715 L23.3251,16.2745 L25.3251,16.2745 L25.3251,13.7685 L30.4761,10.2785 C31.2161,10.7965 32.1111,11.1075 33.0811,11.1075 C35.5921,11.1075 37.6351,9.0645 37.6351,6.5535 C37.6351,4.0435 35.5921,2.0005 33.0811,2.0005 L33.0811,2.0005 Z M24.3411,44.2595 C18.3111,44.2595 14.9351,42.7435 14.8201,42.1005 L14.8211,26.3645 C17.0381,27.5125 20.7721,28.0565 24.3411,28.0565 C27.9091,28.0565 31.6441,27.5125 33.8611,26.3645 L33.8611,42.0965 C33.7451,42.7435 30.3661,44.2595 24.3411,44.2595 L24.3411,44.2595 Z M35.8441,23.8815 C35.8351,23.7365 35.8231,23.5875 35.7841,23.4605 C35.4921,22.4295 34.4361,21.6155 32.5561,20.9695 L31.9071,22.8625 C33.2341,23.3175 33.7151,23.7555 33.8321,23.9475 C33.5301,24.6285 30.2001,26.0565 24.3411,26.0565 C18.4741,26.0565 15.1471,24.6285 14.8501,23.9495 C14.9631,23.7595 15.4411,23.3195 16.7741,22.8625 L16.1261,20.9695 C14.2451,21.6155 13.1891,22.4295 12.8971,23.4585 C12.8581,23.5945 12.8471,23.7405 12.8381,23.8815 L12.8201,23.8815 C12.8201,23.9045 12.8281,23.9235 12.8291,23.9455 C12.8281,23.9645 12.8201,23.9855 12.8201,24.0045 L12.8201,42.1005 C12.8201,44.9585 18.7921,46.2595 24.3411,46.2595 C29.8901,46.2595 35.8611,44.9585 35.8611,42.1005 L35.8611,24.0045 C35.8611,23.9845 35.8531,23.9655 35.8521,23.9455 C35.8531,23.9235 35.8611,23.9045 35.8611,23.8815 L35.8441,23.8815 Z M24.3411,22.1335 L20.9551,18.9635 L27.7271,18.9635 L24.3411,22.1335 Z M31.3971,24.2145 L31.3971,17.9635 C31.3971,17.4115 30.9501,16.9635 30.3971,16.9635 L18.2531,16.9635 C17.7001,16.9635 17.2531,17.4115 17.2531,17.9635 L17.2531,24.2145 L19.2531,24.2145 L19.2531,20.1115 L23.6571,24.2335 C23.8501,24.4145 24.0951,24.5035 24.3411,24.5035 C24.5861,24.5035 24.8321,24.4145 25.0241,24.2345 L29.3971,20.1405 L29.3971,24.2145 L31.3971,24.2145 Z" id="Amazon-IOT-RESOURCES-IoT-IoT-Rule_Resource-Icon_light-bg" fill="#3F8624"></path>
    </g>
</svg>