<?xml version="1.0" encoding="UTF-8"?>
<svg width="64px" height="64px" viewBox="0 0 64 64" version="1.1" xmlns="http://www.w3.org/2000/svg" xmlns:xlink="http://www.w3.org/1999/xlink">
    <title>Icon-Architecture/48/Arch_AWS-IoT-RoboRunner_48</title>
    <defs>
        <linearGradient x1="0%" y1="100%" x2="100%" y2="0%" id="linearGradient-1">
            <stop stop-color="#1B660F" offset="0%"></stop>
            <stop stop-color="#6CAE3E" offset="100%"></stop>
        </linearGradient>
    </defs>
    <g id="Icon-Architecture/48/Arch_AWS-IoT-RoboRunner_48" stroke="none" stroke-width="1" fill="none" fill-rule="evenodd">
        <g id="Rectangle" fill="url(#linearGradient-1)">
            <rect x="0" y="0" width="64" height="64"></rect>
        </g>
        <g id="Icon-Service/48/AWS-IoT-RoboRunner_48" transform="translate(8.000000, 8.000000)" fill="#FFFFFF">
            <path d="M41,4 C42.654,4 44,5.346 44,7 C44,8.654 42.654,10 41,10 C39.346,10 38,8.654 38,7 C38,5.346 39.346,4 41,4 L41,4 Z M41,12 C43.757,12 46,9.757 46,7 C46,4.243 43.757,2 41,2 C38.586,2 36.566,3.721 36.101,6 L27,6 L27,8 L36.101,8 C36.566,10.279 38.586,12 41,12 L41,12 Z M33.293,33.293 C35.748,30.837 37.101,27.537 37.101,24 C37.101,20.463 35.748,17.163 33.293,14.707 L34.707,13.293 C37.54,16.126 39.101,19.929 39.101,24 C39.101,28.071 37.54,31.874 34.707,34.707 L33.293,33.293 Z M14.707,14.707 C12.252,17.163 10.899,20.463 10.899,24 C10.899,27.537 12.252,30.837 14.707,33.293 L13.293,34.707 C10.46,31.874 8.899,28.071 8.899,24 C8.899,19.929 10.46,16.126 13.293,13.293 L14.707,14.707 Z M7,44 C5.346,44 4,42.654 4,41 C4,39.346 5.346,38 7,38 C8.654,38 10,39.346 10,41 C10,42.654 8.654,44 7,44 L7,44 Z M7,36 C4.243,36 2,38.243 2,41 C2,43.757 4.243,46 7,46 C9.414,46 11.434,44.279 11.899,42 L21,42 L21,40 L11.899,40 C11.434,37.721 9.414,36 7,36 L7,36 Z M41,44 C39.346,44 38,42.654 38,41 C38,39.346 39.346,38 41,38 C42.654,38 44,39.346 44,41 C44,42.654 42.654,44 41,44 L41,44 Z M17,24 C17,20.14 20.141,17 24,17 C27.859,17 31,20.14 31,24 C31,27.86 27.859,31 24,31 C20.141,31 17,27.86 17,24 L17,24 Z M7,10 C5.346,10 4,8.654 4,7 C4,5.346 5.346,4 7,4 C8.654,4 10,5.346 10,7 C10,8.654 8.654,10 7,10 L7,10 Z M41,36 C38.586,36 36.566,37.721 36.101,40 L25,40 L25,32.941 C29.493,32.442 33,28.624 33,24 C33,19.376 29.493,15.558 25,15.059 L25,7 C25,6.448 24.553,6 24,6 L11.899,6 C11.434,3.721 9.414,2 7,2 C4.243,2 2,4.243 2,7 C2,9.757 4.243,12 7,12 C9.414,12 11.434,10.279 11.899,8 L23,8 L23,15.059 C18.507,15.558 15,19.376 15,24 C15,28.624 18.507,32.442 23,32.941 L23,41 C23,41.552 23.447,42 24,42 L36.101,42 C36.566,44.279 38.586,46 41,46 C43.757,46 46,43.757 46,41 C46,38.243 43.757,36 41,36 L41,36 Z" id="Fill-5"></path>
        </g>
    </g>
</svg>