<?xml version="1.0" encoding="UTF-8"?>
<svg width="48px" height="48px" viewBox="0 0 48 48" version="1.1" xmlns="http://www.w3.org/2000/svg" xmlns:xlink="http://www.w3.org/1999/xlink">
    <title>Icon-Resource/IoT/Res_IoT_Reported-State_48_Light</title>
    <g id="Icon-Resource/IoT/Res_IoT_Reported-State_48" stroke="none" stroke-width="1" fill="none" fill-rule="evenodd">
        <path d="M23.9921,34.6826 L24.8501,36.1126 L23.1341,36.1126 L23.9921,34.6826 Z M26.6161,38.1126 C26.9761,38.1126 27.3081,37.9186 27.4861,37.6056 C27.6641,37.2916 27.6591,36.9076 27.4731,36.5976 L24.8491,32.2236 C24.4881,31.6216 23.4961,31.6216 23.1351,32.2236 L20.5111,36.5976 C20.3251,36.9076 20.3201,37.2916 20.4981,37.6056 C20.6761,37.9186 21.0081,38.1126 21.3681,38.1126 L26.6161,38.1126 Z M12.0581,34.9246 C12.0581,35.5796 11.5261,36.1126 10.8721,36.1126 C10.2181,36.1126 9.6851,35.5796 9.6851,34.9246 C9.6851,34.2706 10.2181,33.7386 10.8721,33.7386 C11.5261,33.7386 12.0581,34.2706 12.0581,34.9246 Z M14.0581,34.9246 C14.0581,33.1676 12.6291,31.7386 10.8721,31.7386 C9.1151,31.7386 7.6851,33.1676 7.6851,34.9246 C7.6851,36.6826 9.1151,38.1126 10.8721,38.1126 C12.6291,38.1126 14.0581,36.6826 14.0581,34.9246 Z M19.7441,39.6106 L28.2401,39.6106 L28.2401,10.1226 L19.7441,10.1226 L19.7441,39.6106 Z M18.7441,8.1216 C18.1911,8.1216 17.7441,8.5696 17.7441,9.1216 L17.7441,40.6106 C17.7441,41.1626 18.1911,41.6106 18.7441,41.6106 L29.2401,41.6106 C29.7931,41.6106 30.2401,41.1626 30.2401,40.6106 L30.2401,9.1216 C30.2401,8.5696 29.7931,8.1216 29.2401,8.1216 L18.7441,8.1216 Z M6.6241,39.6106 L15.1201,39.6106 L15.1201,22.3686 L6.6241,22.3686 L6.6241,39.6106 Z M5.6241,20.3686 C5.0711,20.3686 4.6241,20.8156 4.6241,21.3686 L4.6241,40.6106 C4.6241,41.1626 5.0711,41.6106 5.6241,41.6106 L16.1201,41.6106 C16.6731,41.6106 17.1201,41.1626 17.1201,40.6106 L17.1201,21.3686 C17.1201,20.8156 16.6731,20.3686 16.1201,20.3686 L5.6241,20.3686 Z M43.9841,39.5366 C43.9841,41.9896 41.9891,43.9846 39.5361,43.9846 L8.4481,43.9846 C5.9951,43.9846 4.0001,41.9896 4.0001,39.5366 L4.0001,8.4476 C4.0001,5.9956 5.9951,3.9996 8.4481,3.9996 L39.5361,3.9996 C41.9891,3.9996 43.9841,5.9956 43.9841,8.4476 L43.9841,39.5366 Z M8.4481,1.9996 C4.8921,1.9996 2.0001,4.8926 2.0001,8.4476 L2.0001,39.5366 C2.0001,43.0916 4.8921,45.9846 8.4481,45.9846 L39.5361,45.9846 C43.0921,45.9846 45.9841,43.0916 45.9841,39.5366 L45.9841,8.4476 C45.9841,4.8926 43.0921,1.9996 39.5361,1.9996 L8.4481,1.9996 Z" id="Amazon-IOT-RESOURCES-IoT-reported-state_Resource-Icon_light-bg" fill="#3F8624"></path>
    </g>
</svg>