<?xml version="1.0" encoding="UTF-8"?>
<svg width="48px" height="48px" viewBox="0 0 48 48" version="1.1" xmlns="http://www.w3.org/2000/svg" xmlns:xlink="http://www.w3.org/1999/xlink">
    <title>Icon-Resource/IoT/Res_IoT_Simulator_48_Light</title>
    <g id="Icon-Resource/IoT/Res_IoT_Simulator_48" stroke="none" stroke-width="1" fill="none" fill-rule="evenodd">
        <path d="M26.3232,18.8043 C26.3232,18.5153 26.0882,18.2793 25.7992,18.2793 C25.5102,18.2793 25.2762,18.5153 25.2762,18.8043 C25.2762,19.0933 25.5102,19.3273 25.7992,19.3273 C26.0882,19.3273 26.3232,19.0933 26.3232,18.8043 Z M21.7682,14.4373 C21.7682,14.7263 22.0022,14.9613 22.2912,14.9613 C22.5802,14.9613 22.8152,14.7263 22.8152,14.4373 C22.8152,14.1483 22.5802,13.9143 22.2912,13.9143 C22.0022,13.9143 21.7682,14.1483 21.7682,14.4373 Z M18.5092,11.1573 L18.5092,17.8043 L23.4842,17.8043 C23.8722,16.9083 24.7632,16.2793 25.7992,16.2793 C27.1912,16.2793 28.3232,17.4123 28.3232,18.8043 C28.3232,20.1953 27.1912,21.3273 25.7992,21.3273 C24.7632,21.3273 23.8722,20.6983 23.4842,19.8043 L18.5092,19.8043 L18.5092,22.2163 L29.5692,22.2163 L29.5692,15.4373 L24.6062,15.4373 C24.2172,16.3333 23.3272,16.9613 22.2912,16.9613 C20.9002,16.9613 19.7682,15.8293 19.7682,14.4373 C19.7682,13.0463 20.9002,11.9143 22.2912,11.9143 C23.3272,11.9143 24.2172,12.5423 24.6062,13.4373 L29.5692,13.4373 L29.5692,11.1573 L18.5092,11.1573 Z M30.5692,9.1573 C31.1212,9.1573 31.5692,9.6043 31.5692,10.1573 L31.5692,23.2163 C31.5692,23.7683 31.1212,24.2163 30.5692,24.2163 L17.5092,24.2163 C16.9562,24.2163 16.5092,23.7683 16.5092,23.2163 L16.5092,10.1573 C16.5092,9.6043 16.9562,9.1573 17.5092,9.1573 L30.5692,9.1573 Z M20.4682,34.4613 C20.4682,34.9893 20.8992,35.4203 21.4272,35.4203 C21.9552,35.4203 22.3862,34.9893 22.3862,34.4613 C22.3862,33.9323 21.9552,33.5023 21.4272,33.5023 C20.8992,33.5023 20.4682,33.9323 20.4682,34.4613 Z M27.6102,40.5563 C27.6102,40.0273 27.1792,39.5973 26.6512,39.5973 C26.1222,39.5973 25.6922,40.0273 25.6922,40.5563 C25.6922,41.0843 26.1222,41.5143 26.6512,41.5143 C27.1792,41.5143 27.6102,41.0843 27.6102,40.5563 Z M30.4392,43.9083 L30.4392,35.4993 L24.1882,35.4993 C23.7662,36.6183 22.6922,37.4203 21.4272,37.4203 C19.7952,37.4203 18.4682,36.0933 18.4682,34.4613 C18.4682,32.8293 19.7952,31.5023 21.4272,31.5023 C22.7202,31.5023 23.8102,32.3413 24.2112,33.4993 L30.4392,33.4993 L30.4392,31.1083 L17.6392,31.1083 L17.6392,39.5173 L23.8892,39.5173 C24.3122,38.3983 25.3852,37.5973 26.6512,37.5973 C28.2822,37.5973 29.6102,38.9243 29.6102,40.5563 C29.6102,42.1863 28.2822,43.5143 26.6512,43.5143 C25.3572,43.5143 24.2672,42.6753 23.8652,41.5173 L17.6392,41.5173 L17.6392,43.9083 L30.4392,43.9083 Z M32.4392,44.9083 C32.4392,45.4613 31.9912,45.9083 31.4392,45.9083 L16.6392,45.9083 C16.0862,45.9083 15.6392,45.4613 15.6392,44.9083 L15.6392,30.1083 C15.6392,29.5563 16.0862,29.1083 16.6392,29.1083 L31.4392,29.1083 C31.9912,29.1083 32.4392,29.5563 32.4392,30.1083 L32.4392,44.9083 Z M36.8562,27.6233 L12.8242,27.5993 C8.6952,27.5993 5.2672,24.4953 5.0202,20.5333 C5.0092,20.3313 5.0002,20.1303 5.0002,19.9313 C5.0002,16.4843 6.8582,13.8523 10.0162,12.7453 C10.0092,12.5993 10.0062,12.4553 10.0062,12.3133 C10.0062,8.4003 12.6582,4.3403 16.1752,2.8673 C20.2762,1.1533 24.6242,2.0113 27.8072,5.1603 C28.3582,5.7013 28.8492,6.3093 29.2632,6.9653 L27.5732,8.0333 C27.2402,7.5083 26.8472,7.0203 26.4032,6.5853 C25.1572,5.3513 21.7492,2.7033 16.9462,4.7133 C14.1762,5.8723 12.0062,9.2113 12.0062,12.3133 C12.0062,12.6663 12.0302,13.0193 12.0692,13.3563 C12.1262,13.8543 11.8062,14.3183 11.3202,14.4403 C9.7062,14.8473 7.0002,16.0993 7.0002,19.9313 C7.0002,20.0973 7.0092,20.2633 7.0172,20.4203 C7.1972,23.3193 9.7492,25.5993 12.8252,25.5993 L36.7772,25.6263 C36.9062,25.6103 41.9482,25.1113 41.9482,19.9923 C41.9482,15.6923 38.3332,14.6023 36.7782,14.3343 C36.2632,14.2453 35.9052,13.7733 35.9532,13.2563 C35.7452,10.6653 34.3362,9.5993 33.0762,9.4683 L33.2832,7.4793 C35.1522,7.6743 37.3972,9.1203 37.8842,12.5263 C40.9432,13.3033 43.9482,15.6033 43.9482,19.9923 C43.9482,25.5773 39.3092,27.4263 36.8562,27.6233 Z" id="Amazon-IOT-RESOURCES-IoT-simulator_Resource-Icon_light-bg" fill="#3F8624"></path>
    </g>
</svg>