<?xml version="1.0" encoding="UTF-8"?>
<svg width="48px" height="48px" viewBox="0 0 48 48" version="1.1" xmlns="http://www.w3.org/2000/svg" xmlns:xlink="http://www.w3.org/1999/xlink">
    <title>Icon-Resource/IoT/Res_Amazon-IoT_Sailboat _48_Light</title>
    <g id="Icon-Resource/IoT/Res_Amazon-IoT_Sailboat-_48" stroke="none" stroke-width="1" fill="none" fill-rule="evenodd">
        <path d="M21.841,26.881 C20.512,25.552 18.728,24.82 16.817,24.82 L16.817,26.82 C18.194,26.82 19.476,27.344 20.427,28.295 C21.378,29.246 21.902,30.528 21.902,31.906 L23.902,31.906 C23.902,29.994 23.17,28.21 21.841,26.881 L21.841,26.881 Z M16.791,16.271 L16.783,18.271 C24.304,18.298 30.422,24.415 30.422,31.906 L32.422,31.906 C32.422,23.316 25.41,16.302 16.791,16.271 L16.791,16.271 Z M16.787,7.751 L16.787,9.751 C29.003,9.751 38.942,19.69 38.942,31.906 L40.942,31.906 C40.942,18.587 30.106,7.751 16.787,7.751 L16.787,7.751 Z M17,42 L31,42 L31,40 L17,40 L17,42 Z M6,32 L8,32 L8,16 L6,16 L6,32 Z M7,38 C5.346,38 4,39.345 4,41 C4,42.654 5.346,44 7,44 C8.654,44 10,42.654 10,41 C10,39.345 8.654,38 7,38 L7,38 Z M7,46 C4.243,46 2,43.756 2,41 C2,38.243 4.243,36 7,36 C9.757,36 12,38.243 12,41 C12,43.756 9.757,46 7,46 L7,46 Z M7,4 C5.346,4 4,5.345 4,7 C4,8.654 5.346,10 7,10 C8.654,10 10,8.654 10,7 C10,5.345 8.654,4 7,4 L7,4 Z M7,12 C4.243,12 2,9.756 2,7 C2,4.243 4.243,2 7,2 C9.757,2 12,4.243 12,7 C12,9.756 9.757,12 7,12 L7,12 Z M41,38 C39.346,38 38,39.345 38,41 C38,42.654 39.346,44 41,44 C42.654,44 44,42.654 44,41 C44,39.345 42.654,38 41,38 L41,38 Z M41,46 C38.243,46 36,43.756 36,41 C36,38.243 38.243,36 41,36 C43.757,36 46,38.243 46,41 C46,43.756 43.757,46 41,46 L41,46 Z" id="Fill-1" fill="#3F8624"></path>
    </g>
</svg>