<?xml version="1.0" encoding="UTF-8"?>
<svg width="48px" height="48px" viewBox="0 0 48 48" version="1.1" xmlns="http://www.w3.org/2000/svg" xmlns:xlink="http://www.w3.org/1999/xlink">
    <title>Icon-Resource/IoT/Res_AWS-IoT-SiteWise_Asset-Model_48_Light</title>
    <g id="Icon-Resource/IoT/Res_AWS-IoT-SiteWise_Asset-Model_48" stroke="none" stroke-width="1" fill="none" fill-rule="evenodd">
        <path d="M38,26 C36.897,26 36,25.103 36,24 C36,22.897 36.897,22 38,22 C39.103,22 40,22.897 40,24 C40,25.103 39.103,26 38,26 L38,26 Z M38,20 C35.794,20 34,21.794 34,24 C34,26.206 35.794,28 38,28 C40.206,28 42,26.206 42,24 C42,21.794 40.206,20 38,20 L38,20 Z M29,29 L25,29 L23,29 L19,29 L19,25 L19,23 L19,19 L23,19 L25,19 L29,19 L29,23 L29,25 L29,29 Z M31,23 L31,17 L25,17 L25,14 L24,14 L23,14 L23,17 L17,17 L17,23 L14,23 L14,24 L14,25 L17,25 L17,31 L23,31 L23,34 L24,34 L25,34 L25,31 L31,31 L31,25 L34,25 L34,24 L34,23 L31,23 Z M10,26 C8.897,26 8,25.103 8,24 C8,22.897 8.897,22 10,22 C11.103,22 12,22.897 12,24 C12,25.103 11.103,26 10,26 L10,26 Z M10,20 C7.794,20 6,21.794 6,24 C6,26.206 7.794,28 10,28 C12.206,28 14,26.206 14,24 C14,21.794 12.206,20 10,20 L10,20 Z M24,36 C25.103,36 26,36.897 26,38 C26,39.103 25.103,40 24,40 C22.897,40 22,39.103 22,38 C22,36.897 22.897,36 24,36 L24,36 Z M20,38 C20,40.206 21.794,42 24,42 C26.206,42 28,40.206 28,38 C28,35.794 26.206,34 24,34 C21.794,34 20,35.794 20,38 L20,38 Z M24,12 C22.897,12 22,11.103 22,10 C22,8.897 22.897,8 24,8 C25.103,8 26,8.897 26,10 C26,11.103 25.103,12 24,12 L24,12 Z M28,10 C28,7.794 26.206,6 24,6 C21.794,6 20,7.794 20,10 C20,12.206 21.794,14 24,14 C26.206,14 28,12.206 28,10 L28,10 Z M24,43.5 C13.248,43.5 4.5,34.752 4.5,24 C4.5,13.248 13.248,4.5 24,4.5 C34.752,4.5 43.5,13.248 43.5,24 C43.5,34.752 34.752,43.5 24,43.5 L24,43.5 Z M24,2.5 C12.145,2.5 2.5,12.145 2.5,24 C2.5,35.855 12.145,45.5 24,45.5 C35.855,45.5 45.5,35.855 45.5,24 C45.5,12.145 35.855,2.5 24,2.5 L24,2.5 Z" id="Fill-1" fill="#3F8624"></path>
    </g>
</svg>