<?xml version="1.0" encoding="UTF-8"?>
<svg width="48px" height="48px" viewBox="0 0 48 48" version="1.1" xmlns="http://www.w3.org/2000/svg" xmlns:xlink="http://www.w3.org/1999/xlink">
    <title>Icon-Resource/Compute/Res_AWS-IoT-SiteWise_Asset-Hierarchy_48_Light</title>
    <g id="Icon-Resource/Compute/Res_AWS-IoT-SiteWise_Asset-Hierarchy_48" stroke="none" stroke-width="1" fill="none" fill-rule="evenodd">
        <path d="M22,8 L26,8 L26,4 L22,4 L22,8 Z M21,10 L27,10 C27.552,10 28,9.552 28,9 L28,3 C28,2.448 27.552,2 27,2 L21,2 C20.448,2 20,2.448 20,3 L20,9 C20,9.552 20.448,10 21,10 L21,10 Z M14,25 L18,25 L18,21 L14,21 L14,25 Z M30,25 L34,25 L34,21 L30,21 L30,25 Z M7,32 L23,32 L23,36 L25,36 L25,32 L41,32 L41,36 L43,36 L43,31 C43,30.448 42.552,30 42,30 L33,30 L33,27 L35,27 C35.552,27 36,26.552 36,26 L36,20 C36,19.448 35.552,19 35,19 L29,19 C28.448,19 28,19.448 28,20 L28,26 C28,26.552 28.448,27 29,27 L31,27 L31,30 L17,30 L17,27 L19,27 C19.552,27 20,26.552 20,26 L20,20 C20,19.448 19.552,19 19,19 L13,19 C12.448,19 12,19.448 12,20 L12,26 C12,26.552 12.448,27 13,27 L15,27 L15,30 L6,30 C5.448,30 5,30.448 5,31 L5,36 L7,36 L7,32 Z M17,17 L15,17 L15,14 C15,13.448 15.448,13 16,13 L23,13 L23,11 L25,11 L25,13 L32,13 C32.552,13 33,13.448 33,14 L33,17 L31,17 L31,15 L17,15 L17,17 Z M40,44 L44,44 L44,40 L40,40 L40,44 Z M45,38 L39,38 C38.448,38 38,38.448 38,39 L38,45 C38,45.552 38.448,46 39,46 L45,46 C45.552,46 46,45.552 46,45 L46,39 C46,38.448 45.552,38 45,38 L45,38 Z M22,44 L26,44 L26,40 L22,40 L22,44 Z M27,38 L21,38 C20.448,38 20,38.448 20,39 L20,45 C20,45.552 20.448,46 21,46 L27,46 C27.552,46 28,45.552 28,45 L28,39 C28,38.448 27.552,38 27,38 L27,38 Z M4,44 L8,44 L8,40 L4,40 L4,44 Z M9,38 L3,38 C2.448,38 2,38.448 2,39 L2,45 C2,45.552 2.448,46 3,46 L9,46 C9.552,46 10,45.552 10,45 L10,39 C10,38.448 9.552,38 9,38 L9,38 Z" id="Fill-1" fill="#3F8624"></path>
    </g>
</svg>