<?xml version="1.0" encoding="UTF-8"?>
<svg width="48px" height="48px" viewBox="0 0 48 48" version="1.1" xmlns="http://www.w3.org/2000/svg" xmlns:xlink="http://www.w3.org/1999/xlink">
    <title>Icon-Resource/IoT/Res_IoT_Sensor_48_Light</title>
    <g id="Icon-Resource/IoT/Res_IoT_Sensor_48" stroke="none" stroke-width="1" fill="none" fill-rule="evenodd">
        <path d="M22.664,40.3939 L25.674,40.3939 L24.169,38.3539 L22.664,40.3939 Z M19.879,40.7999 L23.364,36.0759 C23.741,35.5639 24.597,35.5639 24.974,36.0759 L28.459,40.7999 C28.683,41.1039 28.717,41.5079 28.547,41.8449 C28.377,42.1809 28.031,42.3939 27.654,42.3939 L20.684,42.3939 C20.307,42.3939 19.961,42.1809 19.791,41.8449 C19.621,41.5079 19.655,41.1039 19.879,40.7999 Z M11.534,40.6319 C12.28,40.6319 12.887,40.0259 12.887,39.2799 C12.887,38.5339 12.28,37.9269 11.534,37.9269 C10.788,37.9269 10.182,38.5339 10.182,39.2799 C10.182,40.0259 10.788,40.6319 11.534,40.6319 Z M11.534,35.9269 C13.383,35.9269 14.887,37.4309 14.887,39.2799 C14.887,41.1279 13.383,42.6319 11.534,42.6319 C9.685,42.6319 8.182,41.1279 8.182,39.2799 C8.182,37.4309 9.685,35.9269 11.534,35.9269 Z M6,43.9429 L42.338,43.9429 L42.338,34.6159 L6,34.6159 L6,43.9429 Z M44.338,44.9429 C44.338,45.4959 43.891,45.9429 43.338,45.9429 L5,45.9429 C4.447,45.9429 4,45.4959 4,44.9429 L4,33.6159 C4,33.0629 4.447,32.6159 5,32.6159 L23.169,32.6159 L23.169,21.2169 L21.391,22.9959 L19.976,21.5819 L23.462,18.0959 C23.852,17.7059 24.485,17.7059 24.876,18.0959 L28.361,21.5819 L26.947,22.9959 L25.169,21.2169 L25.169,32.6159 L43.338,32.6159 C43.891,32.6159 44.338,33.0629 44.338,33.6159 L44.338,44.9429 Z M4.68,19.9419 C4.68,16.4949 6.538,13.8609 9.698,12.7519 C9.692,12.6089 9.689,12.4669 9.689,12.3269 C9.689,8.4109 12.343,4.3469 15.862,2.8729 C19.965,1.1529 24.318,2.0049 27.503,5.1599 C28.401,6.0509 29.152,7.1169 29.745,8.3369 C30.552,7.7689 31.503,7.4579 32.499,7.4579 C34.657,7.4579 37.08,9.0529 37.588,12.5379 C40.65,13.3039 43.658,15.5999 43.658,20.0029 C43.658,25.5919 39.016,27.4419 36.56,27.6399 L26.781,27.6339 L26.783,25.6339 L36.481,25.6429 C36.611,25.6269 41.658,25.1269 41.658,20.0029 C41.658,15.6879 38.043,14.6119 36.489,14.3499 C35.97,14.2619 35.607,13.7879 35.66,13.2639 C35.466,10.4789 33.835,9.4579 32.499,9.4579 C31.604,9.4579 30.763,9.8989 30.189,10.6669 C29.97,10.9629 29.609,11.1089 29.239,11.0589 C28.875,11.0039 28.57,10.7529 28.446,10.4069 C27.897,8.8719 27.106,7.5829 26.096,6.5809 C24.852,5.3489 21.435,2.7009 16.635,4.7179 C13.861,5.8789 11.689,9.2209 11.689,12.3269 C11.689,12.6799 11.714,13.0249 11.752,13.3629 C11.81,13.8609 11.489,14.3249 11.003,14.4469 C9.389,14.8539 6.68,16.1089 6.68,19.9419 C6.68,20.1169 6.687,20.2739 6.695,20.4329 C6.876,23.3339 9.432,25.6169 12.511,25.6169 L21.556,25.6249 L21.554,27.6249 L12.51,27.6169 C8.378,27.6169 4.946,24.5099 4.698,20.5449 C4.687,20.3419 4.68,20.1519 4.68,19.9419 Z" id="Amazon-IOT-RESOURCES-IoT-sensor_Resource-Icon_light-bg" fill="#3F8624"></path>
    </g>
</svg>