<?xml version="1.0" encoding="UTF-8"?>
<svg width="48px" height="48px" viewBox="0 0 48 48" version="1.1" xmlns="http://www.w3.org/2000/svg" xmlns:xlink="http://www.w3.org/1999/xlink">
    <title>Icon-Resource/IoT/Res_IoT_Shadow_48_Light</title>
    <g id="Icon-Resource/IoT/Res_IoT_Shadow_48" stroke="none" stroke-width="1" fill="none" fill-rule="evenodd">
        <path d="M35.437,40.4143 L37.803,40.4143 L37.803,38.0493 L35.437,38.0493 L35.437,40.4143 Z M38.803,42.4143 C39.356,42.4143 39.803,41.9673 39.803,41.4143 L39.803,37.0493 C39.803,36.4963 39.356,36.0493 38.803,36.0493 L34.437,36.0493 C33.884,36.0493 33.437,36.4963 33.437,37.0493 L33.437,41.4143 C33.437,41.9673 33.884,42.4143 34.437,42.4143 L38.803,42.4143 Z M23.958,38.3003 L25.47,40.3503 L22.446,40.3503 L23.958,38.3003 Z M27.451,42.3503 C27.828,42.3503 28.173,42.1383 28.343,41.8023 C28.513,41.4653 28.479,41.0603 28.255,40.7573 L24.763,36.0213 C24.575,35.7663 24.276,35.6153 23.958,35.6153 C23.641,35.6153 23.342,35.7653 23.154,36.0213 L19.661,40.7573 C19.437,41.0603 19.403,41.4653 19.573,41.8023 C19.743,42.1373 20.088,42.3503 20.465,42.3503 L27.451,42.3503 Z M12.654,39.2313 C12.654,39.9793 12.044,40.5893 11.296,40.5893 C10.548,40.5893 9.939,39.9793 9.939,39.2313 C9.939,38.4833 10.548,37.8743 11.296,37.8743 C12.044,37.8743 12.654,38.4833 12.654,39.2313 Z M14.654,39.2313 C14.654,37.3803 13.148,35.8743 11.296,35.8743 C9.445,35.8743 7.939,37.3803 7.939,39.2313 C7.939,41.0833 9.445,42.5893 11.296,42.5893 C13.148,42.5893 14.654,41.0833 14.654,39.2313 Z M5.747,43.9073 L42.168,43.9073 L42.168,34.5553 L5.747,34.5553 L5.747,43.9073 Z M4.747,32.5553 C4.195,32.5553 3.747,33.0033 3.747,33.5553 L3.747,44.9073 C3.747,45.4603 4.195,45.9073 4.747,45.9073 L43.168,45.9073 C43.721,45.9073 44.168,45.4603 44.168,44.9073 L44.168,33.5553 C44.168,33.0033 43.721,32.5553 43.168,32.5553 L4.747,32.5553 Z M32.808,23.0133 L34.31,23.0133 L34.31,21.5123 L32.808,21.5123 L32.808,23.0133 Z M31.808,19.5123 C31.255,19.5123 30.808,19.9603 30.808,20.5123 L30.808,24.0133 C30.808,24.5663 31.255,25.0133 31.808,25.0133 L35.31,25.0133 C35.863,25.0133 36.31,24.5663 36.31,24.0133 L36.31,20.5123 C36.31,19.9603 35.863,19.5123 35.31,19.5123 L31.808,19.5123 Z M22.6,22.9503 L23.376,22.0193 L24.152,22.9503 L22.6,22.9503 Z M24.145,19.8173 C23.954,19.5893 23.673,19.4573 23.376,19.4573 C23.079,19.4573 22.798,19.5893 22.608,19.8163 L19.697,23.3093 C19.449,23.6083 19.395,24.0223 19.56,24.3743 C19.724,24.7253 20.078,24.9503 20.465,24.9503 L26.287,24.9503 C26.674,24.9503 27.028,24.7253 27.192,24.3743 C27.357,24.0233 27.303,23.6083 27.055,23.3103 L24.145,19.8173 Z M12.605,22.2043 C12.605,21.7213 12.997,21.3293 13.48,21.3293 C13.961,21.3293 14.354,21.7213 14.354,22.2043 C14.354,22.6853 13.961,23.0783 13.48,23.0783 C12.997,23.0783 12.605,22.6853 12.605,22.2043 Z M10.605,22.2043 C10.605,23.7893 11.895,25.0783 13.48,25.0783 C15.065,25.0783 16.354,23.7893 16.354,22.2043 C16.354,20.6193 15.065,19.3293 13.48,19.3293 C11.895,19.3293 10.605,20.6193 10.605,22.2043 Z M10.114,25.5693 L36.929,25.5693 L36.929,18.8383 L10.114,18.8383 L10.114,25.5693 Z M37.929,27.5693 C38.482,27.5693 38.929,27.1223 38.929,26.5693 L38.929,17.8383 C38.929,17.2853 38.482,16.8383 37.929,16.8383 L9.114,16.8383 C8.561,16.8383 8.114,17.2853 8.114,17.8383 L8.114,26.5693 C8.114,27.1223 8.561,27.5693 9.114,27.5693 L37.929,27.5693 Z M9.007,15.9643 C9.494,15.8413 9.813,15.3753 9.753,14.8763 C9.705,14.4763 9.681,14.0713 9.681,13.6723 C9.681,10.0613 12.178,6.1783 15.367,4.8303 C16.803,4.2223 18.131,3.9813 19.335,3.9813 C22.759,3.9813 25.177,5.9363 26.233,6.9943 C27.397,8.1593 28.305,9.6493 28.934,11.4253 C29.057,11.7733 29.363,12.0253 29.729,12.0803 C30.09,12.1303 30.46,11.9813 30.68,11.6853 C31.553,10.5063 32.971,9.9983 34.288,10.3813 C35.882,10.8473 36.934,12.4723 37.116,14.7373 C37.05,15.2643 37.412,15.7543 37.939,15.8443 C39.736,16.1523 43.915,17.4143 43.915,22.4603 C43.915,28.4663 38.081,29.0443 37.918,29.0623 L10.744,29.0343 C7.186,29.0303 4.232,26.3583 4.018,22.9513 C4.006,22.7693 4,22.5863 4,22.3953 C4,17.9083 7.137,16.4403 9.007,15.9643 Z M37.998,31.0593 C40.737,30.8373 45.915,28.7543 45.915,22.4603 C45.915,17.4693 42.5,14.8813 39.051,14.0343 C38.669,11.1893 37.131,9.1293 34.85,8.4623 C33.242,7.9883 31.555,8.3303 30.233,9.3233 C29.557,7.8803 28.692,6.6253 27.648,5.5803 C24.08,2.0093 19.199,1.0393 14.587,2.9883 C10.65,4.6523 7.681,9.2453 7.681,13.6723 C7.681,13.8703 7.686,14.0703 7.696,14.2703 C5.514,15.0283 2,17.0773 2,22.3953 C2,22.6293 2.008,22.8553 2.022,23.0763 C2.301,27.5343 6.131,31.0293 10.742,31.0343 L37.998,31.0593 Z" id="Amazon-IOT-RESOURCES-IoT-shadow_Resource-Icon_light-bg" fill="#3F8624"></path>
    </g>
</svg>