<?xml version="1.0" encoding="UTF-8"?>
<svg width="48px" height="48px" viewBox="0 0 48 48" version="1.1" xmlns="http://www.w3.org/2000/svg" xmlns:xlink="http://www.w3.org/1999/xlink">
    <title>Icon-Resource/IoT/Res_IoT-Thing_Coffee-Pot_48_Light</title>
    <g id="Icon-Resource/IoT/Res_IoT-Thing_Coffee-Pot_48" stroke="none" stroke-width="1" fill="none" fill-rule="evenodd">
        <path d="M17.4217,36.1602 C17.2937,36.1082 17.0207,35.6612 17.0687,35.0302 L17.1597,33.8872 C17.1797,33.8082 17.1907,33.7252 17.1907,33.6402 C17.1907,33.0882 16.7297,32.6402 16.1767,32.6402 L15.7987,32.6402 C15.2447,32.6402 14.7157,31.9142 14.5797,30.9122 L11.9447,18.3642 L12.8077,18.0392 L15.7737,26.8752 C15.9227,27.3212 16.3607,27.5992 16.8307,27.5512 C17.2987,27.4992 17.6667,27.1292 17.7157,26.6612 L18.7207,17.0622 L27.4967,17.0622 L29.9987,35.0042 C30.0567,35.6472 29.7807,36.1062 29.6767,36.1562 L17.4217,36.1602 Z M24.8517,13.5472 C25.8837,13.5472 26.7727,14.1722 27.1597,15.0622 L19.0277,15.0622 C19.4147,14.1722 20.3037,13.5472 21.3357,13.5472 L24.8517,13.5472 Z M33.5197,25.0102 C33.5197,26.5222 32.4787,27.8022 31.0617,28.1492 L30.0157,20.6472 C31.9987,20.9752 33.5197,22.6892 33.5197,24.7642 L33.5197,25.0102 Z M34.3987,34.4402 L31.9387,34.4402 L31.3357,30.1202 C33.7317,29.6322 35.5197,27.5282 35.5197,25.0102 L35.5197,24.7642 C35.5197,21.4872 32.9557,18.8042 29.7307,18.5982 L29.3577,15.9252 C29.3567,15.9182 29.3527,15.9132 29.3517,15.9072 C29.2677,13.4902 27.2877,11.5472 24.8517,11.5472 L24.0937,11.5472 L24.0937,9.9102 L22.0937,9.9102 L22.0937,11.5472 L21.3357,11.5472 C18.8897,11.5472 16.9037,13.5052 16.8327,15.9342 C16.8317,15.9422 16.8267,15.9492 16.8257,15.9582 L16.2057,21.8782 L14.3737,16.4202 C14.2867,16.1632 14.0997,15.9512 13.8547,15.8352 C13.6107,15.7182 13.3287,15.7052 13.0727,15.8022 L10.4367,16.7952 C9.9747,16.9692 9.7087,17.4532 9.8107,17.9362 L12.6107,31.2502 C12.8307,32.9182 13.8317,34.1982 15.1007,34.5472 L15.0737,34.8752 C14.9997,35.8672 15.3017,36.8342 15.8837,37.4612 C16.2997,37.9092 16.8377,38.1562 17.3987,38.1562 L29.6767,38.1562 C30.2397,38.1562 30.7807,37.9052 31.1977,37.4492 C31.4517,37.1732 31.6387,36.8232 31.7757,36.4402 L34.3987,36.4402 L34.3987,37.1562 C34.3987,37.7092 34.8457,38.1562 35.3987,38.1562 L38.0337,38.1562 L38.0337,36.1562 L36.3987,36.1562 L36.3987,35.4402 L36.3987,35.3982 L36.3987,34.6402 L38.0337,34.6402 L38.0337,32.6402 L35.3987,32.6402 C34.8457,32.6402 34.3987,33.0882 34.3987,33.6402 L34.3987,34.4402 Z M39.6697,38.5372 C39.6697,39.1632 39.1607,39.6722 38.5347,39.6722 L9.4087,39.6722 C8.7827,39.6722 8.2747,39.1632 8.2747,38.5372 L8.2747,9.4242 C8.2747,8.7982 8.7827,8.2882 9.4087,8.2882 L38.5347,8.2882 C39.1607,8.2882 39.6697,8.7982 39.6697,9.4242 L39.6697,38.5372 Z M45.9457,14.4262 L45.9457,12.4262 L41.6697,12.4262 L41.6697,9.4242 C41.6697,7.6942 40.2637,6.2882 38.5347,6.2882 L35.5197,6.2882 L35.5197,2.0002 L33.5197,2.0002 L33.5197,6.2882 L30.2457,6.2882 L30.2457,2.0002 L28.2457,2.0002 L28.2457,6.2882 L24.9727,6.2882 L24.9727,2.0002 L22.9727,2.0002 L22.9727,6.2882 L19.6987,6.2882 L19.6987,2.0002 L17.6987,2.0002 L17.6987,6.2882 L14.4257,6.2882 L14.4257,2.0002 L12.4257,2.0002 L12.4257,6.2882 L9.4087,6.2882 C7.6807,6.2882 6.2747,7.6942 6.2747,9.4242 L6.2747,12.4262 L1.9997,12.4262 L1.9997,14.4262 L6.2747,14.4262 L6.2747,17.6992 L1.9997,17.6992 L1.9997,19.6992 L6.2747,19.6992 L6.2747,22.9722 L1.9997,22.9722 L1.9997,24.9722 L6.2747,24.9722 L6.2747,28.2462 L1.9997,28.2462 L1.9997,30.2462 L6.2747,30.2462 L6.2747,33.5192 L1.9997,33.5192 L1.9997,35.5192 L6.2747,35.5192 L6.2747,38.5372 C6.2747,40.2652 7.6807,41.6722 9.4087,41.6722 L12.4257,41.6722 L12.4257,45.9452 L14.4257,45.9452 L14.4257,41.6722 L17.6987,41.6722 L17.6987,45.9452 L19.6987,45.9452 L19.6987,41.6722 L22.9727,41.6722 L22.9727,45.9452 L24.9727,45.9452 L24.9727,41.6722 L28.2457,41.6722 L28.2457,45.9452 L30.2457,45.9452 L30.2457,41.6722 L33.5197,41.6722 L33.5197,45.9452 L35.5197,45.9452 L35.5197,41.6722 L38.5347,41.6722 C40.2637,41.6722 41.6697,40.2652 41.6697,38.5372 L41.6697,35.5192 L45.9457,35.5192 L45.9457,33.5192 L41.6697,33.5192 L41.6697,30.2462 L45.9457,30.2462 L45.9457,28.2462 L41.6697,28.2462 L41.6697,24.9722 L45.9457,24.9722 L45.9457,22.9722 L41.6697,22.9722 L41.6697,19.6992 L45.9457,19.6992 L45.9457,17.6992 L41.6697,17.6992 L41.6697,14.4262 L45.9457,14.4262 Z" id="Amazon-IOT-RESOURCES-IoT-thing-coffee-pot_Resource-Icon_light-bg" fill="#3F8624"></path>
    </g>
</svg>