<?xml version="1.0" encoding="UTF-8"?>
<svg width="48px" height="48px" viewBox="0 0 48 48" version="1.1" xmlns="http://www.w3.org/2000/svg" xmlns:xlink="http://www.w3.org/1999/xlink">
    <title>Icon-Resource/IoT/Res_AWS-IoT_Thing_Industrial-PC_48_Light</title>
    <g id="Icon-Resource/IoT/Res_AWS-IoT_Thing_Industrial-PC_48" stroke="none" stroke-width="1" fill="none" fill-rule="evenodd">
        <path d="M17,29 L21,29 L21,27 L17,27 L17,29 Z M27,29 L33,29 L33,27 L27,27 L27,29 Z M27,26 L33,26 L33,24 L27,24 L27,26 Z M20,26 L23,26 L23,24 L20,24 L20,26 Z M15,26 L18,26 L18,24 L15,24 L15,26 Z M33,20 L33,17 L34.632,17 C34.831,17 35,17.168 35,17.368 L35,20 L33,20 Z M35,30.632 C35,30.832 34.831,31 34.632,31 L13.368,31 C13.169,31 13,30.832 13,30.632 L13,22 L35,22 L35,30.632 Z M13.368,17 L15,17 L15,20 L13,20 L13,17.368 C13,17.168 13.169,17 13.368,17 L13.368,17 Z M17,20 L19,20 L19,17 L17,17 L17,20 Z M21,20 L23,20 L23,17 L21,17 L21,20 Z M25,20 L27,20 L27,17 L25,17 L25,20 Z M29,20 L31,20 L31,17 L29,17 L29,20 Z M34.632,15 L13.368,15 C12.063,15 11,16.063 11,17.368 L11,30.632 C11,31.937 12.063,33 13.368,33 L34.632,33 C35.938,33 37,31.937 37,30.632 L37,22 L37,20 L37,17.368 C37,16.063 35.938,15 34.632,15 L34.632,15 Z M39,37.865 C39,38.491 38.491,39 37.865,39 L10.135,39 C9.509,39 9,38.491 9,37.865 L9,10.135 C9,9.509 9.509,9 10.135,9 L37.865,9 C38.491,9 39,9.509 39,10.135 L39,37.865 Z M46,15 L46,13 L41,13 L41,10.135 C41,8.406 39.594,7 37.865,7 L35,7 L35,2 L33,2 L33,7 L30,7 L30,2 L28,2 L28,7 L25,7 L25,2 L23,2 L23,7 L20,7 L20,2 L18,2 L18,7 L15,7 L15,2 L13,2 L13,7 L10.135,7 C8.406,7 7,8.406 7,10.135 L7,13 L2,13 L2,15 L7,15 L7,18 L2,18 L2,20 L7,20 L7,23 L2,23 L2,25 L7,25 L7,28 L2,28 L2,30 L7,30 L7,33 L2,33 L2,35 L7,35 L7,37.865 C7,39.594 8.406,41 10.135,41 L13,41 L13,46 L15,46 L15,41 L18,41 L18,46 L20,46 L20,41 L23,41 L23,46 L25,46 L25,41 L28,41 L28,46 L30,46 L30,41 L33,41 L33,46 L35,46 L35,41 L37.865,41 C39.594,41 41,39.594 41,37.865 L41,35 L46,35 L46,33 L41,33 L41,30 L46,30 L46,28 L41,28 L41,25 L46,25 L46,23 L41,23 L41,20 L46,20 L46,18 L41,18 L41,15 L46,15 Z" id="Fill-1" fill="#3F8624"></path>
    </g>
</svg>