<?xml version="1.0" encoding="UTF-8"?>
<svg width="48px" height="48px" viewBox="0 0 48 48" version="1.1" xmlns="http://www.w3.org/2000/svg" xmlns:xlink="http://www.w3.org/1999/xlink">
    <title>Icon-Resource/IoT/Res_IoT-Thing_Camera_48_Light</title>
    <g id="Icon-Resource/IoT/Res_IoT-Thing_Camera_48" stroke="none" stroke-width="1" fill="none" fill-rule="evenodd">
        <path d="M16.939,20.83 C16.939,21.107 16.693,21.333 16.389,21.333 L13.973,21.333 C13.669,21.333 13.423,21.107 13.423,20.83 L13.423,20.078 C13.423,19.801 13.669,19.575 13.973,19.575 L16.389,19.575 C16.693,19.575 16.939,19.801 16.939,20.078 L16.939,20.83 Z M21.968,25.216 C21.968,23.46 23.396,22.032 25.151,22.032 C26.907,22.032 28.335,23.46 28.335,25.216 C28.335,26.971 26.907,28.398 25.151,28.398 C23.396,28.398 21.968,26.971 21.968,25.216 Z M19.968,25.216 C19.968,28.073 22.293,30.398 25.151,30.398 C28.009,30.398 30.335,28.073 30.335,25.216 C30.335,22.357 28.009,20.032 25.151,20.032 C22.293,20.032 19.968,22.357 19.968,25.216 Z M19.171,25.216 C19.171,21.919 21.854,19.236 25.151,19.236 C28.448,19.236 31.13,21.919 31.13,25.216 C31.13,28.513 28.448,31.195 25.151,31.195 C21.854,31.195 19.171,28.513 19.171,25.216 Z M17.171,25.216 C17.171,29.616 20.751,33.195 25.151,33.195 C29.551,33.195 33.13,29.616 33.13,25.216 C33.13,20.815 29.551,17.236 25.151,17.236 C20.751,17.236 17.171,20.815 17.171,25.216 Z M36.15,32.879 C36.15,33.229 35.865,33.515 35.514,33.515 L12.405,33.515 C12.054,33.515 11.769,33.229 11.769,32.879 L11.769,18.562 C11.769,18.213 12.054,17.928 12.405,17.928 L13.366,17.928 C13.385,17.929 13.403,17.939 13.423,17.939 L16.939,17.939 C16.96,17.939 16.977,17.929 16.998,17.928 L20.491,17.928 C20.964,17.928 21.373,17.596 21.469,17.132 L21.924,14.954 C21.965,14.758 22.102,14.525 22.198,14.424 L28.235,14.424 C28.331,14.525 28.467,14.758 28.508,14.955 L28.964,17.133 C29.061,17.596 29.469,17.928 29.943,17.928 L35.514,17.928 C35.865,17.928 36.15,18.213 36.15,18.562 L36.15,32.879 Z M14.423,15.385 C14.423,15.354 14.425,15.327 14.429,15.303 L15.933,15.303 C15.937,15.327 15.939,15.354 15.939,15.385 L15.939,15.928 L14.423,15.928 L14.423,15.385 Z M30.755,15.928 L30.465,14.546 C30.294,13.725 29.572,12.424 28.361,12.424 L22.072,12.424 C20.861,12.424 20.138,13.725 19.967,14.546 L19.678,15.928 L17.939,15.928 L17.939,15.385 C17.939,14.217 17.176,13.303 16.202,13.303 L14.161,13.303 C13.186,13.303 12.423,14.217 12.423,15.385 L12.423,15.928 L12.405,15.928 C10.952,15.928 9.769,17.109 9.769,18.562 L9.769,32.879 C9.769,34.332 10.952,35.515 12.405,35.515 L35.514,35.515 C36.967,35.515 38.15,34.332 38.15,32.879 L38.15,18.562 C38.15,17.109 36.967,15.928 35.514,15.928 L30.755,15.928 Z M39.664,38.53 C39.664,39.156 39.155,39.665 38.529,39.665 L9.409,39.665 C8.783,39.665 8.274,39.156 8.274,38.53 L8.274,9.423 C8.274,8.797 8.783,8.288 9.409,8.288 L38.529,8.288 C39.155,8.288 39.664,8.797 39.664,9.423 L39.664,38.53 Z M45.937,14.424 L45.937,12.424 L41.664,12.424 L41.664,9.423 C41.664,7.694 40.257,6.288 38.529,6.288 L35.513,6.288 L35.513,2 L33.513,2 L33.513,6.288 L30.241,6.288 L30.241,2 L28.241,2 L28.241,6.288 L24.968,6.288 L24.968,2 L22.968,2 L22.968,6.288 L19.696,6.288 L19.696,2 L17.696,2 L17.696,6.288 L14.423,6.288 L14.423,2 L12.423,2 L12.423,6.288 L9.409,6.288 C7.68,6.288 6.274,7.694 6.274,9.423 L6.274,12.424 L2,12.424 L2,14.424 L6.274,14.424 L6.274,17.696 L2,17.696 L2,19.696 L6.274,19.696 L6.274,22.969 L2,22.969 L2,24.969 L6.274,24.969 L6.274,28.241 L2,28.241 L2,30.241 L6.274,30.241 L6.274,33.515 L2,33.515 L2,35.515 L6.274,35.515 L6.274,38.53 C6.274,40.259 7.68,41.665 9.409,41.665 L12.423,41.665 L12.423,45.937 L14.423,45.937 L14.423,41.665 L17.696,41.665 L17.696,45.937 L19.696,45.937 L19.696,41.665 L22.968,41.665 L22.968,45.937 L24.968,45.937 L24.968,41.665 L28.241,41.665 L28.241,45.937 L30.241,45.937 L30.241,41.665 L33.513,41.665 L33.513,45.937 L35.513,45.937 L35.513,41.665 L38.529,41.665 C40.257,41.665 41.664,40.259 41.664,38.53 L41.664,35.515 L45.937,35.515 L45.937,33.515 L41.664,33.515 L41.664,30.241 L45.937,30.241 L45.937,28.241 L41.664,28.241 L41.664,24.969 L45.937,24.969 L45.937,22.969 L41.664,22.969 L41.664,19.696 L45.937,19.696 L45.937,17.696 L41.664,17.696 L41.664,14.424 L45.937,14.424 Z" id="Amazon-IOT-RESOURCES-IoT-thing-camera_Resource-Icon_light-bg" fill="#3F8624"></path>
    </g>
</svg>