<?xml version="1.0" encoding="UTF-8"?>
<svg width="48px" height="48px" viewBox="0 0 48 48" version="1.1" xmlns="http://www.w3.org/2000/svg" xmlns:xlink="http://www.w3.org/1999/xlink">
    <title>Icon-Resource/IoT/Res_AWS-IoT_Thing_Humidity-Sensor_48_Light</title>
    <g id="Icon-Resource/IoT/Res_AWS-IoT_Thing_Humidity-Sensor_48" stroke="none" stroke-width="1" fill="none" fill-rule="evenodd">
        <path d="M30.115,21.9995 C28.758,21.9995 27.654,20.8955 27.654,19.5385 C27.654,18.0605 29.072,15.9065 30.115,14.5655 C31.159,15.9065 32.577,18.0605 32.577,19.5385 C32.577,20.8955 31.472,21.9995 30.115,21.9995 L30.115,21.9995 Z M29.372,12.3305 C28.991,12.7535 25.654,16.5485 25.654,19.5385 C25.654,21.9985 27.655,23.9995 30.115,23.9995 C32.575,23.9995 34.577,21.9985 34.577,19.5385 C34.577,16.5485 31.239,12.7535 30.858,12.3305 C30.479,11.9085 29.751,11.9095 29.372,12.3305 L29.372,12.3305 Z M16.423,22.9995 C15.638,22.9995 15,22.3615 15,21.5765 C15,20.7805 15.711,19.5575 16.421,18.5925 C17.103,19.5235 17.845,20.7675 17.845,21.5765 C17.845,22.3615 17.207,22.9995 16.423,22.9995 L16.423,22.9995 Z M19.845,21.5765 C19.845,19.3725 17.44,16.6355 17.166,16.3305 C16.787,15.9085 16.058,15.9085 15.679,16.3305 C15.405,16.6355 13,19.3725 13,21.5765 C13,23.4635 14.535,24.9995 16.423,24.9995 C18.31,24.9995 19.845,23.4635 19.845,21.5765 L19.845,21.5765 Z M23.5,33.9995 C21.57,33.9995 20,32.4295 20,30.4995 C20,28.3835 22.107,25.2935 23.5,23.5515 C24.892,25.2935 27,28.3835 27,30.4995 C27,32.4295 25.429,33.9995 23.5,33.9995 L23.5,33.9995 Z M22.757,21.3305 C22.562,21.5465 18,26.6605 18,30.4995 C18,33.5325 20.468,35.9995 23.5,35.9995 C26.532,35.9995 29,33.5325 29,30.4995 C29,26.6605 24.437,21.5465 24.243,21.3305 C23.864,20.9085 23.136,20.9085 22.757,21.3305 L22.757,21.3305 Z M39,37.8655 C39,38.4905 38.491,38.9995 37.865,38.9995 L10.135,38.9995 C9.509,38.9995 9,38.4905 9,37.8655 L9,10.1345 C9,9.5095 9.509,8.9995 10.135,8.9995 L37.865,8.9995 C38.491,8.9995 39,9.5095 39,10.1345 L39,37.8655 Z M46,14.9995 L46,12.9995 L41,12.9995 L41,10.1345 C41,8.4065 39.594,6.9995 37.865,6.9995 L35,6.9995 L35,1.9995 L33,1.9995 L33,6.9995 L30,6.9995 L30,1.9995 L28,1.9995 L28,6.9995 L25,6.9995 L25,1.9995 L23,1.9995 L23,6.9995 L20,6.9995 L20,1.9995 L18,1.9995 L18,6.9995 L15,6.9995 L15,1.9995 L13,1.9995 L13,6.9995 L10.135,6.9995 C8.406,6.9995 7,8.4065 7,10.1345 L7,12.9995 L2,12.9995 L2,14.9995 L7,14.9995 L7,17.9995 L2,17.9995 L2,19.9995 L7,19.9995 L7,22.9995 L2,22.9995 L2,24.9995 L7,24.9995 L7,27.9995 L2,27.9995 L2,29.9995 L7,29.9995 L7,32.9995 L2,32.9995 L2,34.9995 L7,34.9995 L7,37.8655 C7,39.5935 8.406,40.9995 10.135,40.9995 L13,40.9995 L13,45.9995 L15,45.9995 L15,40.9995 L18,40.9995 L18,45.9995 L20,45.9995 L20,40.9995 L23,40.9995 L23,45.9995 L25,45.9995 L25,40.9995 L28,40.9995 L28,45.9995 L30,45.9995 L30,40.9995 L33,40.9995 L33,45.9995 L35,45.9995 L35,40.9995 L37.865,40.9995 C39.594,40.9995 41,39.5935 41,37.8655 L41,34.9995 L46,34.9995 L46,32.9995 L41,32.9995 L41,29.9995 L46,29.9995 L46,27.9995 L41,27.9995 L41,24.9995 L46,24.9995 L46,22.9995 L41,22.9995 L41,19.9995 L46,19.9995 L46,17.9995 L41,17.9995 L41,14.9995 L46,14.9995 Z" id="Fill-1" fill="#3F8624"></path>
    </g>
</svg>