<?xml version="1.0" encoding="UTF-8"?>
<svg width="48px" height="48px" viewBox="0 0 48 48" version="1.1" xmlns="http://www.w3.org/2000/svg" xmlns:xlink="http://www.w3.org/1999/xlink">
    <title>Icon-Resource/IoT/Res_IoT-Thing_Cart_48_Light</title>
    <g id="Icon-Resource/IoT/Res_IoT-Thing_Cart_48" stroke="none" stroke-width="1" fill="none" fill-rule="evenodd">
        <path d="M31.2597,27.3672 L19.0397,27.3672 L16.0777,17.9412 L34.2207,17.9412 L31.2597,27.3672 Z M32.6407,33.6402 C32.6407,34.3012 32.1037,34.8382 31.4437,34.8382 C30.7827,34.8382 30.2457,34.3012 30.2457,33.6402 C30.2457,32.9802 30.7827,32.4432 31.4437,32.4432 C32.1037,32.4432 32.6407,32.9802 32.6407,33.6402 Z M17.9417,33.6402 C17.9417,32.9802 18.4787,32.4432 19.1387,32.4432 C19.7987,32.4432 20.3357,32.9802 20.3357,33.6402 C20.3357,34.3012 19.7987,34.8382 19.1387,34.8382 C18.4787,34.8382 17.9417,34.3012 17.9417,33.6402 Z M15.9597,15.9412 L15.3737,13.6432 C15.1967,13.0002 14.6437,12.5162 14.0207,12.4372 L11.0667,11.5862 L10.5117,13.5082 L13.4947,14.3672 L14.1017,16.7452 C13.9007,17.0982 13.8447,17.5092 13.9687,17.9012 L17.2317,28.2832 C17.4357,28.9312 18.0507,29.3672 18.7617,29.3672 L19.7187,29.3672 L19.1927,30.4492 C19.1737,30.4482 19.1567,30.4432 19.1387,30.4432 C17.3757,30.4432 15.9417,31.8782 15.9417,33.6402 C15.9417,35.4032 17.3757,36.8382 19.1387,36.8382 C20.5497,36.8382 21.7377,35.9122 22.1597,34.6402 L28.4217,34.6402 C28.8447,35.9122 30.0317,36.8382 31.4437,36.8382 C33.2057,36.8382 34.6407,35.4032 34.6407,33.6402 C34.6407,31.8782 33.2057,30.4432 31.4437,30.4432 C30.0317,30.4432 28.8447,31.3692 28.4217,32.6402 L22.1597,32.6402 C21.9577,32.0332 21.5827,31.5102 21.0877,31.1252 L21.9437,29.3672 L31.5367,29.3672 C32.2487,29.3672 32.8637,28.9312 33.0687,28.2832 L36.3297,17.9012 C36.4717,17.4522 36.3907,16.9742 36.1097,16.5912 C35.8117,16.1842 35.3217,15.9412 34.7997,15.9412 L15.9597,15.9412 Z M39.6697,38.5372 C39.6697,39.1632 39.1607,39.6722 38.5347,39.6722 L9.4087,39.6722 C8.7827,39.6722 8.2747,39.1632 8.2747,38.5372 L8.2747,9.4242 C8.2747,8.7982 8.7827,8.2892 9.4087,8.2892 L38.5347,8.2892 C39.1607,8.2892 39.6697,8.7982 39.6697,9.4242 L39.6697,38.5372 Z M45.9457,14.4262 L45.9457,12.4262 L41.6697,12.4262 L41.6697,9.4242 C41.6697,7.6952 40.2637,6.2892 38.5347,6.2892 L35.5197,6.2892 L35.5197,2.0002 L33.5197,2.0002 L33.5197,6.2892 L30.2457,6.2892 L30.2457,2.0002 L28.2457,2.0002 L28.2457,6.2892 L24.9727,6.2892 L24.9727,2.0002 L22.9727,2.0002 L22.9727,6.2892 L19.6987,6.2892 L19.6987,2.0002 L17.6987,2.0002 L17.6987,6.2892 L14.4257,6.2892 L14.4257,2.0002 L12.4257,2.0002 L12.4257,6.2892 L9.4087,6.2892 C7.6807,6.2892 6.2747,7.6952 6.2747,9.4242 L6.2747,12.4262 L1.9997,12.4262 L1.9997,14.4262 L6.2747,14.4262 L6.2747,17.6992 L1.9997,17.6992 L1.9997,19.6992 L6.2747,19.6992 L6.2747,22.9722 L1.9997,22.9722 L1.9997,24.9722 L6.2747,24.9722 L6.2747,28.2462 L1.9997,28.2462 L1.9997,30.2462 L6.2747,30.2462 L6.2747,33.5192 L1.9997,33.5192 L1.9997,35.5192 L6.2747,35.5192 L6.2747,38.5372 C6.2747,40.2652 7.6807,41.6722 9.4087,41.6722 L12.4257,41.6722 L12.4257,45.9452 L14.4257,45.9452 L14.4257,41.6722 L17.6987,41.6722 L17.6987,45.9452 L19.6987,45.9452 L19.6987,41.6722 L22.9727,41.6722 L22.9727,45.9452 L24.9727,45.9452 L24.9727,41.6722 L28.2457,41.6722 L28.2457,45.9452 L30.2457,45.9452 L30.2457,41.6722 L33.5197,41.6722 L33.5197,45.9452 L35.5197,45.9452 L35.5197,41.6722 L38.5347,41.6722 C40.2637,41.6722 41.6697,40.2652 41.6697,38.5372 L41.6697,35.5192 L45.9457,35.5192 L45.9457,33.5192 L41.6697,33.5192 L41.6697,30.2462 L45.9457,30.2462 L45.9457,28.2462 L41.6697,28.2462 L41.6697,24.9722 L45.9457,24.9722 L45.9457,22.9722 L41.6697,22.9722 L41.6697,19.6992 L45.9457,19.6992 L45.9457,17.6992 L41.6697,17.6992 L41.6697,14.4262 L45.9457,14.4262 Z" id="Amazon-IOT-RESOURCES-IoT-thing-cart_Resource-Icon_light-bg" fill="#3F8624"></path>
    </g>
</svg>