<?xml version="1.0" encoding="UTF-8"?>
<svg width="48px" height="48px" viewBox="0 0 48 48" version="1.1" xmlns="http://www.w3.org/2000/svg" xmlns:xlink="http://www.w3.org/1999/xlink">
    <title>Icon-Resource/IoT/Res_AWS-IoT_Thing_Relay_48_Light</title>
    <g id="Icon-Resource/IoT/Res_AWS-IoT_Thing_Relay_48" stroke="none" stroke-width="1" fill="none" fill-rule="evenodd">
        <path d="M22,33 L24,33 L24,15 L22,15 L22,33 Z M31,30 C30.173,30 29.5,29.327 29.5,28.5 C29.5,27.672 30.173,27 31,27 C31.827,27 32.5,27.672 32.5,28.5 C32.5,29.327 31.827,30 31,30 L31,30 Z M32.823,25.526 C32.291,25.198 31.67,25 31,25 C29.07,25 27.5,26.57 27.5,28.5 C27.5,30.08 28.56,31.403 30,31.836 L30,36 L32,36 L32,31.836 C33.44,31.403 34.5,30.08 34.5,28.5 C34.5,27.986 34.383,27.502 34.184,27.063 L38.1,21.581 L36.473,20.418 L32.823,25.526 Z M31,18 C31.827,18 32.5,18.672 32.5,19.5 C32.5,20.327 31.827,21 31,21 C30.173,21 29.5,20.327 29.5,19.5 C29.5,18.672 30.173,18 31,18 L31,18 Z M31,23 C32.93,23 34.5,21.429 34.5,19.5 C34.5,17.919 33.44,16.596 32,16.163 L32,12 L30,12 L30,16.163 C28.56,16.596 27.5,17.919 27.5,19.5 C27.5,21.429 29.07,23 31,23 L31,23 Z M18.485,21.363 C19.424,22.017 20,22.939 20,23.977 C20,25.014 19.424,25.937 18.485,26.59 C19.424,27.244 20,28.167 20,29.204 C20,30.982 18.309,32.422 16,32.749 L16,36 L14,36 L14,31.818 C14,31.266 14.447,30.818 15,30.818 C16.717,30.818 18,29.966 18,29.204 C18,28.442 16.717,27.59 15,27.59 C14.447,27.59 14,27.143 14,26.59 C14,26.038 14.447,25.59 15,25.59 C16.717,25.59 18,24.738 18,23.977 C18,23.215 16.717,22.363 15,22.363 C14.447,22.363 14,21.916 14,21.363 C14,20.811 14.447,20.363 15,20.363 C16.717,20.363 18,19.511 18,18.75 C18,17.988 16.717,17.136 15,17.136 C14.447,17.136 14,16.688 14,16.136 L14,12 L16,12 L16,15.205 C18.309,15.531 20,16.971 20,18.75 C20,19.787 19.424,20.71 18.485,21.363 L18.485,21.363 Z M39,37.865 C39,38.491 38.491,39 37.865,39 L10.135,39 C9.509,39 9,38.491 9,37.865 L9,10.135 C9,9.509 9.509,9 10.135,9 L37.865,9 C38.491,9 39,9.509 39,10.135 L39,37.865 Z M46,15 L46,13 L41,13 L41,10.135 C41,8.406 39.594,7 37.865,7 L35,7 L35,2 L33,2 L33,7 L30,7 L30,2 L28,2 L28,7 L25,7 L25,2 L23,2 L23,7 L20,7 L20,2 L18,2 L18,7 L15,7 L15,2 L13,2 L13,7 L10.135,7 C8.406,7 7,8.406 7,10.135 L7,13 L2,13 L2,15 L7,15 L7,18 L2,18 L2,20 L7,20 L7,23 L2,23 L2,25 L7,25 L7,28 L2,28 L2,30 L7,30 L7,33 L2,33 L2,35 L7,35 L7,37.865 C7,39.594 8.406,41 10.135,41 L13,41 L13,46 L15,46 L15,41 L18,41 L18,46 L20,46 L20,41 L23,41 L23,46 L25,46 L25,41 L28,41 L28,46 L30,46 L30,41 L33,41 L33,46 L35,46 L35,41 L37.865,41 C39.594,41 41,39.594 41,37.865 L41,35 L46,35 L46,33 L41,33 L41,30 L46,30 L46,28 L41,28 L41,25 L46,25 L46,23 L41,23 L41,20 L46,20 L46,18 L41,18 L41,15 L46,15 Z" id="Fill-1" fill="#3F8624"></path>
    </g>
</svg>