<?xml version="1.0" encoding="UTF-8"?>
<svg width="48px" height="48px" viewBox="0 0 48 48" version="1.1" xmlns="http://www.w3.org/2000/svg" xmlns:xlink="http://www.w3.org/1999/xlink">
    <title>Icon-Resource/IoT/Res_IoT-Thing_Factory_48_Light</title>
    <g id="Icon-Resource/IoT/Res_IoT-Thing_Factory_48" stroke="none" stroke-width="1" fill="none" fill-rule="evenodd">
        <path d="M30.246,31.762 L31.762,31.762 L31.762,30.246 L30.246,30.246 L30.246,31.762 Z M28.246,32.761 C28.246,33.314 28.693,33.761 29.246,33.761 L32.762,33.761 C33.314,33.761 33.762,33.314 33.762,32.761 L33.762,29.246 C33.762,28.693 33.314,28.246 32.762,28.246 L29.246,28.246 C28.693,28.246 28.246,28.693 28.246,29.246 L28.246,32.761 Z M16.183,31.761 L17.699,31.761 L17.699,30.245 L16.183,30.245 L16.183,31.761 Z M15.184,28.246 C14.631,28.246 14.184,28.693 14.184,29.246 L14.184,32.761 C14.184,33.314 14.631,33.761 15.184,33.761 L18.699,33.761 C19.252,33.761 19.699,33.314 19.699,32.761 L19.699,29.246 C19.699,28.693 19.252,28.246 18.699,28.246 L15.184,28.246 Z M23.214,23.851 L24.73,23.851 L24.73,22.335 L23.214,22.335 L23.214,23.851 Z M22.215,20.336 C21.662,20.336 21.215,20.783 21.215,21.336 L21.215,24.851 C21.215,25.404 21.662,25.851 22.215,25.851 L25.73,25.851 C26.283,25.851 26.73,25.404 26.73,24.851 L26.73,21.336 C26.73,20.783 26.283,20.336 25.73,20.336 L22.215,20.336 Z M16.183,23.851 L17.699,23.851 L17.699,22.335 L16.183,22.335 L16.183,23.851 Z M15.184,20.336 C14.631,20.336 14.184,20.783 14.184,21.336 L14.184,24.851 C14.184,25.404 14.631,25.851 15.184,25.851 L18.699,25.851 C19.252,25.851 19.699,25.404 19.699,24.851 L19.699,21.336 C19.699,20.783 19.252,20.336 18.699,20.336 L15.184,20.336 Z M35.277,35.277 L26.73,35.277 L26.73,29.246 C26.73,28.693 26.283,28.246 25.73,28.246 L22.215,28.246 C21.662,28.246 21.215,28.693 21.215,29.246 L21.215,35.277 L12.668,35.277 L12.668,13.945 L28.923,19.505 C29.228,19.61 29.566,19.559 29.828,19.372 C30.09,19.184 30.246,18.882 30.246,18.558 L30.246,13.547 L30.883,13.547 L30.883,19.464 C30.883,19.891 31.154,20.271 31.559,20.41 L35.277,21.681 L35.277,35.277 Z M32.883,18.749 L32.883,12.547 C32.883,11.994 32.435,11.547 31.883,11.547 L29.246,11.547 C28.693,11.547 28.246,11.994 28.246,12.547 L28.246,17.16 L11.991,11.6 C11.685,11.495 11.348,11.5462553 11.086,11.733 C10.824,11.921 10.668,12.223 10.668,12.547 L10.668,36.277 C10.668,36.83 11.115,37.277 11.668,37.277 L22.215,37.277 C22.767,37.277 23.215,36.83 23.215,36.277 L23.215,30.246 L24.73,30.246 L24.73,36.277 C24.73,36.83 25.178,37.277 25.73,37.277 L36.277,37.277 C36.83,37.277 37.277,36.83 37.277,36.277 L37.277,20.966 C37.277,20.539 37.006,20.159 36.6,20.02 L32.883,18.749 Z M39.67,38.537 C39.67,39.163 39.161,39.672 38.535,39.672 L9.409,39.672 C8.783,39.672 8.274,39.163 8.274,38.537 L8.274,9.424 C8.274,8.798 8.783,8.289 9.409,8.289 L38.535,8.289 C39.161,8.289 39.67,8.798 39.67,9.424 L39.67,38.537 Z M45.945,14.425 L45.945,12.425 L41.67,12.425 L41.67,9.424 C41.67,7.695 40.264,6.289 38.535,6.289 L35.519,6.289 L35.519,2 L33.519,2 L33.519,6.289 L30.246,6.289 L30.246,2 L28.246,2 L28.246,6.289 L24.973,6.289 L24.973,2 L22.973,2 L22.973,6.289 L19.699,6.289 L19.699,2 L17.699,2 L17.699,6.289 L14.426,6.289 L14.426,2 L12.426,2 L12.426,6.289 L9.409,6.289 C7.681,6.289 6.274,7.695 6.274,9.424 L6.274,12.425 L2,12.425 L2,14.425 L6.274,14.425 L6.274,17.699 L2,17.699 L2,19.699 L6.274,19.699 L6.274,22.972 L2,22.972 L2,24.972 L6.274,24.972 L6.274,28.246 L2,28.246 L2,30.246 L6.274,30.246 L6.274,33.519 L2,33.519 L2,35.519 L6.274,35.519 L6.274,38.537 C6.274,40.265 7.681,41.672 9.409,41.672 L12.426,41.672 L12.426,45.945 L14.426,45.945 L14.426,41.672 L17.699,41.672 L17.699,45.945 L19.699,45.945 L19.699,41.672 L22.973,41.672 L22.973,45.945 L24.973,45.945 L24.973,41.672 L28.246,41.672 L28.246,45.945 L30.246,45.945 L30.246,41.672 L33.519,41.672 L33.519,45.945 L35.519,45.945 L35.519,41.672 L38.535,41.672 C40.264,41.672 41.67,40.265 41.67,38.537 L41.67,35.519 L45.945,35.519 L45.945,33.519 L41.67,33.519 L41.67,30.246 L45.945,30.246 L45.945,28.246 L41.67,28.246 L41.67,24.972 L45.945,24.972 L45.945,22.972 L41.67,22.972 L41.67,19.699 L45.945,19.699 L45.945,17.699 L41.67,17.699 L41.67,14.425 L45.945,14.425 Z" id="Amazon-IOT-RESOURCES-IoT-thing-factory_Resource-Icon_light-bg" fill="#3F8624"></path>
    </g>
</svg>