<?xml version="1.0" encoding="UTF-8"?>
<svg width="48px" height="48px" viewBox="0 0 48 48" version="1.1" xmlns="http://www.w3.org/2000/svg" xmlns:xlink="http://www.w3.org/1999/xlink">
    <title>Icon-Resource/IoT/Res_Amazon-IoT-Thing_Windfarm_48_Light</title>
    <g id="Icon-Resource/IoT/Res_Amazon-IoT-Thing_Windfarm_48" stroke="none" stroke-width="1" fill="none" fill-rule="evenodd">
        <path d="M24.589,22.323 C24.557,21.661 25.07,21.096 25.733,21.065 C25.754,21.064 25.773,21.063 25.793,21.063 C26.092,21.063 26.376,21.174 26.598,21.376 C26.837,21.593 26.976,21.888 26.991,22.209 C27.007,22.53 26.895,22.838 26.679,23.076 C26.464,23.313 26.168,23.453 25.846,23.468 C25.218,23.493 24.62,22.987 24.589,22.323 Z M28.043,20.006 L32.852,10.378 L31.063,9.483 L26.259,19.101 C26.054,19.071 25.846,19.059 25.637,19.067 C24.784,19.108 23.996,19.478 23.421,20.112 C23.113,20.45 22.892,20.844 22.754,21.266 L11.692,21.266 L11.692,23.266 L22.761,23.266 C22.931,23.785 23.22,24.259 23.635,24.635 C24.23,25.177 24.988,25.469 25.786,25.469 C25.838,25.469 25.889,25.468 25.941,25.466 C26.165,25.455 26.383,25.419 26.593,25.365 L34.017,32.789 L35.431,31.375 L28.296,24.239 C28.773,23.634 29.025,22.892 28.989,22.115 C28.95,21.309 28.611,20.57 28.043,20.006 Z M26.78,26.678 L26.79,38.126 L24.79,38.128 L24.78,26.68 L26.78,26.678 Z M39.767,38.635 C39.767,39.261 39.259,39.77 38.633,39.77 L9.423,39.77 C8.797,39.77 8.288,39.261 8.288,38.635 L8.288,9.437 C8.288,8.811 8.797,8.301 9.423,8.301 L38.633,8.301 C39.259,8.301 39.767,8.811 39.767,9.437 L39.767,38.635 Z M46.056,14.455 L46.056,12.455 L41.767,12.455 L41.767,9.437 C41.767,7.708 40.361,6.301 38.633,6.301 L35.601,6.301 L35.601,2 L33.601,2 L33.601,6.301 L30.314,6.301 L30.314,2 L28.314,2 L28.314,6.301 L25.028,6.301 L25.028,2 L23.028,2 L23.028,6.301 L19.741,6.301 L19.741,2 L17.741,2 L17.741,6.301 L14.454,6.301 L14.454,2 L12.454,2 L12.454,6.301 L9.423,6.301 C7.694,6.301 6.288,7.708 6.288,9.437 L6.288,12.455 L2,12.455 L2,14.455 L6.288,14.455 L6.288,17.742 L2,17.742 L2,19.742 L6.288,19.742 L6.288,23.028 L2,23.028 L2,25.028 L6.288,25.028 L6.288,28.315 L2,28.315 L2,30.315 L6.288,30.315 L6.288,33.602 L2,33.602 L2,35.602 L6.288,35.602 L6.288,38.635 C6.288,40.364 7.694,41.77 9.423,41.77 L12.454,41.77 L12.454,46.056 L14.454,46.056 L14.454,41.77 L17.741,41.77 L17.741,46.056 L19.741,46.056 L19.741,41.77 L23.028,41.77 L23.028,46.056 L25.028,46.056 L25.028,41.77 L28.314,41.77 L28.314,46.056 L30.314,46.056 L30.314,41.77 L33.601,41.77 L33.601,46.056 L35.601,46.056 L35.601,41.77 L38.633,41.77 C40.361,41.77 41.767,40.364 41.767,38.635 L41.767,35.602 L46.056,35.602 L46.056,33.602 L41.767,33.602 L41.767,30.315 L46.056,30.315 L46.056,28.315 L41.767,28.315 L41.767,25.028 L46.056,25.028 L46.056,23.028 L41.767,23.028 L41.767,19.742 L46.056,19.742 L46.056,17.742 L41.767,17.742 L41.767,14.455 L46.056,14.455 Z" id="Amazon-IOT-RESOURCES-IoT-thing-windfarm_Resource-Icon_light-bg" fill="#3F8624"></path>
    </g>
</svg>