<?xml version="1.0" encoding="UTF-8"?>
<svg width="48px" height="48px" viewBox="0 0 48 48" version="1.1" xmlns="http://www.w3.org/2000/svg" xmlns:xlink="http://www.w3.org/1999/xlink">
    <title>Icon-Resource/IoT/Res_AWS-IoT_Thing_Vibration-Sensor_48_Light</title>
    <g id="Icon-Resource/IoT/Res_AWS-IoT_Thing_Vibration-Sensor_48" stroke="none" stroke-width="1" fill="none" fill-rule="evenodd">
        <path d="M30.449,30.2847 L27.167,32.0547 L26.218,30.2937 L28.258,29.1937 L27.746,25.8807 L29.198,23.9997 L27.746,22.1187 L28.258,18.8057 L26.218,17.7067 L27.167,15.9457 L30.449,17.7157 L29.853,21.5767 L31.725,23.9997 L29.853,26.4237 L30.449,30.2847 Z M37.358,23.9997 L34.303,27.3227 L35.26,32.5187 L29.996,35.8457 L28.928,34.1547 L33.049,31.5507 L32.157,26.7037 L34.641,23.9997 L32.157,21.2967 L33.049,16.4497 L28.928,13.8457 L29.996,12.1547 L35.26,15.4817 L34.303,20.6777 L37.358,23.9997 Z M19.742,29.1937 L21.782,30.2937 L20.833,32.0547 L17.551,30.2847 L18.146,26.4237 L16.274,23.9997 L18.146,21.5767 L17.551,17.7157 L20.833,15.9457 L21.782,17.7067 L19.742,18.8057 L20.254,22.1187 L18.802,23.9997 L20.254,25.8807 L19.742,29.1937 Z M14.951,31.5507 L19.072,34.1547 L18.004,35.8457 L12.74,32.5187 L13.696,27.3227 L10.641,23.9997 L13.696,20.6777 L12.74,15.4817 L18.004,12.1547 L19.072,13.8457 L14.951,16.4497 L15.843,21.2967 L13.358,23.9997 L15.843,26.7037 L14.951,31.5507 Z M24,24.9997 C23.448,24.9997 23,24.5517 23,23.9997 C23,23.4487 23.448,22.9997 24,22.9997 C24.552,22.9997 25,23.4487 25,23.9997 C25,24.5517 24.552,24.9997 24,24.9997 L24,24.9997 Z M24,20.9997 C22.345,20.9997 21,22.3457 21,23.9997 C21,25.6547 22.345,26.9997 24,26.9997 C25.654,26.9997 27,25.6547 27,23.9997 C27,22.3457 25.654,20.9997 24,20.9997 L24,20.9997 Z M39,37.8657 C39,38.4907 38.491,38.9997 37.865,38.9997 L10.135,38.9997 C9.509,38.9997 9,38.4907 9,37.8657 L9,10.1347 C9,9.5097 9.509,8.9997 10.135,8.9997 L37.865,8.9997 C38.491,8.9997 39,9.5097 39,10.1347 L39,37.8657 Z M46,14.9997 L46,12.9997 L41,12.9997 L41,10.1347 C41,8.4067 39.594,6.9997 37.865,6.9997 L35,6.9997 L35,1.9997 L33,1.9997 L33,6.9997 L30,6.9997 L30,1.9997 L28,1.9997 L28,6.9997 L25,6.9997 L25,1.9997 L23,1.9997 L23,6.9997 L20,6.9997 L20,1.9997 L18,1.9997 L18,6.9997 L15,6.9997 L15,1.9997 L13,1.9997 L13,6.9997 L10.135,6.9997 C8.406,6.9997 7,8.4067 7,10.1347 L7,12.9997 L2,12.9997 L2,14.9997 L7,14.9997 L7,17.9997 L2,17.9997 L2,19.9997 L7,19.9997 L7,22.9997 L2,22.9997 L2,24.9997 L7,24.9997 L7,27.9997 L2,27.9997 L2,29.9997 L7,29.9997 L7,32.9997 L2,32.9997 L2,34.9997 L7,34.9997 L7,37.8657 C7,39.5937 8.406,40.9997 10.135,40.9997 L13,40.9997 L13,45.9997 L15,45.9997 L15,40.9997 L18,40.9997 L18,45.9997 L20,45.9997 L20,40.9997 L23,40.9997 L23,45.9997 L25,45.9997 L25,40.9997 L28,40.9997 L28,45.9997 L30,45.9997 L30,40.9997 L33,40.9997 L33,45.9997 L35,45.9997 L35,40.9997 L37.865,40.9997 C39.594,40.9997 41,39.5937 41,37.8657 L41,34.9997 L46,34.9997 L46,32.9997 L41,32.9997 L41,29.9997 L46,29.9997 L46,27.9997 L41,27.9997 L41,24.9997 L46,24.9997 L46,22.9997 L41,22.9997 L41,19.9997 L46,19.9997 L46,17.9997 L41,17.9997 L41,14.9997 L46,14.9997 Z" id="Fill-1" fill="#3F8624"></path>
    </g>
</svg>