<?xml version="1.0" encoding="UTF-8"?>
<svg width="48px" height="48px" viewBox="0 0 48 48" version="1.1" xmlns="http://www.w3.org/2000/svg" xmlns:xlink="http://www.w3.org/1999/xlink">
    <title>Icon-Resource/IoT/Res_AWS-IoT_Thing_Temperature-Sensor_48_Light</title>
    <g id="Icon-Resource/IoT/Res_AWS-IoT_Thing_Temperature-Sensor_48" stroke="none" stroke-width="1" fill="none" fill-rule="evenodd">
        <path d="M24,32.9775 C23.448,32.9775 23,32.5285 23,31.9775 C23,31.4265 23.448,30.9775 24,30.9775 C24.552,30.9775 25,31.4265 25,31.9775 C25,32.5285 24.552,32.9775 24,32.9775 L24,32.9775 Z M25,29.1615 L25,17.9995 L23,17.9995 L23,29.1615 C21.839,29.5765 21,30.6755 21,31.9775 C21,33.6315 22.346,34.9775 24,34.9775 C25.654,34.9775 27,33.6315 27,31.9775 C27,30.6755 26.161,29.5765 25,29.1615 L25,29.1615 Z M26.522,35.0815 C25.569,35.8575 24.364,36.1425 23.132,35.8875 C21.588,35.5665 20.356,34.2985 20.069,32.7315 C19.79,31.2055 20.363,29.7345 21.603,28.7975 L22,28.4975 L22,13.9995 C22,12.8965 22.897,11.9995 24,11.9995 C25.103,11.9995 26,12.8965 26,13.9995 L26,28.4985 L26.397,28.7975 C27.416,29.5675 28,30.7265 28,31.9775 C28,33.1865 27.462,34.3175 26.522,35.0815 L26.522,35.0815 Z M28,27.5285 L28,13.9995 C28,11.7945 26.206,9.9995 24,9.9995 C21.794,9.9995 20,11.7945 20,13.9995 L20,27.5295 C18.444,28.9235 17.721,31.0105 18.103,33.0925 C18.535,35.4515 20.393,37.3615 22.726,37.8455 C23.147,37.9335 23.571,37.9765 23.991,37.9765 C25.37,37.9765 26.706,37.5115 27.785,36.6325 C29.192,35.4875 30,33.7905 30,31.9775 C30,30.2645 29.277,28.6685 28,27.5285 L28,27.5285 Z M30,26.9995 L34,26.9995 L34,24.9995 L30,24.9995 L30,26.9995 Z M30,22.9995 L35,22.9995 L35,20.9995 L30,20.9995 L30,22.9995 Z M30,18.9995 L34,18.9995 L34,16.9995 L30,16.9995 L30,18.9995 Z M30,14.9995 L35,14.9995 L35,12.9995 L30,12.9995 L30,14.9995 Z M39,37.8655 C39,38.4905 38.491,38.9995 37.865,38.9995 L10.135,38.9995 C9.509,38.9995 9,38.4905 9,37.8655 L9,10.1345 C9,9.5095 9.509,8.9995 10.135,8.9995 L37.865,8.9995 C38.491,8.9995 39,9.5095 39,10.1345 L39,37.8655 Z M46,14.9995 L46,12.9995 L41,12.9995 L41,10.1345 C41,8.4065 39.594,6.9995 37.865,6.9995 L35,6.9995 L35,1.9995 L33,1.9995 L33,6.9995 L30,6.9995 L30,1.9995 L28,1.9995 L28,6.9995 L25,6.9995 L25,1.9995 L23,1.9995 L23,6.9995 L20,6.9995 L20,1.9995 L18,1.9995 L18,6.9995 L15,6.9995 L15,1.9995 L13,1.9995 L13,6.9995 L10.135,6.9995 C8.406,6.9995 7,8.4065 7,10.1345 L7,12.9995 L2,12.9995 L2,14.9995 L7,14.9995 L7,17.9995 L2,17.9995 L2,19.9995 L7,19.9995 L7,22.9995 L2,22.9995 L2,24.9995 L7,24.9995 L7,27.9995 L2,27.9995 L2,29.9995 L7,29.9995 L7,32.9995 L2,32.9995 L2,34.9995 L7,34.9995 L7,37.8655 C7,39.5935 8.406,40.9995 10.135,40.9995 L13,40.9995 L13,45.9995 L15,45.9995 L15,40.9995 L18,40.9995 L18,45.9995 L20,45.9995 L20,40.9995 L23,40.9995 L23,45.9995 L25,45.9995 L25,40.9995 L28,40.9995 L28,45.9995 L30,45.9995 L30,40.9995 L33,40.9995 L33,45.9995 L35,45.9995 L35,40.9995 L37.865,40.9995 C39.594,40.9995 41,39.5935 41,37.8655 L41,34.9995 L46,34.9995 L46,32.9995 L41,32.9995 L41,29.9995 L46,29.9995 L46,27.9995 L41,27.9995 L41,24.9995 L46,24.9995 L46,22.9995 L41,22.9995 L41,19.9995 L46,19.9995 L46,17.9995 L41,17.9995 L41,14.9995 L46,14.9995 Z" id="Fill-1" fill="#3F8624"></path>
    </g>
</svg>