<?xml version="1.0" encoding="UTF-8"?>
<svg width="48px" height="48px" viewBox="0 0 48 48" version="1.1" xmlns="http://www.w3.org/2000/svg" xmlns:xlink="http://www.w3.org/1999/xlink">
    <title>Icon-Resource/IoT/Res_AWS-IoT_Thing_Temperature-Humidity-Sensor_48_Light</title>
    <g id="Icon-Resource/IoT/Res_AWS-IoT_Thing_Temperature-Humidity-Sensor_48" stroke="none" stroke-width="1" fill="none" fill-rule="evenodd">
        <path d="M14.4365,20.378 C13.6485,20.378 13.0065,19.736 13.0065,18.948 C13.0065,18.316 13.8405,16.731 14.4365,15.659 C15.0335,16.732 15.8675,18.316 15.8675,18.948 C15.8675,19.736 15.2255,20.378 14.4365,20.378 L14.4365,20.378 Z M15.3315,13.154 C15.1615,12.816 14.8155,12.602 14.4365,12.602 C14.0575,12.602 13.7105,12.816 13.5415,13.155 C13.4365,13.365 13.2595,13.676 13.0495,14.047 C11.9725,15.944 11.0065,17.747 11.0065,18.948 C11.0065,20.839 12.5445,22.378 14.4365,22.378 C16.3285,22.378 17.8675,20.839 17.8675,18.948 C17.8675,17.745 16.8995,15.941 15.8215,14.042 C15.6125,13.673 15.4355,13.364 15.3315,13.154 L15.3315,13.154 Z M29.9995,27 L33.9995,27 L33.9995,25 L29.9995,25 L29.9995,27 Z M29.9995,23 L34.9995,23 L34.9995,21 L29.9995,21 L29.9995,23 Z M29.9995,19 L33.9995,19 L33.9995,17 L29.9995,17 L29.9995,19 Z M29.9995,15 L34.9995,15 L34.9995,13 L29.9995,13 L29.9995,15 Z M23.9995,32.977 C23.4485,32.977 22.9995,32.528 22.9995,31.977 C22.9995,31.426 23.4485,30.977 23.9995,30.977 C24.5515,30.977 24.9995,31.426 24.9995,31.977 C24.9995,32.528 24.5515,32.977 23.9995,32.977 L23.9995,32.977 Z M24.9995,29.161 L24.9995,18 L22.9995,18 L22.9995,29.161 C21.8385,29.576 20.9995,30.675 20.9995,31.977 C20.9995,33.631 22.3455,34.977 23.9995,34.977 C25.6545,34.977 26.9995,33.631 26.9995,31.977 C26.9995,30.675 26.1615,29.576 24.9995,29.161 L24.9995,29.161 Z M26.5225,35.081 C25.5695,35.857 24.3645,36.142 23.1315,35.887 C21.5875,35.566 20.3565,34.298 20.0695,32.732 C19.7905,31.205 20.3635,29.734 21.6025,28.797 L21.9995,28.497 L21.9995,14 C21.9995,12.897 22.8975,12 23.9995,12 C25.1025,12 25.9995,12.897 25.9995,14 L25.9995,28.498 L26.3975,28.797 C27.4155,29.567 27.9995,30.726 27.9995,31.977 C27.9995,33.186 27.4615,34.317 26.5225,35.081 L26.5225,35.081 Z M27.9995,27.528 L27.9995,14 C27.9995,11.794 26.2065,10 23.9995,10 C21.7935,10 19.9995,11.794 19.9995,14 L19.9995,27.529 C18.4445,28.923 17.7205,31.01 18.1025,33.092 C18.5355,35.451 20.3925,37.361 22.7255,37.845 C23.1475,37.933 23.5715,37.976 23.9915,37.976 C25.3705,37.976 26.7065,37.511 27.7855,36.632 C29.1925,35.487 29.9995,33.79 29.9995,31.977 C29.9995,30.264 29.2775,28.669 27.9995,27.528 L27.9995,27.528 Z M38.9995,37.865 C38.9995,38.49 38.4915,39 37.8655,39 L10.1345,39 C9.5085,39 8.9995,38.49 8.9995,37.865 L8.9995,10.134 C8.9995,9.509 9.5085,9 10.1345,9 L37.8655,9 C38.4915,9 38.9995,9.509 38.9995,10.134 L38.9995,37.865 Z M45.9995,15 L45.9995,13 L40.9995,13 L40.9995,10.134 C40.9995,8.406 39.5935,7 37.8655,7 L34.9995,7 L34.9995,2 L32.9995,2 L32.9995,7 L29.9995,7 L29.9995,2 L27.9995,2 L27.9995,7 L24.9995,7 L24.9995,2 L22.9995,2 L22.9995,7 L19.9995,7 L19.9995,2 L17.9995,2 L17.9995,7 L14.9995,7 L14.9995,2 L12.9995,2 L12.9995,7 L10.1345,7 C8.4065,7 6.9995,8.406 6.9995,10.134 L6.9995,13 L1.9995,13 L1.9995,15 L6.9995,15 L6.9995,18 L1.9995,18 L1.9995,20 L6.9995,20 L6.9995,23 L1.9995,23 L1.9995,25 L6.9995,25 L6.9995,28 L1.9995,28 L1.9995,30 L6.9995,30 L6.9995,33 L1.9995,33 L1.9995,35 L6.9995,35 L6.9995,37.865 C6.9995,39.593 8.4065,41 10.1345,41 L12.9995,41 L12.9995,46 L14.9995,46 L14.9995,41 L17.9995,41 L17.9995,46 L19.9995,46 L19.9995,41 L22.9995,41 L22.9995,46 L24.9995,46 L24.9995,41 L27.9995,41 L27.9995,46 L29.9995,46 L29.9995,41 L32.9995,41 L32.9995,46 L34.9995,46 L34.9995,41 L37.8655,41 C39.5935,41 40.9995,39.593 40.9995,37.865 L40.9995,35 L45.9995,35 L45.9995,33 L40.9995,33 L40.9995,30 L45.9995,30 L45.9995,28 L40.9995,28 L40.9995,25 L45.9995,25 L45.9995,23 L40.9995,23 L40.9995,20 L45.9995,20 L45.9995,18 L40.9995,18 L40.9995,15 L45.9995,15 Z" id="Fill-1" fill="#3F8624"></path>
    </g>
</svg>