<?xml version="1.0" encoding="UTF-8"?>
<svg width="48px" height="48px" viewBox="0 0 48 48" version="1.1" xmlns="http://www.w3.org/2000/svg" xmlns:xlink="http://www.w3.org/1999/xlink">
    <title>Icon-Resource/IoT/Res_Amazon-IoT-Thing_Medical-Emergency_48_Light</title>
    <g id="Icon-Resource/IoT/Res_Amazon-IoT-Thing_Medical-Emergency_48" stroke="none" stroke-width="1" fill="none" fill-rule="evenodd">
        <path d="M18.8544,23.2578 L22.2584,23.2578 C22.8114,23.2578 23.2584,22.8108 23.2584,22.2578 L23.2584,18.8548 L24.7814,18.8548 L24.7814,22.2578 C24.7814,22.8108 25.2284,23.2578 25.7814,23.2578 L29.1854,23.2578 L29.1854,24.7808 L25.7814,24.7808 C25.2284,24.7808 24.7814,25.2288 24.7814,25.7808 L24.7814,29.1848 L23.2584,29.1848 L23.2584,25.7808 C23.2584,25.2288 22.8114,24.7808 22.2584,24.7808 L18.8544,24.7808 L18.8544,23.2578 Z M21.2584,26.7808 L21.2584,30.1848 C21.2584,30.7368 21.7064,31.1848 22.2584,31.1848 L25.7814,31.1848 C26.3334,31.1848 26.7814,30.7368 26.7814,30.1848 L26.7814,26.7808 L30.1854,26.7808 C30.7384,26.7808 31.1854,26.3338 31.1854,25.7808 L31.1854,22.2578 C31.1854,21.7048 30.7384,21.2578 30.1854,21.2578 L26.7814,21.2578 L26.7814,17.8548 C26.7814,17.3018 26.3334,16.8548 25.7814,16.8548 L22.2584,16.8548 C21.7064,16.8548 21.2584,17.3018 21.2584,17.8548 L21.2584,21.2578 L17.8544,21.2578 C17.3014,21.2578 16.8544,21.7048 16.8544,22.2578 L16.8544,25.7808 C16.8544,26.3338 17.3014,26.7808 17.8544,26.7808 L21.2584,26.7808 Z M15.3314,32.7078 L32.7084,32.7078 L32.7084,15.3308 L15.3314,15.3308 L15.3314,32.7078 Z M14.3314,13.3308 C13.7784,13.3308 13.3314,13.7788 13.3314,14.3308 L13.3314,33.7078 C13.3314,34.2608 13.7784,34.7078 14.3314,34.7078 L33.7084,34.7078 C34.2604,34.7078 34.7084,34.2608 34.7084,33.7078 L34.7084,14.3308 C34.7084,13.7788 34.2604,13.3308 33.7084,13.3308 L14.3314,13.3308 Z M39.7524,38.6188 C39.7524,39.2448 39.2444,39.7538 38.6184,39.7538 L9.4214,39.7538 C8.7954,39.7538 8.2874,39.2448 8.2874,38.6188 L8.2874,9.4348 C8.2874,8.8088 8.7954,8.2998 9.4214,8.2998 L38.6184,8.2998 C39.2444,8.2998 39.7524,8.8088 39.7524,9.4348 L39.7524,38.6188 Z M46.0394,14.4498 L46.0394,12.4498 L41.7524,12.4498 L41.7524,9.4348 C41.7524,7.7058 40.3464,6.2998 38.6184,6.2998 L35.5884,6.2998 L35.5884,1.9998 L33.5884,1.9998 L33.5884,6.2998 L30.3044,6.2998 L30.3044,1.9998 L28.3044,1.9998 L28.3044,6.2998 L25.0194,6.2998 L25.0194,1.9998 L23.0194,1.9998 L23.0194,6.2998 L19.7354,6.2998 L19.7354,1.9998 L17.7354,1.9998 L17.7354,6.2998 L14.4504,6.2998 L14.4504,1.9998 L12.4504,1.9998 L12.4504,6.2998 L9.4214,6.2998 C7.6934,6.2998 6.2874,7.7058 6.2874,9.4348 L6.2874,12.4498 L2.0004,12.4498 L2.0004,14.4498 L6.2874,14.4498 L6.2874,17.7348 L2.0004,17.7348 L2.0004,19.7348 L6.2874,19.7348 L6.2874,23.0198 L2.0004,23.0198 L2.0004,25.0198 L6.2874,25.0198 L6.2874,28.3038 L2.0004,28.3038 L2.0004,30.3038 L6.2874,30.3038 L6.2874,33.5888 L2.0004,33.5888 L2.0004,35.5888 L6.2874,35.5888 L6.2874,38.6188 C6.2874,40.3478 7.6934,41.7538 9.4214,41.7538 L12.4504,41.7538 L12.4504,46.0388 L14.4504,46.0388 L14.4504,41.7538 L17.7354,41.7538 L17.7354,46.0388 L19.7354,46.0388 L19.7354,41.7538 L23.0194,41.7538 L23.0194,46.0388 L25.0194,46.0388 L25.0194,41.7538 L28.3044,41.7538 L28.3044,46.0388 L30.3044,46.0388 L30.3044,41.7538 L33.5884,41.7538 L33.5884,46.0388 L35.5884,46.0388 L35.5884,41.7538 L38.6184,41.7538 C40.3464,41.7538 41.7524,40.3478 41.7524,38.6188 L41.7524,35.5888 L46.0394,35.5888 L46.0394,33.5888 L41.7524,33.5888 L41.7524,30.3038 L46.0394,30.3038 L46.0394,28.3038 L41.7524,28.3038 L41.7524,25.0198 L46.0394,25.0198 L46.0394,23.0198 L41.7524,23.0198 L41.7524,19.7348 L46.0394,19.7348 L46.0394,17.7348 L41.7524,17.7348 L41.7524,14.4498 L46.0394,14.4498 Z" id="Amazon-IOT-RESOURCES-IoT-thing-medical-emergency_Resource-Icon_light-bg" fill="#3F8624"></path>
    </g>
</svg>