<?xml version="1.0" encoding="UTF-8"?>
<svg width="48px" height="48px" viewBox="0 0 48 48" version="1.1" xmlns="http://www.w3.org/2000/svg" xmlns:xlink="http://www.w3.org/1999/xlink">
    <title>Icon-Resource/IoT/Res_IoT-Thing_Door-Lock_48_Light</title>
    <g id="Icon-Resource/IoT/Res_IoT-Thing_Door-Lock_48" stroke="none" stroke-width="1" fill="none" fill-rule="evenodd">
        <path d="M24.7306,29.6857 C24.7306,30.1037 24.3906,30.4437 23.9726,30.4437 C23.5546,30.4437 23.2146,30.1037 23.2146,29.6857 C23.2146,29.2677 23.5546,28.9277 23.9726,28.9277 C24.3906,28.9277 24.7306,29.2677 24.7306,29.6857 Z M21.2146,29.6857 C21.2146,30.8527 21.9466,31.8467 22.9726,32.2487 L22.9726,35.3987 L24.9726,35.3987 L24.9726,32.2487 C25.9986,31.8467 26.7306,30.8527 26.7306,29.6857 C26.7306,28.1647 25.4936,26.9277 23.9726,26.9277 C22.4516,26.9277 21.2146,28.1647 21.2146,29.6857 Z M20.5776,19.1387 C20.5776,17.2667 22.1006,15.7437 23.9726,15.7437 C25.8446,15.7437 27.3676,17.2667 27.3676,19.1387 C27.3676,21.0107 25.8446,22.5327 23.9726,22.5327 C22.1006,22.5327 20.5776,21.0107 20.5776,19.1387 Z M18.5776,19.1387 C18.5776,22.1137 20.9976,24.5327 23.9726,24.5327 C26.9476,24.5327 29.3676,22.1137 29.3676,19.1387 C29.3676,16.1637 26.9476,13.7437 23.9726,13.7437 C20.9976,13.7437 18.5776,16.1637 18.5776,19.1387 Z M30.8826,36.2867 C30.8826,36.6987 30.5466,37.0347 30.1346,37.0347 L17.8096,37.0347 C17.3976,37.0347 17.0626,36.6987 17.0626,36.2867 L17.0626,12.5357 C17.0626,12.1237 17.3976,11.7887 17.8096,11.7887 L30.1346,11.7887 C30.5466,11.7887 30.8826,12.1237 30.8826,12.5357 L30.8826,36.2867 Z M17.8096,9.7887 C16.2946,9.7887 15.0626,11.0217 15.0626,12.5357 L15.0626,36.2867 C15.0626,37.8027 16.2946,39.0347 17.8096,39.0347 L30.1346,39.0347 C31.6506,39.0347 32.8826,37.8027 32.8826,36.2867 L32.8826,12.5357 C32.8826,11.0217 31.6506,9.7887 30.1346,9.7887 L17.8096,9.7887 Z M39.6696,38.5367 C39.6696,39.1627 39.1606,39.6717 38.5356,39.6717 L9.4096,39.6717 C8.7836,39.6717 8.2746,39.1627 8.2746,38.5367 L8.2746,9.4227 C8.2746,8.7967 8.7836,8.2877 9.4096,8.2877 L38.5356,8.2877 C39.1606,8.2877 39.6696,8.7967 39.6696,9.4227 L39.6696,38.5367 Z M45.9456,14.4257 L45.9456,12.4257 L41.6696,12.4257 L41.6696,9.4227 C41.6696,7.6947 40.2636,6.2877 38.5356,6.2877 L35.5196,6.2877 L35.5196,1.9997 L33.5196,1.9997 L33.5196,6.2877 L30.2456,6.2877 L30.2456,1.9997 L28.2456,1.9997 L28.2456,6.2877 L24.9726,6.2877 L24.9726,1.9997 L22.9726,1.9997 L22.9726,6.2877 L19.6996,6.2877 L19.6996,1.9997 L17.6996,1.9997 L17.6996,6.2877 L14.4256,6.2877 L14.4256,1.9997 L12.4256,1.9997 L12.4256,6.2877 L9.4096,6.2877 C7.6806,6.2877 6.2746,7.6947 6.2746,9.4227 L6.2746,12.4257 L1.9996,12.4257 L1.9996,14.4257 L6.2746,14.4257 L6.2746,17.6987 L1.9996,17.6987 L1.9996,19.6987 L6.2746,19.6987 L6.2746,22.9727 L1.9996,22.9727 L1.9996,24.9727 L6.2746,24.9727 L6.2746,28.2457 L1.9996,28.2457 L1.9996,30.2457 L6.2746,30.2457 L6.2746,33.5197 L1.9996,33.5197 L1.9996,35.5197 L6.2746,35.5197 L6.2746,38.5367 C6.2746,40.2657 7.6806,41.6717 9.4096,41.6717 L12.4256,41.6717 L12.4256,45.9457 L14.4256,45.9457 L14.4256,41.6717 L17.6996,41.6717 L17.6996,45.9457 L19.6996,45.9457 L19.6996,41.6717 L22.9726,41.6717 L22.9726,45.9457 L24.9726,45.9457 L24.9726,41.6717 L28.2456,41.6717 L28.2456,45.9457 L30.2456,45.9457 L30.2456,41.6717 L33.5196,41.6717 L33.5196,45.9457 L35.5196,45.9457 L35.5196,41.6717 L38.5356,41.6717 C40.2636,41.6717 41.6696,40.2657 41.6696,38.5367 L41.6696,35.5197 L45.9456,35.5197 L45.9456,33.5197 L41.6696,33.5197 L41.6696,30.2457 L45.9456,30.2457 L45.9456,28.2457 L41.6696,28.2457 L41.6696,24.9727 L45.9456,24.9727 L45.9456,22.9727 L41.6696,22.9727 L41.6696,19.6987 L45.9456,19.6987 L45.9456,17.6987 L41.6696,17.6987 L41.6696,14.4257 L45.9456,14.4257 Z" id="Amazon-IOT-RESOURCES-IoT-thing-door-lock_Resource-Icon_light-bg" fill="#3F8624"></path>
    </g>
</svg>