<?xml version="1.0" encoding="UTF-8"?>
<svg width="48px" height="48px" viewBox="0 0 48 48" version="1.1" xmlns="http://www.w3.org/2000/svg" xmlns:xlink="http://www.w3.org/1999/xlink">
    <title>Icon-Resource/IoT/Res_Amazon-IoT-Thing_Police-Emergency_48_Light</title>
    <g id="Icon-Resource/IoT/Res_Amazon-IoT-Thing_Police-Emergency_48" stroke="none" stroke-width="1" fill="none" fill-rule="evenodd">
        <path d="M23.9929,34.2149 C23.0979,33.6349 21.3109,32.6249 19.2339,32.2519 C17.9239,32.0169 14.8759,31.1899 14.8759,28.6049 C14.8759,27.4659 15.3049,26.7269 15.8019,25.8699 C16.2929,25.0229 16.8499,24.0639 16.8499,22.7539 C16.8499,21.1179 16.0889,19.8679 15.4889,19.1389 C16.0019,18.5139 16.7619,17.5839 17.3369,16.8599 C18.3549,17.6509 19.4949,18.0769 20.6329,18.0769 C21.9229,18.0769 23.0119,17.6349 23.9929,16.6979 C24.9749,17.6349 26.0629,18.0769 27.3539,18.0769 C28.4909,18.0769 29.6319,17.6509 30.6479,16.8599 C31.2249,17.5839 31.9829,18.5139 32.4959,19.1389 C31.8969,19.8679 31.1359,21.1179 31.1359,22.7539 C31.1359,24.0639 31.6919,25.0229 32.1839,25.8699 C32.6809,26.7269 33.1099,27.4659 33.1099,28.6049 C33.1099,31.1899 30.0619,32.0169 28.7509,32.2519 C26.6759,32.6249 24.8889,33.6349 23.9929,34.2149 Z M35.2459,19.3309 L34.6039,18.5519 C34.5779,18.5229 32.1349,15.5609 31.5819,14.8039 L30.8699,13.8259 L30.0439,14.7099 C29.2199,15.5919 28.2639,16.0769 27.3539,16.0769 C26.6469,16.0769 25.7909,15.8999 24.7869,14.5889 L23.9929,13.5509 L23.1989,14.5889 C22.1949,15.8999 21.3389,16.0769 20.6329,16.0769 C19.7219,16.0769 18.7659,15.5919 17.9409,14.7099 L17.1149,13.8249 L16.4019,14.8039 C15.8519,15.5609 13.4069,18.5219 13.3819,18.5519 L12.7519,19.3249 L13.5199,19.9619 C13.5329,19.9739 14.8499,21.0849 14.8499,22.7539 C14.8499,23.5259 14.5069,24.1169 14.0719,24.8659 C13.5389,25.7839 12.8759,26.9269 12.8759,28.6049 C12.8759,31.4459 15.1209,33.5459 18.8809,34.2209 C21.3109,34.6559 23.3639,36.2089 23.3849,36.2249 L23.9939,36.6879 L24.6019,36.2249 C24.6219,36.2089 26.6759,34.6559 29.1049,34.2209 C32.8649,33.5459 35.1099,31.4459 35.1099,28.6049 C35.1099,26.9269 34.4459,25.7839 33.9129,24.8659 C33.4789,24.1169 33.1359,23.5259 33.1359,22.7539 C33.1359,21.0849 34.4519,19.9739 34.4609,19.9659 L35.2459,19.3309 Z M39.7059,38.5739 C39.7059,39.1999 39.1969,39.7089 38.5709,39.7089 L9.4139,39.7089 C8.7879,39.7089 8.2789,39.1999 8.2789,38.5739 L8.2789,9.4289 C8.2789,8.8029 8.7879,8.2939 9.4139,8.2939 L38.5709,8.2939 C39.1969,8.2939 39.7059,8.8029 39.7059,9.4289 L39.7059,38.5739 Z M45.9859,14.4369 L45.9859,12.4369 L41.7059,12.4369 L41.7059,9.4289 C41.7059,7.6999 40.2999,6.2939 38.5709,6.2939 L35.5499,6.2939 L35.5499,1.9999 L33.5499,1.9999 L33.5499,6.2939 L30.2719,6.2939 L30.2719,1.9999 L28.2719,1.9999 L28.2719,6.2939 L24.9929,6.2939 L24.9929,1.9999 L22.9929,1.9999 L22.9929,6.2939 L19.7149,6.2939 L19.7149,1.9999 L17.7149,1.9999 L17.7149,6.2939 L14.4369,6.2939 L14.4369,1.9999 L12.4369,1.9999 L12.4369,6.2939 L9.4139,6.2939 C7.6859,6.2939 6.2789,7.6999 6.2789,9.4289 L6.2789,12.4369 L1.9999,12.4369 L1.9999,14.4369 L6.2789,14.4369 L6.2789,17.7159 L1.9999,17.7159 L1.9999,19.7159 L6.2789,19.7159 L6.2789,22.9939 L1.9999,22.9939 L1.9999,24.9939 L6.2789,24.9939 L6.2789,28.2729 L1.9999,28.2729 L1.9999,30.2729 L6.2789,30.2729 L6.2789,33.5509 L1.9999,33.5509 L1.9999,35.5509 L6.2789,35.5509 L6.2789,38.5739 C6.2789,40.3029 7.6859,41.7089 9.4139,41.7089 L12.4369,41.7089 L12.4369,45.9869 L14.4369,45.9869 L14.4369,41.7089 L17.7149,41.7089 L17.7149,45.9869 L19.7149,45.9869 L19.7149,41.7089 L22.9929,41.7089 L22.9929,45.9869 L24.9929,45.9869 L24.9929,41.7089 L28.2719,41.7089 L28.2719,45.9869 L30.2719,45.9869 L30.2719,41.7089 L33.5499,41.7089 L33.5499,45.9869 L35.5499,45.9869 L35.5499,41.7089 L38.5709,41.7089 C40.2999,41.7089 41.7059,40.3029 41.7059,38.5739 L41.7059,35.5509 L45.9859,35.5509 L45.9859,33.5509 L41.7059,33.5509 L41.7059,30.2729 L45.9859,30.2729 L45.9859,28.2729 L41.7059,28.2729 L41.7059,24.9939 L45.9859,24.9939 L45.9859,22.9939 L41.7059,22.9939 L41.7059,19.7159 L45.9859,19.7159 L45.9859,17.7159 L41.7059,17.7159 L41.7059,14.4369 L45.9859,14.4369 Z" id="Amazon-IOT-RESOURCES-IoT-thing-police-emergency_Resource-Icon_light-bg" fill="#3F8624"></path>
    </g>
</svg>