<?xml version="1.0" encoding="UTF-8"?>
<svg width="48px" height="48px" viewBox="0 0 48 48" version="1.1" xmlns="http://www.w3.org/2000/svg" xmlns:xlink="http://www.w3.org/1999/xlink">
    <title>Icon-Resource/IoT/Res_IoT-Thing_Generic_48_Light</title>
    <g id="Icon-Resource/IoT/Res_IoT-Thing_Generic_48" stroke="none" stroke-width="1" fill="none" fill-rule="evenodd">
        <path d="M20.4567,22.094 C19.5547,22.094 18.8207,21.359 18.8207,20.457 C18.8207,19.555 19.5547,18.82 20.4567,18.82 C21.3597,18.82 22.0937,19.555 22.0937,20.457 C22.0937,21.359 21.3597,22.094 20.4567,22.094 Z M27.4887,25.852 C28.3907,25.852 29.1247,26.586 29.1247,27.488 C29.1247,28.391 28.3907,29.125 27.4887,29.125 C26.5857,29.125 25.8517,28.391 25.8517,27.488 C25.8517,26.586 26.5857,25.852 27.4887,25.852 Z M15.3047,32.641 L15.3047,28.488 L24.0087,28.488 C24.4477,30.006 25.8327,31.125 27.4887,31.125 C29.4927,31.125 31.1247,29.493 31.1247,27.488 C31.1247,25.483 29.4927,23.852 27.4887,23.852 C25.8327,23.852 24.4477,24.971 24.0087,26.488 L15.3047,26.488 L15.3047,15.305 L32.6407,15.305 L32.6407,19.457 L23.9367,19.457 C23.4977,17.939 22.1137,16.82 20.4567,16.82 C18.4517,16.82 16.8207,18.452 16.8207,20.457 C16.8207,22.462 18.4517,24.094 20.4567,24.094 C22.1137,24.094 23.4977,22.975 23.9367,21.457 L32.6407,21.457 L32.6407,32.641 L15.3047,32.641 Z M14.3047,13.305 C13.7517,13.305 13.3047,13.752 13.3047,14.305 L13.3047,33.641 C13.3047,34.193 13.7517,34.641 14.3047,34.641 L33.6407,34.641 C34.1937,34.641 34.6407,34.193 34.6407,33.641 L34.6407,14.305 C34.6407,13.752 34.1937,13.305 33.6407,13.305 L14.3047,13.305 Z M39.6697,38.537 C39.6697,39.163 39.1607,39.672 38.5347,39.672 L9.4097,39.672 C8.7837,39.672 8.2757,39.163 8.2757,38.537 L8.2757,9.423 C8.2757,8.797 8.7837,8.288 9.4097,8.288 L38.5347,8.288 C39.1607,8.288 39.6697,8.797 39.6697,9.423 L39.6697,38.537 Z M45.9457,14.426 L45.9457,12.426 L41.6697,12.426 L41.6697,9.423 C41.6697,7.694 40.2637,6.288 38.5347,6.288 L35.5197,6.288 L35.5197,2 L33.5197,2 L33.5197,6.288 L30.2457,6.288 L30.2457,2 L28.2457,2 L28.2457,6.288 L24.9727,6.288 L24.9727,2 L22.9727,2 L22.9727,6.288 L19.6987,6.288 L19.6987,2 L17.6987,2 L17.6987,6.288 L14.4257,6.288 L14.4257,2 L12.4257,2 L12.4257,6.288 L9.4097,6.288 C7.6817,6.288 6.2757,7.694 6.2757,9.423 L6.2757,12.426 L1.9997,12.426 L1.9997,14.426 L6.2757,14.426 L6.2757,17.699 L1.9997,17.699 L1.9997,19.699 L6.2757,19.699 L6.2757,22.973 L1.9997,22.973 L1.9997,24.973 L6.2757,24.973 L6.2757,28.246 L1.9997,28.246 L1.9997,30.246 L6.2757,30.246 L6.2757,33.52 L1.9997,33.52 L1.9997,35.52 L6.2757,35.52 L6.2757,38.537 C6.2757,40.266 7.6817,41.672 9.4097,41.672 L12.4257,41.672 L12.4257,45.945 L14.4257,45.945 L14.4257,41.672 L17.6987,41.672 L17.6987,45.945 L19.6987,45.945 L19.6987,41.672 L22.9727,41.672 L22.9727,45.945 L24.9727,45.945 L24.9727,41.672 L28.2457,41.672 L28.2457,45.945 L30.2457,45.945 L30.2457,41.672 L33.5197,41.672 L33.5197,45.945 L35.5197,45.945 L35.5197,41.672 L38.5347,41.672 C40.2637,41.672 41.6697,40.266 41.6697,38.537 L41.6697,35.52 L45.9457,35.52 L45.9457,33.52 L41.6697,33.52 L41.6697,30.246 L45.9457,30.246 L45.9457,28.246 L41.6697,28.246 L41.6697,24.973 L45.9457,24.973 L45.9457,22.973 L41.6697,22.973 L41.6697,19.699 L45.9457,19.699 L45.9457,17.699 L41.6697,17.699 L41.6697,14.426 L45.9457,14.426 Z" id="Amazon-IOT-RESOURCES-IoT-thing-generic_Resource-Icon_light-bg" fill="#3F8624"></path>
    </g>
</svg>