<?xml version="1.0" encoding="UTF-8"?>
<svg width="48px" height="48px" viewBox="0 0 48 48" version="1.1" xmlns="http://www.w3.org/2000/svg" xmlns:xlink="http://www.w3.org/1999/xlink">
    <title>Icon-Resource/IoT/Res_IoT-Thing_Lightbulb_48_Light</title>
    <g id="Icon-Resource/IoT/Res_IoT-Thing_Lightbulb_48" stroke="none" stroke-width="1" fill="none" fill-rule="evenodd">
        <path d="M25.9241,36.0526 L25.9241,36.1566 L21.9861,36.1566 L21.9861,36.0526 C21.9861,35.9896 21.9901,35.9586 21.9781,35.9726 C22.2231,35.6246 22.2511,35.2096 22.0011,34.8646 C21.9971,34.8536 21.9861,34.8106 21.9861,34.7456 L21.9861,34.6406 L25.9241,34.6406 L25.9241,34.7456 C25.9241,34.7986 25.9081,34.8586 25.9311,34.8236 C25.6861,35.1696 25.6601,35.5866 25.9091,35.9326 C25.9131,35.9436 25.9241,35.9866 25.9241,36.0526 Z M21.3611,32.6406 C20.5641,32.6406 19.9861,33.3966 19.9861,34.4376 L19.9861,34.7456 C19.9861,34.9746 20.0161,35.1956 20.0731,35.3986 C20.0161,35.6026 19.9861,35.8246 19.9861,36.0526 L19.9861,36.3616 C19.9861,37.4016 20.5641,38.1566 21.3611,38.1566 L26.5481,38.1566 C27.3451,38.1566 27.9241,37.4016 27.9241,36.3616 L27.9241,36.0526 C27.9241,35.8246 27.8931,35.6026 27.8371,35.3986 C27.8931,35.1956 27.9241,34.9746 27.9241,34.7456 L27.9241,34.4376 C27.9241,33.3966 27.3451,32.6406 26.5481,32.6406 L21.3611,32.6406 Z M26.4881,27.7316 L26.4881,30.0036 L24.9721,30.0036 L24.9721,24.0936 L25.7291,24.0936 L25.7291,22.0936 L22.2151,22.0936 L22.2151,24.0936 L22.9721,24.0936 L22.9721,30.0036 L21.4571,30.0036 L21.4571,27.7316 C21.4571,27.3426 21.2311,26.9896 20.8791,26.8256 C18.2541,25.6036 16.6231,23.0686 16.6231,20.2086 C16.6231,16.1566 19.9201,12.8596 23.9721,12.8596 C28.0251,12.8596 31.3221,16.1566 31.3221,20.2086 C31.3221,23.0686 29.6911,25.6036 27.0661,26.8256 C26.7141,26.9896 26.4881,27.3426 26.4881,27.7316 Z M14.6231,20.2086 C14.6231,23.6396 16.4591,26.7026 19.4571,28.3456 L19.4571,31.0036 C19.4571,31.5566 19.9041,32.0036 20.4571,32.0036 L27.4881,32.0036 C28.0411,32.0036 28.4881,31.5566 28.4881,31.0036 L28.4881,28.3456 C31.4861,26.7016 33.3221,23.6396 33.3221,20.2086 C33.3221,15.0536 29.1281,10.8596 23.9721,10.8596 C18.8171,10.8596 14.6231,15.0536 14.6231,20.2086 Z M39.6701,38.5366 C39.6701,39.1626 39.1611,39.6716 38.5351,39.6716 L9.4091,39.6716 C8.7831,39.6716 8.2741,39.1626 8.2741,38.5366 L8.2741,9.4236 C8.2741,8.7976 8.7831,8.2886 9.4091,8.2886 L38.5351,8.2886 C39.1611,8.2886 39.6701,8.7976 39.6701,9.4236 L39.6701,38.5366 Z M45.9451,14.4256 L45.9451,12.4256 L41.6701,12.4256 L41.6701,9.4236 C41.6701,7.6956 40.2631,6.2886 38.5351,6.2886 L35.5191,6.2886 L35.5191,1.9996 L33.5191,1.9996 L33.5191,6.2886 L30.2461,6.2886 L30.2461,1.9996 L28.2461,1.9996 L28.2461,6.2886 L24.9721,6.2886 L24.9721,1.9996 L22.9721,1.9996 L22.9721,6.2886 L19.6991,6.2886 L19.6991,1.9996 L17.6991,1.9996 L17.6991,6.2886 L14.4261,6.2886 L14.4261,1.9996 L12.4261,1.9996 L12.4261,6.2886 L9.4091,6.2886 C7.6801,6.2886 6.2741,7.6956 6.2741,9.4236 L6.2741,12.4256 L2.0001,12.4256 L2.0001,14.4256 L6.2741,14.4256 L6.2741,17.6996 L2.0001,17.6996 L2.0001,19.6996 L6.2741,19.6996 L6.2741,22.9726 L2.0001,22.9726 L2.0001,24.9726 L6.2741,24.9726 L6.2741,28.2456 L2.0001,28.2456 L2.0001,30.2456 L6.2741,30.2456 L6.2741,33.5196 L2.0001,33.5196 L2.0001,35.5196 L6.2741,35.5196 L6.2741,38.5366 C6.2741,40.2656 7.6801,41.6716 9.4091,41.6716 L12.4261,41.6716 L12.4261,45.9456 L14.4261,45.9456 L14.4261,41.6716 L17.6991,41.6716 L17.6991,45.9456 L19.6991,45.9456 L19.6991,41.6716 L22.9721,41.6716 L22.9721,45.9456 L24.9721,45.9456 L24.9721,41.6716 L28.2461,41.6716 L28.2461,45.9456 L30.2461,45.9456 L30.2461,41.6716 L33.5191,41.6716 L33.5191,45.9456 L35.5191,45.9456 L35.5191,41.6716 L38.5351,41.6716 C40.2631,41.6716 41.6701,40.2656 41.6701,38.5366 L41.6701,35.5196 L45.9451,35.5196 L45.9451,33.5196 L41.6701,33.5196 L41.6701,30.2456 L45.9451,30.2456 L45.9451,28.2456 L41.6701,28.2456 L41.6701,24.9726 L45.9451,24.9726 L45.9451,22.9726 L41.6701,22.9726 L41.6701,19.6996 L45.9451,19.6996 L45.9451,17.6996 L41.6701,17.6996 L41.6701,14.4256 L45.9451,14.4256 Z" id="Amazon-IOT-RESOURCES-IoT-thing-lightbulb_Resource-Icon_light-bg" fill="#3F8624"></path>
    </g>
</svg>