<?xml version="1.0" encoding="UTF-8"?>
<svg width="64px" height="64px" viewBox="0 0 64 64" version="1.1" xmlns="http://www.w3.org/2000/svg" xmlns:xlink="http://www.w3.org/1999/xlink">
    <title>Icon-Architecture/48/Arch_AWS-IoT-TwinMaker_48</title>
    <defs>
        <linearGradient x1="0%" y1="100%" x2="100%" y2="0%" id="linearGradient-1">
            <stop stop-color="#1B660F" offset="0%"></stop>
            <stop stop-color="#6CAE3E" offset="100%"></stop>
        </linearGradient>
    </defs>
    <g id="Icon-Architecture/48/Arch_AWS-IoT-TwinMaker_48" stroke="none" stroke-width="1" fill="none" fill-rule="evenodd">
        <g id="Rectangle" fill="url(#linearGradient-1)">
            <rect x="0" y="0" width="64" height="64"></rect>
        </g>
        <g id="Icon-Service/48/AWS-IoT-TwinMaker_48" transform="translate(8.000000, 8.000000)" fill="#FFFFFF">
            <path d="M36.96,24.9934724 L36.96,22.9934724 L34.96,22.9934724 L34.96,20.9934724 L37.96,20.9934724 C38.513,20.9934724 38.96,21.4414724 38.96,21.9934724 L38.96,24.9934724 L36.96,24.9934724 Z M36.96,35.9934724 L38.96,35.9934724 L38.96,38.9934724 C38.96,39.5454724 38.513,39.9934724 37.96,39.9934724 L34.96,39.9934724 L34.96,37.9934724 L36.96,37.9934724 L36.96,35.9934724 Z M20.96,20.9934724 L23.96,20.9934724 L23.96,22.9934724 L21.96,22.9934724 L21.96,24.9934724 L19.96,24.9934724 L19.96,21.9934724 C19.96,21.4414724 20.407,20.9934724 20.96,20.9934724 L20.96,20.9934724 Z M26.96,22.9934724 L31.96,22.9934724 L31.96,20.9934724 L26.96,20.9934724 L26.96,22.9934724 Z M11.96,28.9934724 L26.96,28.9934724 L26.96,37.9934724 L26.96,39.9934724 L26.96,43.9934724 L11.96,43.9934724 L11.96,28.9934724 Z M46,23.1304724 C46,17.9884724 42.579,15.3214724 39.125,14.4474724 C38.746,11.4684724 37.178,9.32947235 34.848,8.66347235 C33.256,8.21047235 31.596,8.56447235 30.291,9.56847235 C29.616,8.07847235 28.75,6.78447235 27.707,5.70547235 C24.128,2.00747235 19.229,1.00547235 14.601,3.02447235 C10.662,4.74347235 7.692,9.47847235 7.692,14.0394724 C7.692,14.2564724 7.698,14.4734724 7.709,14.6894724 C5.526,15.4694724 2,17.5794724 2,23.0634724 C2,23.4194724 2.017,23.7624724 2.046,24.0924724 C2.413,28.1194724 5.866,31.4494724 9.96,31.9284724 L9.96,44.9934724 C9.96,45.5454724 10.407,45.9934724 10.96,45.9934724 L27.96,45.9934724 C28.513,45.9934724 28.96,45.5454724 28.96,44.9934724 L28.96,39.9934724 L31.96,39.9934724 L31.96,37.9934724 L28.96,37.9934724 L28.96,27.9934724 C28.96,27.4414724 28.513,26.9934724 27.96,26.9934724 L10.96,26.9934724 C10.407,26.9934724 9.96,27.4414724 9.96,27.9934724 L9.96,29.9104724 C6.877,29.4504724 4.314,26.9374724 4.038,23.9104724 C4.013,23.6394724 4,23.3564724 4,23.0634724 C4,18.4534724 7.069,16.9064724 8.954,16.3914724 L8.989,16.3844724 C9.489,16.2724724 9.824,15.8014724 9.765,15.2914724 C9.717,14.8844724 9.692,14.4634724 9.692,14.0394724 C9.692,10.2874724 12.2,6.25447235 15.401,4.85747235 C20.924,2.44647235 24.842,5.61947235 26.27,7.09647235 C27.439,8.30547235 28.353,9.85247235 28.984,11.6944724 C29.106,12.0484724 29.415,12.3054724 29.785,12.3594724 C30.157,12.4134724 30.524,12.2564724 30.743,11.9524724 C31.617,10.7344724 32.978,10.2094724 34.299,10.5864724 C35.928,11.0524724 37.003,12.7514724 37.187,15.1424724 C37.12,15.6694724 37.48,16.1584724 38.004,16.2514724 C39.807,16.5704724 44,17.8804724 44,23.1304724 C44,27.8494724 40.662,29.3434724 38.96,29.8004724 L38.96,27.9934724 L36.96,27.9934724 L36.96,30.9924724 L36.959,31.9924724 L36.96,31.9924724 L36.96,32.9934724 L38.96,32.9934724 L38.96,31.8564724 C41.8,31.2834724 46,28.9684724 46,23.1304724 L46,23.1304724 Z" id="Fill-4"></path>
        </g>
    </g>
</svg>