<?xml version="1.0" encoding="UTF-8"?>
<svg width="48px" height="48px" viewBox="0 0 48 48" version="1.1" xmlns="http://www.w3.org/2000/svg" xmlns:xlink="http://www.w3.org/1999/xlink">
    <title>Icon-Resource/IoT/Res_Amazon-IoT-Thing_Travel_48_Light</title>
    <g id="Icon-Resource/IoT/Res_Amazon-IoT-Thing_Travel_48" stroke="none" stroke-width="1" fill="none" fill-rule="evenodd">
        <path d="M34.515,24.1767 C34.64,24.0517 34.843,24.0517 34.968,24.1767 C35.093,24.3017 35.093,24.5047 34.968,24.6297 L33.307,26.2897 L33.137,25.5537 L34.515,24.1767 Z M31.687,34.2287 L27.182,24.3197 C27.049,24.0277 26.784,23.8167 26.469,23.7527 C26.155,23.6937 25.827,23.7817 25.592,23.9997 L20.686,28.5517 C20.482,28.7407 20.366,29.0067 20.366,29.2847 L20.366,35.0307 L20.086,35.3077 L18.56,30.0657 C18.464,29.7347 18.204,29.4767 17.873,29.3827 L12.709,27.9137 L12.979,27.6447 L18.725,27.6447 C19.008,27.6447 19.278,27.5247 19.467,27.3147 L23.953,22.3427 C24.167,22.1067 24.255,21.7807 24.191,21.4697 C24.125,21.1567 23.915,20.8947 23.625,20.7627 L13.716,16.2577 L14.855,15.1187 L27.369,18.0097 C27.712,18.0857 28.079,17.9787 28.324,17.7187 L31.979,13.8097 C32.822,12.9657 34.78,12.4167 35.155,12.7877 C35.259,12.8937 35.344,13.3427 35.123,14.1117 C34.895,14.9357 34.452,15.6507 34.16,15.9437 L30.227,19.6207 C29.966,19.8647 29.855,20.2287 29.935,20.5757 L32.826,33.0897 L31.687,34.2287 Z M23.329,12.9907 C23.454,12.8657 23.658,12.8657 23.783,12.9907 C23.908,13.1157 23.908,13.3197 23.783,13.4447 L22.414,14.8127 L21.677,14.6427 L23.329,12.9907 Z M35.549,17.3807 C36.174,16.7557 36.764,15.6817 37.048,14.6547 C37.452,13.2527 37.282,12.0877 36.571,11.3757 C35.022,9.8267 31.803,11.1577 30.541,12.4187 L27.256,15.9307 L24.711,15.3427 L25.197,14.8587 C26.101,13.9537 26.101,12.4817 25.197,11.5767 C24.292,10.6727 22.82,10.6727 21.915,11.5767 L19.379,14.1127 L14.764,13.0457 C14.432,12.9687 14.077,13.0697 13.832,13.3137 L11.282,15.8637 C11.049,16.0957 10.947,16.4267 11.004,16.7497 C11.063,17.0727 11.277,17.3457 11.575,17.4817 L21.553,22.0177 L18.281,25.6447 L12.564,25.6447 C12.298,25.6447 12.043,25.7497 11.856,25.9387 L10.093,27.7047 C9.843,27.9557 9.744,28.3207 9.833,28.6627 C9.922,29.0057 10.187,29.2767 10.528,29.3727 L16.794,31.1557 L18.637,37.4857 C18.736,37.8237 19.005,38.0857 19.347,38.1747 C19.43,38.1957 19.514,38.2057 19.597,38.2057 C19.858,38.2057 20.113,38.1037 20.302,37.9147 L22.071,36.1547 C22.259,35.9667 22.366,35.7107 22.366,35.4457 L22.366,29.7217 L25.935,26.4087 L30.463,36.3697 C30.599,36.6687 30.872,36.8817 31.195,36.9407 C31.516,37.0007 31.848,36.8957 32.08,36.6627 L34.631,34.1127 C34.875,33.8677 34.976,33.5167 34.899,33.1807 L33.838,28.5877 L36.382,26.0437 C37.286,25.1397 37.286,23.6667 36.382,22.7627 C35.478,21.8587 34.005,21.8587 33.101,22.7627 L32.607,23.2567 L32.014,20.6887 L35.549,17.3807 Z M39.725,38.5917 C39.725,39.2177 39.216,39.7267 38.59,39.7267 L9.417,39.7267 C8.791,39.7267 8.283,39.2177 8.283,38.5917 L8.283,9.4307 C8.283,8.8047 8.791,8.2957 9.417,8.2957 L38.59,8.2957 C39.216,8.2957 39.725,8.8047 39.725,9.4307 L39.725,38.5917 Z M46.007,14.4427 L46.007,12.4427 L41.725,12.4427 L41.725,9.4307 C41.725,7.7017 40.319,6.2957 38.59,6.2957 L35.566,6.2957 L35.566,1.9997 L33.566,1.9997 L33.566,6.2957 L30.285,6.2957 L30.285,1.9997 L28.285,1.9997 L28.285,6.2957 L25.004,6.2957 L25.004,1.9997 L23.004,1.9997 L23.004,6.2957 L19.723,6.2957 L19.723,1.9997 L17.723,1.9997 L17.723,6.2957 L14.442,6.2957 L14.442,1.9997 L12.442,1.9997 L12.442,6.2957 L9.417,6.2957 C7.689,6.2957 6.283,7.7017 6.283,9.4307 L6.283,12.4427 L2,12.4427 L2,14.4427 L6.283,14.4427 L6.283,17.7227 L2,17.7227 L2,19.7227 L6.283,19.7227 L6.283,23.0037 L2,23.0037 L2,25.0037 L6.283,25.0037 L6.283,28.2847 L2,28.2847 L2,30.2847 L6.283,30.2847 L6.283,33.5657 L2,33.5657 L2,35.5657 L6.283,35.5657 L6.283,38.5917 C6.283,40.3207 7.689,41.7267 9.417,41.7267 L12.442,41.7267 L12.442,46.0077 L14.442,46.0077 L14.442,41.7267 L17.723,41.7267 L17.723,46.0077 L19.723,46.0077 L19.723,41.7267 L23.004,41.7267 L23.004,46.0077 L25.004,46.0077 L25.004,41.7267 L28.285,41.7267 L28.285,46.0077 L30.285,46.0077 L30.285,41.7267 L33.566,41.7267 L33.566,46.0077 L35.566,46.0077 L35.566,41.7267 L38.59,41.7267 C40.319,41.7267 41.725,40.3207 41.725,38.5917 L41.725,35.5657 L46.007,35.5657 L46.007,33.5657 L41.725,33.5657 L41.725,30.2847 L46.007,30.2847 L46.007,28.2847 L41.725,28.2847 L41.725,25.0037 L46.007,25.0037 L46.007,23.0037 L41.725,23.0037 L41.725,19.7227 L46.007,19.7227 L46.007,17.7227 L41.725,17.7227 L41.725,14.4427 L46.007,14.4427 Z" id="Amazon-IOT-RESOURCES-IoT-thing-travel_Resource-Icon_light-bg" fill="#3F8624"></path>
    </g>
</svg>