<?xml version="1.0" encoding="UTF-8"?>
<svg width="48px" height="48px" viewBox="0 0 48 48" version="1.1" xmlns="http://www.w3.org/2000/svg" xmlns:xlink="http://www.w3.org/1999/xlink">
    <title>Icon-Resource/IoT/Res_IoT-Thing_House_48_Light</title>
    <g id="Icon-Resource/IoT/Res_IoT-Thing_House_48" stroke="none" stroke-width="1" fill="none" fill-rule="evenodd">
        <path d="M17.941,29.125 L19.457,29.125 L19.457,27.609 L17.941,27.609 L17.941,29.125 Z M16.941,25.609 C16.389,25.609 15.941,26.056 15.941,26.609 L15.941,30.125 C15.941,30.677 16.389,31.125 16.941,31.125 L20.457,31.125 C21.01,31.125 21.457,30.677 21.457,30.125 L21.457,26.609 C21.457,26.056 21.01,25.609 20.457,25.609 L16.941,25.609 Z M34.522,22.964 C34.255,22.964 34.001,23.068 33.813,23.256 C33.625,23.443 33.519,23.698 33.519,23.964 L33.519,34.398 L31.125,34.398 L31.125,26.609 C31.125,26.056 30.678,25.609 30.125,25.609 L24.851,25.609 C24.299,25.609 23.851,26.056 23.851,26.609 L23.851,34.398 L14.426,34.398 L14.426,23.928 C14.426,23.378 13.98,22.93 13.429,22.928 L12.51,22.925 L23.973,12.991 L35.483,22.966 L34.522,22.964 Z M24.628,10.912 C24.251,10.586 23.694,10.586 23.317,10.912 L10.134,22.338 C9.915,22.528 9.789,22.803 9.789,23.093 L9.789,23.92 C9.789,24.47 10.234,24.918 10.786,24.92 L12.426,24.925 L12.426,35.398 C12.426,35.951 12.873,36.398 13.426,36.398 L24.851,36.398 C25.404,36.398 25.851,35.951 25.851,35.398 L25.851,27.609 L29.125,27.609 L29.125,35.398 C29.125,35.951 29.572,36.398 30.125,36.398 L34.519,36.398 C35.072,36.398 35.519,35.951 35.519,35.398 L35.519,24.966 L37.153,24.972 L37.156,24.972 C37.421,24.972 37.675,24.868 37.862,24.68 C38.051,24.493 38.156,24.238 38.156,23.972 L38.156,23.093 C38.156,22.803 38.03,22.528 37.811,22.338 L24.628,10.912 Z M39.67,38.537 C39.67,39.163 39.161,39.672 38.535,39.672 L9.409,39.672 C8.783,39.672 8.274,39.163 8.274,38.537 L8.274,9.423 C8.274,8.797 8.783,8.288 9.409,8.288 L38.535,8.288 C39.161,8.288 39.67,8.797 39.67,9.423 L39.67,38.537 Z M45.945,14.425 L45.945,12.425 L41.67,12.425 L41.67,9.423 C41.67,7.694 40.264,6.288 38.535,6.288 L35.519,6.288 L35.519,2 L33.519,2 L33.519,6.288 L30.246,6.288 L30.246,2 L28.246,2 L28.246,6.288 L24.973,6.288 L24.973,2 L22.973,2 L22.973,6.288 L19.699,6.288 L19.699,2 L17.699,2 L17.699,6.288 L14.426,6.288 L14.426,2 L12.426,2 L12.426,6.288 L9.409,6.288 C7.681,6.288 6.274,7.694 6.274,9.423 L6.274,12.425 L2,12.425 L2,14.425 L6.274,14.425 L6.274,17.699 L2,17.699 L2,19.699 L6.274,19.699 L6.274,22.972 L2,22.972 L2,24.972 L6.274,24.972 L6.274,28.246 L2,28.246 L2,30.246 L6.274,30.246 L6.274,33.519 L2,33.519 L2,35.519 L6.274,35.519 L6.274,38.537 C6.274,40.265 7.681,41.672 9.409,41.672 L12.426,41.672 L12.426,45.945 L14.426,45.945 L14.426,41.672 L17.699,41.672 L17.699,45.945 L19.699,45.945 L19.699,41.672 L22.973,41.672 L22.973,45.945 L24.973,45.945 L24.973,41.672 L28.246,41.672 L28.246,45.945 L30.246,45.945 L30.246,41.672 L33.519,41.672 L33.519,45.945 L35.519,45.945 L35.519,41.672 L38.535,41.672 C40.264,41.672 41.67,40.265 41.67,38.537 L41.67,35.519 L45.945,35.519 L45.945,33.519 L41.67,33.519 L41.67,30.246 L45.945,30.246 L45.945,28.246 L41.67,28.246 L41.67,24.972 L45.945,24.972 L45.945,22.972 L41.67,22.972 L41.67,19.699 L45.945,19.699 L45.945,17.699 L41.67,17.699 L41.67,14.425 L45.945,14.425 Z" id="Amazon-IOT-RESOURCES-IoT-thing-house_Resource-Icon_light-bg" fill="#3F8624"></path>
    </g>
</svg>