<?xml version="1.0" encoding="UTF-8"?>
<svg width="64px" height="64px" viewBox="0 0 64 64" version="1.1" xmlns="http://www.w3.org/2000/svg" xmlns:xlink="http://www.w3.org/1999/xlink">
    <title>Icon-Architecture/48/Arch_CN-CloudWAN_48</title>
    <defs>
        <linearGradient x1="0%" y1="100%" x2="100%" y2="0%" id="linearGradient-1">
            <stop stop-color="#4D27A8" offset="0%"></stop>
            <stop stop-color="#A166FF" offset="100%"></stop>
        </linearGradient>
    </defs>
    <g id="Icon-Architecture/48/Arch_CN-CloudWAN_48" stroke="none" stroke-width="1" fill="none" fill-rule="evenodd">
        <g id="Rectangle" fill="url(#linearGradient-1)">
            <rect x="0" y="0" width="64" height="64"></rect>
        </g>
        <g id="Icon-Service/48/CN-CloudWAN_48" transform="translate(8.000000, 8.000000)" fill="#FFFFFF">
            <path d="M44,24 C44,22.346 42.654,21 41,21 C39.346,21 38,22.346 38,24 C38,25.654 39.346,27 41,27 C42.654,27 44,25.654 44,24 L44,24 Z M33.082,31.821 C32.274,31.42 31.365,31.075 30.368,30.8 C29.886,32.505 29.223,33.976 28.43,35.142 C30.239,34.42 31.83,33.273 33.082,31.821 L33.082,31.821 Z M24,38 C22.346,38 21,39.346 21,41 C21,42.654 22.346,44 24,44 C25.654,44 27,42.654 27,41 C27,39.346 25.654,38 24,38 L24,38 Z M19.57,35.142 C18.777,33.975 18.114,32.505 17.632,30.799 C16.634,31.074 15.725,31.419 14.917,31.819 C16.169,33.272 17.761,34.42 19.57,35.142 L19.57,35.142 Z M10,24 C10,22.346 8.654,21 7,21 C5.346,21 4,22.346 4,24 C4,25.654 5.346,27 7,27 C8.654,27 10,25.654 10,24 L10,24 Z M15.124,15.952 C15.906,16.322 16.78,16.637 17.728,16.894 C18.2,15.32 18.826,13.953 19.57,12.858 C17.858,13.541 16.344,14.609 15.124,15.952 L15.124,15.952 Z M24,10 C25.654,10 27,8.654 27,7 C27,5.346 25.654,4 24,4 C22.346,4 21,5.346 21,7 C21,8.654 22.346,10 24,10 L24,10 Z M28.43,12.858 C29.174,13.953 29.8,15.32 30.272,16.894 C31.22,16.638 32.094,16.322 32.876,15.953 C31.656,14.609 30.143,13.541 28.43,12.858 L28.43,12.858 Z M30.812,28.855 C32.09,29.202 33.255,29.647 34.268,30.179 C35.197,28.641 35.793,26.884 35.949,25 L31.229,25 C31.181,26.353 31.038,27.644 30.812,28.855 L30.812,28.855 Z M12.051,25 C12.207,26.884 12.803,28.64 13.732,30.178 C14.744,29.646 15.91,29.201 17.188,28.855 C16.962,27.643 16.819,26.353 16.771,25 L12.051,25 Z M17.246,18.829 C16.01,18.497 14.879,18.074 13.886,17.568 C12.868,19.164 12.216,21.012 12.051,23 L16.771,23 C16.823,21.53 16.986,20.13 17.246,18.829 L17.246,18.829 Z M35.949,23 C35.784,21.012 35.132,19.164 34.114,17.568 C33.121,18.073 31.99,18.497 30.754,18.829 C31.014,20.13 31.177,21.53 31.229,23 L35.949,23 Z M19.196,19.261 C18.969,20.406 18.821,21.66 18.771,23 L29.229,23 C29.179,21.66 29.031,20.406 28.804,19.26 C27.28,19.532 25.66,19.682 24,19.682 C22.34,19.682 20.72,19.532 19.196,19.261 L19.196,19.261 Z M19.687,17.321 C21.051,17.554 22.505,17.682 24,17.682 C25.495,17.682 26.949,17.554 28.313,17.321 C27.29,14.02 25.589,12 24,12 C22.411,12 20.71,14.02 19.687,17.321 L19.687,17.321 Z M28.86,28.42 C29.055,27.361 29.184,26.218 29.229,25 L18.771,25 C18.816,26.218 18.945,27.36 19.14,28.419 C20.679,28.142 22.318,27.987 23.998,27.987 C25.679,27.987 27.319,28.142 28.86,28.42 L28.86,28.42 Z M28.405,30.366 C27.014,30.122 25.528,29.987 23.998,29.987 C22.469,29.987 20.985,30.122 19.595,30.365 C20.605,33.85 22.362,36 24,36 C25.638,36 27.394,33.85 28.405,30.366 L28.405,30.366 Z M46,24 C46,26.757 43.757,29 41,29 C39.646,29 38.421,28.455 37.519,27.578 C36.235,32.422 32.422,36.235 27.578,37.519 C28.455,38.421 29,39.646 29,41 C29,43.757 26.757,46 24,46 C21.243,46 19,43.757 19,41 C19,39.646 19.545,38.421 20.422,37.519 C15.578,36.235 11.765,32.422 10.481,27.578 C9.579,28.455 8.354,29 7,29 C4.243,29 2,26.757 2,24 C2,21.243 4.243,19 7,19 C8.354,19 9.579,19.545 10.481,20.422 C11.765,15.578 15.578,11.765 20.422,10.481 C19.545,9.579 19,8.354 19,7 C19,4.243 21.243,2 24,2 C26.757,2 29,4.243 29,7 C29,8.354 28.455,9.579 27.578,10.481 C32.422,11.765 36.235,15.578 37.519,20.422 C38.421,19.545 39.646,19 41,19 C43.757,19 46,21.243 46,24 L46,24 Z M39.345,31.31 C37.667,34.817 34.817,37.667 31.31,39.345 C31.431,39.878 31.5,40.431 31.5,41 C31.5,41.154 31.486,41.305 31.477,41.457 C35.943,39.535 39.535,35.943 41.457,31.477 C41.305,31.486 41.154,31.5 41,31.5 C40.431,31.5 39.878,31.431 39.345,31.31 L39.345,31.31 Z M16.69,39.345 C13.183,37.667 10.333,34.817 8.655,31.31 C8.122,31.431 7.569,31.5 7,31.5 C6.846,31.5 6.695,31.486 6.543,31.477 C8.465,35.943 12.057,39.535 16.523,41.456 C16.514,41.305 16.5,41.154 16.5,41 C16.5,40.431 16.569,39.878 16.69,39.345 L16.69,39.345 Z M8.655,16.69 C10.333,13.183 13.183,10.333 16.69,8.655 C16.569,8.122 16.5,7.569 16.5,7 C16.5,6.846 16.514,6.695 16.523,6.544 C12.057,8.465 8.465,12.057 6.543,16.523 C6.695,16.514 6.846,16.5 7,16.5 C7.569,16.5 8.122,16.569 8.655,16.69 L8.655,16.69 Z M31.5,7 C31.5,6.846 31.486,6.695 31.477,6.543 C35.943,8.465 39.535,12.057 41.457,16.523 C41.305,16.514 41.154,16.5 41,16.5 C40.431,16.5 39.878,16.569 39.345,16.69 C37.667,13.183 34.817,10.333 31.31,8.655 C31.431,8.122 31.5,7.569 31.5,7 L31.5,7 Z" id="Fill-4"></path>
        </g>
    </g>
</svg>