<?xml version="1.0" encoding="UTF-8"?>
<svg width="74px" height="74px" viewBox="0 0 74 74" version="1.1" xmlns="http://www.w3.org/2000/svg" xmlns:xlink="http://www.w3.org/1999/xlink">
    <title>Icon-Architecture-Category/48/Blockchain_48</title>
    <defs>
        <linearGradient x1="0%" y1="100%" x2="100%" y2="0%" id="linearGradient-1">
            <stop stop-color="#C8511B" offset="0%"></stop>
            <stop stop-color="#FF9900" offset="100%"></stop>
        </linearGradient>
    </defs>
    <g id="Icon-Architecture-Category/48/Blockchain_48" stroke="none" stroke-width="1" fill="none" fill-rule="evenodd">
        <rect id="Rectangle" fill="url(#linearGradient-1)" x="5" y="5" width="64" height="64"></rect>
        <rect id="#879196-Border-Copy-4" stroke="#879196" stroke-width="2" x="1" y="1" width="72" height="72"></rect>
        <g id="Icon-Category/48/Blockchain_48" transform="translate(13.000000, 13.000000)" fill="#FFFFFF">
            <path d="M44,29 L34.324,29 C34.246,28.996 34.104,28.944 34,28.89 L34,25 L29,25 L29,29 L19.324,29 C19.246,28.996 19.104,28.944 19,28.89 L19,25 L14,25 L14,28.89 C13.897,28.945 13.756,28.996 13.681,29 L4,29 L4,19 L13.818,19 C13.864,19.004 13.941,19.037 14,19.072 L14,23 L19,23 L19,19.072 C19.058,19.037 19.133,19.004 19.171,19 L29,19 L29,23 L34,23 L34,19.072 C34.058,19.037 34.133,19.004 34.171,19 L44,19 L44,29 Z M44.167,17 L34.171,17 C33.265,17 32,17.72 32,18.893 L32,21 L31,21 L31,18.893 C31,17.849 30.178,17 29.167,17 L19.171,17 C18.265,17 17,17.72 17,18.893 L17,21 L16,21 L16,18.893 C16,17.72 14.735,17 13.829,17 L3.833,17 C2.822,17 2,17.849 2,18.893 L2,29.143 C2,30.167 2.819,31 3.827,31 L13.681,31 C14.49,31 16,30.362 16,29.143 L16,27 L17,27 L17,29.143 C17,30.362 18.51,31 19.319,31 L29.173,31 C30.181,31 31,30.167 31,29.143 L31,27 L32,27 L32,29.143 C32,30.362 33.51,31 34.319,31 L44.173,31 C45.181,31 46,30.167 46,29.143 L46,18.893 C46,17.849 45.178,17 44.167,17 L44.167,17 Z M37,26 L41,26 L41,22 L37,22 L37,26 Z M36.774,28 L41.226,28 C42.204,28 43,27.204 43,26.226 L43,21.774 C43,20.796 42.204,20 41.226,20 L36.774,20 C35.796,20 35,20.796 35,21.774 L35,26.226 C35,27.204 35.796,28 36.774,28 L36.774,28 Z M22,26 L26,26 L26,22 L22,22 L22,26 Z M26.226,20 L21.774,20 C20.796,20 20,20.796 20,21.774 L20,26.226 C20,27.204 20.796,28 21.774,28 L26.226,28 C27.204,28 28,27.204 28,26.226 L28,21.774 C28,20.796 27.204,20 26.226,20 L26.226,20 Z M7,26 L11,26 L11,22 L7,22 L7,26 Z M11.226,20 L6.774,20 C5.796,20 5,20.796 5,21.774 L5,26.226 C5,27.204 5.796,28 6.774,28 L11.226,28 C12.204,28 13,27.204 13,26.226 L13,21.774 C13,20.796 12.204,20 11.226,20 L11.226,20 Z" id="Blockchain_Category-Icon_48_Squid--"></path>
        </g>
    </g>
</svg>