<?xml version="1.0" encoding="UTF-8"?>
<svg width="48px" height="48px" viewBox="0 0 48 48" version="1.1" xmlns="http://www.w3.org/2000/svg" xmlns:xlink="http://www.w3.org/1999/xlink">
    <title>Icon-Resource/Blockchain/Res_Amazon-Managed-Blockchain_Blockchain_48_Light</title>
    <g id="Icon-Resource/Blockchain/Res_Amazon-Managed-Blockchain_Blockchain_48" stroke="none" stroke-width="1" fill="none" fill-rule="evenodd">
        <path d="M7.167,25.71 L10.71,25.71 L10.71,22.167 L7.167,22.167 L7.167,25.71 Z M10.936,20.167 L6.941,20.167 C5.963,20.167 5.167,20.963 5.167,21.941 L5.167,25.936 C5.167,26.914 5.963,27.71 6.941,27.71 L10.936,27.71 C11.914,27.71 12.71,26.914 12.71,25.936 L12.71,21.941 C12.71,20.963 11.914,20.167 10.936,20.167 L10.936,20.167 Z M37.258,25.71 L40.801,25.71 L40.801,22.167 L37.258,22.167 L37.258,25.71 Z M37.032,27.71 L41.026,27.71 C42.005,27.71 42.801,26.914 42.801,25.936 L42.801,21.941 C42.801,20.963 42.005,20.167 41.026,20.167 L37.032,20.167 C36.054,20.167 35.258,20.963 35.258,21.941 L35.258,25.936 C35.258,26.914 36.054,27.71 37.032,27.71 L37.032,27.71 Z M22.213,25.71 L25.756,25.71 L25.756,22.167 L22.213,22.167 L22.213,25.71 Z M25.981,20.167 L21.986,20.167 C21.009,20.167 20.213,20.963 20.213,21.941 L20.213,25.936 C20.213,26.914 21.009,27.71 21.986,27.71 L25.981,27.71 C26.96,27.71 27.756,26.914 27.756,25.936 L27.756,21.941 C27.756,20.963 26.96,20.167 25.981,20.167 L25.981,20.167 Z M43.968,28.877 L34.402,28.877 C34.327,28.873 34.19,28.824 34.09,28.772 L34.09,24.918 L28.923,24.918 L28.923,28.877 L19.357,28.877 C19.281,28.873 19.145,28.824 19.045,28.772 L19.045,24.918 L13.878,24.918 L13.878,28.772 C13.778,28.824 13.642,28.873 13.571,28.877 L4,28.877 L4,19 L13.637,18.999 C13.677,19.003 13.742,19.028 13.797,19.057 L13.797,22.959 L19.126,22.959 L19.126,19.056 C19.18,19.027 19.242,19.003 19.277,19 L28.923,19 L28.923,22.959 L34.172,22.959 L34.172,19.056 C34.224,19.027 34.288,19.003 34.322,19 L43.968,19 L43.968,28.877 Z M44.149,17 L34.322,17 C33.425,17 32.172,17.703 32.172,18.848 L32.172,20.959 L30.923,20.959 L30.923,18.848 C30.923,17.829 30.107,17 29.104,17 L19.277,17 C18.379,17 17.126,17.703 17.126,18.848 L17.126,20.959 L15.797,20.959 L15.797,18.848 C15.797,17.703 14.544,17 13.645,17 L3.819,17 C2.816,17 2,17.829 2,18.848 L2,29.029 C2,30.048 2.816,30.877 3.819,30.877 L13.571,30.877 C14.376,30.877 15.878,30.242 15.878,29.029 L15.878,26.918 L17.045,26.918 L17.045,29.029 C17.045,30.242 18.547,30.877 19.351,30.877 L29.104,30.877 C30.107,30.877 30.923,30.048 30.923,29.029 L30.923,26.918 L32.09,26.918 L32.09,29.029 C32.09,30.242 33.592,30.877 34.396,30.877 L44.149,30.877 C45.152,30.877 45.968,30.048 45.968,29.029 L45.968,18.848 C45.968,17.829 45.152,17 44.149,17 L44.149,17 Z" id="Amazon-Managed-Blockchain-Blockchain_Resource-Icon_light-bg" fill="#D45B07"></path>
    </g>
</svg>