<?xml version="1.0" encoding="UTF-8"?>
<svg width="48px" height="48px" viewBox="0 0 48 48" version="1.1" xmlns="http://www.w3.org/2000/svg" xmlns:xlink="http://www.w3.org/1999/xlink">
    <title>Icon-Resource/Front-end-Web-Mobile/Res_Amazon-Location-Service_Place_48_Light</title>
    <g id="Icon-Resource/Front-end-Web-Mobile/Res_Amazon-Location-Service_Place_48" stroke="none" stroke-width="1" fill="none" fill-rule="evenodd">
        <path d="M24,4 C15.729,4 9,9.832 9,17 C9,22.726 13.427,27.853 19.766,29.468 C20.819,29.736 21.635,30.581 21.892,31.672 L24,40.634 L26.108,31.672 C26.365,30.581 27.181,29.736 28.235,29.468 C34.573,27.853 39,22.726 39,17 C39,9.832 32.271,4 24,4 M24,46 C23.536,46 23.133,45.681 23.026,45.229 L19.944,32.13 C19.86,31.773 19.597,31.489 19.272,31.407 C12.046,29.565 7,23.641 7,17 C7,8.729 14.626,2 24,2 C33.374,2 41,8.729 41,17 C41,23.641 35.954,29.564 28.729,31.407 C28.403,31.489 28.14,31.773 28.056,32.13 L24.974,45.229 C24.867,45.681 24.464,46 24,46 M24,12 C21.243,12 19,14.243 19,17 C19,19.757 21.243,22 24,22 C26.757,22 29,19.757 29,17 C29,14.243 26.757,12 24,12 M24,24 C20.141,24 17,20.86 17,17 C17,13.14 20.141,10 24,10 C27.859,10 31,13.14 31,17 C31,20.86 27.859,24 24,24" id="Fill-1" fill="#BF0816"></path>
    </g>
</svg>