<?xml version="1.0" encoding="UTF-8"?>
<svg width="48px" height="48px" viewBox="0 0 48 48" version="1.1" xmlns="http://www.w3.org/2000/svg" xmlns:xlink="http://www.w3.org/1999/xlink">
    <title>Icon-Resource/Front-end-Web-Mobile/Res_Amazon-Location-Service_Geofence_48_Light</title>
    <g id="Icon-Resource/Front-end-Web-Mobile/Res_Amazon-Location-Service_Geofence_48" stroke="none" stroke-width="1" fill="none" fill-rule="evenodd">
        <path d="M42.0827316,24.0408067 L33.4677316,24.4158067 L29.9577316,12.7148067 C29.8167316,12.2448067 29.3517316,11.9538067 28.8707316,12.0098067 L21.6217316,12.9558067 L21.9567316,5.9258067 L43.8957316,4.0968067 L42.0827316,24.0408067 Z M21.5247316,14.9848067 L28.2857316,14.1028067 L31.4067316,24.5048067 L21.0507316,24.9548067 L21.5247316,14.9848067 Z M33.8487316,32.6428067 L19.7287316,43.9378067 L4.1017316,41.1808067 L6.9037316,16.8928067 L19.5107316,15.2478067 L19.0007316,25.9548067 C18.9867316,26.2348067 19.0927316,26.5078067 19.2907316,26.7078067 C19.4787316,26.8958067 19.7337316,27.0018067 19.9997316,27.0018067 C20.0147316,27.0018067 20.0287316,27.0008067 20.0427316,27.0008067 L31.9997316,26.4808067 L33.8487316,32.6428067 Z M45.7097316,2.2968067 C45.5017316,2.0868067 45.2087316,1.9748067 44.9167316,2.0048067 L20.9167316,4.0048067 C20.4167316,4.0468067 20.0247316,4.4528067 20.0007316,4.9548067 L19.6067316,13.2188067 L5.8707316,15.0098067 C5.4147316,15.0698067 5.0597316,15.4308067 5.0067316,15.8868067 L2.0067316,41.8868067 C1.9457316,42.4128067 2.3057316,42.8948067 2.8257316,42.9868067 L19.8257316,45.9868067 C19.8837316,45.9968067 19.9417316,46.0018067 19.9997316,46.0018067 C20.2257316,46.0018067 20.4457316,45.9258067 20.6247316,45.7828067 L35.6247316,33.7828067 C35.9427316,33.5278067 36.0747316,33.1048067 35.9577316,32.7148067 L34.0607316,26.3918067 L43.0427316,26.0008067 C43.5437316,25.9788067 43.9497316,25.5908067 43.9957316,25.0918067 L45.9957316,3.0918067 C46.0217316,2.7978067 45.9177316,2.5068067 45.7097316,2.2968067 L45.7097316,2.2968067 Z" id="Fill-1" fill="#BF0816"></path>
    </g>
</svg>