<?xml version="1.0" encoding="UTF-8"?>
<svg width="64px" height="64px" viewBox="0 0 64 64" version="1.1" xmlns="http://www.w3.org/2000/svg" xmlns:xlink="http://www.w3.org/1999/xlink">
    <title>Icon-Architecture/48/Arch_AWS-Mainframe-Modernization_48</title>
    <defs>
        <linearGradient x1="0%" y1="100%" x2="100%" y2="0%" id="linearGradient-1">
            <stop stop-color="#055F4E" offset="0%"></stop>
            <stop stop-color="#56C0A7" offset="100%"></stop>
        </linearGradient>
    </defs>
    <g id="Icon-Architecture/48/Arch_AWS-Mainframe-Modernization_48" stroke="none" stroke-width="1" fill="none" fill-rule="evenodd">
        <g id="Rectangle" fill="url(#linearGradient-1)">
            <rect x="0" y="0" width="64" height="64"></rect>
        </g>
        <g id="Icon-Service/48/AWS-Mainframe-Modernization_48" transform="translate(8.000000, 8.000000)" fill="#FFFFFF">
            <path d="M45.897,21.521 C45.897,21.782 45.885,22.04 45.865,22.294 C45.482,26.808 41.491,30.34 36.778,30.34 L36.778,28.34 C40.46,28.34 43.576,25.612 43.872,22.129 C43.887,21.931 43.897,21.727 43.897,21.521 C43.897,17.854 41.421,15.088 38.139,15.088 C37.586,15.088 37.139,14.64 37.139,14.088 C37.139,10.906 35.24,9.006 32.057,9.006 L31.381,9.006 C31.018,9.006 30.683,8.809 30.506,8.49 C28.81,5.428 25.601,3.6 21.92,3.6 C16.51,3.6 12.109,8.001 12.109,13.412 C12.109,13.964 11.662,14.412 11.109,14.412 C7.189,14.412 4,17.601 4,21.521 C4,22.663 4.33,28.361 10.842,28.361 L10.842,30.361 C4.734,30.361 2,25.921 2,21.521 C2,16.823 5.575,12.945 10.147,12.462 C10.632,6.392 15.727,1.6 21.92,1.6 C26.129,1.6 29.836,3.609 31.953,7.006 L32.057,7.006 C36.037,7.006 38.713,9.384 39.092,13.146 C43.033,13.625 45.897,17.065 45.897,21.521 L45.897,21.521 Z M34.424,37.456 L37.936,40.199 L30.503,46.006 L17.507,46.006 L10.075,40.199 L13.586,37.456 L14.817,39.032 L13.323,40.199 L18.197,44.006 L29.814,44.006 L34.688,40.199 L33.194,39.032 L34.424,37.456 Z M34.424,30.456 L37.936,33.199 L30.503,39.006 L17.507,39.006 L10.075,33.199 L13.586,30.456 L14.817,32.032 L13.323,33.199 L18.197,37.006 L29.814,37.006 L34.688,33.199 L33.194,32.032 L34.424,30.456 Z M17.95,21.006 L30.061,21.006 L35.182,25.006 L30.061,29.006 L17.95,29.006 L12.829,25.006 L17.95,21.006 Z M30.751,31.006 L38.43,25.006 L30.751,19.006 L17.26,19.006 L9.581,25.006 L17.26,31.006 L30.751,31.006 Z" id="Fill-3"></path>
        </g>
    </g>
</svg>