<?xml version="1.0" encoding="UTF-8"?>
<svg width="64px" height="64px" viewBox="0 0 64 64" version="1.1" xmlns="http://www.w3.org/2000/svg" xmlns:xlink="http://www.w3.org/1999/xlink">
    <title>Icon-Architecture/48/Arch_Amazon-ECS-Anywhere_48</title>
    <defs>
        <linearGradient x1="0%" y1="100%" x2="100%" y2="0%" id="linearGradient-1">
            <stop stop-color="#C8511B" offset="0%"></stop>
            <stop stop-color="#FF9900" offset="100%"></stop>
        </linearGradient>
    </defs>
    <g id="Icon-Architecture/48/Arch_Amazon-ECS-Anywhere_48" stroke="none" stroke-width="1" fill="none" fill-rule="evenodd">
        <g id="Rectangle" fill="url(#linearGradient-1)">
            <rect x="0" y="0" width="64" height="64"></rect>
        </g>
        <g id="Icon-Service/48/Amazon-ECS-Anywhere_48" transform="translate(8.000000, 8.000000)" fill="#FFFFFF">
            <path d="M42,30.6948647 L36.519,27.4764904 C36.824,26.3678163 37,25.2058212 37,24.0005657 C37,18.2016569 33.226,13.2780171 28.022,11.5697334 C28.015,11.5606789 28.007,11.5536365 28,11.5455881 L28,4.79293785 L42,13.3403926 L42,30.6948647 Z M23.247,43.838991 L6,33.8206818 L6,13.2951201 L20,4.78891363 L20,11.561685 C14.784,13.2639323 11,18.1926024 11,24.0005657 C11,31.2119777 16.832,37.0792983 24,37.0792983 C27.275,37.0792983 30.262,35.8448672 32.551,33.8267181 L36.847,36.3126834 L23.247,43.838991 Z M29.029,22.9945094 L25,22.9945094 L25,12.9842487 C25.629,13.0415939 26.239,13.1593025 26.832,13.3192654 C28.115,15.2609542 28.895,19.0356776 29.029,22.9945094 L29.029,22.9945094 Z M30.997,22.9945094 C30.913,19.8737226 30.442,16.8293961 29.591,14.4862908 C32.551,16.2539318 34.623,19.3706944 34.949,22.9945094 L30.997,22.9945094 Z M25,25.0066221 L29.043,25.0066221 C28.959,28.8115272 28.257,32.5228691 26.81,34.6868963 C26.223,34.8438411 25.621,34.9595376 25,35.0158767 L25,25.0066221 Z M21.183,34.6848842 C19.782,32.663717 19.063,28.93326 19.003,25.0066221 L23,25.0066221 L23,35.0158767 C22.377,34.9595376 21.772,34.842835 21.183,34.6848842 L21.183,34.6848842 Z M17.007,25.0066221 C17.057,28.1183544 17.505,31.1445719 18.357,33.4826469 C15.425,31.7089695 13.375,28.6083038 13.051,25.0066221 L17.007,25.0066221 Z M17.029,22.9945094 L13.051,22.9945094 C13.383,19.3063068 15.521,16.1412535 18.565,14.3907155 C17.664,16.8132992 17.15,19.880765 17.029,22.9945094 L17.029,22.9945094 Z M23,22.9945094 L19.03,22.9945094 C19.187,19.2016769 19.948,15.5134743 21.296,13.2860656 C21.85,13.1442116 22.417,13.0375697 23,12.9842487 L23,22.9945094 Z M29.572,33.5259073 C30.441,31.1626809 30.912,28.1183544 30.996,25.0066221 L34.949,25.0066221 C34.622,28.6374795 32.543,31.7592723 29.572,33.5259073 L29.572,33.5259073 Z M43.519,11.9138047 L27.519,2.14600359 C27.209,1.956865 26.823,1.95183471 26.51,2.12890063 C26.194,2.30797866 26,2.64299543 26,3.00618177 L26,11.0928627 C25.346,10.990245 24.682,10.9218332 24,10.9218332 C23.318,10.9218332 22.654,10.990245 22,11.0928627 L22,3.00618177 C22,2.64299543 21.806,2.30898472 21.491,2.12990669 C21.178,1.95183471 20.791,1.95787105 20.483,2.14499753 L4.483,11.865514 C4.184,12.0476102 4,12.3745785 4,12.7266983 L4,34.4021824 C4,34.7613445 4.19,35.0933431 4.5,35.2734272 L22.735,45.8661945 C22.89,45.9547275 23.063,46 23.235,46 C23.401,46 23.567,45.9587517 23.718,45.875249 L39.368,37.2141099 C39.685,37.0390561 39.882,36.7060514 39.886,36.3428651 C39.889,35.9786727 39.697,35.6416438 39.385,35.4605537 L34.001,32.3447971 C34.735,31.4554433 35.344,30.4634717 35.826,29.4000702 L42.496,33.3156415 C42.651,33.4071926 42.826,33.4524652 43,33.4524652 C43.172,33.4524652 43.344,33.4081987 43.498,33.3186597 C43.809,33.1395816 44,32.806577 44,32.4464088 L44,12.7739829 C44,12.4218632 43.817,12.0959009 43.519,11.9138047 L43.519,11.9138047 Z" id="Fill-3"></path>
        </g>
    </g>
</svg>