<?xml version="1.0" encoding="UTF-8"?>
<svg width="48px" height="48px" viewBox="0 0 48 48" version="1.1" xmlns="http://www.w3.org/2000/svg" xmlns:xlink="http://www.w3.org/1999/xlink">
    <title>Icon-Resource/Storage/Res_AWS-Backup_AWS-Backup-for-VMware_48_Light</title>
    <g id="Icon-Resource/Storage/Res_AWS-Backup_AWS-Backup-for-VMware_48" stroke="none" stroke-width="1" fill="none" fill-rule="evenodd">
        <path d="M23.9996,29.0334686 C23.9996,29.7704686 23.5946,30.4084686 22.9996,30.7554686 L22.9996,35.0334686 L20.9996,35.0334686 L20.9996,30.7554686 C20.4046,30.4084686 19.9996,29.7704686 19.9996,29.0334686 C19.9996,27.9304686 20.8966,27.0334686 21.9996,27.0334686 C23.1026,27.0334686 23.9996,27.9304686 23.9996,29.0334686 L23.9996,29.0334686 Z M12.9996,38.0334686 L30.9996,38.0334686 L30.9996,23.0334686 L12.9996,23.0334686 L12.9996,38.0334686 Z M36.9996,43.0334686 L6.9996,43.0334686 L6.9996,40.0334686 L12.7276,40.0334686 L31.2716,40.0334686 L36.9996,40.0334686 L36.9996,43.0334686 Z M26.9996,21.0334686 L16.9996,21.0334686 L16.9996,16.1684686 C16.9996,14.2634686 17.9926,13.0334686 19.5286,13.0334686 L24.4706,13.0334686 C26.0066,13.0334686 26.9996,14.2634686 26.9996,16.1684686 L26.9996,21.0334686 Z M10.6506,29.0044686 C7.1426,29.0014686 4.1886,26.3674686 3.9266,23.0084686 C3.9086,22.7854686 3.8996,22.5554686 3.8996,22.3174686 C3.8996,17.8394686 6.9976,16.3444686 8.8826,15.8494686 C9.3426,15.7564686 9.6846,15.3494686 9.6846,14.8674686 C9.6846,14.8194686 9.6806,14.7714686 9.6736,14.7244686 C9.6286,14.3304686 9.6046,13.9314686 9.6046,13.5384686 C9.6046,9.90246864 12.1146,5.99146864 15.3186,4.63446864 C20.8676,2.28446864 24.8016,5.37446864 26.2366,6.81246864 C27.4066,7.98746864 28.3196,9.48846864 28.9506,11.2744686 C29.0746,11.6234686 29.3806,11.8754686 29.7466,11.9304686 C30.1096,11.9824686 30.4786,11.8324686 30.6986,11.5354686 C31.5746,10.3484686 33.0006,9.83246864 34.3226,10.2194686 C35.9276,10.6884686 36.9866,12.3264686 37.1696,14.6114686 C37.1036,15.1384686 37.4656,15.6274686 37.9926,15.7174686 C39.7986,16.0284686 43.9996,17.2984686 43.9996,22.3834686 C43.9996,28.4324686 38.1366,29.0154686 37.9726,29.0334686 L32.9996,29.0284686 L32.9996,22.7614686 C32.9996,21.8084686 32.2246,21.0334686 31.2716,21.0334686 L28.9996,21.0334686 L28.9996,16.1684686 C28.9996,13.1454686 27.1376,11.0334686 24.4706,11.0334686 L19.5286,11.0334686 C16.8616,11.0334686 14.9996,13.1454686 14.9996,16.1684686 L14.9996,21.0334686 L12.7276,21.0334686 C11.7746,21.0334686 10.9996,21.8084686 10.9996,22.7614686 L10.9996,29.0044686 L10.6506,29.0044686 Z M38.0526,31.0304686 C40.8016,30.8064686 45.9996,28.7124686 45.9996,22.3834686 C45.9996,17.3614686 42.5686,14.7584686 39.1046,13.9084686 C38.7236,11.0434686 37.1766,8.96946864 34.8836,8.29946864 C33.2706,7.82746864 31.5766,8.16946864 30.2506,9.17046864 C29.5726,7.71746864 28.7026,6.45346864 27.6526,5.40046864 C24.0706,1.80746864 19.1676,0.83546864 14.5396,2.79246864 C10.5866,4.46746864 7.6046,9.08646864 7.6046,13.5384686 C7.6046,13.7404686 7.6096,13.9424686 7.6206,14.1454686 C5.4316,14.9074686 1.8996,16.9674686 1.8996,22.3174686 C1.8996,22.6094686 1.9106,22.8914686 1.9326,23.1644686 C2.2756,27.5564686 6.1036,31.0004686 10.6496,31.0044686 L10.9996,31.0044686 L10.9996,38.0334686 L5.9996,38.0334686 C5.4466,38.0334686 4.9996,38.4814686 4.9996,39.0334686 L4.9996,44.0334686 C4.9996,44.5854686 5.4466,45.0334686 5.9996,45.0334686 L37.9996,45.0334686 C38.5526,45.0334686 38.9996,44.5854686 38.9996,44.0334686 L38.9996,39.0334686 C38.9996,38.4814686 38.5526,38.0334686 37.9996,38.0334686 L32.9996,38.0334686 L32.9996,31.0274686 L38.0526,31.0304686 Z" id="Fill-1" fill="#3F8624"></path>
    </g>
</svg>