<?xml version="1.0" encoding="UTF-8"?>
<svg width="48px" height="48px" viewBox="0 0 48 48" version="1.1" xmlns="http://www.w3.org/2000/svg" xmlns:xlink="http://www.w3.org/1999/xlink">
    <title>Icon-Resource/Storage/Res_Amazon-Elastic-File-System_One-Zone-Infrequent-Access_48_Light</title>
    <g id="Icon-Resource/Storage/Res_Amazon-Elastic-File-System_One-Zone-Infrequent-Access_48" stroke="none" stroke-width="1" fill="none" fill-rule="evenodd">
        <path d="M40,9 C40,8.449 39.552,8 39,8 C38.448,8 38,8.449 38,9 C38,9.551 38.448,10 39,10 C39.552,10 40,9.551 40,9 L40,9 Z M42,9 C42,10.654 40.654,12 39,12 C37.346,12 36,10.654 36,9 C36,7.346 37.346,6 39,6 C40.654,6 42,7.346 42,9 L42,9 Z M43.992,8.833 C44.061,7.55 43.659,6.411 42.833,5.54 C41.904,4.561 40.508,4 39,4 C37.581,4 36.215,4.58 35.251,5.592 C34.39,6.496 33.947,7.648 34.005,8.837 C34.121,11.234 37.104,15.242 38.933,17.405 C39.405,16.769 40.074,15.875 40.854,14.861 L41.35,14.2 C42.047,13.247 42.624,12.349 43.057,11.539 L43.354,10.95 C43.744,10.126 43.962,9.406 43.992,8.833 L43.992,8.833 Z M45.99,8.938 C45.945,9.785 45.671,10.73 45.151,11.828 L44.837,12.45 C44.834,12.457 44.83,12.464 44.826,12.471 C44.349,13.367 43.72,14.349 42.956,15.391 L42.446,16.07 C40.913,18.066 39.813,19.583 39.81,19.587 C39.633,19.83 39.356,19.981 39.058,19.999 C39.038,20 39.019,20 39,20 C38.721,20 38.453,19.883 38.263,19.676 C37.644,19 32.202,12.958 32.007,8.934 C31.923,7.193 32.561,5.517 33.803,4.212 C35.143,2.807 37.037,2 39,2 C41.054,2 42.979,2.789 44.283,4.163 C45.497,5.442 46.087,7.094 45.99,8.938 L45.99,8.938 Z M18,15 L20.854,15 C21.103,15.71 21.346,17.408 21.346,18 C21.346,18.552 21.793,19 22.346,19 L34,19 L34,17 L23.285,17 C23.155,15.614 22.755,13.252 21.524,13.018 C21.463,13.006 21.399,13 21.337,13 L18,13 L18,15 Z M42.592,19.592 C42.858,19.956 43,20.511 43,21.199 L43,44 L4,44 L4,21.199 C4,20.625 4.1,19.848 4.576,19.403 C4.911,19.09 5.416,18.955 6.154,19 L8.885,19 C9.438,19 9.885,18.552 9.885,18 C9.885,17.488 10.273,15.695 10.575,15 L12,15 L12,13 L10.158,13 C8.779,13 8.209,15.542 7.997,17.001 L6.222,17.002 C4.987,16.913 3.955,17.245 3.21,17.942 C2.658,18.458 2,19.442 2,21.199 L2,45 C2,45.552 2.447,46 3,46 L44,46 C44.553,46 45,45.552 45,45 L45,21.199 C45,20.066 44.731,19.127 44.203,18.408 L42.592,19.592 Z M33,37.5 C33,38.878 34.121,40 35.5,40 C36.879,40 38,38.878 38,37.5 C38,36.122 36.879,35 35.5,35 C34.121,35 33,36.122 33,37.5 L33,37.5 Z M35.5,33 C37.981,33 40,35.019 40,37.5 C40,39.981 37.981,42 35.5,42 C33.019,42 31,39.981 31,37.5 C31,35.019 33.019,33 35.5,33 L35.5,33 Z M21.374,36 L25.445,36 L23.452,32.355 L21.374,36 Z M18.788,37.502 C18.608,37.194 18.607,36.814 18.783,36.504 L22.602,29.809 C22.78,29.497 23.111,29.305 23.471,29.305 L23.479,29.305 C23.842,29.308 24.174,29.507 24.348,29.825 L28.009,36.52 C28.179,36.83 28.172,37.206 27.992,37.51 C27.812,37.814 27.485,38 27.132,38 L19.6519905,38 C19.296,38 18.967,37.811 18.788,37.502 L18.788,37.502 Z M10,40 L14,40 L14,36 L10,36 L10,40 Z M16,35 L16,41 C16,41.552 15.553,42 15,42 L9,42 C8.447,42 8,41.552 8,41 L8,35 C8,34.448 8.447,34 9,34 L15,34 C15.553,34 16,34.448 16,35 L16,35 Z M17.292,18.283 L14.999,20.597 L12.708,18.285 L11.288,19.693 L14.289,22.722 C14.477,22.911 14.732,23.018 14.999,23.018 C15.266,23.018 15.521,22.911 15.709,22.721 L18.712,19.69 L17.292,18.283 Z M15.001,6.443 L17.292,8.754 L18.712,7.346 L15.711,4.318 C15.336,3.939 14.666,3.939 14.291,4.318 L11.288,7.348 L12.708,8.756 L15.001,6.443 Z M14,17 L16,17 L16,10 L14,10 L14,17 Z" id="Fill-1" fill="#3F8624"></path>
    </g>
</svg>