<?xml version="1.0" encoding="UTF-8"?>
<svg width="48px" height="48px" viewBox="0 0 48 48" version="1.1" xmlns="http://www.w3.org/2000/svg" xmlns:xlink="http://www.w3.org/1999/xlink">
    <title>Icon-Resource/Storage/Res_AWS-Amazon-S3-Glacier_Archive_48_Light</title>
    <g id="Icon-Resource/Storage/Res_AWS-Amazon-S3-Glacier_Archive_48" stroke="none" stroke-width="1" fill="none" fill-rule="evenodd">
        <path d="M23.7007,25.3115 C25.2437,25.3115 26.4987,26.5665 26.4987,28.1095 C26.4987,29.6525 25.2437,30.9075 23.7007,30.9075 C22.1577,30.9075 20.9027,29.6525 20.9027,28.1095 C20.9027,26.5665 22.1577,25.3115 23.7007,25.3115 L23.7007,25.3115 Z M18.9027,28.1095 C18.9027,30.4225 20.5487,32.3585 22.7307,32.8085 L22.7307,39.8495 L24.7307,39.8495 L24.7307,32.7895 C26.8817,32.3155 28.4987,30.4005 28.4987,28.1095 C28.4987,27.5365 28.3807,26.9945 28.1947,26.4835 L34.7287,22.7085 L33.7287,20.9765 L27.1427,24.7815 C26.2697,23.8785 25.0527,23.3115 23.7007,23.3115 C22.3477,23.3115 21.1307,23.8775 20.2577,24.7815 L13.6727,20.9765 L12.6727,22.7085 L19.2057,26.4835 C19.0197,26.9935 18.9027,27.5365 18.9027,28.1095 L18.9027,28.1095 Z M31.9267,25.6205 C32.1727,26.4195 32.2977,27.2575 32.2977,28.1095 C32.2977,32.0315 29.6457,35.4535 25.8487,36.4305 L25.3507,34.4935 C28.2627,33.7445 30.2977,31.1185 30.2977,28.1095 C30.2977,27.4575 30.2027,26.8185 30.0137,26.2075 L31.9267,25.6205 Z M22.0517,34.4935 L21.5537,36.4305 C17.7567,35.4535 15.1047,32.0315 15.1047,28.1095 C15.1047,27.2555 15.2297,26.4175 15.4747,25.6205 L17.3877,26.2075 C17.1997,26.8155 17.1047,27.4555 17.1047,28.1095 C17.1047,31.1185 19.1387,33.7445 22.0517,34.4935 L22.0517,34.4935 Z M19.0977,23.3845 L17.6997,21.9555 C19.3097,20.3795 21.4417,19.5125 23.7007,19.5125 C25.9597,19.5125 28.0907,20.3795 29.7027,21.9555 L28.3047,23.3845 C27.0687,22.1775 25.4337,21.5125 23.7007,21.5125 C21.9677,21.5125 20.3327,22.1775 19.0977,23.3845 L19.0977,23.3845 Z M13.4377,3.9995 L33.9647,3.9995 L38.3977,9.8965 L9.0037,9.8965 L13.4377,3.9995 Z M7.0007,11.8965 L40.4007,11.8965 C40.7797,11.8965 41.1267,11.6825 41.2957,11.3425 C41.4657,11.0035 41.4287,10.5985 41.1997,10.2955 L35.2627,2.3995 C35.0737,2.1475 34.7777,1.9995 34.4637,1.9995 L12.9387,1.9995 C12.6247,1.9995 12.3287,2.1475 12.1397,2.3995 L6.2017,10.2955 C5.9727,10.5985 5.9357,11.0035 6.1057,11.3425 C6.2747,11.6825 6.6217,11.8965 7.0007,11.8965 L7.0007,11.8965 Z M8.0607,44.1135 L39.4007,44.1135 L39.4007,15.4055 L8.0607,15.4055 L8.0607,44.1135 Z M40.4007,13.4055 L7.0607,13.4055 C6.5087,13.4055 6.0607,13.8525 6.0607,14.4055 L6.0607,45.1135 C6.0607,45.6655 6.5087,46.1135 7.0607,46.1135 L40.4007,46.1135 C40.9537,46.1135 41.4007,45.6655 41.4007,45.1135 L41.4007,14.4055 C41.4007,13.8525 40.9537,13.4055 40.4007,13.4055 L40.4007,13.4055 Z" id="AWS-Amazon-S3-Glacier_Archive_Resource-Icon_dark-bg" fill="#3F8624"></path>
    </g>
</svg>