<?xml version="1.0" encoding="UTF-8"?>
<svg width="48px" height="48px" viewBox="0 0 48 48" version="1.1" xmlns="http://www.w3.org/2000/svg" xmlns:xlink="http://www.w3.org/1999/xlink">
    <title>Icon-Resource/Storage/Res_Amazon-Simple-Storage_Service-One-Zone-IA_48_Light</title>
    <g id="Icon-Resource/Storage/Res_Amazon-Simple-Storage_Service-One-Zone-IA_48" stroke="none" stroke-width="1" fill="none" fill-rule="evenodd">
        <path d="M39.625,36 C39.35,36 39.125,35.775 39.125,35.5 C39.125,35.225 39.35,35 39.625,35 C39.9,35 40.125,35.225 40.125,35.5 C40.125,35.775 39.9,36 39.625,36 M39.625,33 C38.246,33 37.125,34.121 37.125,35.5 C37.125,36.879 38.246,38 39.625,38 C41.004,38 42.125,36.879 42.125,35.5 C42.125,34.121 41.004,33 39.625,33 M39.455,43.192 C37.737,40.52 35.66,36.779 35.66,35.22 C35.66,32.962 37.362,31.125 39.455,31.125 C41.548,31.125 43.25,32.962 43.25,35.22 C43.25,36.779 41.173,40.52 39.455,43.192 M39.455,29.125 C36.26,29.125 33.66,31.859 33.66,35.22 C33.66,38.257 38.122,44.828 38.631,45.567 C38.818,45.838 39.126,46 39.455,46 C39.784,46 40.092,45.838 40.279,45.567 C40.788,44.828 45.25,38.257 45.25,35.22 C45.25,31.859 42.65,29.125 39.455,29.125 M22.869,4 C33.273,4 40.604,7.223 40.739,9.012 L40.714,9.208 C40.691,9.292 40.643,9.379 40.592,9.466 C40.574,9.495 40.565,9.523 40.545,9.553 C40.485,9.638 40.402,9.724 40.316,9.812 C40.285,9.843 40.264,9.874 40.229,9.905 C40.134,9.993 40.016,10.081 39.896,10.169 C39.853,10.2 39.816,10.232 39.77,10.265 C39.639,10.354 39.484,10.444 39.328,10.534 C39.275,10.565 39.229,10.596 39.174,10.626 C39,10.72 38.806,10.813 38.605,10.906 C38.551,10.933 38.503,10.958 38.445,10.983 C38.221,11.085 37.973,11.185 37.717,11.284 C37.674,11.3 37.637,11.317 37.592,11.334 C37.297,11.445 36.982,11.555 36.65,11.661 C36.639,11.665 36.629,11.669 36.617,11.673 C33.477,12.677 28.707,13.462 22.874,13.462 C14.447,13.462 8.235,11.821 5.952,10.251 C5.779,10.132 5.631,10.014 5.504,9.896 C5.487,9.881 5.477,9.866 5.461,9.851 C5.355,9.749 5.264,9.647 5.194,9.549 C5.176,9.521 5.167,9.494 5.15,9.467 C5.098,9.38 5.051,9.294 5.027,9.21 L5.002,9.013 C5.138,7.224 12.467,4 22.869,4 M43.158,26.423 C42.868,26.479 42.127,26.508 40.458,26.101 L40.678,24.466 C42.419,25.522 42.985,26.147 43.158,26.423 M34.393,42.286 C33.688,42.568 32.804,42.836 31.769,43.08 C29.172,43.673 26.014,44 22.874,44 C14.415,44 9.278,41.832 9.278,40.879 C9.278,40.834 9.275,40.79 9.27,40.746 L5.441,12.271 C5.671,12.404 5.916,12.534 6.172,12.659 C6.331,12.736 6.502,12.81 6.67,12.884 C6.814,12.948 6.957,13.011 7.107,13.071 C7.297,13.149 7.491,13.225 7.691,13.298 C7.826,13.348 7.966,13.396 8.105,13.442 C8.865,13.705 9.688,13.941 10.564,14.153 C10.677,14.181 10.789,14.208 10.904,14.233 C11.197,14.302 11.494,14.366 11.797,14.429 C11.873,14.444 11.951,14.459 12.029,14.475 C13.055,14.679 14.13,14.851 15.241,14.991 C15.307,15 15.371,15.009 15.436,15.017 C17.002,15.21 18.625,15.34 20.262,15.407 L20.408,15.413 C21.229,15.445 22.052,15.467 22.869,15.467 C23.677,15.467 24.488,15.445 25.299,15.415 C25.375,15.411 25.451,15.408 25.528,15.405 C26.7,15.356 27.864,15.274 29.007,15.161 C29.077,15.153 29.148,15.147 29.219,15.141 C29.557,15.105 29.89,15.067 30.223,15.026 C30.354,15.011 30.486,14.993 30.617,14.977 C30.941,14.935 31.263,14.893 31.58,14.845 C31.623,14.839 31.664,14.831 31.707,14.825 C32.326,14.731 32.93,14.626 33.52,14.513 C33.686,14.479 33.853,14.448 34.016,14.415 C34.267,14.362 34.513,14.309 34.756,14.253 C34.943,14.21 35.125,14.166 35.307,14.122 C35.531,14.066 35.757,14.013 35.975,13.954 C36.326,13.859 36.67,13.761 37.001,13.657 C37.177,13.603 37.342,13.544 37.511,13.487 C37.712,13.419 37.911,13.351 38.104,13.279 C38.268,13.218 38.428,13.156 38.584,13.093 C38.782,13.013 38.972,12.931 39.158,12.847 C39.287,12.788 39.42,12.732 39.543,12.673 C39.809,12.544 40.062,12.411 40.298,12.273 L38.514,25.551 C33.955,24.118 27.88,21.353 25.119,20.054 C25.12,20.036 25.125,20.019 25.125,20 C25.125,18.897 24.228,18 23.125,18 C22.022,18 21.125,18.897 21.125,20 C21.125,21.103 22.022,22 23.125,22 C23.461,22 23.772,21.909 24.051,21.762 C27.184,23.242 33.503,26.115 38.244,27.561 L38.21,27.812 L40.066,28.063 C41.14,28.321 42.021,28.455 42.731,28.455 C43.722,28.455 44.389,28.203 44.814,27.697 C45.164,27.28 45.302,26.757 45.202,26.221 C44.986,25.069 43.662,23.854 40.967,22.318 L42.668,9.65 C42.673,9.628 42.679,9.604 42.682,9.581 L42.732,9.192 C42.738,9.149 42.741,9.105 42.741,9.063 C42.741,4.9 32.269,2 22.869,2 C13.472,2 3,4.9 3,9.063 C3,9.105 3.003,9.149 3.009,9.192 L3.06,9.581 C3.061,9.593 3.064,9.604 3.066,9.616 L7.279,40.956 C7.41,44.629 16.886,46 22.874,46 C26.159,46 29.477,45.655 32.221,45.028 C33.359,44.76 34.341,44.462 35.127,44.147 C35.419,44.033 35.693,43.911 35.938,43.798 L35.097,41.983 C34.887,42.081 34.653,42.186 34.393,42.286" id="Amazon-Simple-Storage_Service-One-Zone-IA_Resource-Icon_light-bg" fill="#3F8624"></path>
    </g>
</svg>