<?xml version="1.0" encoding="UTF-8"?>
<svg width="48px" height="48px" viewBox="0 0 48 48" version="1.1" xmlns="http://www.w3.org/2000/svg" xmlns:xlink="http://www.w3.org/1999/xlink">
    <title>Icon-Resource/Storage/Res_Amazon-Simple-Storage-Service_S3-Glacier-Flexible-Retrieval_48_Light</title>
    <g id="Icon-Resource/Storage/Res_Amazon-Simple-Storage-Service_S3-Glacier-Flexible-Retrieval_48" stroke="none" stroke-width="1" fill="none" fill-rule="evenodd">
        <path d="M43.165,38.0811 L44.861,39.7781 L43.447,41.1921 L41.256,39.0001 L38.084,39.0001 L39.722,41.8411 L42.616,42.6541 L42.075,44.5801 L39.807,43.9411 L39.185,46.2591 L37.253,45.7411 L38.019,42.8901 L36.411,40.1021 L34.829,42.8371 L35.571,45.7531 L33.634,46.2471 L33.052,43.9621 L30.733,44.5831 L30.216,42.6511 L33.067,41.8881 L34.738,39.0001 L31.621,39.0001 L29.364,41.2011 L27.968,39.7691 L29.656,38.1231 L27.959,36.4271 L29.373,35.0131 L31.361,37.0001 L34.62,37.0001 L33.095,34.3631 L30.204,33.5501 L30.745,31.6241 L33.015,32.2631 L33.637,29.9451 L35.568,30.4631 L34.802,33.3211 L36.411,36.1031 L37.991,33.3621 L37.25,30.4511 L39.187,29.9571 L39.769,32.2421 L42.087,31.6211 L42.604,33.5531 L39.747,34.3191 L38.202,37.0001 L41.409,37.0001 L43.456,35.0041 L44.852,36.4351 L43.165,38.0811 Z M22.869,4.0001 C33.272,4.0001 40.602,7.2241 40.739,9.0131 L40.714,9.2101 C40.691,9.2911 40.644,9.3761 40.595,9.4601 C40.576,9.4911 40.566,9.5221 40.544,9.5551 C40.487,9.6361 40.407,9.7181 40.327,9.8001 C40.292,9.8361 40.267,9.8721 40.226,9.9091 C40.139,9.9891 40.028,10.0691 39.921,10.1501 C39.867,10.1901 39.823,10.2291 39.765,10.2691 C39.647,10.3491 39.509,10.4291 39.37,10.5091 C39.302,10.5501 39.241,10.5901 39.167,10.6301 C39.017,10.7121 38.844,10.7931 38.673,10.8741 C38.593,10.9121 38.521,10.9501 38.436,10.9881 C38.245,11.0731 38.034,11.1571 37.821,11.2411 C37.739,11.2741 37.665,11.3081 37.579,11.3391 C37.335,11.4311 37.071,11.5201 36.802,11.6091 C36.733,11.6321 36.671,11.6551 36.601,11.6791 C36.286,11.7781 35.951,11.8761 35.604,11.9721 C35.569,11.9811 35.54,11.9911 35.505,12.0011 C32.398,12.8431 28.056,13.4631 22.874,13.4631 C14.452,13.4631 8.243,11.8231 5.956,10.2541 C5.946,10.2471 5.939,10.2401 5.93,10.2331 C5.769,10.1211 5.626,10.0101 5.507,9.8991 C5.484,9.8791 5.47,9.8581 5.45,9.8391 C5.351,9.7421 5.262,9.6451 5.195,9.5511 C5.175,9.5201 5.165,9.4911 5.147,9.4611 C5.097,9.3771 5.051,9.2931 5.027,9.2111 L5.002,9.0131 C5.139,7.2241 12.468,4.0001 22.869,4.0001 L22.869,4.0001 Z M43.157,26.4231 C42.865,26.4781 42.126,26.5091 40.458,26.1011 L40.677,24.4661 C42.417,25.5221 42.984,26.1471 43.157,26.4231 L43.157,26.4231 Z M23.117,19.9991 L24.117,20.0001 L23.118,20.0011 C23.117,20.0011 23.117,20.0001 23.117,19.9991 L23.117,19.9991 Z M22.874,44.0001 C14.415,44.0001 9.278,41.8321 9.278,40.8791 C9.278,40.8341 9.275,40.7901 9.269,40.7461 L5.441,12.2711 C5.674,12.4071 5.921,12.5371 6.181,12.6641 C6.326,12.7351 6.483,12.8021 6.636,12.8701 C6.796,12.9401 6.958,13.0121 7.126,13.0801 C7.304,13.1511 7.484,13.2221 7.67,13.2911 C7.827,13.3491 7.991,13.4051 8.155,13.4611 C8.573,13.6031 9.009,13.7391 9.464,13.8661 C9.557,13.8931 9.645,13.9211 9.739,13.9461 C9.987,14.0131 10.244,14.0751 10.502,14.1381 C10.648,14.1741 10.795,14.2101 10.944,14.2441 C11.212,14.3061 11.482,14.3641 11.759,14.4211 C11.884,14.4471 12.011,14.4711 12.137,14.4951 C13.103,14.6851 14.111,14.8471 15.153,14.9801 C15.27,14.9951 15.387,15.0111 15.505,15.0251 C15.844,15.0661 16.185,15.1051 16.528,15.1421 C16.599,15.1481 16.669,15.1541 16.739,15.1611 C17.864,15.2731 19.009,15.3531 20.161,15.4031 C20.274,15.4081 20.388,15.4131 20.501,15.4171 C20.862,15.4311 21.222,15.4421 21.583,15.4491 C21.632,15.4501 21.679,15.4501 21.728,15.4511 C22.108,15.4581 22.489,15.4671 22.869,15.4671 C23.234,15.4671 23.602,15.4581 23.969,15.4521 C24.038,15.4501 24.106,15.4501 24.177,15.4491 C24.52,15.4421 24.863,15.4311 25.208,15.4181 C25.349,15.4131 25.489,15.4071 25.63,15.4011 C25.968,15.3861 26.304,15.3701 26.64,15.3511 L26.897,15.3331 C27.542,15.2921 28.181,15.2401 28.814,15.1791 C28.968,15.1651 29.12,15.1511 29.272,15.1361 C29.568,15.1041 29.861,15.0701 30.153,15.0351 C30.339,15.0131 30.522,14.9891 30.706,14.9661 C30.987,14.9291 31.267,14.8921 31.542,14.8521 C31.747,14.8211 31.946,14.7871 32.147,14.7551 C32.577,14.6861 32.998,14.6121 33.412,14.5331 C33.628,14.4921 33.843,14.4511 34.054,14.4071 C34.278,14.3601 34.498,14.3121 34.717,14.2631 C34.937,14.2131 35.153,14.1601 35.368,14.1071 C35.564,14.0591 35.763,14.0111 35.954,13.9601 C36.319,13.8621 36.675,13.7601 37.019,13.6521 C37.172,13.6041 37.315,13.5531 37.465,13.5031 C37.689,13.4281 37.91,13.3521 38.123,13.2721 C38.274,13.2161 38.423,13.1581 38.567,13.1011 C38.782,13.0141 38.987,12.9251 39.188,12.8341 C39.305,12.7811 39.425,12.7301 39.536,12.6771 C39.804,12.5471 40.06,12.4131 40.298,12.2741 L38.513,25.5511 C33.953,24.1181 27.87,21.3471 25.112,20.0511 C25.112,20.0331 25.117,20.0181 25.117,20.0001 C25.117,18.8971 24.22,18.0001 23.117,18.0001 C22.015,18.0001 21.117,18.8971 21.117,20.0001 C21.117,21.1021 22.015,22.0001 23.117,22.0001 C23.454,22.0001 23.768,21.9081 24.047,21.7601 C27.18,23.2401 33.504,26.1161 38.243,27.5601 L38.157,28.1981 L40.14,28.4661 L40.189,28.0951 C41.209,28.3341 42.048,28.4551 42.731,28.4551 C43.722,28.4551 44.389,28.2031 44.814,27.6961 C45.164,27.2801 45.302,26.7571 45.201,26.2221 C44.986,25.0711 43.661,23.8541 40.966,22.3191 L42.669,9.6481 C42.673,9.6261 42.679,9.6031 42.682,9.5811 L42.732,9.1931 C42.738,9.1501 42.741,9.1061 42.741,9.0631 C42.741,4.9001 32.269,2.0001 22.869,2.0001 C13.472,2.0001 3,4.9001 3,9.0631 C3,9.1061 3.003,9.1501 3.009,9.1931 L3.06,9.5811 L3.065,9.6131 L7.279,40.9561 C7.41,44.6291 16.886,46.0001 22.874,46.0001 C24.904,46.0001 26.942,45.8711 28.933,45.6161 L28.679,43.6321 C26.772,43.8761 24.819,44.0001 22.874,44.0001 L22.874,44.0001 Z" id="Amazon-Simple-Storage-Service_Glacier-Flexible-Retrieval_Resource-Icon" fill="#3F8624"></path>
    </g>
</svg>