<?xml version="1.0" encoding="UTF-8"?>
<svg width="48px" height="48px" viewBox="0 0 48 48" version="1.1" xmlns="http://www.w3.org/2000/svg" xmlns:xlink="http://www.w3.org/1999/xlink">
    <title>Icon-Resource/Storage/Res_AWS-Snowball_Snowball-Import-Export_48_Light</title>
    <g id="Icon-Resource/Storage/Res_AWS-Snowball_Snowball-Import-Export_48" stroke="none" stroke-width="1" fill="none" fill-rule="evenodd">
        <path d="M2.1262,26.4736 L22.4362,26.4736 L18.9202,30.0096 L20.3382,31.4196 L25.5502,26.1786 C25.9382,25.7886 25.9382,25.1586 25.5502,24.7686 L20.3382,19.5266 L18.9202,20.9366 L22.4372,24.4736 L2.1262,24.4736 L2.1262,26.4736 Z M45.6092,24.7686 L40.3972,19.5266 L38.9802,20.9366 L42.4962,24.4736 L27.4622,24.4736 L27.4622,26.4736 L42.4952,26.4736 L38.9802,30.0096 L40.3972,31.4196 L45.6092,26.1786 C45.9972,25.7886 45.9972,25.1586 45.6092,24.7686 L45.6092,24.7686 Z M20.4732,12.4946 L27.4622,12.4946 L27.4622,10.4946 L20.4732,10.4946 L20.4732,12.4946 Z M37.1982,30.7146 L37.1982,28.0946 L35.1982,28.0946 L35.1982,29.7146 L23.9682,29.7146 L23.9682,31.7146 L36.1982,31.7146 C36.7512,31.7146 37.1982,31.2676 37.1982,30.7146 L37.1982,30.7146 Z M11.6102,28.0946 L11.6102,30.7146 C11.6102,31.2676 12.0582,31.7146 12.6102,31.7146 L17.8522,31.7146 L17.8522,29.7146 L13.6102,29.7146 L13.6102,28.0946 L11.6102,28.0946 Z M11.6102,19.3576 L11.6102,22.8526 L13.6102,22.8526 L13.6102,20.3576 L17.8522,20.3576 L17.8522,18.3576 L12.6102,18.3576 C12.0582,18.3576 11.6102,18.8046 11.6102,19.3576 L11.6102,19.3576 Z M37.1982,22.8526 L37.1982,19.3576 C37.1982,18.8046 36.7512,18.3576 36.1982,18.3576 L23.9682,18.3576 L23.9682,20.3576 L35.1982,20.3576 L35.1982,22.8526 L37.1982,22.8526 Z M41.1082,6.9996 L6.8262,6.9996 C4.1652,6.9996 2.0002,9.2286 2.0002,11.9666 L2.0002,22.8526 L4.0002,22.8526 L4.0002,11.9666 C4.0002,10.3306 5.2682,8.9996 6.8262,8.9996 L41.1082,8.9996 C42.6672,8.9996 43.9362,10.3306 43.9362,11.9666 L43.9362,21.7866 L45.9362,21.7866 L45.9362,11.9666 C45.9362,9.2286 43.7712,6.9996 41.1082,6.9996 L41.1082,6.9996 Z M43.9362,36.3596 C43.9362,37.9946 42.6672,39.3256 41.1082,39.3256 L6.8262,39.3256 C5.2682,39.3256 4.0002,37.9946 4.0002,36.3596 L4.0002,28.0946 L2.0002,28.0946 L2.0002,36.3596 C2.0002,39.0976 4.1652,41.3256 6.8262,41.3256 L41.1082,41.3256 C43.7712,41.3256 45.9362,39.0976 45.9362,36.3596 L45.9362,29.1606 L43.9362,29.1606 L43.9362,36.3596 Z M5.4942,28.0946 L5.4942,34.9256 C5.4942,36.5276 6.7942,37.8306 8.3912,37.8306 L39.5452,37.8306 C41.1422,37.8306 42.4402,36.5276 42.4402,34.9256 L42.4402,32.4626 L40.4402,32.4626 L40.4402,34.9256 C40.4402,35.4156 40.0302,35.8306 39.5452,35.8306 L8.3912,35.8306 C7.9042,35.8306 7.4942,35.4156 7.4942,34.9256 L7.4942,28.0946 L5.4942,28.0946 Z M18.8902,13.9896 L29.0452,13.9896 L30.0112,11.1706 C30.1492,10.7666 30.5292,10.4946 30.9572,10.4946 L39.5452,10.4946 C41.1422,10.4946 42.4402,11.7976 42.4402,13.3996 L42.4402,18.4846 L40.4402,18.4846 L40.4402,13.3996 C40.4402,12.9096 40.0302,12.4946 39.5452,12.4946 L31.6722,12.4946 L30.7062,15.3136 C30.5672,15.7176 30.1882,15.9896 29.7602,15.9896 L18.1752,15.9896 C17.7472,15.9896 17.3672,15.7176 17.2292,15.3136 L16.2642,12.4946 L8.3912,12.4946 C7.9042,12.4946 7.4942,12.9096 7.4942,13.3996 L7.4942,22.8526 L5.4942,22.8526 L5.4942,13.3996 C5.4942,11.7976 6.7942,10.4946 8.3912,10.4946 L16.9792,10.4946 C17.4062,10.4946 17.7862,10.7666 17.9252,11.1706 L18.8902,13.9896 Z" id="AWS-Snowball_Snowball-import-export_Resource-Icon_light-bg" fill="#3F8624"></path>
    </g>
</svg>