<?xml version="1.0" encoding="UTF-8"?>
<svg width="48px" height="48px" viewBox="0 0 48 48" version="1.1" xmlns="http://www.w3.org/2000/svg" xmlns:xlink="http://www.w3.org/1999/xlink">
    <title>Icon-Resource/Storage/Res_AWS-Storage-Gateway_Volume-Gateway_48_Light</title>
    <g id="Icon-Resource/Storage/Res_AWS-Storage-Gateway_Volume-Gateway_48" stroke="none" stroke-width="1" fill="none" fill-rule="evenodd">
        <path d="M20.523,4 C14.936,4 11.487,5.618 8,7.632 L8,44.923 L6,44.923 L6,7.057 C6,6.701 6.188,6.373 6.494,6.193 C10.267,3.983 14.178,2 20.523,2 C26.418,2 30.734,4.225 34.203,6.013 L34.504,6.167 C34.837,6.339 35.046,6.682 35.046,7.057 L35.046,15.605 L33.046,15.605 L33.046,7.666 C29.658,5.921 25.807,4 20.523,4 L20.523,4 Z M30.951,24.485 C24.544,24.485 21.239,22.713 21.239,21.957 C21.239,21.201 24.544,19.43 30.951,19.43 C37.358,19.43 40.663,21.201 40.663,21.957 C40.663,22.713 37.358,24.485 30.951,24.485 L30.951,24.485 Z M40.663,25.417 C40.663,26.173 37.358,27.944 30.951,27.944 C24.544,27.944 21.239,26.173 21.239,25.417 L21.239,24.64 C23.49,25.896 27.31,26.485 30.951,26.485 C34.591,26.485 38.412,25.896 40.663,24.64 L40.663,25.417 Z M40.663,37.727 C40.663,38.482 37.358,40.254 30.951,40.254 C24.544,40.254 21.239,38.482 21.239,37.727 L21.239,28.1 C23.49,29.354 27.31,29.944 30.951,29.944 C34.591,29.944 38.412,29.354 40.663,28.1 L40.663,37.727 Z M40.663,41.396 C40.663,42.151 37.358,43.923 30.951,43.923 C24.544,43.923 21.239,42.151 21.239,41.396 L21.239,40.409 C23.49,41.664 27.31,42.254 30.951,42.254 C34.591,42.254 38.412,41.664 40.663,40.409 L40.663,41.396 Z M30.951,17.43 C25.31,17.43 19.239,18.847 19.239,21.957 L19.239,41.396 C19.239,44.506 25.31,45.923 30.951,45.923 C36.591,45.923 42.663,44.506 42.663,41.396 L42.663,21.957 C42.663,18.847 36.591,17.43 30.951,17.43 L30.951,17.43 Z" id="AWS-Storage-Gateway_Volume-Gateway_Resource-Icon_light-bg" fill="#3F8624"></path>
    </g>
</svg>