<?xml version="1.0" encoding="UTF-8"?>
<svg width="48px" height="48px" viewBox="0 0 48 48" version="1.1" xmlns="http://www.w3.org/2000/svg" xmlns:xlink="http://www.w3.org/1999/xlink">
    <title>Icon-Resource/Migration-and-Transfer/Res_AWS-Mainframe-Modernization_Developer_48_Light</title>
    <g id="Icon-Resource/Migration-and-Transfer/Res_AWS-Mainframe-Modernization_Developer_48" stroke="none" stroke-width="1" fill="none" fill-rule="evenodd">
        <path d="M13.03,8 L15.03,8 L15.03,6 L13.03,6 L13.03,8 Z M10.03,8 L12.03,8 L12.03,6 L10.03,6 L10.03,8 Z M7.03,8 L9.03,8 L9.03,6 L7.03,6 L7.03,8 Z M33.318,19.466 C33.709,19.856 33.709,20.489 33.318,20.88 L29.437,24.762 L28.022,23.348 L31.197,20.173 L28.022,16.998 L29.437,15.583 L33.318,19.466 Z M18.256,16.998 L15.081,20.173 L18.256,23.348 L16.842,24.762 L12.96,20.88 C12.569,20.489 12.569,19.856 12.96,19.466 L16.842,15.583 L18.256,16.998 Z M24.192,14.529 L26.05,15.272 L21.833,25.816 L19.976,25.073 L24.192,14.529 Z M33.671,43 L14.37,43 L5.561,36.119 L12.012,29.999 L35.988,29.996 L42.478,36.121 L33.671,43 Z M5.045,11 L42.03,11 L42.03,28 L5.03,28.004 L5.045,11 Z M42.03,5 L42.03,9 L5.03,9 L5.034,5 L42.03,5 Z M38.902,30 L42.27,30 C43.24,30 44.03,29.236 44.03,28.298 L44.03,4.701 C44.03,3.763 43.24,3 42.27,3 L4.791,3 C3.82,3 3.03,3.763 3.03,4.699 L3.01,28.296 C3.008,29.23 3.792,29.994 4.766,30 L9.105,30 L2.5,36.265 L13.681,45 L34.362,45 L45.542,36.266 L38.902,30 Z" id="Fill-1" fill="#067F68"></path>
    </g>
</svg>