<?xml version="1.0" encoding="UTF-8"?>
<svg width="48px" height="48px" viewBox="0 0 48 48" version="1.1" xmlns="http://www.w3.org/2000/svg" xmlns:xlink="http://www.w3.org/1999/xlink">
    <title>Icon-Resource/Migration-and-Transfer/Res_AWS-Mainframe-Modernization_Analyzer_48_Light</title>
    <g id="Icon-Resource/Migration-and-Transfer/Res_AWS-Mainframe-Modernization_Analyzer_48" stroke="none" stroke-width="1" fill="none" fill-rule="evenodd">
        <path d="M30.007,10 L41.007,10 L41.007,8 L30.007,8 L30.007,10 Z M16.007,10 L23.007,10 L23.007,8 L16.007,8 L16.007,10 Z M31.007,16 L46.007,16 L46.007,14 L31.007,14 L31.007,16 Z M12.007,11 C12.007,14.86 15.148,18 19.007,18 C22.866,18 26.007,14.86 26.007,11 C26.007,7.14 22.866,4 19.007,4 C15.148,4 12.007,7.14 12.007,11 L12.007,11 Z M12.776,17.479 L3.714,26.541 L2.3,25.126 L11.49,15.936 C10.555,14.518 10.007,12.822 10.007,11 C10.007,6.038 14.044,2 19.007,2 C23.97,2 28.007,6.038 28.007,11 C28.007,15.962 23.97,20 19.007,20 C16.589,20 14.394,19.036 12.776,17.479 L12.776,17.479 Z M14.007,40 L37.007,40 L37.007,38 L14.007,38 L14.007,40 Z M8.007,34 L28.007,34 L28.007,32 L8.007,32 L8.007,34 Z M14.007,28 L37.007,28 L37.007,26 L14.007,26 L14.007,28 Z M27.007,22 L46.007,22 L46.007,20 L27.007,20 L27.007,22 Z M37.774,31.463 L45.501,37.5 L34.62,46 L14.73,46 L3.85,37.5 L7.219,34.867 L8.451,36.443 L7.098,37.5 L15.419,44 L33.931,44 L42.253,37.5 L36.543,33.04 L37.774,31.463 Z" id="Fill-1" fill="#067F68"></path>
    </g>
</svg>