<?xml version="1.0" encoding="UTF-8"?>
<svg width="48px" height="48px" viewBox="0 0 48 48" version="1.1" xmlns="http://www.w3.org/2000/svg" xmlns:xlink="http://www.w3.org/1999/xlink">
    <title>Icon-Resource/Migration-and-Transfer/Res_Icon-AWS-Migration-Hub_Refactor-Spaces-Applications_48_Light</title>
    <g id="Icon-Resource/Migration-and-Transfer/Res_Icon-AWS-Migration-Hub_Refactor-Spaces-Applications_48" stroke="none" stroke-width="1" fill="none" fill-rule="evenodd">
        <path d="M31,34 C31,37.86 27.859,41 24,41 C20.141,41 17,37.86 17,34 C17,31.215 18.639,28.811 21,27.685 L21,30.026 C19.793,30.939 19,32.373 19,34 C19,36.757 21.243,39 24,39 C26.757,39 29,36.757 29,34 C29,32.373 28.207,30.939 27,30.026 L27,27.685 C29.361,28.811 31,31.215 31,34 L31,34 Z M12,24 C13.654,24 15,25.346 15,27 C15,28.654 13.654,30 12,30 C10.346,30 9,28.654 9,27 C9,25.346 10.346,24 12,24 L12,24 Z M18,21 L30,21 L30,9 L18,9 L18,21 Z M36,24 C37.654,24 39,25.346 39,27 C39,28.654 37.654,30 36,30 C34.346,30 33,28.654 33,27 C33,25.346 34.346,24 36,24 L36,24 Z M12,32 C14.44,32 16.471,30.24 16.907,27.924 C19.458,27.535 21.481,25.538 21.91,23 L23,23 L23,32 L25,32 L25,23 L26.09,23 C26.519,25.538 28.542,27.535 31.093,27.924 C31.529,30.24 33.56,32 36,32 C38.757,32 41,29.757 41,27 C41,24.243 38.757,22 36,22 C33.623,22 31.635,23.672 31.131,25.899 C29.669,25.573 28.517,24.443 28.142,23 L31,23 C31.553,23 32,22.552 32,22 L32,8 C32,7.448 31.553,7 31,7 L17,7 C16.447,7 16,7.448 16,8 L16,22 C16,22.552 16.447,23 17,23 L19.858,23 C19.483,24.443 18.331,25.573 16.869,25.899 C16.365,23.672 14.377,22 12,22 C9.243,22 7,24.243 7,27 C7,29.757 9.243,32 12,32 L12,32 Z M24.707,15.043 L28.207,18.543 L26.793,19.957 L24,17.164 L21.207,19.957 L19.793,18.543 L23.293,15.043 C23.684,14.652 24.316,14.652 24.707,15.043 L24.707,15.043 Z M24.707,10.543 L28.207,14.043 L26.793,15.457 L24,12.664 L21.207,15.457 L19.793,14.043 L23.293,10.543 C23.684,10.152 24.316,10.152 24.707,10.543 L24.707,10.543 Z M4,44 L44,44 L44,4 L4,4 L4,44 Z M45,2 L3,2 C2.447,2 2,2.448 2,3 L2,45 C2,45.552 2.447,46 3,46 L45,46 C45.553,46 46,45.552 46,45 L46,3 C46,2.448 45.553,2 45,2 L45,2 Z" id="Fill-1" fill="#067F68"></path>
    </g>
</svg>