<?xml version="1.0" encoding="UTF-8"?>
<svg width="48px" height="48px" viewBox="0 0 48 48" version="1.1" xmlns="http://www.w3.org/2000/svg" xmlns:xlink="http://www.w3.org/1999/xlink">
    <title>Icon-Resource/Migration-and-Transfer/Res_Icon-AWS-Migration-Hub_Refactor-Spaces-Environments_48_Light</title>
    <g id="Icon-Resource/Migration-and-Transfer/Res_Icon-AWS-Migration-Hub_Refactor-Spaces-Environments_48" stroke="none" stroke-width="1" fill="none" fill-rule="evenodd">
        <path d="M31.707,26.293 L35.707,30.293 L34.293,31.707 L31,28.414 L27.707,31.707 L26.293,30.293 L30.293,26.293 C30.684,25.902 31.316,25.902 31.707,26.293 L31.707,26.293 Z M31.707,31.293 L35.707,35.293 L34.293,36.707 L31,33.414 L27.707,36.707 L26.293,35.293 L30.293,31.293 C30.684,30.902 31.316,30.902 31.707,31.293 L31.707,31.293 Z M23,39 L39,39 L39,23 L23,23 L23,39 Z M21,22 L21,40 C21,40.552 21.447,41 22,41 L40,41 C40.553,41 41,40.552 41,40 L41,22 C41,21.448 40.553,21 40,21 L22,21 C21.447,21 21,21.448 21,22 L21,22 Z M7,26 L7,8 C7,7.448 7.447,7 8,7 L26,7 C26.553,7 27,7.448 27,8 L27,19 L25,19 L25,9 L9,9 L9,25 L19,25 L19,27 L8,27 C7.447,27 7,26.552 7,26 L7,26 Z M17,14.414 L13.707,17.707 L12.293,16.293 L16.293,12.293 C16.684,11.902 17.316,11.902 17.707,12.293 L21.707,16.293 L20.293,17.707 L17,14.414 Z M12.293,21.293 L16.293,17.293 C16.684,16.902 17.316,16.902 17.707,17.293 L20.326,19.912 L18.912,21.326 L17,19.414 L13.707,22.707 L12.293,21.293 Z M4,44 L44,44 L44,4 L4,4 L4,44 Z M45,2 L3,2 C2.447,2 2,2.448 2,3 L2,45 C2,45.552 2.447,46 3,46 L45,46 C45.553,46 46,45.552 46,45 L46,3 C46,2.448 45.553,2 45,2 L45,2 Z" id="Fill-1" fill="#067F68"></path>
    </g>
</svg>