<?xml version="1.0" encoding="UTF-8"?>
<svg width="48px" height="48px" viewBox="0 0 48 48" version="1.1" xmlns="http://www.w3.org/2000/svg" xmlns:xlink="http://www.w3.org/1999/xlink">
    <title>Icon-Resource/Migration-and-Transfer/Res_Icon-AWS-Migration-Hub_Refactor-Spaces-Services_48_Light</title>
    <g id="Icon-Resource/Migration-and-Transfer/Res_Icon-AWS-Migration-Hub_Refactor-Spaces-Services_48" stroke="none" stroke-width="1" fill="none" fill-rule="evenodd">
        <path d="M15,24 C15,28.962 19.037,33 24,33 C28.963,33 33,28.962 33,24 C33,19.038 28.963,15 24,15 C19.037,15 15,19.038 15,24 L15,24 Z M16.966,32.448 L3.707,45.707 L2.293,44.293 L15.552,31.034 C13.961,29.125 13,26.673 13,24 C13,17.935 17.935,13 24,13 C30.065,13 35,17.935 35,24 C35,30.065 30.065,35 24,35 C21.327,35 18.875,34.039 16.966,32.448 L16.966,32.448 Z M24,20.664 L27.793,24.457 L29.207,23.043 L24.707,18.543 C24.316,18.152 23.684,18.152 23.293,18.543 L18.793,23.043 L20.207,24.457 L24,20.664 Z M24,25.664 L27.793,29.457 L29.207,28.043 L24.707,23.543 C24.316,23.152 23.684,23.152 23.293,23.543 L18.793,28.043 L20.207,29.457 L24,25.664 Z M46,20.5 L46,27.5 C46,28.534 45.159,29.375 44.125,29.375 L41.246,29.375 C40.923,30.414 40.503,31.424 39.993,32.392 L42.031,34.43 C42.386,34.784 42.581,35.255 42.581,35.756 C42.581,36.256 42.386,36.728 42.031,37.082 L37.081,42.031 C36.373,42.739 35.14,42.741 34.43,42.031 L32.392,39.993 C31.422,40.503 30.412,40.923 29.375,41.246 L29.375,44.125 C29.375,45.159 28.534,46 27.5,46 L20.5,46 C19.466,46 18.625,45.159 18.625,44.125 L18.625,41.246 C17.588,40.923 16.578,40.503 15.608,39.993 L13.57,42.031 C12.861,42.741 11.628,42.739 10.919,42.031 L10.59,41.703 L12.004,40.288 L12.244,40.529 L14.727,38.047 C15.048,37.725 15.544,37.662 15.937,37.89 C17.181,38.613 18.508,39.164 19.881,39.527 C20.319,39.643 20.625,40.04 20.625,40.494 L20.625,44 L27.375,44 L27.375,40.494 C27.375,40.04 27.681,39.643 28.119,39.527 C29.492,39.164 30.819,38.613 32.063,37.89 C32.456,37.662 32.952,37.725 33.273,38.047 L35.756,40.529 L40.529,35.756 L38.047,33.273 C37.726,32.953 37.661,32.456 37.89,32.063 C38.612,30.822 39.163,29.495 39.527,28.119 C39.644,27.681 40.04,27.375 40.494,27.375 L44,27.375 L44,20.625 L40.494,20.625 C40.04,20.625 39.644,20.319 39.527,19.881 C39.163,18.505 38.612,17.178 37.89,15.937 C37.661,15.544 37.726,15.047 38.047,14.727 L40.529,12.245 L35.756,7.471 L33.273,9.953 C32.952,10.275 32.456,10.338 32.063,10.11 C30.819,9.387 29.492,8.836 28.119,8.473 C27.681,8.357 27.375,7.96 27.375,7.506 L27.375,4 L20.625,4 L20.625,7.506 C20.625,7.96 20.319,8.357 19.881,8.473 C18.508,8.836 17.181,9.387 15.937,10.11 C15.544,10.338 15.048,10.275 14.727,9.953 L12.244,7.471 L7.471,12.244 L9.953,14.727 C10.274,15.047 10.339,15.544 10.11,15.937 C9.388,17.178 8.837,18.505 8.473,19.881 C8.356,20.319 7.96,20.625 7.506,20.625 L4,20.625 L4,27.375 L7.506,27.375 C7.96,27.375 8.356,27.681 8.473,28.119 C8.837,29.495 9.388,30.822 10.11,32.063 C10.339,32.456 10.274,32.953 9.953,33.273 L7.471,35.755 L7.73,36.014 L6.316,37.429 L5.969,37.082 C5.614,36.728 5.419,36.256 5.419,35.756 C5.419,35.255 5.614,34.784 5.969,34.43 L8.007,32.392 C7.497,31.424 7.077,30.414 6.754,29.375 L3.875,29.375 C2.841,29.375 2,28.534 2,27.5 L2,20.5 C2,19.466 2.841,18.625 3.875,18.625 L6.754,18.625 C7.077,17.586 7.497,16.576 8.007,15.608 L5.969,13.57 C5.614,13.216 5.419,12.745 5.419,12.244 C5.419,11.744 5.614,11.272 5.969,10.918 L10.919,5.969 C11.628,5.26 12.861,5.259 13.57,5.969 L15.608,8.007 C16.578,7.497 17.588,7.077 18.625,6.754 L18.625,3.875 C18.625,2.841 19.466,2 20.5,2 L27.5,2 C28.534,2 29.375,2.841 29.375,3.875 L29.375,6.754 C30.412,7.077 31.422,7.497 32.392,8.007 L34.43,5.969 C35.14,5.259 36.373,5.26 37.081,5.969 L42.031,10.918 C42.386,11.272 42.581,11.744 42.581,12.244 C42.581,12.745 42.386,13.216 42.031,13.57 L39.993,15.608 C40.503,16.576 40.923,17.586 41.246,18.625 L44.125,18.625 C45.159,18.625 46,19.466 46,20.5 L46,20.5 Z" id="Fill-1" fill="#067F68"></path>
    </g>
</svg>