<?xml version="1.0" encoding="UTF-8"?>
<svg width="48px" height="48px" viewBox="0 0 48 48" version="1.1" xmlns="http://www.w3.org/2000/svg" xmlns:xlink="http://www.w3.org/1999/xlink">
    <title>Icon-Resource/Migration-And-Transfer/Res_AWS-Transfer-Family_AWS-FTP_48_Light</title>
    <g id="Icon-Resource/Migration-And-Transfer/Res_AWS-Transfer-Family_AWS-FTP_48" stroke="none" stroke-width="1" fill="none" fill-rule="evenodd">
        <path d="M30.2783,39.832 C30.2783,39.35 30.1903,38.984 30.0133,38.734 C29.8373,38.485 29.5813,38.36 29.2463,38.36 L28.4073,38.36 L28.4073,41.304 L29.2463,41.304 C29.5813,41.304 29.8373,41.179 30.0133,40.929 C30.1903,40.68 30.2783,40.313 30.2783,39.832 L30.2783,39.832 Z M31.3563,37.773 C31.8253,38.276 32.0593,38.963 32.0593,39.832 C32.0593,40.701 31.8253,41.387 31.3563,41.891 C30.8863,42.394 30.2573,42.645 29.4653,42.645 L28.4073,42.645 L28.4073,45.963 L26.6383,45.963 L26.6383,37.018 L29.4653,37.018 C30.2573,37.018 30.8863,37.269 31.3563,37.773 L31.3563,37.773 Z M19.5253,38.45 L21.6683,38.45 L21.6683,45.963 L23.4753,45.963 L23.4753,38.45 L25.6183,38.45 L25.6183,37.018 L19.5253,37.018 L19.5253,38.45 Z M14.1183,45.963 L15.9243,45.963 L15.9243,42.194 L18.1583,42.194 L18.1583,40.812 L15.9243,40.812 L15.9243,38.399 L18.7773,38.399 L18.7773,37.018 L14.1183,37.018 L14.1183,45.963 Z M45.5823,10.898 L36.9763,2.293 C36.5863,1.902 35.9533,1.902 35.5623,2.293 L26.9573,10.898 C26.6713,11.185 26.5853,11.614 26.7403,11.988 C26.8943,12.362 27.2593,12.605 27.6643,12.605 L32.0433,12.605 L32.0433,16.983 L32.0433,21.286 L32.0433,24.513 C32.0433,25.065 32.4903,25.513 33.0433,25.513 L36.0073,25.513 L29.8153,31.704 L23.6253,25.513 L26.5893,25.513 C27.1413,25.513 27.5893,25.065 27.5893,24.513 L27.5893,16.983 L25.5893,16.983 L25.5893,23.513 L21.2113,23.513 C20.8063,23.513 20.4413,23.756 20.2873,24.13 C20.1323,24.504 20.2173,24.934 20.5043,25.22 L29.1083,33.825 C29.2963,34.013 29.5493,34.118 29.8153,34.118 C30.0813,34.118 30.3353,34.013 30.5223,33.825 L39.1283,25.22 C39.4143,24.934 39.5003,24.504 39.3443,24.13 C39.1903,23.756 38.8253,23.513 38.4213,23.513 L34.0433,23.513 L34.0433,21.286 L34.0433,16.983 L34.0433,11.605 C34.0433,11.053 33.5953,10.605 33.0433,10.605 L30.0783,10.605 L36.2693,4.414 L42.4613,10.605 L39.4963,10.605 C38.9433,10.605 38.4963,11.053 38.4963,11.605 L38.4963,19.21 L36.2693,19.21 L36.2693,21.21 L41.7233,21.21 L41.7233,43.95 L33.3473,43.95 L33.3473,45.95 L42.7233,45.95 C43.2763,45.95 43.7233,45.503 43.7233,44.95 L43.7233,20.21 C43.7233,19.657 43.2763,19.21 42.7233,19.21 L40.4963,19.21 L40.4963,12.605 L44.8753,12.605 C45.2793,12.605 45.6443,12.362 45.7993,11.988 C45.9543,11.614 45.8683,11.185 45.5823,10.898 L45.5823,10.898 Z M9.0773,43.95 L11.5303,43.95 L11.5303,45.95 L6.1513,45.95 C4.4143,45.95 3.0003,44.536 3.0003,42.799 L3.0003,12.681 C3.0003,12.128 3.4473,11.681 4.0003,11.681 L15.9143,11.681 C16.2233,11.681 16.5163,11.824 16.7063,12.069 L18.8963,14.908 L23.3613,14.908 L23.3613,16.908 L18.4053,16.908 C18.0953,16.908 17.8023,16.765 17.6133,16.52 L15.4233,13.681 L5.0003,13.681 L5.0003,42.799 C5.0003,43.434 5.5163,43.95 6.1513,43.95 C6.7863,43.95 7.3023,43.434 7.3023,42.799 L7.3023,20.21 C7.3023,19.657 7.7503,19.21 8.3023,19.21 L23.3613,19.21 L23.3613,21.21 L9.3023,21.21 L9.3023,42.799 C9.3023,43.206 9.2183,43.593 9.0773,43.95 L9.0773,43.95 Z" id="AWS-Transfer-Family-AWS-FTP_Resource-Icon_light-bg" fill="#067F68"></path>
    </g>
</svg>