<?xml version="1.0" encoding="UTF-8"?>
<svg width="48px" height="48px" viewBox="0 0 48 48" version="1.1" xmlns="http://www.w3.org/2000/svg" xmlns:xlink="http://www.w3.org/1999/xlink">
    <title>Icon-Resource/Migration-And-Transfer/Res_AWS-Transfer-Family_AWS-SFTP_48_Light</title>
    <g id="Icon-Resource/Migration-And-Transfer/Res_AWS-Transfer-Family_AWS-SFTP_48" stroke="none" stroke-width="1" fill="none" fill-rule="evenodd">
        <path d="M36.5742,39.5566 C36.5742,39.0756 36.4862,38.7086 36.3082,38.4586 C36.1332,38.2086 35.8772,38.0846 35.5412,38.0846 L34.7012,38.0846 L34.7012,41.0296 L35.5412,41.0296 C35.8772,41.0296 36.1332,40.9046 36.3082,40.6556 C36.4862,40.4056 36.5742,40.0386 36.5742,39.5566 L36.5742,39.5566 Z M37.6522,37.4966 C38.1212,38.0006 38.3572,38.6876 38.3572,39.5566 C38.3572,40.4266 38.1212,41.1136 37.6522,41.6176 C37.1832,42.1206 36.5532,42.3726 35.7602,42.3726 L34.7012,42.3726 L34.7012,45.6926 L32.9312,45.6926 L32.9312,36.7416 L35.7602,36.7416 C36.5532,36.7416 37.1832,36.9936 37.6522,37.4966 L37.6522,37.4966 Z M25.8142,38.1746 L27.9592,38.1746 L27.9592,45.6926 L29.7672,45.6926 L29.7672,38.1746 L31.9102,38.1746 L31.9102,36.7416 L25.8142,36.7416 L25.8142,38.1746 Z M20.4022,45.6926 L22.2112,45.6926 L22.2112,41.9206 L24.4452,41.9206 L24.4452,40.5386 L22.2112,40.5386 L22.2112,38.1226 L25.0642,38.1226 L25.0642,36.7416 L20.4022,36.7416 L20.4022,45.6926 Z M18.3032,41.3396 C18.0412,41.0986 17.6852,40.8576 17.2382,40.6166 L16.5412,40.2416 C16.1622,40.0356 15.9042,39.8456 15.7712,39.6726 C15.6382,39.5006 15.5722,39.2816 15.5722,39.0146 C15.5722,38.6966 15.6762,38.4466 15.8812,38.2656 C16.0882,38.0846 16.3732,37.9946 16.7342,37.9946 C17.2672,37.9946 17.8832,38.1226 18.5822,38.3816 L18.5822,37.0126 C17.9102,36.7026 17.2322,36.5476 16.5532,36.5476 C16.0102,36.5476 15.5312,36.6536 15.1132,36.8646 C14.6952,37.0756 14.3652,37.3756 14.1252,37.7676 C13.8832,38.1606 13.7632,38.6186 13.7632,39.1436 C13.7632,39.7116 13.9002,40.1946 14.1762,40.5896 C14.4512,40.9866 14.9082,41.3566 15.5452,41.7016 L16.2442,42.0766 C16.5952,42.2656 16.8472,42.4526 16.9982,42.6376 C17.1482,42.8236 17.2242,43.0486 17.2242,43.3156 C17.2242,43.6776 17.1172,43.9546 16.9022,44.1486 C16.6872,44.3426 16.3732,44.4396 15.9592,44.4396 C15.6762,44.4396 15.3322,44.3986 14.9312,44.3166 C14.5312,44.2356 14.1722,44.1336 13.8532,44.0136 L13.8532,45.3686 C14.1292,45.5246 14.4692,45.6496 14.8752,45.7436 C15.2792,45.8386 15.6832,45.8856 16.0882,45.8856 C17.0172,45.8856 17.7482,45.6476 18.2772,45.1686 C18.8062,44.6916 19.0722,44.0436 19.0722,43.2256 C19.0722,42.8036 19.0102,42.4446 18.8852,42.1466 C18.7602,41.8496 18.5662,41.5806 18.3032,41.3396 L18.3032,41.3396 Z M45.6092,10.9036 L36.9982,2.2926 C36.6072,1.9026 35.9742,1.9026 35.5842,2.2926 L26.9732,10.9036 C26.6872,11.1896 26.6012,11.6196 26.7572,11.9936 C26.9112,12.3676 27.2762,12.6106 27.6802,12.6106 L32.0622,12.6106 L32.0622,16.9926 L32.0622,21.2976 L32.0622,24.5276 C32.0622,25.0796 32.5102,25.5276 33.0622,25.5276 L36.0302,25.5276 L29.8332,31.7246 L23.6362,25.5276 L26.6032,25.5276 C27.1562,25.5276 27.6032,25.0796 27.6032,24.5276 L27.6032,16.9926 L25.6032,16.9926 L25.6032,23.5276 L21.2212,23.5276 C20.8172,23.5276 20.4522,23.7706 20.2982,24.1446 C20.1422,24.5186 20.2282,24.9486 20.5142,25.2346 L29.1262,33.8456 C29.3212,34.0406 29.5772,34.1386 29.8332,34.1386 C30.0892,34.1386 30.3452,34.0406 30.5402,33.8456 L39.1512,25.2346 C39.4372,24.9486 39.5232,24.5186 39.3682,24.1446 C39.2142,23.7706 38.8482,23.5276 38.4442,23.5276 L34.0622,23.5276 L34.0622,21.2976 L34.0622,16.9926 L34.0622,11.6106 C34.0622,11.0576 33.6152,10.6106 33.0622,10.6106 L30.0952,10.6106 L36.2912,4.4136 L42.4882,10.6106 L39.5202,10.6106 C38.9682,10.6106 38.5202,11.0576 38.5202,11.6106 L38.5202,19.2216 L36.2912,19.2216 L36.2912,21.2216 L41.7502,21.2216 L41.7502,43.9786 L39.4562,43.9786 L39.4562,45.9786 L42.7502,45.9786 C43.3032,45.9786 43.7502,45.5316 43.7502,44.9786 L43.7502,20.2216 C43.7502,19.6686 43.3032,19.2216 42.7502,19.2216 L40.5202,19.2216 L40.5202,12.6106 L44.9022,12.6106 C45.3062,12.6106 45.6722,12.3666 45.8262,11.9936 C45.9812,11.6196 45.8952,11.1896 45.6092,10.9036 L45.6092,10.9036 Z M9.0802,43.9786 L11.5342,43.9786 L11.5342,45.9786 L6.1522,45.9786 C4.4142,45.9786 3.0002,44.5646 3.0002,42.8266 L3.0002,12.6876 C3.0002,12.1346 3.4472,11.6876 4.0002,11.6876 L15.9222,11.6876 C16.2312,11.6876 16.5242,11.8306 16.7132,12.0766 L18.9062,14.9156 L23.3752,14.9156 L23.3752,16.9156 L18.4152,16.9156 C18.1052,16.9156 17.8122,16.7726 17.6242,16.5276 L15.4302,13.6876 L5.0002,13.6876 L5.0002,42.8266 C5.0002,43.4616 5.5162,43.9786 6.1522,43.9786 C6.7882,43.9786 7.3052,43.4616 7.3052,42.8266 L7.3052,20.2216 C7.3052,19.6686 7.7532,19.2216 8.3052,19.2216 L23.3752,19.2216 L23.3752,21.2216 L9.3052,21.2216 L9.3052,42.8266 C9.3052,43.2336 9.2212,43.6206 9.0802,43.9786 L9.0802,43.9786 Z" id="AWS-Transfer-Family-AWS-SFTP_Resource-Icon_light-bg" fill="#067F68"></path>
    </g>
</svg>