<?xml version="1.0" encoding="UTF-8"?>
<svg width="48px" height="48px" viewBox="0 0 48 48" version="1.1" xmlns="http://www.w3.org/2000/svg" xmlns:xlink="http://www.w3.org/1999/xlink">
    <title>Icon-Resource/Compute/Res_Amazon-EC2_C5n-Instance_48_Light</title>
    <g id="Icon-Resource/Compute/Res_Amazon-EC2_C5n-Instance_48" stroke="none" stroke-width="1" fill="none" fill-rule="evenodd">
        <path d="M27.767,29.011 C26.833,29.011 25.938,28.824 25.079,28.45 L25.079,27.135 C26.099,27.48 26.981,27.653 27.723,27.653 C29.106,27.653 29.797,27.056 29.797,25.861 C29.797,25.282 29.623,24.86 29.275,24.594 C28.927,24.327 28.373,24.195 27.614,24.195 C27.047,24.195 26.338,24.241 25.485,24.335 L25.485,23.271 L25.751,19.099 L31.015,19.099 L31.015,20.429 L27.31,20.429 L27.151,23.019 C27.534,22.945 27.939,22.907 28.367,22.907 C29.336,22.907 30.1,23.168 30.657,23.691 C31.212,24.213 31.491,24.928 31.491,25.833 C31.491,26.804 31.155,27.575 30.483,28.15 C29.811,28.724 28.906,29.011 27.767,29.011 L27.767,29.011 Z M17.695,27.737 C16.906,26.915 16.511,25.702 16.511,24.097 C16.511,22.445 16.919,21.173 17.737,20.282 C18.553,19.391 19.727,18.945 21.257,18.945 C22.098,18.945 22.872,19.071 23.581,19.323 L23.581,20.723 C22.65,20.527 21.921,20.429 21.394,20.429 C20.331,20.429 19.541,20.704 19.024,21.255 C18.506,21.806 18.247,22.655 18.247,23.803 L18.247,24.139 C18.247,25.278 18.503,26.119 19.016,26.666 C19.529,27.212 20.312,27.485 21.366,27.485 C21.958,27.485 22.744,27.368 23.722,27.135 L23.722,28.534 C22.984,28.824 22.144,28.969 21.202,28.969 C19.652,28.969 18.483,28.558 17.695,27.737 L17.695,27.737 Z M9,39 L39,39 L39,9 L9,9 L9,39 Z M46,13 L46,11 L41,11 L41,8 C41,7.448 40.553,7 40,7 L37,7 L37,2 L35,2 L35,7 L31,7 L31,2 L29,2 L29,7 L25,7 L25,2 L23,2 L23,7 L19,7 L19,2 L17,2 L17,7 L13,7 L13,2 L11,2 L11,7 L8,7 C7.448,7 7,7.448 7,8 L7,11 L2,11 L2,13 L7,13 L7,17 L2,17 L2,19 L7,19 L7,23 L2,23 L2,25 L7,25 L7,29 L2,29 L2,31 L7,31 L7,35 L2,35 L2,37 L7,37 L7,40 C7,40.553 7.448,41 8,41 L11,41 L11,46 L13,46 L13,41 L17,41 L17,46 L19,46 L19,41 L23,41 L23,46 L25,46 L25,41 L29,41 L29,46 L31,46 L31,41 L35,41 L35,46 L37,46 L37,41 L40,41 C40.553,41 41,40.553 41,40 L41,37 L46,37 L46,35 L41,35 L41,31 L46,31 L46,29 L41,29 L41,25 L46,25 L46,23 L41,23 L41,19 L46,19 L46,17 L41,17 L41,13 L46,13 Z" id="Amazon-EC2-C5n-Instance_Resource-Icon_light-bg" fill="#D45B07"></path>
    </g>
</svg>