<?xml version="1.0" encoding="UTF-8"?>
<svg width="48px" height="48px" viewBox="0 0 48 48" version="1.1" xmlns="http://www.w3.org/2000/svg" xmlns:xlink="http://www.w3.org/1999/xlink">
    <title>Icon-Resource/Compute/Res_Amazon-EC2-Instance-D3en_48_Light</title>
    <g id="Icon-Resource/Compute/Res_Amazon-EC2-Instance-D3en_48" stroke="none" stroke-width="1" fill="none" fill-rule="evenodd">
        <path d="M9,39 L39,39 L39,9 L9,9 L9,39 Z M46,13 L46,11 L41,11 L41,8 C41,7.448 40.552,7 40,7 L37,7 L37,2 L35,2 L35,7 L31,7 L31,2 L29,2 L29,7 L25,7 L25,2 L23,2 L23,7 L19,7 L19,2 L17,2 L17,7 L13,7 L13,2 L11,2 L11,7 L8,7 C7.448,7 7,7.448 7,8 L7,11 L2,11 L2,13 L7,13 L7,17 L2,17 L2,19 L7,19 L7,23 L2,23 L2,25 L7,25 L7,29 L2,29 L2,31 L7,31 L7,35 L2,35 L2,37 L7,37 L7,40 C7,40.552 7.448,41 8,41 L11,41 L11,46 L13,46 L13,41 L17,41 L17,46 L19,46 L19,41 L23,41 L23,46 L25,46 L25,41 L29,41 L29,46 L31,46 L31,41 L35,41 L35,46 L37,46 L37,41 L40,41 C40.552,41 41,40.552 41,40 L41,37 L46,37 L46,35 L41,35 L41,31 L46,31 L46,29 L41,29 L41,25 L46,25 L46,23 L41,23 L41,19 L46,19 L46,17 L41,17 L41,13 L46,13 Z M34.758,27.729 L34.758,24.022 C34.758,23.663 34.685,23.4 34.538,23.235 C34.391,23.07 34.156,22.988 33.834,22.988 C33.35,22.988 32.855,23.149 32.349,23.472 L32.349,27.729 L31.051,27.729 L31.051,22.13 L32.129,22.13 L32.261,22.746 C32.95,22.226 33.669,21.965 34.417,21.965 C34.952,21.965 35.359,22.106 35.638,22.389 C35.917,22.671 36.056,23.08 36.056,23.615 L36.056,27.729 L34.758,27.729 Z M27.766,22.911 C27.391,22.911 27.084,23.043 26.848,23.307 C26.612,23.571 26.477,23.927 26.442,24.374 L28.851,24.374 L28.851,24.286 C28.851,23.839 28.759,23.498 28.574,23.263 C28.39,23.028 28.121,22.911 27.766,22.911 L27.766,22.911 Z M26.442,25.243 C26.463,25.8 26.613,26.209 26.893,26.47 C27.173,26.73 27.604,26.86 28.185,26.86 C28.709,26.86 29.275,26.757 29.885,26.552 L29.885,27.465 C29.635,27.597 29.34,27.702 28.999,27.778 C28.658,27.855 28.304,27.894 27.937,27.894 C27.014,27.894 26.313,27.645 25.837,27.146 C25.36,26.647 25.122,25.921 25.122,24.968 C25.122,24.022 25.354,23.285 25.82,22.757 C26.286,22.229 26.937,21.965 27.773,21.965 C28.491,21.965 29.043,22.161 29.428,22.554 C29.813,22.946 30.006,23.501 30.006,24.22 C30.006,24.602 29.974,24.942 29.91,25.243 L26.442,25.243 Z M21.437,23.351 C21.538,23.344 21.639,23.34 21.741,23.34 C22.169,23.34 22.557,23.43 22.904,23.609 C23.25,23.789 23.527,24.044 23.734,24.374 C23.94,24.704 24.043,25.082 24.043,25.507 C24.043,25.969 23.926,26.38 23.691,26.739 C23.457,27.099 23.12,27.381 22.68,27.586 C22.24,27.791 21.726,27.894 21.14,27.894 C20.436,27.894 19.746,27.747 19.072,27.454 L19.072,26.42 C19.874,26.691 20.548,26.827 21.094,26.827 C21.612,26.827 22.011,26.711 22.292,26.48 C22.572,26.25 22.713,25.921 22.713,25.496 C22.713,24.689 22.204,24.286 21.186,24.286 C20.858,24.286 20.506,24.308 20.127,24.352 L20.127,23.505 L22.294,21.151 L19.182,21.151 L19.182,20.106 L23.725,20.106 L23.725,21.107 L21.437,23.351 Z M13.286,21.162 L13.286,26.673 L14.397,26.673 C15.915,26.673 16.674,25.793 16.674,24.033 L16.674,23.791 C16.674,22.039 15.915,21.162 14.397,21.162 L13.286,21.162 Z M11.944,27.729 L11.944,20.106 L14.551,20.106 C15.68,20.106 16.544,20.433 17.142,21.085 C17.739,21.738 18.038,22.676 18.038,23.901 C18.038,25.133 17.735,26.079 17.13,26.739 C16.525,27.399 15.662,27.729 14.54,27.729 L11.944,27.729 Z" id="Fill-1" fill="#D45B07"></path>
    </g>
</svg>