<?xml version="1.0" encoding="UTF-8"?>
<svg width="48px" height="48px" viewBox="0 0 48 48" version="1.1" xmlns="http://www.w3.org/2000/svg" xmlns:xlink="http://www.w3.org/1999/xlink">
    <title>Icon-Resource/Compute/Res_Icon-Amazon-EC2_G5g-Instance_48_Light</title>
    <g id="Icon-Resource/Compute/Res_Icon-Amazon-EC2_G5g-Instance_48" stroke="none" stroke-width="1" fill="none" fill-rule="evenodd">
        <path d="M9,39 L39,39 L39,9 L9,9 L9,39 Z M41,13 L41,17 L46,17 L46,19 L41,19 L41,23 L46,23 L46,25 L41,25 L41,29 L46,29 L46,31 L41,31 L41,35 L46,35 L46,37 L41,37 L41,40 C41,40.552 40.552,41 40,41 L37,41 L37,46 L35,46 L35,41 L31,41 L31,46 L29,46 L29,41 L25,41 L25,46 L23,46 L23,41 L19,41 L19,46 L17,46 L17,41 L13,41 L13,46 L11,46 L11,41 L8,41 C7.448,41 7,40.552 7,40 L7,37 L2,37 L2,35 L7,35 L7,31 L2,31 L2,29 L7,29 L7,25 L2,25 L2,23 L7,23 L7,19 L2,19 L2,17 L7,17 L7,13 L2,13 L2,11 L7,11 L7,8 C7,7.448 7.448,7 8,7 L11,7 L11,2 L13,2 L13,7 L17,7 L17,2 L19,2 L19,7 L23,7 L23,2 L25,2 L25,7 L29,7 L29,2 L31,2 L31,7 L35,7 L35,2 L37,2 L37,7 L40,7 C40.552,7 41,7.448 41,8 L41,11 L46,11 L46,13 L41,13 Z M30.795,23.963 C30.795,25.531 31.351,26.315 32.461,26.315 C33.012,26.315 33.534,26.133 34.029,25.769 L34.029,22.185 C33.544,21.849 33.026,21.681 32.475,21.681 C31.906,21.681 31.483,21.868 31.208,22.241 C30.933,22.614 30.795,23.188 30.795,23.963 L30.795,23.963 Z M29.892,26.616 C29.374,25.967 29.115,25.102 29.115,24.019 C29.115,23.31 29.232,22.682 29.465,22.136 C29.698,21.59 30.034,21.163 30.473,20.855 C30.912,20.547 31.43,20.393 32.027,20.393 C32.839,20.393 33.544,20.678 34.141,21.247 L34.281,20.603 L35.681,20.603 L35.681,27.239 C35.681,28.368 35.374,29.241 34.76,29.857 C34.146,30.473 33.271,30.781 32.137,30.781 C31.274,30.781 30.458,30.589 29.689,30.207 L29.689,29.031 C30.557,29.32 31.336,29.465 32.027,29.465 C32.727,29.465 33.236,29.304 33.553,28.982 C33.871,28.66 34.029,28.135 34.029,27.407 L34.029,26.805 C33.422,27.328 32.736,27.589 31.971,27.589 C31.103,27.589 30.41,27.265 29.892,26.616 L29.892,26.616 Z M26.847,27.078 C27.52,26.504 27.855,25.732 27.855,24.761 C27.855,23.856 27.577,23.142 27.021,22.619 C26.464,22.096 25.701,21.835 24.73,21.835 C24.303,21.835 23.898,21.873 23.515,21.947 L23.675,19.357 L27.379,19.357 L27.379,18.027 L22.115,18.027 L21.849,22.199 L21.849,23.263 C22.703,23.17 23.412,23.123 23.978,23.123 C24.738,23.123 25.292,23.256 25.64,23.522 C25.987,23.788 26.161,24.21 26.161,24.789 C26.161,25.984 25.47,26.581 24.087,26.581 C23.345,26.581 22.464,26.408 21.443,26.063 L21.443,27.379 C22.302,27.752 23.198,27.939 24.131,27.939 C25.27,27.939 26.175,27.652 26.847,27.078 L26.847,27.078 Z M13.145,26.623 C12.33,25.774 11.923,24.546 11.923,22.941 C11.923,21.308 12.342,20.055 13.181,19.182 C14.019,18.31 15.224,17.873 16.796,17.873 C17.857,17.873 18.799,18.064 19.624,18.447 L19.624,19.805 C18.644,19.479 17.74,19.315 16.912,19.315 C15.809,19.315 14.991,19.595 14.458,20.155 C13.925,20.715 13.659,21.588 13.659,22.773 L13.659,23.067 C13.659,24.234 13.923,25.09 14.45,25.636 C14.978,26.182 15.806,26.455 16.936,26.455 C17.383,26.455 17.822,26.413 18.251,26.329 L18.251,23.767 L16.25,23.767 L16.25,22.423 L19.959,22.423 L19.959,27.183 C19.533,27.407 19.034,27.582 18.461,27.708 C17.889,27.834 17.299,27.897 16.694,27.897 C15.142,27.897 13.958,27.472 13.145,26.623 L13.145,26.623 Z" id="Fill-1" fill="#D45B07"></path>
    </g>
</svg>