<?xml version="1.0" encoding="UTF-8"?>
<svg width="48px" height="48px" viewBox="0 0 48 48" version="1.1" xmlns="http://www.w3.org/2000/svg" xmlns:xlink="http://www.w3.org/1999/xlink">
    <title>Icon-Resource/Compute/Res_Amazon-EC2_Inf1_48_Light</title>
    <g id="Icon-Resource/Compute/Res_Amazon-EC2_Inf1_48" stroke="none" stroke-width="1" fill="none" fill-rule="evenodd">
        <path d="M9,39 L39,39 L39,9 L9,9 L9,39 Z M41,13 L41,17 L46,17 L46,19 L41,19 L41,23 L46,23 L46,25 L41,25 L41,29 L46,29 L46,31 L41,31 L41,35 L46,35 L46,37 L41,37 L41,40 C41,40.552 40.552,41 40,41 L37,41 L37,46 L35,46 L35,41 L31,41 L31,46 L29,46 L29,41 L25,41 L25,46 L23,46 L23,41 L19,41 L19,46 L17,46 L17,41 L13,41 L13,46 L11,46 L11,41 L8,41 C7.448,41 7,40.552 7,40 L7,37 L2,37 L2,35 L7,35 L7,31 L2,31 L2,29 L7,29 L7,25 L2,25 L2,23 L7,23 L7,19 L2,19 L2,17 L7,17 L7,13 L2,13 L2,11 L7,11 L7,8 C7,7.448 7.448,7 8,7 L11,7 L11,2 L13,2 L13,7 L17,7 L17,2 L19,2 L19,7 L23,7 L23,2 L25,2 L25,7 L29,7 L29,2 L31,2 L31,7 L35,7 L35,2 L37,2 L37,7 L40,7 C40.552,7 41,7.448 41,8 L41,11 L46,11 L46,13 L41,13 Z M30.506,27.729 L31.815,27.729 L31.815,20.106 L30.627,20.106 L28.449,21.118 L28.449,22.174 L30.506,21.404 L30.506,27.729 Z M24.566,27.729 L25.864,27.729 L25.864,23.12 L27.514,23.12 L27.514,22.13 L25.864,22.13 L25.864,21.25 C25.864,20.964 25.932,20.761 26.067,20.64 C26.203,20.519 26.429,20.458 26.744,20.458 C26.883,20.458 27.162,20.484 27.58,20.535 L27.58,19.644 C27.257,19.505 26.872,19.435 26.425,19.435 C25.186,19.435 24.566,20.095 24.566,21.415 L24.566,22.163 L23.587,22.306 L23.587,23.12 L24.566,23.12 L24.566,27.729 Z M19.154,23.472 C19.66,23.149 20.155,22.988 20.639,22.988 C20.961,22.988 21.196,23.07 21.343,23.235 C21.49,23.4 21.563,23.663 21.563,24.022 L21.563,27.729 L22.861,27.729 L22.861,23.615 C22.861,23.08 22.722,22.671 22.443,22.389 C22.164,22.106 21.757,21.965 21.222,21.965 C20.474,21.965 19.755,22.226 19.066,22.746 L18.934,22.13 L17.856,22.13 L17.856,27.729 L19.154,27.729 L19.154,23.472 Z M14.996,27.729 L16.338,27.729 L16.338,20.106 L14.996,20.106 L14.996,27.729 Z" id="Fill-1" fill="#D45B07"></path>
    </g>
</svg>