<?xml version="1.0" encoding="UTF-8"?>
<svg width="48px" height="48px" viewBox="0 0 48 48" version="1.1" xmlns="http://www.w3.org/2000/svg" xmlns:xlink="http://www.w3.org/1999/xlink">
    <title>Icon-Resource/Compute/Res_Amazon-EC2_I4i-Instance_48_Light</title>
    <g id="Icon-Resource/Compute/Res_Amazon-EC2_I4i-Instance_48" stroke="none" stroke-width="1" fill="none" fill-rule="evenodd">
        <path d="M9,39 L39,39 L39,9 L9,9 L9,39 Z M41,13 L41,17 L46,17 L46,19 L41,19 L41,23 L46,23 L46,25 L41,25 L41,29 L46,29 L46,31 L41,31 L41,35 L46,35 L46,37 L41,37 L41,40 C41,40.552 40.552,41 40,41 L37,41 L37,46 L35,46 L35,41 L31,41 L31,46 L29,46 L29,41 L25,41 L25,46 L23,46 L23,41 L19,41 L19,46 L17,46 L17,41 L13,41 L13,46 L11,46 L11,41 L8,41 C7.448,41 7,40.552 7,40 L7,37 L2,37 L2,35 L7,35 L7,31 L2,31 L2,29 L7,29 L7,25 L2,25 L2,23 L7,23 L7,19 L2,19 L2,17 L7,17 L7,13 L2,13 L2,11 L7,11 L7,8 C7,7.448 7.448,7 8,7 L11,7 L11,2 L13,2 L13,7 L17,7 L17,2 L19,2 L19,7 L23,7 L23,2 L25,2 L25,7 L29,7 L29,2 L31,2 L31,7 L35,7 L35,2 L37,2 L37,7 L40,7 C40.552,7 41,7.448 41,8 L41,11 L46,11 L46,13 L41,13 Z M29.808,20.427 C30.116,20.427 30.358,20.343 30.536,20.175 C30.713,20.007 30.802,19.774 30.802,19.475 C30.802,19.176 30.713,18.943 30.536,18.775 C30.358,18.607 30.116,18.523 29.808,18.523 C29.5,18.523 29.257,18.607 29.08,18.775 C28.902,18.943 28.814,19.176 28.814,19.475 C28.814,19.774 28.902,20.007 29.08,20.175 C29.257,20.343 29.5,20.427 29.808,20.427 L29.808,20.427 Z M28.982,28.729 L30.634,28.729 L30.634,21.603 L28.982,21.603 L28.982,28.729 Z M24.964,25.397 L24.964,21.127 L22.038,25.397 L24.964,25.397 Z M24.964,26.713 L20.372,26.713 L20.372,25.467 L24.894,19.027 L26.63,19.027 L26.63,25.397 L27.932,25.397 L27.932,26.713 L26.63,26.713 L26.63,28.729 L24.964,28.729 L24.964,26.713 Z M17.362,28.729 L19.07,28.729 L19.07,19.027 L17.362,19.027 L17.362,28.729 Z" id="Fill-1" fill="#D45B07"></path>
    </g>
</svg>