<?xml version="1.0" encoding="UTF-8"?>
<svg width="48px" height="48px" viewBox="0 0 48 48" version="1.1" xmlns="http://www.w3.org/2000/svg" xmlns:xlink="http://www.w3.org/1999/xlink">
    <title>Icon-Resource/Compute/Res_Amazon-EC2_M5a-Instance_48_Light</title>
    <g id="Icon-Resource/Compute/Res_Amazon-EC2_M5a-Instance_48" stroke="none" stroke-width="1" fill="none" fill-rule="evenodd">
        <path d="M34.773,27.246 C34.5,27.461 34.217,27.626 33.926,27.743 C33.635,27.859 33.358,27.918 33.094,27.918 C32.776,27.918 32.525,27.827 32.343,27.645 C32.162,27.463 32.071,27.209 32.071,26.882 C32.071,26.126 32.544,25.748 33.49,25.748 C33.863,25.748 34.291,25.8 34.773,25.902 L34.773,27.246 Z M33.149,24.712 C32.308,24.712 31.639,24.917 31.139,25.328 C30.64,25.739 30.39,26.289 30.39,26.98 C30.39,27.605 30.593,28.114 31,28.506 C31.406,28.898 31.935,29.094 32.588,29.094 C32.981,29.094 33.375,29.015 33.772,28.856 C34.169,28.697 34.53,28.478 34.857,28.198 L34.983,28.884 L36.424,28.884 L36.424,23.858 C36.424,23.064 36.204,22.481 35.762,22.108 C35.32,21.734 34.633,21.548 33.703,21.548 C33.189,21.548 32.678,21.6 32.17,21.702 C31.662,21.805 31.232,21.945 30.88,22.122 L30.88,23.284 C31.823,22.975 32.659,22.822 33.386,22.822 C33.9,22.822 34.259,22.915 34.464,23.101 C34.669,23.289 34.773,23.62 34.773,24.096 L34.773,24.922 C34.184,24.782 33.643,24.712 33.149,24.712 L33.149,24.712 Z M25.561,29.094 C24.627,29.094 23.732,28.907 22.874,28.534 L22.874,27.218 C23.893,27.563 24.775,27.736 25.517,27.736 C26.9,27.736 27.591,27.139 27.591,25.944 C27.591,25.365 27.418,24.943 27.069,24.677 C26.721,24.411 26.168,24.278 25.408,24.278 C24.841,24.278 24.132,24.325 23.279,24.418 L23.279,23.354 L23.545,19.182 L28.809,19.182 L28.809,20.512 L25.104,20.512 L24.945,23.101 C25.328,23.027 25.733,22.99 26.161,22.99 C27.13,22.99 27.894,23.251 28.451,23.774 C29.006,24.297 29.285,25.011 29.285,25.916 C29.285,26.887 28.949,27.659 28.277,28.233 C27.605,28.807 26.7,29.094 25.561,29.094 L25.561,29.094 Z M13.143,28.884 L11.576,28.884 L11.576,19.182 L13.479,19.182 L16.391,24.964 L19.359,19.182 L21.208,19.182 L21.208,28.884 L19.639,28.884 L19.639,21.618 L17.12,26.448 L15.58,26.448 L13.143,21.646 L13.143,28.884 Z M9,39 L39,39 L39,9 L9,9 L9,39 Z M46,13 L46,11 L41,11 L41,8 C41,7.447 40.552,7 40,7 L37,7 L37,2 L35,2 L35,7 L31,7 L31,2 L29,2 L29,7 L25,7 L25,2 L23,2 L23,7 L19,7 L19,2 L17,2 L17,7 L13,7 L13,2 L11,2 L11,7 L8,7 C7.447,7 7,7.447 7,8 L7,11 L2,11 L2,13 L7,13 L7,17 L2,17 L2,19 L7,19 L7,23 L2,23 L2,25 L7,25 L7,29 L2,29 L2,31 L7,31 L7,35 L2,35 L2,37 L7,37 L7,40 C7,40.553 7.447,41 8,41 L11,41 L11,46 L13,46 L13,41 L17,41 L17,46 L19,46 L19,41 L23,41 L23,46 L25,46 L25,41 L29,41 L29,46 L31,46 L31,41 L35,41 L35,46 L37,46 L37,41 L40,41 C40.552,41 41,40.553 41,40 L41,37 L46,37 L46,35 L41,35 L41,31 L46,31 L46,29 L41,29 L41,25 L46,25 L46,23 L41,23 L41,19 L46,19 L46,17 L41,17 L41,13 L46,13 Z" id="Amazon-EC2-M5a-Instance_Resource-Icon_light-bg" fill="#D45B07"></path>
    </g>
</svg>