<?xml version="1.0" encoding="UTF-8"?>
<svg width="48px" height="48px" viewBox="0 0 48 48" version="1.1" xmlns="http://www.w3.org/2000/svg" xmlns:xlink="http://www.w3.org/1999/xlink">
    <title>Icon-Resource/Compute/Res_Amazon-EC2_M5n-Instance_48_Light</title>
    <g id="Icon-Resource/Compute/Res_Amazon-EC2_M5n-Instance_48" stroke="none" stroke-width="1" fill="none" fill-rule="evenodd">
        <path d="M32.1,28.884 L30.448,28.884 L30.448,21.758 L31.82,21.758 L31.988,22.542 C32.865,21.88 33.78,21.548 34.732,21.548 C35.413,21.548 35.931,21.728 36.286,22.087 C36.64,22.447 36.818,22.967 36.818,23.649 L36.818,28.884 L35.165,28.884 L35.165,24.166 C35.165,23.709 35.073,23.375 34.886,23.165 C34.699,22.955 34.401,22.85 33.99,22.85 C33.373,22.85 32.744,23.056 32.1,23.466 L32.1,28.884 Z M25.17,29.094 C24.237,29.094 23.341,28.907 22.483,28.534 L22.483,27.218 C23.502,27.564 24.384,27.737 25.126,27.737 C26.509,27.737 27.201,27.139 27.201,25.945 C27.201,25.365 27.027,24.944 26.678,24.677 C26.33,24.411 25.777,24.279 25.017,24.279 C24.451,24.279 23.742,24.325 22.888,24.418 L22.888,23.355 L23.155,19.182 L28.418,19.182 L28.418,20.512 L24.713,20.512 L24.554,23.102 C24.937,23.028 25.342,22.99 25.77,22.99 C26.74,22.99 27.503,23.251 28.06,23.775 C28.616,24.297 28.894,25.011 28.894,25.916 C28.894,26.887 28.558,27.659 27.886,28.234 C27.214,28.807 26.309,29.094 25.17,29.094 L25.17,29.094 Z M12.752,28.884 L11.185,28.884 L11.185,19.182 L13.088,19.182 L16,24.964 L18.968,19.182 L20.817,19.182 L20.817,28.884 L19.248,28.884 L19.248,21.618 L16.729,26.448 L15.189,26.448 L12.752,21.647 L12.752,28.884 Z M9,39 L39,39 L39,9 L9,9 L9,39 Z M46,13 L46,11 L41,11 L41,8 C41,7.447 40.553,7 40,7 L37,7 L37,2 L35,2 L35,7 L31,7 L31,2 L29,2 L29,7 L25,7 L25,2 L23,2 L23,7 L19,7 L19,2 L17,2 L17,7 L13,7 L13,2 L11,2 L11,7 L8,7 C7.448,7 7,7.447 7,8 L7,11 L2,11 L2,13 L7,13 L7,17 L2,17 L2,19 L7,19 L7,23 L2,23 L2,25 L7,25 L7,29 L2,29 L2,31 L7,31 L7,35 L2,35 L2,37 L7,37 L7,40 C7,40.553 7.448,41 8,41 L11,41 L11,46 L13,46 L13,41 L17,41 L17,46 L19,46 L19,41 L23,41 L23,46 L25,46 L25,41 L29,41 L29,46 L31,46 L31,41 L35,41 L35,46 L37,46 L37,41 L40,41 C40.553,41 41,40.553 41,40 L41,37 L46,37 L46,35 L41,35 L41,31 L46,31 L46,29 L41,29 L41,25 L46,25 L46,23 L41,23 L41,19 L46,19 L46,17 L41,17 L41,13 L46,13 Z" id="Amazon-EC2-M5n-Instance_Resource-Icon_light-bg" fill="#D45B07"></path>
    </g>
</svg>