<?xml version="1.0" encoding="UTF-8"?>
<svg width="48px" height="48px" viewBox="0 0 48 48" version="1.1" xmlns="http://www.w3.org/2000/svg" xmlns:xlink="http://www.w3.org/1999/xlink">
    <title>Icon-Resource/Compute/Res_Amazon-EC2_M6g-Instance_48_Light</title>
    <g id="Icon-Resource/Compute/Res_Amazon-EC2_M6g-Instance_48" stroke="none" stroke-width="1" fill="none" fill-rule="evenodd">
        <path d="M9,39 L39,39 L39,9 L9,9 L9,39 Z M41,13 L41,17 L46,17 L46,19 L41,19 L41,23 L46,23 L46,25 L41,25 L41,29 L46,29 L46,31 L41,31 L41,35 L46,35 L46,37 L41,37 L41,40 C41,40.553 40.553,41 40,41 L37,41 L37,46 L35,46 L35,41 L31,41 L31,46 L29,46 L29,41 L25,41 L25,46 L23,46 L23,41 L19,41 L19,46 L17,46 L17,41 L13,41 L13,46 L11,46 L11,41 L8,41 C7.447,41 7,40.553 7,40 L7,37 L2,37 L2,35 L7,35 L7,31 L2,31 L2,29 L7,29 L7,25 L2,25 L2,23 L7,23 L7,19 L2,19 L2,17 L7,17 L7,13 L2,13 L2,11 L7,11 L7,8 C7,7.447 7.447,7 8,7 L11,7 L11,2 L13,2 L13,7 L17,7 L17,2 L19,2 L19,7 L23,7 L23,2 L25,2 L25,7 L29,7 L29,2 L31,2 L31,7 L35,7 L35,2 L37,2 L37,7 L40,7 C40.553,7 41,7.447 41,8 L41,11 L46,11 L46,13 L41,13 Z M32.197,23.671 C32.197,25.239 32.753,26.022 33.863,26.022 C34.414,26.022 34.937,25.841 35.432,25.478 L35.432,21.894 C34.946,21.558 34.428,21.39 33.877,21.39 C33.308,21.39 32.886,21.575 32.61,21.948 C32.335,22.321 32.197,22.896 32.197,23.671 L32.197,23.671 Z M31.294,26.323 C30.776,25.675 30.518,24.81 30.518,23.728 C30.518,23.019 30.634,22.39 30.867,21.845 C31.101,21.298 31.437,20.87 31.875,20.563 C32.313,20.255 32.832,20.101 33.43,20.101 C34.241,20.101 34.946,20.386 35.543,20.954 L35.684,20.312 L37.083,20.312 L37.083,26.946 C37.083,28.075 36.776,28.948 36.162,29.565 C35.548,30.181 34.673,30.489 33.539,30.489 C32.676,30.489 31.86,30.298 31.091,29.915 L31.091,28.739 C31.959,29.028 32.738,29.173 33.43,29.173 C34.129,29.173 34.638,29.013 34.955,28.69 C35.272,28.368 35.432,27.843 35.432,27.114 L35.432,26.513 C34.824,27.036 34.139,27.296 33.373,27.296 C32.505,27.296 31.812,26.972 31.294,26.323 L31.294,26.323 Z M24.035,23.335 C24.099,25.323 24.746,26.317 25.977,26.317 C26.479,26.317 26.871,26.163 27.153,25.854 C27.436,25.546 27.577,25.118 27.577,24.567 C27.577,24.007 27.432,23.579 27.14,23.286 C26.848,22.991 26.424,22.845 25.867,22.845 C25.266,22.845 24.655,23.009 24.035,23.335 L24.035,23.335 Z M23.23,26.456 C22.638,25.663 22.341,24.491 22.341,22.942 C22.341,21.226 22.693,19.892 23.398,18.938 C24.103,17.987 25.095,17.511 26.373,17.511 C26.774,17.511 27.178,17.556 27.584,17.644 C27.99,17.733 28.338,17.853 28.627,18.001 L28.627,19.22 C28.341,19.106 28.012,19.017 27.639,18.946 C27.265,18.876 26.921,18.841 26.607,18.841 C25.769,18.841 25.142,19.12 24.727,19.681 C24.312,20.241 24.081,21.104 24.035,22.271 C24.773,21.794 25.559,21.558 26.39,21.558 C27.258,21.558 27.955,21.821 28.481,22.349 C29.008,22.876 29.271,23.577 29.271,24.454 C29.271,25.071 29.134,25.62 28.858,26.101 C28.583,26.581 28.187,26.958 27.668,27.233 C27.15,27.509 26.546,27.647 25.855,27.647 C24.698,27.647 23.823,27.251 23.23,26.456 L23.23,26.456 Z M12.485,27.437 L10.917,27.437 L10.917,17.735 L12.821,17.735 L15.733,23.517 L18.701,17.735 L20.549,17.735 L20.549,27.437 L18.981,27.437 L18.981,20.171 L16.461,25.001 L14.921,25.001 L12.485,20.198 L12.485,27.437 Z" id="Amazon-EC2-M6g-Instance_Resource-Icon_light-bg" fill="#D45B07"></path>
    </g>
</svg>