<?xml version="1.0" encoding="UTF-8"?>
<svg width="48px" height="48px" viewBox="0 0 48 48" version="1.1" xmlns="http://www.w3.org/2000/svg" xmlns:xlink="http://www.w3.org/1999/xlink">
    <title>Icon-Resource/Compute/Res_Amazon-EC2_P3-Instance_48_Light</title>
    <g id="Icon-Resource/Compute/Res_Amazon-EC2_P3-Instance_48" stroke="none" stroke-width="1" fill="none" fill-rule="evenodd">
        <path d="M27.5689,29.0107 C26.6729,29.0107 25.7959,28.8237 24.9369,28.4507 L24.9369,27.1347 C25.9579,27.4807 26.8159,27.6537 27.5109,27.6537 C28.1709,27.6537 28.6779,27.5057 29.0349,27.2117 C29.3919,26.9177 29.5709,26.4997 29.5709,25.9587 C29.5709,24.9327 28.9229,24.4187 27.6279,24.4187 C27.2119,24.4187 26.7619,24.4477 26.2809,24.5027 L26.2809,23.4247 L29.0389,20.4287 L25.0769,20.4287 L25.0769,19.0987 L30.8589,19.0987 L30.8589,20.3727 L27.9469,23.2297 C28.0759,23.2197 28.2049,23.2147 28.3339,23.2147 C28.8799,23.2147 29.3729,23.3287 29.8139,23.5577 C30.2559,23.7867 30.6079,24.1117 30.8709,24.5317 C31.1329,24.9507 31.2649,25.4317 31.2649,25.9727 C31.2649,26.5607 31.1159,27.0837 30.8169,27.5407 C30.5179,27.9977 30.0889,28.3577 29.5289,28.6187 C28.9689,28.8797 28.3159,29.0107 27.5689,29.0107 L27.5689,29.0107 Z M18.4419,20.4147 L20.1549,20.4147 C20.6799,20.4147 21.0769,20.5597 21.3439,20.8487 C21.6119,21.1387 21.7459,21.5637 21.7459,22.1227 C21.7459,22.6827 21.6119,23.1077 21.3439,23.3977 C21.0769,23.6867 20.6799,23.8307 20.1549,23.8307 L18.4419,23.8307 L18.4419,20.4147 Z M18.4419,25.1477 L20.3579,25.1477 C21.3199,25.1477 22.0819,24.8757 22.6409,24.3347 C23.2019,23.7937 23.4819,23.0567 23.4819,22.1227 C23.4819,21.1897 23.1989,20.4517 22.6339,19.9107 C22.0699,19.3697 21.3019,19.0987 20.3319,19.0987 L16.7339,19.0987 L16.7339,28.8007 L18.4419,28.8007 L18.4419,25.1477 Z M8.9999,38.9997 L38.9999,38.9997 L38.9999,8.9997 L8.9999,8.9997 L8.9999,38.9997 Z M45.9999,12.9997 L45.9999,10.9997 L40.9999,10.9997 L40.9999,7.9997 C40.9999,7.4477 40.5519,6.9997 39.9999,6.9997 L36.9999,6.9997 L36.9999,1.9997 L34.9999,1.9997 L34.9999,6.9997 L30.9999,6.9997 L30.9999,1.9997 L28.9999,1.9997 L28.9999,6.9997 L24.9999,6.9997 L24.9999,1.9997 L22.9999,1.9997 L22.9999,6.9997 L18.9999,6.9997 L18.9999,1.9997 L16.9999,1.9997 L16.9999,6.9997 L12.9999,6.9997 L12.9999,1.9997 L10.9999,1.9997 L10.9999,6.9997 L7.9999,6.9997 C7.4469,6.9997 6.9999,7.4477 6.9999,7.9997 L6.9999,10.9997 L1.9999,10.9997 L1.9999,12.9997 L6.9999,12.9997 L6.9999,16.9997 L1.9999,16.9997 L1.9999,18.9997 L6.9999,18.9997 L6.9999,22.9997 L1.9999,22.9997 L1.9999,24.9997 L6.9999,24.9997 L6.9999,28.9997 L1.9999,28.9997 L1.9999,30.9997 L6.9999,30.9997 L6.9999,34.9997 L1.9999,34.9997 L1.9999,36.9997 L6.9999,36.9997 L6.9999,39.9997 C6.9999,40.5527 7.4469,40.9997 7.9999,40.9997 L10.9999,40.9997 L10.9999,45.9997 L12.9999,45.9997 L12.9999,40.9997 L16.9999,40.9997 L16.9999,45.9997 L18.9999,45.9997 L18.9999,40.9997 L22.9999,40.9997 L22.9999,45.9997 L24.9999,45.9997 L24.9999,40.9997 L28.9999,40.9997 L28.9999,45.9997 L30.9999,45.9997 L30.9999,40.9997 L34.9999,40.9997 L34.9999,45.9997 L36.9999,45.9997 L36.9999,40.9997 L39.9999,40.9997 C40.5519,40.9997 40.9999,40.5527 40.9999,39.9997 L40.9999,36.9997 L45.9999,36.9997 L45.9999,34.9997 L40.9999,34.9997 L40.9999,30.9997 L45.9999,30.9997 L45.9999,28.9997 L40.9999,28.9997 L40.9999,24.9997 L45.9999,24.9997 L45.9999,22.9997 L40.9999,22.9997 L40.9999,18.9997 L45.9999,18.9997 L45.9999,16.9997 L40.9999,16.9997 L40.9999,12.9997 L45.9999,12.9997 Z" id="Amazon-Containers-P3_Resource-Icon_light-bg" fill="#D45B07"></path>
    </g>
</svg>