<?xml version="1.0" encoding="UTF-8"?>
<svg width="48px" height="48px" viewBox="0 0 48 48" version="1.1" xmlns="http://www.w3.org/2000/svg" xmlns:xlink="http://www.w3.org/1999/xlink">
    <title>Icon-Resource/Compute/Res_Amazon-EC2_P3dn_48_Light</title>
    <g id="Icon-Resource/Compute/Res_Amazon-EC2_P3dn_48" stroke="none" stroke-width="1" fill="none" fill-rule="evenodd">
        <path d="M9,39 L39,39 L39,9 L9,9 L9,39 Z M46,13 L46,11 L41,11 L41,8 C41,7.448 40.552,7 40,7 L37,7 L37,2 L35,2 L35,7 L31,7 L31,2 L29,2 L29,7 L25,7 L25,2 L23,2 L23,7 L19,7 L19,2 L17,2 L17,7 L13,7 L13,2 L11,2 L11,7 L8,7 C7.448,7 7,7.448 7,8 L7,11 L2,11 L2,13 L7,13 L7,17 L2,17 L2,19 L7,19 L7,23 L2,23 L2,25 L7,25 L7,29 L2,29 L2,31 L7,31 L7,35 L2,35 L2,37 L7,37 L7,40 C7,40.552 7.448,41 8,41 L11,41 L11,46 L13,46 L13,41 L17,41 L17,46 L19,46 L19,41 L23,41 L23,46 L25,46 L25,41 L29,41 L29,46 L31,46 L31,41 L35,41 L35,46 L37,46 L37,41 L40,41 C40.552,41 41,40.552 41,40 L41,37 L46,37 L46,35 L41,35 L41,31 L46,31 L46,29 L41,29 L41,25 L46,25 L46,23 L41,23 L41,19 L46,19 L46,17 L41,17 L41,13 L46,13 Z M32.261,27.729 L30.963,27.729 L30.963,22.13 L32.041,22.13 L32.173,22.746 C32.862,22.226 33.581,21.965 34.329,21.965 C34.864,21.965 35.271,22.106 35.55,22.389 C35.829,22.671 35.968,23.08 35.968,23.615 L35.968,27.729 L34.67,27.729 L34.67,24.022 C34.67,23.663 34.597,23.4 34.45,23.235 C34.303,23.07 34.068,22.988 33.746,22.988 C33.262,22.988 32.767,23.149 32.261,23.472 L32.261,27.729 Z M25.974,23.456 C26.205,23.144 26.566,22.988 27.058,22.988 C27.512,22.988 27.927,23.12 28.301,23.384 L28.301,26.409 C27.89,26.688 27.468,26.827 27.036,26.827 C26.097,26.827 25.628,26.182 25.628,24.891 C25.628,24.246 25.743,23.767 25.974,23.456 L25.974,23.456 Z M26.629,27.85 C27.281,27.85 27.857,27.63 28.356,27.19 L28.488,27.729 L29.599,27.729 L29.599,19.589 L28.301,19.589 L28.301,22.537 C27.817,22.156 27.281,21.965 26.695,21.965 C26.203,21.965 25.778,22.091 25.419,22.345 C25.06,22.598 24.784,22.948 24.594,23.395 C24.403,23.842 24.308,24.359 24.308,24.946 C24.308,25.833 24.519,26.539 24.94,27.063 C25.362,27.588 25.925,27.85 26.629,27.85 L26.629,27.85 Z M20.326,27.894 C19.622,27.894 18.932,27.747 18.258,27.454 L18.258,26.42 C19.06,26.691 19.734,26.827 20.28,26.827 C20.798,26.827 21.197,26.711 21.478,26.48 C21.758,26.25 21.899,25.921 21.899,25.496 C21.899,24.689 21.39,24.286 20.372,24.286 C20.044,24.286 19.692,24.308 19.313,24.352 L19.313,23.505 L21.48,21.151 L18.368,21.151 L18.368,20.106 L22.911,20.106 L22.911,21.107 L20.623,23.351 C20.724,23.344 20.825,23.34 20.927,23.34 C21.355,23.34 21.743,23.43 22.09,23.609 C22.437,23.789 22.713,24.044 22.92,24.374 C23.126,24.704 23.229,25.082 23.229,25.507 C23.229,25.969 23.112,26.38 22.877,26.739 C22.643,27.099 22.306,27.381 21.866,27.586 C21.426,27.791 20.912,27.894 20.326,27.894 L20.326,27.894 Z M13.374,21.14 L14.72,21.14 C15.133,21.14 15.445,21.254 15.655,21.481 C15.865,21.708 15.97,22.042 15.97,22.482 C15.97,22.922 15.865,23.256 15.655,23.483 C15.445,23.71 15.133,23.824 14.72,23.824 L13.374,23.824 L13.374,21.14 Z M13.374,24.858 L14.879,24.858 C15.636,24.858 16.234,24.646 16.674,24.22 C17.114,23.795 17.334,23.215 17.334,22.482 C17.334,21.749 17.112,21.169 16.668,20.744 C16.225,20.319 15.622,20.106 14.859,20.106 L12.032,20.106 L12.032,27.729 L13.374,27.729 L13.374,24.858 Z" id="Fill-1" fill="#D45B07"></path>
    </g>
</svg>