<?xml version="1.0" encoding="UTF-8"?>
<svg width="48px" height="48px" viewBox="0 0 48 48" version="1.1" xmlns="http://www.w3.org/2000/svg" xmlns:xlink="http://www.w3.org/1999/xlink">
    <title>Icon-Resource/Compute/Res_Amazon-EC2_P2-Instance_48_Light</title>
    <g id="Icon-Resource/Compute/Res_Amazon-EC2_P2-Instance_48" stroke="none" stroke-width="1" fill="none" fill-rule="evenodd">
        <path d="M31.392,28.824 L24.812,28.824 L24.812,27.564 C26.1,26.258 27.047,25.255 27.654,24.554 C28.26,23.854 28.68,23.29 28.913,22.86 C29.147,22.431 29.264,22.034 29.264,21.671 C29.264,21.241 29.138,20.907 28.886,20.67 C28.634,20.431 28.279,20.312 27.822,20.312 C27.42,20.312 26.984,20.403 26.513,20.586 C26.041,20.767 25.563,21.026 25.078,21.362 L25.078,19.99 C25.969,19.262 26.955,18.898 28.032,18.898 C28.617,18.898 29.127,19.004 29.564,19.214 C30.001,19.424 30.342,19.724 30.588,20.116 C30.834,20.509 30.957,20.975 30.957,21.516 C30.957,22.039 30.814,22.569 30.527,23.105 C30.24,23.642 29.778,24.254 29.14,24.939 C28.503,25.625 27.624,26.477 26.505,27.494 L31.392,27.494 L31.392,28.824 Z M18.317,20.438 L20.03,20.438 C20.555,20.438 20.952,20.583 21.219,20.872 C21.487,21.162 21.621,21.587 21.621,22.146 C21.621,22.706 21.487,23.131 21.219,23.421 C20.952,23.71 20.555,23.854 20.03,23.854 L18.317,23.854 L18.317,20.438 Z M18.317,25.171 L20.233,25.171 C21.195,25.171 21.956,24.899 22.516,24.358 C23.077,23.817 23.357,23.08 23.357,22.146 C23.357,21.213 23.074,20.475 22.509,19.934 C21.945,19.393 21.177,19.122 20.206,19.122 L16.609,19.122 L16.609,28.824 L18.317,28.824 L18.317,25.171 Z M9,39 L39,39 L39,9 L9,9 L9,39 Z M46,13 L46,11 L41,11 L41,8 C41,7.447 40.553,7 40,7 L37,7 L37,2 L35,2 L35,7 L31,7 L31,2 L29,2 L29,7 L25,7 L25,2 L23,2 L23,7 L19,7 L19,2 L17,2 L17,7 L13,7 L13,2 L11,2 L11,7 L8,7 C7.448,7 7,7.447 7,8 L7,11 L2,11 L2,13 L7,13 L7,17 L2,17 L2,19 L7,19 L7,23 L2,23 L2,25 L7,25 L7,29 L2,29 L2,31 L7,31 L7,35 L2,35 L2,37 L7,37 L7,40 C7,40.553 7.448,41 8,41 L11,41 L11,46 L13,46 L13,41 L17,41 L17,46 L19,46 L19,41 L23,41 L23,46 L25,46 L25,41 L29,41 L29,46 L31,46 L31,41 L35,41 L35,46 L37,46 L37,41 L40,41 C40.553,41 41,40.553 41,40 L41,37 L46,37 L46,35 L41,35 L41,31 L46,31 L46,29 L41,29 L41,25 L46,25 L46,23 L41,23 L41,19 L46,19 L46,17 L41,17 L41,13 L46,13 Z" id="Amazon-EC2-P2-Instance_Resource-Icon_light-bg" fill="#D45B07"></path>
    </g>
</svg>