<?xml version="1.0" encoding="UTF-8"?>
<svg width="48px" height="48px" viewBox="0 0 48 48" version="1.1" xmlns="http://www.w3.org/2000/svg" xmlns:xlink="http://www.w3.org/1999/xlink">
    <title>Icon-Resource/Compute/Res_Amazon-EC2_P4d_48_Light</title>
    <g id="Icon-Resource/Compute/Res_Amazon-EC2_P4d_48" stroke="none" stroke-width="1" fill="none" fill-rule="evenodd">
        <path d="M9,39 L39,39 L39,9 L9,9 L9,39 Z M46,13 L46,11 L41,11 L41,8 C41,7.448 40.552,7 40,7 L37,7 L37,2 L35,2 L35,7 L31,7 L31,2 L29,2 L29,7 L25,7 L25,2 L23,2 L23,7 L19,7 L19,2 L17,2 L17,7 L13,7 L13,2 L11,2 L11,7 L8,7 C7.448,7 7,7.448 7,8 L7,11 L2,11 L2,13 L7,13 L7,17 L2,17 L2,19 L7,19 L7,23 L2,23 L2,25 L7,25 L7,29 L2,29 L2,31 L7,31 L7,35 L2,35 L2,37 L7,37 L7,40 C7,40.552 7.448,41 8,41 L11,41 L11,46 L13,46 L13,41 L17,41 L17,46 L19,46 L19,41 L23,41 L23,46 L25,46 L25,41 L29,41 L29,46 L31,46 L31,41 L35,41 L35,46 L37,46 L37,41 L40,41 C40.552,41 41,40.552 41,40 L41,37 L46,37 L46,35 L41,35 L41,31 L46,31 L46,29 L41,29 L41,25 L46,25 L46,23 L41,23 L41,19 L46,19 L46,17 L41,17 L41,13 L46,13 Z M30.564,23.29 C30.858,22.894 31.318,22.695 31.943,22.695 C32.522,22.695 33.049,22.863 33.525,23.199 L33.525,27.049 C33.002,27.404 32.466,27.581 31.916,27.581 C30.721,27.581 30.124,26.76 30.124,25.117 C30.124,24.296 30.271,23.687 30.564,23.29 L30.564,23.29 Z M31.397,28.883 C32.228,28.883 32.96,28.603 33.595,28.043 L33.763,28.729 L35.177,28.729 L35.177,18.369 L33.525,18.369 L33.525,22.121 C32.909,21.636 32.228,21.393 31.481,21.393 C30.856,21.393 30.314,21.554 29.857,21.876 C29.4,22.198 29.05,22.644 28.807,23.213 C28.564,23.782 28.443,24.44 28.443,25.187 C28.443,26.316 28.711,27.215 29.249,27.882 C29.785,28.549 30.501,28.883 31.397,28.883 L31.397,28.883 Z M21.919,25.397 L24.845,21.127 L24.845,25.397 L21.919,25.397 Z M24.845,28.729 L26.511,28.729 L26.511,26.713 L27.813,26.713 L27.813,25.397 L26.511,25.397 L26.511,19.027 L24.775,19.027 L20.253,25.467 L20.253,26.713 L24.845,26.713 L24.845,28.729 Z M14.527,20.343 L16.241,20.343 C16.766,20.343 17.163,20.488 17.43,20.777 C17.698,21.066 17.832,21.491 17.832,22.051 C17.832,22.611 17.698,23.036 17.43,23.325 C17.163,23.614 16.766,23.759 16.241,23.759 L14.527,23.759 L14.527,20.343 Z M14.527,25.075 L16.443,25.075 C17.406,25.075 18.167,24.804 18.728,24.263 C19.288,23.722 19.567,22.984 19.567,22.051 C19.567,21.118 19.285,20.38 18.72,19.839 C18.156,19.298 17.388,19.027 16.417,19.027 L12.819,19.027 L12.819,28.729 L14.527,28.729 L14.527,25.075 Z" id="Fill-1" fill="#D45B07"></path>
    </g>
</svg>