<?xml version="1.0" encoding="UTF-8"?>
<svg width="48px" height="48px" viewBox="0 0 48 48" version="1.1" xmlns="http://www.w3.org/2000/svg" xmlns:xlink="http://www.w3.org/1999/xlink">
    <title>Icon-Resource/Compute/Res_Amazon-EC2_R5gd_48_Light</title>
    <g id="Icon-Resource/Compute/Res_Amazon-EC2_R5gd_48" stroke="none" stroke-width="1" fill="none" fill-rule="evenodd">
        <path d="M9,39 L39,39 L39,9 L9,9 L9,39 Z M46,13 L46,11 L41,11 L41,8 C41,7.448 40.552,7 40,7 L37,7 L37,2 L35,2 L35,7 L31,7 L31,2 L29,2 L29,7 L25,7 L25,2 L23,2 L23,7 L19,7 L19,2 L17,2 L17,7 L13,7 L13,2 L11,2 L11,7 L8,7 C7.448,7 7,7.448 7,8 L7,11 L2,11 L2,13 L7,13 L7,17 L2,17 L2,19 L7,19 L7,23 L2,23 L2,25 L7,25 L7,29 L2,29 L2,31 L7,31 L7,35 L2,35 L2,37 L7,37 L7,40 C7,40.552 7.448,41 8,41 L11,41 L11,46 L13,46 L13,41 L17,41 L17,46 L19,46 L19,41 L23,41 L23,46 L25,46 L25,41 L29,41 L29,46 L31,46 L31,41 L35,41 L35,46 L37,46 L37,41 L40,41 C40.552,41 41,40.552 41,40 L41,37 L46,37 L46,35 L41,35 L41,31 L46,31 L46,29 L41,29 L41,25 L46,25 L46,23 L41,23 L41,19 L46,19 L46,17 L41,17 L41,13 L46,13 Z M32.338,23.456 C32.569,23.144 32.93,22.988 33.421,22.988 C33.876,22.988 34.291,23.12 34.665,23.384 L34.665,26.409 C34.254,26.688 33.832,26.827 33.399,26.827 C32.461,26.827 31.992,26.182 31.992,24.891 C31.992,24.246 32.107,23.767 32.338,23.456 L32.338,23.456 Z M32.993,27.85 C33.645,27.85 34.221,27.63 34.72,27.19 L34.852,27.729 L35.962,27.729 L35.962,19.589 L34.665,19.589 L34.665,22.537 C34.181,22.156 33.645,21.965 33.059,21.965 C32.567,21.965 32.142,22.091 31.783,22.345 C31.423,22.598 31.148,22.948 30.958,23.395 C30.767,23.842 30.671,24.359 30.671,24.946 C30.671,25.833 30.882,26.539 31.304,27.063 C31.726,27.588 32.289,27.85 32.993,27.85 L32.993,27.85 Z M26.101,23.417 C26.317,23.124 26.649,22.977 27.097,22.977 C27.529,22.977 27.937,23.109 28.318,23.373 L28.318,26.189 C27.929,26.475 27.518,26.618 27.085,26.618 C26.213,26.618 25.777,26.002 25.777,24.77 C25.777,24.162 25.885,23.71 26.101,23.417 L26.101,23.417 Z M26.701,27.619 C27.302,27.619 27.841,27.414 28.318,27.003 L28.318,27.476 C28.318,28.048 28.193,28.46 27.944,28.713 C27.694,28.966 27.295,29.093 26.745,29.093 C26.202,29.093 25.59,28.979 24.908,28.752 L24.908,29.676 C25.512,29.977 26.153,30.127 26.831,30.127 C27.722,30.127 28.409,29.885 28.892,29.401 C29.375,28.917 29.616,28.231 29.616,27.344 L29.616,22.13 L28.516,22.13 L28.406,22.636 C27.937,22.189 27.383,21.965 26.745,21.965 C26.275,21.965 25.868,22.086 25.524,22.328 C25.179,22.57 24.915,22.905 24.731,23.334 C24.548,23.764 24.457,24.257 24.457,24.814 C24.457,25.665 24.66,26.345 25.067,26.854 C25.474,27.364 26.019,27.619 26.701,27.619 L26.701,27.619 Z M20.541,27.894 C19.807,27.894 19.103,27.747 18.429,27.454 L18.429,26.42 C19.23,26.691 19.923,26.827 20.506,26.827 C21.592,26.827 22.136,26.358 22.136,25.419 C22.136,24.964 21.999,24.632 21.726,24.423 C21.453,24.214 21.017,24.11 20.42,24.11 C19.975,24.11 19.418,24.147 18.748,24.22 L18.748,23.384 L18.957,20.106 L23.093,20.106 L23.093,21.151 L20.182,21.151 L20.057,23.186 C20.357,23.127 20.675,23.098 21.011,23.098 C21.774,23.098 22.374,23.303 22.811,23.714 C23.248,24.125 23.467,24.686 23.467,25.397 C23.467,26.16 23.203,26.767 22.675,27.217 C22.146,27.668 21.435,27.894 20.541,27.894 L20.541,27.894 Z M13.347,21.14 L14.714,21.14 C15.548,21.14 15.964,21.562 15.964,22.405 C15.964,23.249 15.537,23.67 14.682,23.67 L13.347,23.67 L13.347,21.14 Z M13.347,24.704 L14.688,24.704 L16.471,27.729 L17.813,27.729 L15.844,24.473 C16.328,24.282 16.696,24.007 16.949,23.648 C17.202,23.289 17.329,22.86 17.329,22.361 C17.329,21.672 17.103,21.124 16.652,20.716 C16.201,20.31 15.602,20.106 14.854,20.106 L12.004,20.106 L12.004,27.729 L13.347,27.729 L13.347,24.704 Z" id="Fill-1" fill="#D45B07"></path>
    </g>
</svg>