<?xml version="1.0" encoding="UTF-8"?>
<svg width="48px" height="48px" viewBox="0 0 48 48" version="1.1" xmlns="http://www.w3.org/2000/svg" xmlns:xlink="http://www.w3.org/1999/xlink">
    <title>Icon-Resource/Compute/Res_Amazon-EC2_R6i-Instance_48_Light</title>
    <g id="Icon-Resource/Compute/Res_Amazon-EC2_R6i-Instance_48" stroke="none" stroke-width="1" fill="none" fill-rule="evenodd">
        <path d="M9,39 L39,39 L39,9 L9,9 L9,39 Z M46,13 L46,11 L41,11 L41,8 C41,7.448 40.552,7 40,7 L37,7 L37,2 L35,2 L35,7 L31,7 L31,2 L29,2 L29,7 L25,7 L25,2 L23,2 L23,7 L19,7 L19,2 L17,2 L17,7 L13,7 L13,2 L11,2 L11,7 L8,7 C7.448,7 7,7.448 7,8 L7,11 L2,11 L2,13 L7,13 L7,17 L2,17 L2,19 L7,19 L7,23 L2,23 L2,25 L7,25 L7,29 L2,29 L2,31 L7,31 L7,35 L2,35 L2,37 L7,37 L7,40 C7,40.552 7.448,41 8,41 L11,41 L11,46 L13,46 L13,41 L17,41 L17,46 L19,46 L19,41 L23,41 L23,46 L25,46 L25,41 L29,41 L29,46 L31,46 L31,41 L35,41 L35,46 L37,46 L37,41 L40,41 C40.552,41 41,40.552 41,40 L41,37 L46,37 L46,35 L41,35 L41,31 L46,31 L46,29 L41,29 L41,25 L46,25 L46,23 L41,23 L41,19 L46,19 L46,17 L41,17 L41,13 L46,13 Z M31.376,20.175 C31.199,20.007 31.11,19.774 31.11,19.475 C31.11,19.176 31.199,18.943 31.376,18.775 C31.554,18.607 31.796,18.523 32.104,18.523 C32.413,18.523 32.655,18.607 32.833,18.775 C33.01,18.943 33.098,19.176 33.098,19.475 C33.098,19.774 33.01,20.007 32.833,20.175 C32.655,20.343 32.413,20.427 32.104,20.427 C31.796,20.427 31.554,20.343 31.376,20.175 L31.376,20.175 Z M31.278,28.729 L32.93,28.729 L32.93,21.603 L31.278,21.603 L31.278,28.729 Z M26.488,24.137 C27.044,24.137 27.469,24.284 27.76,24.578 C28.052,24.872 28.198,25.299 28.198,25.859 C28.198,26.41 28.057,26.839 27.774,27.147 C27.492,27.455 27.099,27.609 26.598,27.609 C25.367,27.609 24.72,26.615 24.656,24.627 C25.276,24.3 25.887,24.137 26.488,24.137 L26.488,24.137 Z M26.476,28.939 C27.167,28.939 27.771,28.801 28.289,28.526 C28.807,28.251 29.204,27.873 29.479,27.392 C29.754,26.912 29.892,26.363 29.892,25.747 C29.892,24.87 29.629,24.167 29.103,23.64 C28.576,23.113 27.879,22.849 27.011,22.849 C26.18,22.849 25.395,23.087 24.656,23.563 C24.702,22.396 24.933,21.533 25.348,20.973 C25.763,20.413 26.39,20.133 27.229,20.133 C27.542,20.133 27.885,20.168 28.259,20.238 C28.632,20.308 28.962,20.399 29.248,20.511 L29.248,19.293 C28.958,19.144 28.611,19.025 28.205,18.936 C27.799,18.847 27.395,18.803 26.994,18.803 C25.715,18.803 24.724,19.279 24.019,20.231 C23.314,21.183 22.962,22.518 22.962,24.235 C22.962,25.784 23.258,26.956 23.851,27.749 C24.444,28.542 25.319,28.939 26.476,28.939 L26.476,28.939 Z M16.718,20.343 L18.459,20.343 C19.52,20.343 20.05,20.88 20.05,21.953 C20.05,23.026 19.506,23.563 18.418,23.563 L16.718,23.563 L16.718,20.343 Z M16.718,24.879 L18.426,24.879 L20.694,28.729 L22.402,28.729 L19.896,24.585 C20.512,24.342 20.981,23.992 21.303,23.535 C21.625,23.078 21.786,22.532 21.786,21.897 C21.786,21.02 21.5,20.322 20.925,19.804 C20.351,19.286 19.588,19.027 18.636,19.027 L15.01,19.027 L15.01,28.729 L16.718,28.729 L16.718,24.879 Z" id="Fill-1" fill="#D45B07"></path>
    </g>
</svg>