<?xml version="1.0" encoding="UTF-8"?>
<svg width="48px" height="48px" viewBox="0 0 48 48" version="1.1" xmlns="http://www.w3.org/2000/svg" xmlns:xlink="http://www.w3.org/1999/xlink">
    <title>Icon-Resource/Compute/Res_Amazon-EC2_R5n-Instance_48_Light</title>
    <g id="Icon-Resource/Compute/Res_Amazon-EC2_R5n-Instance_48" stroke="none" stroke-width="1" fill="none" fill-rule="evenodd">
        <path d="M30.328,28.884 L28.676,28.884 L28.676,21.757 L30.048,21.757 L30.216,22.542 C31.093,21.88 32.008,21.548 32.96,21.548 C33.641,21.548 34.159,21.728 34.514,22.087 C34.868,22.447 35.046,22.966 35.046,23.648 L35.046,28.884 L33.393,28.884 L33.393,24.165 C33.393,23.708 33.301,23.374 33.114,23.165 C32.927,22.954 32.629,22.849 32.218,22.849 C31.601,22.849 30.972,23.056 30.328,23.466 L30.328,28.884 Z M23.748,29.093 C22.814,29.093 21.919,28.907 21.06,28.534 L21.06,27.218 C22.08,27.564 22.962,27.736 23.704,27.736 C25.087,27.736 25.778,27.138 25.778,25.945 C25.778,25.364 25.604,24.943 25.256,24.677 C24.908,24.411 24.354,24.279 23.595,24.279 C23.028,24.279 22.319,24.325 21.466,24.417 L21.466,23.355 L21.732,19.181 L26.996,19.181 L26.996,20.511 L23.291,20.511 L23.132,23.101 C23.515,23.027 23.92,22.989 24.348,22.989 C25.317,22.989 26.081,23.251 26.638,23.775 C27.193,24.296 27.472,25.011 27.472,25.915 C27.472,26.886 27.136,27.659 26.464,28.234 C25.792,28.806 24.887,29.093 23.748,29.093 L23.748,29.093 Z M14.662,20.497 L16.402,20.497 C17.463,20.497 17.994,21.034 17.994,22.109 C17.994,23.181 17.449,23.718 16.361,23.718 L14.662,23.718 L14.662,20.497 Z M14.662,25.034 L16.37,25.034 L18.638,28.884 L20.346,28.884 L17.84,24.739 C18.456,24.497 18.925,24.148 19.247,23.691 C19.568,23.232 19.729,22.687 19.729,22.052 C19.729,21.175 19.442,20.476 18.869,19.958 C18.295,19.441 17.531,19.181 16.58,19.181 L12.954,19.181 L12.954,28.884 L14.662,28.884 L14.662,25.034 Z M9,39 L39,39 L39,9 L9,9 L9,39 Z M46,13 L46,11 L41,11 L41,8 C41,7.447 40.553,7 40,7 L37,7 L37,2 L35,2 L35,7 L31,7 L31,2 L29,2 L29,7 L25,7 L25,2 L23,2 L23,7 L19,7 L19,2 L17,2 L17,7 L13,7 L13,2 L11,2 L11,7 L8,7 C7.447,7 7,7.447 7,8 L7,11 L2,11 L2,13 L7,13 L7,17 L2,17 L2,19 L7,19 L7,23 L2,23 L2,25 L7,25 L7,29 L2,29 L2,31 L7,31 L7,35 L2,35 L2,37 L7,37 L7,40 C7,40.553 7.447,41 8,41 L11,41 L11,46 L13,46 L13,41 L17,41 L17,46 L19,46 L19,41 L23,41 L23,46 L25,46 L25,41 L29,41 L29,46 L31,46 L31,41 L35,41 L35,46 L37,46 L37,41 L40,41 C40.553,41 41,40.553 41,40 L41,37 L46,37 L46,35 L41,35 L41,31 L46,31 L46,29 L41,29 L41,25 L46,25 L46,23 L41,23 L41,19 L46,19 L46,17 L41,17 L41,13 L46,13 Z" id="Amazon-EC2-R5n-Instance_Resource-Icon_light-bg" fill="#D45B07"></path>
    </g>
</svg>