<?xml version="1.0" encoding="UTF-8"?>
<svg width="48px" height="48px" viewBox="0 0 48 48" version="1.1" xmlns="http://www.w3.org/2000/svg" xmlns:xlink="http://www.w3.org/1999/xlink">
    <title>Icon-Resource/Compute/Res_Amazon-EC2_R5ad_48_Light</title>
    <g id="Icon-Resource/Compute/Res_Amazon-EC2_R5ad_48" stroke="none" stroke-width="1" fill="none" fill-rule="evenodd">
        <path d="M9,39 L39,39 L39,9 L9,9 L9,39 Z M46,13 L46,11 L41,11 L41,8 C41,7.448 40.552,7 40,7 L37,7 L37,2 L35,2 L35,7 L31,7 L31,2 L29,2 L29,7 L25,7 L25,2 L23,2 L23,7 L19,7 L19,2 L17,2 L17,7 L13,7 L13,2 L11,2 L11,7 L8,7 C7.448,7 7,7.448 7,8 L7,11 L2,11 L2,13 L7,13 L7,17 L2,17 L2,19 L7,19 L7,23 L2,23 L2,25 L7,25 L7,29 L2,29 L2,31 L7,31 L7,35 L2,35 L2,37 L7,37 L7,40 C7,40.552 7.448,41 8,41 L11,41 L11,46 L13,46 L13,41 L17,41 L17,46 L19,46 L19,41 L23,41 L23,46 L25,46 L25,41 L29,41 L29,46 L31,46 L31,41 L35,41 L35,46 L37,46 L37,41 L40,41 C40.552,41 41,40.552 41,40 L41,37 L46,37 L46,35 L41,35 L41,31 L46,31 L46,29 L41,29 L41,25 L46,25 L46,23 L41,23 L41,19 L46,19 L46,17 L41,17 L41,13 L46,13 Z M32.051,23.456 C32.282,23.144 32.644,22.988 33.135,22.988 C33.589,22.988 34.004,23.12 34.378,23.384 L34.378,26.409 C33.967,26.688 33.545,26.827 33.113,26.827 C32.174,26.827 31.705,26.182 31.705,24.891 C31.705,24.246 31.82,23.767 32.051,23.456 L32.051,23.456 Z M32.706,27.85 C33.358,27.85 33.934,27.63 34.433,27.19 L34.565,27.729 L35.676,27.729 L35.676,19.589 L34.378,19.589 L34.378,22.537 C33.894,22.156 33.358,21.965 32.772,21.965 C32.28,21.965 31.855,22.091 31.496,22.345 C31.137,22.598 30.861,22.948 30.671,23.395 C30.48,23.842 30.385,24.359 30.385,24.946 C30.385,25.833 30.596,26.539 31.018,27.063 C31.439,27.588 32.002,27.85 32.706,27.85 L32.706,27.85 Z M28.119,26.442 C27.905,26.611 27.683,26.741 27.455,26.833 C27.226,26.924 27.008,26.97 26.8,26.97 C26.55,26.97 26.354,26.898 26.21,26.755 C26.068,26.612 25.996,26.413 25.996,26.156 C25.996,25.562 26.368,25.265 27.111,25.265 C27.404,25.265 27.741,25.305 28.119,25.386 L28.119,26.442 Z M26.843,24.451 C26.183,24.451 25.657,24.612 25.265,24.935 C24.873,25.258 24.676,25.69 24.676,26.233 C24.676,26.725 24.836,27.124 25.155,27.432 C25.474,27.74 25.89,27.894 26.403,27.894 C26.711,27.894 27.021,27.832 27.333,27.707 C27.645,27.583 27.929,27.41 28.186,27.19 L28.284,27.729 L29.417,27.729 L29.417,23.78 C29.417,23.157 29.244,22.698 28.896,22.405 C28.549,22.112 28.01,21.965 27.278,21.965 C26.875,21.965 26.474,22.005 26.075,22.086 C25.675,22.167 25.337,22.277 25.062,22.416 L25.062,23.329 C25.802,23.087 26.458,22.966 27.03,22.966 C27.434,22.966 27.716,23.04 27.877,23.186 C28.039,23.333 28.119,23.593 28.119,23.967 L28.119,24.616 C27.657,24.506 27.232,24.451 26.843,24.451 L26.843,24.451 Z M20.826,27.894 C20.093,27.894 19.389,27.747 18.714,27.454 L18.714,26.42 C19.516,26.691 20.208,26.827 20.792,26.827 C21.878,26.827 22.421,26.358 22.421,25.419 C22.421,24.964 22.285,24.632 22.011,24.423 C21.738,24.214 21.303,24.11 20.706,24.11 C20.261,24.11 19.704,24.147 19.033,24.22 L19.033,23.384 L19.242,20.106 L23.378,20.106 L23.378,21.151 L20.467,21.151 L20.342,23.186 C20.643,23.127 20.961,23.098 21.297,23.098 C22.06,23.098 22.659,23.303 23.096,23.714 C23.534,24.125 23.752,24.686 23.752,25.397 C23.752,26.16 23.488,26.767 22.96,27.217 C22.432,27.668 21.721,27.894 20.826,27.894 L20.826,27.894 Z M13.632,21.14 L15,21.14 C15.833,21.14 16.25,21.562 16.25,22.405 C16.25,23.249 15.823,23.67 14.968,23.67 L13.632,23.67 L13.632,21.14 Z M13.632,24.704 L14.974,24.704 L16.756,27.729 L18.098,27.729 L16.129,24.473 C16.613,24.282 16.981,24.007 17.235,23.648 C17.488,23.289 17.614,22.86 17.614,22.361 C17.614,21.672 17.389,21.124 16.938,20.716 C16.487,20.31 15.887,20.106 15.139,20.106 L12.29,20.106 L12.29,27.729 L13.632,27.729 L13.632,24.704 Z" id="Fill-1" fill="#D45B07"></path>
    </g>
</svg>