<?xml version="1.0" encoding="UTF-8"?>
<svg width="48px" height="48px" viewBox="0 0 48 48" version="1.1" xmlns="http://www.w3.org/2000/svg" xmlns:xlink="http://www.w3.org/1999/xlink">
    <title>Icon-Resource/Compute/Res_Amazon-EC2_T4g-Instance_48_Light</title>
    <g id="Icon-Resource/Compute/Res_Amazon-EC2_T4g-Instance_48" stroke="none" stroke-width="1" fill="none" fill-rule="evenodd">
        <path d="M30.3789,23.3574 C30.6529,22.9844 31.0759,22.7974 31.6459,22.7974 C32.1959,22.7974 32.7139,22.9654 33.1989,23.3014 L33.1989,26.8854 C32.7049,27.2504 32.1829,27.4314 31.6319,27.4314 C30.5209,27.4314 29.9659,26.6474 29.9659,25.0804 C29.9659,24.3044 30.1039,23.7314 30.3789,23.3574 L30.3789,23.3574 Z M31.1419,28.7064 C31.9069,28.7064 32.5929,28.4444 33.1989,27.9214 L33.1989,28.5234 C33.1989,29.2524 33.0409,29.7764 32.7239,30.0984 C32.4059,30.4204 31.8979,30.5824 31.1969,30.5824 C30.5069,30.5824 29.7279,30.4364 28.8589,30.1474 L28.8589,31.3234 C29.6289,31.7064 30.4439,31.8974 31.3069,31.8974 C32.4419,31.8974 33.3169,31.5894 33.9309,30.9734 C34.5449,30.3574 34.8519,29.4854 34.8519,28.3554 L34.8519,21.7194 L33.4509,21.7194 L33.3119,22.3634 C32.7139,21.7954 32.0099,21.5094 31.1969,21.5094 C30.6009,21.5094 30.0819,21.6644 29.6439,21.9714 C29.2049,22.2794 28.8689,22.7074 28.6359,23.2534 C28.4019,23.7984 28.2849,24.4264 28.2849,25.1354 C28.2849,26.2184 28.5449,27.0844 29.0629,27.7324 C29.5809,28.3814 30.2739,28.7064 31.1419,28.7064 L31.1419,28.7064 Z M15.4959,20.5444 L12.4579,20.5444 L12.4579,19.1434 L20.2419,19.1434 L20.2419,20.5444 L17.2039,20.5444 L17.2039,28.8454 L15.4959,28.8454 L15.4959,20.5444 Z M24.4069,21.2444 L24.4069,25.5134 L21.4819,25.5134 L24.4069,21.2444 Z M19.8159,26.8304 L24.4069,26.8304 L24.4069,28.8454 L26.0729,28.8454 L26.0729,26.8304 L27.3759,26.8304 L27.3759,25.5134 L26.0729,25.5134 L26.0729,19.1434 L24.3379,19.1434 L19.8159,25.5844 L19.8159,26.8304 Z M8.9999,39.0004 L38.9999,39.0004 L38.9999,9.0004 L8.9999,9.0004 L8.9999,39.0004 Z M45.9999,13.0004 L45.9999,11.0004 L40.9999,11.0004 L40.9999,8.0004 C40.9999,7.4474 40.5529,7.0004 39.9999,7.0004 L36.9999,7.0004 L36.9999,2.0004 L34.9999,2.0004 L34.9999,7.0004 L30.9999,7.0004 L30.9999,2.0004 L28.9999,2.0004 L28.9999,7.0004 L24.9999,7.0004 L24.9999,2.0004 L22.9999,2.0004 L22.9999,7.0004 L18.9999,7.0004 L18.9999,2.0004 L16.9999,2.0004 L16.9999,7.0004 L12.9999,7.0004 L12.9999,2.0004 L10.9999,2.0004 L10.9999,7.0004 L7.9999,7.0004 C7.4469,7.0004 6.9999,7.4474 6.9999,8.0004 L6.9999,11.0004 L1.9999,11.0004 L1.9999,13.0004 L6.9999,13.0004 L6.9999,17.0004 L1.9999,17.0004 L1.9999,19.0004 L6.9999,19.0004 L6.9999,23.0004 L1.9999,23.0004 L1.9999,25.0004 L6.9999,25.0004 L6.9999,29.0004 L1.9999,29.0004 L1.9999,31.0004 L6.9999,31.0004 L6.9999,35.0004 L1.9999,35.0004 L1.9999,37.0004 L6.9999,37.0004 L6.9999,40.0004 C6.9999,40.5524 7.4469,41.0004 7.9999,41.0004 L10.9999,41.0004 L10.9999,46.0004 L12.9999,46.0004 L12.9999,41.0004 L16.9999,41.0004 L16.9999,46.0004 L18.9999,46.0004 L18.9999,41.0004 L22.9999,41.0004 L22.9999,46.0004 L24.9999,46.0004 L24.9999,41.0004 L28.9999,41.0004 L28.9999,46.0004 L30.9999,46.0004 L30.9999,41.0004 L34.9999,41.0004 L34.9999,46.0004 L36.9999,46.0004 L36.9999,41.0004 L39.9999,41.0004 C40.5529,41.0004 40.9999,40.5524 40.9999,40.0004 L40.9999,37.0004 L45.9999,37.0004 L45.9999,35.0004 L40.9999,35.0004 L40.9999,31.0004 L45.9999,31.0004 L45.9999,29.0004 L40.9999,29.0004 L40.9999,25.0004 L45.9999,25.0004 L45.9999,23.0004 L40.9999,23.0004 L40.9999,19.0004 L45.9999,19.0004 L45.9999,17.0004 L40.9999,17.0004 L40.9999,13.0004 L45.9999,13.0004 Z" id="Amazon-EC2-T4g-Instance_Resource-Icon_light-bg" fill="#D45B07"></path>
    </g>
</svg>