<?xml version="1.0" encoding="UTF-8"?>
<svg width="48px" height="48px" viewBox="0 0 48 48" version="1.1" xmlns="http://www.w3.org/2000/svg" xmlns:xlink="http://www.w3.org/1999/xlink">
    <title>Icon-Resource/Compute/Res_Icon-Amazon-EC2_Trn1-Instance_48_Light</title>
    <g id="Icon-Resource/Compute/Res_Icon-Amazon-EC2_Trn1-Instance_48" stroke="none" stroke-width="1" fill="none" fill-rule="evenodd">
        <path d="M9,39 L39,39 L39,9 L9,9 L9,39 Z M41,13 L41,17 L46,17 L46,19 L41,19 L41,23 L46,23 L46,25 L41,25 L41,29 L46,29 L46,31 L41,31 L41,35 L46,35 L46,37 L41,37 L41,40 C41,40.552 40.552,41 40,41 L37,41 L37,46 L35,46 L35,41 L31,41 L31,46 L29,46 L29,41 L25,41 L25,46 L23,46 L23,41 L19,41 L19,46 L17,46 L17,41 L13,41 L13,46 L11,46 L11,41 L8,41 C7.448,41 7,40.552 7,40 L7,37 L2,37 L2,35 L7,35 L7,31 L2,31 L2,29 L7,29 L7,25 L2,25 L2,23 L7,23 L7,19 L2,19 L2,17 L7,17 L7,13 L2,13 L2,11 L7,11 L7,8 C7,7.448 7.448,7 8,7 L11,7 L11,2 L13,2 L13,7 L17,7 L17,2 L19,2 L19,7 L23,7 L23,2 L25,2 L25,7 L29,7 L29,2 L31,2 L31,7 L35,7 L35,2 L37,2 L37,7 L40,7 C40.552,7 41,7.448 41,8 L41,11 L46,11 L46,13 L41,13 Z M31.649,28.036 L32.958,28.036 L32.958,20.413 L31.77,20.413 L29.592,21.425 L29.592,22.481 L31.649,21.711 L31.649,28.036 Z M24.257,23.779 C24.763,23.457 25.258,23.295 25.742,23.295 C26.064,23.295 26.299,23.377 26.446,23.542 C26.593,23.708 26.666,23.97 26.666,24.329 L26.666,28.036 L27.964,28.036 L27.964,23.922 C27.964,23.387 27.825,22.978 27.546,22.696 C27.267,22.414 26.86,22.272 26.325,22.272 C25.577,22.272 24.858,22.533 24.169,23.053 L24.037,22.437 L22.959,22.437 L22.959,28.036 L24.257,28.036 L24.257,23.779 Z M20.231,23.977 C20.649,23.699 21.129,23.559 21.672,23.559 C21.885,23.559 22.094,23.578 22.299,23.614 L22.299,22.426 C22.138,22.404 21.987,22.393 21.848,22.393 C21.547,22.393 21.269,22.459 21.012,22.591 C20.755,22.723 20.48,22.951 20.187,23.273 L20.011,22.437 L18.933,22.437 L18.933,28.036 L20.231,28.036 L20.231,23.977 Z M15.072,21.513 L12.685,21.513 L12.685,20.413 L18.801,20.413 L18.801,21.513 L16.414,21.513 L16.414,28.036 L15.072,28.036 L15.072,21.513 Z" id="Fill-1" fill="#D45B07"></path>
    </g>
</svg>