<?xml version="1.0" encoding="UTF-8"?>
<svg width="48px" height="48px" viewBox="0 0 48 48" version="1.1" xmlns="http://www.w3.org/2000/svg" xmlns:xlink="http://www.w3.org/1999/xlink">
    <title>Icon-Resource/Compute/Res_Amazon-EC2_X2ed-Instance_48_Light</title>
    <g id="Icon-Resource/Compute/Res_Amazon-EC2_X2ed-Instance_48" stroke="none" stroke-width="1" fill="none" fill-rule="evenodd">
        <path d="M9,39 L39,39 L39,9 L9,9 L9,39 Z M41,13 L41,17 L46,17 L46,19 L41,19 L41,23 L46,23 L46,25 L41,25 L41,29 L46,29 L46,31 L41,31 L41,35 L46,35 L46,37 L41,37 L41,40 C41,40.552 40.552,41 40,41 L37,41 L37,46 L35,46 L35,41 L31,41 L31,46 L29,46 L29,41 L25,41 L25,46 L23,46 L23,41 L19,41 L19,46 L17,46 L17,41 L13,41 L13,46 L11,46 L11,41 L8,41 C7.448,41 7,40.552 7,40 L7,37 L2,37 L2,35 L7,35 L7,31 L2,31 L2,29 L7,29 L7,25 L2,25 L2,23 L7,23 L7,19 L2,19 L2,17 L7,17 L7,13 L2,13 L2,11 L7,11 L7,8 C7,7.448 7.448,7 8,7 L11,7 L11,2 L13,2 L13,7 L17,7 L17,2 L19,2 L19,7 L23,7 L23,2 L25,2 L25,7 L29,7 L29,2 L31,2 L31,7 L35,7 L35,2 L37,2 L37,7 L40,7 C40.552,7 41,7.448 41,8 L41,11 L46,11 L46,13 L41,13 Z M33.541,23.245 C33.955,22.981 34.359,22.849 34.755,22.849 C35.02,22.849 35.211,22.917 35.332,23.052 C35.452,23.187 35.512,23.401 35.512,23.695 L35.512,26.728 L36.574,26.728 L36.574,23.362 C36.574,22.924 36.459,22.589 36.231,22.358 C36.003,22.127 35.67,22.012 35.232,22.012 C34.621,22.012 34.033,22.225 33.469,22.651 L33.36,22.147 L32.479,22.147 L32.479,26.728 L33.541,26.728 L33.541,23.245 Z M28.383,24.406 C28.383,25.462 28.767,25.99 29.535,25.99 C29.889,25.99 30.234,25.876 30.57,25.648 L30.57,23.173 C30.264,22.957 29.925,22.849 29.553,22.849 C29.151,22.849 28.855,22.977 28.667,23.231 C28.478,23.487 28.383,23.878 28.383,24.406 L28.383,24.406 Z M27.821,26.184 C27.476,25.754 27.303,25.177 27.303,24.451 C27.303,23.971 27.381,23.548 27.537,23.182 C27.693,22.816 27.918,22.529 28.212,22.323 C28.506,22.116 28.854,22.012 29.256,22.012 C29.736,22.012 30.174,22.168 30.57,22.48 L30.57,20.068 L31.632,20.068 L31.632,26.728 L30.723,26.728 L30.615,26.287 C30.207,26.647 29.736,26.827 29.202,26.827 C28.626,26.827 28.166,26.613 27.821,26.184 L27.821,26.184 Z M24.037,23.983 L26.007,23.983 L26.007,23.911 C26.007,23.545 25.932,23.266 25.781,23.074 C25.63,22.882 25.41,22.786 25.12,22.786 C24.813,22.786 24.562,22.894 24.369,23.11 C24.176,23.326 24.065,23.617 24.037,23.983 L24.037,23.983 Z M23.542,26.251 C23.151,25.843 22.957,25.249 22.957,24.469 C22.957,23.695 23.147,23.092 23.528,22.66 C23.909,22.228 24.441,22.012 25.125,22.012 C25.713,22.012 26.165,22.173 26.48,22.494 C26.795,22.814 26.953,23.269 26.953,23.857 C26.953,24.169 26.926,24.448 26.874,24.694 L24.037,24.694 C24.054,25.15 24.177,25.485 24.406,25.698 C24.635,25.911 24.987,26.017 25.462,26.017 C25.891,26.017 26.355,25.933 26.854,25.765 L26.854,26.512 C26.649,26.62 26.408,26.706 26.129,26.769 C25.85,26.832 25.561,26.863 25.26,26.863 C24.504,26.863 23.932,26.659 23.542,26.251 L23.542,26.251 Z M21.777,21.391 C21.976,21.391 22.131,21.337 22.246,21.229 C22.359,21.121 22.417,20.971 22.417,20.779 C22.417,20.587 22.359,20.437 22.246,20.329 C22.131,20.221 21.976,20.167 21.777,20.167 C21.58,20.167 21.423,20.221 21.31,20.329 C21.195,20.437 21.139,20.587 21.139,20.779 C21.139,20.971 21.195,21.121 21.31,21.229 C21.423,21.337 21.58,21.391 21.777,21.391 L21.777,21.391 Z M21.247,26.728 L22.309,26.728 L22.309,22.147 L21.247,22.147 L21.247,26.728 Z M20.527,25.873 L17.386,25.873 C18.105,25.219 18.669,24.671 19.08,24.23 C19.489,23.79 19.787,23.396 19.971,23.052 C20.155,22.707 20.248,22.366 20.248,22.03 C20.248,21.682 20.168,21.382 20.01,21.13 C19.852,20.878 19.633,20.685 19.352,20.549 C19.071,20.415 18.743,20.347 18.367,20.347 C17.674,20.347 17.041,20.581 16.468,21.049 L16.468,21.931 C16.78,21.715 17.087,21.548 17.39,21.432 C17.693,21.314 17.974,21.256 18.232,21.256 C18.526,21.256 18.754,21.333 18.916,21.485 C19.078,21.639 19.159,21.853 19.159,22.129 C19.159,22.363 19.083,22.618 18.934,22.894 C18.784,23.17 18.514,23.533 18.124,23.983 C17.734,24.433 17.125,25.078 16.297,25.918 L16.297,26.728 L20.527,26.728 L20.527,25.873 Z M10.717,26.728 L12.805,23.497 L10.861,20.491 L11.958,20.491 L13.443,22.705 L14.893,20.491 L15.991,20.491 L14.038,23.479 L16.135,26.728 L15.037,26.728 L13.398,24.262 L11.814,26.728 L10.717,26.728 Z" id="Fill-1" fill="#D45B07"></path>
    </g>
</svg>