<?xml version="1.0" encoding="UTF-8"?>
<svg width="48px" height="48px" viewBox="0 0 48 48" version="1.1" xmlns="http://www.w3.org/2000/svg" xmlns:xlink="http://www.w3.org/1999/xlink">
    <title>Icon-Resource/Compute/Res_Amazon-EC2_z1d-Instance_48_Light</title>
    <g id="Icon-Resource/Compute/Res_Amazon-EC2_z1d-Instance_48" stroke="none" stroke-width="1" fill="none" fill-rule="evenodd">
        <path d="M30.0342,23.6641 C30.3282,23.2681 30.7882,23.0691 31.4132,23.0691 C31.9922,23.0691 32.5192,23.2371 32.9952,23.5731 L32.9952,27.4231 C32.4722,27.7781 31.9362,27.9551 31.3862,27.9551 C30.1902,27.9551 29.5942,27.1341 29.5942,25.4911 C29.5942,24.6701 29.7402,24.0611 30.0342,23.6641 L30.0342,23.6641 Z M30.8672,29.2571 C31.6982,29.2571 32.4302,28.9771 33.0652,28.4171 L33.2332,29.1031 L34.6472,29.1031 L34.6472,18.7431 L32.9952,18.7431 L32.9952,22.4951 C32.3802,22.0101 31.6982,21.7681 30.9512,21.7681 C30.3262,21.7681 29.7852,21.9291 29.3272,22.2501 C28.8702,22.5721 28.5202,23.0181 28.2772,23.5871 C28.0352,24.1561 27.9132,24.8141 27.9132,25.5611 C27.9132,26.6901 28.1812,27.5891 28.7192,28.2561 C29.2552,28.9241 29.9722,29.2571 30.8672,29.2571 L30.8672,29.2571 Z M23.4892,21.0541 L20.8712,22.0331 L20.8712,20.6891 L23.6432,19.4011 L25.1552,19.4011 L25.1552,29.1031 L23.4892,29.1031 L23.4892,21.0541 Z M19.1492,29.1031 L13.3522,29.1031 L13.3522,27.8861 L17.3292,23.2371 L13.4932,23.2371 L13.4932,21.9771 L19.1072,21.9771 L19.1072,23.1951 L15.1312,27.8441 L19.1492,27.8441 L19.1492,29.1031 Z M9.0002,39.0001 L39.0002,39.0001 L39.0002,9.0001 L9.0002,9.0001 L9.0002,39.0001 Z M46.0002,13.0001 L46.0002,11.0001 L41.0002,11.0001 L41.0002,8.0001 C41.0002,7.4471 40.5532,7.0001 40.0002,7.0001 L37.0002,7.0001 L37.0002,2.0001 L35.0002,2.0001 L35.0002,7.0001 L31.0002,7.0001 L31.0002,2.0001 L29.0002,2.0001 L29.0002,7.0001 L25.0002,7.0001 L25.0002,2.0001 L23.0002,2.0001 L23.0002,7.0001 L19.0002,7.0001 L19.0002,2.0001 L17.0002,2.0001 L17.0002,7.0001 L13.0002,7.0001 L13.0002,2.0001 L11.0002,2.0001 L11.0002,7.0001 L8.0002,7.0001 C7.4472,7.0001 7.0002,7.4471 7.0002,8.0001 L7.0002,11.0001 L2.0002,11.0001 L2.0002,13.0001 L7.0002,13.0001 L7.0002,17.0001 L2.0002,17.0001 L2.0002,19.0001 L7.0002,19.0001 L7.0002,23.0001 L2.0002,23.0001 L2.0002,25.0001 L7.0002,25.0001 L7.0002,29.0001 L2.0002,29.0001 L2.0002,31.0001 L7.0002,31.0001 L7.0002,35.0001 L2.0002,35.0001 L2.0002,37.0001 L7.0002,37.0001 L7.0002,40.0001 C7.0002,40.5531 7.4472,41.0001 8.0002,41.0001 L11.0002,41.0001 L11.0002,46.0001 L13.0002,46.0001 L13.0002,41.0001 L17.0002,41.0001 L17.0002,46.0001 L19.0002,46.0001 L19.0002,41.0001 L23.0002,41.0001 L23.0002,46.0001 L25.0002,46.0001 L25.0002,41.0001 L29.0002,41.0001 L29.0002,46.0001 L31.0002,46.0001 L31.0002,41.0001 L35.0002,41.0001 L35.0002,46.0001 L37.0002,46.0001 L37.0002,41.0001 L40.0002,41.0001 C40.5532,41.0001 41.0002,40.5531 41.0002,40.0001 L41.0002,37.0001 L46.0002,37.0001 L46.0002,35.0001 L41.0002,35.0001 L41.0002,31.0001 L46.0002,31.0001 L46.0002,29.0001 L41.0002,29.0001 L41.0002,25.0001 L46.0002,25.0001 L46.0002,23.0001 L41.0002,23.0001 L41.0002,19.0001 L46.0002,19.0001 L46.0002,17.0001 L41.0002,17.0001 L41.0002,13.0001 L46.0002,13.0001 Z" id="Fill-1" fill="#D45B07"></path>
    </g>
</svg>