<?xml version="1.0" encoding="UTF-8"?>
<svg width="64px" height="64px" viewBox="0 0 64 64" version="1.1" xmlns="http://www.w3.org/2000/svg" xmlns:xlink="http://www.w3.org/1999/xlink">
    <title>Icon-Architecture/48/Arch_Amazon-CodeWhisperer_48</title>
    <defs>
        <linearGradient x1="0%" y1="100%" x2="100%" y2="0%" id="linearGradient-1">
            <stop stop-color="#055F4E" offset="0%"></stop>
            <stop stop-color="#56C0A7" offset="100%"></stop>
        </linearGradient>
    </defs>
    <g id="Icon-Architecture/48/Arch_Amazon-CodeWhisperer_48" stroke="none" stroke-width="1" fill="none" fill-rule="evenodd">
        <g id="Icon-Architecture-BG/48/Machine-Learning" fill="url(#linearGradient-1)">
            <rect id="Rectangle" x="0" y="0" width="64" height="64"></rect>
        </g>
        <g id="Icon-Service/48/Amazon-CodeWhisperer_48" transform="translate(9.999996, 10.000000)" fill="#FFFFFF">
            <path d="M12.0240071,6 L14.0240071,6 L14.0240071,4 L12.0240071,4 L12.0240071,6 Z M8.02400715,6 L10.0240071,6 L10.0240071,4 L8.02400715,4 L8.02400715,6 Z M4.02400715,6 L6.02400715,6 L6.02400715,4 L4.02400715,4 L4.02400715,6 Z M22.5950071,23.013 L24.4840071,23.669 L21.2440071,33.006 L19.3560071,32.35 L22.5950071,23.013 Z M18.4510071,25.684 L16.2220071,27.932 L18.4060071,30.175 L16.9720071,31.57 L14.1040071,28.623 C13.7240071,28.233 13.7270071,27.61 14.1110071,27.222 L17.0310071,24.276 L18.4510071,25.684 Z M29.9860071,27.222 C30.3690071,27.609 30.3720071,28.233 29.9930071,28.624 L27.1230071,31.571 L25.6900071,30.175 L27.8730071,27.932 L25.6450071,25.684 L27.0650071,24.276 L29.9860071,27.222 Z M35.0240071,31.039 L32.5770071,32.262 C32.2380071,32.432 32.0240071,32.778 32.0240071,33.157 L32.0240071,37.821 L25.8550071,41.616 L23.0240071,39.999 L23.0240071,36 C23.0240071,35.447 22.5770071,35 22.0240071,35 C21.4710071,35 21.0240071,35.447 21.0240071,36 L21.0240071,39.998 L18.1920071,41.616 L12.0240071,37.821 L12.0240071,33.157 C12.0240071,32.778 11.8100071,32.432 11.4710071,32.262 L9.02400715,31.039 L9.02400715,25.119 L11.6300071,23.133 C11.8780071,22.945 12.0240071,22.65 12.0240071,22.338 L12.0240071,17.988 L17.6530071,14.704 L21.0240071,16.586 L21.0240071,21 L23.0240071,21 L23.0240071,16.586 L26.3940071,14.704 L32.0240071,17.988 L32.0240071,22.338 C32.0240071,22.65 32.1690071,22.945 32.4170071,23.133 L35.0240071,25.119 L35.0240071,31.039 Z M34.0240071,21.843 L34.0240071,17.414 C34.0240071,17.058 33.8350071,16.729 33.5280071,16.55 L26.9090071,12.689 C26.6030071,12.51 26.2250071,12.508 25.9170071,12.68 L22.0240071,14.854 L18.1290071,12.68 C17.8220071,12.508 17.4440071,12.51 17.1380071,12.689 L10.5200071,16.55 C10.2120071,16.729 10.0240071,17.058 10.0240071,17.414 L10.0240071,21.843 L7.41700715,23.828 C7.16900715,24.017 7.02400715,24.312 7.02400715,24.624 L7.02400715,31.657 C7.02400715,32.036 7.23800715,32.382 7.57700715,32.551 L10.0240071,33.775 L10.0240071,38.379 C10.0240071,38.726 10.2030071,39.049 10.4990071,39.231 L17.6490071,43.631 C17.8100071,43.73 17.9920071,43.779 18.1730071,43.779 C18.3440071,43.779 18.5150071,43.735 18.6690071,43.647 L22.0240071,41.731 L25.3770071,43.647 C25.6940071,43.828 26.0850071,43.821 26.3980071,43.631 L33.5480071,39.231 C33.8440071,39.049 34.0240071,38.726 34.0240071,38.379 L34.0240071,33.775 L36.4710071,32.551 C36.8100071,32.382 37.0240071,32.036 37.0240071,31.657 L37.0240071,24.624 C37.0240071,24.312 36.8780071,24.017 36.6300071,23.828 L34.0240071,21.843 Z M2.01900715,8 L2.02400715,2 L42.0240071,2 L42.0240071,8 L2.01900715,8 Z M42.1480071,0 L1.90000715,0 C0.866007149,0 0.0240071493,0.825 0.0240071493,1.839 L3.56823812e-06,30.156 C-0.00199285072,31.166 0.834007149,31.993 1.87000715,32 L5.02400715,31.999 L5.02400715,29.999 L2.00000357,30 L2.01700715,10 L42.0240071,10 L42.0240071,29.999 L39.0240071,30 L39.0240071,32 L42.1480071,31.999 C43.1820071,31.999 44.0240071,31.171 44.0240071,30.152 L44.0240071,1.841 C44.0240071,0.825 43.1820071,0 42.1480071,0 L42.1480071,0 Z" id="Fill-7"></path>
        </g>
    </g>
</svg>