<?xml version="1.0" encoding="UTF-8"?>
<svg width="64px" height="64px" viewBox="0 0 64 64" version="1.1" xmlns="http://www.w3.org/2000/svg" xmlns:xlink="http://www.w3.org/1999/xlink">
    <title>Icon-Architecture/48/Arch_Amazon-Comprehend-Medical_48</title>
    <defs>
        <linearGradient x1="0%" y1="100%" x2="100%" y2="0%" id="linearGradient-1">
            <stop stop-color="#055F4E" offset="0%"></stop>
            <stop stop-color="#56C0A7" offset="100%"></stop>
        </linearGradient>
    </defs>
    <g id="Icon-Architecture/48/Arch_Amazon-Comprehend-Medical_48" stroke="none" stroke-width="1" fill="none" fill-rule="evenodd">
        <g id="Rectangle" fill="url(#linearGradient-1)">
            <rect x="0" y="0" width="64" height="64"></rect>
        </g>
        <g id="Icon-Service/48/Amazon-Comprehend-Medical_48" transform="translate(8.000000, 8.000000)" fill="#FFFFFF">
            <path d="M43.9996487,35 L39.9996487,35 C39.4466487,35 38.9996487,34.552 38.9996487,34 L38.9996487,30 L34.9996487,30 L34.9996487,34 C34.9996487,34.552 34.5526487,35 33.9996487,35 L29.9996487,35 L29.9996487,39 L33.9996487,39 C34.5526487,39 34.9996487,39.448 34.9996487,40 L34.9996487,44 L38.9996487,44 L38.9996487,40 C38.9996487,39.448 39.4466487,39 39.9996487,39 L43.9996487,39 L43.9996487,35 Z M45.9996487,34 L45.9996487,40 C45.9996487,40.552 45.5526487,41 44.9996487,41 L40.9996487,41 L40.9996487,45 C40.9996487,45.552 40.5526487,46 39.9996487,46 L33.9996487,46 C33.4466487,46 32.9996487,45.552 32.9996487,45 L32.9996487,41 L28.9996487,41 C28.4466487,41 27.9996487,40.552 27.9996487,40 L27.9996487,34 C27.9996487,33.448 28.4466487,33 28.9996487,33 L32.9996487,33 L32.9996487,29 C32.9996487,28.448 33.4466487,28 33.9996487,28 L39.9996487,28 C40.5526487,28 40.9996487,28.448 40.9996487,29 L40.9996487,33 L44.9996487,33 C45.5526487,33 45.9996487,33.448 45.9996487,34 L45.9996487,34 Z M4.17464871,8.575 L8.99964871,32.844 L8.99964871,7.582 L4.17464871,8.575 Z M32.9996487,4.427 L32.9996487,9 L38.1776487,9 L32.9996487,4.427 Z M10.9996487,42 L27.9996487,42 L27.9996487,44 L9.99964871,44 C9.51464871,44 9.12964871,43.648 9.03864871,43.191 L9.01964871,43.195 L2.01964871,7.99 C1.91164871,7.451 2.25964871,6.927 2.79864871,6.816 L8.99964871,5.54 L8.99964871,3 C8.99964871,2.448 9.44664871,2 9.99964871,2 L32.8946487,2 C33.1386487,2 33.3736487,2.089 33.5566487,2.25 L40.6616487,8.525 C40.8766487,8.715 40.9996487,8.988 40.9996487,9.274 L40.9996487,26 L38.9996487,26 L38.9996487,11 L31.9996487,11 C31.4466487,11 30.9996487,10.552 30.9996487,10 L30.9996487,4 L10.9996487,4 L10.9996487,42 Z M13.9996487,33 L26.9996487,33 L26.9996487,31 L13.9996487,31 L13.9996487,33 Z M13.9996487,28 L32.9996487,28 L32.9996487,26 L13.9996487,26 L13.9996487,28 Z M13.9996487,13 L28.9996487,13 L28.9996487,11 L13.9996487,11 L13.9996487,13 Z M13.9996487,23 L34.9996487,23 L34.9996487,21 L13.9996487,21 L13.9996487,23 Z M20.9996487,18 L34.9996487,18 L34.9996487,16 L20.9996487,16 L20.9996487,18 Z M13.9996487,18 L18.9996487,18 L18.9996487,16 L13.9996487,16 L13.9996487,18 Z" id="Fill-3"></path>
        </g>
    </g>
</svg>