<?xml version="1.0" encoding="UTF-8"?>
<svg width="48px" height="48px" viewBox="0 0 48 48" version="1.1" xmlns="http://www.w3.org/2000/svg" xmlns:xlink="http://www.w3.org/1999/xlink">
    <title>Icon-Resource/Machine-Learning/Res_CN-Capstone-Insights_48_Light</title>
    <g id="Icon-Resource/Machine-Learning/Res_CN-Capstone-Insights_48" stroke="none" stroke-width="1" fill="none" fill-rule="evenodd">
        <path d="M25.439,46.165 C25.782,45.997 26,45.648 26,45.267 L26,38 L42.067,38 C44.235,38 46,36.239 46,34.074 L46,26.845 L44,26.845 L44,34.074 C44,35.136 43.133,36 42.067,36 L25,36 C24.447,36 24,36.448 24,37 L24,43.223 L14.98,36.211 C14.805,36.075 14.588,36 14.366,36 L5.973,36 C4.885,36 4,35.158 4,34.123 L4,13.878 C4,12.843 4.885,12 5.973,12 L16.585,12 L16.585,10 L5.973,10 C3.782,10 2,11.74 2,13.878 L2,34.123 C2,36.261 3.782,38 5.973,38 L14.023,38 L24.386,46.056 C24.564,46.195 24.781,46.267 25,46.267 C25.149,46.267 25.299,46.233 25.439,46.165 L25.439,46.165 Z M6,17 L13,17 L13,15 L6,15 L6,17 Z M6,25 L17,25 L17,23 L6,23 L6,25 Z M6,29 L17,29 L17,27 L6,27 L6,29 Z M6,33 L23,33 L23,31 L6,31 L6,33 Z M29.943,27.823 C29.971,27.335 29.642,26.899 29.165,26.791 C27.998,26.526 26.891,26.067 25.876,25.426 C25.462,25.164 24.921,25.241 24.596,25.606 L23.809,26.488 L21.512,24.191 L22.394,23.405 C22.758,23.08 22.835,22.539 22.574,22.125 C21.934,21.111 21.476,20.004 21.213,18.836 C21.106,18.359 20.681,18.036 20.181,18.057 L19,18.125 L19,14.876 L20.185,14.944 C20.681,14.979 21.109,14.643 21.217,14.166 C21.481,13.002 21.94,11.897 22.58,10.884 C22.841,10.47 22.766,9.929 22.401,9.603 L21.512,8.81 L23.809,6.513 L24.602,7.401 C24.926,7.765 25.467,7.841 25.881,7.581 C26.894,6.942 27.999,6.485 29.165,6.222 C29.642,6.114 29.971,5.677 29.943,5.189 L29.875,4 L33.124,4 L33.056,5.191 C33.028,5.679 33.357,6.115 33.834,6.223 C34.998,6.486 36.102,6.944 37.115,7.583 C37.529,7.844 38.069,7.768 38.395,7.403 L39.189,6.513 L41.487,8.81 L40.601,9.601 C40.235,9.926 40.16,10.468 40.421,10.881 C41.061,11.894 41.519,12.999 41.783,14.166 C41.892,14.643 42.323,14.979 42.815,14.944 L44,14.876 L44,18.125 L42.817,18.057 C42.317,18.033 41.892,18.358 41.784,18.836 C41.522,20.002 41.064,21.108 40.423,22.123 C40.163,22.536 40.239,23.077 40.604,23.402 L41.487,24.191 L39.19,26.488 L38.405,25.608 C38.08,25.243 37.538,25.165 37.125,25.429 C36.111,26.069 35.004,26.527 33.835,26.791 C33.357,26.899 33.028,27.336 33.056,27.824 L33.124,29 L29.876,29 L29.943,27.823 Z M34.91,30.687 C35.099,30.487 35.197,30.218 35.181,29.943 L35.1,28.526 C35.918,28.282 36.707,27.956 37.457,27.55 L38.402,28.609 C38.585,28.815 38.845,28.936 39.12,28.943 C39.386,28.953 39.661,28.845 39.856,28.651 L43.65,24.856 C43.845,24.662 43.95,24.396 43.942,24.121 C43.935,23.846 43.814,23.586 43.608,23.403 L42.545,22.454 C42.95,21.704 43.276,20.916 43.52,20.101 L44.942,20.182 C45.212,20.19 45.486,20.1 45.686,19.911 C45.886,19.722 46,19.458 46,19.184 L46,13.817 C46,13.542 45.886,13.279 45.686,13.09 C45.486,12.902 45.221,12.807 44.942,12.819 L43.518,12.9 C43.273,12.084 42.947,11.298 42.543,10.549 L43.608,9.598 C43.814,9.415 43.935,9.155 43.942,8.88 C43.95,8.605 43.845,8.339 43.65,8.144 L39.856,4.351 C39.661,4.156 39.384,4.038 39.12,4.058 C38.845,4.066 38.585,4.186 38.402,4.392 L37.447,5.462 C36.698,5.057 35.913,4.732 35.1,4.488 L35.181,3.057 C35.197,2.783 35.099,2.514 34.91,2.314 C34.721,2.114 34.458,2 34.183,2 L28.816,2 C28.542,2 28.278,2.114 28.089,2.314 C27.9,2.514 27.802,2.783 27.818,3.057 L27.899,4.487 C27.085,4.73 26.299,5.056 25.55,5.459 L24.597,4.392 C24.414,4.186 24.154,4.066 23.879,4.058 C23.6,4.04 23.338,4.156 23.144,4.351 L19.349,8.144 C19.155,8.339 19.049,8.605 19.057,8.88 C19.064,9.155 19.185,9.415 19.39,9.598 L20.459,10.551 C20.053,11.3 19.727,12.086 19.483,12.9 L18.057,12.819 C17.78,12.801 17.513,12.901 17.313,13.09 C17.113,13.279 17,13.542 17,13.817 L17,19.184 C17,19.458 17.113,19.722 17.313,19.911 C17.513,20.1 17.786,20.203 18.057,20.182 L19.478,20.101 C19.721,20.918 20.047,21.706 20.452,22.457 L19.391,23.403 C19.185,23.586 19.064,23.846 19.057,24.121 C19.049,24.396 19.154,24.662 19.349,24.856 L23.144,28.651 C23.337,28.845 23.597,28.95 23.879,28.943 C24.154,28.936 24.414,28.815 24.597,28.609 L25.544,27.548 C26.295,27.954 27.083,28.281 27.899,28.525 L27.818,29.943 C27.802,30.218 27.9,30.487 28.089,30.687 C28.278,30.887 28.542,31 28.816,31 L34.183,31 C34.458,31 34.721,30.887 34.91,30.687 L34.91,30.687 Z M30.845,19.748 L35.926,14.667 L34.512,13.253 L30.138,17.627 L28.487,15.976 L27.073,17.39 L29.431,19.748 C29.619,19.936 29.873,20.041 30.138,20.041 C30.403,20.041 30.658,19.936 30.845,19.748 L30.845,19.748 Z M41.314,15.64 L40.198,16.236 C40.071,12.033 36.911,8.413 32.61,7.859 C28.888,7.376 25.293,9.326 23.658,12.699 L25.458,13.571 C26.717,10.972 29.487,9.473 32.356,9.843 C35.439,10.239 37.761,12.684 38.148,15.631 L37.707,15.195 L36.302,16.619 L38.909,19.191 L42.256,17.404 L41.314,15.64 Z M39.341,20.301 C37.872,23.335 34.814,25.213 31.508,25.213 C31.138,25.213 30.764,25.19 30.389,25.142 C26.088,24.588 22.928,20.968 22.801,16.765 L21.685,17.361 L20.743,15.597 L24.09,13.81 L26.697,16.382 L25.293,17.806 L24.851,17.37 C25.238,20.317 27.56,22.762 30.644,23.158 C33.51,23.528 36.283,22.028 37.542,19.429 L39.341,20.301 Z" id="Fill-1" fill="#067F68"></path>
    </g>
</svg>