<?xml version="1.0" encoding="UTF-8"?>
<svg width="48px" height="48px" viewBox="0 0 48 48" version="1.1" xmlns="http://www.w3.org/2000/svg" xmlns:xlink="http://www.w3.org/1999/xlink">
    <title>Icon-Resource/Machine-Learning/Res_Amazon-Rekognition_Image_48_Light</title>
    <g id="Icon-Resource/Machine-Learning/Res_Amazon-Rekognition_Image_48" stroke="none" stroke-width="1" fill="none" fill-rule="evenodd">
        <path d="M17.0609,34.4258 C15.6959,33.4518 14.5009,32.2578 13.5289,30.8918 L4.7299,39.6928 C3.7559,40.6658 3.7559,42.2508 4.7299,43.2248 C5.6709,44.1658 7.3219,44.1658 8.2629,43.2248 L17.0609,34.4258 Z M12.7489,22.2298 C12.7489,29.3888 18.5749,35.2138 25.7349,35.2138 C32.8939,35.2138 38.7189,29.3888 38.7189,22.2298 C38.7189,15.0698 32.8939,9.2438 25.7349,9.2438 C18.5749,9.2438 12.7489,15.0698 12.7489,22.2298 L12.7489,22.2298 Z M18.8099,35.5048 L9.6769,44.6388 C8.8299,45.4878 7.6999,45.9548 6.4969,45.9548 C5.2929,45.9548 4.1639,45.4878 3.3159,44.6388 C1.5619,42.8848 1.5619,40.0318 3.3159,38.2788 L12.4519,29.1408 C11.3699,27.0708 10.7489,24.7228 10.7489,22.2298 C10.7489,13.9668 17.4719,7.2438 25.7349,7.2438 C33.9979,7.2438 40.7189,13.9668 40.7189,22.2298 C40.7189,30.4918 33.9979,37.2138 25.7349,37.2138 C23.2359,37.2138 20.8829,36.5908 18.8099,35.5048 L18.8099,35.5048 Z M9.4089,30.3368 C8.1459,27.8268 7.5049,25.0998 7.5049,22.2298 C7.5049,19.1028 8.3099,16.0198 9.8319,13.3148 L8.0899,12.3338 C6.3989,15.3388 5.5049,18.7598 5.5049,22.2298 C5.5049,25.3698 6.2369,28.4848 7.6219,31.2358 L9.4089,30.3368 Z M28.7849,19.6068 C29.5079,19.6068 30.0959,19.0198 30.0959,18.2958 C30.0959,17.5718 29.5079,16.9848 28.7849,16.9848 C28.0599,16.9848 27.4729,17.5718 27.4729,18.2958 C27.4729,19.0198 28.0599,19.6068 28.7849,19.6068 L28.7849,19.6068 Z M19.7329,16.2368 L19.7329,25.6378 L24.0059,20.8588 C24.2639,20.5608 24.6529,20.4098 25.0629,20.3908 C25.4719,20.3968 25.8559,20.5828 26.1159,20.9008 L28.4549,23.7508 L31.7179,20.1548 L31.7179,16.2368 L19.7329,16.2368 Z M31.7179,28.2218 L31.7179,23.1298 L29.4649,25.6118 C29.2249,25.8988 28.8389,26.0768 28.4299,26.0768 L28.4199,26.0768 C28.0069,26.0738 27.6209,25.8888 27.3579,25.5688 L25.0229,22.7218 L20.1049,28.2218 L31.7179,28.2218 Z M17.7329,28.3078 L17.7329,16.1508 C17.7329,15.0958 18.5919,14.2368 19.6479,14.2368 L31.8039,14.2368 C32.8599,14.2368 33.7179,15.0958 33.7179,16.1508 L33.7179,28.3078 C33.7179,29.3638 32.8599,30.2218 31.8039,30.2218 L19.6479,30.2218 C18.5919,30.2218 17.7329,29.3638 17.7329,28.3078 L17.7329,28.3078 Z M45.9629,22.2298 C45.9629,33.3838 36.8889,42.4588 25.7349,42.4588 C22.5659,42.4588 19.5309,41.7468 16.7129,40.3438 L17.6059,38.5528 C20.1429,39.8178 22.8779,40.4588 25.7349,40.4588 C35.7859,40.4588 43.9629,32.2808 43.9629,22.2298 C43.9629,12.1778 35.7859,3.9998 25.7349,3.9998 C23.2099,3.9998 20.7679,4.5078 18.4779,5.5078 L17.6769,3.6748 C20.2219,2.5638 22.9329,1.9998 25.7349,1.9998 C36.8889,1.9998 45.9629,11.0748 45.9629,22.2298 L45.9629,22.2298 Z" id="Amazon-Rekognition_Amazon-Rekognition-image_Resource-Icon_light-bg" fill="#067F68"></path>
    </g>
</svg>