<?xml version="1.0" encoding="UTF-8"?>
<svg width="48px" height="48px" viewBox="0 0 48 48" version="1.1" xmlns="http://www.w3.org/2000/svg" xmlns:xlink="http://www.w3.org/1999/xlink">
    <title>Icon-Resource/Security-Identity-and-Compliance/Res_AWS-Directory-Service_AWS-Managed-Microsoft-AD_48_Light</title>
    <g id="Icon-Resource/Security-Identity-and-Compliance/Res_AWS-Directory-Service_AWS-Managed-Microsoft-AD_48" stroke="none" stroke-width="1" fill="none" fill-rule="evenodd">
        <path d="M40.9858,34.4859 L40.2448,34.2129 C39.8898,34.0829 39.6428,33.9529 39.5038,33.8229 C39.3648,33.6929 39.2948,33.5279 39.2948,33.3279 C39.2948,32.8029 39.6798,32.5409 40.4518,32.5409 C40.9158,32.5409 41.4288,32.6299 41.9918,32.8059 L41.9918,31.9479 C41.4318,31.7359 40.8808,31.6309 40.3378,31.6309 C39.6838,31.6309 39.1638,31.7909 38.7768,32.1119 C38.3908,32.4329 38.1978,32.8679 38.1978,33.4159 C38.1978,33.8119 38.3078,34.1399 38.5298,34.4019 C38.7498,34.6649 39.1048,34.8899 39.5918,35.0789 L40.3688,35.3799 C40.7058,35.5089 40.9418,35.6389 41.0758,35.7679 C41.2088,35.8979 41.2758,36.0629 41.2758,36.2629 C41.2758,36.5469 41.1658,36.7629 40.9438,36.9139 C40.7238,37.0639 40.4068,37.1389 39.9938,37.1389 C39.7448,37.1389 39.4638,37.1119 39.1528,37.0599 C38.8418,37.0069 38.5448,36.9329 38.2598,36.8389 L38.2598,37.6959 C38.4958,37.8079 38.7688,37.8959 39.0828,37.9569 C39.3948,38.0189 39.7078,38.0499 40.0198,38.0499 C40.7508,38.0499 41.3258,37.8809 41.7438,37.5419 C42.1628,37.2029 42.3718,36.7359 42.3718,36.1399 C42.3718,35.7389 42.2628,35.4099 42.0458,35.1489 C41.8268,34.8899 41.4738,34.6699 40.9858,34.4859 L40.9858,34.4859 Z M33.9618,35.4239 L32.1228,31.7709 L30.9208,31.7709 L30.9208,37.8999 L31.9108,37.8999 L31.9108,33.3279 L33.4488,36.3609 L34.4228,36.3609 L36.0138,33.3099 L36.0138,37.8999 L37.0048,37.8999 L37.0048,31.7709 L35.8368,31.7709 L33.9618,35.4239 Z M43.9648,41.2999 L43.9638,26.3419 C42.1148,27.2519 39.2468,27.6799 36.5048,27.6799 C33.7628,27.6799 30.8948,27.2519 29.0468,26.3419 L29.0468,41.3109 C29.1678,41.7959 31.6458,43.0969 36.5048,43.0969 C41.3628,43.0969 43.8418,41.7959 43.9648,41.2999 L43.9648,41.2999 Z M29.0468,23.8949 C29.1688,24.3789 31.6478,25.6799 36.5048,25.6799 C41.3478,25.6799 43.8278,24.3849 43.9638,23.8879 L43.9638,23.7999 C43.8408,23.3169 41.3608,22.0149 36.5048,22.0149 C31.6608,22.0149 29.1808,23.3099 29.0468,23.8069 L29.0468,23.8949 Z M45.9638,23.7979 L45.9638,23.7999 L45.9638,41.3109 C45.9638,43.9129 41.0598,45.0969 36.5048,45.0969 C31.9488,45.0969 27.0468,43.9129 27.0468,41.3109 L27.0468,23.7999 L27.0468,23.7979 C27.0478,21.1989 31.9508,20.0149 36.5048,20.0149 C41.0588,20.0149 45.9618,21.1989 45.9638,23.7979 L45.9638,23.7979 Z M26.1388,35.2769 C26.1388,35.8299 25.6918,36.2769 25.1388,36.2769 L3.0008,36.2769 C2.6428,36.2769 2.3128,36.0869 2.1338,35.7769 C1.9558,35.4669 1.9558,35.0869 2.1338,34.7769 L20.7898,2.4649 C21.1468,1.8449 22.1648,1.8449 22.5218,2.4649 L31.4108,17.8599 C31.6868,18.3389 31.5228,18.9499 31.0448,19.2259 C30.5658,19.5019 29.9548,19.3389 29.6778,18.8599 L21.6558,4.9649 L4.7328,34.2769 L25.1388,34.2769 C25.6918,34.2769 26.1388,34.7239 26.1388,35.2769 L26.1388,35.2769 Z" id="AWS-Directory-Service_AWS-Managed-Microsoft-AD_Resource-Icon_light-bg" fill="#BF0816"></path>
    </g>
</svg>