<?xml version="1.0" encoding="UTF-8"?>
<svg width="48px" height="48px" viewBox="0 0 48 48" version="1.1" xmlns="http://www.w3.org/2000/svg" xmlns:xlink="http://www.w3.org/1999/xlink">
    <title>Icon-Resource/Security-Identity-and-Compliance/Res_AWS-Directory-Service_AD-Connector_48_Light</title>
    <g id="Icon-Resource/Security-Identity-and-Compliance/Res_AWS-Directory-Service_AD-Connector_48" stroke="none" stroke-width="1" fill="none" fill-rule="evenodd">
        <path d="M33.2208,33.0176 C33.2208,34.3736 34.0988,35.5296 35.3158,35.9456 L35.3158,30.0886 C34.0988,30.5046 33.2208,31.6616 33.2208,33.0176 M31.3028,33.8336 L4.1178,33.8336 C3.3538,33.8336 2.6688,33.4386 2.2858,32.7766 C1.9048,32.1146 1.9058,31.3236 2.2878,30.6616 L17.0698,5.0576 C17.4518,4.3956 18.1368,3.9996 18.9018,3.9996 L18.9028,3.9996 C19.6658,4.0006 20.3508,4.3966 20.7328,5.0576 L29.7528,20.6806 C30.0298,21.1596 29.8658,21.7706 29.3868,22.0466 C28.9088,22.3226 28.2968,22.1596 28.0208,21.6806 L18.9998,6.0576 C18.9918,6.0416 18.9668,5.9996 18.9018,5.9996 C18.8348,5.9996 18.8108,6.0416 18.8008,6.0586 L4.0198,31.6626 C4.0098,31.6786 3.9868,31.7196 4.0188,31.7766 C4.0518,31.8336 4.0998,31.8336 4.1178,31.8336 L31.3728,31.8336 C31.9098,29.5956 33.9148,27.9226 36.3158,27.9226 C36.8678,27.9226 37.3158,28.3706 37.3158,28.9226 L37.3158,29.7086 L40.3778,29.7086 C40.9308,29.7086 41.3778,30.1566 41.3778,30.7086 C41.3778,31.2616 40.9308,31.7086 40.3778,31.7086 L37.3158,31.7086 L37.3158,34.3256 L40.3778,34.3256 C40.9308,34.3256 41.3778,34.7726 41.3778,35.3256 C41.3778,35.8776 40.9308,36.3256 40.3778,36.3256 L37.3158,36.3256 L37.3158,37.1116 C37.3158,37.6636 36.8678,38.1116 36.3158,38.1116 C33.7848,38.1116 31.6978,36.2536 31.3028,33.8336 M45.9418,33.0176 C45.9418,39.3946 40.7528,44.5826 34.3748,44.5826 C29.4178,44.5826 25.0168,41.4316 23.4218,36.7426 C23.2438,36.2186 23.5248,35.6506 24.0468,35.4726 C24.5768,35.2966 25.1388,35.5756 25.3168,36.0976 C26.6348,39.9766 30.2748,42.5826 34.3748,42.5826 C39.6508,42.5826 43.9418,38.2916 43.9418,33.0176 C43.9418,27.7426 39.6508,23.4516 34.3748,23.4516 C30.3648,23.4516 26.7498,25.9826 25.3808,29.7496 C25.1928,30.2686 24.6208,30.5386 24.0998,30.3476 C23.5808,30.1596 23.3128,29.5856 23.5018,29.0666 C25.1568,24.5116 29.5268,21.4516 34.3748,21.4516 C40.7528,21.4516 45.9418,26.6396 45.9418,33.0176" id="AWS-Directory-Service_AD-Connector_Resource-Icon_light-bg" fill="#BF0816"></path>
    </g>
</svg>