<?xml version="1.0" encoding="UTF-8"?>
<svg width="48px" height="48px" viewBox="0 0 48 48" version="1.1" xmlns="http://www.w3.org/2000/svg" xmlns:xlink="http://www.w3.org/1999/xlink">
    <title>Icon-Resource/Security-Identity-and-Compliance/Res_AWS-Identity-Access-Management_AWS-STS-Alternate_48_Light</title>
    <g id="Icon-Resource/Security-Identity-and-Compliance/Res_AWS-Identity-Access-Management_AWS-STS-Alternate_48" stroke="none" stroke-width="1" fill="none" fill-rule="evenodd">
        <path d="M24.5823,17.0908 L18.3463,17.0908 L18.3463,15.0908 L22.5823,15.0908 L22.5823,9.1098 L24.5823,9.1098 L24.5823,17.0908 Z M23.5823,7.4908 C27.8433,7.4908 31.3103,10.9568 31.3103,15.2178 C31.3103,19.4788 27.8433,22.9448 23.5823,22.9448 C19.3213,22.9448 15.8553,19.4788 15.8553,15.2178 C15.8553,10.9568 19.3213,7.4908 23.5823,7.4908 L23.5823,7.4908 Z M23.5823,24.9448 C28.9463,24.9448 33.3103,20.5818 33.3103,15.2178 C33.3103,9.8548 28.9463,5.4908 23.5823,5.4908 C18.2193,5.4908 13.8553,9.8548 13.8553,15.2178 C13.8553,20.5818 18.2193,24.9448 23.5823,24.9448 L23.5823,24.9448 Z M33.8433,36.8308 C34.1323,37.1778 34.2763,37.6238 34.2763,38.1688 C34.2763,38.9508 33.9973,39.5738 33.4393,40.0378 C32.8813,40.5028 32.1303,40.7348 31.1853,40.7348 C30.2483,40.7348 29.4343,40.5688 28.7413,40.2338 L28.7413,39.2568 C29.5973,39.5418 30.4033,39.6848 31.1613,39.6848 C31.7393,39.6848 32.1933,39.5588 32.5223,39.3058 C32.8533,39.0528 33.0183,38.7108 33.0183,38.2788 C33.0183,37.9788 32.9223,37.7278 32.7313,37.5278 C32.5393,37.3278 32.2163,37.1388 31.7593,36.9598 L30.5743,36.5068 C29.9063,36.2558 29.4213,35.9498 29.1203,35.5908 C28.8183,35.2328 28.6683,34.7808 28.6683,34.2348 C28.6683,33.7788 28.7823,33.3738 29.0103,33.0188 C29.2383,32.6638 29.5663,32.3868 29.9943,32.1818 C30.4213,31.9798 30.9253,31.8758 31.5033,31.8758 C32.2353,31.8758 32.9893,32.0238 33.7633,32.3168 L33.7633,33.3068 C32.9403,33.0538 32.2163,32.9268 31.5883,32.9268 C31.0593,32.9268 30.6493,33.0348 30.3603,33.2508 C30.0713,33.4668 29.9273,33.7748 29.9273,34.1738 C29.9273,34.4998 30.0243,34.7578 30.2203,34.9498 C30.4163,35.1408 30.7773,35.3348 31.3083,35.5298 L32.4193,35.9448 C33.0793,36.1908 33.5533,36.4858 33.8433,36.8308 L33.8433,36.8308 Z M21.1293,32.0598 L27.7763,32.0598 L27.7763,33.0858 L25.0753,33.0858 L25.0753,40.5278 L23.8303,40.5278 L23.8303,33.0858 L21.1293,33.0858 L21.1293,32.0598 Z M19.8653,36.8308 C20.1543,37.1778 20.2993,37.6238 20.2993,38.1688 C20.2993,38.9508 20.0203,39.5738 19.4623,40.0378 C18.9033,40.5028 18.1523,40.7348 17.2073,40.7348 C16.2703,40.7348 15.4563,40.5688 14.7643,40.2338 L14.7643,39.2568 C15.6193,39.5418 16.4263,39.6848 17.1843,39.6848 C17.7623,39.6848 18.2163,39.5588 18.5453,39.3058 C18.8753,39.0528 19.0403,38.7108 19.0403,38.2788 C19.0403,37.9788 18.9443,37.7278 18.7543,37.5278 C18.5613,37.3278 18.2383,37.1388 17.7823,36.9598 L16.5973,36.5068 C15.9293,36.2558 15.4433,35.9498 15.1433,35.5908 C14.8413,35.2328 14.6903,34.7808 14.6903,34.2348 C14.6903,33.7788 14.8053,33.3738 15.0323,33.0188 C15.2613,32.6638 15.5893,32.3868 16.0173,32.1818 C16.4433,31.9798 16.9473,31.8758 17.5253,31.8758 C18.2583,31.8758 19.0123,32.0238 19.7853,32.3168 L19.7853,33.3068 C18.9633,33.0538 18.2383,32.9268 17.6103,32.9268 C17.0813,32.9268 16.6723,33.0348 16.3833,33.2508 C16.0943,33.4668 15.9493,33.7748 15.9493,34.1738 C15.9493,34.4998 16.0473,34.7578 16.2423,34.9498 C16.4383,35.1408 16.8003,35.3348 17.3303,35.5298 L18.4413,35.9448 C19.1023,36.1908 19.5753,36.4858 19.8653,36.8308 L19.8653,36.8308 Z M39.1643,43.0858 C39.1643,43.5298 38.8033,43.8918 38.3593,43.8918 L8.8063,43.8918 C8.3613,43.8918 8.0003,43.5298 8.0003,43.0858 L8.0003,4.8058 C8.0003,4.3618 8.3613,3.9998 8.8063,3.9998 L38.3593,3.9998 C38.8033,3.9998 39.1643,4.3618 39.1643,4.8058 L39.1643,43.0858 Z M38.3593,1.9998 L8.8063,1.9998 C7.2593,1.9998 6.0003,3.2588 6.0003,4.8058 L6.0003,43.0858 C6.0003,44.6328 7.2593,45.8918 8.8063,45.8918 L38.3593,45.8918 C39.9063,45.8918 41.1643,44.6328 41.1643,43.0858 L41.1643,4.8058 C41.1643,3.2588 39.9063,1.9998 38.3593,1.9998 L38.3593,1.9998 Z" id="AWS-Identity-and-Access-Management_AWS-STS-alternate_-Resource-Icon_light-bg" fill="#BF0816"></path>
    </g>
</svg>