<?xml version="1.0" encoding="UTF-8"?>
<svg width="48px" height="48px" viewBox="0 0 48 48" version="1.1" xmlns="http://www.w3.org/2000/svg" xmlns:xlink="http://www.w3.org/1999/xlink">
    <title>Icon-Resource/Security-Identity-and-Compliance/Res_AWS-Identity-Access-Management_Temporary-Security-Credential_48_Light</title>
    <g id="Icon-Resource/Security-Identity-and-Compliance/Res_AWS-Identity-Access-Management_Temporary-Security-Credential_48" stroke="none" stroke-width="1" fill="none" fill-rule="evenodd">
        <path d="M35.201,29.6397 L37.201,29.6397 L37.201,37.6297 L30.959,37.6297 L30.959,35.6297 L35.201,35.6297 L35.201,29.6397 Z M36.201,43.4937 C31.934,43.4937 28.464,40.0227 28.464,35.7557 C28.464,31.4897 31.934,28.0187 36.201,28.0187 C40.468,28.0187 43.938,31.4897 43.938,35.7557 C43.938,40.0227 40.468,43.4937 36.201,43.4937 L36.201,43.4937 Z M36.201,26.0187 C30.832,26.0187 26.464,30.3867 26.464,35.7557 C26.464,41.1247 30.832,45.4937 36.201,45.4937 C41.57,45.4937 45.938,41.1247 45.938,35.7557 C45.938,30.3867 41.57,26.0187 36.201,26.0187 L36.201,26.0187 Z M4,38.2507 L24.843,38.2507 L24.843,40.2507 L3,40.2507 C2.447,40.2507 2,39.8037 2,39.2507 L2,34.8817 L4,34.8817 L4,38.2507 Z M39.319,9.6187 C40.124,9.6187 40.778,10.2737 40.778,11.0777 C40.778,11.8817 40.124,12.5357 39.319,12.5357 C38.515,12.5357 37.861,11.8817 37.861,11.0777 C37.861,10.2737 38.515,9.6187 39.319,9.6187 L39.319,9.6187 Z M39.319,14.5357 C41.226,14.5357 42.778,12.9847 42.778,11.0777 C42.778,9.1697 41.226,7.6187 39.319,7.6187 C37.412,7.6187 35.861,9.1697 35.861,11.0777 C35.861,12.9847 37.412,14.5357 39.319,14.5357 L39.319,14.5357 Z M14.494,9.6187 L29.17,9.6187 C29.605,9.6187 29.991,9.3367 30.123,8.9207 C31.056,5.9777 33.764,3.9997 36.861,3.9997 C40.763,3.9997 43.938,7.1747 43.938,11.0777 C43.938,14.9797 40.763,18.1547 36.861,18.1547 C33.764,18.1547 31.056,16.1767 30.123,13.2347 C29.991,12.8187 29.605,12.5357 29.17,12.5357 L26.677,12.5357 C26.411,12.5357 26.157,12.6417 25.97,12.8287 L24.569,14.2287 L23.17,12.8287 C22.982,12.6417 22.728,12.5357 22.463,12.5357 L21.057,12.5357 C20.792,12.5357 20.538,12.6417 20.35,12.8287 L18.95,14.2287 L17.551,12.8287 C17.363,12.6417 17.109,12.5357 16.844,12.5357 L15.112,12.5357 L13.33,10.9767 L14.494,9.6187 Z M14.078,14.2887 C14.26,14.4487 14.494,14.5357 14.736,14.5357 L16.43,14.5357 L18.243,16.3497 C18.634,16.7407 19.266,16.7407 19.657,16.3497 L21.472,14.5357 L22.049,14.5357 L23.862,16.3497 C24.253,16.7407 24.886,16.7407 25.276,16.3497 L27.091,14.5357 L28.47,14.5357 C29.853,17.9257 33.138,20.1547 36.861,20.1547 C41.866,20.1547 45.938,16.0817 45.938,11.0777 C45.938,6.0727 41.866,1.9997 36.861,1.9997 C33.138,1.9997 29.853,4.2297 28.47,7.6187 L14.034,7.6187 C13.742,7.6187 13.465,7.7467 13.275,7.9677 L11.168,10.4257 C10.81,10.8427 10.855,11.4687 11.268,11.8297 L14.078,14.2887 Z M2,26.3547 C2,21.3517 6.07,17.2817 11.073,17.2817 C14.802,17.2817 18.089,19.5097 19.472,22.8997 L20.847,22.8997 L22.659,21.0857 C23.034,20.7107 23.698,20.7107 24.073,21.0857 L25.886,22.8997 L26.465,22.8997 L28.277,21.0857 C28.668,20.6967 29.3,20.6957 29.69,21.0847 L31.512,22.8997 L33.204,22.8997 C33.445,22.8997 33.678,22.9867 33.86,23.1447 L34.674,23.8517 L33.361,25.3617 L32.83,24.8997 L31.098,24.8997 C30.834,24.8997 30.58,24.7947 30.392,24.6077 L28.986,23.2057 L27.586,24.6067 C27.398,24.7937 27.144,24.8997 26.879,24.8997 L25.472,24.8997 C25.206,24.8997 24.952,24.7937 24.764,24.6067 L23.366,23.2067 L21.968,24.6067 C21.78,24.7937 21.526,24.8997 21.261,24.8997 L18.77,24.8997 C18.334,24.8997 17.948,24.6177 17.817,24.2017 C16.886,21.2587 14.176,19.2817 11.073,19.2817 C7.173,19.2817 4,22.4537 4,26.3547 C4,30.2597 7.173,33.4367 11.073,33.4367 C14.176,33.4367 16.886,31.4587 17.817,28.5167 C17.948,28.1007 18.334,27.8187 18.77,27.8187 L27.211,27.8187 L27.211,29.8187 L19.472,29.8187 C18.089,33.2077 14.802,35.4367 11.073,35.4367 C6.07,35.4367 2,31.3627 2,26.3547 L2,26.3547 Z M8.618,27.8167 C7.814,27.8167 7.16,27.1617 7.16,26.3587 C7.16,25.5547 7.814,24.9007 8.618,24.9007 C9.423,24.9007 10.077,25.5547 10.077,26.3587 C10.077,27.1617 9.423,27.8167 8.618,27.8167 L8.618,27.8167 Z M8.618,22.9007 C6.711,22.9007 5.16,24.4517 5.16,26.3587 C5.16,28.2657 6.711,29.8167 8.618,29.8167 C10.525,29.8167 12.077,28.2657 12.077,26.3587 C12.077,24.4517 10.525,22.9007 8.618,22.9007 L8.618,22.9007 Z" id="AWS-Identity-and-Access-Management_Temporary-security-credential_Resource-Icon_dark-bg" fill="#BF0816"></path>
    </g>
</svg>