<?xml version="1.0" encoding="UTF-8"?>
<svg width="48px" height="48px" viewBox="0 0 48 48" version="1.1" xmlns="http://www.w3.org/2000/svg" xmlns:xlink="http://www.w3.org/1999/xlink">
    <title>Icon-Resource/Security-Identity-and-Compliance/Res_AWS-Identity-Access-Management_MFA-Token_48_Light</title>
    <g id="Icon-Resource/Security-Identity-and-Compliance/Res_AWS-Identity-Access-Management_MFA-Token_48" stroke="none" stroke-width="1" fill="none" fill-rule="evenodd">
        <path d="M32.6258,24.794 L34.3778,19.673 L36.1458,24.794 L32.6258,24.794 Z M35.4808,17.913 L33.3698,17.913 L29.3128,29.001 L31.2658,29.001 L32.1608,26.218 L36.5938,26.218 L37.5218,29.001 L39.4748,29.001 L35.4808,17.913 Z M24.8648,22.682 L28.7858,22.682 L28.7858,24.249 L24.8648,24.249 L24.8648,29.001 L22.9128,29.001 L22.9128,17.913 L29.6488,17.913 L29.6488,19.481 L24.8648,19.481 L24.8648,22.682 Z M18.2078,17.913 L20.3208,17.913 L20.3208,29.001 L18.5288,29.001 L18.5288,20.696 L15.6488,26.218 L13.8898,26.218 L11.1048,20.729 L11.1048,29.001 L9.3128,29.001 L9.3128,17.913 L11.4888,17.913 L14.8158,24.521 L18.2078,17.913 Z M24.0008,44.002 C12.9728,44.002 3.9998,35.029 3.9998,24.001 C3.9998,12.973 12.9728,4 24.0008,4 C35.0298,4 44.0028,12.973 44.0028,24.001 C44.0028,35.029 35.0298,44.002 24.0008,44.002 L24.0008,44.002 Z M24.0008,2 C11.8688,2 1.9998,11.869 1.9998,24.001 C1.9998,36.133 11.8688,46.002 24.0008,46.002 C36.1328,46.002 46.0028,36.133 46.0028,24.001 C46.0028,11.869 36.1328,2 24.0008,2 L24.0008,2 Z" id="AWS-Identity-and-Access-Management_MFA-token_Resource-Icon_light-bg" fill="#BF0816"></path>
    </g>
</svg>