<?xml version="1.0" encoding="UTF-8"?>
<svg width="48px" height="48px" viewBox="0 0 48 48" version="1.1" xmlns="http://www.w3.org/2000/svg" xmlns:xlink="http://www.w3.org/1999/xlink">
    <title>Icon-Resource/Security-Identity-and-Compliance/Res_AWS-IAM-Roles-Anywhere_48_Light</title>
    <g id="Icon-Resource/Security-Identity-and-Compliance/Res_AWS-IAM-Roles-Anywhere_48" stroke="none" stroke-width="1" fill="none" fill-rule="evenodd">
        <path d="M43.95,41.723 C43.641,41.743 43.286,41.765 42.905,41.786 L42.639,41.81 C41.098,41.958 39.397,42.071 38.46,41.797 L37.95,41.669 C37.508,41.53 37.057,41.34 36.549,41.124 C35.147,40.53 33.39,39.795 31.401,39.839 L31.35,37.84 C33.791,37.765 35.834,38.649 37.33,39.284 C37.774,39.472 38.166,39.64 38.5,39.747 L38.985,39.868 C39.09,39.898 39.249,39.924 39.467,39.942 L39.416,39.731 C38.336,35.383 34.271,32.23 29.533,32.071 C27.577,32 25.673,32.447 23.994,33.351 C21.515,35.159 20.039,37.886 19.938,40.842 C19.937,40.897 19.935,41.026 19.934,41.169 C20.886,41.768 22.103,42.147 23.423,42.259 C26.075,41.138 29.975,40.901 32.143,41.141 C33.812,41.326 35.609,42.178 37.053,42.863 C37.841,43.237 38.655,43.623 39.054,43.694 C39.714,43.807 41.17,43.708 42.453,43.619 L42.59,43.61 C42.998,43.579 43.404,43.555 43.791,43.536 C43.823,43.535 43.855,43.533 43.888,43.531 L43.95,41.723 Z M19.513,43.826 C19.823,43.779 20.131,43.708 20.433,43.629 C19.615,43.32 18.869,42.916 18.236,42.423 C17.749,42.641 17.253,42.848 16.763,43.043 C16.328,43.216 15.756,43.443 15.333,43.646 C16.016,43.89 17.236,44.056 18.847,43.894 L19.513,43.826 Z M31.746,29.204 C29.744,29.141 27.782,29.581 26.023,30.456 C27.181,30.171 28.383,30.035 29.6,30.072 C35.227,30.261 40.062,34.037 41.358,39.255 L41.514,39.898 C41.798,39.877 42.102,39.852 42.449,39.819 C42.624,39.803 42.747,39.792 42.801,39.789 C42.94,39.781 43.069,39.773 43.202,39.765 C42.533,33.966 37.678,29.404 31.746,29.204 L31.746,29.204 Z M45.967,41.242 L45.872,44.058 C45.846,44.844 45.209,45.482 44.421,45.51 C44.194,45.518 44.051,45.523 43.907,45.533 C43.515,45.552 43.127,45.576 42.731,45.604 L42.591,45.614 C41.057,45.72 39.612,45.819 38.711,45.664 C38.04,45.545 37.226,45.159 36.196,44.67 C34.887,44.049 33.259,43.277 31.924,43.129 C29.597,42.869 25.185,43.296 23.295,44.573 C22.293,45.254 20.573,45.785 19.019,45.892 L18.788,45.908 C18.677,45.917 18.553,45.926 18.416,45.933 L18.268,45.944 L18.267,45.941 C18.064,45.951 17.839,45.957 17.599,45.957 C16.193,45.957 14.293,45.744 13.327,44.71 C12.826,44.175 12.855,43.631 12.917,43.355 C13.147,42.328 14.353,41.848 16.024,41.184 C16.493,40.998 16.963,40.802 17.414,40.6 C17.577,36.419 19.575,32.573 22.909,30.04 C25.447,28.105 28.613,27.095 31.812,27.205 C38.859,27.443 44.596,32.953 45.216,39.891 C45.321,39.952 45.421,40.021 45.51,40.107 C45.815,40.402 45.982,40.816 45.967,41.242 L45.967,41.242 Z M20,23 L23,23 L23,20 L20,20 L20,23 Z M25,19 L25,24 C25,24.552 24.553,25 24,25 L19,25 C18.447,25 18,24.552 18,24 L18,19 C18,18.448 18.447,18 19,18 L24,18 C24.553,18 25,18.448 25,19 L25,19 Z M10,23 L13,23 L13,20 L10,20 L10,23 Z M15,19 L15,24 C15,24.552 14.553,25 14,25 L9,25 C8.447,25 8,24.552 8,24 L8,19 C8,18.448 8.447,18 9,18 L14,18 C14.553,18 15,18.448 15,19 L15,19 Z M20,13 L23,13 L23,10 L20,10 L20,13 Z M25,14 C25,14.552 24.553,15 24,15 L19,15 C18.447,15 18,14.552 18,14 L18,9 C18,8.448 18.447,8 19,8 L24,8 C24.553,8 25,8.448 25,9 L25,14 Z M10,13 L13,13 L13,10 L10,10 L10,13 Z M15,14 C15,14.552 14.553,15 14,15 L9,15 C8.447,15 8,14.552 8,14 L8,9 C8,8.448 8.447,8 9,8 L14,8 C14.553,8 15,8.448 15,9 L15,14 Z M20,31 L12,31 C11.448,31 11,31.449 11,32 L11,46 L10,46 L9,46 L4.333,46 C3.047,46 2,45.082 2,43.955 L2,4.045 C2,2.917 3.047,2 4.333,2 L28.667,2 C29.953,2 31,2.917 31,4.045 L31,25 L29,25 L29,4.045 C28.994,4.083 28.874,4 28.667,4 L4.333,4 C4.128,4 4.005,4.085 3.982,4.116 L4,43.955 C4.004,43.914 4.125,44 4.333,44 L9,44 L9,32 C9,30.346 10.346,29 12,29 L20,29 L20,31 Z" id="Fill-1" fill="#BF0816"></path>
    </g>
</svg>