<?xml version="1.0" encoding="UTF-8"?>
<svg width="48px" height="48px" viewBox="0 0 48 48" version="1.1" xmlns="http://www.w3.org/2000/svg" xmlns:xlink="http://www.w3.org/1999/xlink">
    <title>Icon-Resource/Security-Identity-and-Compliance/Res_AWS-WAF_Bad-Bot_48_Light</title>
    <g id="Icon-Resource/Security-Identity-and-Compliance/Res_AWS-WAF_Bad-Bot_48" stroke="none" stroke-width="1" fill="none" fill-rule="evenodd">
        <path d="M24,35 C21.586,35 19.565,33.279 19.102,31 L28.898,31 C28.435,33.279 26.414,35 24,35 L24,35 Z M24,25 C26.414,25 28.435,26.721 28.898,29 L19.102,29 C19.565,26.721 21.586,25 24,25 L24,25 Z M24,23 C20.141,23 17,26.14 17,30 C17,33.86 20.141,37 24,37 C27.859,37 31,33.86 31,30 C31,26.14 27.859,23 24,23 L24,23 Z M34,30 C34,34.962 29.963,39 25,39 L23,39 C18.037,39 14,34.962 14,30 C14,25.038 18.037,21 23,21 L25,21 C27.031,21 28.9,21.684 30.408,22.823 L30.518,22.993 L30.581,22.952 C32.66,24.603 34,27.146 34,30 L34,30 Z M22.291,17 L25.707,17 C27.131,17 28.332,18.126 28.779,19.683 C27.599,19.249 26.329,19 25,19 L23,19 C21.67,19 20.4,19.249 19.219,19.684 C19.666,18.126 20.867,17 22.291,17 L22.291,17 Z M22,8 C22,6.897 22.897,6 24,6 C25.103,6 26,6.897 26,8 C26,9.103 25.103,10 24,10 C22.897,10 22,9.103 22,8 L22,8 Z M46,17 L46,15 L39.221,15 L30.942,20.34 C30.652,17.341 28.416,15 25.707,15 L25,15 L25,11.858 C26.721,11.411 28,9.858 28,8 C28,5.794 26.206,4 24,4 C21.794,4 20,5.794 20,8 C20,9.858 21.279,11.411 23,11.858 L23,15 L22.291,15 C19.453,15 17.139,17.57 17.032,20.772 C16.997,20.796 16.958,20.816 16.923,20.839 L9.49,15 L2,15 L2,17 L8.799,17 L15.329,22.131 C14.477,22.962 13.763,23.931 13.214,25 L2,25 L2,27 L12.427,27 C12.155,27.955 12,28.959 12,30 C12,30.684 12.071,31.351 12.191,32 L2,32 L2,34 L12.764,34 C13.333,35.452 14.196,36.756 15.289,37.833 L8.212,42 L2,42 L2,44 L8.757,44 L16.949,39.177 C18.687,40.326 20.766,41 23,41 L25,41 C27.216,41 29.277,40.336 31.006,39.204 L38.565,44 L46,44 L46,42 L39.146,42 L32.656,37.882 C33.774,36.796 34.657,35.475 35.236,34 L46,34 L46,32 L35.809,32 C35.929,31.351 36,30.684 36,30 C36,28.959 35.845,27.955 35.573,27 L46,27 L46,25 L34.786,25 C34.167,23.794 33.332,22.721 32.332,21.823 L39.811,17 L46,17 Z" id="Fill-1" fill="#BF0816"></path>
    </g>
</svg>