<?xml version="1.0" encoding="UTF-8"?>
<svg width="48px" height="48px" viewBox="0 0 48 48" version="1.1" xmlns="http://www.w3.org/2000/svg" xmlns:xlink="http://www.w3.org/1999/xlink">
    <title>Icon-Resource/Security-Identity-and-Compliance/Res_AWS-WAF_Bot_48_Light</title>
    <g id="Icon-Resource/Security-Identity-and-Compliance/Res_AWS-WAF_Bot_48" stroke="none" stroke-width="1" fill="none" fill-rule="evenodd">
        <path d="M36.975,32.975 C35.653,34.297 33.348,34.297 32.026,32.975 C31.365,32.314 31,31.435 31,30.5 C31,29.565 31.365,28.686 32.026,28.025 C32.687,27.364 33.566,27 34.5,27 C35.435,27 36.314,27.364 36.975,28.025 C37.636,28.686 38,29.565 38,30.5 C38,31.435 37.636,32.314 36.975,32.975 L36.975,32.975 Z M34.5,25 C33.032,25 31.65,25.572 30.612,26.611 C29.573,27.649 29,29.031 29,30.5 C29,31.969 29.573,33.35 30.612,34.389 C31.65,35.428 33.032,36 34.5,36 C35.969,36 37.351,35.428 38.389,34.389 C39.428,33.35 40,31.969 40,30.5 C40,29.031 39.428,27.649 38.389,26.611 C37.351,25.572 35.969,25 34.5,25 L34.5,25 Z M15.975,32.975 C14.653,34.297 12.348,34.297 11.026,32.975 C10.365,32.314 10,31.435 10,30.5 C10,29.565 10.365,28.686 11.026,28.025 C11.687,27.364 12.566,27 13.5,27 C14.435,27 15.314,27.364 15.975,28.025 C16.636,28.686 17,29.565 17,30.5 C17,31.435 16.636,32.314 15.975,32.975 L15.975,32.975 Z M13.5,25 C12.032,25 10.65,25.572 9.612,26.611 C8.573,27.649 8,29.031 8,30.5 C8,31.969 8.573,33.35 9.612,34.389 C10.65,35.428 12.032,36 13.5,36 C14.969,36 16.351,35.428 17.389,34.389 C18.428,33.35 19,31.969 19,30.5 C19,29.031 18.428,27.649 17.389,26.611 C16.351,25.572 14.969,25 13.5,25 L13.5,25 Z M44,39.581 C44,39.812 43.813,40 43.581,40 L4.419,40 C4.188,40 4,39.812 4,39.581 L4,20.651 C4,20.292 4.292,20 4.651,20 L43.35,20 C43.708,20 44,20.292 44,20.651 L44,39.581 Z M22.179,14.911 L26.322,14.911 C28.246,14.911 29.855,16.226 30.338,18 L18.163,18 C18.646,16.226 20.254,14.911 22.179,14.911 L22.179,14.911 Z M22,6 C22,4.897 22.898,4 24,4 C25.103,4 26,4.897 26,6 C26,7.103 25.103,8 24,8 C22.898,8 22,7.103 22,6 L22,6 Z M43.35,18 L32.398,18 C31.881,15.112 29.357,12.911 26.322,12.911 L25,12.911 L25,9.858 C26.721,9.411 28,7.858 28,6 C28,3.794 26.206,2 24,2 C21.794,2 20,3.794 20,6 C20,7.858 21.28,9.411 23,9.858 L23,12.911 L22.179,12.911 C19.144,12.911 16.62,15.112 16.103,18 L4.651,18 C3.189,18 2,19.189 2,20.651 L2,39.581 C2,40.915 3.085,42 4.419,42 L17,42 L17,46 L19,46 L19,42 L29,42 L29,46 L31,46 L31,42 L43.581,42 C44.915,42 46,40.915 46,39.581 L46,20.651 C46,19.189 44.812,18 43.35,18 L43.35,18 Z" id="Fill-1" fill="#BF0816"></path>
    </g>
</svg>