<?xml version="1.0" encoding="UTF-8"?>
<svg width="48px" height="48px" viewBox="0 0 48 48" version="1.1" xmlns="http://www.w3.org/2000/svg" xmlns:xlink="http://www.w3.org/1999/xlink">
    <title>Icon-Resource/Front-End-Web-Mobile/Res_AWS-Amplify_AWS-Amplify-Studio_48_Light</title>
    <g id="Icon-Resource/Front-End-Web-Mobile/Res_AWS-Amplify_AWS-Amplify-Studio_48" stroke="none" stroke-width="1" fill="none" fill-rule="evenodd">
        <path d="M6,11 L31,11 L31,9 L6,9 L6,11 Z M33,11 L41,11 L41,9 L33,9 L33,11 Z M14.213,27.861 C15.425,27.499 16.784,27.915 17.565,28.99 L20.365,32.868 C20.687,33.316 21.312,33.418 21.761,33.094 C22.209,32.771 22.31,32.146 21.986,31.697 L19.194,27.829 C19.191,27.825 19.188,27.821 19.186,27.817 L11.152,16.688 C10.821,16.228 10.925,15.584 11.385,15.251 C11.846,14.918 12.49,15.024 12.822,15.484 L16.806,21.003 C16.812,21.013 16.82,21.024 16.828,21.035 L21.138,27.006 C21.46,27.452 22.086,27.555 22.533,27.231 C22.981,26.908 23.082,26.283 22.759,25.835 L18.437,19.845 C18.121,19.387 18.229,18.755 18.682,18.427 C19.141,18.097 19.787,18.199 20.119,18.659 L21.079,19.99 C21.089,20.004 21.098,20.017 21.107,20.03 L24.428,24.631 C24.751,25.077 25.376,25.18 25.823,24.856 C26.271,24.533 26.372,23.908 26.049,23.46 L22.713,18.837 C22.563,18.618 22.505,18.355 22.547,18.093 C22.591,17.821 22.738,17.583 22.961,17.422 C23.186,17.262 23.458,17.199 23.728,17.241 C23.998,17.285 24.236,17.432 24.397,17.655 L25.708,19.471 C25.712,19.476 25.715,19.48 25.718,19.484 L28.335,23.11 C28.657,23.557 29.283,23.659 29.73,23.335 C30.179,23.012 30.279,22.386 29.956,21.939 L27.334,18.305 C27.009,17.845 27.114,17.206 27.571,16.876 C27.796,16.716 28.068,16.653 28.338,16.695 C28.608,16.739 28.847,16.886 29.008,17.109 L32.915,22.52 C32.934,22.549 34.789,25.444 35.261,27.381 C35.705,29.204 38.284,33.227 39.459,34.998 L30.423,41.521 C29.581,40.479 27.889,38.891 25.199,38.517 C22.293,38.114 20.299,36.189 20.019,35.906 L14.213,27.861 Z M30.771,43.736 L41.413,36.054 C41.853,35.737 41.96,35.127 41.654,34.679 C40.549,33.06 37.594,28.507 37.204,26.907 C36.652,24.642 34.68,21.566 34.566,21.393 L30.63,15.939 C30.156,15.282 29.456,14.85 28.657,14.721 C27.855,14.592 27.057,14.781 26.401,15.255 C26.092,15.478 25.837,15.749 25.64,16.051 C25.203,15.638 24.653,15.365 24.047,15.267 C23.245,15.137 22.446,15.327 21.791,15.8 C21.442,16.052 21.156,16.368 20.945,16.729 C19.926,16.062 18.555,16.052 17.512,16.806 C17.219,17.017 16.975,17.272 16.782,17.554 L14.443,14.313 C13.465,12.958 11.565,12.652 10.215,13.63 C8.86,14.608 8.554,16.504 9.531,17.859 L15.217,25.736 C14.125,25.689 13.063,26.017 12.134,26.688 C11.919,26.843 11.773,27.078 11.731,27.34 C11.689,27.601 11.753,27.869 11.908,28.084 L18.438,37.133 C18.461,37.165 18.486,37.196 18.513,37.225 C18.615,37.336 21.068,39.964 24.924,40.499 C27.896,40.911 29.252,43.303 29.306,43.401 C29.442,43.654 29.682,43.836 29.962,43.9 C30.036,43.917 30.111,43.925 30.186,43.925 C30.394,43.925 30.599,43.86 30.771,43.736 L30.771,43.736 Z M45,18 L35,18 L35,16 L44,16 L44,6 L4,5.925 L4,16 L7,16 L7,18 L3,18 C2.447,18 2,17.552 2,17 L2,5 C2,4.447 2.447,4 3,4 L45,4 C45.553,4 46,4.447 46,5 L46,17 C46,17.552 45.553,18 45,18 L45,18 Z" id="Fill-1" fill="#BF0816"></path>
    </g>
</svg>