<?xml version="1.0" encoding="UTF-8"?>
<svg width="64px" height="64px" viewBox="0 0 64 64" version="1.1" xmlns="http://www.w3.org/2000/svg" xmlns:xlink="http://www.w3.org/1999/xlink">
    <title>Icon-Architecture/48/Arch_AWS-GameKit_48</title>
    <defs>
        <linearGradient x1="0%" y1="100%" x2="100%" y2="0%" id="linearGradient-1">
            <stop stop-color="#4D27A8" offset="0%"></stop>
            <stop stop-color="#A166FF" offset="100%"></stop>
        </linearGradient>
    </defs>
    <g id="Icon-Architecture/48/Arch_AWS-GameKit_48" stroke="none" stroke-width="1" fill="none" fill-rule="evenodd">
        <g id="Rectangle" fill="url(#linearGradient-1)">
            <rect x="0" y="0" width="64" height="64"></rect>
        </g>
        <g id="Icon-Service/48/AWS-GameKit_48" transform="translate(8.000000, 8.000000)" fill="#FFFFFF">
            <path d="M38.5,31.996 C38.5,31.168 39.172,30.496 40,30.496 C40.828,30.496 41.5,31.168 41.5,31.996 C41.5,32.824 40.828,33.496 40,33.496 C39.172,33.496 38.5,32.824 38.5,31.996 L38.5,31.996 Z M22.999,32.996 L21.999,32.996 L21.999,30.996 L22.999,30.996 L22.999,29.996 L24.999,29.996 L24.999,30.996 L25.999,30.996 L25.999,32.996 L24.999,32.996 L24.999,33.996 L22.999,33.996 L22.999,32.996 Z M43.402,43.555 C43.11,43.851 42.703,43.996 42.157,43.996 C40.435,43.996 38.831,40.134 37.771,37.578 C37.768,37.572 37.765,37.566 37.762,37.559 C38.454,37.838 39.208,37.996 39.999,37.996 C41.537,37.996 42.937,37.41 44,36.455 L44,41.809 C44.006,42.119 43.91,43.037 43.402,43.555 L43.402,43.555 Z M21.842,43.996 C21.296,43.996 20.889,43.852 20.598,43.555 C20.09,43.037 19.994,42.119 20,41.784 L20,36.456 C21.062,37.41 22.462,37.996 23.999,37.996 C24.79,37.996 25.543,37.838 26.235,37.559 C26.232,37.566 26.229,37.573 26.227,37.58 C25.167,40.135 23.564,43.996 21.842,43.996 L21.842,43.996 Z M23.999,27.996 C26.205,27.996 27.999,29.79 27.999,31.996 C27.999,34.201 26.205,35.996 23.999,35.996 C21.793,35.996 19.999,34.201 19.999,31.996 C19.999,29.79 21.793,27.996 23.999,27.996 L23.999,27.996 Z M34.811,34.996 L29.187,34.996 C29.7,34.112 29.999,33.089 29.999,31.996 C29.999,30.902 29.7,29.88 29.187,28.996 L34.811,28.996 C34.298,29.88 33.999,30.902 33.999,31.996 C33.999,33.089 34.298,34.112 34.811,34.996 L34.811,34.996 Z M39.999,27.996 C42.205,27.996 43.999,29.79 43.999,31.996 C43.999,34.201 42.205,35.996 39.999,35.996 C37.793,35.996 35.999,34.201 35.999,31.996 C35.999,29.79 37.793,27.996 39.999,27.996 L39.999,27.996 Z M46,41.784 L45.999,31.996 C45.999,28.687 43.308,25.996 39.999,25.996 C38.776,25.996 37.639,26.365 36.689,26.996 L27.309,26.996 C26.359,26.365 25.222,25.996 23.999,25.996 C20.69,25.996 17.99893,28.687 17.99893,31.996 L18,41.753 C17.994,41.951 17.975,43.723 19.155,44.941 C19.824,45.631 20.754,45.996 21.842,45.996 C24.899,45.996 26.66,41.755 28.074,38.346 C28.273,37.867 28.462,37.411 28.644,36.996 L35.354,36.996 C35.535,37.41 35.725,37.867 35.924,38.345 C37.339,41.754 39.1,45.996 42.157,45.996 C43.245,45.996 44.175,45.631 44.844,44.941 C46.024,43.723 46.006,41.951 46,41.784 L46,41.784 Z M4,17.997 L4,16.479 L8.37,12.997 L38.63,12.997 L43,16.479 L43,17.997 L37,17.997 L37,15.997 C37,15.445 36.553,14.997 36,14.997 L32,14.997 C31.447,14.997 31,15.445 31,15.997 L31,17.997 L16,17.997 L16,15.997 C16,15.445 15.553,14.997 15,14.997 L11,14.997 C10.447,14.997 10,15.445 10,15.997 L10,17.997 L4,17.997 Z M15,10.997 L32,10.997 L32,6.9 L15,6.9 L15,10.997 Z M33,21.997 L35,21.997 L35,16.997 L33,16.997 L33,21.997 Z M12,21.997 L14,21.997 L14,16.997 L12,16.997 L12,21.997 Z M11,23.997 L15,23.997 C15.553,23.997 16,23.549 16,22.997 L16,19.997 L31,19.997 L31,22.997 C31,23.549 31.447,23.997 32,23.997 L36,23.997 C36.553,23.997 37,23.549 37,22.997 L37,19.997 L42,19.997 L42,24.997 L44,24.997 L44,20.997 C44.553,20.997 45,20.549 45,19.997 L45,15.997 C45,15.692 44.861,15.405 44.623,15.215 L39.603,11.215 C39.426,11.073 39.206,10.997 38.979,10.997 L34,10.997 L34,6.744 C34,5.727 33.139,4.9 32.079,4.9 L14.502,4.9 C13.864,4.9 13.367,5.213 13.14,5.759 C13,6.094 13,6.433 13,6.744 L13,10.997 L8.021,10.997 C7.794,10.997 7.574,11.073 7.397,11.215 L2.377,15.215 C2.139,15.405 2,15.692 2,15.997 L2,19.997 C2,20.549 2.447,20.997 3,20.997 L3,33.178 C3,34.732 4.265,35.997 5.818,35.997 L15.999,35.997 L15.999,33.997 L5.818,33.997 C5.367,33.997 5,33.63 5,33.178 L5,19.997 L10,19.997 L10,22.997 C10,23.549 10.447,23.997 11,23.997 L11,23.997 Z" id="Fill-6"></path>
        </g>
    </g>
</svg>