<?xml version="1.0" encoding="UTF-8"?>
<svg width="64px" height="64px" viewBox="0 0 64 64" version="1.1" xmlns="http://www.w3.org/2000/svg" xmlns:xlink="http://www.w3.org/1999/xlink">
    <title>Icon-Architecture/48/Arch_Amazon-GameLift_48</title>
    <defs>
        <linearGradient x1="0%" y1="100%" x2="100%" y2="0%" id="linearGradient-1">
            <stop stop-color="#4D27A8" offset="0%"></stop>
            <stop stop-color="#A166FF" offset="100%"></stop>
        </linearGradient>
    </defs>
    <g id="Icon-Architecture/48/Arch_Amazon-GameLift_48" stroke="none" stroke-width="1" fill="none" fill-rule="evenodd">
        <g id="Rectangle" fill="url(#linearGradient-1)">
            <rect x="0" y="0" width="64" height="64"></rect>
        </g>
        <g id="Icon-Service/48/Amazon-GameLift_48" transform="translate(8.000000, 8.000000)" fill="#FFFFFF">
            <path d="M38.5,31.999 C38.5,31.171 39.172,30.499 40,30.499 C40.828,30.499 41.5,31.171 41.5,31.999 C41.5,32.827 40.828,33.499 40,33.499 C39.172,33.499 38.5,32.827 38.5,31.999 L38.5,31.999 Z M22.999,32.999 L21.999,32.999 L21.999,30.999 L22.999,30.999 L22.999,29.999 L24.999,29.999 L24.999,30.999 L25.999,30.999 L25.999,32.999 L24.999,32.999 L24.999,33.999 L22.999,33.999 L22.999,32.999 Z M43.402,43.558 C43.11,43.854 42.703,43.999 42.157,43.999 C40.435,43.999 38.831,40.137 37.771,37.581 C37.768,37.575 37.765,37.569 37.762,37.562 C38.454,37.841 39.208,37.999 39.999,37.999 C41.537,37.999 42.937,37.413 44,36.458 L44,41.812 C44.006,42.122 43.91,43.04 43.402,43.558 L43.402,43.558 Z M21.842,43.999 C21.296,43.999 20.889,43.855 20.598,43.558 C20.09,43.04 19.994,42.122 20,41.787 L20,36.459 C21.062,37.413 22.462,37.999 23.999,37.999 C24.79,37.999 25.543,37.841 26.235,37.562 C26.232,37.569 26.229,37.576 26.227,37.583 C25.167,40.138 23.564,43.999 21.842,43.999 L21.842,43.999 Z M23.999,27.999 C26.205,27.999 27.999,29.793 27.999,31.999 C27.999,34.204 26.205,35.999 23.999,35.999 C21.793,35.999 19.999,34.204 19.999,31.999 C19.999,29.793 21.793,27.999 23.999,27.999 L23.999,27.999 Z M34.811,34.999 L29.187,34.999 C29.7,34.115 29.999,33.092 29.999,31.999 C29.999,30.905 29.7,29.883 29.187,28.999 L34.811,28.999 C34.298,29.883 33.999,30.905 33.999,31.999 C33.999,33.092 34.298,34.115 34.811,34.999 L34.811,34.999 Z M39.999,27.999 C42.205,27.999 43.999,29.793 43.999,31.999 C43.999,34.204 42.205,35.999 39.999,35.999 C37.793,35.999 35.999,34.204 35.999,31.999 C35.999,29.793 37.793,27.999 39.999,27.999 L39.999,27.999 Z M46,41.787 L45.999,31.999 C45.999,28.69 43.308,25.999 39.999,25.999 C38.776,25.999 37.639,26.368 36.689,26.999 L27.309,26.999 C26.359,26.368 25.222,25.999 23.999,25.999 C20.69,25.999 17.99893,28.69 17.99893,31.999 L18,41.756 C17.994,41.954 17.975,43.726 19.155,44.944 C19.824,45.634 20.754,45.999 21.842,45.999 C24.899,45.999 26.66,41.758 28.074,38.349 C28.273,37.87 28.462,37.414 28.644,36.999 L35.354,36.999 C35.535,37.413 35.725,37.87 35.924,38.348 C37.339,41.757 39.1,45.999 42.157,45.999 C43.245,45.999 44.175,45.634 44.844,44.944 C46.024,43.726 46.006,41.954 46,41.787 L46,41.787 Z M8.606,32.598 C9.763,32.005 11.077,31.509 12.501,31.111 C13.297,33.556 14.376,35.611 15.661,37.128 C12.938,36.224 10.525,34.648 8.606,32.598 L8.606,32.598 Z M7.307,31.032 C5.424,28.469 4.248,25.368 4.051,22 L11.026,22 C11.094,24.58 11.418,27.004 11.956,29.193 C10.241,29.673 8.675,30.29 7.307,31.032 L7.307,31.032 Z M7.306,10.969 C8.674,11.712 10.242,12.327 11.956,12.807 C11.418,14.996 11.094,17.42 11.026,20 L4.051,20 C4.248,16.632 5.424,13.531 7.306,10.969 L7.306,10.969 Z M15.661,4.871 C14.376,6.389 13.297,8.443 12.501,10.889 C11.077,10.491 9.76,9.998 8.603,9.405 C10.522,7.353 12.936,5.776 15.661,4.871 L15.661,4.871 Z M21,4 C23.666,4 26.074,6.949 27.536,11.357 C25.491,11.77 23.285,12 21,12 C18.712,12 16.507,11.77 14.463,11.359 C15.926,6.949 18.333,4 21,4 L21,4 Z M33.394,9.401 C32.236,9.994 30.923,10.49 29.499,10.888 C28.703,8.443 27.624,6.389 26.339,4.871 C29.062,5.775 31.475,7.352 33.394,9.401 L33.394,9.401 Z M34.693,10.968 C36.576,13.53 37.752,16.632 37.949,20 L30.974,20 C30.906,17.42 30.582,14.995 30.044,12.807 C31.759,12.327 33.325,11.71 34.693,10.968 L34.693,10.968 Z M13.025,20 C13.094,17.606 13.404,15.33 13.911,13.282 C16.133,13.742 18.526,14 21,14 C23.471,14 25.865,13.742 28.089,13.281 C28.595,15.329 28.906,17.606 28.975,20 L13.025,20 Z M16,34.14 C15.417,33.127 14.898,31.951 14.464,30.642 C14.966,30.541 15.479,30.451 16,30.373 L16,28.362 C15.291,28.463 14.591,28.578 13.911,28.719 C13.405,26.671 13.094,24.393 13.025,22 L28.975,22 C28.946,23.026 28.863,24.025 28.748,25 L30.762,25 C30.869,24.025 30.947,23.029 30.974,22 L37.949,22 C37.91,22.679 37.82,23.344 37.702,24 L39.74,24 C39.896,23.02 40,22.023 40,21 C40,10.523 31.477,2 21,2 C10.523,2 2,10.523 2,21 C2,29.744 7.945,37.107 16,39.31 L16,34.14 Z" id="Fill-5"></path>
        </g>
    </g>
</svg>