<?xml version="1.0" encoding="UTF-8"?>
<svg width="64px" height="64px" viewBox="0 0 64 64" version="1.1" xmlns="http://www.w3.org/2000/svg" xmlns:xlink="http://www.w3.org/1999/xlink">
    <title>Icon-Architecture/48/Arch_Amazon-MemoryDB-for-Redis_48</title>
    <defs>
        <linearGradient x1="0%" y1="100%" x2="100%" y2="0%" id="linearGradient-1">
            <stop stop-color="#2E27AD" offset="0%"></stop>
            <stop stop-color="#527FFF" offset="100%"></stop>
        </linearGradient>
    </defs>
    <g id="Icon-Architecture/48/Arch_Amazon-MemoryDB-for-Redis_48" stroke="none" stroke-width="1" fill="none" fill-rule="evenodd">
        <g id="Rectangle" fill="url(#linearGradient-1)">
            <rect x="0" y="0" width="64" height="64"></rect>
        </g>
        <g id="Icon-Service/48/Amazon-MemoryDB-for-Redis_48" transform="translate(8.000000, 8.000000)" fill="#FFFFFF">
            <path d="M16.887,12.199 C9.32,12.199 4.046,10.038 4.046,8.099 C4.046,6.16 9.32,4 16.887,4 C24.369,4 29,6.128 29,8.099 C29,10.071 24.369,12.199 16.887,12.199 L16.887,12.199 Z M9.653,34.362 L11.42,35.299 C14.889,28.75 21.633,24.682 29.021,24.682 C30.513,24.682 32.001,24.849 33.444,25.178 L33.887,23.227 C32.94,23.012 31.974,22.867 31,22.78 L31,7.899 L30.981,7.899 C30.774,4.363 25.171,2 16.887,2 C9.639,2 2.32,4.028 2.07,7.899 L2,7.899 L2,39.684 C2,42.036 4.494,43.921 9.025,44.991 L9.484,43.044 C6.153,42.258 4,40.939 4,39.684 L4,32.605 C5.017,33.341 6.399,33.973 8.155,34.461 L8.69,32.534 C5.825,31.739 4.046,30.542 4.046,29.412 L4,29.412 L4,22.247 C6.533,24.101 11.176,25.108 15.8,25.3 L15.882,23.302 C8.572,22.998 4.046,20.824 4.046,18.983 L4,18.983 L4,11.286 C6.7,13.208 11.815,14.199 16.887,14.199 C22.353,14.199 26.645,13.167 29,11.452 L29,22.683 C20.878,22.691 13.466,27.164 9.653,34.362 L9.653,34.362 Z M39.192,27.483 C37.935,26.733 36.596,26.122 35.212,25.668 L35.835,23.767 C37.36,24.267 38.833,24.94 40.217,25.766 L39.192,27.483 Z M31.84,43.899 C31.695,43.111 31.369,42.391 30.911,41.77 L39.407,33.736 C42.057,36.371 43.722,40.06 43.968,43.899 L31.84,43.899 Z M26.737,41.639 C28.172,41.639 29.375,42.595 29.778,43.899 L23.694,43.899 C24.098,42.595 25.302,41.639 26.737,41.639 L26.737,41.639 Z M40.856,32.366 L43.588,29.783 L42.213,28.33 L29.432,40.415 C28.644,39.932 27.727,39.639 26.737,39.639 C24.191,39.639 22.076,41.481 21.632,43.899 L13.283,43.899 C13.791,35.758 20.479,29.293 28.625,29.293 C30.836,29.293 32.97,29.752 34.967,30.657 L35.793,28.836 C33.534,27.812 31.123,27.293 28.625,27.293 C19.045,27.293 11.251,35.191 11.251,44.899 L11.251,45.899 L46,45.899 L46,44.899 C46,40.206 44.08,35.598 40.856,32.366 L40.856,32.366 Z" id="Fill-4"></path>
        </g>
    </g>
</svg>