<?xml version="1.0" encoding="UTF-8"?>
<svg width="48px" height="48px" viewBox="0 0 48 48" version="1.1" xmlns="http://www.w3.org/2000/svg" xmlns:xlink="http://www.w3.org/1999/xlink">
    <title>Icon-Resource/IoT/Res_AWS-IoT-Analytics_Channel_48_Light</title>
    <g id="Icon-Resource/IoT/Res_AWS-IoT-Analytics_Channel_48" stroke="none" stroke-width="1" fill="none" fill-rule="evenodd">
        <path d="M29.049,23.522 C29.049,20.301 31.669,17.681 34.89,17.681 C38.111,17.681 40.731,20.301 40.731,23.522 C40.731,26.743 38.111,29.363 34.89,29.363 C31.669,29.363 29.049,26.743 29.049,23.522 Z M15.368,41.94 C15.368,40.751 16.335,39.783 17.525,39.783 C18.714,39.783 19.682,40.751 19.682,41.94 C19.682,43.13 18.714,44.097 17.525,44.097 C16.335,44.097 15.368,43.13 15.368,41.94 Z M17.525,4 C18.714,4 19.682,4.967 19.682,6.157 C19.682,7.346 18.714,8.314 17.525,8.314 C16.335,8.314 15.368,7.346 15.368,6.157 C15.368,4.967 16.335,4 17.525,4 Z M8,34.573 C8,33.384 8.968,32.416 10.158,32.416 C11.347,32.416 12.315,33.384 12.315,34.573 C12.315,35.762 11.347,36.73 10.158,36.73 C8.968,36.73 8,35.762 8,34.573 Z M10.106,24.049 C10.106,22.859 11.074,21.891 12.263,21.891 C13.453,21.891 14.42,22.859 14.42,24.049 C14.42,25.238 13.453,26.206 12.263,26.206 C11.074,26.206 10.106,25.238 10.106,24.049 Z M8,13.524 C8,12.335 8.968,11.367 10.158,11.367 C11.347,11.367 12.315,12.335 12.315,13.524 C12.315,14.714 11.347,15.681 10.158,15.681 C8.968,15.681 8,14.714 8,13.524 Z M30.107,17.324 L21.074,8.291 C21.452,7.665 21.682,6.94 21.682,6.157 C21.682,3.865 19.817,2 17.525,2 C15.233,2 13.368,3.865 13.368,6.157 C13.368,8.449 15.233,10.314 17.525,10.314 C18.308,10.314 19.034,10.084 19.66,9.705 L28.693,18.738 C28.437,19.068 28.202,19.414 28,19.783 L14.277,13.902 C14.288,13.775 14.315,13.653 14.315,13.524 C14.315,11.232 12.45,9.367 10.158,9.367 C7.866,9.367 6,11.232 6,13.524 C6,15.816 7.866,17.681 10.158,17.681 C11.61,17.681 12.886,16.93 13.629,15.8 L27.285,21.651 C27.173,22.103 27.102,22.57 27.074,23.049 L16.285,23.049 C15.834,21.24 14.208,19.891 12.263,19.891 C9.971,19.891 8.106,21.757 8.106,24.049 C8.106,26.341 9.971,28.206 12.263,28.206 C14.208,28.206 15.834,26.857 16.285,25.049 L27.201,25.049 C27.288,25.488 27.417,25.912 27.575,26.322 L13.629,32.298 C12.886,31.167 11.61,30.416 10.158,30.416 C7.866,30.416 6,32.281 6,34.573 C6,36.865 7.866,38.73 10.158,38.73 C12.45,38.73 14.315,36.865 14.315,34.573 C14.315,34.444 14.288,34.322 14.277,34.195 L28.443,28.125 L28.247,27.668 C28.518,28.1 28.828,28.504 29.176,28.875 L19.66,38.392 C19.034,38.013 18.308,37.783 17.525,37.783 C15.233,37.783 13.368,39.648 13.368,41.94 C13.368,44.232 15.233,46.097 17.525,46.097 C19.817,46.097 21.682,44.232 21.682,41.94 C21.682,41.157 21.452,40.431 21.074,39.806 L30.726,30.154 C31.934,30.916 33.359,31.363 34.89,31.363 C39.213,31.363 42.731,27.845 42.731,23.522 C42.731,19.199 39.213,15.681 34.89,15.681 C33.088,15.681 31.432,16.299 30.107,17.324 Z" id="AWS-IoT-Analytics-Channel_Resource-Icon_light-bg" fill="#3F8624"></path>
    </g>
</svg>