<?xml version="1.0" encoding="UTF-8"?>
<svg width="48px" height="48px" viewBox="0 0 48 48" version="1.1" xmlns="http://www.w3.org/2000/svg" xmlns:xlink="http://www.w3.org/1999/xlink">
    <title>Icon-Resource/IoT/Res_AWS-IoT-Analytics_Data-Store_48_Light</title>
    <g id="Icon-Resource/IoT/Res_AWS-IoT-Analytics_Data-Store_48" stroke="none" stroke-width="1" fill="none" fill-rule="evenodd">
        <path d="M17.632,40 L22.632,40 L22.632,38 L17.632,38 L17.632,40 Z M13.632,40 L15.632,40 L15.632,38 L13.632,38 L13.632,40 Z M17.632,30 L22.632,30 L22.632,28 L17.632,28 L17.632,30 Z M13.632,30 L15.632,30 L15.632,28 L13.632,28 L13.632,30 Z M17.632,19 L22.632,19 L22.632,17 L17.632,17 L17.632,19 Z M13.632,19 L15.632,19 L15.632,17 L13.632,17 L13.632,19 Z M11,19.211 L11,11.527 C13.376,13.269 17.723,14.316 23.264,14.316 C28.375,14.316 33.528,13.321 36.264,11.392 L36.264,19.211 C36.264,21.178 30.925,23.368 23.264,23.368 C15.688,23.368 11,21.21 11,19.211 Z M11,29.554 L11,22.579 C13.376,24.319 17.723,25.368 23.264,25.368 C28.246,25.368 33.488,24.451 36.264,22.495 L36.264,29.554 C36.264,31.508 30.925,33.685 23.264,33.685 C15.587,33.685 11,31.584 11,29.554 Z M11,39.843 L11,32.907 C13.376,34.641 17.723,35.685 23.264,35.685 C28.246,35.685 33.488,34.771 36.264,32.823 L36.264,39.843 C36.264,41.809 30.925,44 23.264,44 C15.587,44 11,41.887 11,39.843 Z M36.264,8.158 C36.264,10.125 30.925,12.316 23.264,12.316 C15.688,12.316 11,10.158 11,8.158 C11,6.158 15.688,4 23.264,4 C30.925,4 36.264,6.191 36.264,8.158 Z M9,8.158 L9,39.843 C9,43.525 14.732,46 23.264,46 C30.488,46 38.264,44.073 38.264,39.843 L38.264,8.158 C38.264,4.115 30.718,2 23.264,2 C14.732,2 9,4.475 9,8.158 Z" id="AWS-IoT-Analytics-Data-Store_Resource-Icon_light-bg" fill="#3F8624"></path>
    </g>
</svg>