<?xml version="1.0" encoding="UTF-8"?>
<svg width="48px" height="48px" viewBox="0 0 48 48" version="1.1" xmlns="http://www.w3.org/2000/svg" xmlns:xlink="http://www.w3.org/1999/xlink">
    <title>Icon-Resource/IoT/Res_Device-Gateway_48_Light</title>
    <g id="Icon-Resource/IoT/Res_Device-Gateway_48" stroke="none" stroke-width="1" fill="none" fill-rule="evenodd">
        <path d="M20.4426,21.3965 C20.4426,21.9415 20.8856,22.3855 21.4306,22.3855 C21.9756,22.3855 22.4186,21.9415 22.4186,21.3965 C22.4186,20.8515 21.9756,20.4085 21.4306,20.4085 C20.8856,20.4085 20.4426,20.8515 20.4426,21.3965 Z M27.7656,27.5125 C27.7656,26.9685 27.3226,26.5245 26.7776,26.5245 C26.2326,26.5245 25.7886,26.9685 25.7886,27.5125 C25.7886,28.0575 26.2326,28.5015 26.7776,28.5015 C27.3226,28.5015 27.7656,28.0575 27.7656,27.5125 Z M30.6856,31.0225 L30.6856,22.4055 L24.2316,22.4055 C23.8156,23.5555 22.7226,24.3855 21.4306,24.3855 C19.7836,24.3855 18.4426,23.0445 18.4426,21.3965 C18.4426,19.7495 19.7836,18.4085 21.4306,18.4085 C22.7296,18.4085 23.8256,19.2465 24.2376,20.4055 L30.6856,20.4055 L30.6856,17.8885 L17.5316,17.8885 L17.5316,26.5215 L23.9716,26.5215 C24.3826,25.3625 25.4796,24.5245 26.7776,24.5245 C28.4246,24.5245 29.7656,25.8655 29.7656,27.5125 C29.7656,29.1605 28.4246,30.5015 26.7776,30.5015 C25.4856,30.5015 24.3926,29.6725 23.9766,28.5215 L17.5316,28.5215 L17.5316,31.0225 L30.6856,31.0225 Z M16.5316,33.0225 C15.9786,33.0225 15.5316,32.5755 15.5316,32.0225 L15.5316,16.8885 C15.5316,16.3365 15.9786,15.8885 16.5316,15.8885 L31.6856,15.8885 C32.2386,15.8885 32.6856,16.3365 32.6856,16.8885 L32.6856,32.0225 C32.6856,32.5755 32.2386,33.0225 31.6856,33.0225 L16.5316,33.0225 Z M44.1426,14.7815 L36.8896,7.4365 L36.8896,41.9375 L44.1426,37.5865 L44.1426,14.7815 Z M46.1426,38.1525 C46.1426,38.5045 45.9576,38.8295 45.6576,39.0105 L36.4046,44.5615 C36.2456,44.6565 36.0676,44.7045 35.8896,44.7045 C35.7196,44.7045 35.5496,44.6615 35.3966,44.5745 C35.0826,44.3965 34.8896,44.0645 34.8896,43.7045 L34.8896,39.5985 L32.1496,39.5985 L32.1496,37.5985 L34.8896,37.5985 L34.8896,11.1975 L32.1496,11.1975 L32.1496,9.1975 L34.8896,9.1975 L34.8896,5.0005 C34.8896,4.5955 35.1346,4.2285 35.5096,4.0755 C35.8846,3.9205 36.3156,4.0095 36.6016,4.2985 L45.8546,13.6695 C46.0386,13.8555 46.1426,14.1085 46.1426,14.3715 L46.1426,38.1525 Z M11.2526,7.4365 L3.9996,14.7815 L3.9996,37.5865 L11.2526,41.9375 L11.2526,7.4365 Z M13.2526,37.5985 L16.0326,37.5985 L16.0326,39.5985 L13.2526,39.5985 L13.2526,43.7045 C13.2526,44.0645 13.0596,44.3965 12.7456,44.5745 C12.5926,44.6615 12.4226,44.7045 12.2526,44.7045 C12.0746,44.7045 11.8966,44.6565 11.7386,44.5615 L2.4856,39.0105 C2.1846,38.8295 1.9996,38.5045 1.9996,38.1525 L1.9996,14.3715 C1.9996,14.1085 2.1036,13.8555 2.2876,13.6695 L11.5406,4.2985 C11.8266,4.0095 12.2576,3.9205 12.6326,4.0755 C13.0076,4.2285 13.2526,4.5955 13.2526,5.0005 L13.2526,9.1975 L16.0326,9.1975 L16.0326,11.1975 L13.2526,11.1975 L13.2526,37.5985 Z M18.9726,39.5985 L22.6736,39.5985 L22.6736,37.5985 L18.9726,37.5985 L18.9726,39.5985 Z M25.5086,39.5985 L29.2876,39.5985 L29.2876,37.5985 L25.5086,37.5985 L25.5086,39.5985 Z M18.9726,11.1975 L22.6736,11.1975 L22.6736,9.1975 L18.9726,9.1975 L18.9726,11.1975 Z M25.5086,11.1975 L29.2876,11.1975 L29.2876,9.1975 L25.5086,9.1975 L25.5086,11.1975 Z" id="Amazon-IOT-RESOURCES-Device-Gateway_Resource-Icon_light-bg" fill="#3F8624"></path>
    </g>
</svg>