<?xml version="1.0" encoding="UTF-8"?>
<svg width="48px" height="48px" viewBox="0 0 48 48" version="1.1" xmlns="http://www.w3.org/2000/svg" xmlns:xlink="http://www.w3.org/1999/xlink">
    <title>Icon-Resource/IoT/Res_Fire-TV_Stick_48_Light</title>
    <g id="Icon-Resource/IoT/Res_Fire-TV_Stick_48" stroke="none" stroke-width="1" fill="none" fill-rule="evenodd">
        <path d="M31.744,25.1944 C31.492,25.4054 31.251,25.2934 31.363,25.0134 C31.733,24.0904 32.56,22.0254 32.167,21.5234 C31.776,21.0224 29.579,21.2864 28.593,21.4044 C28.294,21.4394 28.247,21.1784 28.517,20.9894 C30.27,19.7584 33.14,20.1144 33.474,20.5264 C33.81,20.9414 33.386,23.8204 31.744,25.1944 Z M19.574,26.4384 C14.217,26.4384 9.394,24.4584 5.745,21.1634 C5.458,20.9044 5.713,20.5504 6.058,20.7514 C9.995,23.0424 14.866,24.4224 19.895,24.4224 C23.287,24.4224 27.017,23.7184 30.449,22.2624 C30.966,22.0434 31.401,22.6034 30.894,22.9774 C27.832,25.2364 23.395,26.4384 19.574,26.4384 Z M40.698,28.8534 L43.941,28.8534 L43.941,18.6214 L40.698,18.6214 L40.698,28.8534 Z M38.698,30.9174 C38.698,31.2244 38.448,31.4744 38.14,31.4744 L4,31.4744 L4,16.0004 L38.14,16.0004 C38.448,16.0004 38.698,16.2504 38.698,16.5574 L38.698,17.6214 L38.698,29.8534 L38.698,30.9174 Z M40.698,16.6214 L40.698,16.5574 C40.698,15.1474 39.55,14.0004 38.14,14.0004 L3,14.0004 C2.448,14.0004 2,14.4474 2,15.0004 L2,32.4744 C2,33.0274 2.448,33.4744 3,33.4744 L38.14,33.4744 C39.55,33.4744 40.698,32.3274 40.698,30.9174 L40.698,30.8534 L44.941,30.8534 C45.494,30.8534 45.941,30.4064 45.941,29.8534 L45.941,17.6214 C45.941,17.0684 45.494,16.6214 44.941,16.6214 L40.698,16.6214 Z" id="Amazon-IOT-RESOURCES-Fire-TV-stick_Resource-Icon_light-bg" fill="#3F8624"></path>
    </g>
</svg>