<?xml version="1.0" encoding="UTF-8"?>
<svg width="48px" height="48px" viewBox="0 0 48 48" version="1.1" xmlns="http://www.w3.org/2000/svg" xmlns:xlink="http://www.w3.org/1999/xlink">
    <title>Icon-Resource/IoT/Res_AWS-IoT-Greengrass_Artifact_48_Light</title>
    <g id="Icon-Resource/IoT/Res_AWS-IoT-Greengrass_Artifact_48" stroke="none" stroke-width="1" fill="none" fill-rule="evenodd">
        <path d="M9,24 C9,22.897 8.103,22 7,22 C5.897,22 5,22.897 5,24 C5,25.103 5.897,26 7,26 C8.103,26 9,25.103 9,24 L9,24 Z M42,22 C40.897,22 40,22.897 40,24 C40,25.103 40.897,26 42,26 C43.103,26 44,25.103 44,24 C44,22.897 43.103,22 42,22 L42,22 Z M24.452,42 C23.35,42 22.452,42.897 22.452,44 C22.452,45.103 23.35,46 24.452,46 C25.555,46 26.452,45.103 26.452,44 C26.452,42.897 25.555,42 24.452,42 L24.452,42 Z M24.452,6 C25.555,6 26.452,5.103 26.452,4 C26.452,2.897 25.555,2 24.452,2 C23.35,2 22.452,2.897 22.452,4 C22.452,5.103 23.35,6 24.452,6 L24.452,6 Z M26.577,16.693 L20.473,30.33 L22.299,31.147 L28.403,17.51 L26.577,16.693 Z M30.189,27.804 L34.821,24.424 C35.056,24.252 35.205,23.987 35.229,23.697 C35.252,23.407 35.147,23.122 34.943,22.914 L30.875,18.787 L29.451,20.191 L32.705,23.492 L29.01,26.189 L30.189,27.804 Z M18.688,18.661 L14,22.083 C13.765,22.254 13.616,22.52 13.593,22.81 C13.569,23.1 13.674,23.386 13.879,23.593 L17.961,27.72 L19.383,26.314 L16.118,23.013 L19.867,20.276 L18.688,18.661 Z M41,20 L43,20 L43,14.166 C43,13.809 42.811,13.479 42.502,13.3 L28.039,4.916 L27.035,6.646 L41,14.742 L41,20 Z M41,33.621 L27.065,41.611 L28.06,43.347 L42.497,35.068 C42.809,34.89 43,34.559 43,34.2 L43,28 L41,28 L41,33.621 Z M7.999,28 L5.999,28 L5.999,34.009 C5.999,34.362 6.186,34.69 6.49,34.87 L20.698,43.266 L21.716,41.544 L7.999,33.438 L7.999,28 Z M7.999,20 L5.999,20 L5.999,13.974 C5.999,13.616 6.19,13.285 6.501,13.107 L20.747,4.916 L21.743,6.649 L7.999,14.552 L7.999,20 Z" id="Fill-1" fill="#3F8624"></path>
    </g>
</svg>