<?xml version="1.0" encoding="UTF-8"?>
<svg width="48px" height="48px" viewBox="0 0 48 48" version="1.1" xmlns="http://www.w3.org/2000/svg" xmlns:xlink="http://www.w3.org/1999/xlink">
    <title>Icon-Resource/IoT/Res_IoT-HTTP_Protocol_48_Light</title>
    <g id="Icon-Resource/IoT/Res_IoT-HTTP_Protocol_48" stroke="none" stroke-width="1" fill="none" fill-rule="evenodd">
        <path d="M18.8612,43.9609 L40.1962,43.9609 L43.9612,43.9609 L43.9612,40.1969 L43.9612,32.8489 L18.8612,32.8489 L18.8612,43.9609 Z M16.8612,30.8489 L45.9612,30.8489 L45.9612,40.1969 L45.9612,45.9609 L40.1962,45.9609 L16.8612,45.9609 L16.8612,30.8489 Z M7.7642,1.9999 C4.5862,1.9999 2.0002,4.5859 2.0002,7.7649 L2.0002,40.1969 C2.0002,43.3749 4.5862,45.9609 7.7642,45.9609 L15.2382,45.9609 L15.2382,43.9609 L7.7642,43.9609 C5.6882,43.9609 4.0002,42.2729 4.0002,40.1969 L4.0002,7.7649 C4.0002,5.6889 5.6882,3.9999 7.7642,3.9999 L40.1962,3.9999 C42.2722,3.9999 43.9612,5.6889 43.9612,7.7649 L43.9612,29.2259 L45.9612,29.2259 L45.9612,7.7649 C45.9612,4.5859 43.3752,1.9999 40.1962,1.9999 L7.7642,1.9999 Z M40.2092,38.7089 C40.5372,38.7089 40.7942,38.5839 40.9792,38.3309 C41.1652,38.0799 41.2572,37.7339 41.2572,37.2929 C41.2572,36.8459 41.1652,36.4969 40.9792,36.2499 C40.7942,36.0009 40.5372,35.8769 40.2092,35.8769 L39.1712,35.8769 L39.1712,38.7089 L40.2092,38.7089 Z M39.1712,39.5169 L39.1712,42.3389 L38.1842,42.3389 L38.1842,35.0689 L40.3132,35.0689 C40.7052,35.0689 41.0492,35.1629 41.3462,35.3529 C41.6432,35.5409 41.8712,35.8039 42.0292,36.1399 C42.1862,36.4749 42.2642,36.8589 42.2642,37.2929 C42.2642,37.9649 42.0852,38.5039 41.7242,38.9079 C41.3642,39.3139 40.8942,39.5169 40.3132,39.5169 L39.1712,39.5169 Z M32.6142,35.9189 L34.4182,35.9189 L34.4182,42.3389 L35.4352,42.3389 L35.4352,35.9189 L37.2502,35.9189 L37.2502,35.0689 L32.6142,35.0689 L32.6142,35.9189 Z M27.3692,35.9189 L29.1732,35.9189 L29.1732,42.3389 L30.1912,42.3389 L30.1912,35.9189 L32.0062,35.9189 L32.0062,35.0689 L27.3692,35.0689 L27.3692,35.9189 Z M25.4182,35.0689 L26.4352,35.0689 L26.4352,42.3389 L25.4182,42.3389 L25.4182,39.0339 L22.7742,39.0339 L22.7742,42.3389 L21.7572,42.3389 L21.7572,35.0689 L22.7742,35.0689 L22.7742,38.2059 L25.4182,38.2059 L25.4182,35.0689 Z" id="Amazon-IOT-RESOURCES-IoT-HTTP-protocol_Resource-Icon_light-bg" fill="#3F8624"></path>
    </g>
</svg>