<?xml version="1.0" encoding="UTF-8"?>
<svg width="48px" height="48px" viewBox="0 0 48 48" version="1.1" xmlns="http://www.w3.org/2000/svg" xmlns:xlink="http://www.w3.org/1999/xlink">
    <title>Icon-Resource/IoT/Res_Amazon-IOT_Over-Air-Update_48_Light</title>
    <g id="Icon-Resource/IoT/Res_Amazon-IOT_Over-Air-Update_48" stroke="none" stroke-width="1" fill="none" fill-rule="evenodd">
        <path d="M18.1091,38.1885 L20.3961,38.1885 L20.3961,36.1885 L14.8481,36.1885 L14.8481,41.6995 L16.8481,41.6995 L16.8481,39.7385 C18.5551,41.1515 20.7111,41.9525 22.9501,41.9525 C28.2251,41.9525 32.5161,37.6615 32.5161,32.3865 L30.5161,32.3865 C30.5161,36.5575 27.1221,39.9525 22.9501,39.9525 C21.1731,39.9525 19.4611,39.3145 18.1091,38.1885 Z M25.6081,28.5285 L31.1561,28.5285 L31.1561,23.0175 L29.1561,23.0175 L29.1561,25.1195 C27.4341,23.6505 25.2351,22.8195 22.9501,22.8195 C17.6751,22.8195 13.3841,27.1105 13.3841,32.3865 L15.3841,32.3865 C15.3841,28.2145 18.7781,24.8195 22.9501,24.8195 C24.6981,24.8195 26.3801,25.4375 27.7211,26.5285 L25.6081,26.5285 L25.6081,28.5285 Z M43.6101,33.4125 C41.1641,35.8415 37.7191,35.8905 37.4451,35.8905 L37.4331,35.8905 L35.1561,35.8895 L35.1581,33.8895 L37.4411,33.8905 C37.4671,33.8905 39.1641,33.8815 40.8031,33.0125 C42.9001,31.8995 43.9651,29.8945 43.9651,27.0525 C43.9651,25.7925 43.6381,23.9065 40.8211,22.0905 C39.3541,21.1425 37.9801,20.8315 37.4581,20.7415 C36.9301,20.6505 36.5701,20.1625 36.6361,19.6345 C36.4751,17.5305 35.8281,16.1605 34.7111,15.5625 C33.3231,14.8185 31.4421,15.2185 30.4291,16.4665 L30.3131,16.6145 C30.0961,16.9115 29.7371,17.0665 29.3671,17.0115 C29.0041,16.9595 28.6971,16.7115 28.5701,16.3665 L28.4321,15.9925 C27.8231,14.3975 26.9711,13.0385 25.9031,11.9635 C24.4981,10.5505 20.6451,7.5065 15.2031,9.8215 C12.0621,11.1555 9.6021,15.0035 9.6021,18.5805 C9.6021,18.9805 9.6261,19.3815 9.6741,19.7725 C9.7351,20.2815 9.4001,20.7555 8.8991,20.8675 C8.8861,20.8705 8.8711,20.8735 8.8561,20.8765 C7.0091,21.3685 4.0001,22.8455 4.0001,27.2285 C4.0001,30.5695 5.8051,32.4115 7.3211,33.3675 C7.8311,33.6895 8.4191,33.8605 9.0201,33.8615 L11.6211,33.8635 L11.6191,35.8635 L9.0181,35.8615 C8.0381,35.8605 7.0821,35.5825 6.2531,35.0585 C4.6651,34.0565 2.0001,31.7055 2.0001,27.2285 C2.0001,21.9585 5.4621,19.9235 7.6171,19.1675 C7.6071,18.9725 7.6021,18.7755 7.6021,18.5805 C7.6021,14.1895 10.5341,9.6325 14.4211,7.9805 C18.9781,6.0465 23.8001,7.0095 27.3211,10.5535 C28.3481,11.5875 29.2031,12.8315 29.8701,14.2625 C31.5331,13.0455 33.8221,12.8195 35.6551,13.7995 C36.8041,14.4145 38.2021,15.8045 38.5761,18.9395 C39.7121,19.2365 40.8891,19.7535 41.9051,20.4095 C44.6371,22.1705 45.9651,24.3445 45.9651,27.0525 C45.9651,29.7215 45.1731,31.8615 43.6101,33.4125 Z" id="Amazon-IOT-RESOURCES-Over-the-air-update_Resource-Icon_light-bg" fill="#3F8624"></path>
    </g>
</svg>