<?xml version="1.0" encoding="UTF-8"?>
<svg width="48px" height="48px" viewBox="0 0 48 48" version="1.1" xmlns="http://www.w3.org/2000/svg" xmlns:xlink="http://www.w3.org/1999/xlink">
    <title>Icon-Resource/Compute/Res_AWS-IoT-SiteWise_Data-Streams_48_Light</title>
    <g id="Icon-Resource/Compute/Res_AWS-IoT-SiteWise_Data-Streams_48" stroke="none" stroke-width="1" fill="none" fill-rule="evenodd">
        <path d="M36,2 L36,7 L20,7 L20,14 L22,14 L22,9 L36,9 L36,12 L46,12 L46,2 L36,2 Z M38,10 L44,10 L44,4 L38,4 L38,10 Z M10,16 L10,18 L26,18 L26,38 L28,38 L28,16 L10,16 Z M7,18 L9,18 L9,16 L7,16 L7,18 Z M4,18 L6,18 L6,16 L4,16 L4,18 Z M38,28 L46,28 L46,20 L38,20 L38,28 Z M40,26.001 L44.001,26.001 L44.001,22 L40,22 L40,26.001 Z M22,46 L24,46 L24,21 L22,21 L22,46 Z M30,23 L30,46 L31.999,46 L31.999,25 L37,25 L37,23 L30,23 Z M2,35 L12,35 L12,25 L2,25 L2,35 Z M4,33 L10,33 L10,27 L4,27 L4,33 Z M13.999,29 L13.999,31 L18,31 L18,46 L20,46 L20,29 L13.999,29 Z M26,46 L28,46 L28,40 L26,40 L26,46 Z" id="Fill-1" fill="#3F8624"></path>
    </g>
</svg>