<?xml version="1.0" encoding="UTF-8"?>
<svg width="48px" height="48px" viewBox="0 0 48 48" version="1.1" xmlns="http://www.w3.org/2000/svg" xmlns:xlink="http://www.w3.org/1999/xlink">
    <title>Icon-Resource/Compute/Res_AWS-IoT-SiteWise_Asset_48_Light</title>
    <g id="Icon-Resource/Compute/Res_AWS-IoT-SiteWise_Asset_48" stroke="none" stroke-width="1" fill="none" fill-rule="evenodd">
        <path d="M7,44 L9,44 L9,42 L7,42 L7,44 Z M10,40 L6,40 C5.448,40 5,40.448 5,41 L5,45 C5,45.552 5.448,46 6,46 L10,46 C10.552,46 11,45.552 11,45 L11,41 C11,40.448 10.552,40 10,40 L10,40 Z M5,36 L7,36 L7,34 L5,34 L5,36 Z M9,37 L9,33 C9,32.448 8.552,32 8,32 L4,32 C3.448,32 3,32.448 3,33 L3,37 C3,37.552 3.448,38 4,38 L8,38 C8.552,38 9,37.552 9,37 L9,37 Z M15,40 L20,40 L20,35 L15,35 L15,40 Z M21,33 L14,33 C13.448,33 13,33.448 13,34 L13,41 C13,41.552 13.448,42 14,42 L21,42 C21.552,42 22,41.552 22,41 L22,34 C22,33.448 21.552,33 21,33 L21,33 Z M31.5,36 C31.224,36 31,35.776 31,35.5 C31,35.224 31.224,35 31.5,35 C31.776,35 32,35.224 32,35.5 C32,35.776 31.776,36 31.5,36 L31.5,36 Z M31.5,34 C30.673,34 30,34.673 30,35.5 C30,36.327 30.673,37 31.5,37 C32.327,37 33,36.327 33,35.5 C33,34.673 32.327,34 31.5,34 L31.5,34 Z M25,44 L44,44 L44,42 L25,42 L25,44 Z M28.179,35.746 C27.905,34.544 28.429,33.308 29.482,32.669 C30.626,31.973 32.125,32.177 33.054,33.163 L39.696,40 L29.149,40 L28.179,35.746 Z M38.773,22.754 C39.43,23.273 40.202,23.571 41.012,23.655 L35.988,33.312 L34.499,31.78 C33.889,31.132 33.127,30.692 32.311,30.458 L38.5,22.567 L38.773,22.754 Z M22,5.818 L42.754,17.389 C43.295,17.744 43.658,18.291 43.773,18.928 C43.89,19.565 43.744,20.204 43.363,20.727 C43.065,21.136 42.653,21.425 42.182,21.575 L42.113,21.539 L42.081,21.599 C41.984,21.625 41.888,21.656 41.786,21.67 C41.148,21.759 40.52,21.585 39.958,21.145 L22,8.842 L22,5.818 Z M24,23.395 L24,29.271 C23.825,29 23.657,28.642 23.526,28.172 L23.231,24.91 C23.22,24.786 23.186,24.665 23.13,24.553 L22.13,22.553 C21.982,22.258 21.699,22.055 21.373,22.009 C21.044,21.964 20.718,22.083 20.496,22.327 C20.131,22.728 19.283,22.979 18.226,23 L18.019,23 C16.958,22.98 16.105,22.729 15.739,22.327 C15.518,22.083 15.188,21.964 14.863,22.009 C14.537,22.055 14.253,22.258 14.105,22.553 L13.105,24.553 C13.05,24.665 13.015,24.786 13.004,24.91 L12.709,28.172 C12.529,28.815 12.262,29.26 12,29.562 L12,23.414 L15.361,20.054 C15.462,19.953 15.541,19.831 15.591,19.696 C15.985,18.638 16.987,17.93 18.107,17.905 L18.128,17.905 C19.248,17.93 20.25,18.638 20.645,19.696 C20.691,19.82 20.761,19.934 20.852,20.03 L24,23.395 Z M17,5.5 C17,4.673 17.673,4 18.5,4 C19.327,4 20,4.673 20,5.5 L20,16.329 C19.49,16.1 18.942,15.95 18.369,15.914 C18.302,15.906 18.234,15.905 18.166,15.905 L18.069,15.905 C18.001,15.904 17.932,15.905 17.867,15.914 C17.57,15.933 17.283,15.989 17,16.061 L17,5.5 Z M45,40 L42.484,40 L37.456,34.824 L43.523,23.161 C44.089,22.857 44.59,22.44 44.98,21.904 C45.686,20.934 45.957,19.75 45.741,18.569 C45.526,17.389 44.855,16.375 43.79,15.679 L21.112,3.033 L21.058,3.129 C20.419,2.439 19.513,2 18.5,2 C16.57,2 15,3.57 15,5.5 L15,17.125 C14.494,17.578 14.079,18.138 13.802,18.785 L10.293,22.293 C10.105,22.48 9.99982718,22.735 9.99982718,23 L9.99982718,30.981 C9.99,31.55 10.415,32.022 11.011,32.105 C11.078,32.115 11.148,32.119 11.221,32.119 C12.308,32.119 14.014,31.076 14.665,28.604 C14.679,28.55 14.688,28.495 14.694,28.439 L14.979,25.278 L15.382,24.471 C16.294,24.891 17.331,24.988 18,25 L18.235,25 L18.254,25 C18.91,24.988 19.942,24.891 20.853,24.471 L21.256,25.278 L21.542,28.439 C21.547,28.495 21.556,28.55 21.57,28.604 C22.151,30.808 23.519,31.838 24.515,32.051 C25.232,32.203 25.612,31.885 25.775,31.682 C25.925,31.497 26.002,31.246 25.999,31 L26,23 C26,22.746 25.903,22.502 25.73,22.317 L22.44,18.801 C22.321,18.519 22.167,18.26 22,18.011 L22,11.267 L36.847,21.435 L29.808,30.409 C29.336,30.524 28.874,30.698 28.444,30.959 C26.653,32.046 25.764,34.148 26.229,36.19 L27.097,40 L24,40 C23.448,40 23,40.448 23,41 L23,45 C23,45.552 23.448,46 24,46 L45,46 C45.552,46 46,45.552 46,45 L46,41 C46,40.448 45.552,40 45,40 L45,40 Z" id="Fill-1" fill="#3F8624"></path>
    </g>
</svg>