<?xml version="1.0" encoding="UTF-8"?>
<svg width="48px" height="48px" viewBox="0 0 48 48" version="1.1" xmlns="http://www.w3.org/2000/svg" xmlns:xlink="http://www.w3.org/1999/xlink">
    <title>Icon-Resource/IoT/Res_AWS-IoT_Thing_Stacklight_48_Light</title>
    <g id="Icon-Resource/IoT/Res_AWS-IoT_Thing_Stacklight_48" stroke="none" stroke-width="1" fill="none" fill-rule="evenodd">
        <path d="M39,37.865 C39,38.49 38.491,39 37.865,39 L10.135,39 C9.509,39 9,38.49 9,37.865 L9,10.135 C9,9.509 9.509,9 10.135,9 L37.865,9 C38.491,9 39,9.509 39,10.135 L39,37.865 Z M46,15 L46,13 L41,13 L41,10.135 C41,8.406 39.594,7 37.865,7 L35,7 L35,2 L33,2 L33,7 L30,7 L30,2 L28,2 L28,7 L25,7 L25,2 L23,2 L23,7 L20,7 L20,2 L18,2 L18,7 L15,7 L15,2 L13,2 L13,7 L10.135,7 C8.406,7 7,8.406 7,10.135 L7,13 L2,13 L2,15 L7,15 L7,18 L2,18 L2,20 L7,20 L7,23 L2,23 L2,25 L7,25 L7,28 L2,28 L2,30 L7,30 L7,33 L2,33 L2,35 L7,35 L7,37.865 C7,39.594 8.406,41 10.135,41 L13,41 L13,46 L15,46 L15,41 L18,41 L18,46 L20,46 L20,41 L23,41 L23,46 L25,46 L25,41 L28,41 L28,46 L30,46 L30,41 L33,41 L33,46 L35,46 L35,41 L37.865,41 C39.594,41 41,39.594 41,37.865 L41,35 L46,35 L46,33 L41,33 L41,30 L46,30 L46,28 L41,28 L41,25 L46,25 L46,23 L41,23 L41,20 L46,20 L46,18 L41,18 L41,15 L46,15 Z M11.992,22 L15.992,22 L15.992,20 L11.992,20 L11.992,22 Z M16.285,24.293 L17.699,25.707 L15.699,27.707 L14.285,26.293 L16.285,24.293 Z M15.699,14.293 L17.699,16.293 L16.285,17.707 L14.285,15.707 L15.699,14.293 Z M31.992,22 L35.992,22 L35.992,20 L31.992,20 L31.992,22 Z M31.699,24.293 L33.699,26.293 L32.285,27.707 L30.285,25.707 L31.699,24.293 Z M31.699,17.707 L30.285,16.293 L32.285,14.293 L33.699,15.707 L31.699,17.707 Z M20.992,29 L26.992,29 L26.992,25 L20.992,25 L20.992,29 Z M20.992,23 L26.992,23 L26.992,19 L20.992,19 L20.992,23 Z M20.992,17 L26.992,17 L26.992,13 L20.992,13 L20.992,17 Z M27.992,11 L19.992,11 C19.439,11 18.992,11.448 18.992,12 L18.992,30 C18.992,30.552 19.439,31 19.992,31 L22.992,31 L22.992,35 L18.992,35 L18.992,37 L28.992,37 L28.992,35 L24.992,35 L24.992,31 L27.992,31 C28.545,31 28.992,30.552 28.992,30 L28.992,12 C28.992,11.448 28.545,11 27.992,11 L27.992,11 Z" id="Fill-1" fill="#3F8624"></path>
    </g>
</svg>