<?xml version="1.0" encoding="UTF-8"?>
<svg width="48px" height="48px" viewBox="0 0 48 48" version="1.1" xmlns="http://www.w3.org/2000/svg" xmlns:xlink="http://www.w3.org/1999/xlink">
    <title>Icon-Resource/IoT/Res_AWS-IoT_Thing_PLC_48_Light</title>
    <g id="Icon-Resource/IoT/Res_AWS-IoT_Thing_PLC_48" stroke="none" stroke-width="1" fill="none" fill-rule="evenodd">
        <path d="M39,10.1348 C39,9.5098 38.491,8.9998 37.865,8.9998 L10.135,8.9998 C9.509,8.9998 9,9.5098 9,10.1348 L9,37.8648 C9,38.4908 9.509,38.9998 10.135,38.9998 L37.865,38.9998 C38.491,38.9998 39,38.4908 39,37.8648 L39,10.1348 Z M41,14.9998 L41,17.9998 L46,17.9998 L46,19.9998 L41,19.9998 L41,22.9998 L46,22.9998 L46,24.9998 L41,24.9998 L41,27.9998 L46,27.9998 L46,29.9998 L41,29.9998 L41,32.9998 L46,32.9998 L46,34.9998 L41,34.9998 L41,37.8648 C41,39.5938 39.594,40.9998 37.865,40.9998 L35,40.9998 L35,45.9998 L33,45.9998 L33,40.9998 L30,40.9998 L30,45.9998 L28,45.9998 L28,40.9998 L25,40.9998 L25,45.9998 L23,45.9998 L23,40.9998 L20,40.9998 L20,45.9998 L18,45.9998 L18,40.9998 L15,40.9998 L15,45.9998 L13,45.9998 L13,40.9998 L10.135,40.9998 C8.406,40.9998 7,39.5938 7,37.8648 L7,34.9998 L2,34.9998 L2,32.9998 L7,32.9998 L7,29.9998 L2,29.9998 L2,27.9998 L7,27.9998 L7,24.9998 L2,24.9998 L2,22.9998 L7,22.9998 L7,19.9998 L2,19.9998 L2,17.9998 L7,17.9998 L7,14.9998 L2,14.9998 L2,12.9998 L7,12.9998 L7,10.1348 C7,8.4058 8.406,6.9998 10.135,6.9998 L13,6.9998 L13,1.9998 L15,1.9998 L15,6.9998 L18,6.9998 L18,1.9998 L20,1.9998 L20,6.9998 L23,6.9998 L23,1.9998 L25,1.9998 L25,6.9998 L28,6.9998 L28,1.9998 L30,1.9998 L30,6.9998 L33,6.9998 L33,1.9998 L35,1.9998 L35,6.9998 L37.865,6.9998 C39.594,6.9998 41,8.4058 41,10.1348 L41,12.9998 L46,12.9998 L46,14.9998 L41,14.9998 Z M28,34.9998 L32,34.9998 L32,12.9998 L28,12.9998 L28,34.9998 Z M22,34.9998 L26,34.9998 L26,12.9998 L22,12.9998 L22,34.9998 Z M16,34.9998 L20,34.9998 L20,12.9998 L16,12.9998 L16,34.9998 Z M34,11.9998 L34,35.9998 C34,36.5518 33.553,36.9998 33,36.9998 L28,36.9998 L26,36.9998 L22,36.9998 L20,36.9998 L15,36.9998 C14.447,36.9998 14,36.5518 14,35.9998 L14,11.9998 C14,11.4478 14.447,10.9998 15,10.9998 L33,10.9998 C33.553,10.9998 34,11.4478 34,11.9998 L34,11.9998 Z M29,15.9998 L31,15.9998 L31,13.9998 L29,13.9998 L29,15.9998 Z M23,15.9998 L25,15.9998 L25,13.9998 L23,13.9998 L23,15.9998 Z M17,15.9998 L19,15.9998 L19,13.9998 L17,13.9998 L17,15.9998 Z" id="Fill-1" fill="#3F8624"></path>
    </g>
</svg>