<?xml version="1.0" encoding="UTF-8"?>
<svg width="48px" height="48px" viewBox="0 0 48 48" version="1.1" xmlns="http://www.w3.org/2000/svg" xmlns:xlink="http://www.w3.org/1999/xlink">
    <title>Icon-Resource/IoT/Res_IoT-Thing_Car_48_Light</title>
    <g id="Icon-Resource/IoT/Res_IoT-Thing_Car_48" stroke="none" stroke-width="1" fill="none" fill-rule="evenodd">
        <path d="M37.0351,28.2461 L36.0801,28.2461 C35.6381,26.6351 34.1751,25.4411 32.4261,25.4411 C30.6771,25.4411 29.2141,26.6351 28.7711,28.2461 L20.5961,28.2461 C20.1531,26.6351 18.6901,25.4411 16.9411,25.4411 C15.1921,25.4411 13.7291,26.6351 13.2871,28.2461 L12.6681,28.2461 L12.6681,25.3521 C12.6681,25.1981 12.7721,25.0821 12.8661,25.0741 C12.9381,25.0681 13.0111,25.0551 13.0801,25.0331 L19.3801,23.0651 C19.9311,22.8621 20.3381,22.3891 20.4631,21.8171 L21.7111,18.0271 C21.7301,17.9691 21.7831,17.9411 21.8241,17.9411 L31.2761,17.9411 C31.4311,17.9411 31.5711,18.0261 31.6181,18.1071 L33.9601,23.1781 C34.0951,23.4681 34.3591,23.6771 34.6731,23.7391 C36.3061,24.0651 37.0351,25.0211 37.0351,26.8381 L37.0351,28.2461 Z M30.6211,29.2461 C30.6211,28.2511 31.4311,27.4411 32.4261,27.4411 C33.4211,27.4411 34.2301,28.2511 34.2301,29.2461 C34.2301,30.2411 33.4211,31.0511 32.4261,31.0511 C31.4311,31.0511 30.6211,30.2411 30.6211,29.2461 Z M15.1371,29.2461 C15.1371,28.2511 15.9461,27.4411 16.9411,27.4411 C17.9361,27.4411 18.7461,28.2511 18.7461,29.2461 C18.7461,30.2411 17.9361,31.0511 16.9411,31.0511 C15.9461,31.0511 15.1371,30.2411 15.1371,29.2461 Z M33.4031,17.2081 C32.9751,16.4271 32.1611,15.9411 31.2761,15.9411 L21.8241,15.9411 C20.9071,15.9411 20.0981,16.5281 19.8101,17.4021 L18.5511,21.2301 L12.5721,23.0961 C11.4951,23.2521 10.6681,24.2191 10.6681,25.3521 L10.6681,27.3671 L9.0311,27.3671 L9.0311,29.3671 L10.8091,29.3671 C11.0491,29.8851 11.5661,30.2461 12.1701,30.2461 L13.2871,30.2461 C13.7291,31.8571 15.1921,33.0511 16.9411,33.0511 C18.6901,33.0511 20.1531,31.8571 20.5961,30.2461 L28.7711,30.2461 C29.2141,31.8571 30.6771,33.0511 32.4261,33.0511 C34.1751,33.0511 35.6381,31.8571 36.0801,30.2461 L37.5421,30.2461 C38.3651,30.2461 39.0351,29.5681 39.0351,28.7361 L39.0351,26.8381 C39.0351,24.2741 37.8111,22.5401 35.5731,21.9011 L33.4031,17.2081 Z M39.6711,38.5371 C39.6711,39.1631 39.1611,39.6721 38.5351,39.6721 L9.4101,39.6721 C8.7841,39.6721 8.2751,39.1631 8.2751,38.5371 L8.2751,9.4231 C8.2751,8.7971 8.7841,8.2881 9.4101,8.2881 L38.5361,8.2881 C39.1621,8.2881 39.6711,8.7971 39.6711,9.4231 L39.6711,38.5371 Z M45.9451,14.4261 L45.9451,12.4261 L41.6711,12.4261 L41.6711,9.4231 C41.6711,7.6941 40.2641,6.2881 38.5361,6.2881 L35.5191,6.2881 L35.5191,2.0001 L33.5191,2.0001 L33.5191,6.2881 L30.2461,6.2881 L30.2461,2.0001 L28.2461,2.0001 L28.2461,6.2881 L24.9721,6.2881 L24.9721,2.0001 L22.9721,2.0001 L22.9721,6.2881 L19.6991,6.2881 L19.6991,2.0001 L17.6991,2.0001 L17.6991,6.2881 L14.4261,6.2881 L14.4261,2.0001 L12.4261,2.0001 L12.4261,6.2881 L9.4101,6.2881 C7.6811,6.2881 6.2751,7.6941 6.2751,9.4231 L6.2751,12.4261 L2.0001,12.4261 L2.0001,14.4261 L6.2751,14.4261 L6.2751,17.6991 L2.0001,17.6991 L2.0001,19.6991 L6.2751,19.6991 L6.2751,22.9731 L2.0001,22.9731 L2.0001,24.9731 L6.2751,24.9731 L6.2751,28.2461 L2.0001,28.2461 L2.0001,30.2461 L6.2751,30.2461 L6.2751,33.5191 L2.0001,33.5191 L2.0001,35.5191 L6.2751,35.5191 L6.2751,38.5371 C6.2751,40.2661 7.6811,41.6721 9.4101,41.6721 L12.4261,41.6721 L12.4261,45.9451 L14.4261,45.9451 L14.4261,41.6721 L17.6991,41.6721 L17.6991,45.9451 L19.6991,45.9451 L19.6991,41.6721 L22.9721,41.6721 L22.9721,45.9451 L24.9721,45.9451 L24.9721,41.6721 L28.2461,41.6721 L28.2461,45.9451 L30.2461,45.9451 L30.2461,41.6721 L33.5191,41.6721 L33.5191,45.9451 L35.5191,45.9451 L35.5191,41.6721 L38.5351,41.6721 C40.2641,41.6721 41.6711,40.2661 41.6711,38.5371 L41.6711,35.5191 L45.9451,35.5191 L45.9451,33.5191 L41.6711,33.5191 L41.6711,30.2461 L45.9451,30.2461 L45.9451,28.2461 L41.6711,28.2461 L41.6711,24.9731 L45.9451,24.9731 L45.9451,22.9731 L41.6711,22.9731 L41.6711,19.6991 L45.9451,19.6991 L45.9451,17.6991 L41.6711,17.6991 L41.6711,14.4261 L45.9451,14.4261 Z" id="Amazon-IOT-RESOURCES-IoT-thing-car_Resource-Icon_light-bg" fill="#3F8624"></path>
    </g>
</svg>