<?xml version="1.0" encoding="UTF-8"?>
<svg width="48px" height="48px" viewBox="0 0 48 48" version="1.1" xmlns="http://www.w3.org/2000/svg" xmlns:xlink="http://www.w3.org/1999/xlink">
    <title>Icon-Resource/IoT/Res_AWS-IoT_Thing_FreeRTOS-Device_48_Light</title>
    <g id="Icon-Resource/IoT/Res_AWS-IoT_Thing_FreeRTOS-Device_48" stroke="none" stroke-width="1" fill="none" fill-rule="evenodd">
        <path d="M33.572,25.29 C32.606,25.29 31.82,24.504 31.82,23.539 C31.82,22.573 32.606,21.787 33.572,21.787 C34.538,21.787 35.324,22.573 35.324,23.539 C35.324,24.504 34.538,25.29 33.572,25.29 L33.572,25.29 Z M29,30.325 L29,24 L29.867,24 C30.023,25.251 30.789,26.304 31.865,26.86 C31.243,28.244 30.243,29.444 29,30.325 L29,30.325 Z M25,31.85 L25,17.6 C26.088,17.329 26.983,16.586 27.464,15.597 C29.504,16.475 31.106,18.111 31.953,20.169 C31.161,20.552 30.522,21.197 30.159,22 L28,22 C27.447,22 27,22.448 27,23 L27,31.375 C26.361,31.615 25.688,31.776 25,31.85 L25,31.85 Z M21,31.304 L21,23 C21,22.448 20.552,22 20,22 L18.038,22 C17.676,21.198 17.037,20.552 16.246,20.17 C17.092,18.114 18.696,16.477 20.734,15.599 C21.185,16.526 22.002,17.23 23,17.539 L23,31.82 C22.313,31.731 21.637,31.563 21,31.304 L21,31.304 Z M17.58,28.845 C17.548,28.808 17.514,28.771 17.451,28.685 C17.004,28.129 16.632,27.507 16.339,26.856 C17.412,26.299 18.175,25.248 18.33,24 L19,24 L19,30.186 C18.479,29.795 18,29.35 17.58,28.845 L17.58,28.845 Z M12.874,23.539 C12.874,22.573 13.66,21.787 14.626,21.787 C15.592,21.787 16.377,22.573 16.377,23.539 C16.377,24.504 15.592,25.29 14.626,25.29 C13.66,25.29 12.874,24.504 12.874,23.539 L12.874,23.539 Z M24.098,12.218 C25.064,12.218 25.85,13.004 25.85,13.97 C25.85,14.936 25.064,15.722 24.098,15.722 C23.133,15.722 22.346,14.936 22.346,13.97 C22.346,13.004 23.133,12.218 24.098,12.218 L24.098,12.218 Z M33.954,19.825 C32.906,16.941 30.676,14.682 27.812,13.598 C27.623,11.706 26.039,10.218 24.098,10.218 C22.157,10.218 20.573,11.707 20.384,13.6 C17.522,14.684 15.292,16.944 14.245,19.825 C12.357,20.019 10.874,21.6 10.874,23.539 C10.874,25.509 12.406,27.111 14.339,27.261 C14.718,28.219 15.228,29.112 15.856,29.889 C15.917,29.975 15.989,30.061 16.051,30.135 C16.873,31.124 17.881,31.951 19,32.571 L19,37 L21,37 L21,33.426 C21.646,33.63 22.314,33.77 23,33.842 L23,37 L25,37 L25,33.859 C25.685,33.801 26.355,33.679 27,33.49 L27,37 L29,37 L29,32.674 C31.197,31.509 32.933,29.566 33.85,27.262 C35.787,27.117 37.324,25.512 37.324,23.539 C37.324,21.601 35.842,20.02 33.954,19.825 L33.954,19.825 Z M39,37.865 C39,38.491 38.491,39 37.865,39 L10.135,39 C9.509,39 9,38.491 9,37.865 L9,10.135 C9,9.509 9.509,9 10.135,9 L37.865,9 C38.491,9 39,9.509 39,10.135 L39,37.865 Z M46,15 L46,13 L41,13 L41,10.135 C41,8.406 39.593,7 37.865,7 L35,7 L35,2 L33,2 L33,7 L30,7 L30,2 L28,2 L28,7 L25,7 L25,2 L23,2 L23,7 L20,7 L20,2 L18,2 L18,7 L15,7 L15,2 L13,2 L13,7 L10.135,7 C8.406,7 7,8.406 7,10.135 L7,13 L2,13 L2,15 L7,15 L7,18 L2,18 L2,20 L7,20 L7,23 L2,23 L2,25 L7,25 L7,28 L2,28 L2,30 L7,30 L7,33 L2,33 L2,35 L7,35 L7,37.865 C7,39.594 8.406,41 10.135,41 L13,41 L13,46 L15,46 L15,41 L18,41 L18,46 L20,46 L20,41 L23,41 L23,46 L25,46 L25,41 L28,41 L28,46 L30,46 L30,41 L33,41 L33,46 L35,46 L35,41 L37.865,41 C39.593,41 41,39.594 41,37.865 L41,35 L46,35 L46,33 L41,33 L41,30 L46,30 L46,28 L41,28 L41,25 L46,25 L46,23 L41,23 L41,20 L46,20 L46,18 L41,18 L41,15 L46,15 Z" id="Fill-1" fill="#3F8624"></path>
    </g>
</svg>