<?xml version="1.0" encoding="UTF-8"?>
<svg width="48px" height="48px" viewBox="0 0 48 48" version="1.1" xmlns="http://www.w3.org/2000/svg" xmlns:xlink="http://www.w3.org/1999/xlink">
    <title>Icon-Resource/IoT/Res_Amazon-IoT-Thing_Utility_48_Light</title>
    <g id="Icon-Resource/IoT/Res_Amazon-IoT-Thing_Utility_48" stroke="none" stroke-width="1" fill="none" fill-rule="evenodd">
        <path d="M31.1651,35.006 C31.1651,34.482 31.8391,33.177 32.3651,32.223 C32.8921,33.178 33.5651,34.482 33.5651,35.006 C33.5651,35.668 33.0271,36.206 32.3651,36.206 C31.7031,36.206 31.1651,35.668 31.1651,35.006 Z M32.3651,29.165 C31.9861,29.165 31.6391,29.379 31.4701,29.718 C31.3761,29.907 31.2161,30.187 31.0261,30.521 C30.0081,32.316 29.1651,33.893 29.1651,35.006 C29.1651,36.77 30.6001,38.206 32.3651,38.206 C34.1301,38.206 35.5651,36.77 35.5651,35.006 C35.5651,33.892 34.7201,32.313 33.7001,30.516 C33.5121,30.184 33.3531,29.905 33.2601,29.718 C33.0901,29.379 32.7441,29.165 32.3651,29.165 Z M33.5651,26.524 L30.2071,26.524 L30.2071,24.879 C30.2071,23.868 29.3851,23.046 28.3751,23.046 L12.6811,23.046 L12.6811,19.723 L28.9211,19.723 C31.4811,19.723 33.5651,21.807 33.5651,24.368 L33.5651,26.524 Z M17.9631,13.323 L28.2851,13.323 L28.2851,12.682 L17.9631,12.682 L17.9631,13.323 Z M24.1241,17.723 L24.1241,15.322 L29.2851,15.322 C29.8381,15.322 30.2851,14.875 30.2851,14.322 L30.2851,11.682 C30.2851,11.129 29.8381,10.682 29.2851,10.682 L16.9631,10.682 C16.4101,10.682 15.9631,11.129 15.9631,11.682 L15.9631,14.322 C15.9631,14.875 16.4101,15.322 16.9631,15.322 L22.1241,15.322 L22.1241,17.723 L11.6811,17.723 C11.1291,17.723 10.6811,18.17 10.6811,18.723 L10.6811,24.046 C10.6811,24.599 11.1291,25.046 11.6811,25.046 L28.2071,25.046 L28.2071,27.524 C28.2071,28.077 28.6541,28.524 29.2071,28.524 L34.5651,28.524 C35.1181,28.524 35.5651,28.077 35.5651,27.524 L35.5651,24.368 C35.5651,20.704 32.5851,17.723 28.9211,17.723 L24.1241,17.723 Z M39.7251,38.592 C39.7251,39.218 39.2171,39.727 38.5911,39.727 L9.4181,39.727 C8.7921,39.727 8.2831,39.218 8.2831,38.592 L8.2831,9.431 C8.2831,8.805 8.7921,8.296 9.4181,8.296 L38.5911,8.296 C39.2171,8.296 39.7251,8.805 39.7251,9.431 L39.7251,38.592 Z M46.0081,14.441 L46.0081,12.441 L41.7251,12.441 L41.7251,9.431 C41.7251,7.702 40.3191,6.296 38.5911,6.296 L35.5651,6.296 L35.5651,2 L33.5651,2 L33.5651,6.296 L30.2851,6.296 L30.2851,2 L28.2851,2 L28.2851,6.296 L25.0041,6.296 L25.0041,2 L23.0041,2 L23.0041,6.296 L19.7231,6.296 L19.7231,2 L17.7231,2 L17.7231,6.296 L14.4421,6.296 L14.4421,2 L12.4421,2 L12.4421,6.296 L9.4181,6.296 C7.6891,6.296 6.2831,7.702 6.2831,9.431 L6.2831,12.441 L2.0001,12.441 L2.0001,14.441 L6.2831,14.441 L6.2831,17.723 L2.0001,17.723 L2.0001,19.723 L6.2831,19.723 L6.2831,23.004 L2.0001,23.004 L2.0001,25.004 L6.2831,25.004 L6.2831,28.284 L2.0001,28.284 L2.0001,30.284 L6.2831,30.284 L6.2831,33.565 L2.0001,33.565 L2.0001,35.565 L6.2831,35.565 L6.2831,38.592 C6.2831,40.32 7.6891,41.727 9.4181,41.727 L12.4421,41.727 L12.4421,46.007 L14.4421,46.007 L14.4421,41.727 L17.7231,41.727 L17.7231,46.007 L19.7231,46.007 L19.7231,41.727 L23.0041,41.727 L23.0041,46.007 L25.0041,46.007 L25.0041,41.727 L28.2851,41.727 L28.2851,46.007 L30.2851,46.007 L30.2851,41.727 L33.5651,41.727 L33.5651,46.007 L35.5651,46.007 L35.5651,41.727 L38.5911,41.727 C40.3191,41.727 41.7251,40.32 41.7251,38.592 L41.7251,35.565 L46.0081,35.565 L46.0081,33.565 L41.7251,33.565 L41.7251,30.284 L46.0081,30.284 L46.0081,28.284 L41.7251,28.284 L41.7251,25.004 L46.0081,25.004 L46.0081,23.004 L41.7251,23.004 L41.7251,19.723 L46.0081,19.723 L46.0081,17.723 L41.7251,17.723 L41.7251,14.441 L46.0081,14.441 Z" id="Amazon-IOT-RESOURCES-IoT-thing-utility_Resource-Icon-light-bg" fill="#3F8624"></path>
    </g>
</svg>