<?xml version="1.0" encoding="UTF-8"?>
<svg width="48px" height="48px" viewBox="0 0 48 48" version="1.1" xmlns="http://www.w3.org/2000/svg" xmlns:xlink="http://www.w3.org/1999/xlink">
    <title>Icon-Resource/IoT/Res_Amazon-IoT-Thing_Thermostat_48_Light</title>
    <g id="Icon-Resource/IoT/Res_Amazon-IoT-Thing_Thermostat_48" stroke="none" stroke-width="1" fill="none" fill-rule="evenodd">
        <path d="M22.8038,31.0451 C22.8038,30.3831 23.3418,29.8451 24.0038,29.8451 C24.6658,29.8451 25.2038,30.3831 25.2038,31.0451 C25.2038,31.7071 24.6658,32.2451 24.0038,32.2451 C23.3418,32.2451 22.8038,31.7071 22.8038,31.0451 Z M25.0038,16.9631 L23.0038,16.9631 L23.0038,17.7231 L21.3628,17.7231 L21.3628,19.7231 L23.0038,19.7231 L23.0038,21.2441 L21.3628,21.2441 L21.3628,23.2441 L23.0038,23.2441 L23.0038,24.7651 L21.3628,24.7651 L21.3628,26.7651 L23.0038,26.7651 L23.0038,28.0201 C21.7308,28.4431 20.8038,29.6321 20.8038,31.0451 C20.8038,32.8091 22.2388,34.2451 24.0038,34.2451 C25.7688,34.2451 27.2038,32.8091 27.2038,31.0451 C27.2038,29.6321 26.2768,28.4431 25.0038,28.0201 L25.0038,16.9631 Z M12.2408,24.0041 C12.2408,22.6151 12.4958,21.2871 12.9408,20.0491 L15.3038,21.1221 L16.1318,19.3021 L13.7688,18.2281 C14.9608,16.1241 16.7838,14.4291 18.9788,13.3861 L19.8858,15.8131 L21.7588,15.1121 L20.8518,12.6831 C21.8568,12.4031 22.9098,12.2421 24.0038,12.2421 C25.3938,12.2421 26.7208,12.4971 27.9588,12.9411 L26.8858,15.3041 L28.7058,16.1321 L29.7788,13.7691 C31.8838,14.9621 33.5788,16.7841 34.6218,18.9781 L32.1938,19.8861 L32.8958,21.7591 L35.3238,20.8511 C35.6048,21.8561 35.7658,22.9101 35.7658,24.0041 C35.7658,30.4891 30.4888,35.7661 24.0038,35.7661 C17.5178,35.7661 12.2408,30.4891 12.2408,24.0041 Z M10.2408,24.0041 C10.2408,31.5921 16.4148,37.7661 24.0038,37.7661 C31.5918,37.7661 37.7658,31.5921 37.7658,24.0041 C37.7658,16.4161 31.5918,10.2421 24.0038,10.2421 C16.4148,10.2421 10.2408,16.4161 10.2408,24.0041 Z M39.7268,38.8521 C39.7268,39.3351 39.3298,39.7261 38.8428,39.7261 L9.1638,39.7261 C8.6778,39.7261 8.2808,39.3351 8.2808,38.8521 L8.2808,9.1741 C8.2808,8.6911 8.6778,8.2991 9.1638,8.2991 L38.8428,8.2991 C39.3298,8.2991 39.7268,8.6911 39.7268,9.1741 L39.7268,38.8521 Z M46.0078,14.4421 L46.0078,12.4421 L41.7268,12.4421 L41.7268,9.1741 C41.7268,7.5891 40.4328,6.2991 38.8428,6.2991 L35.5658,6.2991 L35.5658,2.0001 L33.5658,2.0001 L33.5658,6.2991 L30.2848,6.2991 L30.2848,2.0001 L28.2848,2.0001 L28.2848,6.2991 L25.0038,6.2991 L25.0038,2.0001 L23.0038,2.0001 L23.0038,6.2991 L19.7228,6.2991 L19.7228,2.0001 L17.7228,2.0001 L17.7228,6.2991 L14.4418,6.2991 L14.4418,2.0001 L12.4418,2.0001 L12.4418,6.2991 L9.1638,6.2991 C7.5738,6.2991 6.2808,7.5891 6.2808,9.1741 L6.2808,12.4421 L1.9998,12.4421 L1.9998,14.4421 L6.2808,14.4421 L6.2808,17.7231 L1.9998,17.7231 L1.9998,19.7231 L6.2808,19.7231 L6.2808,23.0041 L1.9998,23.0041 L1.9998,25.0041 L6.2808,25.0041 L6.2808,28.2851 L1.9998,28.2851 L1.9998,30.2851 L6.2808,30.2851 L6.2808,33.5651 L1.9998,33.5651 L1.9998,35.5651 L6.2808,35.5651 L6.2808,38.8521 C6.2808,40.4371 7.5738,41.7261 9.1638,41.7261 L12.4418,41.7261 L12.4418,46.0081 L14.4418,46.0081 L14.4418,41.7261 L17.7228,41.7261 L17.7228,46.0081 L19.7228,46.0081 L19.7228,41.7261 L23.0038,41.7261 L23.0038,46.0081 L25.0038,46.0081 L25.0038,41.7261 L28.2848,41.7261 L28.2848,46.0081 L30.2848,46.0081 L30.2848,41.7261 L33.5658,41.7261 L33.5658,46.0081 L35.5658,46.0081 L35.5658,41.7261 L38.8428,41.7261 C40.4328,41.7261 41.7268,40.4371 41.7268,38.8521 L41.7268,35.5651 L46.0078,35.5651 L46.0078,33.5651 L41.7268,33.5651 L41.7268,30.2851 L46.0078,30.2851 L46.0078,28.2851 L41.7268,28.2851 L41.7268,25.0041 L46.0078,25.0041 L46.0078,23.0041 L41.7268,23.0041 L41.7268,19.7231 L46.0078,19.7231 L46.0078,17.7231 L41.7268,17.7231 L41.7268,14.4421 L46.0078,14.4421 Z" id="Amazon-IOT-RESOURCES-IoT-thing-thermostat_Resource-Icon_light-bg" fill="#3F8624"></path>
    </g>
</svg>