<?xml version="1.0" encoding="UTF-8"?>
<svg width="74px" height="74px" viewBox="0 0 74 74" version="1.1" xmlns="http://www.w3.org/2000/svg" xmlns:xlink="http://www.w3.org/1999/xlink">
    <title>Icon-Architecture-Category/48/Customer-Enablement_48</title>
    <defs>
        <linearGradient x1="0%" y1="100%" x2="100%" y2="0%" id="linearGradient-1">
            <stop stop-color="#2E27AD" offset="0%"></stop>
            <stop stop-color="#527FFF" offset="100%"></stop>
        </linearGradient>
    </defs>
    <g id="Icon-Architecture-Category/48/Customer-Enablement_48" stroke="none" stroke-width="1" fill="none" fill-rule="evenodd">
        <rect id="Rectangle" fill="url(#linearGradient-1)" x="5" y="5" width="64" height="64"></rect>
        <rect id="#879196-Border-Copy-8" stroke="#879196" stroke-width="2" x="1" y="1" width="72" height="72"></rect>
        <g id="Icon-Category/48/Customer-Enablement_48" transform="translate(13.000000, 13.000000)" fill="#FFFFFF">
            <path d="M42,34.508 L34.891,38.216 C34.334,32.175 31.456,27.199 27.604,25.248 C29.635,24.021 31,21.799 31,19.258 C31,15.398 27.859,12.258 24,12.258 C20.141,12.258 17,15.398 17,19.258 C17,21.79 18.355,24.005 20.374,25.234 C16.503,27.162 13.648,32.096 13.1,38.212 L6,34.508 L6,13.747 L24,4.359 L42,13.747 L42,34.508 Z M19,19.258 C19,16.501 21.243,14.258 24,14.258 C26.757,14.258 29,16.501 29,19.258 C29,22.015 26.757,24.258 24,24.258 C21.243,24.258 19,22.015 19,19.258 L19,19.258 Z M24,43.897 L15.039,39.222 C15.414,32.049 19.315,26.348 24,26.348 C28.719,26.348 32.593,32.028 32.963,39.221 L24,43.897 Z M23.989,2 L4,12.48 L4,35.775 L23.989,46.256 L44,35.775 L44,12.48 L23.989,2 Z" id="Fill-1"></path>
        </g>
    </g>
</svg>