<?xml version="1.0" encoding="UTF-8"?>
<svg width="64px" height="64px" viewBox="0 0 64 64" version="1.1" xmlns="http://www.w3.org/2000/svg" xmlns:xlink="http://www.w3.org/1999/xlink">
    <title>Icon-Architecture/48/Arch_AWS-rePost_48</title>
    <defs>
        <linearGradient x1="0%" y1="100%" x2="100%" y2="0%" id="linearGradient-1">
            <stop stop-color="#2E27AD" offset="0%"></stop>
            <stop stop-color="#527FFF" offset="100%"></stop>
        </linearGradient>
    </defs>
    <g id="Icon-Architecture/48/Arch_AWS-rePost_48" stroke="none" stroke-width="1" fill="none" fill-rule="evenodd">
        <g id="Rectangle" fill="url(#linearGradient-1)">
            <rect x="0" y="0" width="64" height="64"></rect>
        </g>
        <g id="Icon-Service/48/AWS-rePost_48" transform="translate(8.000000, 8.000000)" fill="#FFFFFF">
            <path d="M22.7488361,31 L33.7488361,31 L33.7488361,29 L22.7488361,29 L22.7488361,31 Z M22.7488361,19 L32.7488361,19 L32.7488361,17 L22.7488361,17 L22.7488361,19 Z M22.7488361,13 L36.7488361,13 L36.7488361,11 L22.7488361,11 L22.7488361,13 Z M33.4538361,44 C33.8798361,41.702 35.7488361,39.967 37.9818361,39.967 C38.8068361,39.967 39.6158361,40.207 40.3218361,40.66 C41.4598361,41.39 42.2498361,42.618 42.5088361,44 L33.4538361,44 Z M34.1258361,34 L28.7488361,34 C28.1958361,34 27.7488361,34.448 27.7488361,35 L27.7488361,37.036 L25.7368361,34.394 C25.5468361,34.146 25.2528361,34 24.9408361,34 L22.2488361,34 C20.8168361,34 19.4558361,33.302 18.6058361,32.132 C17.7468361,30.95 17.5228361,29.447 17.9908361,28.007 C18.5658361,26.237 20.3588361,25 22.3488361,25 L39.1898361,25 C41.1628361,25 42.8878361,26.183 43.4848361,27.944 C44.2978361,30.343 43.1318361,32.42 41.5028361,33.383 C40.7498361,32.234 39.4558361,31.471 37.9828361,31.471 C36.2588361,31.471 34.7778361,32.514 34.1258361,34 L34.1258361,34 Z M14.3818361,25 C9.06383614,25 4.52283614,21.029 4.04383614,15.96 C3.77583614,13.122 4.68583614,10.396 6.60683614,8.285 C8.50483614,6.197 11.1998361,5 13.9988361,5 L32.7598361,5 C38.0688361,5 42.4988361,8.809 43.0638361,13.86 C43.4628361,17.414 41.9318361,20.868 39.0758361,23 L22.3488361,23 C20.4678361,23 18.7548361,23.755 17.5458361,25 L14.3818361,25 Z M37.9828361,37.895 C36.7628361,37.895 35.7698361,36.903 35.7698361,35.683 C35.7698361,34.463 36.7628361,33.471 37.9828361,33.471 C39.2018361,33.471 40.1938361,34.463 40.1938361,35.683 C40.1938361,36.903 39.2018361,37.895 37.9828361,37.895 L37.9828361,37.895 Z M41.4018361,38.976 C41.2418361,38.873 41.0718361,38.792 40.9048361,38.705 C41.6968361,37.938 42.1938361,36.87 42.1938361,35.683 C42.1938361,35.553 42.1668361,35.431 42.1558361,35.304 C45.0788361,33.843 46.4608361,30.493 45.3788361,27.302 C44.7698361,25.504 43.3638361,24.135 41.6118361,23.463 C44.1668361,20.903 45.4638361,17.31 45.0518361,13.637 C44.3728361,7.573 39.0878361,3 32.7598361,3 L13.9988361,3 C10.6378361,3 7.40483614,4.436 5.12783614,6.938 C2.85583614,9.435 1.73583614,12.792 2.05283614,16.149 C2.62783614,22.233 8.04383614,27 14.3818361,27 L16.2518361,27 C16.1988361,27.131 16.1328361,27.254 16.0878361,27.389 C15.4198361,29.444 15.7488361,31.602 16.9878361,33.308 C18.2118361,34.994 20.1788361,36 22.2488361,36 L24.4458361,36 L27.9528361,40.606 C28.1458361,40.859 28.4428361,41 28.7488361,41 C28.8548361,41 28.9628361,40.983 29.0678361,40.948 C29.4748361,40.811 29.7488361,40.429 29.7488361,40 L29.7488361,36 L33.8018361,36 C33.8818361,37.056 34.3378361,38.005 35.0548361,38.701 C32.8708361,39.852 31.3618361,42.239 31.3618361,45 C31.3618361,45.552 31.8088361,46 32.3618361,46 L43.6028361,46 C44.1558361,46 44.6028361,45.552 44.6028361,45 C44.6028361,42.514 43.4068361,40.262 41.4018361,38.976 L41.4018361,38.976 Z M10.0718361,20 C10.4918361,17.96 12.1648361,16.431 14.1598361,16.431 C14.9058361,16.431 15.6378361,16.648 16.2778361,17.059 C17.2858361,17.705 17.9928361,18.782 18.2458361,20 L10.0718361,20 Z M14.1608361,10.027 C15.2438361,10.027 16.1248361,10.908 16.1248361,11.992 C16.1248361,13.075 15.2438361,13.957 14.1608361,13.957 C13.0768361,13.957 12.1948361,13.075 12.1948361,11.992 C12.1948361,10.908 13.0768361,10.027 14.1608361,10.027 L14.1608361,10.027 Z M20.3478361,21 C20.3478361,18.679 19.2298361,16.576 17.3578361,15.375 C17.1448361,15.239 16.9218361,15.122 16.6958361,15.014 C17.5618361,14.286 18.1248361,13.209 18.1248361,11.992 C18.1248361,9.806 16.3458361,8.027 14.1608361,8.027 C11.9738361,8.027 10.1948361,9.806 10.1948361,11.992 C10.1948361,13.209 10.7578361,14.286 11.6248361,15.014 C9.47383614,16.044 7.97083614,18.337 7.97083614,21 C7.97083614,21.552 8.41883614,22 8.97083614,22 L19.3478361,22 C19.9008361,22 20.3478361,21.552 20.3478361,21 L20.3478361,21 Z" id="Fill-3"></path>
        </g>
    </g>
</svg>