<?xml version="1.0" encoding="UTF-8"?>
<svg width="48px" height="48px" viewBox="0 0 48 48" version="1.1" xmlns="http://www.w3.org/2000/svg" xmlns:xlink="http://www.w3.org/1999/xlink">
    <title>Icon-Resource/General-Resource/Res_Multimedia_48_Light</title>
    <g id="Icon-Resource/General-Resource/Res_Multimedia_48" stroke="none" stroke-width="1" fill="none" fill-rule="evenodd">
        <path d="M37.37,38.746 L39.548,38.746 L39.548,37.265 L37.37,37.265 L37.37,38.746 Z M40.548,35.265 L36.37,35.265 C35.817,35.265 35.37,35.712 35.37,36.265 L35.37,39.746 C35.37,40.299 35.817,40.746 36.37,40.746 L40.548,40.746 C41.1,40.746 41.548,40.299 41.548,39.746 L41.548,36.265 C41.548,35.712 41.1,35.265 40.548,35.265 L40.548,35.265 Z M27.62,38.746 L29.798,38.746 L29.798,37.265 L27.62,37.265 L27.62,38.746 Z M30.798,35.265 L26.62,35.265 C26.067,35.265 25.62,35.712 25.62,36.265 L25.62,39.746 C25.62,40.299 26.067,40.746 26.62,40.746 L30.798,40.746 C31.35,40.746 31.798,40.299 31.798,39.746 L31.798,36.265 C31.798,35.712 31.35,35.265 30.798,35.265 L30.798,35.265 Z M18.12,38.746 L20.298,38.746 L20.298,37.265 L18.12,37.265 L18.12,38.746 Z M21.298,35.265 L17.12,35.265 C16.567,35.265 16.12,35.712 16.12,36.265 L16.12,39.746 C16.12,40.299 16.567,40.746 17.12,40.746 L21.298,40.746 C21.85,40.746 22.298,40.299 22.298,39.746 L22.298,36.265 C22.298,35.712 21.85,35.265 21.298,35.265 L21.298,35.265 Z M8.37,38.746 L10.548,38.746 L10.548,37.265 L8.37,37.265 L8.37,38.746 Z M11.548,35.265 L7.37,35.265 C6.817,35.265 6.37,35.712 6.37,36.265 L6.37,39.746 C6.37,40.299 6.817,40.746 7.37,40.746 L11.548,40.746 C12.1,40.746 12.548,40.299 12.548,39.746 L12.548,36.265 C12.548,35.712 12.1,35.265 11.548,35.265 L11.548,35.265 Z M37.37,9.898 L39.548,9.898 L39.548,8.417 L37.37,8.417 L37.37,9.898 Z M40.548,6.417 L36.37,6.417 C35.817,6.417 35.37,6.864 35.37,7.417 L35.37,10.898 C35.37,11.451 35.817,11.898 36.37,11.898 L40.548,11.898 C41.1,11.898 41.548,11.451 41.548,10.898 L41.548,7.417 C41.548,6.864 41.1,6.417 40.548,6.417 L40.548,6.417 Z M27.62,9.898 L29.798,9.898 L29.798,8.417 L27.62,8.417 L27.62,9.898 Z M26.62,11.898 L30.798,11.898 C31.35,11.898 31.798,11.451 31.798,10.898 L31.798,7.417 C31.798,6.864 31.35,6.417 30.798,6.417 L26.62,6.417 C26.067,6.417 25.62,6.864 25.62,7.417 L25.62,10.898 C25.62,11.451 26.067,11.898 26.62,11.898 L26.62,11.898 Z M18.12,9.898 L20.298,9.898 L20.298,8.417 L18.12,8.417 L18.12,9.898 Z M17.12,11.898 L21.298,11.898 C21.85,11.898 22.298,11.451 22.298,10.898 L22.298,7.417 C22.298,6.864 21.85,6.417 21.298,6.417 L17.12,6.417 C16.567,6.417 16.12,6.864 16.12,7.417 L16.12,10.898 C16.12,11.451 16.567,11.898 17.12,11.898 L17.12,11.898 Z M8.37,9.898 L10.548,9.898 L10.548,8.417 L8.37,8.417 L8.37,9.898 Z M11.548,6.417 L7.37,6.417 C6.817,6.417 6.37,6.864 6.37,7.417 L6.37,10.898 C6.37,11.451 6.817,11.898 7.37,11.898 L11.548,11.898 C12.1,11.898 12.548,11.451 12.548,10.898 L12.548,7.417 C12.548,6.864 12.1,6.417 11.548,6.417 L11.548,6.417 Z M43.882,41.171 C43.882,41.818 43.354,42.346 42.707,42.346 L5.174,42.346 C4.526,42.346 4,41.818 4,41.171 L4,6.174 C4,5.526 4.526,5 5.174,5 L42.707,5 C43.354,5 43.882,5.526 43.882,6.174 L43.882,41.171 Z M42.707,3 L5.174,3 C3.424,3 2,4.424 2,6.174 L2,41.171 C2,42.922 3.424,44.346 5.174,44.346 L42.707,44.346 C44.458,44.346 45.882,42.922 45.882,41.171 L45.882,6.174 C45.882,4.424 44.458,3 42.707,3 L42.707,3 Z M21.895,20.212 L27.8,23.63 L21.895,27.048 L21.895,20.212 Z M20.396,17.611 C20.086,17.79 19.895,18.12 19.895,18.478 L19.895,28.782 C19.895,29.14 20.086,29.47 20.396,29.648 C20.551,29.737 20.722,29.782 20.895,29.782 C21.068,29.782 21.241,29.737 21.396,29.647 L30.297,24.495 C30.605,24.316 30.796,23.986 30.796,23.63 C30.796,23.273 30.605,22.943 30.297,22.765 L21.396,17.612 C21.086,17.433 20.705,17.434 20.396,17.611 L20.396,17.611 Z M23.94,31.529 C19.714,31.529 16.275,27.985 16.275,23.63 C16.275,19.274 19.714,15.73 23.94,15.73 C28.168,15.73 31.606,19.274 31.606,23.63 C31.606,27.985 28.168,31.529 23.94,31.529 L23.94,31.529 Z M23.94,13.73 C18.611,13.73 14.275,18.171 14.275,23.63 C14.275,29.089 18.611,33.529 23.94,33.529 C29.27,33.529 33.606,29.089 33.606,23.63 C33.606,18.171 29.27,13.73 23.94,13.73 L23.94,13.73 Z" id="Fill-13" fill="#232F3D"></path>
    </g>
</svg>