<?xml version="1.0" encoding="UTF-8"?>
<svg width="48px" height="48px" viewBox="0 0 48 48" version="1.1" xmlns="http://www.w3.org/2000/svg" xmlns:xlink="http://www.w3.org/1999/xlink">
    <title>Icon-Resource/General-Resource/Res_Shield_48_Light</title>
    <g id="Icon-Resource/General-Resource/Res_Shield_48" stroke="none" stroke-width="1" fill="none" fill-rule="evenodd">
        <path d="M23.9722,38.4446 C17.8272,37.1896 13.8892,32.6366 12.2652,24.9076 C11.6072,21.7796 11.4482,18.7296 11.4732,16.2946 L35.0932,27.1966 C33.2092,33.5346 29.4802,37.3196 23.9722,38.4446 M23.9722,10.5696 C26.2622,12.3286 30.1532,14.3266 36.4402,15.0516 C36.5362,17.6856 36.4462,21.3246 35.6532,25.0276 C35.6382,25.0966 35.6202,25.1606 35.6052,25.2296 L13.0602,14.8236 C18.4282,13.9706 21.8802,12.1766 23.9722,10.5696 M37.4932,13.1506 C30.5552,12.5036 26.6652,10.2776 24.6232,8.5236 C24.2492,8.2026 23.6952,8.2026 23.3212,8.5236 C21.2782,10.2776 17.3872,12.5046 10.4482,13.1506 C9.9552,13.1966 9.5702,13.5966 9.5422,14.0906 C9.3902,16.8286 9.4002,20.9986 10.3082,25.3196 C12.1302,33.9906 16.6632,39.0796 23.7842,40.4456 C23.8462,40.4586 23.9092,40.4646 23.9722,40.4646 C24.0352,40.4646 24.0982,40.4586 24.1602,40.4456 C31.2432,39.0866 35.7682,34.0396 37.6092,25.4466 C38.5372,21.1106 38.5512,16.8786 38.3992,14.0916 C38.3722,13.5966 37.9872,13.1966 37.4932,13.1506 M23.9722,43.1236 C5.4772,39.9366 6.7502,15.9376 7.1932,11.1556 C17.7032,10.5966 22.2502,6.8236 23.9722,4.7566 C25.6942,6.8236 30.2412,10.5966 40.7512,11.1556 C41.1942,15.9376 42.4672,39.9366 23.9722,43.1236 M42.6442,10.0586 C42.5772,9.5766 42.1742,9.2126 41.6882,9.1956 C28.0302,8.7136 24.9052,2.6266 24.8792,2.5736 C24.7162,2.2236 24.3652,2.0036 23.9792,1.9996 L23.9702,1.9996 C23.5882,1.9996 23.2372,2.2216 23.0692,2.5656 C23.0392,2.6266 19.9142,8.7136 6.2562,9.1956 C5.7702,9.2126 5.3672,9.5766 5.3002,10.0586 C5.2572,10.3716 1.2552,41.4096 23.8092,45.1246 C23.8632,45.1336 23.9182,45.1376 23.9722,45.1376 C24.0262,45.1376 24.0812,45.1336 24.1352,45.1246 C46.6892,41.4096 42.6872,10.3716 42.6442,10.0586" id="Fill-1" fill="#232F3D"></path>
    </g>
</svg>