<?xml version="1.0" encoding="UTF-8"?>
<svg width="48px" height="48px" viewBox="0 0 48 48" version="1.1" xmlns="http://www.w3.org/2000/svg" xmlns:xlink="http://www.w3.org/1999/xlink">
    <title>Icon-Resource/Management-Governance/Res_Amazon-CloudWatch_Synthetics_48_Light</title>
    <g id="Icon-Resource/Management-Governance/Res_Amazon-CloudWatch_Synthetics_48" stroke="none" stroke-width="1" fill="none" fill-rule="evenodd">
        <path d="M33,30 L29.519,30 L25.885,36.164 L20.941,25.288 L18.503,30 L15,30 L15,28 L17.286,28 L21.059,20.712 L26.115,31.836 L28.376,28 L33,28 L33,30 Z M15.5,33 L21.947,33 L21.947,35 L15.5,35 C12.468,35 10,32.533 10,29.5 L10,28.5 C10,25.467 12.468,23 15.5,23 L17,23 L17,25 L15.5,25 C13.57,25 12,26.57 12,28.5 L12,29.5 C12,31.43 13.57,33 15.5,33 L15.5,33 Z M38,28.5 L38,29.5 C38,32.533 35.532,35 32.5,35 L30.105,35 L30.105,33 L32.5,33 C34.43,33 36,31.43 36,29.5 L36,28.5 C36,26.57 34.43,25 32.5,25 L25.053,25 L25.053,23 L32.5,23 C35.532,23 38,25.467 38,28.5 L38,28.5 Z M44,31.534 C44,31.791 43.791,32 43.534,32 L41,32 L41,37.375 C37.114,41.059 30.799,43.248 24,43.248 C17.201,43.248 10.886,41.059 7,37.375 L7,32 L4.466,32 C4.209,32 4,31.791 4,31.534 L4,26.466 C4,26.209 4.209,26 4.466,26 L7.473,26 L7.665,25.248 C9.751,17.076 16.01,12 24,12 C32.729,12 38.993,18.812 40.455,25.222 L40.632,26 L43.534,26 C43.791,26 44,26.209 44,26.466 L44,31.534 Z M22.5,5.5 C22.5,4.673 23.173,4 24,4 C24.827,4 25.5,4.673 25.5,5.5 C25.5,6.327 24.827,7 24,7 C23.173,7 22.5,6.327 22.5,5.5 L22.5,5.5 Z M43.534,24 L42.208,24 C40.312,17.171 33.987,10.513 25,10.045 L25,8.837 C26.44,8.403 27.5,7.08 27.5,5.5 C27.5,3.57 25.93,2 24,2 C22.07,2 20.5,3.57 20.5,5.5 C20.5,7.08 21.56,8.403 23,8.837 L23,10.039 C14.78,10.435 8.345,15.679 5.933,24 L4.466,24 C3.106,24 2,25.106 2,26.466 L2,31.534 C2,32.894 3.106,34 4.466,34 L5,34 L5,38.21 L5.293,38.503 C9.579,42.79 16.397,45.248 24,45.248 C31.603,45.248 38.421,42.79 42.707,38.503 L43,38.21 L43,34 L43.534,34 C44.894,34 46,32.894 46,31.534 L46,26.466 C46,25.106 44.894,24 43.534,24 L43.534,24 Z" id="Fill-1" fill="#B0084D"></path>
    </g>
</svg>