<?xml version="1.0" encoding="UTF-8"?>
<svg width="48px" height="48px" viewBox="0 0 48 48" version="1.1" xmlns="http://www.w3.org/2000/svg" xmlns:xlink="http://www.w3.org/1999/xlink">
    <title>Icon-Resource/Managment-Governance/Res_AWS-CloudFormation_Change-Set_48_Light</title>
    <g id="Icon-Resource/Managment-Governance/Res_AWS-CloudFormation_Change-Set_48" stroke="none" stroke-width="1" fill="none" fill-rule="evenodd">
        <path d="M24.6072,39.9121 L18.2622,39.9121 L18.2622,37.9121 L24.6072,37.9121 L23.6862,36.9911 L25.1002,35.5771 L27.7282,38.2051 C28.1192,38.5961 28.1192,39.2281 27.7282,39.6191 L25.1002,42.2471 L23.6862,40.8331 L24.6072,39.9121 Z M24.6072,25.8971 L18.2622,25.8971 L18.2622,23.8971 L24.6072,23.8971 L23.6862,22.9761 L25.1002,21.5621 L27.7282,24.1901 C28.1192,24.5811 28.1192,25.2141 27.7282,25.6041 L25.1002,28.2321 L23.6862,26.8181 L24.6072,25.8971 Z M24.6072,11.8831 L18.2622,11.8831 L18.2622,9.8831 L24.6072,9.8831 L23.6862,8.9621 L25.1002,7.5481 L27.7282,10.1761 C28.1192,10.5661 28.1192,11.1991 27.7282,11.5901 L25.1002,14.2181 L23.6862,12.8041 L24.6072,11.8831 Z M38.2392,36.1151 L35.8802,38.4751 L38.2392,40.8331 L36.8252,42.2471 L34.4662,39.8891 L32.1082,42.2471 L30.6942,40.8331 L33.0522,38.4751 L30.6942,36.1151 L32.1082,34.7011 L34.4662,37.0591 L36.8252,34.7011 L38.2392,36.1151 Z M33.5902,9.4201 L35.8222,13.3871 L31.3592,13.3871 L33.5902,9.4201 Z M29.6492,15.3871 L37.5322,15.3871 C37.8872,15.3871 38.2152,15.1981 38.3952,14.8911 C38.5752,14.5851 38.5782,14.2061 38.4032,13.8961 L34.4612,6.8901 C34.1082,6.2611 33.0732,6.2611 32.7192,6.8901 L28.7782,13.8961 C28.6032,14.2061 28.6062,14.5851 28.7862,14.8911 C28.9652,15.1981 29.2942,15.3871 29.6492,15.3871 L29.6492,15.3871 Z M37.4082,24.4601 C37.4082,24.8791 36.2912,25.6491 34.4662,25.6491 C32.6422,25.6491 31.5252,24.8791 31.5252,24.4601 C31.5252,24.0401 32.6422,23.2691 34.4662,23.2691 C36.2912,23.2691 37.4082,24.0401 37.4082,24.4601 L37.4082,24.4601 Z M29.5252,24.4601 C29.5252,26.2781 31.6492,27.6491 34.4662,27.6491 C37.2842,27.6491 39.4082,26.2781 39.4082,24.4601 C39.4082,22.6411 37.2842,21.2691 34.4662,21.2691 C31.6492,21.2691 29.5252,22.6411 29.5252,24.4601 L29.5252,24.4601 Z M12.5692,34.6561 C13.6692,34.6561 14.6342,36.2351 14.6342,38.0361 C14.6342,39.8371 13.6692,41.4161 12.5692,41.4161 C11.4682,41.4161 10.5032,39.8371 10.5032,38.0361 C10.5032,36.2351 11.4682,34.6561 12.5692,34.6561 L12.5692,34.6561 Z M12.5692,43.4161 C14.8482,43.4161 16.6342,41.0531 16.6342,38.0361 C16.6342,35.0191 14.8482,32.6561 12.5692,32.6561 C10.2892,32.6561 8.5032,35.0191 8.5032,38.0361 C8.5032,41.0531 10.2892,43.4161 12.5692,43.4161 L12.5692,43.4161 Z M12.5692,22.3931 C13.7082,22.3931 14.6342,23.3201 14.6342,24.4601 C14.6342,25.5991 13.7082,26.5251 12.5692,26.5251 C11.4292,26.5251 10.5032,25.5991 10.5032,24.4601 C10.5032,23.3201 11.4292,22.3931 12.5692,22.3931 L12.5692,22.3931 Z M12.5692,28.5251 C14.8102,28.5251 16.6342,26.7011 16.6342,24.4601 C16.6342,22.2181 14.8102,20.3931 12.5692,20.3931 C10.3272,20.3931 8.5032,22.2181 8.5032,24.4601 C8.5032,26.7011 10.3272,28.5251 12.5692,28.5251 L12.5692,28.5251 Z M10.5032,13.3871 L14.6352,13.3871 L14.6352,9.2551 L10.5032,9.2551 L10.5032,13.3871 Z M9.5032,15.3871 L15.6342,15.3871 C16.1872,15.3871 16.6342,14.9391 16.6342,14.3871 L16.6342,8.2551 C16.6342,7.7021 16.1872,7.2551 15.6342,7.2551 L9.5032,7.2551 C8.9502,7.2551 8.5032,7.7021 8.5032,8.2551 L8.5032,14.3871 C8.5032,14.9391 8.9502,15.3871 9.5032,15.3871 L9.5032,15.3871 Z M7.0002,44.0441 L40.0362,44.0441 L40.0362,4.0001 L7.0002,4.0001 L7.0002,44.0441 Z M41.0362,2.0001 L6.0002,2.0001 C5.4472,2.0001 5.0002,2.4471 5.0002,3.0001 L5.0002,45.0441 C5.0002,45.5971 5.4472,46.0441 6.0002,46.0441 L41.0362,46.0441 C41.5882,46.0441 42.0362,45.5971 42.0362,45.0441 L42.0362,3.0001 C42.0362,2.4471 41.5882,2.0001 41.0362,2.0001 L41.0362,2.0001 Z" id="AWS-CloudFormation_change-set_Resource-Icon_light-bg" fill="#B0084D"></path>
    </g>
</svg>