<?xml version="1.0" encoding="UTF-8"?>
<svg width="48px" height="48px" viewBox="0 0 48 48" version="1.1" xmlns="http://www.w3.org/2000/svg" xmlns:xlink="http://www.w3.org/1999/xlink">
    <title>Icon-Resource/Managment-Governance/Res_Amazon-Cloudwatch_Rule_48_Light</title>
    <g id="Icon-Resource/Managment-Governance/Res_Amazon-Cloudwatch_Rule_48" stroke="none" stroke-width="1" fill="none" fill-rule="evenodd">
        <path d="M2.042,2 L2.042,14.473 L13.06,14.497 L15.725,17.13 L45.967,17.079 L45.951,4.607 L16.537,4.607 L13.888,2 L2.042,2 Z M13.882,12.499 L4.043,12.477 L4.043,4 L13.07,4 L15.719,6.607 L43.953,6.607 L43.965,15.082 L16.546,15.127 L13.882,12.499 Z M37.94,9.454 L36.048,7.556 L34.631,8.968 L36.526,10.868 L34.624,12.77 L36.038,14.184 L37.938,12.285 L39.838,14.192 L41.254,12.78 L39.352,10.871 L41.253,8.969 L39.839,7.555 L37.94,9.454 Z M2,15.968 L2,28.468 L13.061,28.468 L15.71,31.09 L45.96,31.076 L45.945,18.617 L16.528,18.607 L13.948,15.968 L2,15.968 Z M4,17.968 L13.106,17.968 L15.687,20.607 L43.947,20.617 L43.959,29.076 L16.533,29.09 L13.883,26.468 L4,26.468 L4,17.968 Z M35.419,25.276 L34.299,24.158 L32.885,25.572 L35.297,27.985 L41.229,23.023 L39.946,21.49 L35.419,25.276 Z M2,29.95 L2,42.451 L13.084,42.438 L15.741,45.022 L45.951,45.074 L45.96,32.586 L16.532,32.587 L13.819,29.95 L2,29.95 Z M4,31.95 L13.007,31.95 L15.719,34.588 L43.959,34.585 L43.953,43.07 L16.555,43.024 L13.895,40.438 L4,40.449 L4,31.95 Z M35.179,39.211 L34.06,38.093 L32.646,39.507 L35.058,41.92 L40.99,36.958 L39.706,35.424 L35.179,39.211 Z" id="Amazon-Cloudwatch_rule_Resource-Icon_light-bg" fill="#B0084D"></path>
    </g>
</svg>