<?xml version="1.0" encoding="UTF-8"?>
<svg width="48px" height="48px" viewBox="0 0 48 48" version="1.1" xmlns="http://www.w3.org/2000/svg" xmlns:xlink="http://www.w3.org/1999/xlink">
    <title>Icon-Resource/Management-and-Governance/Res_AWS-License-Manager_License-Blending_48_Light</title>
    <g id="Icon-Resource/Management-and-Governance/Res_AWS-License-Manager_License-Blending_48" stroke="none" stroke-width="1" fill="none" fill-rule="evenodd">
        <path d="M34.021,38 L17.021,38 L17.021,40 L34.097,40 C35.158,40 36.021,39.137 36.021,38.076 L36.021,35 L34.021,35 L34.021,38 Z M27.021,4.746 L27.021,11 L33.289,11 L27.021,4.746 Z M11.021,22 L9.021,22 L9.021,3.924 C9.021,2.863 9.884,2 10.945,2 L26.688,2 C26.953,2 27.207,2.105 27.394,2.292 L35.727,10.608 C35.916,10.796 36.021,11.05 36.021,11.316 L36.021,15 L34.021,15 L34.021,13 L26.021,13 C25.468,13 25.021,12.552 25.021,12 L25.021,4 L11.021,4 L11.021,22 Z M45.144,21.389 L43.355,22.283 C43.791,23.155 44.021,24.115 44.021,25.061 C44.021,28.335 41.372,31 38.116,31 L28.138,31 L29.951,29.187 L28.537,27.773 L25.11,31.2 C24.922,31.387 24.817,31.642 24.817,31.907 C24.817,32.172 24.922,32.426 25.11,32.614 L28.537,36.04 L29.951,34.625 L28.325,33 L38.116,33 C42.475,33 46.021,29.438 46.021,25.061 C46.021,23.807 45.717,22.537 45.144,21.389 L45.144,21.389 Z M30.578,17 C26.218,17 22.672,20.562 22.672,24.939 C22.672,26.192 22.975,27.462 23.548,28.61 L25.337,27.718 C24.903,26.845 24.672,25.884 24.672,24.939 C24.672,21.665 27.322,19 30.578,19 L39.809,19 L38.132,20.677 L39.546,22.091 L42.972,18.665 C43.363,18.274 43.363,17.641 42.972,17.25 L39.546,13.824 L38.132,15.238 L39.894,17 L30.578,17 Z M28.054,44 L16.021,44 L16.021,46 L28.054,46 C29.139,46 30.021,45.118 30.021,44.033 L30.021,42 L28.021,42 L28.054,44 Z M3.988,8 L7.021,8 L7.021,6 L3.988,6 C2.903,6 2.021,6.882 2.021,7.967 L2.021,24 L4.021,24 L3.988,8 Z M11.18,31.618 C11.18,30.879 10.58,30.279 9.841,30.279 C9.103,30.279 8.502,30.879 8.502,31.618 C8.502,32.356 9.103,32.957 9.841,32.957 C10.58,32.957 11.18,32.356 11.18,31.618 L11.18,31.618 Z M13.18,31.618 C13.18,33.459 11.682,34.957 9.841,34.957 C8,34.957 6.502,33.459 6.502,31.618 C6.502,29.777 8,28.279 9.841,28.279 C11.682,28.279 13.18,29.777 13.18,31.618 L13.18,31.618 Z M15.711,31.633 C15.711,31.356 15.515,31.117 15.245,31.063 C14.875,30.988 14.578,30.712 14.477,30.349 C14.371,29.964 14.218,29.598 14.025,29.26 C13.843,28.942 13.849,28.551 14.042,28.239 C14.1,28.144 14.129,28.044 14.129,27.941 C14.129,27.519 13.642,27.207 13.25,27.447 C12.939,27.639 12.547,27.645 12.23,27.464 C11.89,27.27 11.524,27.118 11.141,27.012 C10.777,26.912 10.5,26.615 10.426,26.244 C10.373,25.974 10.132,25.777 9.856,25.777 C9.58,25.777 9.34,25.974 9.286,26.245 C9.211,26.615 8.935,26.912 8.571,27.012 C8.189,27.118 7.824,27.27 7.483,27.464 C7.164,27.645 6.773,27.639 6.463,27.448 C6.069,27.207 5.583,27.519 5.583,27.941 C5.583,28.044 5.612,28.144 5.67,28.239 C5.862,28.55 5.869,28.941 5.688,29.258 C5.494,29.598 5.342,29.965 5.236,30.349 C5.135,30.712 4.838,30.989 4.468,31.063 C4.197,31.117 4,31.356 4,31.633 C4,31.909 4.197,32.149 4.468,32.203 C4.838,32.277 5.135,32.553 5.236,32.917 C5.342,33.301 5.494,33.667 5.688,34.007 C5.869,34.325 5.862,34.715 5.67,35.026 C5.612,35.122 5.583,35.222 5.583,35.324 C5.583,35.748 6.068,36.061 6.463,35.818 C6.624,35.719 6.805,35.67 6.987,35.67 C7.158,35.67 7.329,35.714 7.483,35.802 C7.824,35.996 8.189,36.148 8.571,36.253 C8.935,36.354 9.211,36.65 9.286,37.021 C9.34,37.292 9.58,37.488 9.856,37.488 C10.132,37.488 10.373,37.292 10.426,37.022 C10.5,36.651 10.777,36.354 11.141,36.253 C11.524,36.148 11.89,35.996 12.23,35.802 C12.547,35.62 12.939,35.626 13.25,35.819 C13.643,36.059 14.129,35.748 14.129,35.324 C14.129,35.222 14.1,35.122 14.042,35.026 C13.849,34.715 13.843,34.323 14.025,34.006 C14.218,33.667 14.371,33.301 14.477,32.917 C14.578,32.553 14.875,32.277 15.245,32.203 C15.515,32.149 15.711,31.909 15.711,31.633 L15.711,31.633 Z M16.129,35.324 C16.129,36.748 14.971,37.906 13.547,37.906 C13.279,37.906 13.013,37.863 12.757,37.78 C12.572,37.868 12.38,37.947 12.186,38.018 C11.766,38.897 10.866,39.488 9.856,39.488 C8.847,39.488 7.948,38.897 7.526,38.018 C7.332,37.947 7.141,37.868 6.955,37.78 C6.7,37.863 6.433,37.906 6.165,37.906 C4.741,37.906 3.583,36.748 3.583,35.324 C3.583,35.056 3.625,34.789 3.709,34.534 C3.622,34.348 3.542,34.157 3.472,33.963 C2.592,33.542 2,32.643 2,31.633 C2,30.623 2.592,29.723 3.472,29.303 C3.542,29.108 3.622,28.918 3.709,28.732 C3.625,28.477 3.583,28.21 3.583,27.941 C3.583,26.518 4.741,25.359 6.165,25.359 C6.433,25.359 6.7,25.402 6.955,25.486 C7.141,25.398 7.332,25.319 7.526,25.248 C7.948,24.369 8.847,23.777 9.856,23.777 C10.866,23.777 11.766,24.369 12.186,25.248 C12.38,25.319 12.572,25.398 12.757,25.486 C13.013,25.402 13.279,25.359 13.547,25.359 C14.971,25.359 16.129,26.518 16.129,27.941 C16.129,28.209 16.086,28.476 16.002,28.731 C16.09,28.917 16.17,29.108 16.241,29.303 C17.121,29.724 17.711,30.624 17.711,31.633 C17.711,32.642 17.121,33.542 16.241,33.963 C16.17,34.158 16.09,34.349 16.002,34.535 C16.086,34.79 16.129,35.056 16.129,35.324 L16.129,35.324 Z M12.021,39 L14.021,39 L14.021,45 C14.021,45.384 13.8,45.735 13.455,45.901 C13.317,45.967 13.168,46.0000266 13.021,46.0000266 C12.798,46.0000266 12.577,45.925 12.396,45.781 L9.521,43.481 L6.646,45.781 C6.345,46.021 5.936,46.068 5.587,45.901 C5.242,45.735 5.021,45.384 5.021,45 L5.021,39 L7.021,39 L7.021,42.919 L8.896,41.419 C9.261,41.127 9.781,41.127 10.146,41.419 L12.021,42.919 L12.021,39 Z" id="Fill-1" fill="#B0084D"></path>
    </g>
</svg>