<?xml version="1.0" encoding="UTF-8"?>
<svg width="48px" height="48px" viewBox="0 0 48 48" version="1.1" xmlns="http://www.w3.org/2000/svg" xmlns:xlink="http://www.w3.org/1999/xlink">
    <title>Icon-Resource/Managment-Governance/Res_AWS-OpsWorks_Permissions_48_Light</title>
    <g id="Icon-Resource/Managment-Governance/Res_AWS-OpsWorks_Permissions_48" stroke="none" stroke-width="1" fill="none" fill-rule="evenodd">
        <path d="M24.2908,28.3223 L24.2928,28.3223 C24.8118,28.3223 25.2998,28.5243 25.6658,28.8913 C26.0318,29.2583 26.2328,29.7443 26.2318037,30.2613 L26.2318037,30.2623 C26.2318037,30.7813 26.0298,31.2683 25.6638,31.6353 C25.2978,32.0003 24.8118,32.2013 24.2928,32.2013 L24.2908,32.2013 C23.2218,32.2013 22.3528,31.3313 22.3528,30.2613 C22.3538,29.1923 23.2228,28.3223 24.2908,28.3223 L24.2908,28.3223 Z M23.2918,34.0563 L23.2918,39.2263 L25.2918,39.2263 L25.2918,34.0573 C25.9598,33.8843 26.5768,33.5503 27.0768,33.0503 C27.8218,32.3053 28.2318018,31.3163 28.2318018,30.2633 C28.2328,29.2123 27.8248,28.2223 27.0808,27.4783 C26.3368,26.7323 25.3468,26.3223 24.2938,26.3223 L24.2888,26.3223 C22.1208,26.3223 20.3548,28.0883 20.3528,30.2603 C20.3528,32.0863 21.6058,33.6113 23.2918,34.0563 L23.2918,34.0563 Z M37.5748,43.9843 L10.9998,43.9723 L11.0068,23.6523 L37.5848,23.6633 L37.5748,43.9843 Z M16.4238,11.7853 C16.4368,7.4873 19.9748,4.0003 24.3128,4.0003 L24.3398,4.0003 C28.6668,4.0133 32.1768,7.5443 32.163836,11.8733 L32.163836,21.6603 L16.3928,21.6543 L16.4238,11.7853 Z M39.2918,21.9563 C39.1038,21.7683 38.8508,21.6633 38.5848,21.6633 L34.1638,21.6613 L34.1638,11.8763 C34.1808,6.4473 29.7758,2.0173 24.3458,2.0003 L24.3128,2.0003 C18.8748,2.0003 14.4408,6.3813 14.4238,11.7793 L14.3928,21.6543 L10.0068,21.6523 C9.7418,21.6523 9.4868,21.7583 9.2998,21.9453 C9.1118,22.1333 9.0068,22.3863 9.0068,22.6523 L8.9998,44.9723 C8.9998,45.5243 9.4468,45.9723 9.9998,45.9723 L38.5748,45.9843 C39.1268,45.9843 39.5748,45.5373 39.5748,44.9843 L39.5848,22.6633 C39.5848,22.3983 39.4788,22.1433 39.2918,21.9563 L39.2918,21.9563 Z" id="AWS-OpsWorks-permissions_Resource-Icon_light-bg" fill="#B0084D"></path>
    </g>
</svg>