<?xml version="1.0" encoding="UTF-8"?>
<svg width="48px" height="48px" viewBox="0 0 48 48" version="1.1" xmlns="http://www.w3.org/2000/svg" xmlns:xlink="http://www.w3.org/1999/xlink">
    <title>Icon-Resource/Management-Governance/Res_AWS-Organizations_Organizational-Unit_48_Light</title>
    <g id="Icon-Resource/Management-Governance/Res_AWS-Organizations_Organizational-Unit_48" stroke="none" stroke-width="1" fill="none" fill-rule="evenodd">
        <path d="M34,30 C36.757,30 39,32.243 39,35 C39,37.757 36.757,40 34,40 C31.243,40 29,37.757 29,35 C29,32.243 31.243,30 34,30 L34,30 Z M34,42 C37.859,42 41,38.86 41,35 C41,31.14 37.859,28 34,28 C30.141,28 27,31.14 27,35 C27,38.86 30.141,42 34,42 L34,42 Z M35.831,15.503 L39.579,23 L32.083,23 L35.831,15.503 Z M30.465,25 L41.197,25 C41.544,25 41.865,24.82 42.048,24.526 C42.23,24.231 42.247,23.863 42.092,23.553 L36.726,12.82 C36.386,12.143 35.276,12.143 34.937,12.82 L29.57,23.553 C29.415,23.863 29.432,24.231 29.614,24.526 C29.797,24.82 30.118,25 30.465,25 L30.465,25 Z M14,32 L23,32 L23,23 L14,23 L14,32 Z M13,34 L24,34 C24.553,34 25,33.552 25,33 L25,22 C25,21.448 24.553,21 24,21 L13,21 C12.447,21 12,21.448 12,22 L12,33 C12,33.552 12.447,34 13,34 L13,34 Z M4,38 L6,38 L6,40 L3,40 C2.447,40 2,39.552 2,39 L2,3 C2,2.448 2.447,2 3,2 L39,2 C39.553,2 40,2.448 40,3 L40,6 L38,6 L38,4 L4,4 L4,38 Z M10,44 L44,44 L44,10 L10,10 L10,44 Z M45,8 L9,8 C8.447,8 8,8.448 8,9 L8,45 C8,45.552 8.447,46 9,46 L45,46 C45.553,46 46,45.552 46,45 L46,9 C46,8.448 45.553,8 45,8 L45,8 Z" id="Fill-1" fill="#B0084D"></path>
    </g>
</svg>