<?xml version="1.0" encoding="UTF-8"?>
<svg width="48px" height="48px" viewBox="0 0 48 48" version="1.1" xmlns="http://www.w3.org/2000/svg" xmlns:xlink="http://www.w3.org/1999/xlink">
    <title>Icon-Resource/Management-Governance/Res_AWS-Organizations_Management-Account_48_Light</title>
    <g id="Icon-Resource/Management-Governance/Res_AWS-Organizations_Management-Account_48" stroke="none" stroke-width="1" fill="none" fill-rule="evenodd">
        <path d="M10.303,11.5034199 C10.312,11.9504199 10.494,12.3684199 10.818,12.6784199 C11.14,12.9884199 11.564,13.1504199 12.012,13.1464199 C12.459,13.1374199 12.876,12.9554199 13.187,12.6324199 L13.187,12.6314199 C13.497,12.3094199 13.663,11.8854199 13.655,11.4384199 C13.646,10.9904199 13.463,10.5734199 13.14,10.2624199 C12.825,9.96041991 12.414,9.79541991 11.98,9.79541991 C11.968,9.79541991 11.957,9.79541991 11.946,9.79541991 C11.498,9.80441991 11.081,9.98641991 10.771,10.3094199 C10.46,10.6314199 10.294,11.0564199 10.303,11.5034199 L10.303,11.5034199 Z M9.431,14.1204199 C8.723,13.4394199 8.323,12.5244199 8.304,11.5424199 C8.284,10.5614199 8.649,9.63041991 9.329,8.92241991 C10.735,7.46241991 13.065,7.41641991 14.527,8.82141991 C15.235,9.50241991 15.635,10.4174199 15.654,11.3994199 C15.673,12.3804199 15.309,13.3104199 14.628,14.0184199 C13.907,14.7674199 12.944,15.1444199 11.978,15.1444199 C11.061,15.1444199 10.143,14.8044199 9.431,14.1204199 L9.431,14.1204199 Z M4.229,12.1264199 L5.301,15.4364199 L7.592,14.9774199 C7.869,14.9204199 8.157,14.9854199 8.383,15.1544199 L9.524,15.9994199 C9.746,16.1634199 9.89,16.4124199 9.922,16.6874199 L10.192,18.9964199 L13.67,18.9994199 L13.944,16.6724199 C13.976,16.3964199 14.121,16.1464199 14.346,15.9824199 L15.473,15.1574199 C15.699,14.9914199 15.987,14.9274199 16.26,14.9834199 L18.57,15.4464199 L19.647,12.1384199 L17.51,11.1564199 C17.254,11.0394199 17.06,10.8194199 16.974,10.5514199 L16.55,9.22441991 C16.466,8.95941991 16.495,8.67141991 16.632,8.42941991 L17.782,6.38341991 L14.969,4.33641991 L13.395,6.04541991 C13.206,6.24941991 12.943,6.36541991 12.665,6.36741991 L11.246,6.37541991 L11.24,6.37541991 C10.961,6.37541991 10.695,6.25841991 10.505,6.05241991 L8.92,4.33241991 L6.103,6.37541991 L7.258,8.43041991 C7.395,8.67341991 7.423,8.96341991 7.337,9.22941991 L6.909,10.5424199 C6.823,10.8084199 6.629,11.0254199 6.375,11.1424199 L4.229,12.1264199 Z M2.052,11.8964199 C1.896,11.4134199 2.125,10.8904199 2.586,10.6784199 L5.143,9.50641991 L5.299,9.02741991 L3.923,6.57841991 C3.675,6.13541991 3.797,5.57641991 4.208,5.27841991 L8.466,2.19041991 C8.875,1.89341991 9.445,1.94841991 9.788,2.32341991 L11.677,4.37341991 L12.219,4.36941991 L14.102,2.32641991 C14.447,1.95341991 15.015,1.89741991 15.425,2.19541991 L19.678,5.29041991 C20.088,5.58841991 20.21,6.14741991 19.962,6.58841991 L18.588,9.03041991 L18.745,9.52341991 L21.29,10.6924199 C21.752,10.9044199 21.982,11.4284199 21.824,11.9104199 L20.197,16.9114199 C20.038,17.3944199 19.54,17.6804199 19.049,17.5824199 L16.299,17.0304199 L15.879,17.3384199 L15.553,20.1174199 C15.493,20.6204199 15.067,21.0004199 14.56,21.0004199 L14.559,21.0004199 L9.3,20.9954199 C8.793,20.9954199 8.366,20.6154199 8.308,20.1114199 L7.986,17.3484199 L7.55,17.0254199 L4.821,17.5714199 C4.319,17.6704199 3.829,17.3824199 3.673,16.8994199 L2.052,11.8964199 Z M29,35.0004199 C29,37.7574199 31.243,40.0004199 34,40.0004199 C36.757,40.0004199 39,37.7574199 39,35.0004199 C39,32.2434199 36.757,30.0004199 34,30.0004199 C31.243,30.0004199 29,32.2434199 29,35.0004199 L29,35.0004199 Z M27,35.0004199 C27,31.1404199 30.141,28.0004199 34,28.0004199 C37.86,28.0004199 41,31.1404199 41,35.0004199 C41,38.8604199 37.86,42.0004199 34,42.0004199 C30.141,42.0004199 27,38.8604199 27,35.0004199 L27,35.0004199 Z M31.083,22.0004199 L38.579,22.0004199 L34.831,14.5034199 L31.083,22.0004199 Z M28.615,23.5264199 C28.432,23.2314199 28.415,22.8634199 28.571,22.5534199 L33.937,11.8204199 C34.277,11.1434199 35.386,11.1434199 35.726,11.8204199 L41.092,22.5534199 C41.247,22.8634199 41.231,23.2314199 41.048,23.5264199 C40.865,23.8204199 40.544,24.0004199 40.198,24.0004199 L29.465,24.0004199 C29.118,24.0004199 28.797,23.8204199 28.615,23.5264199 L28.615,23.5264199 Z M13,34.0004199 L22,34.0004199 L22,25.0004199 L13,25.0004199 L13,34.0004199 Z M12,23.0004199 L23,23.0004199 C23.553,23.0004199 24,23.4484199 24,24.0004199 L24,35.0004199 C24,35.5524199 23.553,36.0004199 23,36.0004199 L12,36.0004199 C11.448,36.0004199 11,35.5524199 11,35.0004199 L11,24.0004199 C11,23.4484199 11.448,23.0004199 12,23.0004199 L12,23.0004199 Z M46,3.00041991 L46,45.0004199 C46,45.5524199 45.553,46.0004199 45,46.0004199 L3,46.0004199 C2.448,46.0004199 2,45.5524199 2,45.0004199 L2,22.0004199 L4,22.0004199 L4,44.0004199 L44,44.0004199 L44,4.00041991 L22,4.00041991 L22,2.00041991 L45,2.00041991 C45.553,2.00041991 46,2.44841991 46,3.00041991 L46,3.00041991 Z" id="Fill-1" fill="#B0084D"></path>
    </g>
</svg>