<?xml version="1.0" encoding="UTF-8"?>
<svg width="64px" height="64px" viewBox="0 0 64 64" version="1.1" xmlns="http://www.w3.org/2000/svg" xmlns:xlink="http://www.w3.org/1999/xlink">
    <title>Icon-Architecture/48/Arch_AWS-Resilience-Hub_48</title>
    <defs>
        <linearGradient x1="0%" y1="100%" x2="100%" y2="0%" id="linearGradient-1">
            <stop stop-color="#B0084D" offset="0%"></stop>
            <stop stop-color="#FF4F8B" offset="100%"></stop>
        </linearGradient>
    </defs>
    <g id="Icon-Architecture/48/Arch_AWS-Resilience-Hub_48" stroke="none" stroke-width="1" fill="none" fill-rule="evenodd">
        <g id="Rectangle" fill="url(#linearGradient-1)">
            <rect x="0" y="0" width="64" height="64"></rect>
        </g>
        <g id="Icon-Service/48/AWS-Resilience-Hub_48" transform="translate(8.000000, 8.000000)" fill="#FFFFFF">
            <path d="M41.2,34.2963627 L33.8,34.2963627 L33.8,36.1523627 L38.064,36.1523627 C36.231,39.8713627 32.419,42.2963627 28.2,42.2963627 C22.135,42.2963627 17.2,37.3613627 17.2,31.2963627 C17.2,25.2313627 22.135,20.2963627 28.2,20.2963627 C33.881,20.2963627 38.696,24.7253627 39.162,30.3783627 L41.156,30.2143627 C40.604,23.5313627 34.914,18.2963627 28.2,18.2963627 C21.032,18.2963627 15.2,24.1283627 15.2,31.2963627 C15.2,38.4643627 21.032,44.2963627 28.2,44.2963627 C32.752,44.2963627 36.904,41.9073627 39.242,38.1483627 L39.242,41.7113627 L41.2,41.7113627 L41.2,34.2963627 Z M21.872,31.5553627 L20.528,33.0373627 L25.079,37.1613627 C25.27,37.3353627 25.511,37.4203627 25.751,37.4203627 C26.019,37.4203627 26.288,37.3123627 26.484,37.1003627 L34.933,27.9763627 L33.467,26.6163627 L25.689,35.0153627 L21.872,31.5553627 Z M46.000381,24.6363627 C45.976,27.4003627 44.886,29.1493627 43.974,30.1293627 L42.51,28.7683627 C43.179,28.0463627 43.982,26.7423627 44,24.6203627 C44.043,19.5373627 39.824,18.2593627 38.009,17.9463627 C37.481,17.8553627 37.121,17.3673627 37.186,16.8393627 C37.004,14.5443627 35.945,12.9003627 34.341,12.4333627 C33.02,12.0493627 31.607,12.5673627 30.736,13.7533627 C30.516,14.0523627 30.154,14.2043627 29.783,14.1503627 C29.417,14.0953627 29.11,13.8423627 28.987,13.4933627 C28.356,11.7003627 27.445,10.1953627 26.278,9.02036269 C24.848,7.57936269 20.926,4.48436269 15.392,6.83736269 C12.196,8.19736269 9.692,12.1183627 9.692,15.7643627 C9.692,16.1753627 9.717,16.5843627 9.764,16.9793627 C9.826,17.4883627 9.491,17.9623627 8.99,18.0743627 C8.976,18.0783627 8.962,18.0813627 8.948,18.0833627 C7.066,18.5853627 4,20.0893627 4,24.5633627 C4,24.8033627 4.01,25.0343627 4.026,25.2593627 C4.307,28.8683627 6.377,31.2963627 9.174,31.2963627 L12.963,31.2963627 L12.963,33.2963627 L9.174,33.2963627 C5.331,33.2963627 2.394,30.0533627 2.032,25.4113627 C2.012,25.1353627 2,24.8543627 2,24.5633627 C2,19.2023627 5.522,17.1383627 7.707,16.3743627 C7.697,16.1723627 7.692,15.9683627 7.692,15.7643627 C7.692,11.3043627 10.666,6.67436269 14.609,4.99736269 C19.229,3.03036269 24.123,4.00936269 27.698,7.61136269 C28.743,8.66536269 29.611,9.93036269 30.288,11.3863627 C31.607,10.3883627 33.292,10.0453627 34.899,10.5133627 C37.194,11.1813627 38.741,13.2603627 39.122,16.1373627 C42.605,16.9933627 46.042,19.6053627 46.000381,24.6363627 L46.000381,24.6363627 Z" id="Icon-Service/48/AWS-Resilience-Hub_48_Squid"></path>
        </g>
    </g>
</svg>