<?xml version="1.0" encoding="UTF-8"?>
<svg width="48px" height="48px" viewBox="0 0 48 48" version="1.1" xmlns="http://www.w3.org/2000/svg" xmlns:xlink="http://www.w3.org/1999/xlink">
    <title>Icon-Resource/Managment-Governance/Res_AWS-System-Manager_Inventory_48_Light</title>
    <g id="Icon-Resource/Managment-Governance/Res_AWS-System-Manager_Inventory_48" stroke="none" stroke-width="1" fill="none" fill-rule="evenodd">
        <path d="M23.945,2 L2,14.54 L2,46.041 L45.89,46.041 L45.89,14.54 L23.945,2 Z M4,15.7 L23.945,4.302 L43.89,15.7 L43.89,44.041 L4,44.041 L4,15.7 Z M7.237,42.55 L40.654,42.55 L40.654,16.114 L7.237,16.114 L7.237,42.55 Z M9.236,40.551 L38.653,40.551 L38.653,18.115 L9.236,18.115 L9.236,40.551 Z M17.709,25.097 L23.199,25.097 L23.199,19.605 L17.709,19.605 L17.709,25.097 Z M19.709,23.096 L21.199,23.096 L21.199,21.605 L19.709,21.605 L19.709,23.096 Z M10.728,25.097 L16.218,25.097 L16.218,19.605 L10.728,19.605 L10.728,25.097 Z M12.727,23.096 L14.217,23.096 L14.217,21.605 L12.727,21.605 L12.727,23.096 Z M24.69,32.078 L30.181,32.078 L30.181,26.586 L24.69,26.586 L24.69,32.078 Z M26.691,30.077 L28.181,30.077 L28.181,28.587 L26.691,28.587 L26.691,30.077 Z M17.709,32.078 L23.199,32.078 L23.199,26.586 L17.709,26.586 L17.709,32.078 Z M19.709,30.077 L21.199,30.077 L21.199,28.587 L19.709,28.587 L19.709,30.077 Z M10.728,32.078 L16.218,32.078 L16.218,26.586 L10.728,26.586 L10.728,32.078 Z M12.727,30.077 L14.217,30.077 L14.217,28.587 L12.727,28.587 L12.727,30.077 Z M31.672,39.059 L37.164,39.059 L37.164,33.567 L31.672,33.567 L31.672,39.059 Z M33.672,37.059 L35.163,37.059 L35.163,35.568 L33.672,35.568 L33.672,37.059 Z M24.69,39.059 L30.181,39.059 L30.181,33.567 L24.69,33.567 L24.69,39.059 Z M26.691,37.059 L28.181,37.059 L28.181,35.568 L26.691,35.568 L26.691,37.059 Z M17.709,39.059 L23.199,39.059 L23.199,33.567 L17.709,33.567 L17.709,39.059 Z M19.709,37.059 L21.199,37.059 L21.199,35.568 L19.709,35.568 L19.709,37.059 Z M10.728,39.059 L16.218,39.059 L16.218,33.567 L10.728,33.567 L10.728,39.059 Z M12.727,37.059 L14.217,37.059 L14.217,35.568 L12.727,35.568 L12.727,37.059 Z" id="AWS-System-Manager_inventory_Resource-Icon_light-bg" fill="#B0084D"></path>
    </g>
</svg>