<?xml version="1.0" encoding="UTF-8"?>
<svg width="48px" height="48px" viewBox="0 0 48 48" version="1.1" xmlns="http://www.w3.org/2000/svg" xmlns:xlink="http://www.w3.org/1999/xlink">
    <title>Icon-Resource/Management-Governance/Res_AWS-Systems-Manager_Change-Calendar_48_Light</title>
    <g id="Icon-Resource/Management-Governance/Res_AWS-Systems-Manager_Change-Calendar_48" stroke="none" stroke-width="1" fill="none" fill-rule="evenodd">
        <path d="M41.958,26.206 L43.938,26.489 C42.506,36.503 33.726,44.348 23.948,44.348 C15.346,44.348 7.52,38.273 4.787,29.992 L3.896,32.664 L2,32.031 L4,26.031 C4.103,25.721 4.352,25.481 4.665,25.389 C4.979,25.298 5.318,25.363 5.573,25.567 L10.573,29.567 L9.323,31.128 L6.555,28.913 C8.879,36.629 16.045,42.348 23.948,42.348 C32.753,42.348 40.664,35.257 41.958,26.206 L41.958,26.206 Z M5.938,22.489 L3.958,22.206 C5.419,11.997 14.199,4 23.948,4 C32.543,4 40.378,10.219 43.115,18.686 L44,16.031 L45.896,16.664 L43.896,22.664 C43.794,22.974 43.545,23.214 43.231,23.307 C43.139,23.334 43.043,23.348 42.948,23.348 C42.724,23.348 42.503,23.272 42.323,23.128 L37.323,19.128 L38.573,17.567 L41.353,19.791 C39.03,11.875 31.848,6 23.948,6 C15.172,6 7.261,13.243 5.938,22.489 L5.938,22.489 Z M28.948,32 L30.948,32 L30.948,30 L28.948,30 L28.948,32 Z M28.948,28 L30.948,28 L30.948,26 L28.948,26 L28.948,28 Z M24.948,32 L26.948,32 L26.948,30 L24.948,30 L24.948,32 Z M24.948,28 L26.948,28 L26.948,26 L24.948,26 L24.948,28 Z M20.948,32 L22.948,32 L22.948,30 L20.948,30 L20.948,32 Z M20.948,28 L22.948,28 L22.948,26 L20.948,26 L20.948,28 Z M16.948,32 L18.948,32 L18.948,30 L16.948,30 L16.948,32 Z M16.948,28 L18.948,28 L18.948,26 L16.948,26 L16.948,28 Z M16.948,24 L18.948,24 L18.948,22 L16.948,22 L16.948,24 Z M28.948,24 L30.948,24 L30.948,22 L28.948,22 L28.948,24 Z M24.948,24 L26.948,24 L26.948,22 L24.948,22 L24.948,24 Z M20.948,24 L22.948,24 L22.948,22 L20.948,22 L20.948,24 Z M20.948,15 L20.948,16 L22.948,16 L22.948,15 L24.948,15 L24.948,16 L26.948,16 L26.948,15 L28.948,15 L28.948,16 L30.948,16 L30.948,15 L32.948,15 L32.948,18 L14.948,18 L14.948,15 L16.948,15 L16.948,16 L18.948,16 L18.948,15 L20.948,15 Z M14.948,34 L32.948,34 L32.948,20 L14.948,20 L14.948,34 Z M16.948,12 L16.948,13 L13.948,13 C13.396,13 12.948,13.448 12.948,14 L12.948,19 L12.948,35 C12.948,35.552 13.396,36 13.948,36 L33.948,36 C34.501,36 34.948,35.552 34.948,35 L34.948,19 L34.948,14 C34.948,13.448 34.501,13 33.948,13 L30.948,13 L30.948,12 L28.948,12 L28.948,13 L26.948,13 L26.948,12 L24.948,12 L24.948,13 L22.948,13 L22.948,12 L20.948,12 L20.948,13 L18.948,13 L18.948,12 L16.948,12 Z" id="Fill-1" fill="#B0084D"></path>
    </g>
</svg>