<?xml version="1.0" encoding="UTF-8"?>
<svg width="48px" height="48px" viewBox="0 0 48 48" version="1.1" xmlns="http://www.w3.org/2000/svg" xmlns:xlink="http://www.w3.org/1999/xlink">
    <title>Icon-Resource/Management-Governance/Res_AWS-Systems-Manager_Compliance_48_Light</title>
    <g id="Icon-Resource/Management-Governance/Res_AWS-Systems-Manager_Compliance_48" stroke="none" stroke-width="1" fill="none" fill-rule="evenodd">
        <path d="M11,37 L26,37 L26,39 L10,39 C9.447,39 9,38.552 9,38 L9,15 C9,14.448 9.447,14 10,14 L30,14 C30.553,14 31,14.448 31,15 L31,21 L29,21 L29,16 L11,16 L11,37 Z M13.502,6 L17.184,6 C17.598,7.161 18.698,8 20,8 C21.302,8 22.402,7.161 22.816,6 L26.615,6 L27.74,10 L12.377,10 L13.502,6 Z M20,4 C20.552,4 21,4.449 21,5 C21,5.551 20.552,6 20,6 C19.448,6 19,5.551 19,5 C19,4.449 19.448,4 20,4 L20,4 Z M11.057,12 L29.061,12 C29.374,12 29.669,11.854 29.857,11.604 C30.047,11.354 30.108,11.031 30.023,10.729 L28.336,4.729 C28.215,4.298 27.821,4 27.373,4 L22.816,4 C22.402,2.839 21.302,2 20,2 C18.698,2 17.598,2.839 17.184,4 L12.744,4 C12.296,4 11.902,4.298 11.781,4.729 L10.094,10.729 C10.009,11.031 10.07,11.354 10.26,11.604 C10.448,11.854 10.743,12 11.057,12 L11.057,12 Z M32.353,8 L31,8 L31,6 L32.353,6 C33.812,6 35,7.275 35,8.842 L35,20 L33,20 L33,8.842 C33,8.386 32.703,8 32.353,8 L32.353,8 Z M7.647,41 L25,41 L25,43 L7.647,43 C6.187,43 5,41.725 5,40.158 L5,8.842 C5,7.275 6.187,6 7.647,6 L9,6 L9,8 L7.647,8 C7.297,8 7,8.386 7,8.842 L7,40.158 C7,40.614 7.297,41 7.647,41 L7.647,41 Z M39.471,31.096 C39.326,31.296 39.26,31.542 39.286,31.787 L39.426,33.132 L38.189,33.683 C37.963,33.783 37.782,33.964 37.682,34.19 L37.133,35.426 L35.787,35.286 C35.542,35.26 35.297,35.326 35.097,35.471 L34,36.265 L32.903,35.471 C32.731,35.346 32.526,35.28 32.316,35.28 C32.282,35.28 32.247,35.282 32.213,35.286 L30.867,35.426 L30.317,34.189 C30.217,33.964 30.036,33.783 29.81,33.683 L28.574,33.132 L28.714,31.787 C28.74,31.542 28.674,31.296 28.529,31.096 L27.735,30 L28.529,28.904 C28.674,28.704 28.74,28.458 28.714,28.213 L28.574,26.868 L29.811,26.317 C30.037,26.217 30.218,26.036 30.318,25.81 L30.867,24.574 L32.213,24.714 C32.455,24.737 32.703,24.674 32.903,24.529 L34,23.735 L35.097,24.529 C35.297,24.674 35.542,24.737 35.787,24.714 L37.133,24.574 L37.683,25.811 C37.783,26.036 37.964,26.217 38.19,26.317 L39.426,26.868 L39.286,28.213 C39.26,28.458 39.326,28.704 39.471,28.904 L40.265,30 L39.471,31.096 Z M38.316,42.051 C37.957,41.932 37.56,42.025 37.293,42.293 L36.447,43.139 L34.824,38.137 L35.96,37.314 L37.485,37.474 L39.328,42.389 L38.316,42.051 Z M32.225,42.81 L31.707,42.293 C31.44,42.025 31.043,41.932 30.684,42.051 L29.412,42.475 L30.666,37.458 L32.04,37.314 L32.859,37.908 L32.74,37.896 L32.225,42.81 Z M42.31,29.413 L41.314,28.04 L41.49,26.353 C41.535,25.922 41.298,25.511 40.902,25.335 L39.354,24.646 L38.665,23.097 C38.489,22.703 38.076,22.468 37.647,22.509 L35.96,22.686 L34.587,21.69 C34.237,21.437 33.763,21.437 33.413,21.69 L32.04,22.686 L30.353,22.509 C29.927,22.469 29.512,22.703 29.335,23.098 L28.646,24.646 L27.098,25.335 C26.702,25.511 26.464,25.922 26.51,26.353 L26.686,28.04 L25.69,29.413 C25.437,29.763 25.437,30.237 25.69,30.587 L26.686,31.96 L26.51,33.647 C26.465,34.078 26.702,34.489 27.098,34.665 L28.646,35.354 L28.956,36.052 L27.03,43.757 C26.941,44.111 27.053,44.486 27.32,44.734 C27.588,44.983 27.972,45.065 28.316,44.949 L30.729,44.144 L32.293,45.707 C32.483,45.898 32.739,46 33,46 C33.112,46 33.225,45.981 33.334,45.942 C33.697,45.814 33.954,45.488 33.994,45.104 L34.236,42.803 L35.049,45.309 C35.156,45.64 35.428,45.891 35.767,45.972 C35.844,45.991 35.922,46 36,46 C36.262,46 36.518,45.897 36.707,45.707 L38.271,44.144 L40.684,44.949 C41.051,45.071 41.452,44.971 41.72,44.694 C41.987,44.417 42.071,44.01 41.937,43.649 L39.067,35.997 L39.354,35.354 L40.902,34.665 C41.298,34.489 41.536,34.078 41.49,33.647 L41.314,31.96 L42.31,30.587 C42.563,30.237 42.563,29.763 42.31,29.413 L42.31,29.413 Z" id="Fill-1" fill="#B0084D"></path>
    </g>
</svg>