<?xml version="1.0" encoding="UTF-8"?>
<svg width="48px" height="48px" viewBox="0 0 48 48" version="1.1" xmlns="http://www.w3.org/2000/svg" xmlns:xlink="http://www.w3.org/1999/xlink">
    <title>Icon-Resource/Managment-Governance/Res_AWS-System-Manager_OpsCenter_48_Light</title>
    <g id="Icon-Resource/Managment-Governance/Res_AWS-System-Manager_OpsCenter_48" stroke="none" stroke-width="1" fill="none" fill-rule="evenodd">
        <path d="M14.4093,14.748 L12.9953,16.162 L20.8003,23.967 L37.3023,3.797 L35.7533,2.531 L20.6513,20.99 L14.4093,14.748 Z M43.0083,37.685 L38.2393,33.26 L33.0923,38.407 L37.8473,42.805 C39.2813,44.198 41.5473,44.167 42.9223,42.755 C44.3433,41.363 44.3733,39.097 43.0083,37.685 L43.0083,37.685 Z M30.6283,36.128 L31.6233,37.048 L36.7733,31.897 L35.8533,31.044 C35.2163,31.969 34.4993,32.849 33.6883,33.66 C32.7483,34.602 31.7193,35.42 30.6283,36.128 L30.6283,36.128 Z M44.3393,44.167 C43.2583,45.277 41.8133,45.836 40.3653,45.836 C38.9633,45.836 37.5573,45.312 36.4733,44.259 L28.8013,37.162 C26.2713,38.419 23.4753,39.102 20.5693,39.103 L20.5573,39.103 C15.6043,39.103 10.9483,37.177 7.4433,33.676 C3.9363,30.173 2.0033,25.514 2.00025985,20.557 C1.9953,18.141 2.4573,15.782 3.3753,13.548 L5.2243,14.308 C4.5343,15.988 4.1513,17.752 4.0463,19.556 L9.1453,19.556 L9.1453,21.556 L4.0493,21.556 C4.2923,25.602 5.9663,29.373 8.8563,32.261 C11.7463,35.146 15.5163,36.814 19.5583,37.055 L19.5583,31.969 L21.5583,31.969 L21.5583,37.055 C25.6073,36.813 29.3833,35.141 32.2733,32.247 C35.1573,29.36 36.8253,25.594 37.0673,21.556 L31.9713,21.556 L31.9713,19.556 L37.0813,19.556 C36.9133,16.744 36.0393,14.024 34.5173,11.639 L36.2033,10.562 C38.1063,13.547 39.1143,16.995 39.1163,20.534 C39.1183,23.646 38.3563,26.643 36.9243,29.31 L44.4073,36.258 C46.5733,38.494 46.5253,42.025 44.3393,44.167 L44.3393,44.167 Z M9.7983,8.005 L8.4933,6.489 C6.8573,7.897 5.4893,9.567 4.4293,11.453 L6.1713,12.434 C7.1183,10.752 8.3393,9.262 9.7983,8.005 L9.7983,8.005 Z M11.5673,6.646 L10.4813,4.967 C16.5673,1.031 24.4463,1.01 30.5523,4.911 L29.4753,6.597 C27.0553,5.05 24.3233,4.198 21.5583,4.032 L21.5583,9.143 L19.5583,9.143 L19.5583,4.035 C16.7643,4.203 14.0053,5.07 11.5673,6.646 L11.5673,6.646 Z" id="AWS-System-Manager_OpsCenter_Resource-Icon_light-bg" fill="#B0084D"></path>
    </g>
</svg>