<?xml version="1.0" encoding="UTF-8"?>
<svg width="48px" height="48px" viewBox="0 0 48 48" version="1.1" xmlns="http://www.w3.org/2000/svg" xmlns:xlink="http://www.w3.org/1999/xlink">
    <title>Icon-Resource/Managment-Governance/Res_AWS-System-Manager_Patch-Manager_48_Light</title>
    <g id="Icon-Resource/Managment-Governance/Res_AWS-System-Manager_Patch-Manager_48" stroke="none" stroke-width="1" fill="none" fill-rule="evenodd">
        <path d="M24.027,2 L19.856,6.172 L21.269,7.585 L24.027,4.829 L28.465,9.266 L29.879,7.852 L24.027,2 Z M30.744,17.169 L32.744,17.169 L32.744,4.306 L30.744,4.306 L30.744,17.169 Z M34.174,20.598 L36.174,20.598 L36.174,7.736 L34.174,7.736 L34.174,20.598 Z M11.165,10.45 L24.027,10.45 L24.027,8.45 L11.165,8.45 L11.165,10.45 Z M37.604,24.028 L39.604,24.028 L39.604,11.166 L37.604,11.166 L37.604,24.028 Z M7.735,13.88 L20.596,13.88 L20.596,11.88 L7.735,11.88 L7.735,13.88 Z M4.305,17.31 L17.166,17.31 L17.166,15.31 L4.305,15.31 L4.305,17.31 Z M2,24.028 L6.171,28.199 L7.585,26.784 L4.828,24.028 L9.265,19.59 L7.851,18.176 L2,24.028 Z M40.468,21.271 L43.227,24.028 L38.788,28.465 L40.202,29.879 L46.055,24.028 L41.883,19.857 L40.468,21.271 Z M8.45,36.889 L10.45,36.889 L10.45,24.027 L8.45,24.027 L8.45,36.889 Z M11.88,40.318 L13.88,40.318 L13.88,27.457 L11.88,27.457 L11.88,40.318 Z M30.029,32.745 L42.89,32.745 L42.89,30.744 L30.029,30.744 L30.029,32.745 Z M15.31,43.749 L17.31,43.749 L17.31,30.887 L15.31,30.887 L15.31,43.749 Z M26.599,36.174 L39.461,36.174 L39.461,34.174 L26.599,34.174 L26.599,36.174 Z M23.169,39.604 L36.031,39.604 L36.031,37.604 L23.169,37.604 L23.169,39.604 Z M18.174,40.203 L24.027,46.055 L28.198,41.884 L26.784,40.47 L24.027,43.227 L19.588,38.789 L18.174,40.203 Z" id="AWS-System-Manager_patch-manager_Resource-Icon_light-bg" fill="#B0084D"></path>
    </g>
</svg>