<?xml version="1.0" encoding="UTF-8"?>
<svg width="48px" height="48px" viewBox="0 0 48 48" version="1.1" xmlns="http://www.w3.org/2000/svg" xmlns:xlink="http://www.w3.org/1999/xlink">
    <title>Icon-Resource/Managment-Governance/Res_AWS-System-Manager_State-Manager_48_Light</title>
    <g id="Icon-Resource/Managment-Governance/Res_AWS-System-Manager_State-Manager_48" stroke="none" stroke-width="1" fill="none" fill-rule="evenodd">
        <path d="M35.417,36.035 L38.653,36.035 L38.653,32.799 L35.417,32.799 L35.417,36.035 Z M34.417,38.036 L39.653,38.036 C40.206,38.036 40.653,37.588 40.653,37.036 L40.653,31.799 C40.653,31.246 40.206,30.799 39.653,30.799 L34.417,30.799 C33.864,30.799 33.417,31.246 33.417,31.799 L33.417,37.036 C33.417,37.588 33.864,38.036 34.417,38.036 L34.417,38.036 Z M23.944,34.616 L24.796,36.036 L23.093,36.036 L23.944,34.616 Z M21.326,38.036 L26.562,38.036 C26.923,38.036 27.255,37.842 27.432,37.529 C27.61,37.214 27.605,36.829 27.42,36.521 L24.802,32.158 C24.44,31.556 23.448,31.556 23.087,32.158 L20.469,36.521 C20.283,36.829 20.278,37.214 20.456,37.529 C20.634,37.842 20.966,38.036 21.326,38.036 L21.326,38.036 Z M10.854,33.672 C11.506,33.672 12.036,34.202 12.036,34.854 C12.036,35.505 11.506,36.036 10.854,36.036 C10.203,36.036 9.673,35.505 9.673,34.854 C9.673,34.202 10.203,33.672 10.854,33.672 L10.854,33.672 Z M10.854,38.036 C12.608,38.036 14.036,36.608 14.036,34.854 C14.036,33.1 12.608,31.672 10.854,31.672 C9.1,31.672 7.673,33.1 7.673,34.854 C7.673,36.608 9.1,38.036 10.854,38.036 L10.854,38.036 Z M32.798,39.527 L41.271,39.527 L41.271,23.2 L32.798,23.2 L32.798,39.527 Z M31.799,21.2 C31.246,21.2 30.799,21.647 30.799,22.2 L30.799,40.527 C30.799,41.079 31.246,41.527 31.799,41.527 L42.271,41.527 C42.824,41.527 43.271,41.079 43.271,40.527 L43.271,22.2 C43.271,21.647 42.824,21.2 42.271,21.2 L31.799,21.2 Z M19.707,39.527 L28.18,39.527 L28.18,19.71 L19.707,19.71 L19.707,39.527 Z M29.18,17.709 L18.708,17.709 C18.155,17.709 17.708,18.157 17.708,18.709 L17.708,40.527 C17.708,41.079 18.155,41.527 18.708,41.527 L29.18,41.527 C29.733,41.527 30.18,41.079 30.18,40.527 L30.18,18.709 C30.18,18.157 29.733,17.709 29.18,17.709 L29.18,17.709 Z M6.618,39.527 L15.09,39.527 L15.09,30.181 L6.618,30.181 L6.618,39.527 Z M16.09,28.181 L5.618,28.181 C5.065,28.181 4.618,28.628 4.618,29.181 L4.618,40.527 C4.618,41.079 5.065,41.527 5.618,41.527 L16.09,41.527 C16.642,41.527 17.09,41.079 17.09,40.527 L17.09,29.181 C17.09,28.628 16.642,28.181 16.09,28.181 L16.09,28.181 Z M8.363,10.728 L24.69,10.728 L24.69,9.237 L8.363,9.237 L8.363,10.728 Z M7.363,12.728 L25.69,12.728 C26.243,12.728 26.69,12.281 26.69,11.728 L26.69,8.237 C26.69,7.684 26.243,7.237 25.69,7.237 L7.363,7.237 C6.81,7.237 6.363,7.684 6.363,8.237 L6.363,11.728 C6.363,12.281 6.81,12.728 7.363,12.728 L7.363,12.728 Z M31.362,8.364 C32.013,8.364 32.544,8.894 32.544,9.545 C32.544,10.198 32.013,10.728 31.362,10.728 C30.711,10.728 30.18,10.198 30.18,9.545 C30.18,8.894 30.711,8.364 31.362,8.364 L31.362,8.364 Z M31.362,12.728 C33.116,12.728 34.544,11.3 34.544,9.545 C34.544,7.791 33.116,6.364 31.362,6.364 C29.608,6.364 28.18,7.791 28.18,9.545 C28.18,11.3 29.608,12.728 31.362,12.728 L31.362,12.728 Z M39.217,8.364 C39.868,8.364 40.398,8.894 40.398,9.545 C40.398,10.198 39.868,10.728 39.217,10.728 C38.565,10.728 38.035,10.198 38.035,9.545 C38.035,8.894 38.565,8.364 39.217,8.364 L39.217,8.364 Z M39.217,12.728 C40.97,12.728 42.398,11.3 42.398,9.545 C42.398,7.791 40.97,6.364 39.217,6.364 C37.463,6.364 36.035,7.791 36.035,9.545 C36.035,11.3 37.463,12.728 39.217,12.728 L39.217,12.728 Z M43.889,39.442 C43.889,41.895 41.894,43.89 39.441,43.89 L8.447,43.89 C5.995,43.89 4,41.895 4,39.442 L4,8.449 C4,5.995 5.995,4 8.447,4 L39.441,4 C41.894,4 43.889,5.995 43.889,8.449 L43.889,39.442 Z M39.441,2 L8.447,2 C4.892,2 2,4.893 2,8.449 L2,39.442 C2,42.997 4.892,45.89 8.447,45.89 L39.441,45.89 C42.997,45.89 45.889,42.997 45.889,39.442 L45.889,8.449 C45.889,4.893 42.997,2 39.441,2 L39.441,2 Z" id="AWS-System-Manager_state-manager_Resource-Icon_light-bg" fill="#B0084D"></path>
    </g>
</svg>