<?xml version="1.0" encoding="UTF-8"?>
<svg width="48px" height="48px" viewBox="0 0 48 48" version="1.1" xmlns="http://www.w3.org/2000/svg" xmlns:xlink="http://www.w3.org/1999/xlink">
    <title>Icon-Resource/Managment-Governance/Res_AWS-System-Manager_Maintenance-Windows_48_Light</title>
    <g id="Icon-Resource/Managment-Governance/Res_AWS-System-Manager_Maintenance-Windows_48" stroke="none" stroke-width="1" fill="none" fill-rule="evenodd">
        <path d="M25.0002,23.875 L31.8752,23.875 L31.8752,25.875 L24.0002,25.875 C23.4472,25.875 23.0002,25.428 23.0002,24.875 L23.0002,14.375 L25.0002,14.375 L25.0002,23.875 Z M24.0002,35.25 C17.7972,35.25 12.7502,30.203 12.7502,24 C12.7502,17.797 17.7972,12.75 24.0002,12.75 C30.2032,12.75 35.2502,17.797 35.2502,24 C35.2502,30.203 30.2032,35.25 24.0002,35.25 L24.0002,35.25 Z M24.0002,10.75 C16.6942,10.75 10.7502,16.694 10.7502,24 C10.7502,31.306 16.6942,37.25 24.0002,37.25 C31.3062,37.25 37.2502,31.306 37.2502,24 C37.2502,16.694 31.3062,10.75 24.0002,10.75 L24.0002,10.75 Z M44.0002,27.114 L41.5732,26.977 C41.1162,26.957 40.6482,27.276 40.5412,27.754 C40.1172,29.633 39.3802,31.412 38.3522,33.041 C38.0912,33.455 38.1672,33.996 38.5312,34.321 L40.3452,35.939 L35.9402,40.345 L34.3282,38.537 C34.0022,38.17 33.4602,38.098 33.0482,38.356 C31.4172,39.388 29.6372,40.125 27.7562,40.55 C27.2782,40.657 26.9492,41.095 26.9782,41.582 L27.1152,44 L20.8862,44 L21.0232,41.58 C21.0522,41.093 20.7232,40.656 20.2462,40.548 C18.3702,40.124 16.5912,39.386 14.9572,38.354 C14.5442,38.094 14.0022,38.168 13.6772,38.533 L12.0612,40.345 L7.6562,35.939 L9.4662,34.325 C9.8302,34 9.9062,33.459 9.6462,33.046 C8.6162,31.413 7.8802,29.633 7.4572,27.755 C7.3502,27.277 6.8922,26.957 6.4252,26.977 L4.0002,27.114 L4.0002,20.885 L6.4322,21.022 C6.9152,21.035 7.3542,20.723 7.4642,20.245 C7.8892,18.372 8.6262,16.596 9.6562,14.966 C9.9172,14.553 9.8412,14.011 9.4772,13.686 L7.6552,12.061 L12.0622,7.655 L13.6852,9.475 C14.0092,9.839 14.5522,9.913 14.9642,9.654 C16.5942,8.628 18.3702,7.892 20.2462,7.469 C20.7232,7.361 21.0522,6.925 21.0232,6.437 L20.8862,4 L27.1152,4 L26.9782,6.438 C26.9492,6.926 27.2782,7.362 27.7552,7.471 C29.6272,7.895 31.4032,8.63 33.0332,9.658 C33.4432,9.917 33.9862,9.842 34.3132,9.479 L35.9392,7.655 L40.3452,12.061 L38.5272,13.682 C38.1632,14.007 38.0872,14.549 38.3482,14.962 C39.3772,16.59 40.1142,18.368 40.5392,20.245 C40.6472,20.723 41.0922,21.035 41.5712,21.022 L44.0002,20.885 L44.0002,27.114 Z M45.6872,19.1 C45.4872,18.911 45.2182,18.81 44.9432,18.828 L42.2832,18.979 C41.8662,17.455 41.2612,15.995 40.4772,14.623 L42.4672,12.848 C42.6722,12.665 42.7932,12.405 42.8012,12.13 C42.8092,11.855 42.7022,11.589 42.5082,11.395 L36.6052,5.492 C36.4112,5.298 36.1372,5.211 35.8702,5.199 C35.5952,5.207 35.3362,5.328 35.1522,5.533 L33.3712,7.529 C31.9992,6.747 30.5412,6.143 29.0212,5.726 L29.1722,3.057 C29.1872,2.782 29.0902,2.513 28.9002,2.313 C28.7122,2.113 28.4492,2 28.1742,2 L19.8272,2 C19.5522,2 19.2892,2.113 19.1012,2.313 C18.9112,2.513 18.8132,2.782 18.8292,3.057 L18.9802,5.724 C17.4582,6.14 15.9992,6.743 14.6262,7.525 L12.8492,5.533 C12.6662,5.328 12.4062,5.207 12.1312,5.199 C11.8542,5.214 11.5912,5.298 11.3962,5.492 L5.4932,11.395 C5.2992,11.589 5.1922,11.854 5.2002,12.13 C5.2082,12.405 5.3292,12.664 5.5342,12.848 L7.5272,14.626 C6.7422,16 6.1372,17.458 5.7202,18.979 L3.0572,18.828 C2.7762,18.809 2.5132,18.911 2.3132,19.1 C2.1132,19.288 2.0002,19.551 2.0002,19.826 L2.0002,28.173 C2.0002,28.448 2.1132,28.711 2.3132,28.899 C2.5132,29.088 2.7782,29.187 3.0572,29.171 L5.7122,29.021 C6.1282,30.546 6.7322,32.008 7.5172,33.384 L5.5342,35.152 C5.3292,35.335 5.2082,35.595 5.2002,35.87 C5.1922,36.145 5.2992,36.411 5.4932,36.605 L11.3962,42.508 C11.5912,42.702 11.8512,42.806 12.1312,42.801 C12.4062,42.793 12.6662,42.672 12.8492,42.467 L14.6182,40.482 C15.9952,41.269 17.4562,41.875 18.9792,42.293 L18.8292,44.943 C18.8132,45.218 18.9112,45.486 19.1012,45.687 C19.2892,45.887 19.5522,46 19.8272,46 L28.1742,46 C28.4492,46 28.7122,45.887 28.9002,45.687 C29.0902,45.486 29.1872,45.218 29.1722,44.943 L29.0212,42.295 C30.5492,41.878 32.0122,41.271 33.3872,40.486 L35.1522,42.466 C35.3352,42.672 35.5952,42.792 35.8702,42.801 C36.1122,42.809 36.4112,42.702 36.6052,42.508 L42.5082,36.605 C42.7022,36.411 42.8092,36.145 42.8012,35.87 C42.7932,35.595 42.6722,35.336 42.4672,35.152 L40.4802,33.38 C41.2642,32.006 41.8692,30.545 42.2862,29.021 L44.9432,29.171 C45.2172,29.186 45.4872,29.088 45.6872,28.899 C45.8872,28.711 46.0002,28.448 46.0002,28.173 L46.0002,19.826 C46.0002,19.551 45.8872,19.288 45.6872,19.1 L45.6872,19.1 Z" id="AWS-System-Manager_maintenance-windows_Resource-Icon_light-bg" fill="#B0084D"></path>
    </g>
</svg>