<?xml version="1.0" encoding="UTF-8"?>
<svg width="48px" height="48px" viewBox="0 0 48 48" version="1.1" xmlns="http://www.w3.org/2000/svg" xmlns:xlink="http://www.w3.org/1999/xlink">
    <title>Icon-Resource/Management-Governance/Res_AWS-Systems-Manager_Session-Manager_48_Light</title>
    <g id="Icon-Resource/Management-Governance/Res_AWS-Systems-Manager_Session-Manager_48" stroke="none" stroke-width="1" fill="none" fill-rule="evenodd">
        <path d="M4,41 L25,41 L25,39 L4,39 L4,41 Z M14,44 L15,44 L15,43 L14,43 L14,44 Z M25,37 L4,37 L4,25 L10,25 L10,23 L3,23 C2.447,23 2,23.448 2,24 L2,42 C2,42.552 2.447,43 3,43 L12,43 L12,44 L8,44 L8,46 L21,46 L21,44 L17,44 L17,43 L26,43 C26.553,43 27,42.552 27,42 L27,36 L25,36 L25,37 Z M27,7 L29,7 L29,5 L27,5 L27,7 Z M27,13 L29,13 L29,11 L27,11 L27,13 Z M26,8 L44,8 L44,4 L26,4 L26,8 Z M45,2 L25,2 C24.447,2 24,2.448 24,3 L24,12 L26,12 L26,10 L44,10 L44,14 L29,14 L29,16 L44,16 L44,20 L37,20 L37,22 L45,22 C45.553,22 46,21.552 46,21 L46,20 L46,14.336 L46,14 L46,8.075 L46,3 C46,2.448 45.553,2 45,2 L45,2 Z M34.481,32 L16.955,31.981 C15.012,31.979 13.144,30.387 12.958,28.571 C12.94,28.401 12.932,28.224 12.932,28.039 C12.932,25.421 14.727,24.532 15.841,24.233 C15.874,24.227 15.907,24.218 15.939,24.208 C16.405,24.068 16.703,23.613 16.644,23.13 C16.614,22.889 16.6,22.644 16.6,22.395 C16.6,20.226 18.15,17.806 20.056,16.999 C23.427,15.572 25.812,17.45 26.684,18.322 C27.397,19.039 27.956,19.959 28.346,21.058 C28.469,21.407 28.774,21.659 29.141,21.714 C29.511,21.769 29.873,21.616 30.093,21.319 C30.566,20.677 31.328,20.397 32.035,20.603 C32.911,20.859 33.494,21.78 33.607,23.077 C33.562,23.59 33.919,24.059 34.435,24.147 C35.506,24.332 38,25.084 38,28.081 C38,31.574 34.764,31.97 34.481,32 L34.481,32 Z M35.528,22.346 C35.211,20.483 34.146,19.136 32.596,18.683 C31.586,18.389 30.536,18.541 29.657,19.062 C29.232,18.245 28.712,17.524 28.1,16.91 C25.69,14.494 22.392,13.838 19.276,15.157 C16.61,16.286 14.6,19.397 14.6,22.395 C14.6,22.442 14.6,22.489 14.601,22.536 C12.287,23.433 10.932,25.437 10.932,28.039 C10.932,28.297 10.944,28.543 10.969,28.777 C11.257,31.595 13.997,33.979 16.953,33.981 L34.562,33.997 C36.442,33.844 40,32.411 40,28.081 C40,24.756 37.81,22.983 35.528,22.346 L35.528,22.346 Z" id="Fill-1" fill="#B0084D"></path>
    </g>
</svg>