<?xml version="1.0" encoding="UTF-8"?>
<svg width="48px" height="48px" viewBox="0 0 48 48" version="1.1" xmlns="http://www.w3.org/2000/svg" xmlns:xlink="http://www.w3.org/1999/xlink">
    <title>Icon-Resource/Managment-Governance/Res_AWS-Trusted-Advisor_Checklist-Security_48_Light</title>
    <g id="Icon-Resource/Managment-Governance/Res_AWS-Trusted-Advisor_Checklist-Security_48" stroke="none" stroke-width="1" fill="none" fill-rule="evenodd">
        <path d="M44.0002,31.9766 L28.4962,31.9696 L28.4912,43.9786 L43.9942,43.9856 L44.0002,31.9766 Z M31.9792,29.9716 L40.4712,29.9746 L40.4702,27.2676 C40.4772,25.0626 38.5872,23.2646 36.2572,23.2566 L36.2422,23.2566 C33.9052,23.2566 32.0002,25.0316 31.9932,27.2176 L31.9792,29.9716 Z M46.0002,30.9766 L45.9942,44.9856 C45.9942,45.5386 45.5462,45.9856 44.9942,45.9856 L27.4912,45.9786 C26.9382,45.9786 26.4912,45.5306 26.4912,44.9786 L26.4962,30.9696 C26.4962,30.7046 26.6022,30.4506 26.7892,30.2626 C26.9772,30.0756 27.2312,29.9696 27.4962,29.9696 L29.9792,29.9706 L29.9932,27.2096 C30.0042,23.9236 32.8062,21.2566 36.2422,21.2566 L36.2632,21.2566 C39.6962,21.2686 42.4802,23.9656 42.4702,27.2706 L42.4712,29.9756 L45.0002,29.9766 C45.2662,29.9766 45.5202,30.0816 45.7072,30.2696 C45.8952,30.4566 46.0002,30.7116 46.0002,30.9766 L46.0002,30.9766 Z M6.3272,26.6716 L4.9212,28.0936 L7.7202,30.8636 C7.9072,31.0486 8.1602,31.1526 8.4232,31.1526 C8.4462,31.1526 8.4702,31.1516 8.4942,31.1496 C8.7812,31.1286 9.0462,30.9866 9.2202,30.7556 L13.4182,25.2156 L11.8242,24.0086 L8.3152,28.6386 L6.3272,26.6716 Z M11.8242,14.6786 L8.3152,19.3086 L6.3272,17.3416 L4.9212,18.7636 L7.7202,21.5336 C7.9072,21.7186 8.1602,21.8226 8.4232,21.8226 C8.4462,21.8226 8.4702,21.8216 8.4942,21.8196 C8.7812,21.7986 9.0462,21.6566 9.2202,21.4256 L13.4182,15.8856 L11.8242,14.6786 Z M11.8242,5.3486 L8.3152,9.9786 L6.3272,8.0116 L4.9212,9.4336 L7.7202,12.2036 C7.9072,12.3886 8.1602,12.4926 8.4232,12.4926 C8.4462,12.4926 8.4702,12.4916 8.4942,12.4896 C8.7812,12.4686 9.0462,12.3266 9.2202,12.0956 L13.4182,6.5556 L11.8242,5.3486 Z M15.2462,29.3666 L26.6162,29.3666 L26.6162,27.3666 L15.2462,27.3666 L15.2462,29.3666 Z M15.2462,20.6196 L26.6162,20.6196 L26.6162,18.6196 L15.2462,18.6196 L15.2462,20.6196 Z M15.2462,10.9976 L26.6162,10.9976 L26.6162,8.9976 L15.2462,8.9976 L15.2462,10.9976 Z M4.0002,34.3646 L24.8672,34.3646 L24.8672,36.3646 L3.0002,36.3646 C2.4472,36.3646 2.0002,35.9166 2.0002,35.3646 L2.0002,2.9996 C2.0002,2.4476 2.4472,1.9996 3.0002,1.9996 L29.2402,1.9996 C29.7932,1.9996 30.2402,2.4476 30.2402,2.9996 L30.2402,23.9936 L28.2402,23.9936 L28.2402,3.9996 L4.0002,3.9996 L4.0002,34.3646 Z" id="AWS-Trusted-Advisor_checklist-security_Resource-Icon_light-bg" fill="#B0084D"></path>
    </g>
</svg>