<?xml version="1.0" encoding="UTF-8"?>
<svg width="48px" height="48px" viewBox="0 0 48 48" version="1.1" xmlns="http://www.w3.org/2000/svg" xmlns:xlink="http://www.w3.org/1999/xlink">
    <title>Icon-Resource/Managment-Governance/Res_AWS-Trusted-Advisor_Checklist-Performance_48_Light</title>
    <g id="Icon-Resource/Managment-Governance/Res_AWS-Trusted-Advisor_Checklist-Performance_48" stroke="none" stroke-width="1" fill="none" fill-rule="evenodd">
        <path d="M40.501,42.375 L42.501,42.375 L42.501,34.5 L40.501,34.5 L40.501,42.375 Z M36.126,42.375 L38.126,42.375 L38.126,38.875 L36.126,38.875 L36.126,42.375 Z M31.751,42.375 L33.751,42.375 L33.751,37.125 L31.751,37.125 L31.751,42.375 Z M27.376,42.375 L29.376,42.375 L29.376,38.875 L27.376,38.875 L27.376,42.375 Z M32.779,34.808 L36.611,37.107 C36.844,37.246 37.124,37.284 37.385,37.216 C37.646,37.146 37.868,36.973 38,36.735 L41.547,30.353 L41.714,31.166 L43.673,30.762 L42.966,27.334 C42.853,26.794 42.335,26.45 41.784,26.557 L38.356,27.263 L38.76,29.222 L40.033,28.96 L36.754,34.86 L33.265,32.768 C32.932,32.567 32.518,32.578 32.196,32.793 L26.946,36.293 L28.055,37.957 L32.779,34.808 Z M25.876,44 L44.001,44 L44.001,25.875 L25.876,25.875 L25.876,44 Z M46.001,24.875 L46.001,45 C46.001,45.553 45.553,46 45.001,46 L24.876,46 C24.323,46 23.876,45.553 23.876,45 L23.876,24.875 C23.876,24.322 24.323,23.875 24.876,23.875 L45.001,23.875 C45.553,23.875 46.001,24.322 46.001,24.875 L46.001,24.875 Z M6.328,26.68 L4.922,28.102 L7.722,30.872 C7.91,31.058 8.163,31.161 8.426,31.161 C8.449,31.161 8.472,31.16 8.497,31.158 C8.784,31.138 9.049,30.995 9.222,30.766 L13.423,25.224 L11.829,24.015 L8.318,28.647 L6.328,26.68 Z M11.829,14.682 L8.318,19.314 L6.328,17.346 L4.922,18.768 L7.722,21.539 C7.91,21.725 8.163,21.828 8.426,21.828 C8.449,21.828 8.472,21.827 8.497,21.825 C8.784,21.805 9.049,21.662 9.222,21.433 L13.423,15.891 L11.829,14.682 Z M11.829,5.349 L8.318,9.98 L6.328,8.013 L4.922,9.435 L7.722,12.205 C7.91,12.391 8.163,12.494 8.426,12.494 C8.449,12.494 8.472,12.493 8.497,12.491 C8.784,12.471 9.049,12.328 9.222,12.099 L13.423,6.558 L11.829,5.349 Z M15.251,29.375 L22.251,29.375 L22.251,27.375 L15.251,27.375 L15.251,29.375 Z M15.251,20.625 L26.626,20.625 L26.626,18.625 L15.251,18.625 L15.251,20.625 Z M15.251,11 L26.626,11 L26.626,9 L15.251,9 L15.251,11 Z M4,34.375 L22.251,34.375 L22.251,36.375 L3,36.375 C2.447,36.375 2,35.928 2,35.375 L2,3 C2,2.447 2.447,2 3,2 L29.251,2 C29.803,2 30.251,2.447 30.251,3 L30.251,22.25 L28.251,22.25 L28.251,4 L4,4 L4,34.375 Z" id="AWS-Trusted-Advisor_checklist-performance_Resource-Icon_dark-bg" fill="#B0084D"></path>
    </g>
</svg>