<?xml version="1.0" encoding="UTF-8"?>
<svg width="48px" height="48px" viewBox="0 0 48 48" version="1.1" xmlns="http://www.w3.org/2000/svg" xmlns:xlink="http://www.w3.org/1999/xlink">
    <title>Icon-Resource/Managment-Governance/Res_AWS-Trusted-Advisor_Checklist_48_Light</title>
    <g id="Icon-Resource/Managment-Governance/Res_AWS-Trusted-Advisor_Checklist_48" stroke="none" stroke-width="1" fill="none" fill-rule="evenodd">
        <path d="M13.2849,41.291 L9.7889,37.795 L11.2029,36.381 L13.8839,39.062 L18.4359,32.992 L20.0359,34.191 L14.7919,41.184 C14.6179,41.416 14.3519,41.561 14.0629,41.581 C14.0389,41.583 14.0149,41.584 13.9919,41.584 C13.7269,41.584 13.4729,41.479 13.2849,41.291 L13.2849,41.291 Z M13.2849,27.307 L9.7889,23.811 L11.2029,22.396 L13.8839,25.077 L18.4359,19.008 L20.0359,20.207 L14.7919,27.199 C14.6179,27.432 14.3519,27.576 14.0629,27.597 C14.0389,27.599 14.0149,27.6 13.9919,27.6 C13.7269,27.6 13.4729,27.495 13.2849,27.307 L13.2849,27.307 Z M13.2849,13.321 L9.7889,9.825 L11.2029,8.411 L13.8839,11.092 L18.4359,5.022 L20.0359,6.222 L14.7919,13.214 C14.6179,13.446 14.3519,13.591 14.0629,13.611 C14.0389,13.613 14.0149,13.614 13.9919,13.614 C13.7269,13.614 13.4729,13.51 13.2849,13.321 L13.2849,13.321 Z M22.7329,39.836 L37.5919,39.836 L37.5919,37.836 L22.7329,37.836 L22.7329,39.836 Z M22.7329,26.726 L37.5919,26.726 L37.5919,24.726 L22.7329,24.726 L22.7329,26.726 Z M22.7329,12.74 L37.5919,12.74 L37.5919,10.74 L22.7329,10.74 L22.7329,12.74 Z M7.9999,43.954 L40.9619,43.954 L40.9619,4 L7.9999,4 L7.9999,43.954 Z M41.9619,2 L6.9999,2 C6.4469,2 5.9999,2.447 5.9999,3 L5.9999,44.954 C5.9999,45.507 6.4469,45.954 6.9999,45.954 L41.9619,45.954 C42.5139,45.954 42.9619,45.507 42.9619,44.954 L42.9619,3 C42.9619,2.447 42.5139,2 41.9619,2 L41.9619,2 Z" id="AWS-Trusted-Advisor_checklist_Resource-Icon_light-bg" fill="#B0084D"></path>
    </g>
</svg>