<?xml version="1.0" encoding="UTF-8"?>
<svg width="74px" height="74px" viewBox="0 0 74 74" version="1.1" xmlns="http://www.w3.org/2000/svg" xmlns:xlink="http://www.w3.org/1999/xlink">
    <title>Icon-Architecture-Category/48/Business-Applications_48</title>
    <defs>
        <linearGradient x1="0%" y1="100%" x2="100%" y2="0%" id="linearGradient-1">
            <stop stop-color="#BD0816" offset="0%"></stop>
            <stop stop-color="#FF5252" offset="100%"></stop>
        </linearGradient>
    </defs>
    <g id="Icon-Architecture-Category/48/Business-Applications_48" stroke="none" stroke-width="1" fill="none" fill-rule="evenodd">
        <rect id="Rectangle" fill="url(#linearGradient-1)" x="5" y="5" width="64" height="64"></rect>
        <rect id="#879196-Border-Copy-5" stroke="#879196" stroke-width="2" x="1" y="1" width="72" height="72"></rect>
        <g id="Icon-Category/48/Business-Application_48" transform="translate(13.000000, 13.000000)" fill="#FFFFFF">
            <path d="M40.5195939,44 L7.4805939,44 L5.0815939,41 L42.9185939,41 L40.5195939,44 Z M7.9995939,21.158 C7.9995939,20.52 8.5195939,20 9.1585939,20 L11.9995939,20 L11.9995939,39 L7.9995939,39 L7.9995939,21.158 Z M15.9995939,16 C16.5525939,16 16.9995939,15.552 16.9995939,15 L16.9995939,11 L19.9995939,11 L19.9995939,39 L13.9995939,39 L13.9995939,16 L15.9995939,16 Z M21.9995939,39 L25.9995939,39 L25.9995939,8 L21.9995939,8 L21.9995939,39 Z M30.9995939,11 L30.9995939,15 C30.9995939,15.552 31.4475939,16 31.9995939,16 L33.9995939,16 L33.9995939,39 L27.9995939,39 L27.9995939,11 L30.9995939,11 Z M38.8415939,20 C39.4805939,20 39.9995939,20.52 39.9995939,21.158 L39.9995939,39 L35.9995939,39 L35.9995939,20 L38.8415939,20 Z M45.9015939,39.567 C45.7345939,39.22 45.3845939,39 44.9995939,39 L41.9995939,39 L41.9995939,21.158 C41.9995939,19.417 40.5825939,18 38.8415939,18 L35.9995939,18 L35.9995939,15 C35.9995939,14.448 35.5525939,14 34.9995939,14 L32.9995939,14 L32.9995939,10 C32.9995939,9.448 32.5525939,9 31.9995939,9 L27.9995939,9 L27.9995939,7 C27.9995939,6.448 27.5525939,6 26.9995939,6 L24.9995939,6 L24.9995939,2 L22.9995939,2 L22.9995939,6 L20.9995939,6 C20.4475939,6 19.9995939,6.448 19.9995939,7 L19.9995939,9 L15.9995939,9 C15.4475939,9 14.9995939,9.448 14.9995939,10 L14.9995939,14 L12.9995939,14 C12.4475939,14 11.9995939,14.448 11.9995939,15 L11.9995939,18 L9.1585939,18 C7.4165939,18 5.9995939,19.417 5.9995939,21.158 L5.9995939,39 L2.9995939,39 C2.6155939,39 2.2655939,39.22 2.0985939,39.567 C1.9325939,39.913 1.9785939,40.325 2.2185939,40.625 L6.2185939,45.625 C6.4095939,45.862 6.6965939,46 6.9995939,46 L40.9995939,46 C41.3035939,46 41.5905939,45.862 41.7815939,45.625 L45.7815939,40.625 C46.0215939,40.325 46.0675939,39.913 45.9015939,39.567 L45.9015939,39.567 Z" id="Business-Application_Category-Icon_48_Squid--"></path>
        </g>
    </g>
</svg>