<?xml version="1.0" encoding="UTF-8"?>
<svg width="64px" height="64px" viewBox="0 0 64 64" version="1.1" xmlns="http://www.w3.org/2000/svg" xmlns:xlink="http://www.w3.org/1999/xlink">
    <title>Icon-Architecture/48/Arch_Amazon-Chime-SDK_48</title>
    <defs>
        <linearGradient x1="0%" y1="100%" x2="100%" y2="0%" id="linearGradient-1">
            <stop stop-color="#BD0816" offset="0%"></stop>
            <stop stop-color="#FF5252" offset="100%"></stop>
        </linearGradient>
    </defs>
    <g id="Icon-Architecture/48/Arch_Amazon-Chime-SDK_48" stroke="none" stroke-width="1" fill="none" fill-rule="evenodd">
        <g id="Rectangle" fill="url(#linearGradient-1)">
            <rect x="0" y="0" width="64" height="64"></rect>
        </g>
        <g id="Icon-Service/48/Amazon-Chime-SDK_48" transform="translate(8.000000, 8.000000)" fill="#FFFFFF">
            <path d="M26,30.569 L23.62,28.951 L20,28.951 L20,27 L23,27 L23,24.574 L18.102,21.716 L16,23.468 L16,27.5 L19.6,30.2 L18.4,31.799 L14.4,28.799 C14.148,28.611 14,28.315 14,28 L14,23.15 L11.694,21.675 L7,24.478 L7,27.255 L9.162,28.69 L11,27.465 L11,25 L13,25 L13,28 C13,28.334 12.833,28.646 12.555,28.832 L10,30.535 L10,32 C10,32.334 9.833,32.646 9.555,32.832 L6.555,34.832 L5.445,33.168 L8,31.465 L8,30.319 L6.17,29.104 L4,30.43 L4,35.189 L6.417,36.296 C6.772,36.459 7,36.814 7,37.205 L7,40.771 L11.993,43.823 L14,42.613 L14,37.144 L10.625,39.78 L9.375,38.219 L13.921,34.582 L13.921,33.187 L12.113,32.103 L13.143,30.388 L15.436,31.763 C15.736,31.944 16,32.27 16,32.621 L16,39 L19,39 L19,41 L16,41 L16,42.597 L17.997,43.834 L23,40.767 L23,37.462 L19.444,35.025 L20.556,33.361 L24.459,35.97 L26,35.332 L26,30.569 Z M28,30.04 L28,36 C28,36.404 27.757,36.769 27.383,36.923 L25.091,37.874 L25.091,41.332 C25.091,41.682 24.907,42.007 24.606,42.188 L18.516,45.856 C18.201,46.047 17.805,46.048 17.488,45.859 L14.935,44.338 L12.532,45.846 C12.369,45.948 12.185,46.0000039 12,46.0000039 C11.819,46.0000039 11.639,45.951 11.479,45.853 L5.479,42.185 C5.182,42.003 5,41.68 5,41.332 L5,37.847 L2.583,36.739 C2.228,36.576 2,36.221 2,35.83 L2,29.87 C2,29.522 2.182,29.198 2.479,29.017 L5,27.475 L5,23.91 C5,23.558 5.186,23.232 5.487,23.051 L11.199,19.641 C11.525,19.446 11.933,19.454 12.251,19.657 L15.192,21.538 L17.359,19.732 C17.685,19.462 18.143,19.424 18.504,19.636 L24.504,23.136 C24.812,23.315 25,23.644 25,24 L25,27.47 L27.562,29.213 C27.836,29.399 28,29.709 28,30.04 L28,30.04 Z M18,17 L20,17 L20,7 L18,7 L18,17 Z M23,20 L25,20 L25,10 L23,10 L23,20 Z M28,24 L30,24 L30,7 L28,7 L28,24 Z M38,16 L40,16 L40,10 L38,10 L38,16 Z M13,17 L15,17 L15,11 L13,11 L13,17 Z M33,19 L35,19 L35,11 L33,11 L33,19 Z M34,38 C33.884,38 33.767,37.98 33.653,37.938 C33.261,37.792 33,37.418 33,37 L33,31.048 L30,31 L30.001,29 L34.001,29 C34.553,29 35,29.497 35,30.048 L35,34.297 L39.241,29.349 C39.431,29.127 39.708,29 40,29 L42,29 C42.9,29 44,28.077 44,27 L44,5.828 C44,4.82 43.239,4 42.305,4 L10.765,4 C9.792,4 9,4.82 9,5.828 L9,18 L7,18 L7,5.828 C7,3.717 8.688,2 10.765,2 L42.305,2 C44.343,2 46,3.717 46,5.828 L46,27 C46,29.093 44.094,31 42,31 L40.46,31 L34.759,37.651 C34.565,37.877 34.286,38 34,38 L34,38 Z" id="Fill-1"></path>
        </g>
    </g>
</svg>