<?xml version="1.0" encoding="UTF-8"?>
<svg width="48px" height="48px" viewBox="0 0 48 48" version="1.1" xmlns="http://www.w3.org/2000/svg" xmlns:xlink="http://www.w3.org/1999/xlink">
    <title>Icon-Resource/Business-Applications/Res_Amazon-Simple-Email-Service_Email_48_Light</title>
    <g id="Icon-Resource/Business-Applications/Res_Amazon-Simple-Email-Service_Email_48" stroke="none" stroke-width="1" fill="none" fill-rule="evenodd">
        <path d="M10.3032,14.3134 C10.2782,14.4964 10.2652,14.7174 10.2652,14.9744 L10.2652,15.1304 C10.2652,15.1854 10.2722,15.2434 10.2842,15.3044 C10.0022,15.6104 9.6842,15.7644 9.3282,15.7644 C8.7162,15.7644 8.4102,15.1394 8.4102,13.8904 C8.4102,12.8374 8.5612,11.9674 8.8612,11.2814 C9.1602,10.5964 9.5312,10.2524 9.9722,10.2524 C10.2172,10.2524 10.4982,10.3634 10.8172,10.5844 L10.3032,14.3134 Z M5.2692,20.1734 C6.1752,20.7244 7.2652,21.0004 8.5382,21.0004 C9.5802,21.0004 10.5102,20.7914 11.3312,20.3754 L11.3312,18.7584 C10.4372,19.0884 9.5802,19.2544 8.7592,19.2544 C7.4122,19.2544 6.3742,18.8164 5.6462,17.9404 C4.9162,17.0664 4.5532,15.7944 4.5532,14.1294 C4.5532,12.7464 4.7912,11.4994 5.2692,10.3914 C5.7462,9.2824 6.4262,8.3974 7.3092,7.7364 C8.1902,7.0754 9.1822,6.7454 10.2842,6.7454 C11.7052,6.7454 12.7852,7.1464 13.5272,7.9474 C14.2672,8.7504 14.6382,9.9224 14.6382,11.4654 C14.6382,12.2124 14.5552,12.9114 14.3892,13.5604 C14.2252,14.2094 13.9912,14.7444 13.6922,15.1674 C13.3922,15.5894 13.0762,15.8014 12.7452,15.8014 C12.5742,15.8014 12.4402,15.7364 12.3422,15.6084 C12.2432,15.4804 12.1952,15.3044 12.1952,15.0844 C12.1952,14.8894 12.2062,14.7174 12.2322,14.5704 L13.0212,8.8574 L11.3132,8.8574 L11.0932,9.5004 C10.6392,8.8884 10.0822,8.5824 9.4202,8.5824 C8.8822,8.5824 8.3652,8.8174 7.8682,9.2894 C7.3722,9.7614 6.9652,10.4214 6.6472,11.2724 C6.3282,12.1254 6.1692,13.0634 6.1692,14.0924 C6.1692,15.1704 6.3652,15.9974 6.7572,16.5724 C7.1492,17.1484 7.7242,17.4364 8.4842,17.4364 C8.8392,17.4364 9.2092,17.3444 9.5962,17.1614 C9.9812,16.9774 10.3212,16.7264 10.6152,16.4074 C10.8102,16.7264 11.0742,16.9704 11.4052,17.1414 C11.7352,17.3134 12.1152,17.3994 12.5432,17.3994 C13.2662,17.3994 13.9302,17.1544 14.5372,16.6644 C15.1432,16.1744 15.6232,15.4774 15.9792,14.5704 C16.3342,13.6644 16.5122,12.6234 16.5122,11.4474 C16.5122,10.1124 16.2732,8.9644 15.7952,8.0034 C15.3172,7.0424 14.6162,6.3014 13.6922,5.7804 C12.7672,5.2594 11.6562,5.0004 10.3582,5.0004 C8.9252,5.0004 7.6112,5.3784 6.4172,6.1394 C5.2242,6.8974 4.2712,7.9724 3.5612,9.3624 C2.8502,10.7524 2.4952,12.3544 2.4952,14.1664 C2.4952,15.5874 2.7312,16.8054 3.2022,17.8214 C3.6742,18.8384 4.3632,19.6224 5.2692,20.1734 L5.2692,20.1734 Z M23.3542,31.9804 C23.5392,32.1344 23.7672,32.2114 23.9942,32.2114 C24.2222,32.2114 24.4492,32.1344 24.6352,31.9804 L27.6682,29.4534 L42.2252,41.5844 L5.7632,41.5844 L20.3222,29.4524 L23.3542,31.9804 Z M29.2312,28.1504 L43.9892,15.8524 L43.9892,40.4484 L29.2312,28.1504 Z M44.9892,12.7164 L18.5452,12.7164 L18.5452,14.7164 L42.2252,14.7164 L23.9942,29.9104 L13.3682,21.0494 L12.0872,22.5844 L18.7592,28.1494 L4.0002,40.4484 L4.0002,22.0704 L2.0002,22.0704 L2.0002,42.5844 C2.0002,43.1364 2.4482,43.5844 3.0002,43.5844 L44.9892,43.5844 C45.5412,43.5844 45.9892,43.1364 45.9892,42.5844 L45.9892,13.7164 C45.9892,13.1644 45.5412,12.7164 44.9892,12.7164 L44.9892,12.7164 Z" id="Amazon-Amazon-Simple-Email-Service-Email_Resource-Icon_light-bg" fill="#BF0816"></path>
    </g>
</svg>