<?xml version="1.0" encoding="UTF-8"?>
<svg width="48px" height="48px" viewBox="0 0 48 48" version="1.1" xmlns="http://www.w3.org/2000/svg" xmlns:xlink="http://www.w3.org/1999/xlink">
    <title>Icon-Resource/Application-Integration/Res_Amazon-EventBridge_Custom-Event-Bus_48_Light</title>
    <g id="Icon-Resource/Application-Integration/Res_Amazon-EventBridge_Custom-Event-Bus_48" stroke="none" stroke-width="1" fill="none" fill-rule="evenodd">
        <path d="M43.717,22.782 L42.433,21.233 L41.329,22.147 L42.613,23.697 L43.717,22.782 Z M26.847,36.768 L25.563,35.22 L23.053,37.3 L22.575,39.003 L24.337,38.849 L26.847,36.768 Z M27.102,33.942 L28.387,35.492 L41.074,24.973 L39.79,23.425 L27.102,33.942 Z M45.764,23.683 L25.373,40.588 C25.216,40.718 25.024,40.797 24.821,40.814 L21.309,41.121 C21.28,41.124 21.251,41.125 21.222,41.125 C20.926,41.125 20.643,40.993 20.452,40.763 C20.242,40.511 20.17,40.171 20.259,39.855 L21.211,36.46 C21.266,36.263 21.379,36.09 21.535,35.96 L41.926,19.055 C42.131,18.886 42.396,18.806 42.657,18.829 C42.922,18.854 43.165,18.982 43.334,19.186 L45.895,22.275 C46.247,22.701 46.189,23.331 45.764,23.683 L45.764,23.683 Z M31.1,6.91 L29.26,6.125 L26.673,12.19 L28.513,12.975 L31.1,6.91 Z M39.08,13.67 L37.879,12.07 L32.572,16.054 L33.774,17.654 L39.08,13.67 Z M13.466,43.154 L15.306,43.939 L17.893,37.874 L16.053,37.089 L13.466,43.154 Z M5.486,36.394 L6.687,37.994 L11.993,34.01 L10.792,32.41 L5.486,36.394 Z M8.604,25.755 L2,26.591 L2.252,28.575 L8.856,27.739 L8.604,25.755 Z M10.081,18.901 L3.95,16.364 L3.185,18.212 L9.316,20.749 L10.081,18.901 Z M14.832,13.688 L10.817,8.459 L9.231,9.678 L13.246,14.907 L14.832,13.688 Z M21.581,11.521 L20.756,5 L18.772,5.252 L19.597,11.773 L21.581,11.521 Z M16.71,33.125 L12.003,24.972 C11.824,24.663 11.824,24.282 12.003,23.972 L16.71,15.82 C16.889,15.511 17.219,15.32 17.576,15.32 L26.989,15.32 C27.347,15.32 27.677,15.511 27.856,15.82 L32.563,23.972 L30.83,24.972 L26.412,17.32 L18.154,17.32 L14.024,24.472 L18.154,31.625 L22.033,31.625 L22.033,33.625 L17.576,33.625 C17.219,33.625 16.889,33.434 16.71,33.125 L16.71,33.125 Z" id="Amazon-EventBridge_Custom-Event-Bus_Resource-Icon_light-bg" fill="#B0084D"></path>
    </g>
</svg>