<?xml version="1.0" encoding="UTF-8"?>
<svg width="48px" height="48px" viewBox="0 0 48 48" version="1.1" xmlns="http://www.w3.org/2000/svg" xmlns:xlink="http://www.w3.org/1999/xlink">
    <title>Icon-Resource/Application-Integration/Res_Amazon-Simple-Notification-Service_Queue_48_Light</title>
    <g id="Icon-Resource/Application-Integration/Res_Amazon-Simple-Notification-Service_Queue_48" stroke="none" stroke-width="1" fill="none" fill-rule="evenodd">
        <path d="M37.449,22.261 L37.449,26.221 L35.026,24.207 L37.449,22.261 Z M37.81,29.121 C37.993,29.273 38.22,29.352 38.449,29.352 C38.594,29.352 38.738,29.321 38.874,29.257 C39.224,29.092 39.449,28.74 39.449,28.352 L39.449,20.176 C39.449,19.791 39.228,19.441 38.882,19.275 C38.535,19.108 38.123,19.156 37.823,19.397 L32.819,23.414 C32.585,23.602 32.448,23.885 32.4449503,24.185 C32.442,24.486 32.575,24.771 32.806,24.963 L37.81,29.121 Z M10.527,22.307 L12.951,24.322 L10.527,26.267 L10.527,22.307 Z M9.095,29.253 C9.232,29.32 9.38,29.352 9.527,29.352 C9.751,29.352 9.972,29.277 10.153,29.132 L15.158,25.115 C15.392,24.927 15.529,24.644 15.5320497,24.344 C15.535,24.043 15.402,23.758 15.171,23.566 L10.166,19.407 C9.868,19.16 9.453,19.107 9.102,19.271 C8.752,19.436 8.527,19.788 8.527,20.176 L8.527,28.352 C8.527,28.737 8.748,29.087 9.095,29.253 L9.095,29.253 Z M28.368,34.027 L30.368,34.027 L30.368,14.747 L28.368,14.747 L28.368,34.027 Z M23.121,34.027 L25.121,34.027 L25.121,14.747 L23.121,14.747 L23.121,34.027 Z M17.711,34.027 L19.711,34.027 L19.711,14.747 L17.711,14.747 L17.711,34.027 Z M3.999,35.773 L43.977,35.773 L43.977,13.001 L3.999,13.001 L3.999,35.773 Z M44.977,11 L3,11 C2.447,11 2,11.448 2,12 L2,36.773 C2,37.325 2.447,37.773 3,37.773 L44.977,37.773 C45.53,37.773 45.977,37.325 45.977,36.773 L45.977,12 C45.977,11.448 45.53,11 44.977,11 L44.977,11 Z" id="Amazon-Simple-Notification-Service_Queue" fill="#B0084D"></path>
    </g>
</svg>