<?xml version="1.0" encoding="UTF-8"?>
<svg width="48px" height="48px" viewBox="0 0 48 48" version="1.1" xmlns="http://www.w3.org/2000/svg" xmlns:xlink="http://www.w3.org/1999/xlink">
    <title>Icon-Resource/Networking-and-Content-Delivery/Res_AWS-Amazon-CloudFront_Download-Distribution_48_Light</title>
    <g id="Icon-Resource/Networking-and-Content-Delivery/Res_AWS-Amazon-CloudFront_Download-Distribution_48" stroke="none" stroke-width="1" fill="none" fill-rule="evenodd">
        <path d="M15.9581,27.6694 L17.3721,29.0834 L15.9581,30.4974 L14.5441,29.0834 L15.9581,27.6694 Z M18.8531,30.5644 L21.8131,33.5244 L20.3991,34.9394 L17.4381,31.9784 L18.8531,30.5644 Z M29.1501,30.5644 L30.5641,31.9784 L27.6041,34.9394 L26.1891,33.5244 L29.1501,30.5644 Z M32.0451,27.6694 L33.4591,29.0834 L32.0451,30.4974 L30.6311,29.0834 L32.0451,27.6694 Z M25.0011,35.2984 L26.1221,36.4194 L24.7081,37.8344 C24.5131,38.0294 24.2571,38.1274 24.0011,38.1274 C23.7451,38.1274 23.4891,38.0294 23.2941,37.8344 L21.8801,36.4194 L23.0011,35.2984 L23.0011,34.2524 L25.0011,34.2524 L25.0011,35.2984 Z M23.0011,16.4624 L25.0011,16.4624 L25.0011,12.9044 L23.0011,12.9044 L23.0011,16.4624 Z M23.0011,21.7994 L25.0011,21.7994 L25.0011,18.2414 L23.0011,18.2414 L23.0011,21.7994 Z M23.0011,27.1364 L25.0011,27.1364 L25.0011,23.5784 L23.0011,23.5784 L23.0011,27.1364 Z M23.0011,32.4734 L25.0011,32.4734 L25.0011,28.9154 L23.0011,28.9154 L23.0011,32.4734 Z M23.0011,11.1254 L25.0011,11.1254 L25.0011,9.1254 L23.0011,9.1254 L23.0011,11.1254 Z M24.0011,44.0024 C12.9731,44.0024 4.0001,35.0294 4.0001,24.0014 C4.0001,12.9724 12.9731,4.0004 24.0011,4.0004 C35.0291,4.0004 44.0021,12.9724 44.0021,24.0014 C44.0021,35.0294 35.0291,44.0024 24.0011,44.0024 L24.0011,44.0024 Z M24.0011,2.0004 C11.8691,2.0004 2.0001,11.8694 2.0001,24.0014 C2.0001,36.1324 11.8691,46.0024 24.0011,46.0024 C36.1331,46.0024 46.0021,36.1324 46.0021,24.0014 C46.0021,11.8694 36.1331,2.0004 24.0011,2.0004 L24.0011,2.0004 Z" id="AWS-Amazon-CloudFront_Download-distribution_Resource-Icon_light-bg" fill="#4D27AA"></path>
    </g>
</svg>