<?xml version="1.0" encoding="UTF-8"?>
<svg width="48px" height="48px" viewBox="0 0 48 48" version="1.1" xmlns="http://www.w3.org/2000/svg" xmlns:xlink="http://www.w3.org/1999/xlink">
    <title>Icon-Resource/Networking-and-Content-Delivery/Res_AWS-Cloud-Map-Namespace_48_Light</title>
    <g id="Icon-Resource/Networking-and-Content-Delivery/Res_AWS-Cloud-Map-Namespace_48" stroke="none" stroke-width="1" fill="none" fill-rule="evenodd">
        <path d="M26.994,42.01925 C25.467,42.83525 24.383,43.58925 23.994,43.87225 C23.811,43.73925 23.464,43.49525 22.994,43.19225 L22.994,37.94625 L26.994,37.94625 L26.994,42.01925 Z M15.994,39.97125 C15.4,39.80325 14.789,39.65925 14.163,39.54625 C12.775,39.29625 11.518,38.93525 10.388,38.48625 L15.994,32.82225 L15.994,39.97125 Z M4.698,33.68225 C4.24,32.71225 4,31.65425 4,30.52425 C4,27.77325 5.062,25.94325 6.091,24.17125 C6.519,23.43325 6.932,22.70925 7.264,21.94625 L15.994,21.94625 L15.994,23.09725 L4.698,33.68225 Z M4.651,11.65525 C5.459,10.67525 9.186,6.14525 10.448,4.47325 C12.121,6.18725 14.047,7.25325 15.994,7.58425 L15.994,14.94625 L7.051,14.94625 C6.235,13.22625 5.096,12.06625 4.651,11.65525 L4.651,11.65525 Z M22.994,5.20625 C23.333,4.87025 23.667,4.50925 23.994,4.09925 C24.941,5.28625 25.932,6.15925 26.994,6.75325 L26.994,19.94625 L22.994,19.94625 L22.994,5.20625 Z M43.913,29.34125 C43.958,29.71825 43.988,30.10725 43.988,30.52425 C43.988,35.03025 40.188,38.40325 33.825,39.54625 C32.075,39.86125 30.43,40.42725 28.994,41.05125 L28.994,36.94625 C28.994,36.39425 28.547,35.94625 27.994,35.94625 L21.994,35.94625 C21.441,35.94625 20.994,36.39425 20.994,36.94625 L20.994,42.01925 C20.125,41.55525 19.111,41.07325 17.994,40.64225 L17.994,30.39025 C17.994,29.98525 17.749,29.62025 17.375,29.46525 C16.997,29.31225 16.568,29.39925 16.283,29.68725 L8.482,37.56625 C7.408,36.94125 6.513,36.20725 5.811,35.37925 L17.678,24.26025 C17.88,24.07225 17.994,23.80725 17.994,23.53125 L17.994,20.94625 C17.994,20.39425 17.547,19.94625 16.994,19.94625 L7.854,19.94625 C7.911,19.58425 7.95,19.21325 7.95,18.81625 C7.95,18.15525 7.87,17.53325 7.74,16.94625 L16.994,16.94625 C17.547,16.94625 17.994,16.49825 17.994,15.94625 L17.994,7.66525 C19.066,7.57425 20.06,7.27625 20.994,6.75325 L20.994,20.94625 C20.994,21.49825 21.441,21.94625 21.994,21.94625 L27.994,21.94625 C28.547,21.94625 28.994,21.49825 28.994,20.94625 L28.994,7.51625 C29.548,7.63925 30.12,7.70625 30.719,7.70625 C33.091,7.70625 35.503,6.56125 37.54,4.47325 C38.803,6.14625 42.53,10.67625 43.335,11.65325 C43.085,11.88125 42.616,12.34525 42.11,13.00625 C42.73,13.28725 43.31,13.63825 43.844,14.04925 C44.354,13.41025 44.777,13.04825 44.784,13.04125 C45.143,12.74925 45.377,12.31925 45.425,11.85425 C45.47,11.39425 45.327,10.92525 45.031,10.56625 C44.401,9.80525 39.99,4.44325 38.977,3.05525 C38.669,2.63225 38.193,2.37225 37.682,2.34025 C37.157,2.30125 36.649,2.50325 36.286,2.89125 C34.589,4.70625 32.611,5.70625 30.719,5.70625 C28.631,5.70625 27.035,4.78725 25.384,2.62925 C24.739,1.79025 23.249,1.79025 22.604,2.62925 C20.953,4.78725 19.357,5.70625 17.269,5.70625 C15.377,5.70625 13.399,4.70625 11.701,2.89025 C11.33,2.49425 10.817,2.29025 10.316,2.33925 C9.795,2.37225 9.319,2.63225 9.011,3.05525 C7.998,4.44325 3.587,9.80525 2.955,10.56825 C2.661,10.92325 2.519,11.39225 2.564,11.85325 C2.609,12.31425 2.841,12.74625 3.195,13.03525 C3.223,13.05725 5.95,15.37325 5.95,18.81625 C5.95,20.42925 5.249,21.63825 4.359,23.16925 C3.308,24.98025 2,27.23425 2,30.52425 C2,36.07725 6.415,40.18625 13.809,41.51525 C18.718,42.39625 22.889,45.54025 22.926,45.56925 C23.229,45.80325 23.608,45.93225 23.994,45.93225 C24.378,45.93225 24.756,45.80425 25.057,45.57325 C25.098,45.54125 29.273,42.39525 34.179,41.51525 C41.573,40.18625 45.988,36.07725 45.988,30.52425 C45.988,29.07925 45.728,27.84225 45.356,26.74725 C44.906,27.62525 44.415,28.50325 43.913,29.34125 L43.913,29.34125 Z M22.994,30.94625 L26.994,30.94625 L26.994,26.94625 L22.994,26.94625 L22.994,30.94625 Z M27.994,24.94625 L21.994,24.94625 C21.441,24.94625 20.994,25.39425 20.994,25.94625 L20.994,31.94625 C20.994,32.49825 21.441,32.94625 21.994,32.94625 L27.994,32.94625 C28.547,32.94625 28.994,32.49825 28.994,31.94625 L28.994,25.94625 C28.994,25.39425 28.547,24.94625 27.994,24.94625 L27.994,24.94625 Z M38.835,18.97625 C37.84,18.97625 37.03,19.78625 37.03,20.78125 C37.03,21.77725 37.84,22.58625 38.835,22.58625 C39.83,22.58625 40.64,21.77725 40.64,20.78125 C40.64,19.78625 39.83,18.97625 38.835,18.97625 L38.835,18.97625 Z M38.835,24.58625 C36.737,24.58625 35.03,22.87925 35.03,20.78125 C35.03,18.68325 36.737,16.97625 38.835,16.97625 C40.932,16.97625 42.64,18.68325 42.64,20.78125 C42.64,22.87925 40.932,24.58625 38.835,24.58625 L38.835,24.58625 Z M38.526,15.72825 C35.643,15.72825 33.299,18.07325 33.299,20.95625 C33.299,23.16425 36.559,28.35225 38.526,31.20225 C40.493,28.35225 43.755,23.16425 43.755,20.95625 C43.755,18.07325 41.409,15.72825 38.526,15.72825 L38.526,15.72825 Z M38.526,33.93225 L38.526,33.93225 C38.207,33.93225 37.906,33.78025 37.719,33.52225 C37.061,32.62125 31.299,24.61625 31.299,20.95625 C31.299,16.97025 34.541,13.72825 38.526,13.72825 C42.512,13.72825 45.755,16.97025 45.755,20.95625 C45.755,24.61625 39.991,32.62125 39.334,33.52225 C39.145,33.78025 38.846,33.93225 38.526,33.93225 L38.526,33.93225 Z" id="AWS-Cloud-Map-Namespace_Resource-Icon_light-bg" fill="#4D27AA"></path>
    </g>
</svg>