<?xml version="1.0" encoding="UTF-8"?>
<svg width="48px" height="48px" viewBox="0 0 48 48" version="1.1" xmlns="http://www.w3.org/2000/svg" xmlns:xlink="http://www.w3.org/1999/xlink">
    <title>Icon-Resource/Networking-and-Content-Delivery/Res_AWS-Cloud-Map_Service_48_Light</title>
    <g id="Icon-Resource/Networking-and-Content-Delivery/Res_AWS-Cloud-Map_Service_48" stroke="none" stroke-width="1" fill="none" fill-rule="evenodd">
        <path d="M4,33 L4,5 L24,5 L24,7 L7,7 L7,33 L4,33 Z M40.943,34.14 L40.943,36.14 C42.019,36.14 44.126,37.201 44.126,39.656 C44.126,43.842 40.29,43.996 39.856,44 L21.628,44 C18.314,44 16,42.27 16,39.793 L16,39.48 C16,37.058 18.644,35.994 20.267,35.569 C20.3,35.563 20.334,35.555 20.368,35.545 C20.834,35.404 21.131,34.95 21.073,34.467 C21.055,34.315 21.065,34.134 21.071,33.96 C21.075,33.841 21.079,33.725 21.079,33.617 C21.079,31.555 22.695,28.563 24.858,27.646 C27.279,26.623 29.303,27.379 30.573,28.191 L31.651,26.506 C29.28,24.99 26.593,24.741 24.078,25.805 C21.368,26.953 19.079,30.531 19.079,33.617 L19.074,33.833 C16.969,34.507 15.468,35.606 14.667,37 L9,37 L9,9 L29,9 L29,22 L31,22 L31,7 L26,7 L26,3 L2,3 L2,35 L7,35 L7,39 L14.043,39 C14.029,39.16 14,39.315 14,39.48 L14,39.793 C14,43.39 17.208,46 21.628,46 L39.856,46 C42.025,46 46.126,44.674 46.126,39.656 C46.126,36.057 43.116,34.14 40.943,34.14 L40.943,34.14 Z M37.944,24 C39.593,24 40.79,25.197 40.79,26.847 C40.79,27.918 39.315,30.611 37.944,32.742 C36.572,30.611 35.098,27.919 35.098,26.847 C35.098,25.197 36.295,24 37.944,24 L37.944,24 Z M37.944,35.539 C38.271,35.539 38.577,35.38 38.764,35.112 C39.437,34.149 42.79,29.23 42.79,26.847 C42.79,24.084 40.707,22 37.944,22 C35.182,22 33.098,24.084 33.098,26.847 C33.098,29.23 36.452,34.15 37.125,35.112 C37.312,35.38 37.618,35.539 37.944,35.539 L37.944,35.539 Z" id="AWS-Cloud-Map-Service_Resource-Icon_light-bg" fill="#4D27AA"></path>
    </g>
</svg>