<?xml version="1.0" encoding="UTF-8"?>
<svg width="48px" height="48px" viewBox="0 0 48 48" version="1.1" xmlns="http://www.w3.org/2000/svg" xmlns:xlink="http://www.w3.org/1999/xlink">
    <title>Icon-Resource/Networking-and-Content-Delivery/Res_AWS-Application-Gateway-Resource_48_Light</title>
    <g id="Icon-Resource/Networking-and-Content-Delivery/Res_AWS-Application-Gateway-Resource_48" stroke="none" stroke-width="1" fill="none" fill-rule="evenodd">
        <path d="M17.955,29.333 L19.369,30.747 L16.796,33.32 C16.608,33.507 16.354,33.613 16.089,33.613 C15.823,33.613 15.569,33.507 15.382,33.32 L12.809,30.747 L14.224,29.333 L15,30.109 L15,17.72 L14.14,18.58 L12.726,17.166 L15.299,14.593 C15.486,14.406 15.74,14.3 16.006,14.3 C16.271,14.3 16.525,14.406 16.713,14.593 L19.285,17.166 L17.871,18.58 L17,17.708 L17,30.288 L17.955,29.333 Z M13.87,24.705 L11.297,27.278 L9.883,25.864 L10.747,25 L5.36,25 L5.36,23 L10.75,23 L9.883,22.133 L11.297,20.719 L13.87,23.291 C14.058,23.479 14.163,23.733 14.163,23.998 C14.163,24.263 14.058,24.518 13.87,24.705 L13.87,24.705 Z M21.922,25.864 L20.508,27.278 L17.934,24.705 C17.747,24.518 17.642,24.263 17.642,23.998 C17.642,23.733 17.747,23.479 17.934,23.291 L20.508,20.719 L21.922,22.133 L21.055,23 L26.36,23 L26.36,25 L21.058,25 L21.922,25.864 Z M24,44 C12.972,44 4,35.028 4,24 C4,12.972 12.972,4 24,4 C35.028,4 44,12.972 44,24 C44,35.028 35.028,44 24,44 L24,44 Z M24,2 C11.869,2 2,11.869 2,24 C2,36.131 11.869,46 24,46 C36.131,46 46,36.131 46,24 C46,11.869 36.131,2 24,2 L24,2 Z M35,34.36 L37,34.36 L37,32.36 L35,32.36 L35,34.36 Z M38,30.36 L34,30.36 C33.447,30.36 33,30.808 33,31.36 L33,32.36 L23,32.36 L23,29.36 L21,29.36 L21,33.36 C21,33.912 21.447,34.36 22,34.36 L33,34.36 L33,35.36 C33,35.912 33.447,36.36 34,36.36 L38,36.36 C38.553,36.36 39,35.912 39,35.36 L39,31.36 C39,30.808 38.553,30.36 38,30.36 L38,30.36 Z M35,25 L37,25 L37,23 L35,23 L35,25 Z M38,21 L34,21 C33.447,21 33,21.447 33,22 L33,23 L29,23 L29,25 L33,25 L33,26 C33,26.552 33.447,27 34,27 L38,27 C38.553,27 39,26.552 39,26 L39,22 C39,21.447 38.553,21 38,21 L38,21 Z M35,15.36 L37,15.36 L37,13.36 L35,13.36 L35,15.36 Z M38,11.36 L34,11.36 C33.447,11.36 33,11.808 33,12.36 L33,13.36 L22,13.36 C21.447,13.36 21,13.808 21,14.36 L21,18.36 L23,18.36 L23,15.36 L33,15.36 L33,16.36 C33,16.912 33.447,17.36 34,17.36 L38,17.36 C38.553,17.36 39,16.912 39,16.36 L39,12.36 C39,11.808 38.553,11.36 38,11.36 L38,11.36 Z" id="AWS-Application-Gateway_Resource-Icon_light-bg" fill="#4D27AA"></path>
    </g>
</svg>